<svg width="150" height="150" viewBox="0 0 150 150" fill="none" xmlns="http://www.w3.org/2000/svg">
<g clip-path="url(#clip0_71_1706)">
<path d="M134 0H16C7.16344 0 0 7.16344 0 16V134C0 142.837 7.16344 150 16 150H134C142.837 150 150 142.837 150 134V16C150 7.16344 142.837 0 134 0Z" fill="#173859"/>
<path d="M121.48 4.48H28.54C24.1218 4.48 20.54 8.06172 20.54 12.48V105.42C20.54 109.838 24.1218 113.42 28.54 113.42H121.48C125.898 113.42 129.48 109.838 129.48 105.42V12.48C129.48 8.06172 125.898 4.48 121.48 4.48Z" fill="#CFE8D7"/>
<path d="M18.8599 112.63V3.65C56.2899 3.65 93.7099 3.65 131.14 3.65C131.14 39.87 131.14 76.09 131.14 112.31C130.96 112.21 130.74 112.15 130.6 112C129.63 111.03 128.5 110.33 127.14 110.06C126.41 109.92 125.66 109.84 125.04 109.75C124.99 109.23 125.04 108.71 124.88 108.26C124.46 107.08 123.63 106.19 122.59 105.5C121.45 104.74 119.65 105.03 118.73 106C118.14 106.62 117.41 107.11 116.75 107.66C116.52 107.85 116.08 108.17 116.1 108.19C116.48 108.75 115.83 108.64 115.69 108.83C115.6 108.95 115.45 109.02 115.29 109.13C115.47 109.3 115.62 109.44 115.75 109.56C115.57 109.86 114.55 108.94 115.09 110.09C115.1 110.11 115.03 110.17 115.01 110.21C114.63 111.15 113.86 112.04 114.6 113.14C114.64 113.2 114.66 113.31 114.63 113.37C114.34 114.05 114.85 114.29 115.29 114.28C115.94 114.28 116.2 114.64 116.48 115.09H80.4199C80.3199 114.9 80.2099 114.72 80.1099 114.53C79.7099 113.8 78.7599 113.28 79.2499 112.21C79.2799 112.14 79.0699 111.88 78.9399 111.83C78.6399 111.72 78.3099 111.7 77.8699 111.61C77.9299 111.84 77.9999 112.12 78.0599 112.37C77.5799 111.97 77.0899 111.56 76.5699 111.13C76.4799 111.36 76.4299 111.5 76.3599 111.66C75.6799 111.19 75.5899 110.14 74.5099 110.07C74.5799 110.25 74.5999 110.34 74.6399 110.42C75.1499 111.27 75.8599 112.07 76.1199 112.99C76.3399 113.78 77.0599 114.05 77.3399 114.7C77.3899 114.82 77.6599 114.84 77.8199 114.9C77.8499 114.75 77.8899 114.6 77.8999 114.53C78.2299 114.6 78.5599 114.63 78.8699 114.74C79.0199 114.79 79.1299 114.97 79.2599 115.09H56.0499C55.8399 115.01 55.5599 114.99 55.4199 114.84C55.0999 114.51 54.5699 114.06 54.6299 113.77C54.8099 112.88 55.2299 112.05 55.4999 111.34C55.9299 111.34 56.3199 111.46 56.5699 111.32C57.4699 110.8 58.3099 110.94 59.1799 111.37C59.2299 111.4 59.3199 111.37 59.4099 111.37C59.3999 111.13 59.3899 110.91 59.3699 110.39C60.1299 110.89 60.6899 111.26 61.4299 111.74C61.0999 111.17 60.8799 110.79 60.5999 110.31C61.1499 110.55 61.5199 110.71 62.0799 110.95C61.9399 110.49 61.8699 110.29 61.8199 110.08C61.4099 108.49 61.4899 108.4 63.1299 108.25C63.5799 108.21 64.1599 108.18 64.0999 107.33C63.4899 107.42 62.8799 107.64 62.2999 107.56C60.0199 107.27 57.9999 107.87 56.1499 109.16C55.3399 109.73 54.7299 110.43 54.3799 111.38C54.0699 112.22 53.6899 113.03 53.2899 113.83C53.0599 114.28 52.7299 114.67 52.4399 115.09H46.3499C46.4499 114.82 46.5499 114.55 46.6599 114.25C47.0199 114.37 47.3799 114.5 47.7799 114.64C47.7399 113.61 48.2699 113.06 49.5899 112.83C49.2799 112.64 49.0699 112.55 48.9199 112.39C48.6999 112.17 48.3899 111.91 48.3799 111.66C48.3799 111.43 48.6899 111.07 48.9299 110.99C49.1899 110.91 49.5299 111.09 49.8599 111.16C49.5299 109.84 50.0199 108.9 50.9099 108.8C51.5499 107.86 50.8699 107.36 50.1799 106.78C50.5599 106.72 50.7999 106.69 51.1099 106.64C50.7999 106.41 50.5499 106.23 50.2999 106.04C51.6199 106.14 52.8299 106.85 54.0999 106.04C53.7099 106.1 53.3199 106.15 52.9699 106.2C53.1099 105.85 53.2299 105.55 53.3199 105.33C52.7299 105 52.1899 104.7 51.6399 104.4C51.9999 104.37 52.3599 104.34 52.7199 104.31C51.3799 103.78 51.1399 103.51 51.1899 102.55C51.7599 102.86 52.3499 103.18 53.1399 103.62C52.5399 102.76 52.0599 102.09 51.5499 101.36C52.3899 101.45 53.2599 102.24 53.3999 103.03C53.4799 103.5 53.4199 103.93 54.1299 103.96C54.5099 103.97 54.8699 104.3 55.2499 104.49C55.2799 104.43 55.3099 104.37 55.3299 104.31C54.8999 103.81 54.4599 103.31 53.9299 102.7C54.4799 101.8 52.9099 101.78 52.9599 100.89C53.4799 101.39 53.9999 101.88 54.5199 102.37C54.6199 102.03 54.7099 101.71 54.8099 101.4C55.0399 101.6 55.2399 101.79 55.4499 101.98C55.5899 101.61 55.6899 101.34 55.7899 101.07C55.9299 101.11 56.0699 101.15 56.2099 101.19C56.0899 101.6 56.0199 102.03 55.8399 102.41C55.7499 102.6 55.2999 102.7 55.3099 102.84C55.3199 103.11 55.5299 103.37 55.6999 103.72C56.1099 103.28 56.3999 102.97 56.5899 102.76C57.2299 103.11 57.7799 103.48 58.3899 103.74C58.8199 103.92 59.3099 103.94 59.7799 104.03C60.6399 104.2 61.5999 104.69 62.3399 104.47C63.1399 104.23 63.7999 104.25 64.5499 104.39C65.1099 104.5 65.1099 104.19 64.8299 103.79C64.9699 103.77 65.0499 103.73 65.1199 103.74C65.8799 103.84 66.6399 103.99 67.3999 104.05C67.7999 104.08 68.2199 103.9 68.6299 103.93C69.2099 103.97 69.5399 103.68 69.4199 103C70.9599 103.53 72.3199 102.33 73.8499 102.67C74.5399 102.82 75.2899 102.69 75.9999 102.78C76.5999 102.86 77.1799 103.07 77.7599 103.22C77.7599 103.32 77.7599 103.42 77.7599 103.52C76.3899 103.73 74.7699 103.39 73.9799 104.93C73.8599 104.91 73.6499 104.81 73.4899 104.87C73.3199 104.93 73.0999 105.12 73.0699 105.28C73.0099 105.63 73.0499 105.99 73.0499 106.47C72.7299 106.27 72.5299 106.15 72.3899 106.06C72.1799 106.4 72.0099 106.69 71.8299 106.99C72.2399 107.14 72.6799 107.31 73.2499 107.53C72.5499 107.73 72.0099 107.91 71.4199 107.5C71.1599 107.31 70.6499 107.12 70.4599 107.25C69.6599 107.8 69.1899 107.36 68.6199 106.87C68.4099 106.69 67.9599 106.75 67.6299 106.8C67.4399 106.83 67.2799 107.07 67.0699 107.24C67.2899 107.34 67.4399 107.41 67.6099 107.49C67.0232 108.163 66.5032 108.463 66.0499 108.39C65.7799 109.36 65.3299 109.51 64.6599 109.03C64.2699 109.03 64.0399 109.03 63.8099 109.03C63.5399 109.03 63.2799 109.03 62.8899 109.03C63.1399 109.43 63.3199 109.72 63.4999 110.01C63.3899 110.01 63.2599 110.04 63.1799 109.99C62.7599 109.73 62.4699 109.95 62.3799 110.3C62.3399 110.46 62.6399 110.82 62.8499 110.89C63.1899 111.01 63.5899 110.96 63.9899 110.99C63.7599 110.55 63.6199 110.27 63.4699 109.99C63.5499 110 63.6599 109.99 63.7099 110.03C64.7499 110.92 65.4199 110.91 66.4599 110.1C66.7599 109.87 67.2399 109.88 67.6299 109.79C67.7499 109.64 67.8899 109.26 68.1099 109.21C68.8799 109.05 69.6799 109.01 70.5899 108.92C70.5899 108.92 70.7799 109.04 70.9599 109.17C71.0599 108.98 71.1699 108.8 71.2699 108.62C72.1099 108.53 73.0399 108.61 73.8199 108.31C74.8099 107.93 75.5399 108.93 76.4399 108.71C76.2399 108.35 76.0899 108.09 75.8799 107.73C76.3699 107.7 76.6599 107.68 77.0399 107.66C76.9199 107.42 76.8299 107.26 76.7399 107.1C77.0999 107.13 77.4299 107.16 77.7699 107.19C77.9399 107.43 78.1299 107.71 78.3999 108.08C78.4199 107.79 78.4399 107.61 78.4499 107.46C78.8899 107.71 79.5799 108.18 79.6399 108.11C80.2099 107.45 80.5699 108.01 80.9399 108.27C81.8199 108.9 82.9099 109.42 83.4799 110.27C84.1899 111.31 85.0999 111.6 86.1599 111.79C86.7899 111.9 87.4299 111.93 88.0699 111.99C88.4399 110.72 88.4499 110.72 88.0399 109.52C87.9099 109.15 87.4999 108.7 87.6099 108.45C87.9699 107.58 87.4499 107.01 87.0399 106.47C85.9699 105.08 84.5199 104.21 82.8399 103.73C81.6799 103.39 80.4699 103.11 79.6999 102.05C79.3699 101.6 79.1599 101.01 78.7499 100.67C77.2999 99.47 75.4899 99.3 73.7799 99.56C71.8299 99.86 70.2799 99.44 68.8399 98.15C68.2999 97.66 67.5899 97.35 66.9399 96.98C66.0199 96.46 65.1199 97.02 64.2099 97.07C63.6399 97.1 62.7899 97.17 62.5699 97.53C62.1699 98.2 61.9299 97.8 61.5699 97.67C61.3499 97.59 61.0799 97.62 60.8399 97.6C60.8399 97.64 60.8399 97.68 60.8399 97.72C61.2999 97.89 61.7599 98.06 62.1999 98.22C62.1299 98.58 62.0799 98.83 62.0099 99.14C62.6599 99.07 63.2299 99.01 63.7899 98.94C64.1099 98.1 64.3999 97.28 65.6099 97.55C65.1699 98.24 63.8999 98.66 64.9599 99.7C64.1999 99.91 63.4999 100.09 62.8199 100.31C62.7099 100.35 62.6599 100.59 62.5799 100.73C62.7399 100.76 62.8999 100.83 63.0499 100.81C63.1599 100.8 63.2599 100.67 63.3599 100.6C64.2299 101.51 65.6499 101.45 66.0099 100.56C66.5499 100.62 67.0599 100.67 67.5799 100.72L67.5999 101.08C66.4399 101.2 65.2799 101.34 64.1199 101.44C63.3299 101.51 62.5399 101.56 61.7499 101.57C61.0199 101.58 60.2599 101.64 59.5599 101.49C58.1099 101.18 56.6999 100.61 55.2399 100.38C54.0399 100.19 52.6699 99.85 51.6999 101.02C51.2799 101.52 50.9899 102.14 50.6899 102.74C50.3799 103.35 50.3599 103.9 51.2399 104.05C51.3299 104.07 51.4099 104.16 51.4899 104.22C50.9599 104.24 50.3899 104.13 50.1899 104.87C49.8499 106.1 49.4599 107.32 49.0899 108.55C48.5899 110.2 47.6599 111.48 46.2299 112.52C45.3899 113.13 44.8999 114.22 44.2499 115.1H40.2999C40.5899 114.3 40.7699 113.43 41.2099 112.73C41.6999 111.94 42.4299 111.3 43.0599 110.6C43.9299 109.63 44.0299 108.32 44.5399 107.18C44.8599 106.45 44.9999 105.51 44.8399 104.74C44.7299 104.2 44.8599 104.03 45.1799 103.8C44.7899 103.19 44.4699 103.37 44.2399 103.87C44.1199 104.13 44.1399 104.44 44.0899 104.73C43.9399 105.68 43.9699 106.71 43.5999 107.57C42.4399 110.26 40.9499 112.78 39.1499 115.1H18.8999C18.8999 114.72 18.8999 114.33 18.8999 113.95C20.1599 113.56 21.4099 113.18 22.7199 112.77C22.6399 113.32 22.5599 113.87 22.4799 114.41C22.5499 114.44 22.6099 114.48 22.6799 114.51C23.4299 113.98 24.1699 113.45 24.9299 112.91C24.6199 112.78 24.3799 112.69 24.1499 112.59C24.1399 112.5 24.1199 112.42 24.1099 112.33C24.9099 111.98 25.7199 111.63 26.5799 111.26C26.5999 111.31 26.6799 111.48 26.7599 111.64C27.0599 111.44 27.2099 111.45 27.2199 111.42C27.2699 111.24 27.2999 111.04 27.3299 110.82C27.5799 110.75 27.9299 110.65 28.3099 110.54C28.2399 110.29 28.1899 110.1 28.1199 109.85C28.3299 109.81 28.5099 109.8 28.6699 109.75C29.1499 109.61 29.7499 109.71 29.9399 109C30.0399 108.64 30.1999 108.2 30.4799 108C30.7399 107.81 31.1999 107.89 31.5499 107.85C31.4799 107.47 31.4399 107.21 31.3799 106.92C31.7999 107.01 32.1399 107.08 32.2599 107.1C32.2999 106.79 32.3299 106.52 32.3699 106.22C32.6399 106.36 32.7799 106.43 32.9299 106.51C32.2499 105.82 33.1499 105.64 33.2599 105.19C33.3699 105.41 33.4399 105.57 33.4999 105.69C34.3599 105.27 34.6099 104.56 34.6799 103.74V104.98C35.3399 104.38 35.8699 103.89 36.3899 103.41C36.3499 103.32 36.3199 103.22 36.2799 103.13C36.8199 103.2 37.3599 103.27 38.0099 103.35C37.7399 103.13 37.5499 102.97 37.5399 102.97C37.9599 102.74 38.4699 102.57 38.8399 102.24C39.2999 101.83 39.5799 101.21 40.0499 100.81C40.8499 100.13 41.7699 99.6 42.5599 98.92C43.1499 98.41 43.7999 97.92 44.1299 97.16C44.1999 96.99 44.3199 96.83 44.4299 96.68C45.4799 95.25 46.5199 93.82 47.6099 92.34C47.3999 92.43 47.1899 92.46 47.0699 92.58C46.0299 93.59 45.0399 94.66 43.9699 95.63C42.5799 96.89 41.2099 98.2 39.6799 99.25C38.0099 100.4 36.1199 101.22 34.3999 102.29C32.9799 103.18 31.6499 104.21 30.2999 105.21C27.7899 107.06 25.3399 109 22.7699 110.76C21.5999 111.56 20.1799 112 18.8799 112.6L18.8599 112.63ZM49.5499 100.03C50.0799 99.71 51.0799 99.91 51.3799 100.39C51.5699 100.26 51.7599 100.12 52.0399 99.93C51.4799 99.71 50.9999 99.52 50.5199 99.33L50.5899 99.17C51.2499 99.31 51.9099 99.45 52.6099 99.59C52.4799 99.84 52.4199 99.96 52.2699 100.25C52.6699 100.09 52.8999 100 53.1499 99.9C52.3299 98.77 52.3099 98.77 51.0999 98.81C50.8499 98.81 50.5899 98.87 50.3599 98.79C49.9599 98.66 49.5199 98.48 49.3599 98.98C49.2599 99.28 49.4799 99.68 49.5499 100.03C49.3599 99.9 49.1699 99.78 48.9899 99.63C48.8899 99.54 48.8299 99.39 48.7299 99.31C48.6099 99.21 48.4599 99.14 48.3299 99.06C48.4799 98.97 48.6299 98.87 48.7799 98.78C48.7799 98.72 48.7599 98.65 48.7499 98.59C48.0399 98.7 47.3299 98.81 46.7099 98.91C46.8599 99.31 47.1099 99.65 47.0199 99.84C46.6899 100.57 47.2199 100.82 47.5699 101.29V99.41C47.9699 99.91 48.2699 100.35 48.6299 100.74C49.2699 101.44 49.6099 100.47 50.1399 100.52C50.1599 100.45 50.1699 100.37 50.1899 100.3C49.9699 100.22 49.7599 100.14 49.5499 100.06V100.03ZM71.6999 111.82C71.6199 111.54 71.5499 111.27 71.4299 110.85C70.9099 111.16 70.4499 111.44 69.9999 111.71C70.0199 111.81 70.0399 111.9 70.0599 112C70.3199 112.03 70.7799 112.12 70.7899 112.07C70.9799 111.5 71.4199 111.89 71.7199 111.79C72.0499 112.08 72.3799 112.37 72.7199 112.65C72.7199 112.58 72.7199 112.51 72.7299 112.44L74.1099 112.21C74.1099 112.21 74.0599 112.13 74.0299 112.09C74.2899 111.89 74.5499 111.69 74.8099 111.49C74.1032 110.517 73.0399 110.28 71.6199 110.78C71.8199 111 72.0099 111.22 72.2899 111.53C72.0399 111.64 71.8699 111.73 71.6899 111.81L71.6999 111.82ZM63.6399 19.94C63.6899 20.05 63.7499 20.15 63.7999 20.26C64.3699 19.84 64.9299 19.42 65.4999 18.99C65.4399 18.91 65.3799 18.83 65.3199 18.75C65.0699 18.92 64.8199 19.09 64.5799 19.27C64.2599 19.5 63.9399 19.74 63.6299 19.97C63.7999 19.74 63.9499 19.49 64.1499 19.29C64.5499 18.89 64.9799 18.51 65.4399 18.08C61.8599 17.84 58.3599 18.81 55.1099 20.05C49.4399 22.2 44.7799 25.96 40.9599 31C41.4999 30.75 41.8499 30.58 42.1899 30.42C42.2599 30.58 42.3199 30.71 42.4499 30.98C42.8499 30.6 43.1699 30.31 43.4799 30C44.1899 29.3 44.8899 28.59 45.5999 27.89C45.6799 27.96 45.7599 28.03 45.8399 28.1C45.6599 28.38 45.4799 28.67 45.2899 28.95C45.3299 28.99 45.3699 29.02 45.3999 29.06C46.2799 28.21 47.1599 27.35 48.1799 26.36C48.1299 26.81 48.0999 27.05 48.0499 27.45C48.9799 26.45 49.8099 25.56 50.7399 24.56C50.7699 24.91 50.7799 25.05 50.7999 25.34C51.0399 24.85 51.1999 24.51 51.3699 24.18C51.4099 24.2 51.4399 24.22 51.4799 24.24C51.4099 24.6 51.3499 24.96 51.2399 25.55C51.9899 24.96 52.5299 24.53 53.0799 24.1C53.4799 24.24 53.9199 24.3 54.2299 24.12C54.7999 23.79 55.2799 23.33 55.8099 22.92C55.8599 22.97 55.8999 23.03 55.9499 23.08C55.7899 23.27 55.6299 23.46 55.4699 23.65C55.4899 23.68 55.5199 23.7 55.5399 23.73C56.5899 23 57.6399 22.26 58.7199 21.51C58.6499 22.03 58.5899 22.45 58.5399 22.87C58.6299 22.93 58.7299 22.98 58.8199 23.04C59.1099 22.76 59.3899 22.48 59.6799 22.2C59.8799 22 60.1099 21.6 60.2699 21.62C61.0699 21.74 61.3999 20.96 62.0399 20.78C62.6099 20.62 63.1199 20.22 63.6599 19.93L63.6399 19.94ZM98.0499 101.76C98.0899 102.45 98.4699 101.87 98.6699 101.91C99.5499 102.1 100.44 102.24 101.31 102.43C101.4 102.45 101.46 102.66 101.67 103.02C100.99 102.83 100.53 102.56 100.1 102.62C99.6699 102.68 99.2799 103.06 98.8099 103.34C98.0099 102.41 97.1899 103.46 96.4999 103.7C95.9099 103.91 95.6299 105.03 95.1199 105.91C97.5399 105.22 99.4699 105.97 101.26 107.28C101.36 107.57 101.45 107.87 101.53 108.1H102.72C103.73 106.77 103.74 106.76 104.64 108.12C104.99 107.6 105.66 106.93 105.54 106.73C105.03 105.89 105.78 105.5 105.91 104.85C107.05 105.69 105.61 106.51 106.13 107.52C106.26 105.65 107.53 106.07 108.63 106.16C108.4 106.28 108.17 106.4 107.82 106.58C108.06 106.81 108.24 107.04 108.47 107.19C108.89 107.47 109.34 107.7 109.78 107.95C109.75 108.03 109.71 108.11 109.68 108.19C109.23 108.14 108.64 107.17 108.38 108.42C108.28 108.25 108.21 108.15 108.16 108.04C108.03 107.76 107.91 107.48 107.78 107.2C107.55 107.36 107.32 107.51 107.1 107.68C106.89 107.84 106.71 108.06 106.48 108.17C105.89 108.46 105.58 109.2 105.98 109.7C106.37 110.17 106.22 110.64 105.98 110.93C105.62 111.37 105.81 111.57 106.08 111.87C106.39 112.2 106.68 112.55 107.07 113C107.63 111.86 108.71 111.84 109.78 111.99C110.92 112.15 112.02 112.48 112.93 113.61C113.26 113.11 113.67 112.71 113.81 112.23C114.34 110.45 114.78 108.63 115.23 106.94C115.29 107.04 115.43 107.3 115.6 107.59C116.46 106.89 117.15 106.25 116.65 105.06C116.87 105.39 117.08 105.71 117.31 106.05C117.5 105.98 117.81 105.86 118.1 105.75C118.19 104.4 116.63 102.34 115.01 102.2C113.89 102.1 112.75 102.1 111.63 102.08C110.73 102.06 110.03 102.76 109.97 103.46C109.02 103.95 108.18 104.39 107.31 104.84C106.87 103.76 105.89 103.32 104.82 103.09C104.01 102.91 103.39 102.54 102.87 101.92C102.27 101.21 101.42 100.87 100.56 100.97C99.6899 101.07 98.8499 101.49 97.9999 101.77C98.2899 101.26 98.6699 100.78 98.8399 100.23C99.4799 98.22 100.09 96.2 100.65 94.17C101.35 91.59 101.89 88.96 102.68 86.41C103.47 83.85 104.41 81.27 106.39 79.35C108.43 77.37 109.85 75.02 111.01 72.48C111.47 71.48 111.98 70.48 111.71 69.27C111.47 68.17 111.36 67.05 111.25 65.93C111.13 64.68 111.13 63.42 110.98 62.17C110.86 61.19 110.46 60.24 110.41 59.26C110.35 58.31 109.31 57.58 109.85 56.53C109.85 56.53 109.81 56.49 109.8 56.47C109.66 55.73 109.45 55 109.4 54.25C109.28 52.14 108.89 50.08 108.15 48.13C107.56 46.57 106.74 45.1 105.99 43.6C105.08 41.79 104.18 39.96 103.19 38.19C102.08 36.21 100.89 34.26 99.6699 32.34C99.0999 31.43 98.4899 30.5 97.7099 29.78C96.3699 28.54 94.9299 27.4 93.4499 26.32C92.3999 25.55 91.2399 24.91 90.0999 24.28C89.2999 23.84 88.4599 23.49 87.6299 23.1C86.3599 22.51 85.0799 21.92 83.7999 21.34C83.7399 21.42 83.6799 21.5 83.6299 21.58C83.8899 23.02 85.4799 23.45 86.0699 24.67C85.4399 24.21 84.9299 23.64 84.3499 23.14C83.7499 22.63 83.0999 22.15 82.4299 21.74C81.9299 21.44 81.3499 21.3 80.8199 21.05C80.5799 20.94 80.3799 20.76 80.1599 20.61C80.1299 20.65 80.0899 20.7 80.0599 20.74C80.8799 21.46 81.7099 22.18 82.5299 22.9C82.4599 22.98 82.3799 23.06 82.3099 23.14C81.6399 22.54 80.9799 21.94 80.3099 21.34C80.0499 21.15 79.7699 20.98 79.5399 20.76C78.8799 20.14 78.1299 19.76 77.0099 19.77C77.8199 20.25 78.4599 20.67 79.1399 21.01C79.4999 21.19 79.9299 21.22 80.3299 21.32C79.8899 21.32 79.4299 21.41 78.9999 21.33C78.5099 21.24 78.0499 21.02 77.4799 20.81C77.4999 21.07 77.5099 21.21 77.5299 21.49C76.8599 21.23 76.2799 20.89 75.6499 20.78C74.9599 20.66 74.2399 20.75 73.5299 20.75C73.5799 20.97 73.6399 21.03 73.6999 21.05C74.5099 21.28 75.4399 21.05 76.1499 21.71C76.3599 21.9 76.6799 22.01 76.9699 22.04C78.1699 22.18 79.3699 22.27 80.5799 22.38C79.3699 22.56 78.1399 22.41 76.9599 22.6C75.8099 22.78 74.7099 23.3 73.5799 23.66C73.5799 23.69 73.5699 23.72 73.5599 23.74H76.4199C75.4999 24.66 74.3299 24.18 73.3099 24.54C74.4599 24.63 75.1399 25.28 75.6399 26.28C74.7499 26.44 73.8799 26.6 73.0099 26.76C73.0099 26.81 73.0199 26.86 73.0299 26.91H73.7999C73.7999 26.91 73.8099 27.01 73.8199 27.06C73.4799 27.17 73.1399 27.28 72.7699 27.41C73.3399 27.59 73.8899 27.76 74.3999 27.93C73.9299 28.08 73.5199 28.21 73.1099 28.34C73.1199 28.38 73.1299 28.42 73.1399 28.47C73.4099 28.45 73.6899 28.43 73.9599 28.41C73.9599 28.48 73.9799 28.54 73.9899 28.61C73.0999 28.85 72.2099 29.1 71.3899 29.32C71.8099 29.55 72.2099 29.77 72.6399 30.01C72.4399 30.16 72.2799 30.27 72.0999 30.41C72.2899 30.46 72.4299 30.49 72.5699 30.52C72.5699 30.56 72.5599 30.6 72.5499 30.63C71.3199 30.79 70.0999 30.95 68.8699 31.1C68.8699 31.13 68.8899 31.17 68.8899 31.2C69.1999 31.27 69.4999 31.35 70.0199 31.47C69.1299 31.77 68.3299 31.34 67.7799 31.98C68.3399 32.04 68.8799 31.83 69.4199 32.1C69.7499 32.27 70.2799 32.61 70.4099 32.5C71.0099 31.99 71.4599 32.53 71.9399 32.63C72.1299 32.67 72.2599 33.06 72.4099 33.29C71.9999 33.26 71.7699 33 71.5599 33.01C70.5099 33.06 69.3899 32.97 68.4299 33.32C66.8899 33.87 65.0799 33.99 64.0799 35.59C63.9799 35.75 63.9899 35.99 63.9299 36.31C66.1299 35.26 70.5099 35.16 71.4599 36.1C70.7999 35.99 70.1399 35.88 69.4699 35.76C69.5299 35.97 69.5899 36.18 69.6499 36.41C69.1699 36.61 68.7299 36.79 68.2899 36.96C68.5799 37.14 68.8699 37.15 69.1599 37.14C69.6399 37.11 70.1299 37.05 70.6099 37.04C70.7799 37.04 70.9899 37.23 71.1299 37.18C72.0399 36.86 72.8599 37.31 73.6299 37.57C74.8999 38 76.0699 38.73 77.2899 39.33C77.3599 39.37 77.4799 39.45 77.5099 39.42C78.1499 38.86 78.0999 39.61 78.2899 39.85C78.4899 40.1 78.5899 40.43 78.7999 40.67C79.2299 41.14 79.6199 41.71 80.3799 41.54C80.5499 41.9 80.7099 42.23 80.8599 42.56L80.7299 42.63C80.2099 42.26 79.6899 41.9 79.1599 41.53C79.1199 41.65 79.0799 41.78 79.0399 41.9C78.3899 41.46 77.7399 41.04 77.0999 40.61C77.0799 40.65 77.0599 40.69 77.0399 40.73C77.2499 41.07 77.4499 41.41 77.6599 41.75C77.6299 41.78 77.5899 41.81 77.5599 41.85C76.8699 41.26 76.1799 40.68 75.4899 40.09C75.4499 40.14 75.4099 40.19 75.3799 40.23C75.4699 40.38 75.5699 40.53 75.7199 40.78C74.6599 40.29 73.7099 39.84 72.7499 39.4C72.6799 39.48 72.6199 39.56 72.5499 39.65C72.7999 39.75 73.0399 39.85 73.2899 39.94C73.0799 40.11 72.9899 40.16 72.9399 40.14C72.3599 39.83 71.8099 39.38 71.1899 40.14C71.0799 40.27 70.6999 40.18 70.4399 40.18C69.6399 40.18 68.8399 40.16 68.0499 40.2C67.9199 40.2 67.7999 40.49 67.6499 40.68C65.8499 40.92 64.0599 41.52 62.4799 42.97C62.7999 42.92 63.0199 42.88 63.2899 42.84C62.7599 43.32 62.2799 43.76 61.7099 44.27C61.6799 44.21 61.6199 44.07 61.5299 43.9C61.3299 44.13 61.1799 44.29 61.0199 44.46C61.1099 44.58 61.2099 44.71 61.2799 44.8C61.0299 45.04 60.8199 45.23 60.5199 45.51C60.8699 45.58 61.0699 45.62 61.2799 45.66C61.2399 45.9 61.1999 46.12 61.1199 46.55C61.3899 46.2 61.5299 46.01 61.5799 45.96C61.9999 45.91 62.2899 45.88 62.6399 45.84C62.7299 47.61 61.4199 49.39 62.6599 51.22C63.5199 50.99 63.2899 50.08 63.6599 49.58C63.9699 49.51 64.3799 49.38 64.4099 49.2C64.5099 48.45 64.9899 48.45 65.5599 48.5C65.3699 47.6 66.0399 47.18 66.6299 46.85C67.4299 46.4 68.3299 46.14 69.1799 45.77C69.8799 45.47 70.5499 45.06 71.2699 44.82C72.1799 44.53 73.1099 44.82 73.9399 45.17C75.1099 45.66 76.4399 45.69 77.4999 46.51C77.9999 46.9 78.6199 47.13 79.1899 47.41C80.9199 48.24 82.2899 49.53 82.6499 51.38C82.9599 52.99 83.8099 54.2 84.7299 55.71C84.7299 54.45 84.7499 53.43 84.7299 52.41C84.6999 51.4 84.5999 50.39 85.1099 49.42C85.6699 49.76 86.3299 49.97 86.6499 50.42C87.2099 51.21 87.7199 52.11 87.9499 53.04C88.0999 53.67 87.7499 54.42 87.5799 55.11C87.5199 55.36 87.2299 55.57 87.1899 55.82C87.0699 56.62 87.2499 57.56 86.8899 58.21C86.4699 58.97 85.6499 59.55 84.9099 60.08C84.1699 60.6 83.2999 60.92 82.5199 61.38C82.0499 61.66 81.6499 62.06 81.0599 62.52C81.8599 61.53 82.5699 60.74 83.1699 59.88C83.5999 59.26 84.5499 58.76 83.9199 57.75C84.3899 56.09 83.5999 54.75 82.7199 53.5C81.5599 51.85 80.4799 50.16 78.7999 48.9C77.7799 48.13 76.6999 47.55 75.5599 47.13C73.7099 46.45 71.7799 46.56 69.9299 47.28C68.6599 47.78 67.4999 48.55 66.7899 49.74C65.8499 51.32 65.0799 53 64.1899 54.71C64.6099 54.83 65.0799 54.97 65.5699 55.11C65.7999 50.28 70.3599 46.64 74.9899 47.72C74.6099 47.75 74.2299 47.73 73.8499 47.76C72.5299 47.83 71.1899 47.95 70.1499 48.89C69.2399 49.71 68.3699 50.6 67.5599 51.52C67.0399 52.12 67.5299 53.98 68.2599 54.32C68.6399 54.5 69.1099 54.49 69.4799 54.69C70.1599 55.07 70.7999 55.53 71.5899 56.05C71.5199 55.59 71.4799 55.32 71.4299 55.06C71.4799 55.05 71.5399 55.03 71.5899 55.02C71.7499 55.47 71.9099 55.93 72.1299 56.56C70.0399 56.12 68.1399 55.73 66.2499 55.33C70.6799 57.4 75.3299 57.65 80.1299 57.09C80.2499 57.28 80.3999 57.5 80.5699 57.75C80.3599 57.78 80.0299 57.89 79.9999 57.84C79.5999 57.06 79.0599 57.58 78.7999 57.84C78.3499 58.28 77.8699 58.3 77.3399 58.3C75.9799 58.3 74.6299 58.3 73.2699 58.3C73.2699 58.4 73.2699 58.5 73.2699 58.6H79.9299C78.9399 58.95 77.9499 59.18 76.9799 59.45C75.8499 59.76 74.7599 59.72 73.6699 59.07C73.9299 59 74.1399 58.94 74.5199 58.83C73.6299 58.79 72.9399 58.76 72.2499 58.72C72.2499 58.76 72.2299 58.81 72.2299 58.85C72.4499 58.97 72.6799 59.1 73.0699 59.32C72.0599 59.25 71.2099 59.32 70.4499 59.1C69.2999 58.76 68.5399 58.6 67.9799 58.97C69.4199 59.33 70.7899 59.66 72.1499 60C72.1399 60.11 72.1199 60.21 72.1099 60.32C71.0399 60.22 69.9699 60.11 68.7699 60C69.4099 60.26 69.9299 60.48 70.4599 60.69C70.3499 60.76 70.2399 60.82 69.9299 61.01C71.1699 61.06 72.2799 60.71 73.1799 61.56C72.5099 61.67 71.8499 61.64 71.1799 61.6C70.4999 61.55 69.8199 61.49 69.1499 61.43C68.4899 61.37 67.8299 61.31 67.1699 61.26C67.1699 61.34 67.1599 61.43 67.1499 61.51C67.8999 61.61 68.6499 61.7 69.4299 61.8C69.3699 62.02 69.3199 62.17 69.2699 62.34C69.7099 62.48 70.1299 62.61 70.5499 62.74C70.5499 62.83 70.5299 62.91 70.5299 63C70.2799 63 70.0099 63.05 69.7699 63C68.6399 62.72 67.5099 62.41 66.3799 62.1C65.9699 61.99 65.4999 61.93 65.1699 61.69C63.7499 60.65 62.0399 60.81 60.4699 60.69C59.3199 60.61 58.1199 61.16 56.9599 61.45C56.4499 61.58 56.2399 62.67 56.6199 63.04C56.7499 63.16 56.8399 63.33 57.0099 63.56C57.0199 63.56 57.1899 63.54 57.2499 63.53C57.2199 64.07 57.1999 64.61 57.1699 65.14C58.4799 64.48 59.6499 64.55 60.8399 65.28C60.8899 65.17 60.9399 65.06 60.9999 64.95C60.7499 64.85 60.5099 64.75 60.1999 64.62C60.4799 64.41 60.5799 64.29 60.6899 64.26C61.7299 63.94 62.4599 64.62 63.1699 65.16C63.6599 65.53 64.0499 66.02 64.3799 66.66C64.8799 67.65 65.9799 68.31 66.6999 69.21C67.4999 70.21 68.1599 71.32 68.8899 72.37C69.3599 73.05 69.8199 73.74 70.3199 74.4C70.4199 74.53 70.6999 74.57 70.8999 74.58C70.9799 74.58 71.0999 74.4 71.1299 74.28C71.1699 74.13 71.1299 73.97 71.1299 73.81C71.3799 74.49 71.4599 75.19 71.5399 75.89C71.5399 75.92 71.5399 75.96 71.5299 75.97C70.7699 76.61 71.5799 76.78 71.8699 77.09C71.1599 80.15 71.4499 83.52 73.1799 83.99C73.1599 83.76 73.1799 83.54 73.1199 83.36C72.6099 81.96 72.5899 80.56 73.2199 79.21C73.6299 78.34 74.1699 77.53 74.6899 76.71C75.6899 75.12 76.6999 73.53 77.7399 71.96C78.5899 70.68 79.5299 69.47 80.3499 68.18C81.4099 66.51 82.3399 64.75 83.4399 63.1C83.8499 62.48 84.5899 62.07 85.2099 61.61C85.3999 61.47 85.7399 61.43 85.9699 61.49C86.7599 61.7 87.5399 61.98 88.3199 62.24C89.4299 62.62 90.5399 63.02 91.6499 63.39C91.9999 63.51 92.3699 63.58 92.7299 63.64C92.9899 63.69 93.2499 63.69 93.5499 63.72C93.5499 63.71 93.6199 63.58 93.6899 63.44C94.0699 64.09 94.2399 64.62 94.4299 65.14C94.9199 66.5 96.5599 66.88 97.6099 65.88C97.9099 65.59 98.2099 65.29 98.5099 65L98.4899 64.97C98.3399 65.23 98.2199 65.52 98.0499 65.76C97.1799 67.01 96.0699 68.11 95.4099 69.51C95.2699 69.81 95.1399 69.96 94.7399 70.01C94.2699 70.07 93.8099 70.35 93.3999 70.61C92.8199 70.98 92.2899 71.41 91.7799 71.8C91.3099 71.22 90.9199 70.73 90.7099 70.47H88.3299C88.3899 70.31 88.4399 70.18 88.4999 70.05H86.8199C87.2399 70.28 87.4399 70.4 87.6499 70.52C86.6699 70.76 85.7199 70.99 84.8799 71.19C84.9499 72.04 84.3099 72.07 83.9499 72.26C83.5399 72.48 83.0399 72.54 82.6899 72.64C83.0899 73.08 83.4399 73.47 83.8199 73.89C83.0099 74.55 83.6199 74.61 84.0899 74.74C84.0599 74.9 84.0399 75.07 84.0099 75.22C84.1899 75.22 84.2999 75.24 84.4999 75.25C84.0599 75.76 83.6999 76.18 83.4299 76.5C83.1199 76.54 82.8599 76.58 82.6099 76.61C82.6099 76.68 82.5899 76.75 82.5799 76.83C82.8399 76.95 83.0799 77.12 83.3499 77.19C83.6399 77.26 83.9599 77.25 84.2599 77.24C84.4999 77.24 84.7499 77.17 84.9899 77.12C85.4599 77.03 85.9299 76.93 86.3999 76.83C86.5499 76.89 86.6299 76.62 86.7299 76.61C87.4799 76.55 88.2599 76.1 88.9799 76.76C89.0999 76.87 89.3699 76.95 89.4999 76.89C90.0299 76.66 90.2799 76.95 90.5399 77.32C90.6199 77.43 90.7799 77.49 91.1199 77.72C90.9299 77.05 90.7999 76.62 90.6799 76.17C91.6199 76.79 92.5399 77.4 93.4599 78.01C93.4999 77.95 93.5499 77.88 93.5899 77.82L93.0299 77.16C93.0299 77.16 93.0999 77.1 93.1299 77.06C93.3499 77.24 93.5699 77.41 93.8299 77.61C94.0099 77.41 94.1599 77.24 94.2599 77.12C94.4899 77.22 94.7899 77.4 94.8099 77.37C94.9999 77.11 95.1399 76.81 95.2199 76.67C95.7699 76.97 96.3699 77.29 96.9999 77.63C97.0899 77.54 97.2699 77.38 97.4999 77.15C97.5599 77.45 97.5899 77.63 97.6599 77.94C97.8999 77.56 98.0599 77.31 98.2399 77.01C98.3399 77.28 98.3999 77.47 98.4999 77.75C98.6699 77.46 98.7899 77.26 99.0099 76.88C99.0499 77.36 99.0699 77.63 99.0799 77.69C99.4099 77.66 99.8599 77.55 99.8999 77.64C100.1 78.07 100.4 78.36 100.7 78.7C101.03 79.09 101.01 79.86 100.97 80.46C100.92 81.09 100.67 81.71 100.49 82.39H101.07C100.93 82.97 100.84 83.51 100.12 83.31C100.06 83.68 99.9599 84.02 99.9499 84.37C99.9199 85.41 99.9099 86.45 99.8999 87.5C99.8999 87.83 99.9799 88.19 99.8799 88.49C99.5499 89.46 99.3499 90.61 98.1299 90.87C96.8399 91.14 95.5799 91.51 94.2099 91.42C92.3199 91.29 90.4099 91.4 88.4999 91.38C88.1999 91.38 87.9099 91.22 87.6199 91.14C87.6399 91.06 87.6599 90.97 87.6699 90.89C88.7399 90.89 89.8199 91 90.8599 90.85C91.6699 90.73 92.7399 91.05 93.1899 89.93C93.5765 90.4567 93.8799 90.6267 94.0999 90.44C94.7599 90.56 95.2899 90.66 95.9499 90.79C95.7699 90.37 95.7299 90.16 95.6099 90.03C95.4299 89.85 95.1499 89.57 94.9899 89.61C93.8399 89.92 92.9199 89.85 92.6299 88.69C92.9799 88.28 93.3699 87.99 93.5399 87.6C93.9099 86.72 93.6699 85.83 93.3099 84.99C93.0799 84.44 92.6599 84.37 92.1799 84.71C91.8399 84.95 91.5399 85.27 91.1799 85.46C90.6499 85.72 90.3399 86.12 90.4099 86.68C90.5199 87.58 90.0499 87.48 89.4999 87.28C89.3799 87.24 89.2499 87.11 89.1999 87C88.9499 86.33 88.5299 86.18 87.8699 86.45C87.3299 86.67 86.7499 86.62 86.2999 86.23C85.7599 85.77 85.4299 85.92 84.9799 86.41C84.4899 86.95 84.9499 87.34 85.0899 87.76C85.1199 87.85 85.8799 88.78 85.9899 87.39C86.0699 87.48 86.1499 87.57 86.2299 87.66C86.0499 88.3 85.8699 88.95 85.6899 89.62C82.9499 88.22 80.2899 86.86 77.6199 85.5C77.5799 85.57 77.5499 85.64 77.5099 85.7C78.8799 86.58 80.2499 87.47 81.6299 88.34C82.7299 89.03 83.9199 89.62 84.9499 90.41C85.6199 90.93 86.2699 91.29 87.0899 91.42C87.2699 91.45 87.4399 91.57 87.5899 91.68C88.3199 92.28 88.9999 92.95 89.7899 93.47C90.1699 93.71 90.8999 93.48 91.1899 93.76C91.8799 94.41 92.5599 94.2 93.2899 94.04C93.7999 93.93 94.3599 93.65 94.8199 93.76C95.7899 94.01 96.6199 93.8 97.4799 93.44C97.5799 93.4 97.7499 93.53 98.0399 93.63C97.7399 93.76 97.6299 93.84 97.4999 93.86C95.8499 94.09 94.1899 94.29 92.5499 94.53C91.5999 94.67 90.7099 94.77 89.7799 94.27C89.0699 93.89 88.2099 93.76 87.3999 93.56C87.1399 93.49 86.8499 93.55 86.4899 93.55C87.3399 94.87 88.5599 95.38 89.9599 95.94C86.9599 96.28 86.9099 96.28 86.7599 95.48C85.6899 96.49 84.5899 95.48 83.5399 95.55C83.3899 95.82 83.2499 96.08 83.0999 96.34C83.5299 96.64 84.1499 96.93 84.5799 97.4C85.0799 97.95 85.4299 98.64 85.7899 99.29C85.8799 99.45 85.7899 99.77 85.6999 99.96C85.4099 100.55 85.5799 101.69 85.9599 101.61C86.8799 101.41 86.9199 102.28 87.3999 102.58C87.5899 102.7 87.7799 102.82 87.9799 102.92C88.9399 103.36 89.8799 103.05 90.6499 102.56C91.2799 102.15 92.2999 101.82 91.9999 100.67C91.8899 100.26 91.7899 99.85 91.6899 99.44C92.8899 98.73 93.5999 98.8 94.4699 99.79C94.6799 100.03 95.0299 100.21 94.8999 100.74C94.7899 101.22 95.7699 102.31 96.0899 102.25C96.7699 102.11 97.4299 101.93 98.1099 101.77L98.0499 101.76ZM59.9399 99.25C59.5199 99.09 59.0699 99.03 58.7999 98.78C58.2699 98.29 57.8399 98.22 57.3699 98.71C57.5899 99.21 57.7999 99.67 57.9999 100.14C57.8999 100.19 57.7999 100.25 57.7099 100.3C57.2999 99.79 56.8899 99.27 56.3899 98.64C55.9799 98.68 55.3699 98.72 54.7599 98.82C54.5799 98.85 54.4399 99.05 54.2799 99.17C54.3899 99.3 54.4799 99.48 54.6199 99.55C55.6099 99.97 56.5999 100.38 57.6099 100.75C57.8799 100.85 58.2399 100.68 58.5099 100.78C59.4199 101.12 59.4099 101.13 60.3899 100.63C60.4899 100.58 60.7199 100.58 60.7799 100.65C61.3999 101.35 61.8599 100.89 62.3399 100.5C62.1699 99.68 60.6399 99.58 61.4099 98.37C61.0999 98.26 60.8599 98.18 60.5799 98.09C60.6199 98.49 60.6599 98.78 60.7099 99.21C60.4099 99.03 60.2599 98.94 60.0999 98.84C60.0499 98.98 59.9899 99.12 59.9499 99.23L59.9399 99.25ZM53.2999 64.78V63.64C53.2399 63.62 53.1699 63.59 53.1099 63.57C53.0099 63.7 52.9399 63.9 52.8099 63.96C52.1699 64.25 51.8999 65.1 51.0199 65.03C50.6799 65 50.2299 65.12 49.9699 65.34C48.9799 66.17 48.8599 68.54 49.7399 69.91C49.9399 69.44 50.1199 69.03 50.3399 68.51C50.0699 68.67 49.9199 68.76 49.7699 68.85C50.7199 67.57 51.3199 65.96 53.1599 65.5C52.9799 65.33 52.8199 65.19 52.6799 65.06C52.4199 65.18 52.2099 65.28 52.0099 65.38C52.3099 64.95 52.5499 64.37 53.2899 64.8L53.2999 64.78ZM22.1799 56.4C22.3999 56.14 22.5299 56 22.6399 55.85C23.2499 55.09 23.8699 54.33 24.8699 54.05C26.4899 53.61 28.0999 53.16 29.5899 52.31C30.1099 52.01 30.8599 52.06 31.4999 52.06C32.0799 52.06 32.6699 52.18 33.2499 52.25C33.1599 52 33.0199 51.86 32.8699 51.83C31.6899 51.58 30.5099 51.3 29.3099 51.85C28.0199 52.44 26.7399 53.11 25.3799 53.48C23.9299 53.88 23.1299 54.96 22.1799 55.92C22.1299 55.97 22.1799 56.12 22.1799 56.39V56.4ZM47.3499 94.14C46.6199 94.39 46.5299 94.63 45.9599 97.55C46.2599 97.72 46.4799 97.84 46.6099 97.92C46.9199 97.73 47.1799 97.56 47.4499 97.4C47.5099 97.88 47.8299 97.8 47.9799 97.55C48.1099 97.33 48.0499 96.98 48.0199 96.69C47.9999 96.49 47.8499 96.31 47.7999 96.11C47.6399 95.46 47.4999 94.8 47.3499 94.15V94.14ZM78.2899 88.63C78.3999 88.57 78.4999 88.51 78.6099 88.45C78.4799 88.17 78.3599 87.89 78.2199 87.62C77.5099 86.21 75.6999 85.36 76.1699 83.39C75.9099 83.38 75.7399 83.37 75.6099 83.36V82.08C75.4099 82.26 75.2199 82.35 75.2099 82.46C75.0999 83.44 75.0999 84.4 75.6999 85.26C75.9499 85.61 76.2199 85.94 76.4799 86.28C77.0799 87.06 77.6899 87.85 78.2899 88.63ZM86.5599 79.41C86.1699 79.58 85.7999 79.62 85.6799 79.82C85.1499 80.72 84.8899 81.67 85.5799 82.63C86.9499 81.85 87.7699 79.94 87.0799 79.36C86.9199 79.64 86.7499 79.94 86.5799 80.24C86.5099 80.2 86.4399 80.16 86.3699 80.13C86.4099 79.96 86.4599 79.79 86.5499 79.41H86.5599ZM98.4499 79.22C98.5999 79.54 98.8499 79.92 98.7799 79.98C98.2399 80.54 98.6799 80.93 98.9799 81.32C99.1799 81.58 99.4799 81.77 99.7399 82C99.9999 81.55 100.48 81.1 100.46 80.67C100.44 80.19 100.6 79.37 99.7599 79.24C99.3199 79.17 98.8699 79.23 98.4599 79.23L98.4499 79.22ZM98.0899 87.47C97.2799 87.6 96.0099 88.82 96.1099 89.44C96.1799 89.84 96.5899 90.19 96.8399 90.56C97.1299 90.33 97.5899 90.14 97.6799 89.85C97.8999 89.09 97.9599 88.29 98.0799 87.48L98.0899 87.47ZM96.0899 81.57C96.5999 81.44 97.2199 81.47 97.3499 81.22C97.6099 80.74 97.6499 80.11 97.6799 79.54C97.6799 79.38 97.3299 79.09 97.1199 79.07C96.5199 79.01 95.8999 79.05 95.2199 79.05C96.3299 80.55 96.3499 80.6 96.0899 81.57ZM89.8099 78.9C89.3699 80.03 89.4099 80.24 90.2299 80.85C90.7099 81.21 91.2199 81.04 91.2799 80.44C91.3299 79.94 91.2899 79.42 91.2899 78.89C90.7299 78.89 90.2699 78.89 89.7999 78.89L89.8099 78.9ZM48.7199 65.75C48.7199 65.75 48.6599 65.75 48.6299 65.74C48.4199 66.65 48.1299 67.56 48.0299 68.48C47.9399 69.25 48.0699 70.05 48.1299 70.83C48.1299 70.87 48.4199 70.89 48.6199 70.92C48.6399 71 48.6899 71.15 48.7199 71.26V65.75ZM82.1299 110.36C82.7699 111.6 83.3799 112.79 84.0599 114.11C84.6299 112.26 83.6199 110.63 82.1299 110.36ZM49.1999 64.19C50.1999 64.44 50.4399 63.37 51.0799 63.14C50.9199 62.8 50.7799 62.52 50.6299 62.2C50.0999 62.85 48.9099 62.93 49.2099 64.19H49.1999ZM68.3499 18.6C67.0399 18.03 65.3099 18.96 65.0399 20.21C66.0899 19.7 67.1499 19.18 68.3499 18.6ZM49.8199 71.39C49.9099 72.35 50.0299 73.47 50.1399 74.59C50.2199 74.59 50.2899 74.59 50.3699 74.59C50.4699 74.23 51.1799 74.02 50.4999 73.45C50.3199 73.3 50.4499 72.77 50.4799 72.41C50.5199 71.95 50.5899 71.5 50.6699 70.94C50.3699 71.11 50.1799 71.21 49.8299 71.4L49.8199 71.39ZM48.0499 66.9C47.2499 67.26 47.0699 69.1 47.6499 70.22C47.7799 69.11 47.9099 68.06 48.0499 66.9ZM55.9299 62.02C55.1699 62.28 55.0399 62.75 55.3999 63.92C56.0099 63.38 56.2599 62.79 55.9299 62.02ZM70.5099 113.27C70.0799 112.75 69.7499 112.35 69.4499 111.99C69.1399 112.38 68.8699 112.71 68.6299 113.01C69.1799 113.09 69.7499 113.17 70.5099 113.27ZM67.5299 19.56C67.5699 19.63 67.6099 19.7 67.6499 19.77C68.3199 19.39 68.9999 19.01 69.7599 18.57C68.5799 18.18 68.1499 19.06 67.5299 19.55V19.56ZM53.6099 64.55C53.7399 64.6 53.8699 64.65 53.9999 64.7L54.5699 62.85L54.3399 62.76C54.0999 63.36 53.8499 63.96 53.6099 64.56V64.55ZM47.6499 90.85C47.7399 91.42 47.8199 91.89 47.8999 92.38C48.4999 91.95 48.4399 91.41 47.6499 90.85Z" fill="#173859"/>
<path d="M120.6 115.1C120.71 114.67 121.21 114.7 121.37 114.53C121.74 114.13 121.87 113.5 122.08 112.95C122.19 112.64 122.26 112.31 122.51 112.04C122.35 112.66 122.2 113.28 122.04 113.9C121.92 114.38 121.82 114.73 122.59 114.67C123.07 114.64 123.57 114.95 124.06 115.11H120.6V115.1Z" fill="#173859"/>
<path d="M129.82 115.1L131.14 113.78V115.1H129.82Z" fill="#173859"/>
<path d="M118.54 107.02C119.3 107.37 120.07 106.23 120.93 107.29H118.54C118.54 107.2 118.54 107.11 118.54 107.02Z" fill="#173859"/>
<path d="M102.29 60.49C103.42 61.09 104.39 61.6 105.36 62.12L105.23 62.5C102.78 62.73 100.44 62.41 98.2701 60.96V61.64C98.0201 61.53 97.7001 61.49 97.5401 61.31C96.6501 60.31 95.8001 59.27 94.8301 58.13C98.7201 58.1 102.3 58.22 105.84 59H100.71C100.68 59.07 100.64 59.14 100.61 59.21C101.14 59.6 101.66 59.98 102.19 60.37C102.19 60.27 102.21 60.17 102.22 60.07C102.41 59.93 102.64 59.64 102.78 59.68C103.23 59.81 103.88 59.54 104.14 60.39C103.54 60.43 102.99 60.46 102.29 60.5V60.49Z" fill="#173859"/>
<path d="M98.5098 65.02C98.6498 64.7 98.7797 64.38 98.8797 64.16C99.9997 65.66 101.26 67.15 102.29 68.77C103.37 70.48 104.33 72.28 105.16 74.12C105.47 74.8 105.45 75.81 105.19 76.53C104.77 77.72 104.05 78.8 103.45 79.93L103.08 79.84C103.15 79.33 103.22 78.82 103.29 78.31C103.45 77.07 103.7 75.86 103.02 74.64C102.57 73.84 102.38 72.9 102.02 72.04C101.54 70.89 101.02 69.75 100.5 68.61C100.08 67.69 99.6497 66.76 99.1797 65.86C99.0097 65.54 98.7197 65.28 98.4897 64.99L98.5098 65.01V65.02Z" fill="#173859"/>
<path d="M108.54 56.9C108.45 56.31 108.35 55.72 108.27 55.13C108.09 53.78 107.66 52.53 106.79 51.45C105.75 50.15 104.46 49.35 102.76 49.25C101.1 49.16 99.51 49.34 98.21 50.5C97.68 50.97 97.19 51.51 97.21 52.31C97.21 52.36 97.11 52.41 97.05 52.45C96.47 52.85 96.29 53.72 96.63 54.37C96.76 54.62 96.83 54.91 96.91 55.19C97.11 55.88 97.37 56.43 98.28 56.36C98.51 56.34 98.81 56.76 99.02 57.03C99.15 57.19 99.16 57.44 99.23 57.65C98.25 58.04 95.68 57.86 95.26 57.31C95.17 57.43 95.08 57.53 94.99 57.64C94.97 57.59 94.92 57.55 94.93 57.52C94.98 56.49 94.88 55.42 95.14 54.44C95.4 53.48 95.91 52.54 96.51 51.74C97.81 50.01 99.6 48.8 101.74 48.68C102.95 48.61 104.33 49.19 105.41 49.85C107.99 51.43 108.86 53.95 108.54 56.9Z" fill="#173859"/>
<path d="M74.0301 52.67C73.7901 52.41 73.6001 52.2 73.4101 51.99C73.8201 51.95 74.2101 51.9 74.6201 51.86C74.5401 51.64 74.4701 51.47 74.3701 51.2C74.8101 51.41 75.1901 51.59 75.6001 51.8C75.6201 51.3 75.6401 50.97 75.6601 50.64C75.7401 50.64 75.8101 50.64 75.8901 50.63C75.9401 50.91 76.0001 51.18 76.0701 51.54C76.2501 51.2 76.3901 50.92 76.5401 50.63C76.6801 50.37 76.8101 50.1 77.0901 49.87C77.0001 50.2 76.9201 50.53 76.8201 50.92C77.1101 51.13 77.4301 51.36 77.9601 51.73C77.3301 52.17 76.7701 52.55 76.2501 52.91C76.5801 53.32 76.9201 53.73 77.3001 54.19C77.7401 53.9 78.1101 53.08 78.8001 53.77C77.8901 54.25 77.3001 55.36 77.6401 56.12C76.9201 56 76.1501 55.66 75.8501 56.5C75.1001 56.3 74.4001 56.11 73.6601 55.91C73.9301 55.18 74.2201 54.25 72.6001 53.83C73.1501 53.71 73.4101 53.66 73.8301 53.57C73.4701 53.34 73.2201 53.17 72.8101 52.9C73.2801 52.8 73.6001 52.73 74.0501 52.64L74.0301 52.67Z" fill="#173859"/>
<path d="M101.73 54.25C101.1 53.9 101.5 53.59 102.04 53.29C101.76 52.93 101.5 52.61 101.25 52.28C101.27 52.24 101.29 52.2 101.31 52.17C101.73 52.4 102.14 52.64 102.7 52.95C102.43 52.4 102.22 51.97 101.94 51.38C102.46 51.52 102.79 51.61 103.13 51.7C103.05 51.75 102.98 51.8 102.9 51.84C103.03 52.25 103.15 52.66 103.29 53.1C103.7 52.87 103.96 52.72 104.31 52.53C104.16 53.08 104.24 53.57 104.22 54.06C104.2 54.48 104.8 54.93 105.15 55.39C105.397 54.5233 105.917 54.0367 106.71 53.93C106.71 54.32 105.65 54.22 106.27 54.9C105.943 54.9133 105.827 55.09 105.92 55.43C106.02 55.78 104.86 57.13 104.43 57.15C104.03 57.17 103.61 57.22 103.22 57.16C102.67 57.07 102.08 57.08 102.02 56.19C102 55.83 101.56 55.4 101.56 54.91C101.56 54.74 101.65 54.57 101.74 54.27L101.73 54.25Z" fill="#173859"/>
<path d="M94.0198 55.81C94.2498 54.87 94.4898 53.93 94.7098 52.98C94.9998 51.73 95.4898 50.53 96.3498 49.6C97.1698 48.71 98.0998 47.86 99.2898 47.48C100.16 47.2 101.05 46.9 101.95 46.8C103.24 46.67 104.49 46.87 105.47 47.9C105.2 48.02 104.81 48.08 104.78 48.22C104.69 48.66 105.11 48.75 105.42 48.9C105.57 48.98 105.69 49.12 105.76 49.32C103.26 47.81 100.74 47.59 98.2298 49.15C95.7698 50.68 94.7298 53.12 94.2698 55.89C94.1798 55.86 94.0998 55.83 94.0098 55.79L94.0198 55.81Z" fill="#173859"/>
<path d="M82.9801 57.73C80.9901 57.51 80.7001 56.37 80.9101 54.89C80.9601 54.53 80.8501 54.14 80.7501 53.78C80.4901 52.77 80.2401 51.76 79.9201 50.76C79.8101 50.42 79.5201 50.13 79.3101 49.82C79.3801 49.77 79.4501 49.72 79.5201 49.68C80.2801 50.73 80.9901 51.83 81.8201 52.82C82.8101 54 82.9101 55.47 83.2901 56.85C83.3701 57.13 83.0601 57.52 82.9701 57.73H82.9801ZM81.0701 55.01C81.3301 55.91 81.1101 56.96 82.3101 57.29C82.4101 56.29 82.3501 55.37 81.0701 55.01Z" fill="#173859"/>
<path d="M90.4297 88.85C90.8597 88.96 91.2897 89.08 91.8097 89.22C91.6097 89.73 91.3597 90.13 90.7497 90.4C90.1197 90.68 89.6398 90.52 88.9798 90.12C89.1198 90.42 89.1698 90.54 89.2298 90.66C89.1898 90.73 89.1397 90.81 89.0997 90.88C88.6997 90.66 88.1897 90.52 87.9297 90.19C87.6597 89.84 87.6397 89.31 87.4897 88.82C87.4997 88.82 87.5997 88.86 87.6697 88.83C87.9397 88.72 87.8698 88.77 88.0498 88.98C88.2098 89.16 88.5597 89.26 88.8197 89.25C89.3797 89.22 89.9298 89.09 90.4798 88.99L90.4297 88.85Z" fill="#173859"/>
<path d="M72.5901 50.14C71.9101 51.55 71.1801 52.96 71.5301 54.73C70.6901 53.71 71.4701 50.67 72.5901 50.14Z" fill="#173859"/>
<path d="M80.3301 53.62C80.2501 54.71 80.1801 55.66 80.1101 56.6C80.0501 56.59 79.9801 56.57 79.9201 56.56C79.7401 56.28 79.5501 56 79.3501 55.69C79.4401 55.64 79.5701 55.55 79.7101 55.48C80.0901 55.29 80.2601 55.09 79.8901 54.7C79.5201 54.31 79.5501 53.94 80.3301 53.62Z" fill="#173859"/>
<path d="M80.18 53.36C79.31 52.12 78.55 51.02 77.79 49.93C78.97 50.69 79.64 51.86 80.18 53.36Z" fill="#173859"/>
<path d="M106.08 58.55C107.17 58.37 108.25 58.2 109.34 58.02C109.35 58.09 109.37 58.16 109.38 58.24C108.3 58.46 107.21 58.67 106.13 58.89C106.11 58.78 106.09 58.67 106.07 58.56L106.08 58.55Z" fill="#173859"/>
<path d="M100.87 57.71C100.63 57.68 100.22 57.73 100.16 57.61C99.83 56.9 99.59 56.15 99.25 55.22C100.28 55.87 99.69 57.29 100.87 57.71Z" fill="#173859"/>
<path d="M87.9599 72.92C87.5599 73 87.1599 73.07 86.7599 73.15C86.7199 73.07 86.6699 72.98 86.6299 72.9C86.9299 72.7 87.2099 72.45 87.5399 72.33C87.6599 72.29 87.8999 72.57 88.0799 72.7C88.0399 72.78 87.9999 72.85 87.9599 72.93V72.92Z" fill="#173859"/>
<path d="M107.85 56.18C107.62 55.23 107.39 54.28 107.16 53.34C107.22 53.32 107.29 53.31 107.35 53.29C107.59 54.23 107.84 55.18 108.08 56.12C108 56.14 107.92 56.16 107.85 56.18Z" fill="#173859"/>
<path d="M99.21 54.77C99.39 53.83 99.58 52.88 99.76 51.94L99.97 51.98C99.79 52.92 99.6 53.87 99.42 54.81C99.35 54.8 99.28 54.78 99.21 54.77Z" fill="#173859"/>
<path d="M76.4898 49.42C75.6898 49.34 74.9798 49.26 74.2598 49.19C74.8398 48.76 75.7398 48.83 76.4898 49.42Z" fill="#173859"/>
<path d="M82.1499 104.78C82.4399 104.18 82.8799 104.04 83.3899 104.35C83.2699 104.65 83.0199 104.96 83.0999 105.11C83.2499 105.41 83.5299 105.72 83.8399 105.86C84.3599 106.1 84.9499 106.19 85.4899 106.41C85.5799 106.45 85.5899 106.97 85.5499 106.99C85.2899 107.08 84.9499 107.19 84.7199 107.09C83.5999 106.63 82.5099 106.1 82.1599 104.77L82.1499 104.78Z" fill="#173859"/>
<path d="M85.6496 110.4C85.6096 110.15 85.5596 109.9 85.5196 109.65C85.5896 109.62 85.6696 109.58 85.7396 109.55C85.8996 109.87 86.0596 110.2 86.2296 110.54C85.0696 110.93 84.2996 110.5 83.8696 109.16C84.1296 109.38 84.2996 109.51 84.4396 109.66C84.6196 109.86 84.7396 110.13 84.9496 110.27C85.1296 110.39 85.3996 110.36 85.6496 110.4Z" fill="#173859"/>
<path d="M139.03 75.08C139.03 95.05 139.03 115.02 139.03 135C139.03 137.29 137.3 139.04 135.03 139.04C95.0502 139.04 55.0802 139.04 15.1002 139.04C12.7402 139.04 10.9702 137.25 10.9702 134.88C10.9702 94.97 10.9702 55.06 10.9702 15.15C10.9702 12.82 12.8002 10.98 15.1202 10.98C55.0602 10.98 95.0102 10.98 134.95 10.98C137.25 10.98 139.03 12.76 139.03 15.08C139.03 35.08 139.03 55.09 139.03 75.09V75.08ZM75.0402 12.22C61.4902 12.22 47.9302 12.22 34.3802 12.22C28.2902 12.22 22.2102 12.22 16.1202 12.22C14.2702 12.22 12.7502 13.35 12.3402 15.08C12.2002 15.64 12.2302 16.25 12.2302 16.84C12.2302 51.52 12.2302 86.19 12.2302 120.87C12.2302 125.25 12.2202 129.62 12.2302 134C12.2302 135.9 13.3902 137.32 15.2402 137.74C15.7102 137.85 16.2102 137.89 16.7002 137.89C55.5902 137.89 94.4802 137.89 133.36 137.89C136.34 137.89 137.89 136.32 137.89 133.3C137.89 94.44 137.89 55.59 137.89 16.73C137.89 13.66 136.44 12.21 133.37 12.21C113.93 12.21 94.4802 12.21 75.0402 12.21V12.22Z" fill="#CFE8D7"/>
<path d="M75.0703 13.52C93.6603 13.52 112.25 13.56 130.83 13.48C134.03 13.47 136.6 15.57 136.6 19.22C136.56 56.43 136.58 93.64 136.58 130.85C136.58 134.5 134.55 136.55 130.91 136.55C93.6403 136.55 56.3603 136.55 19.0903 136.55C15.5503 136.55 13.5303 134.51 13.5303 130.98C13.5303 93.67 13.5303 56.36 13.5303 19.06C13.5303 15.57 15.5503 13.53 19.0203 13.53C37.7103 13.53 56.3903 13.53 75.0803 13.53L75.0703 13.52ZM14.2103 75.02C14.2103 93.67 14.2503 112.33 14.1703 130.98C14.1603 133.92 16.2603 135.92 19.1503 135.92C56.4303 135.88 93.7003 135.9 130.98 135.89C134.14 135.89 135.93 134.09 135.93 130.93C135.93 93.65 135.92 56.38 135.95 19.1C135.95 16.32 134.08 14.14 130.98 14.15C93.6703 14.21 56.3603 14.21 19.0603 14.15C16.3103 14.15 14.1603 16.13 14.1703 19.05C14.2503 37.7 14.2103 56.36 14.2103 75.01V75.02Z" fill="#CFE8D7"/>
<path d="M20.2201 131.71C19.7801 132.14 19.2101 132.71 18.5201 133.38C17.9701 132.74 17.4501 132.13 16.8301 131.39C17.3601 130.98 18.0001 130.5 18.6601 130C19.0401 130.41 19.6101 131.03 20.2201 131.71Z" fill="#CFE8D7"/>
<path d="M18.7604 16.87C19.2204 17.31 19.7904 17.85 20.4604 18.49C19.7904 19.07 19.1704 19.6 18.4304 20.24C18.0004 19.7 17.4904 19.08 16.8804 18.33C17.3904 17.93 18.0504 17.42 18.7504 16.87H18.7604Z" fill="#CFE8D7"/>
<path d="M133.57 18.56C132.99 19.11 132.41 19.66 131.78 20.25C131.25 19.65 130.72 19.05 130.11 18.36C130.59 17.98 131.2 17.5 131.85 16.98C132.19 17.42 132.7 18.09 133.21 18.75C133.33 18.69 133.45 18.62 133.57 18.56Z" fill="#CFE8D7"/>
<path d="M130.16 131.42C130.62 130.92 131.17 130.34 131.78 129.69C132.42 130.34 132.98 130.91 133.63 131.56C133 132.15 132.42 132.7 131.8 133.28C131.27 132.68 130.73 132.08 130.16 131.43V131.42Z" fill="#CFE8D7"/>
<path d="M118.31 112.55H31.6899V131.21H118.31V112.55Z" fill="#CFE8D7"/>
<path d="M53.3159 114.554C53.3237 114.609 53.3276 114.67 53.3276 114.736C53.3276 114.877 53.3042 115.131 53.2573 115.498C53.2144 115.865 53.1929 116.138 53.1929 116.318C53.1929 116.412 53.1968 116.498 53.2046 116.576C53.1772 116.697 53.1558 116.861 53.1401 117.068C53.144 117.084 53.1577 117.132 53.1812 117.215C53.2007 117.281 53.2085 117.338 53.2046 117.384C53.189 117.424 53.1675 117.474 53.1401 117.537C53.1362 117.599 53.1499 117.789 53.1812 118.105C53.0679 118.265 52.9644 118.345 52.8706 118.345C52.8276 118.345 52.7847 118.302 52.7417 118.216C52.7808 117.826 52.7925 117.586 52.7769 117.496C52.7651 117.39 52.7397 117.24 52.7007 117.045C52.603 116.752 52.4272 116.429 52.1733 116.078C52.0796 115.945 51.8491 115.769 51.4819 115.55C51.4429 115.527 51.2925 115.482 51.0308 115.416C50.8589 115.373 50.6108 115.351 50.2866 115.351C49.3569 115.351 48.6284 115.699 48.1011 116.394C48.0347 116.445 47.939 116.549 47.814 116.705C47.4077 117.502 47.1772 118.283 47.1226 119.049C47.0991 119.365 47.0874 119.888 47.0874 120.619V121.281C47.0874 121.238 47.1206 121.414 47.187 121.808C47.1909 122.011 47.2124 122.289 47.2515 122.64C47.2788 122.679 47.3276 122.779 47.3979 122.939C47.4019 123.025 47.4155 123.14 47.439 123.285C47.5093 123.41 47.6108 123.597 47.7437 123.847C47.7632 123.929 47.7964 124.045 47.8433 124.193C48.0542 124.732 48.3804 125.181 48.8218 125.541C49.021 125.701 49.2163 125.814 49.4077 125.881C50.3296 126.189 50.9214 126.343 51.1831 126.343C51.3042 126.343 51.4233 126.324 51.5405 126.285C51.5991 126.269 51.6812 126.228 51.7866 126.162C51.8101 125.896 51.8218 125.767 51.8218 125.775C51.8218 125.677 51.7925 125.615 51.7339 125.588C51.6519 125.545 51.5952 125.49 51.564 125.424C51.5171 125.318 51.5151 125.113 51.5581 124.808C51.5581 124.804 51.5581 124.273 51.5581 123.215C51.5269 122.832 51.4878 122.531 51.4409 122.312C51.4097 122.281 51.3706 122.216 51.3237 122.119C51.2456 121.771 51.0757 121.547 50.814 121.445C50.7046 121.406 50.4741 121.381 50.1226 121.369C50.1108 121.353 50.0894 121.328 50.0581 121.293V121.041C50.1753 120.986 50.3667 120.959 50.6323 120.959C50.6558 120.959 50.8198 120.978 51.1245 121.017C51.4331 121.056 51.5991 121.076 51.6226 121.076C51.6421 121.076 51.6812 121.06 51.7397 121.029C51.7983 120.994 51.8394 120.976 51.8628 120.976C52.1479 120.941 52.3081 120.924 52.3433 120.924C53.0034 120.924 53.2847 120.925 53.187 120.929V121.363C53.187 121.379 53.1636 121.451 53.1167 121.58C53.0698 121.709 53.0425 121.8 53.0347 121.855C52.9565 122.316 52.9097 122.783 52.894 123.256C52.8784 123.849 52.8706 124.259 52.8706 124.486C52.8706 124.943 52.9058 125.572 52.9761 126.373C52.8042 126.498 52.5229 126.632 52.1323 126.777C51.7417 126.922 51.4429 127.004 51.2358 127.023C51.1655 127.019 51.064 127.025 50.9312 127.041C50.7202 127.107 50.5718 127.14 50.4858 127.14C50.4663 127.14 50.4312 127.131 50.3804 127.111C50.3335 127.091 50.3022 127.08 50.2866 127.076C49.8022 127.045 49.3999 126.986 49.0796 126.9C48.9585 126.838 48.7788 126.757 48.5405 126.66C48.0679 126.527 47.5444 126.099 46.9702 125.377C46.3765 124.634 46.0112 123.916 45.8745 123.22C45.8354 123.068 45.7808 122.84 45.7104 122.535C45.6753 122.437 45.6284 122.287 45.5698 122.084C45.5112 121.759 45.4819 121.486 45.4819 121.263C45.4819 121.283 45.4937 121.16 45.5171 120.894C45.5405 120.668 45.5425 120.507 45.5229 120.414C45.5073 120.308 45.4995 120.195 45.4995 120.074C45.4995 119.847 45.5366 119.525 45.6108 119.107C45.7085 118.588 45.7651 118.238 45.7808 118.058C46.2456 116.882 46.5249 116.295 46.6187 116.295C46.6382 116.295 46.6519 116.308 46.6597 116.336C46.6675 116.359 46.6851 116.371 46.7124 116.371C46.7905 116.371 46.855 116.343 46.9058 116.289C46.9253 116.211 46.9624 116.101 47.0171 115.961C47.4507 115.273 47.7144 114.929 47.8081 114.929C47.8315 114.929 47.8472 114.937 47.855 114.953C47.8667 114.965 47.8823 114.97 47.9019 114.97C47.9214 114.97 47.9702 114.927 48.0483 114.841C48.1304 114.752 48.1851 114.707 48.2124 114.707C48.2319 114.707 48.2573 114.72 48.2886 114.748C48.3237 114.771 48.3511 114.783 48.3706 114.783C48.394 114.783 48.6011 114.713 48.9917 114.572C49.3862 114.431 49.5952 114.361 49.6187 114.361H51.4351C51.4546 114.361 51.6675 114.394 52.0737 114.461C52.4839 114.523 52.6987 114.554 52.7183 114.554C52.73 114.554 52.814 114.554 52.9702 114.554C53.1304 114.554 53.2456 114.554 53.3159 114.554ZM61.812 120.42C61.812 120.642 61.8062 120.812 61.7944 120.929C61.7554 121.019 61.7144 121.158 61.6714 121.345C61.6636 121.533 61.6226 121.732 61.5483 121.943C61.4858 122.021 61.394 122.148 61.2729 122.324C61.2417 122.441 61.1558 122.609 61.0151 122.828C60.9019 122.941 60.73 123.117 60.4995 123.355C60.4644 123.367 60.4194 123.386 60.3647 123.414C60.314 123.461 60.2241 123.529 60.0952 123.619C59.4546 123.959 58.8452 124.152 58.2671 124.199H57.4937C57.5015 124.199 57.4858 124.187 57.4468 124.164C57.0249 124.152 56.7085 124.093 56.4976 123.988C56.4429 123.976 56.3687 123.957 56.2749 123.929C56.1187 123.867 55.8843 123.756 55.5718 123.595C55.1968 123.357 54.8452 123.021 54.5171 122.588C54.3335 122.345 54.1714 122.033 54.0308 121.65C53.8979 121.295 53.8237 120.996 53.8081 120.754C53.7808 120.34 53.7964 119.933 53.855 119.535C53.8784 119.484 53.9097 119.412 53.9487 119.318C53.9722 119.201 54.0132 119.031 54.0718 118.808C54.1577 118.672 54.271 118.472 54.4116 118.211C54.4312 118.168 54.4409 118.117 54.4409 118.058C54.4604 118.039 54.4995 118.045 54.5581 118.076C54.5776 118.021 54.5776 117.943 54.5581 117.841C54.6089 117.826 54.6812 117.793 54.7749 117.742C54.8062 117.66 54.8804 117.56 54.9976 117.443C55.2319 117.318 55.5854 117.134 56.0581 116.892C56.1792 116.834 56.3335 116.783 56.521 116.74C56.9976 116.631 57.3218 116.576 57.4937 116.576H57.9507C58.3062 116.576 58.6108 116.609 58.8647 116.675C59.0015 116.715 59.3022 116.824 59.7671 117.004C59.8647 117.066 60.019 117.164 60.23 117.297C60.5347 117.492 60.812 117.759 61.062 118.099C61.2847 118.404 61.4292 118.685 61.4956 118.943C61.5269 118.986 61.5659 119.05 61.6128 119.136C61.6987 119.371 61.7476 119.718 61.7593 120.179C61.7593 120.195 61.7671 120.232 61.7827 120.291C61.8022 120.345 61.812 120.388 61.812 120.42ZM60.5112 120.572C60.4761 120.08 60.3804 119.631 60.2241 119.224C60.0249 118.701 59.7905 118.289 59.521 117.988C59.1382 117.566 58.7202 117.318 58.2671 117.244C57.8374 117.174 57.5425 117.15 57.3823 117.174C57.0698 117.213 56.8042 117.281 56.5854 117.379C56.5581 117.39 56.3804 117.494 56.0522 117.689C56.0327 117.728 55.9976 117.775 55.9468 117.83C55.9155 117.838 55.8804 117.849 55.8413 117.865C55.7632 117.966 55.6655 118.103 55.5483 118.275C55.5327 118.322 55.5073 118.388 55.4722 118.474C55.4136 118.568 55.3511 118.679 55.2847 118.808C55.2495 118.953 55.1948 119.17 55.1206 119.459C55.1245 119.568 55.1226 119.734 55.1147 119.957C55.1147 119.968 55.1069 119.994 55.0913 120.033C55.0757 120.072 55.0698 120.099 55.0737 120.115C55.1284 120.369 55.2065 120.72 55.3081 121.17C55.2964 121.201 55.2886 121.238 55.2847 121.281C55.312 121.336 55.3511 121.41 55.4019 121.504C55.4058 121.554 55.4175 121.621 55.437 121.703C55.6011 122.031 55.687 122.199 55.6948 122.207C55.812 122.41 55.9722 122.603 56.1753 122.787C56.1792 122.791 56.2046 122.871 56.2515 123.027C56.2671 123.031 56.3335 123.043 56.4507 123.062C56.6421 123.238 56.7886 123.357 56.8901 123.42C57.1792 123.591 57.7026 123.644 58.4604 123.578C58.5229 123.558 58.605 123.533 58.7065 123.502C58.8354 123.474 59.021 123.41 59.2632 123.308C59.3179 123.257 59.3901 123.197 59.48 123.127C59.8706 122.884 60.103 122.586 60.1772 122.23C60.2163 122.183 60.2632 122.117 60.3179 122.031C60.3257 121.957 60.3374 121.869 60.353 121.767C60.3765 121.744 60.3999 121.707 60.4233 121.656C60.4312 121.566 60.4507 121.371 60.4819 121.07C60.5093 120.828 60.519 120.662 60.5112 120.572ZM68.105 122.406C68.0229 122.695 67.9409 122.982 67.8589 123.267C67.7573 123.607 67.6128 123.929 67.4253 124.234L62.2222 124.187C62.1714 124.172 62.0815 124.152 61.9526 124.129C61.8237 124.109 61.7358 124.091 61.689 124.076C61.689 123.974 61.728 123.898 61.8062 123.847C61.9663 123.851 62.1284 123.814 62.2925 123.736C62.5073 123.634 62.6401 123.484 62.6909 123.285C62.7144 123.203 62.7183 123.058 62.7026 122.851C62.687 122.613 62.6831 122.451 62.6909 122.365C62.6948 122.318 62.7163 122.158 62.7554 121.884C62.7827 121.674 62.7964 121.507 62.7964 121.386C62.7964 119.98 62.7729 119.037 62.7261 118.556C62.7378 118.541 62.7612 118.507 62.7964 118.457C62.7651 118.062 62.7144 117.74 62.644 117.49C62.6089 117.373 62.4897 117.263 62.2866 117.162C62.0874 117.056 61.9409 117.017 61.8472 117.045C61.8472 116.884 61.9507 116.804 62.1577 116.804C62.2163 116.804 62.2964 116.812 62.3979 116.828C62.4995 116.84 62.564 116.845 62.5913 116.845H65.5269C65.5347 116.939 65.437 117.011 65.2339 117.062C65.0894 117.097 64.9468 117.132 64.8062 117.168C64.6304 117.25 64.5366 117.295 64.5249 117.302C64.4116 117.373 64.3413 117.453 64.314 117.543C64.2319 117.816 64.1753 118.179 64.144 118.632C64.0933 119.32 64.0659 119.689 64.062 119.74C64.1401 119.963 64.1792 120.164 64.1792 120.343C64.1792 120.433 64.1655 120.556 64.1382 120.713C64.1108 120.865 64.0972 120.986 64.0972 121.076V122.67C64.1597 122.857 64.2495 123.129 64.3667 123.484C64.3901 123.55 64.4644 123.593 64.5894 123.613C64.7456 123.632 64.9683 123.666 65.2573 123.713C65.3081 123.724 65.3569 123.724 65.4038 123.713C65.6851 123.674 65.9663 123.632 66.2476 123.59C66.5913 123.531 66.855 123.437 67.0386 123.308C67.105 123.257 67.187 123.121 67.2847 122.898C67.3862 122.656 67.4741 122.496 67.5483 122.418C67.6069 122.355 67.6851 122.324 67.7827 122.324C67.8335 122.324 67.9409 122.351 68.105 122.406ZM74.5854 122.406C74.5034 122.695 74.4214 122.982 74.3394 123.267C74.2378 123.607 74.0933 123.929 73.9058 124.234L68.7026 124.187C68.6519 124.172 68.562 124.152 68.4331 124.129C68.3042 124.109 68.2163 124.091 68.1694 124.076C68.1694 123.974 68.2085 123.898 68.2866 123.847C68.4468 123.851 68.6089 123.814 68.7729 123.736C68.9878 123.634 69.1206 123.484 69.1714 123.285C69.1948 123.203 69.1987 123.058 69.1831 122.851C69.1675 122.613 69.1636 122.451 69.1714 122.365C69.1753 122.318 69.1968 122.158 69.2358 121.884C69.2632 121.674 69.2769 121.507 69.2769 121.386C69.2769 119.98 69.2534 119.037 69.2065 118.556C69.2183 118.541 69.2417 118.507 69.2769 118.457C69.2456 118.062 69.1948 117.74 69.1245 117.49C69.0894 117.373 68.9702 117.263 68.7671 117.162C68.5679 117.056 68.4214 117.017 68.3276 117.045C68.3276 116.884 68.4312 116.804 68.6382 116.804C68.6968 116.804 68.7769 116.812 68.8784 116.828C68.98 116.84 69.0444 116.845 69.0718 116.845H72.0073C72.0151 116.939 71.9175 117.011 71.7144 117.062C71.5698 117.097 71.4272 117.132 71.2866 117.168C71.1108 117.25 71.0171 117.295 71.0054 117.302C70.8921 117.373 70.8218 117.453 70.7944 117.543C70.7124 117.816 70.6558 118.179 70.6245 118.632C70.5737 119.32 70.5464 119.689 70.5425 119.74C70.6206 119.963 70.6597 120.164 70.6597 120.343C70.6597 120.433 70.646 120.556 70.6187 120.713C70.5913 120.865 70.5776 120.986 70.5776 121.076V122.67C70.6401 122.857 70.73 123.129 70.8472 123.484C70.8706 123.55 70.9448 123.593 71.0698 123.613C71.2261 123.632 71.4487 123.666 71.7378 123.713C71.7886 123.724 71.8374 123.724 71.8843 123.713C72.1655 123.674 72.4468 123.632 72.728 123.59C73.0718 123.531 73.3354 123.437 73.519 123.308C73.5854 123.257 73.6675 123.121 73.7651 122.898C73.8667 122.656 73.9546 122.496 74.0288 122.418C74.0874 122.355 74.1655 122.324 74.2632 122.324C74.314 122.324 74.4214 122.351 74.5854 122.406ZM81.8276 116.752C81.8276 116.896 81.8022 116.972 81.7515 116.98C81.6772 116.988 81.5679 117.011 81.4233 117.05C81.3608 117.047 81.2749 117.068 81.1655 117.115C81.0327 117.236 80.9546 117.41 80.9312 117.636C80.9194 117.656 80.9058 117.687 80.8901 117.73C80.8706 117.949 80.8647 118.086 80.8726 118.14C80.9272 118.496 80.9546 118.675 80.9546 118.679V119.131C80.9546 119.146 80.9468 119.177 80.9312 119.224C80.9194 119.267 80.9116 119.297 80.9077 119.312C80.9038 119.34 80.9058 119.392 80.9136 119.47C80.9487 119.783 80.9663 120.191 80.9663 120.695C80.9663 120.699 80.9585 120.713 80.9429 120.736C80.9312 120.756 80.9253 120.771 80.9253 120.783C80.9253 121.162 80.9292 121.312 80.937 121.234C80.9214 121.441 80.8843 121.748 80.8257 122.154C80.8022 122.275 80.7339 122.461 80.6206 122.711C80.5112 122.957 80.4175 123.132 80.3394 123.238C80.2456 123.359 80.0737 123.509 79.8237 123.689C79.6245 123.834 79.4233 123.976 79.2202 124.117C79.1616 124.074 78.9937 124.09 78.7163 124.164C78.6616 124.195 78.5757 124.238 78.4585 124.293C78.439 124.3 78.4077 124.295 78.3647 124.275C78.3218 124.256 78.2983 124.246 78.2944 124.246H77.8608C77.9155 124.246 77.8159 124.218 77.562 124.164C77.4722 124.16 77.3433 124.144 77.1753 124.117C77.0737 124.062 76.9175 123.994 76.7065 123.912C76.644 123.908 76.5503 123.898 76.4253 123.882C76.3823 123.871 76.3062 123.834 76.1968 123.771C75.4937 123.365 75.1265 122.67 75.0952 121.685L75.0425 119.834C75.0151 119.322 74.9604 118.56 74.8784 117.549C74.855 117.326 74.771 117.17 74.6265 117.08C74.5835 117.049 74.3979 116.992 74.0698 116.91C74.0581 116.886 74.0522 116.865 74.0522 116.845C74.0522 116.771 74.1187 116.744 74.2515 116.763C74.5562 116.802 74.9058 116.822 75.3003 116.822H75.8687C75.8804 116.822 75.9351 116.814 76.0327 116.799C76.1304 116.783 76.2046 116.775 76.2554 116.775C76.4429 116.787 76.7241 116.779 77.0991 116.752C77.1304 116.791 77.146 116.826 77.146 116.857C77.146 116.92 77.0249 116.97 76.7827 117.009C76.7632 117.025 76.728 117.05 76.6772 117.086C76.6499 117.097 76.6108 117.119 76.5601 117.15C76.4897 117.205 76.4507 117.254 76.4429 117.297C76.3726 117.652 76.2886 118.037 76.1909 118.451C76.1948 118.439 76.2144 118.504 76.2495 118.644C76.2534 118.644 76.2378 118.746 76.2026 118.949C76.2183 119.015 76.2085 119.172 76.1733 119.418C76.1812 119.371 76.2026 119.515 76.2378 119.851C76.2417 119.902 76.2319 120.074 76.2085 120.367C76.2124 120.386 76.2202 120.412 76.2319 120.443C76.2319 120.463 76.2183 120.607 76.1909 120.877C76.1831 120.963 76.2007 121.148 76.2437 121.433C76.2671 121.465 76.2925 121.511 76.3198 121.574C76.3237 121.586 76.3354 121.718 76.355 121.972C76.3511 122.019 76.3491 122.09 76.3491 122.183C76.3687 122.226 76.394 122.287 76.4253 122.365C76.437 122.396 76.4351 122.445 76.4194 122.511C76.4663 122.574 76.5327 122.668 76.6187 122.793C76.6655 122.879 76.7593 122.996 76.8999 123.144C77.0054 123.226 77.1108 123.308 77.2163 123.39C77.3647 123.496 77.4976 123.558 77.6147 123.578C77.7202 123.59 77.8433 123.595 77.9839 123.595H78.7632C78.978 123.595 79.2046 123.47 79.4429 123.22C79.6694 122.986 79.8159 122.742 79.8823 122.488C79.9136 122.273 79.9507 122.011 79.9937 121.703C80.0249 121.5 80.0249 121.224 79.9937 120.877L80.0054 118.105C79.978 117.875 79.9175 117.607 79.8237 117.302C79.7847 117.177 79.6362 117.08 79.3784 117.009C79.3315 116.998 79.2495 116.98 79.1323 116.957C79.1089 116.918 79.0972 116.867 79.0972 116.804C79.0776 116.804 79.1382 116.797 79.2788 116.781C79.5718 116.746 79.8511 116.757 80.1167 116.816C80.1636 116.804 80.228 116.797 80.3101 116.793C80.4585 116.82 80.7163 116.814 81.0835 116.775C81.0991 116.771 81.1284 116.775 81.1714 116.787C81.2144 116.795 81.2437 116.799 81.2593 116.799C81.3022 116.799 81.4917 116.783 81.8276 116.752ZM91.3198 123.865C91.3354 123.892 91.3433 123.92 91.3433 123.947C91.3433 124.08 91.2632 124.146 91.103 124.146C91.0718 124.146 91.0405 124.14 91.0093 124.129C90.9155 124.086 90.8081 124.06 90.687 124.052C90.6011 124.045 90.4897 124.045 90.353 124.052C90.1851 124.056 90.0757 124.058 90.0249 124.058C89.4741 124.047 89.1519 124.05 89.0581 124.07C88.9683 124.086 88.8237 124.103 88.6245 124.123C88.4487 124.138 88.3394 124.103 88.2964 124.017C88.2847 123.99 88.2905 123.953 88.314 123.906C88.3374 123.855 88.3687 123.826 88.4077 123.818C88.4194 123.814 88.5698 123.799 88.8589 123.771C89.0815 123.748 89.2183 123.56 89.269 123.209C89.2769 122.974 89.2886 122.621 89.3042 122.148C89.3042 122.121 89.2964 122.076 89.2808 122.013C89.269 121.951 89.2632 121.906 89.2632 121.879C89.271 121.558 89.2456 121.103 89.187 120.513V120.05C89.187 120.043 89.1694 119.972 89.1343 119.84C89.103 119.703 89.0854 119.605 89.0815 119.547C89.062 119.285 89.0562 119.105 89.064 119.007C89.064 119.004 89.0737 118.965 89.0933 118.89C89.1167 118.816 89.1284 118.754 89.1284 118.703C89.1284 118.621 89.103 118.558 89.0522 118.515C88.9585 118.582 88.8882 118.705 88.8413 118.884C88.8062 118.939 88.7632 119.017 88.7124 119.119C88.6968 119.193 88.6675 119.3 88.6245 119.441C88.605 119.468 88.5737 119.517 88.5308 119.588C88.5229 119.631 88.5073 119.689 88.4839 119.763C88.4136 119.908 88.3101 120.119 88.1733 120.396C88.1655 120.451 88.1499 120.533 88.1265 120.642C88.0913 120.689 88.0522 120.75 88.0093 120.824C88.0015 120.882 87.98 120.961 87.9448 121.058C87.8745 121.179 87.7769 121.365 87.6519 121.615C87.6401 121.693 87.6128 121.806 87.5698 121.955C87.5503 121.978 87.5229 122.013 87.4878 122.06C87.4839 122.072 87.4565 122.156 87.4058 122.312C87.3745 122.363 87.3374 122.435 87.2944 122.529C87.2827 122.584 87.2593 122.668 87.2241 122.781C87.1929 122.82 87.1558 122.884 87.1128 122.974C87.1128 122.978 86.9937 123.256 86.7554 123.806C86.7515 123.881 86.7104 123.982 86.6323 124.111C86.6284 124.111 86.5405 124.121 86.3687 124.14C86.2632 124.152 86.1812 124.129 86.1226 124.07C86.064 124.007 85.9722 123.836 85.8472 123.554C85.7847 123.433 85.6987 123.254 85.5894 123.015C85.5503 122.89 85.4917 122.722 85.4136 122.511C85.4019 122.484 85.1909 122.072 84.7808 121.275C84.769 121.224 84.7476 121.152 84.7163 121.058C84.5249 120.691 84.2476 120.111 83.8843 119.318C83.8491 119.162 83.7788 118.933 83.6733 118.632C83.5718 118.425 83.4644 118.322 83.3511 118.322C83.3198 118.349 83.3042 118.453 83.3042 118.632C83.3198 118.679 83.3354 118.75 83.3511 118.843C83.355 118.894 83.353 118.966 83.3452 119.06C83.3413 119.174 83.3394 119.226 83.3394 119.218V119.781L83.1929 121.99V122.476C83.1929 122.441 83.189 122.482 83.1812 122.599C83.1772 122.716 83.1753 122.908 83.1753 123.174C83.1792 123.244 83.1987 123.338 83.2339 123.455C83.3315 123.615 83.4253 123.722 83.5151 123.777C83.5933 123.793 83.7124 123.832 83.8726 123.894C83.9312 123.925 83.9487 123.98 83.9253 124.058C83.8472 124.148 83.6245 124.17 83.2573 124.123H82.7241C82.6187 124.123 82.5386 124.127 82.4839 124.134C82.2261 124.162 81.9624 124.174 81.6929 124.17C81.6577 124.146 81.6343 124.105 81.6226 124.047C81.6108 123.98 81.6284 123.935 81.6753 123.912C81.6948 123.9 81.7847 123.884 81.9448 123.865C81.98 123.845 82.0269 123.818 82.0854 123.783C82.2729 123.693 82.3999 123.519 82.4663 123.261C82.4819 123.199 82.5054 122.996 82.5366 122.652C82.5562 122.601 82.5815 122.529 82.6128 122.435C82.6401 122.295 82.6538 122.199 82.6538 122.148V121.703C82.6538 121.687 82.6577 121.664 82.6655 121.632C82.6772 121.601 82.6831 121.582 82.6831 121.574C82.6792 121.336 82.7104 120.988 82.7769 120.531C82.7847 120.5 82.7944 120.369 82.8062 120.138C82.8218 119.74 82.8257 119.47 82.8179 119.33C82.8179 119.314 82.8237 119.281 82.8354 119.23C82.8472 119.175 82.853 119.142 82.853 119.131V118.31C82.853 118.295 82.8726 118.238 82.9116 118.14C82.9546 118.039 82.9819 117.968 82.9937 117.929C83.0093 117.859 83.0093 117.775 82.9937 117.677C82.9624 117.619 82.9175 117.531 82.8589 117.414C82.855 117.332 82.8062 117.228 82.7124 117.103C82.6616 117.095 82.5874 117.084 82.4897 117.068C82.3921 117.052 82.2612 117.029 82.0972 116.998C81.937 116.966 81.8511 116.949 81.8394 116.945C81.73 116.914 81.6733 116.863 81.6694 116.793C81.7632 116.711 81.9214 116.683 82.144 116.711C82.3081 116.734 82.5308 116.765 82.812 116.804C82.8472 116.808 82.9038 116.804 82.9819 116.793C83.0796 116.773 83.1479 116.763 83.187 116.763C83.2065 116.759 83.4292 116.771 83.855 116.799C83.9722 116.802 84.0659 116.922 84.1362 117.156C84.1675 117.207 84.2183 117.302 84.2886 117.443C84.3081 117.517 84.3413 117.625 84.3882 117.765C84.4546 117.824 84.5347 117.92 84.6284 118.052C84.6323 118.127 84.6421 118.234 84.6577 118.375C84.689 118.418 84.7261 118.478 84.769 118.556C85.0815 119.263 85.3765 119.957 85.6538 120.636C85.7202 120.8 85.7886 120.994 85.8589 121.216C85.9331 121.435 86.0405 121.679 86.1812 121.949C86.2397 122.011 86.314 122.107 86.4038 122.236C86.4155 122.252 86.4331 122.332 86.4565 122.476C86.4761 122.566 86.519 122.617 86.5854 122.629C86.6323 122.621 86.6694 122.591 86.6968 122.541C86.8179 122.31 86.9565 121.966 87.1128 121.509C87.269 121.052 87.4214 120.683 87.5698 120.402C87.5854 120.343 87.6128 120.254 87.6519 120.132C87.6831 120.062 87.7319 119.955 87.7983 119.81C87.8022 119.795 87.8218 119.767 87.8569 119.728C87.896 119.685 87.9194 119.654 87.9272 119.634C87.939 119.552 87.9663 119.437 88.0093 119.289C88.0093 119.289 88.064 119.164 88.1733 118.914C88.2319 118.832 88.3296 118.693 88.4663 118.498C88.478 118.486 88.4995 118.392 88.5308 118.216C88.5347 118.197 88.6519 117.908 88.8823 117.349C88.8862 117.279 88.9077 117.172 88.9468 117.027C89.0522 116.789 89.2866 116.701 89.6499 116.763C89.6929 116.787 89.7593 116.812 89.8491 116.84C90.1343 116.867 90.3413 116.865 90.4702 116.834C90.5483 116.834 90.6577 116.826 90.7983 116.81C90.8296 116.791 90.8823 116.765 90.9565 116.734C91.0308 116.699 91.1108 116.695 91.1968 116.722C91.2397 116.738 91.2632 116.769 91.2671 116.816C91.2788 116.937 91.2183 117.011 91.0854 117.039C90.9722 117.054 90.8589 117.07 90.7456 117.086C90.7144 117.109 90.6597 117.146 90.5815 117.197C90.5073 117.248 90.4038 117.338 90.271 117.466C90.2671 117.474 90.2339 117.617 90.1714 117.894C90.1206 118.121 90.1265 118.461 90.189 118.914C90.2163 119.125 90.2339 119.318 90.2417 119.494C90.2417 119.681 90.2476 119.968 90.2593 120.355C90.2593 120.343 90.2515 120.558 90.2358 121C90.228 121.246 90.2456 121.49 90.2886 121.732C90.3315 121.888 90.3765 122.123 90.4233 122.435C90.4468 122.849 90.4663 123.091 90.4819 123.162C90.5249 123.377 90.6323 123.556 90.8042 123.701C90.855 123.744 90.9214 123.763 91.0034 123.759C91.105 123.752 91.1694 123.752 91.1968 123.759C91.2437 123.775 91.2847 123.81 91.3198 123.865Z" fill="#173859"/>
</g>
<defs>
<clipPath id="clip0_71_1706">
<rect width="150" height="150" fill="white"/>
</clipPath>
</defs>
</svg>
