<svg width="150" height="150" viewBox="0 0 150 150" fill="none" xmlns="http://www.w3.org/2000/svg">
<g clip-path="url(#clip0_71_1702)">
<path d="M133.76 0H16C7.16344 0 0 7.16344 0 16V133.76C0 142.597 7.16344 149.76 16 149.76H133.76C142.597 149.76 149.76 142.597 149.76 133.76V16C149.76 7.16344 142.597 0 133.76 0Z" fill="#D9D9D9"/>
<path d="M138.81 74.96C138.81 94.9 138.81 114.84 138.81 134.78C138.81 137.07 137.09 138.81 134.82 138.81C94.91 138.81 54.99 138.81 15.08 138.81C12.73 138.81 10.96 137.03 10.96 134.66C10.96 94.81 10.96 54.97 10.96 15.12C10.96 12.79 12.79 10.95 15.1 10.95C54.98 10.95 94.86 10.95 134.74 10.95C137.04 10.95 138.81 12.73 138.81 15.04C138.81 35.01 138.81 54.99 138.81 74.96ZM74.92 12.2C61.39 12.2 47.85 12.2 34.32 12.2C28.24 12.2 22.17 12.2 16.09 12.2C14.24 12.2 12.73 13.33 12.32 15.05C12.18 15.61 12.21 16.22 12.21 16.81C12.21 51.43 12.21 86.05 12.21 120.67C12.21 125.04 12.2 129.41 12.21 133.78C12.21 135.68 13.37 137.09 15.22 137.51C15.69 137.62 16.19 137.66 16.68 137.66C55.51 137.66 94.33 137.66 133.16 137.66C136.13 137.66 137.68 136.09 137.68 133.08C137.68 94.29 137.68 55.49 137.68 16.7C137.68 13.64 136.23 12.18 133.16 12.18C113.75 12.18 94.33 12.18 74.92 12.18V12.2Z" fill="#595959"/>
<path d="M74.95 13.5C93.51 13.5 112.07 13.54 130.62 13.46C133.82 13.45 136.38 15.55 136.38 19.19C136.34 56.34 136.36 93.49 136.36 130.64C136.36 134.28 134.33 136.33 130.7 136.33C93.48 136.33 56.27 136.33 19.05 136.33C15.52 136.33 13.5 134.29 13.5 130.77C13.5 93.52 13.5 56.27 13.5 19.03C13.5 15.55 15.52 13.51 18.98 13.51C37.64 13.51 56.29 13.51 74.95 13.51V13.5ZM14.19 74.9C14.19 93.52 14.23 112.15 14.15 130.77C14.14 133.71 16.23 135.71 19.12 135.7C56.34 135.66 93.55 135.68 130.77 135.68C133.92 135.68 135.71 133.89 135.71 130.73C135.71 93.51 135.7 56.3 135.73 19.08C135.73 16.31 133.86 14.13 130.77 14.13C93.52 14.19 56.27 14.18 19.03 14.13C16.28 14.13 14.14 16.11 14.15 19.02C14.23 37.64 14.19 56.27 14.19 74.89V74.9Z" fill="#595959"/>
<path d="M20.1898 131.5C19.7498 131.93 19.1798 132.49 18.4898 133.17C17.9398 132.53 17.4298 131.92 16.7998 131.18C17.3298 130.77 17.9698 130.29 18.6198 129.79C18.9998 130.2 19.5598 130.82 20.1798 131.5H20.1898Z" fill="#595959"/>
<path d="M18.7301 16.84C19.1901 17.28 19.7601 17.82 20.4301 18.46C19.7601 19.04 19.1501 19.57 18.4101 20.21C17.9801 19.68 17.4701 19.05 16.8701 18.3C17.3801 17.9 18.0401 17.39 18.7401 16.84H18.7301Z" fill="#595959"/>
<path d="M133.35 18.53C132.77 19.08 132.19 19.63 131.56 20.22C131.03 19.62 130.5 19.02 129.89 18.34C130.37 17.96 130.97 17.48 131.63 16.96C131.97 17.4 132.48 18.07 132.99 18.73C133.11 18.67 133.23 18.6 133.35 18.54V18.53Z" fill="#595959"/>
<path d="M129.95 131.21C130.41 130.71 130.96 130.13 131.57 129.48C132.21 130.13 132.77 130.69 133.42 131.35C132.79 131.94 132.21 132.49 131.59 133.06C131.06 132.46 130.53 131.86 129.95 131.21Z" fill="#595959"/>
<path d="M117.76 86.96V131.4H62.2202C62.0602 131.25 61.9202 131.04 61.7302 130.95C60.8002 130.53 59.8602 130.15 58.9002 129.75C58.8602 129.8 58.7502 129.91 58.6802 130.04C58.5402 130.3 58.3802 130.57 58.3302 130.86C58.3202 130.93 58.7102 131.06 58.9102 131.17C59.0202 131.23 59.1102 131.33 59.2102 131.4H40.4602C40.5002 131.24 40.5802 131.07 40.5602 130.91C40.4902 130.45 40.3502 130 40.2902 129.54C40.1902 128.78 40.1402 128.02 40.0502 127.26C39.9802 126.65 39.8302 126.04 39.8102 125.43C39.7802 124.65 39.8602 123.87 39.8802 123.09C39.8802 122.97 39.8102 122.84 39.7702 122.72C39.7102 122.52 39.6202 122.32 39.6002 122.12C39.5902 121.9 39.6502 121.68 39.6902 121.35C39.6502 121.37 39.7602 121.32 39.7502 121.33V119.52C39.7702 119.35 39.8402 119.11 39.7502 118.99C39.5302 118.68 39.6202 118.42 39.7702 118.14C39.8202 118.05 39.8402 117.94 39.8802 117.82C39.7402 117.83 39.6402 117.84 39.5502 117.85C39.5802 117.61 39.6002 117.4 39.6202 117.2C39.7302 117.22 39.8402 117.25 39.9402 117.27C39.8802 116.78 39.8202 116.35 39.7502 115.84C40.0602 115.4 39.8302 114.86 39.7202 114.36C39.5102 114.34 39.3402 114.33 39.0202 114.3C39.2402 114.66 39.4102 114.93 39.5702 115.2C39.5202 115.18 39.4702 115.17 39.4302 115.15C39.4002 115.28 39.2902 115.48 39.3402 115.54C39.8902 116.19 38.9702 116.85 39.3602 117.49C39.3602 117.49 39.3302 117.51 39.3202 117.52C39.1602 117.49 39.0102 117.47 38.7102 117.42C38.8502 117.65 38.9002 117.79 39.0002 117.88C39.3502 118.18 39.3502 118.36 38.8602 118.48C38.5202 118.56 38.5102 118.77 38.7602 119.04C38.8002 118.86 38.8302 118.73 38.8602 118.6C38.9102 118.6 38.9702 118.6 39.0202 118.6V120.18C39.0702 120.18 39.1202 120.18 39.1702 120.18C39.2202 119.98 39.2702 119.79 39.3202 119.59H39.3802V121.06C39.1802 120.573 38.9235 120.36 38.6102 120.42C38.6202 120.51 38.6402 120.6 38.6502 120.7C38.4802 120.71 38.3202 120.73 37.9502 120.76C38.2102 120.89 38.3502 120.96 38.5402 121.06C38.5702 121.18 38.6102 121.38 38.6902 121.71C38.4702 121.51 38.3402 121.39 38.2002 121.27C38.1702 121.3 38.1302 121.33 38.1002 121.36C38.2602 121.56 38.4202 121.76 38.6302 122.02C38.4802 122.13 38.3302 122.23 38.1202 122.38C38.2102 122.49 38.3302 122.65 38.4502 122.79C37.8402 123.1 38.0902 123.64 38.0902 124.01C37.9902 124.08 37.9202 124.13 37.8502 124.17C37.9002 124.22 37.9502 124.29 38.0102 124.32C38.1702 124.41 38.3402 124.47 38.5002 124.55C38.4702 124.61 38.4402 124.68 38.4102 124.74C38.2202 124.69 38.0402 124.64 37.8502 124.59C37.8002 124.64 37.7602 124.69 37.7102 124.73C37.9302 124.81 38.1402 124.9 38.3602 124.98C38.3002 125.05 38.2402 125.12 38.1802 125.19C38.0302 125.12 37.8702 125.04 37.7802 125C37.6402 125.22 37.5202 125.42 37.3702 125.67C37.4802 125.69 37.6202 125.71 37.7002 125.73C37.6602 125.95 37.6202 126.17 37.5902 126.39C37.5302 126.34 37.4402 126.25 37.3502 126.17C37.2202 126.65 38.0802 127.08 37.3802 127.57C37.5402 127.61 37.6602 127.63 37.8602 127.68C37.7202 127.96 37.6102 128.19 37.4602 128.5C37.5702 128.69 37.7902 129.02 37.9602 129.37C38.0302 129.51 38.1902 129.8 37.7702 129.71C37.7702 129.82 37.7002 129.98 37.7502 130.02C37.9902 130.22 38.0002 130.21 37.8902 130.4C37.6902 130.25 37.4802 130.1 37.2802 129.95C37.2402 129.99 37.2002 130.02 37.1602 130.06C37.6002 130.43 37.9802 130.82 37.9102 131.44H31.2002V90.48C35.9002 88.76 40.7702 87.47 45.3502 85.32C45.0602 84.5 44.6502 83.74 44.5502 82.95C44.4102 81.85 44.5102 80.71 44.5302 79.6C44.5302 79.42 44.7502 79.24 44.8002 79.05C44.8702 78.75 44.8302 78.42 44.9102 78.13C45.1502 77.2 45.4002 76.28 45.6802 75.36C45.8102 74.93 46.0002 74.52 46.1602 74.1C46.2002 74.11 46.2402 74.12 46.2802 74.14L46.0002 76.07C46.0702 76.07 46.1302 76.09 46.2002 76.1C46.1002 75.27 46.9402 74.61 46.4902 73.69C46.4002 73.52 46.6502 73.21 46.6602 72.96C46.7202 71.14 47.3402 69.45 47.7402 67.71C47.7602 67.61 47.6702 67.49 47.6202 67.35C47.7602 67.17 47.9002 66.83 48.1502 66.7C48.6002 66.45 48.8002 66.08 48.9002 65.63C49.0102 65.1 49.0202 64.54 49.1702 64.02C49.3902 63.24 49.7302 62.49 49.9502 61.71C50.1802 60.92 50.3302 60.11 50.5102 59.3C50.5302 59.22 50.4802 59.12 50.4602 59.03C50.3702 58.44 50.2202 57.85 50.2002 57.26C50.1802 56.73 50.3002 56.19 50.3502 55.72C50.0602 55.68 49.8702 55.66 49.6902 55.63L49.7102 55.65C49.8102 54.77 49.9102 53.88 50.0202 52.94C49.9602 53.05 49.9302 53.1 49.9002 53.14C49.7602 51.8 49.6102 50.48 49.4902 49.16C49.4002 48.14 49.2802 47.11 49.2802 46.09C49.2802 44.89 49.4402 43.69 49.4802 42.49C49.5202 41.47 49.5902 40.42 49.4502 39.42C49.3402 38.64 49.4902 37.9 49.4802 37.14C49.4802 37.06 49.4702 36.97 49.5002 36.91C49.7802 36.44 49.9502 36.01 49.9102 35.38C49.8702 34.64 50.2202 33.85 50.5402 33.13C50.9102 32.28 51.4302 31.48 51.8702 30.66C51.9202 30.56 51.8702 30.41 51.8702 30.29C51.7702 30.37 51.6302 30.43 51.5802 30.54C51.3602 30.99 51.1702 31.45 50.9802 31.91C50.9302 31.89 50.8802 31.87 50.8302 31.85C51.2302 30.9 51.1202 29.78 51.8702 28.95C51.9302 28.88 52.0102 28.8 52.0202 28.72C52.1102 28.08 52.1502 27.43 52.2902 26.8C52.3802 26.36 52.5102 25.87 52.7902 25.56C53.3102 24.99 53.9602 24.54 54.5902 24.02C54.5602 24.23 54.5402 24.43 54.5102 24.62C54.7502 23.83 55.4602 23.75 56.0702 23.47H54.8202C55.2402 23 55.6502 22.56 56.0502 22.1C56.5002 21.59 56.9802 21.09 57.3802 20.54C58.2702 19.29 59.2502 18.14 60.5202 17.26C61.1602 16.82 61.7302 16.26 62.3302 15.76C71.9002 15.76 81.4602 15.76 91.0302 15.76C91.2102 15.95 91.3702 16.18 91.5902 16.33C93.0002 17.35 94.0302 18.72 94.9002 20.19C95.4602 21.13 95.8602 22.19 96.2602 23.22C96.8702 24.78 97.4302 26.36 97.9902 27.95C98.3402 28.94 98.6502 29.95 98.9802 30.94C99.3402 32.03 99.7502 33.1 100.07 34.2C100.29 34.99 100.43 35.82 100.53 36.64C100.62 37.42 100.62 38.21 100.66 39C100.66 39.15 100.67 39.31 100.7 39.46C100.8 40.17 100.93 40.88 101 41.59C101.14 42.97 101.24 44.36 101.35 45.74C101.5 47.57 101.66 49.39 101.81 51.22C101.81 51.33 101.81 51.55 101.79 51.55C101.23 51.63 101.71 51.96 101.63 52.16C101.67 52.1 101.71 52.04 101.85 51.84C101.71 52.54 101.61 53.07 101.51 53.6L101.67 53.72C101.69 53.65 101.71 53.57 101.73 53.5C101.73 53.5 101.77 53.5 101.75 53.5C101.81 53.8 101.83 54.1 101.93 54.38C102.05 54.71 102.32 55 102.38 55.33C102.65 56.85 103.4 58.26 103.36 59.87C103.35 60.37 103.16 60.87 103.31 61.42C103.4 61.75 103.17 62.17 103.08 62.55C102.9 63.26 102.72 63.97 102.54 64.68L102.36 64.65C103.09 62.71 102.98 60.73 102.69 58.74C102.61 58.22 102.5 57.7 102.44 57.17C102.37 56.59 102.52 55.95 101.95 55.5C101.89 55.45 101.92 55.28 101.91 55.16C101.91 55.05 101.89 54.94 101.88 54.83C101.78 54.9 101.65 54.94 101.6 55.03C101.53 55.15 101.5 55.31 101.47 55.46C101.35 56.27 101.23 57.08 101.13 57.77C101.12 57.64 101.1 57.38 101.07 57.01C100.71 57.8 100.39 58.46 100.11 59.13C100.02 59.33 99.9302 59.58 99.9702 59.78C100.16 60.65 99.9402 61.66 100.73 62.36C100.8 62.42 100.84 62.52 100.86 62.61C100.98 63.18 101.09 63.75 101.2 64.33C101.28 64.77 101.42 65.21 101.4 65.64C101.38 65.99 101.4 66.14 101.67 66.1C101.77 66.38 101.79 66.69 101.95 66.89C103.19 68.48 104.51 70.02 105.7 71.65C106.67 72.98 107.42 74.44 108.55 75.68C109.24 76.44 109.6 77.53 109.95 78.53C110.27 79.44 110.31 80.43 109.85 81.16C109.79 80.23 109.88 79.12 109.61 78.11C109.34 77.09 108.63 76.22 108 75.36C107.95 75.39 107.91 75.42 107.86 75.45C107.95 75.57 108.05 75.69 108.06 75.71C107.93 76.02 107.84 76.23 107.71 76.57C107.67 75.5 107.15 74.87 106.25 74.5C106.23 74.72 106.21 74.94 106.19 75.15C106.24 74.58 105.98 74.29 105.49 73.98C104.83 73.57 104.36 72.85 103.48 72.77C103.93 73.42 104.37 74.06 104.81 74.69C104.75 74.73 104.7 74.77 104.64 74.81C104.01 74.03 103.7 72.97 102.7 72.46C102.8 74.63 104.52 75.56 105.7 76.94C105.81 76.67 105.89 76.46 105.98 76.25C106.04 76.26 106.09 76.27 106.15 76.28C105.79 76.79 105.86 77.22 106.28 77.61C106.67 77.98 106.84 78.5 107.29 78.87C107.65 79.17 107.75 79.8 107.95 80.28C108.31 81.15 108.66 82.02 109.08 83.03C109.31 82.47 109.5 82.01 109.69 81.54C109.71 81.83 109.69 82.11 109.56 82.33C109.24 82.86 108.88 83.35 108.53 83.86C108.48 83.75 108.42 83.63 108.4 83.59C108.5 83.4 108.66 83.23 108.65 83.09C108.53 81.7 107.89 80.51 107.14 79.36C107.31 80.3 107.85 81.17 107.67 82.12C107.41 81.32 107.28 80.44 106.84 79.74C106.44 79.11 106.25 78.21 105.35 77.93C105.41 77.59 104.86 76.92 104.3 76.74C104.49 77.59 104.7 78.43 104.85 79.29C104.96 79.94 104.72 80.69 105.49 81.12C105.55 81.15 105.48 81.4 105.48 81.55C105.48 81.71 105.43 81.95 105.52 82.02C105.68 82.16 105.92 82.24 106.14 82.29C106.56 82.39 106.98 82.45 107.43 82.53C107.53 82.72 107.65 83.06 107.87 83.33C108.05 83.55 108.33 83.68 108.57 83.85C108.57 83.89 108.55 83.93 108.57 83.96C108.98 84.76 110.16 84.48 110.52 85.35C110.52 85.37 110.59 85.35 110.63 85.36C111.64 85.58 112.66 85.77 113.67 86.01C115.06 86.35 116.44 86.73 117.82 87.09L117.76 86.96ZM71.9502 58.96C72.1602 58.96 72.4002 59.04 72.5802 58.96C72.7302 58.89 72.8202 58.66 72.9002 58.49C72.9202 58.45 72.7702 58.28 72.7602 58.28C72.4402 58.45 72.1302 58.64 71.8202 58.82C71.6002 58.59 71.3902 58.46 71.1402 58.78C71.1102 58.82 71.0502 58.84 71.0002 58.87C70.7202 59.03 70.4402 59.19 70.0602 59.4C70.4502 59.51 70.6402 59.56 70.7702 59.6C70.8802 59.42 70.9702 59.12 71.0802 59.11C71.3602 59.08 71.6602 59.18 71.9402 59.24C72.1102 59.28 72.2602 59.36 72.4202 59.43C72.4302 59.4 72.4402 59.37 72.4502 59.33C72.2802 59.2 72.1102 59.07 71.9402 58.95L71.9502 58.96ZM71.8802 104.62C72.7402 104.63 72.8302 104.49 72.4802 103.73C72.4402 103.65 72.5302 103.51 72.5502 103.42C72.3302 103.36 72.1202 103.29 71.7902 103.19C72.0802 103.15 72.2502 103.13 72.4302 103.11C72.4302 103.08 72.4302 103.04 72.4402 103.01C71.5902 102.8 70.7402 102.6 69.8602 102.38C70.0002 101.52 70.1402 100.67 70.2702 99.82C70.2102 99.81 70.1602 99.8 70.1002 99.79C69.8902 101.56 69.5402 103.27 68.2602 104.66C68.3202 104.69 68.3802 104.72 68.4502 104.75C68.7802 104.31 69.1202 103.87 69.5202 103.35C69.4802 103.6 69.4502 103.75 69.4202 103.93C69.5702 103.83 69.6902 103.74 69.8902 103.61C69.8302 103.85 69.7902 103.99 69.7602 104.12C70.0102 104.27 70.2502 104.41 70.4802 104.55C70.5102 104.51 70.5402 104.48 70.5602 104.44C70.4102 104.14 70.2602 103.84 70.1202 103.54C70.1602 103.51 70.2102 103.48 70.2502 103.45C70.4402 103.76 70.6202 104.07 70.8102 104.39C71.3302 103.85 71.4402 103.83 72.0302 104.18C71.8702 104.16 71.6902 104.05 71.5602 104.09C71.3902 104.15 71.2502 104.32 71.1202 104.47C71.0802 104.51 71.1202 104.62 71.1202 104.7C71.2702 104.67 71.4202 104.63 71.5702 104.62C71.6802 104.61 71.7902 104.62 71.9002 104.63C71.7902 104.7 71.6702 104.78 71.4602 104.92C71.8802 105.13 72.1902 105.28 72.5402 105.46C72.3802 105.58 72.2302 105.68 72.0802 105.79C71.8802 105.56 71.9002 105.02 71.3202 105.33C71.4502 105.64 71.5802 105.96 71.7202 106.29C72.5402 105.85 72.5802 105.85 72.8802 106.24C73.0402 105.93 73.3202 105.62 73.3502 105.29C73.3802 104.91 73.1902 104.51 73.0902 104.11C73.0002 104.26 73.0302 104.4 73.0302 104.54C73.0302 104.63 72.9702 104.81 72.9602 104.81C72.6002 104.76 72.2402 104.68 71.8802 104.62ZM76.9002 70.39C77.2102 70.06 77.5702 69.75 77.3202 69.22C77.3602 69.3 77.3902 69.37 77.5202 69.63C77.6702 69.14 77.7802 68.79 77.8702 68.48C77.9802 68.52 78.2002 68.6 78.4202 68.65C78.4902 68.66 78.6602 68.56 78.6602 68.53C78.5802 68.15 78.6002 67.65 78.3602 67.42C78.0602 67.12 77.5502 67.02 77.1102 66.83C77.1802 66.8 77.2802 66.75 77.3802 66.7C77.3502 66.62 77.3302 66.54 77.3002 66.45H73.8002C73.1402 67 72.5602 66.54 71.9502 66.4C71.9502 66.48 71.9702 66.57 71.9902 66.73C71.6602 66.46 71.0502 67.01 71.0102 66.18C70.9602 66.43 70.9302 66.6 70.9002 66.77C70.9002 66.02 70.2202 66.53 70.1102 66.35C70.0002 66.53 69.8902 66.89 69.7702 66.9C69.1502 66.92 68.5302 66.84 67.8302 66.79C67.9902 66.56 68.1102 66.4 68.2602 66.19C68.1802 66.17 68.0202 66.07 67.9402 66.11C67.8402 66.16 67.8202 66.34 67.7402 66.44C67.6302 66.6 67.4702 66.89 67.3802 66.88C67.1202 66.83 66.8802 66.65 66.6702 66.54C66.8602 66.33 67.0302 66.12 67.2202 65.91C66.8602 65.93 66.5302 65.95 66.2002 65.98C66.0302 65.99 65.8502 66.06 65.6902 66.04C65.2502 65.99 64.8102 65.9 64.3802 65.82C63.8202 65.72 63.5402 66.12 63.2102 66.44C63.0702 66.57 62.9302 66.71 62.8102 66.86C62.6902 67.01 62.6002 67.18 62.4902 67.36C62.6402 67.38 62.7902 67.39 62.9502 67.41C62.8002 67.59 62.6702 67.75 62.5302 67.91C62.5902 67.91 62.6502 67.91 62.7102 67.91C62.8102 68.21 62.9202 68.5 63.0002 68.81C63.0302 68.92 62.9602 69.1 63.0202 69.17C63.3002 69.49 63.2002 69.73 62.8502 69.97H63.5802C63.5502 70.12 63.5202 70.24 63.4802 70.41C63.6602 70.36 63.7902 70.28 63.9002 70.3C64.0902 70.35 64.5502 69.84 64.4802 70.57C64.4702 70.7 65.0102 70.88 65.3002 71.04C65.3502 70.93 65.3902 70.81 65.4502 70.69C65.2502 70.64 65.0802 70.59 64.9002 70.54L64.9202 70.43C65.0402 70.45 65.1502 70.47 65.2702 70.48C65.2202 70.27 65.1902 70.12 65.1502 69.96C65.2902 69.93 65.4202 69.91 65.4502 69.9C65.5002 69.6 65.5302 69.36 65.5702 69.12C65.5502 69.1 65.5202 69.09 65.5002 69.07C65.3902 69.31 65.2802 69.54 65.1302 69.86C64.8902 68.96 65.1702 68.62 66.1702 68.38C66.2102 68.49 66.2502 68.61 66.3002 68.72C66.6202 68.52 67.3402 69.18 67.3202 68.24C67.3202 68.2 67.3902 68.13 67.4402 68.12C67.8202 68.06 68.1902 67.99 68.5702 67.98C68.7402 67.98 68.9202 68.17 69.1002 68.17C69.4402 68.16 69.7702 68.04 70.1102 68.01C70.3002 67.99 70.5002 68.07 70.6702 68.1C70.7002 68.03 70.7902 67.79 70.8202 67.79C71.1602 67.88 71.5002 68 71.8402 68.12C71.9502 68.16 72.0502 68.24 72.1602 68.25C72.6302 68.27 72.9902 68.79 73.5202 68.57C73.5302 68.57 73.6202 68.75 73.6802 68.85C73.7502 68.95 73.8202 69.04 73.9202 69.17C73.9902 68.95 74.0302 68.8 74.0802 68.64C74.1502 68.64 74.2302 68.66 74.3002 68.67V69.58C74.8902 69.4 74.8202 69.94 74.9702 70.26C74.9902 70.3 74.8602 70.41 74.7402 70.57C74.7502 70.35 74.7602 70.26 74.7702 70.18C74.6902 70.91 74.0702 70.33 73.8202 70.57C73.8402 70.71 73.8602 70.83 73.8802 71.03C73.6802 70.84 73.5502 70.73 73.3902 70.58C73.3702 71.63 73.2102 71.73 72.0802 71.47C72.2302 71.69 72.3202 71.96 72.5102 72.07C72.8502 72.26 73.2402 72.36 73.6202 72.45C73.7302 72.48 73.8902 72.33 74.0202 72.27C73.9802 72.4 73.9402 72.53 73.9102 72.62C74.2002 72.76 74.4602 72.88 74.7202 73.01C74.7702 73.16 74.8802 73.23 74.9902 73.22C75.1202 73.22 75.2502 73.14 75.4302 73.07C75.4102 73.47 75.3902 73.82 75.3802 74.17C75.6002 73.85 75.6902 73.34 75.9202 73.26C76.5502 73.04 76.4902 72.66 76.3102 72.08C76.4902 72.28 76.5802 72.39 76.7602 72.6C76.9702 72.17 77.1502 71.81 77.3602 71.38C77.4802 71.33 77.7502 71.23 78.0802 71.11C77.9602 70.96 77.8302 70.81 77.7002 70.65C77.5502 70.86 77.4502 71.01 77.3502 71.16C77.1502 70.95 77.0202 70.8 76.8902 70.66C76.8902 70.58 76.8902 70.49 76.8902 70.41L76.9002 70.39ZM81.9902 85.9C82.1602 85.73 82.3302 85.55 82.5102 85.36C82.4302 85.29 82.3202 85.19 82.1902 85.07C82.4402 84.88 82.6602 84.73 82.9302 84.52C82.8702 84.7 82.8402 84.8 82.7902 84.98C83.7102 84.51 82.4802 84.31 82.7302 83.98C82.8102 84.01 82.8802 84.03 82.8702 84.03C82.9602 83.51 83.0502 83.01 83.1402 82.47C83.0502 82.5 82.8302 82.5 82.7202 82.61C82.4802 82.86 82.3002 83.17 82.0302 83.54C82.0102 83.36 81.9802 83.29 82.0002 83.25C82.2402 82.78 82.5002 82.31 82.7302 81.83C82.7502 81.79 82.6402 81.67 82.5702 81.62C82.5302 81.59 82.4202 81.64 82.3902 81.6C82.2802 81.5 82.1902 81.37 82.0902 81.26C82.0302 81.06 81.9602 80.82 81.8502 80.46C81.9102 80.38 82.0302 80.14 82.2202 80.02C82.7102 79.72 83.2402 79.49 83.7202 79.19C83.8602 79.11 83.9202 78.89 84.0502 78.67C83.7202 78.76 83.5202 78.82 83.3202 78.87C83.3002 78.83 83.2902 78.8 83.2702 78.76C83.5002 78.59 83.7302 78.43 84.0302 78.21C83.8502 78.19 83.7602 78.15 83.7102 78.18C82.9602 78.62 82.2302 79.09 81.4602 79.51C81.0902 79.71 80.7502 79.86 80.7802 80.38C80.7802 80.48 80.5202 80.61 80.3702 80.71C80.2002 80.82 79.9802 80.88 79.8602 81.03C79.5502 81.42 79.3002 81.85 79.0102 82.26C78.8802 82.45 78.7302 82.64 78.5902 82.83C78.6302 82.86 78.6602 82.88 78.7002 82.91C78.8002 82.84 78.9002 82.77 79.0002 82.7C79.0302 82.75 79.0602 82.8 79.0902 82.85C78.9702 82.93 78.8202 83.09 78.7302 83.06C78.5802 83.01 78.4802 82.84 78.3002 82.67C78.1502 82.78 77.9602 82.9 77.8102 83C78.0502 83.06 78.2702 83.11 78.4902 83.17C78.4802 83.23 78.4702 83.28 78.4602 83.34C78.2902 83.38 78.1002 83.4 77.9502 83.48C77.7302 83.6 77.5702 83.83 77.3502 83.92C76.8402 84.14 76.3202 84.37 75.7902 84.49C75.4102 84.58 74.9902 85.09 74.5002 84.4C74.7602 84.46 74.9202 84.53 75.0702 84.52C75.4102 84.51 75.5102 84.21 75.7202 84.01C75.9902 83.75 76.4202 83.65 76.7802 83.47C76.7502 83.41 76.7102 83.34 76.6802 83.28C76.1402 83.56 75.5902 83.84 75.0102 84.14C74.9102 84.06 74.7302 83.94 74.4702 83.74C74.9702 83.54 75.3802 83.38 75.7702 83.23C75.6902 83.12 75.6902 83.12 74.6702 83.38C74.2302 83.49 73.7902 83.59 73.3602 83.7C72.9402 83.8 72.5202 83.88 72.1102 83.98C72.1102 83.94 72.0902 83.9 72.0802 83.86C72.4602 83.75 72.8402 83.63 73.2002 83.52C72.5302 83.24 71.9002 82.95 71.2402 82.74C71.0202 82.67 70.7102 82.77 70.4802 82.88C70.2502 82.98 70.0902 83.22 69.8702 83.34C69.7402 83.41 69.5602 83.38 69.4002 83.4C69.4002 83.45 69.4002 83.49 69.4002 83.54C69.7902 83.68 70.1702 83.83 70.5602 83.97C70.4202 84.41 70.7202 84.49 71.0702 84.48C70.9602 84.65 70.8502 84.8 70.7302 84.98C70.8902 85.02 70.9902 85.04 71.1002 85.07C71.1002 85.13 71.1002 85.2 71.1102 85.26C70.5702 85.33 70.0302 85.41 69.5102 85.48C69.6802 86.1 70.6402 85.65 70.8702 86.41H68.8902C69.2102 86.51 69.4202 86.58 69.6402 86.65L69.6102 86.76C69.4902 86.8 69.3702 86.83 69.1402 86.89C69.4302 87.16 69.6602 87.38 69.9002 87.6C69.9502 87.54 69.9402 87.57 69.9202 87.57C69.1302 87.66 68.3402 87.75 67.5602 87.84C67.5402 87.84 67.5002 87.82 67.4902 87.8C67.2602 87.37 66.9202 87.26 66.4602 87.35C66.2802 87.38 66.0802 87.29 65.8802 87.25C66.0902 87.39 66.3002 87.54 66.5102 87.67C66.5602 87.7 66.6402 87.69 66.7102 87.69C66.7202 87.73 66.7302 87.77 66.7402 87.82C66.4902 87.91 66.2502 88 65.8902 88.12C66.3202 88.33 66.6702 88.51 67.1402 88.74C66.7102 88.81 66.4502 88.85 66.2202 88.88C66.4502 89 66.6102 89.09 66.7702 89.18C66.5602 89.35 66.3602 89.53 66.1502 89.7C66.5402 89.57 67.0502 90.16 67.3402 89.51C67.6502 90.01 67.0702 90.03 66.8802 90.38C67.3702 90.37 67.4402 89.95 67.6702 89.73C67.6902 89.92 67.7002 90.1 67.7202 90.28C67.7602 90.28 67.8002 90.28 67.8402 90.28V89.54C68.2402 89.84 68.6302 90.07 68.4802 90.57C67.8302 90.76 67.2002 91.1 66.5302 90.67C66.6402 90.77 66.7502 90.87 66.8602 90.97C66.6802 91.12 66.5302 91.24 66.3902 91.36C66.4102 91.4 66.4302 91.44 66.4602 91.47C66.6102 91.43 66.7602 91.4 66.9202 91.36C66.8402 91.5 66.7202 91.69 66.7402 91.71C67.0102 91.94 66.7002 92.56 67.3002 92.57C67.3402 92.57 67.4302 92.79 67.4202 92.8C66.7902 93.26 67.5702 93.14 67.6902 93.36C67.0702 93.61 67.1202 94.07 67.1902 94.61C67.2402 94.99 67.0802 95.4 66.9802 95.94C67.7202 96.31 68.6002 96.75 69.4602 97.18C69.5902 97 69.7602 96.78 69.9602 96.52H69.3902C69.9502 96.23 70.3702 96.02 70.8202 95.79C70.7402 95.66 70.6802 95.56 70.6102 95.45C70.8002 95.36 71.0102 95.32 71.1302 95.2C71.2502 95.07 71.3002 94.87 71.3602 94.7C71.3802 94.63 71.3502 94.55 71.3402 94.47C71.3802 94.47 71.4302 94.47 71.4702 94.46C71.4902 94.56 71.5102 94.66 71.5202 94.76C71.5602 94.76 71.6002 94.76 71.6402 94.76V94.1H71.9002C71.8602 93.77 71.2002 94.01 71.4102 93.56C71.5002 93.38 71.8802 93.33 72.1502 93.21C72.1802 93.4 72.1902 93.55 72.2202 93.75C72.2902 93.58 72.3102 93.43 72.3902 93.36C72.4802 93.29 72.6302 93.29 72.7602 93.26V93.13C72.4502 93.07 72.1602 93.02 71.8002 92.95C72.0202 92.86 72.3102 92.82 72.3602 92.7C72.6002 92.04 72.7602 92.66 72.9402 92.71C73.0402 92.21 73.9802 92.16 73.7102 91.38C73.8202 91.58 73.9302 91.77 74.0202 91.94C74.2802 91.94 74.6002 92.01 74.8602 91.92C75.3302 91.77 76.0102 91.96 76.1802 91.2C76.2102 91.08 76.5902 90.91 76.6102 90.94C76.9402 91.32 77.2702 90.99 77.5302 90.9C78.0702 90.72 78.2302 90.36 78.0302 89.97C78.2402 89.99 78.4502 90 78.6502 90.02C78.6702 89.98 78.6902 89.93 78.7002 89.89C78.5602 89.81 78.4302 89.73 78.2902 89.64C78.8302 89.44 79.7702 89.72 79.5302 88.68C79.9202 88.54 80.2802 88.41 80.6502 88.28L80.6102 88.19C80.3502 88.16 80.0802 88.12 79.7602 88.08C79.9302 87.86 80.0302 87.74 80.1302 87.62C80.1602 87.73 80.1802 87.84 80.2302 88.06C80.5502 87.81 80.8202 87.59 81.0902 87.38C80.9902 87.26 80.8902 87.13 80.7702 86.98C80.9102 86.89 81.0602 86.8 81.2102 86.71C81.8202 86.76 81.8702 86.34 81.9002 85.9H81.9902ZM75.9702 46.82C75.9402 46.94 75.9102 47.07 75.8702 47.26H79.2902C79.1902 46.9 79.1102 46.49 78.9702 46.11C78.9402 46.02 78.7402 45.91 78.6502 45.94C77.7402 46.23 76.8502 46.54 75.9502 46.84C75.9102 46.7 75.8602 46.57 75.8102 46.43C74.9902 46.78 74.2602 47.09 73.6102 47.36V48.42C73.9402 48.64 74.1702 48.79 74.5002 49C74.2302 49.15 74.1002 49.22 73.9802 49.28C74.3002 49.42 74.6302 49.57 75.0102 49.74C74.6602 49.93 74.1902 49.29 74.1102 49.94C73.8602 49.72 73.6102 49.52 73.3802 49.31C73.3302 49.27 73.3102 49.17 73.3102 49.1C73.3002 48.62 73.0102 48.67 72.6102 48.8C72.6802 48.58 72.7302 48.42 72.7602 48.32C72.9302 48.35 73.0502 48.36 73.1902 48.39C73.1302 48.11 73.0902 47.9 73.0302 47.64C72.9802 47.79 72.9502 47.88 72.8802 48.1C72.8502 47.42 72.4502 46.83 72.8702 46.34C73.2102 45.94 73.3302 45.55 73.3002 45.04C73.4302 45.18 73.5002 45.32 73.5302 45.47C73.5602 45.62 73.5502 45.78 73.5602 45.93C73.8802 45.2 73.7502 44.74 73.1602 44.31C73.3102 44.21 73.4302 44.06 73.5702 44.03C73.8702 43.98 74.1902 44.03 74.5002 43.99C74.6302 43.98 74.8202 43.91 74.8702 43.81C75.0002 43.57 75.0702 43.3 75.2202 42.9C75.3802 43.2 75.4302 43.31 75.5202 43.48C75.6669 42.9333 75.8502 42.76 76.0702 42.96C75.9702 43.1 75.8702 43.23 75.7702 43.37C75.8202 43.41 75.8802 43.46 75.9302 43.5C76.0502 43.35 76.1902 43.2 76.3002 43.04C76.7302 42.41 78.3402 41.95 79.0702 42.26C79.1402 42.29 79.2302 42.29 79.3102 42.28C79.6602 42.24 80.0102 42.18 80.3702 42.16C80.8302 42.14 81.2902 42.16 81.7502 42.16C81.7502 42.09 81.7502 42.03 81.7502 41.96C81.5602 41.94 81.3602 41.91 81.1702 41.89C81.1702 41.86 81.1502 41.83 81.1402 41.8C81.7802 41.56 82.4302 41.32 83.1602 41.04C82.7202 39.22 82.0102 37.46 81.0702 35.78C81.6402 35.38 81.8102 35.5 82.0202 36.21C82.2202 36.9 82.6002 37.53 82.9002 38.19C82.9502 38.16 83.0102 38.14 83.0602 38.11C82.3802 35.87 81.7302 33.61 80.1102 31.73C79.8902 32.04 79.7702 32.22 79.7002 32.32C79.5702 32.02 79.4602 31.73 79.3102 31.47C79.1902 31.24 79.0702 30.95 78.8702 30.84C77.9502 30.36 76.9502 30.01 76.1902 29.26C76.0302 29.1 75.7702 28.99 75.5402 28.94C74.9902 28.81 74.4302 28.7 73.8602 28.63C73.1702 28.55 72.4402 28.29 71.8502 28.95C71.7602 28.39 71.2702 28.33 70.9602 28.41C70.6302 28.49 70.4802 29.01 70.0102 28.98C69.8502 28.98 69.6902 29.07 69.5202 29.09C69.1802 29.13 68.8302 29.14 68.4702 29.16C68.4102 29.26 68.3202 29.4 68.2002 29.6C68.1302 29.42 68.0802 29.31 68.0602 29.28C67.5802 29.36 67.1202 29.41 66.6802 29.5C65.6702 29.72 64.8502 30.3 64.0402 30.91C63.3302 31.43 62.8802 32.14 62.4402 32.9C61.7302 34.13 61.1102 35.38 60.8902 36.8C60.8202 37.24 60.7002 37.69 60.4802 38.08C60.0302 38.89 59.8502 39.72 60.0202 40.66C60.2402 40.63 60.4302 40.6 60.6602 40.57C60.5902 41.18 61.0602 41.06 61.3902 41.11C61.8402 41.18 62.3202 41.16 62.7502 41.3C63.5602 41.58 64.3802 41.88 65.1202 42.29C65.5502 42.53 66.0302 42.96 66.1602 43.4C66.2802 43.79 66.4502 43.71 66.7102 43.75C66.4902 44.17 66.7102 44.3 67.0702 44.48C68.0102 44.95 68.4402 45.15 68.3002 46.23C68.1802 47.13 67.8802 47.99 67.2702 48.7C66.9802 49.04 66.7802 49.5 66.2202 49.4C66.4702 49.11 66.7602 48.85 66.9402 48.53C67.0702 48.31 67.1302 47.99 67.1002 47.73C67.0402 47.26 66.4002 47.09 65.7702 47.35C65.3902 46.68 64.7402 47.09 64.2402 46.96C63.5902 46.78 63.1702 47.05 62.7502 47.39C62.6902 47.16 62.6602 47 62.6002 46.78C62.4402 47.09 62.3102 47.33 62.2002 47.54C61.7002 47.4 61.2602 47.27 60.8402 47.15V46.57C60.8402 46.57 60.7702 46.56 60.7402 46.55C60.6902 46.7 60.6402 46.86 60.5902 47.01C60.5302 47 60.4802 46.98 60.4202 46.97C60.4502 46.8 60.4802 46.64 60.5102 46.5C60.2302 46.37 59.9602 46.25 59.6402 46.1C59.5802 46.24 59.5102 46.4 59.3902 46.67C59.3102 45.74 59.1802 44.92 59.1802 44.1C59.1802 43.15 59.2702 42.19 59.4102 41.26C59.5702 40.25 59.8502 39.25 60.0702 38.24C60.1602 37.84 60.2002 37.43 60.2702 37.02C60.1802 37 60.0802 36.99 59.9902 36.97C59.7102 38.44 59.4202 39.9 59.1302 41.38C59.0602 41.28 58.9902 41.18 58.8802 41.03C58.7702 41.33 58.6802 41.56 58.5902 41.82C58.4602 41.58 58.3502 41.4 58.1602 41.06C58.0802 41.39 58.0402 41.58 57.9902 41.81C57.8702 41.78 57.7202 41.74 57.5202 41.7C57.6702 41.56 57.7602 41.48 57.8802 41.37C57.7202 41.32 57.5502 41.2 57.4802 41.25C57.2202 41.4 56.8002 41.58 56.7702 41.79C56.7002 42.45 56.7602 43.13 56.8302 43.79C56.8602 44.06 57.0402 44.31 57.2102 44.71C56.2302 44.2 55.6402 42.6 55.9302 41.54C56.1902 40.61 56.6002 39.78 57.3902 39.16C57.7702 38.87 58.0602 38.46 58.4502 38.19C58.7802 37.96 58.9002 37.72 58.7402 37.31C59.4902 37.25 59.5202 36.61 59.5002 36.15C59.4902 35.88 59.6102 35.77 59.6802 35.6C59.7102 35.52 59.8802 35.5 59.8902 35.5C59.8902 35.01 59.8402 34.6 59.9102 34.21C59.9502 33.98 60.2602 33.79 60.2902 33.56C60.4002 32.7 60.5102 32.53 61.2102 32.38C61.2502 32.2 61.3302 32.01 61.3202 31.83C61.3002 31.65 61.2102 31.46 61.0902 31.32C60.9202 31.12 60.7102 30.97 60.4702 30.76C60.0602 31.13 59.5802 31.57 59.0802 32.04C59.2302 32.09 59.3002 32.12 59.3702 32.14C59.2602 32.25 59.1602 32.26 59.0602 32.27C58.6802 32.29 57.9402 33.1 58.1102 33.36C58.4002 33.79 58.0502 33.77 57.8702 33.87V34.71C57.7202 34.75 57.5802 34.78 57.6202 34.77C57.6202 35.07 57.6602 35.26 57.6202 35.43C57.5402 35.71 57.3802 35.97 57.2902 36.25C57.0902 36.82 56.9402 37.41 56.7102 37.97C56.3902 38.76 56.0002 39.52 55.6902 40.31C55.4902 40.81 55.3802 41.35 55.2302 41.88C55.1602 42.11 55.0802 42.33 54.9702 42.67C54.9202 42.41 54.9002 42.28 54.8402 41.97C54.6702 42.72 54.5502 43.3 54.4202 43.88C54.4502 43.88 54.4802 43.89 54.5102 43.9C54.5902 43.7 54.6602 43.5 54.7402 43.31C54.6102 44.77 54.3802 46.21 54.2302 47.66C54.0802 49.08 54.0102 50.5 53.9002 51.92C53.9402 51.92 53.9702 51.92 54.0102 51.91C54.2902 51.25 54.5702 50.59 54.8402 49.93C54.8902 49.95 54.9502 49.97 55.0002 49.99C55.0002 50.04 55.0402 50.12 55.0202 50.15C54.0902 51.62 54.1002 53.23 54.3402 54.87C54.6202 56.86 54.8302 58.85 55.1602 60.83C55.4202 62.43 55.7602 64.02 56.1702 65.58C56.5202 66.93 57.0202 68.24 57.4702 69.55C57.7402 70.35 58.0502 71.13 58.3802 72.01C58.7102 71.58 58.8802 71.2 59.1802 70.97C59.8902 70.43 59.9102 70.46 59.8502 70.2C59.6402 70.38 59.4302 70.56 59.2202 70.74C59.0402 70.6 58.8602 70.47 58.6602 70.33C59.1302 70.03 59.6002 69.73 60.0602 69.43C60.0102 69.35 59.9602 69.27 59.9102 69.19C59.6302 69.36 59.3402 69.53 59.0602 69.69C59.0102 69.56 58.9602 69.42 58.9102 69.31C59.0802 69.08 59.2402 68.86 59.4102 68.62C59.4902 68.69 59.6102 68.79 59.7102 68.87C60.2402 67.71 60.3902 66.53 59.9902 65.39C60.2002 65.23 60.4602 65.12 60.5202 64.95C60.6002 64.71 60.5202 64.41 60.5102 64.2C60.0402 64.58 59.9002 63.91 59.6602 63.86C59.9102 63.33 60.1402 62.84 60.3702 62.35C60.5302 62.03 60.7002 61.78 61.1602 61.87C61.4202 61.92 61.7302 62.04 62.0002 61.7C62.1902 61.45 62.5802 61.2 62.8602 61.21C63.2402 61.23 63.2802 61.02 63.3702 60.82C63.4502 60.64 63.4802 60.43 63.5502 60.18C63.8102 60.35 64.0402 60.49 64.3702 60.7C64.2202 60.46 64.1402 60.32 64.0202 60.14H65.3502C65.5002 59.92 65.6502 59.56 65.3302 59.19C65.0902 58.91 64.8202 58.64 64.5502 58.38C64.4302 58.26 64.2302 58.17 64.1902 58.03C63.9102 57.15 64.0902 56.35 64.7302 55.47C64.4802 56.59 64.2402 57.56 65.3602 58.17C65.4302 57.93 65.4702 57.76 65.5202 57.59C65.7502 57.66 66.0002 57.69 66.1902 57.82C66.3502 57.93 66.4302 58.15 66.5402 58.32C65.9502 58.44 66.3902 58.83 66.3802 59.07C66.3802 59.49 66.7202 59.55 66.9502 59.31C67.2502 59 67.4802 59.22 67.7602 59.26C68.0702 59.31 68.4002 59.33 68.7102 59.27C69.0002 59.22 69.2702 59.08 69.5402 58.95C70.0602 58.71 70.6302 58.53 71.0602 58.17C71.7702 57.58 73.0302 57.45 73.7202 58.05C74.0802 58.36 74.4002 58.27 74.6802 57.96C75.0802 57.52 74.9702 56.44 74.5002 56.02C74.2102 55.76 73.9002 55.52 73.6502 55.22C73.3302 54.82 73.0502 54.38 72.7802 53.94C72.7202 53.84 72.7502 53.68 72.7402 53.54C72.1002 53.48 72.0202 53.38 72.2602 52.99C72.0102 52.83 71.7602 52.67 71.5102 52.51C71.5102 52.46 71.5102 52.42 71.5102 52.37C71.7802 52.37 72.0702 52.43 72.3302 52.35C72.5802 52.28 72.8002 52.07 73.0002 51.94C73.0602 52.31 73.1202 52.68 73.1902 53.05C73.2402 53.05 73.2902 53.04 73.3502 53.03V52.51C73.4002 52.49 73.4602 52.47 73.5102 52.46C73.6202 52.76 73.7302 53.05 73.8402 53.36C74.1502 53.28 74.6902 54.03 74.8202 54.69C75.0502 54.92 75.3502 55.19 75.3602 55.46C75.3802 56.64 75.2402 57.8 74.7702 58.9C74.7402 58.98 74.5802 59.01 74.4202 59.1C74.5302 59.24 74.6202 59.49 74.7402 59.5C75.1602 59.54 75.0902 59.75 74.9902 60.01C74.9302 60.16 74.8902 60.33 74.7902 60.67C75.1502 60.53 75.3902 60.43 75.6802 60.32C75.7002 60.55 75.7302 60.83 75.7602 61.16C76.1702 61.46 76.8502 61.52 77.3102 61.27C77.5202 62.14 78.2202 61.37 78.6202 61.66C78.6002 62.19 78.6702 62.26 79.1402 62.21C79.0302 62.01 78.9302 61.83 78.8002 61.59C78.9602 61.65 79.0602 61.71 79.1602 61.72C80.1502 61.82 80.3002 62.72 80.5302 63.37C80.6702 63.78 80.5302 64.26 81.0502 64.41C81.0302 64.69 81.0102 64.92 80.9902 65.18C80.9002 65.17 80.7802 65.16 80.6602 65.14C80.7902 65.6 80.9102 66.05 81.0402 66.52C80.4702 66.61 80.2602 66.82 80.3902 67.33C80.4902 67.73 80.5102 68.16 80.5202 68.57C80.5402 69.56 80.8402 70 81.7502 70.27C81.5702 70.75 81.6902 71.08 82.1802 71.34C82.3902 71.45 82.5702 71.84 82.5702 72.1C82.5702 72.5 82.7002 72.49 82.9902 72.4C83.1102 72.36 83.2402 72.38 83.3902 72.38V72.89C83.3302 72.88 83.2802 72.85 83.2302 72.85C83.1702 72.85 83.1202 72.89 82.9502 72.96C83.5502 73.2 84.0402 73.39 84.5302 73.58C84.4802 73.48 84.4302 73.4 84.3802 73.31C84.4702 73.26 84.5702 73.17 84.6602 73.18C85.1902 73.2 85.4902 72.89 85.7302 72.47C85.8002 72.34 85.9202 72.24 86.0202 72.13C86.1902 72.22 86.3302 72.3 86.5202 72.4C86.7902 71.92 87.0402 71.48 87.2102 71.18C87.5102 71.14 87.7702 71.11 88.0302 71.08C87.5002 71.01 87.4702 70.99 87.5702 70.39C87.7002 70.5 87.8002 70.66 87.9202 70.68C88.1002 70.71 88.3802 70.7 88.4502 70.59C88.6602 70.26 88.8302 69.89 88.9502 69.51C89.0002 69.33 88.8902 69.1 88.8602 68.9C88.7902 68.89 88.7302 68.88 88.6602 68.87C88.8002 69.28 88.7502 69.54 88.2602 69.44C88.3002 69.72 88.3302 69.98 88.3702 70.3C88.2202 70.19 88.1102 70.1 88.0302 70.04C88.0702 69.9 88.1502 69.77 88.1502 69.65C88.1402 69.36 88.0802 69.06 88.0502 68.77C88.0502 68.73 88.1402 68.68 88.2002 68.65C88.3702 68.54 88.5402 68.43 88.7202 68.3C88.6002 68.25 88.4902 68.2 88.3902 68.16C88.4302 68.11 88.4602 68.05 88.5102 68C88.6202 67.89 88.8302 67.79 88.8402 67.67C88.8902 67.01 89.5302 66.5 89.3402 65.77C89.3302 65.73 89.5702 65.63 89.6802 65.54C89.7202 65.51 89.7402 65.46 89.7902 65.4C89.6602 65.35 89.5402 65.3 89.3002 65.2C90.3102 64.78 90.0302 63.85 90.1102 63.19C90.1602 62.72 90.1902 62.4 90.5102 62.06C90.6002 61.96 90.4902 61.66 90.4802 61.61C90.5802 61.16 90.6602 60.85 90.7202 60.53C90.8302 59.92 90.9102 59.3 91.0202 58.69C91.1402 58 91.2102 57.3 91.4202 56.64C91.5902 56.12 91.4102 55.53 91.8202 55.04C91.9602 54.87 91.8402 54.47 91.8402 54.33C92.0402 53.86 92.1902 53.5 92.3602 53.11C91.7902 53.12 91.9602 52.82 92.0502 52.58C92.1202 52.41 92.3402 52.19 92.3002 52.09C91.9102 51.32 92.5302 50.49 92.1202 49.71C91.9702 49.41 92.0402 49 91.9702 48.65C91.8802 48.17 91.7602 47.7 91.6202 47.23C91.5602 47.01 91.4302 46.81 91.2902 46.63C91.1702 46.47 91.0002 46.35 90.8202 46.18C90.8202 46.16 90.8802 46.15 90.8202 46.18C90.8002 47.5 90.7502 48.82 91.0602 50.12C91.1002 50.27 91.0302 50.45 91.0102 50.62C90.8002 50.43 90.7302 50.27 90.7002 50.11C90.5502 49.22 90.6102 48.3 90.2702 47.43C90.2002 47.24 90.1202 46.95 90.1102 46.8C90.0902 46.17 90.1402 45.56 89.7902 44.99C89.7902 44.99 89.8302 44.96 89.8202 44.95C89.7602 44.73 89.7502 44.46 89.6102 44.3C89.3002 43.95 88.9202 43.65 88.5702 43.34C88.3802 43.65 88.2102 43.93 87.9902 44.3C87.2102 43.96 86.4002 43.61 85.4502 43.2C85.6002 44.7 86.1302 45.82 86.9602 46.83C87.0502 46.94 87.1302 47.05 87.2102 47.15C87.0802 47.23 86.9402 47.3 86.7702 47.4C86.7702 47.4 86.7802 47.48 86.7602 47.55C86.7202 47.65 86.6402 47.74 86.5802 47.83C86.5502 47.74 86.5302 47.64 86.5002 47.55C86.3902 47.18 86.3502 46.77 86.1602 46.44C85.8802 45.97 85.4802 45.57 85.1602 45.12C84.8502 44.68 84.4902 44.26 84.2902 43.77C84.1502 43.43 84.0702 43.15 83.6802 43.09C83.2302 43.02 82.7802 42.96 82.3302 42.93C82.1902 42.93 82.0402 43.03 81.8002 43.12C80.6102 42.93 79.6002 43.61 78.6202 44.36C78.6802 44.41 78.7902 44.5 78.9302 44.62C78.6902 44.72 78.4802 44.8 78.3602 44.84C78.5702 44.94 78.8202 45.07 79.0802 45.18C79.2702 45.26 79.4602 45.36 79.6602 45.38C80.1602 45.44 80.6702 45.47 81.1702 45.52C82.7502 45.65 84.1702 46.15 85.3602 47.25C85.9902 47.83 86.0602 47.94 85.6102 48.48C85.4802 48.63 85.2502 48.45 84.9502 48.54C85.1402 48.37 85.2202 48.3 85.3102 48.21C85.0502 48.14 84.8102 48.07 84.5702 48C84.5302 47.95 84.5002 47.9 84.4602 47.86C84.6002 47.84 84.7402 47.82 84.8102 47.81C84.5802 47.64 84.4502 47.55 84.3102 47.44C84.2402 47.45 84.1102 47.47 83.9802 47.49C83.4102 47.55 82.8602 47.59 82.4402 48.11C82.3502 48.22 81.7302 48.13 81.7002 48.03C81.5902 47.66 81.1802 47.71 81.0802 47.71C80.6402 47.7 80.2102 47.89 79.7502 47.76C79.6002 47.72 79.3802 47.78 79.2402 47.87C79.0802 47.97 78.9802 48.15 78.9102 48.23C78.5802 48.08 78.3102 47.94 78.0402 47.84C77.2902 47.57 76.5102 47.68 75.7402 47.71C75.6002 47.71 75.4502 47.47 75.3102 47.34C75.5302 47.17 75.7602 46.99 75.9802 46.82H75.9702ZM46.8602 75.82C46.7102 75.58 46.6302 75.44 46.5602 75.33C46.5602 75.72 46.6202 76.11 46.5502 76.47C46.4502 76.96 46.2802 77.43 46.0802 77.89C45.4002 79.52 45.2502 81.22 45.4302 82.95C45.4902 83.54 45.6402 84.13 45.7902 84.71C45.8202 84.82 46.0702 84.95 46.2002 84.92C46.4702 84.87 46.7202 84.74 46.8702 84.68C46.7802 83.19 46.6902 81.76 46.5902 80.33C46.6502 80.33 46.7102 80.33 46.7702 80.32C46.8002 80.41 46.8302 80.5 46.8802 80.65C46.9202 79.91 46.9602 79.25 47.0002 78.58C47.0402 78.02 47.3802 77.48 47.1602 76.89C47.1402 76.82 47.2502 76.68 47.3302 76.6C47.4102 76.52 47.5702 76.49 47.6002 76.4C48.0602 75.01 48.5102 73.62 48.9502 72.23C49.1402 71.63 49.3202 71.03 49.5002 70.42C49.3302 70.53 49.2902 70.67 49.2302 70.81C48.7902 71.68 48.3802 72.58 47.8802 73.42C47.4502 74.15 46.9302 74.83 46.8402 75.81L46.8602 75.82ZM61.1702 64.92C61.4602 65.37 61.6602 65.67 61.8602 65.98C61.9002 65.95 61.9502 65.92 61.9902 65.89C61.9202 65.74 61.8502 65.58 61.8302 65.54C62.0602 65.35 62.1802 65.23 62.3302 65.14C62.4002 65.1 62.5102 65.09 62.6002 65.11C62.9902 65.2 63.3602 65.35 63.7502 65.38C63.9902 65.4 64.3202 65.32 64.4702 65.16C65.0602 64.5 65.7602 64.74 66.4402 64.84C67.1002 64.94 67.7602 65.05 68.5402 65.17C68.3702 64.95 68.2602 64.81 68.0902 64.58C68.3202 64.66 68.4702 64.74 68.6302 64.75C69.0802 64.77 69.6102 64.92 69.9502 64.74C70.4602 64.47 70.9402 64.56 71.4902 64.45C71.2202 64.19 70.9202 63.91 70.5902 63.84C70.0902 63.73 69.5602 63.78 69.0502 63.76C69.0302 63.4 69.0202 63.18 69.0102 62.96C68.9702 62.91 68.9202 62.86 68.8802 62.81C68.5802 63.86 67.7202 63.93 66.9002 64.04C66.8102 63.97 66.6402 63.71 66.5102 63.73C65.9802 63.8 65.4602 63.75 64.9402 63.74C64.1902 63.74 63.4302 63.97 62.6302 64.11C62.7202 64.3 62.7802 64.45 62.8802 64.68C62.6102 64.54 62.4102 64.44 62.1902 64.33C62.0502 64.74 61.9002 65.17 61.1702 64.93V64.92ZM81.6502 30.45C83.0902 32.62 84.5102 34.75 85.9002 36.83C85.7002 36.06 85.5502 35.2 85.3802 34.34C85.2602 33.72 85.3902 32.88 84.6302 32.47C84.4902 32.39 84.4002 32.22 84.1602 31.95C84.4902 32.06 84.6802 32.13 84.9202 32.21C84.7502 31.88 84.5802 31.56 84.4002 31.24C84.2802 31.35 84.1802 31.45 84.0902 31.53C83.9102 31.32 83.7702 31.14 83.6102 30.97C83.1702 30.49 82.7302 30 82.2602 29.54C82.1702 29.45 81.8902 29.4 81.8402 29.46C81.7302 29.58 81.6802 29.78 81.6502 29.96C81.6202 30.14 81.6502 30.32 81.6502 30.46V30.45ZM86.6602 36.33C86.6502 36.1 86.6802 35.89 86.6202 35.71C86.2802 34.69 86.1902 34.58 85.6902 34.59C85.8302 35.35 85.9602 36.11 86.1102 36.86C86.5202 39.02 87.8702 40.78 88.6902 42.77C88.8702 43.2 89.1802 43.57 89.4302 43.97C89.4802 43.94 89.5302 43.92 89.5802 43.89V43.02C89.4202 42.59 89.2902 42.24 89.1702 41.89C89.0702 41.61 88.9902 41.32 88.8802 41.04C88.5102 40.07 88.1702 39.09 87.7402 38.15C87.4302 37.48 86.9902 36.87 86.6702 36.33H86.6602ZM63.0502 43.63C62.7102 43.4 62.4102 43.16 62.0702 42.98C61.5802 42.73 61.0602 42.55 60.5702 42.32C60.1102 42.1 59.6902 42.24 59.6102 42.74C59.5202 43.3 59.5302 43.87 59.4902 44.48C60.2402 44.42 60.8702 44.36 61.5002 44.34C62.1402 44.32 62.7802 44.34 63.6102 44.34C63.2502 44.06 63.0202 43.87 62.7902 43.7C62.8502 43.69 62.9402 43.66 63.0502 43.64V43.63ZM59.4402 117.97C59.4002 118.36 59.3102 118.74 59.3402 119.11C59.3402 119.19 59.7402 119.25 59.9602 119.31C60.7602 119.52 61.5902 119.67 62.3602 119.95C62.9702 120.17 63.0902 119.85 63.1902 119.42C63.2402 119.2 63.2502 118.96 63.2202 118.74C63.2002 118.63 63.0702 118.46 62.9602 118.44C62.6302 118.37 62.2902 118.35 61.9502 118.31C61.1702 118.21 60.4002 118.1 59.4402 117.97ZM85.6902 41.59C85.7602 41.56 85.8302 41.53 85.9002 41.5C85.7502 41.03 85.6602 40.54 85.4402 40.11C84.9702 39.17 84.4802 38.23 83.9102 37.35C83.4902 36.7 83.4702 35.89 82.9302 35.3C82.7202 35.07 82.6902 34.66 82.5802 34.34C82.5302 34.35 82.4802 34.36 82.4302 34.37C82.4202 34.5 82.3702 34.65 82.4002 34.77C82.6002 35.45 82.8002 36.13 83.0502 36.79C83.5502 38.1 84.1002 39.4 84.6002 40.71C84.7502 41.09 84.7202 41.59 85.3702 41.39C85.4502 41.37 85.5802 41.52 85.6802 41.6L85.6902 41.59ZM102.39 77.83C102.8 76.85 102.2 76.12 101.91 75.34C101.47 74.18 101.08 73.81 100.44 73.63C100.54 74.63 100.63 75.68 100.75 76.73C100.77 76.88 100.85 77.09 100.97 77.15C101.42 77.4 101.89 77.59 102.39 77.83ZM63.4802 108.78C63.6102 108.6 63.7902 108.41 63.9302 108.19C64.2002 107.78 64.1002 107.47 63.6302 107.29C62.9802 107.05 62.3102 106.86 61.6802 106.59C60.8902 106.25 60.7602 106.28 60.4802 107.06C60.4402 107.18 60.4302 107.3 60.4102 107.43C61.4202 107.87 62.4302 108.31 63.4902 108.78H63.4802ZM50.1002 41.71C50.0102 41.71 49.9202 41.73 49.8302 41.74C50.0002 44.04 50.1702 46.33 50.3502 48.66C50.5202 48.41 50.7002 48.15 50.9002 47.87C50.4902 47.34 50.4102 47.02 50.5602 46.68C50.6802 46.9 50.8302 47.2 50.9902 47.49C51.2002 47.36 51.4002 47.22 51.6102 47.09C51.5902 47.06 51.5702 47.02 51.5502 46.99C51.3402 47.04 51.1302 47.09 50.9102 47.14V45.21H50.9602C50.9902 45.43 51.0102 45.65 51.0402 45.88C51.0802 45.88 51.1202 45.88 51.1602 45.88C51.2002 45.76 51.2302 45.64 51.2702 45.52C51.3002 45.52 51.3302 45.52 51.3602 45.52C51.4102 45.79 51.4602 46.06 51.5002 46.33C51.4902 46.33 51.4702 46.33 51.4602 46.32V44.28C51.4102 44.37 51.3402 44.51 51.2202 44.75C51.0102 44.09 50.8402 43.54 50.6702 42.99C50.6202 42.99 50.5802 42.99 50.5302 42.99C50.4802 43.72 50.4302 44.44 50.3802 45.17C50.3702 45.17 50.3602 45.17 50.3402 45.17C50.2602 44.02 50.1902 42.86 50.1102 41.71H50.1002ZM54.2102 96.24C54.2102 96.24 54.1102 96.22 54.0702 96.21C53.7902 97.1 53.1002 97.83 53.0702 98.82C53.1302 98.85 53.1902 98.88 53.2502 98.91C53.4302 98.57 53.6002 98.23 53.8502 97.76V100.27C53.7602 100.2 53.6702 100.13 53.4302 99.95C53.4602 100.37 53.4602 100.66 53.5202 100.93C53.5502 101.09 53.7602 101.24 53.7502 101.39C53.7402 101.81 53.6602 102.24 53.6002 102.66C53.3602 102.49 53.1402 102.35 52.8902 102.17C53.1002 102.65 53.2502 103.02 53.4202 103.37C53.4902 103.53 53.6002 103.67 53.6802 103.82C53.7802 103.66 53.9202 103.52 53.9902 103.35C54.4502 102.15 54.1502 100.89 54.2102 99.66C54.2502 98.82 54.1402 97.97 54.1202 97.12C54.1202 96.82 54.1802 96.52 54.2202 96.22L54.2102 96.24ZM72.6202 64.63L72.5802 64.85C72.9002 64.98 73.2402 65.24 73.5402 65.21C74.2202 65.15 74.8202 65.43 75.4502 65.55C75.8802 65.63 76.3702 65.79 76.7602 65.68C77.0802 65.59 77.2602 65.61 77.4802 65.79C77.6202 65.9 77.7802 65.99 78.0002 66.13C77.9502 65.8 77.9202 65.58 77.9002 65.45C77.5302 65.41 77.2302 65.38 76.9202 65.35C76.9602 65.3 77.0102 65.26 77.0502 65.21C76.9502 65 76.8502 64.8 76.7402 64.59C76.6902 64.62 76.6402 64.64 76.5902 64.67C76.6402 64.76 76.6802 64.85 76.7302 64.94C76.6902 64.97 76.6602 65 76.6202 65.03C76.3602 64.74 76.0902 64.45 75.8302 64.16C75.8002 64.18 75.7602 64.2 75.7302 64.21C75.7902 64.41 75.8502 64.61 75.9202 64.88C75.3202 64.63 74.7502 64.4 74.1802 64.17C73.8602 65.01 73.0902 64.37 72.6102 64.65L72.6202 64.63ZM48.2802 78.99H48.0902C47.8402 80.7 47.3602 82.42 48.1602 84.15C48.2502 83.82 48.2502 83.48 48.2002 83.15C48.1302 82.74 47.9102 82.33 48.4402 81.88C48.4102 82.36 48.3802 82.72 48.3502 83.08C48.4002 83.08 48.4502 83.08 48.5002 83.08V81.13C48.7002 81.19 48.8002 81.22 48.8202 81.23C48.9402 80.96 49.0802 80.72 49.1602 80.46C49.2402 80.23 49.2602 79.98 49.3102 79.74L49.0902 79.68C48.9602 79.99 48.8402 80.29 48.7102 80.6C48.6802 80.6 48.6502 80.6 48.6202 80.6V79.39C48.5202 79.48 48.4102 79.57 48.2702 79.7V78.99H48.2802ZM98.3202 45.05C98.4102 45.33 98.4402 45.54 98.5402 45.71C98.6002 45.82 98.7402 45.95 98.8602 45.96C99.1602 45.99 99.5602 45.85 99.7602 46C99.9602 46.15 99.9602 46.56 100.04 46.86C100.04 46.88 100.04 46.9 100.04 46.92C100.32 47.47 100.02 47.95 99.8302 48.44C99.8002 48.52 99.7902 48.63 99.8202 48.71C99.9102 48.93 100.02 49.15 100.11 49.33C99.7502 49.63 99.9402 49.81 100.24 50C100.33 49.19 100.45 48.41 100.48 47.63C100.5 46.98 100.46 46.33 100.36 45.69C100.32 45.42 100.06 45.17 99.8602 44.95C99.6702 44.74 99.5102 44.78 99.2702 45.02C99.1102 45.17 98.6802 45.05 98.3102 45.05H98.3202ZM92.9102 61.5C93.6402 61.94 93.6602 61.07 94.1002 60.89C94.0902 61.14 94.0802 61.35 94.0602 61.57C94.2002 61.6 94.3602 61.63 94.4902 61.65V60.13C94.4902 60.13 94.4302 60.11 94.3902 60.11C94.3202 60.25 94.2502 60.38 94.1502 60.57C94.0302 60.35 93.9202 60.16 93.8202 59.97C93.7902 60.09 93.7602 60.2 93.7202 60.32C93.5402 60.18 93.5002 60.02 93.4302 59.87C93.3802 59.78 93.3002 59.67 93.2102 59.64C93.1202 59.61 92.9202 59.64 92.9002 59.69C92.7602 60.03 92.6202 60.38 92.5602 60.74C92.5102 61.03 92.6302 61.32 92.3802 61.59C92.1302 61.86 92.3002 62.56 92.5702 62.7C92.6802 62.31 92.7902 61.92 92.9102 61.5ZM103.72 77.54C103.06 76.86 103.37 75.7 102.46 75.15C102.46 75.35 102.46 75.64 102.59 75.69C102.92 75.85 102.89 76.03 102.88 76.35C102.88 76.84 102.99 77.36 103.15 77.83C103.3 78.26 103.59 78.65 103.82 79.06C104.01 79.05 104.21 79.04 104.46 79.02C104.34 78.67 104.03 78.2 104.15 78.03C104.57 77.44 104.06 77.04 103.97 76.58C103.91 76.27 103.63 75.99 103.44 75.7C103.38 75.73 103.32 75.76 103.26 75.8C103.41 76.38 103.56 76.96 103.71 77.54H103.72ZM100.86 52.45C100.81 52.51 100.76 52.54 100.75 52.59C100.63 53.6 100.48 54.61 100.42 55.63C100.4 55.91 100.56 56.13 100.33 56.45C100.11 56.74 100.16 57.22 100.06 57.61C99.9702 57.98 99.8502 58.34 99.7502 58.71C100.8 57.05 101.44 55.28 101.2 53.31C101.12 53.34 101.02 53.37 100.93 53.4C100.91 53.1 100.89 52.81 100.86 52.45ZM64.8102 99.36C65.2102 99.27 65.6102 99.2 66.0002 99.09C66.1002 99.06 66.2302 98.92 66.2402 98.82C66.2802 98.36 66.2602 97.91 65.9102 97.66C65.1302 97.93 64.4402 98.18 63.7302 98.41C63.3802 98.52 63.3602 98.69 63.5002 99C63.7302 98.8 63.9002 98.65 64.1702 98.42C64.1402 98.85 64.1202 99.13 64.0902 99.5C64.4102 99.21 64.6002 99.04 64.8802 98.79C64.8502 99.05 64.8402 99.17 64.8202 99.36H64.8102ZM101.57 67.26C101.12 68.72 102.16 70.11 104.13 70.63C103.22 69.43 102.4 68.36 101.57 67.26ZM98.4802 75.72V76.63C98.4802 76.63 98.5702 76.63 98.6202 76.62C98.5902 76.41 98.5702 76.21 98.5202 75.82C98.8702 76.04 99.0802 76.16 99.3502 76.33C99.2902 75.97 99.2502 75.67 99.1902 75.35C99.1202 75.49 99.0702 75.61 99.0602 75.64C98.9202 75.08 98.8002 74.48 98.5902 73.91C98.5202 73.73 98.1902 73.66 97.9802 73.54C97.9002 73.71 97.7602 73.87 97.7402 74.05C97.7002 74.43 97.7302 74.82 97.7302 75.31C97.9102 75.41 98.1902 75.56 98.4802 75.72ZM51.6602 53.9C51.6002 53.9 51.5502 53.9 51.4902 53.89C50.9402 58.51 50.3902 63.12 49.8402 67.74L50.0302 67.76C50.5702 63.14 51.1102 58.52 51.6602 53.9ZM52.9802 41.46C52.9202 41.46 52.8702 41.46 52.8102 41.45C52.8802 40.93 52.9502 40.4 53.0202 39.88C52.9702 39.88 52.9202 39.87 52.8802 39.86C52.8202 40.21 52.7602 40.56 52.7102 40.91C52.5902 41.76 52.4602 42.62 52.3802 43.48C52.3502 43.8 52.4702 44.13 52.5202 44.46L52.7002 44.44C52.7402 44.26 52.7902 44.08 52.8202 43.9C52.9902 42.96 52.8202 41.96 53.3902 41.1C53.5202 40.91 53.6102 40.66 53.6202 40.43C53.6802 39.45 53.7102 38.48 53.7402 37.5C53.7402 37.39 53.7202 37.27 53.7102 37.15C53.6602 37.15 53.6102 37.15 53.5502 37.15C53.2202 38.57 53.8002 40.13 52.9702 41.47L52.9802 41.46ZM81.4202 31.4C81.4202 31.4 81.3202 31.47 81.2702 31.5C82.3602 33.13 83.4402 34.75 84.5302 36.38C84.6102 36.33 84.6902 36.27 84.7702 36.22C83.9102 34.44 82.8802 32.78 81.4202 31.41V31.4ZM48.4802 79.09C48.5602 79.09 48.6302 79.07 48.7102 79.06C48.9702 78.45 49.3102 77.85 49.4602 77.21C49.6102 76.56 49.5702 75.86 49.6102 75.19C49.5502 75.19 49.4802 75.17 49.4202 75.16C49.3602 75.39 49.3002 75.63 49.2502 75.86C49.2002 76.07 49.1902 76.3 49.1002 76.5C48.8702 77 48.5302 77.47 48.3702 78C48.2802 78.32 48.4402 78.72 48.4902 79.08L48.4802 79.09ZM93.3302 84.39C93.4702 83.71 92.9302 83.7 92.5302 83.46C92.6302 83.84 92.7102 84.15 92.8302 84.61C92.4802 84.42 92.2902 84.31 92.1002 84.2C92.1002 84.4 92.0802 84.61 92.0702 84.82C92.5802 84.54 93.0502 84.63 93.1602 84.96C93.2502 84.92 93.3602 84.83 93.4302 84.85C93.8802 84.98 94.1802 84.78 94.1302 84.32C94.0802 83.93 94.0002 83.55 93.9402 83.22C93.7802 83.2 93.6202 83.17 93.4402 83.14C93.4902 83.53 94.0102 83.98 93.3302 84.38V84.39ZM99.2602 72.63C99.1802 72.64 99.0902 72.65 99.0102 72.67C99.0502 72.92 99.0702 73.18 99.1202 73.43C99.1802 73.69 99.4002 74.01 99.3102 74.2C99.1202 74.66 99.4102 74.94 99.5402 75.3C99.6902 75.73 100.29 76.06 99.8502 76.62C99.9202 76.67 99.9902 76.72 100.15 76.84C100.15 76.3 100.2 75.86 100.14 75.44C100.07 75 99.9102 74.58 99.7702 74.15C99.6102 73.64 99.4302 73.14 99.2502 72.63H99.2602ZM49.8602 68.12L49.7602 68.09C49.6102 68.62 49.5402 69.19 49.3002 69.68C48.8902 70.53 48.3502 71.33 47.9102 72.17C47.7202 72.53 47.6302 72.95 47.4902 73.35L47.6902 73.44C48.2802 72.27 48.8602 71.1 49.4502 69.94C49.4802 70 49.5102 70.05 49.5902 70.2C49.7002 69.43 49.7802 68.78 49.8702 68.13L49.8602 68.12ZM93.0602 58.82C93.7502 58.29 93.2802 57.4 93.8602 56.94C93.9502 56.87 93.8902 56.6 93.9102 56.31C93.4202 56.63 93.0402 56.88 92.5502 57.2C92.7002 57.67 92.8602 58.18 93.0602 58.82ZM72.6602 102.74C72.4602 101.75 72.8602 100.74 72.4302 99.79C72.2702 99.89 72.1802 99.99 72.1702 100.11C72.1202 100.72 72.0902 101.32 72.0402 101.93C72.0102 102.33 72.0602 102.67 72.6602 102.75V102.74ZM102.6 70.96C103.11 71.34 103.6 71.77 104.14 72.08C104.44 72.25 104.85 72.23 105.28 72.32C104.78 70.87 103.48 71.36 102.59 70.96H102.6ZM56.7502 93.35L56.6702 93.5C56.3202 93.46 55.9402 93.5 55.6402 93.35C55.2402 93.15 54.8102 92.88 54.9002 92.35C54.6602 92.29 54.4702 92.23 54.2402 92.17C54.2502 92.4 54.2602 92.61 54.2702 92.72C55.0702 93.27 55.8102 93.78 56.5902 94.31C56.6602 94.01 57.3202 93.81 56.7502 93.35ZM64.5002 45.23C64.4102 45.48 64.3602 45.64 64.2902 45.79C64.0702 46.21 64.1602 46.44 64.6602 46.45C64.8902 46.45 65.1202 46.51 65.3502 46.5C65.5702 46.5 65.8002 46.43 66.1602 46.37C65.5102 45.92 65.0302 45.59 64.5002 45.23ZM49.7802 45.28C49.7102 45.28 49.6402 45.28 49.5702 45.28C49.4002 46.83 49.4702 48.37 49.8502 49.91C49.9602 49.4 49.9702 48.9 49.9502 48.39C49.9502 48.2 49.8002 48.01 49.8002 47.82C49.7802 46.97 49.8002 46.12 49.8002 45.28H49.7802ZM60.9502 46.25C60.9502 46.25 61.0402 46.17 61.0902 46.13C61.0302 45.73 60.9702 45.33 60.8902 44.77C60.5102 45.24 59.7702 44.71 59.6502 45.59C60.0802 45.81 60.5102 46.03 60.9502 46.25ZM52.2902 102.16C52.0602 101.42 51.7302 101.19 51.5702 101.49C51.2402 102.13 51.0302 102.83 50.7802 103.51C50.7702 103.55 50.8602 103.62 51.0302 103.84C51.3002 103.13 51.5302 102.52 51.7502 101.93C51.8902 101.99 52.0302 102.05 52.2902 102.16ZM102.05 73.4C101.92 72.29 101.24 71.28 100.48 71.03C100.74 71.46 101.17 71.84 101.17 72.21C101.16 72.94 101.79 72.99 102.06 73.4H102.05ZM95.7602 82.46C95.5602 82.43 95.4402 82.4 95.2302 82.37C95.4302 82.31 95.5402 82.27 95.7602 82.21C95.5002 82.07 95.3402 81.98 95.1702 81.89C95.3102 81.85 95.4202 81.82 95.5402 81.79C95.5402 81.75 95.5402 81.71 95.5402 81.67C95.2202 81.6 94.8902 81.54 94.5502 81.47C94.7402 81.94 95.1502 82.49 94.3602 82.92C94.8202 82.68 95.4702 83.25 95.7502 82.47L95.7602 82.46ZM98.2102 39.95C99.0802 40.96 99.8402 41.86 100.61 42.76C100.26 41.6 99.1102 40.41 98.2102 39.95ZM58.4802 72.3C58.2102 71.9 57.1902 72.71 56.0902 74.35C56.8702 73.68 57.6602 73.01 58.4802 72.3ZM97.8102 64.35C98.0602 64.6 98.2502 64.79 98.4502 64.98C98.8802 64.5 98.1102 64.44 98.1102 64.11C98.6402 63.72 98.8702 63 98.6902 62.07C98.3402 62.96 98.0502 63.73 97.8102 64.34V64.35ZM54.8602 114.3C54.7902 115.96 54.7302 117.47 54.6702 119.02C54.8402 118.93 54.9902 118.88 54.9902 118.84C55.0402 117.53 55.0902 116.22 55.1102 114.91C55.1102 114.76 54.9902 114.61 54.8602 114.3ZM79.4502 92.68C79.9102 92.49 80.0602 91.76 80.8002 92.13C80.6702 91.88 80.5802 91.72 80.5202 91.6C79.8902 91.96 79.3002 92.3 78.7102 92.64C78.8902 92.78 79.1202 92.96 79.4602 93.21C79.5102 93.16 79.6602 93.01 79.8202 92.86C79.7202 92.81 79.6102 92.76 79.4602 92.68H79.4502ZM86.4402 90.55C86.7902 90.69 87.1102 90.81 87.4302 90.94C87.4402 90.9 87.4602 90.87 87.4702 90.83C87.3102 90.72 87.1502 90.6 86.9902 90.49C87.1602 90.43 87.4002 90.39 87.4102 90.32C87.4502 90.01 87.4302 89.69 87.4302 89.37L87.3302 89.39C87.2802 89.49 87.2302 89.6 87.1802 89.7C87.1202 89.65 87.0402 89.62 87.0002 89.56C86.9602 89.51 86.9602 89.43 86.9402 89.37C86.9002 89.44 86.8402 89.5 86.8102 89.58C86.6902 89.89 86.5702 90.19 86.4302 90.56L86.4402 90.55ZM78.8702 94.15C79.6035 94.39 80.1002 94.3267 80.3602 93.96C80.1602 94.06 80.0202 94.13 79.7602 94.26C80.0002 93.97 80.1502 93.79 80.3202 93.6C79.5802 93.33 79.4302 93.39 78.8802 94.15H78.8702ZM77.0702 102.08C77.1402 101.96 77.2102 101.89 77.2302 101.8C77.4202 101.11 77.6302 100.43 78.3502 100.09C78.3902 100.07 78.4302 99.93 78.4002 99.89C78.3502 99.83 78.2502 99.77 78.1802 99.78C77.4702 99.9 76.7502 101.31 77.0602 102.08H77.0702ZM82.8602 91.96C82.3202 92.52 81.7902 93.07 81.2702 93.6C81.6035 93.7 81.8702 93.5933 82.0702 93.28C82.1202 93.21 82.1602 93.1 82.2302 93.07C82.7502 92.9 82.9802 92.49 82.8502 91.95L82.8602 91.96ZM89.1402 84.42C89.8002 84.03 89.9502 84.47 90.0702 84.98C90.1802 84.88 90.2702 84.8 90.3902 84.69C90.4402 84.86 90.4702 84.98 90.5202 85.16C90.5802 84.58 89.9402 84.03 89.4202 84.09C89.1102 84.12 88.7902 84.07 88.4802 84.06C88.4602 84.06 88.4302 84.1 88.3802 84.15C88.4902 84.24 88.6002 84.33 88.7002 84.42C88.6102 84.5 88.5202 84.58 88.4002 84.69H89.5602C89.3502 84.55 89.2702 84.5 89.1602 84.43L89.1402 84.42ZM60.1802 34.5C60.1802 34.5 60.2602 34.5 60.3002 34.51C60.3402 34.64 60.3702 34.77 60.4302 34.97C60.8902 35 60.9202 34.51 61.0502 34.19C61.3002 33.6 61.2602 33.33 61.0102 33.13C60.9302 33.48 60.8602 33.82 60.7902 34.16C60.7302 34.14 60.6802 34.13 60.6202 34.11C60.6502 33.92 60.6802 33.72 60.7202 33.53C60.6802 33.52 60.6402 33.51 60.6002 33.5L60.2002 34.51L60.1802 34.5ZM88.0602 90.03C88.0202 89.87 87.9602 89.65 87.9002 89.43C87.8402 89.45 87.7702 89.46 87.7102 89.48C87.7902 89.78 87.8802 90.07 87.9602 90.37C88.1702 90.26 88.3802 90.14 88.5002 90.07C88.7102 90.09 88.9402 90.17 89.0102 90.1C89.2002 89.9 89.3302 89.64 89.4802 89.4C89.3402 89.34 89.2002 89.27 88.9102 89.14C89.0802 89.34 89.1302 89.41 89.1702 89.45C88.7802 89.65 88.4202 89.84 88.0602 90.03ZM92.0602 82.62C91.3302 82.34 90.7802 82.43 90.3202 83.2C90.7302 83.26 91.0902 83.31 91.5802 83.38C91.2902 83.1 91.1402 82.94 90.9802 82.79L91.0802 82.67H91.5602C91.4602 82.75 91.3902 82.8 91.3302 82.85C91.4702 82.9 91.6402 83.02 91.7402 82.98C91.8802 82.93 91.9602 82.74 92.0602 82.63V82.62ZM51.9002 55.35C51.8302 55.35 51.7502 55.35 51.6802 55.35C51.5602 56.5 51.4302 57.65 51.3102 58.79C51.3702 58.79 51.4202 58.8 51.4802 58.81C51.6202 57.66 51.7602 56.51 51.9102 55.36L51.9002 55.35ZM67.3502 47.49C67.5202 47.28 67.7502 47.13 67.7502 46.99C67.7302 46.41 67.3002 46.22 66.7402 46.1C66.9302 46.53 67.1002 46.92 67.3502 47.49ZM101.25 52.55C101.42 50.85 101.41 50.78 100.98 50.71C101.03 51 101.08 51.31 101.13 51.62C101.1 51.62 101.06 51.63 101.03 51.64C101 51.5 100.97 51.36 100.96 51.31C100.84 51.5 100.7 51.7 100.59 51.91C100.57 51.96 100.63 52.05 100.65 52.12C101.09 51.92 100.99 52.5 101.26 52.56L101.25 52.55ZM86.5402 76.82C85.9902 77.21 85.4302 77.61 84.8102 78.06C85.4202 78.15 86.3102 77.53 86.5402 76.82ZM44.8902 81.08C45.1102 79.89 45.3102 78.76 45.5202 77.62C45.4602 77.62 45.4002 77.6 45.3402 77.59C45.2602 78.74 44.6902 79.82 44.8902 81.08ZM96.3402 76.92C96.6002 77.27 96.2902 77.93 96.9102 77.97V76.33C96.8502 76.33 96.8002 76.33 96.7402 76.33C96.6902 76.53 96.6302 76.72 96.5702 76.94C96.5502 76.94 96.4702 76.93 96.3402 76.91V76.92ZM70.9302 76.02C70.9302 76.02 71.0002 76.02 71.0302 76.03C71.2202 75.69 71.4302 75.37 71.5702 75.02C71.6302 74.88 71.5202 74.67 71.4702 74.49C71.4302 74.34 71.3602 74.19 71.2602 73.93C71.1402 74.66 71.0402 75.34 70.9302 76.02ZM88.4902 85.24C87.7402 85.02 87.3902 85.61 86.9702 85.93C86.6902 85.88 86.4402 85.84 86.2002 85.79C86.2002 85.83 86.1902 85.87 86.1802 85.91C86.4502 86.01 86.7202 86.11 86.9002 86.17C87.4402 85.85 87.9402 85.55 88.4802 85.23L88.4902 85.24ZM52.8602 27.14C52.9302 27.4 52.9602 27.54 53.0202 27.78C53.2702 27.38 53.4902 27.05 53.7102 26.71C53.2402 26.6 52.6002 27.02 52.5102 27.49C52.5102 27.52 52.5702 27.56 52.6302 27.64C52.7002 27.49 52.7602 27.38 52.8702 27.15L52.8602 27.14ZM98.4502 40.77C98.7202 41.65 99.3602 42.17 100.12 42.57C99.5602 41.97 99.0102 41.37 98.4502 40.77ZM83.9502 90.09C84.0302 90.42 83.7502 90.87 84.2902 90.97C84.3902 90.99 84.6502 90.72 84.6402 90.61C84.5902 90.28 84.5902 89.79 83.9602 90.08L83.9502 90.09ZM70.1202 105.05C70.2502 105.1 70.3802 105.16 70.5002 105.21C70.4602 104.96 70.3602 104.78 70.2002 104.7C70.1102 104.65 69.8802 104.73 69.7902 104.83C69.5502 105.1 69.3502 105.4 69.1302 105.7C69.6202 105.89 69.7702 105.35 70.1202 105.06V105.05ZM55.1502 111.04C54.9902 111.49 54.8202 111.76 54.8202 112.03C54.8202 112.32 55.0002 112.6 55.1002 112.89C55.1202 112.87 55.1402 112.86 55.1502 112.84V111.03V111.04ZM91.1102 87.12C91.1102 87.12 91.1802 87.16 91.2202 87.18C91.4402 86.85 91.6502 86.52 91.9002 86.13C91.8702 86.43 91.8402 86.65 91.8202 86.87C91.8902 86.87 91.9602 86.87 92.0302 86.87C92.0102 86.6 92.0902 86.17 91.9602 86.08C91.5702 85.83 91.2702 86.09 90.9902 86.6C91.2602 86.41 91.4002 86.31 91.6402 86.15C91.4202 86.55 91.2702 86.84 91.1102 87.12ZM70.1102 106.64C70.1102 106.64 70.1102 106.71 70.1202 106.75C70.4202 106.68 70.7302 106.61 71.0602 106.54C70.9902 106.32 70.9502 106.1 70.8602 105.91C70.8102 105.8 70.6802 105.71 70.5902 105.62C70.5302 105.75 70.4202 105.88 70.4202 106.01C70.4202 106.14 70.5302 106.26 70.6002 106.41C70.4202 106.49 70.2602 106.57 70.1002 106.65L70.1102 106.64ZM68.3002 74.12C68.5402 74.19 68.9302 74.44 69.0802 73.87C69.1402 73.63 69.1202 73.36 69.1502 73.01C68.7902 73.48 68.5402 73.81 68.3002 74.12ZM84.8502 90.98C85.3902 90.62 85.8302 90.33 86.2702 90.04C86.2702 90.01 86.2702 89.98 86.2802 89.95C85.9702 90.03 85.6702 90.11 85.3702 90.19C85.2902 90.17 85.1702 90.13 85.1702 90.13C85.0602 90.43 84.9902 90.63 84.8602 90.98H84.8502ZM73.8102 106.73C73.8902 106.8 73.9702 106.87 74.0602 106.94C74.4202 106.45 74.7802 105.95 75.1402 105.46C75.0902 105.43 75.0502 105.39 75.0002 105.36C74.6002 105.82 74.2002 106.28 73.8102 106.74V106.73ZM70.7002 73.92C70.2102 74.18 70.0702 75.24 70.4702 75.55C70.5502 75.01 70.6302 74.47 70.7002 73.92ZM76.7002 93.34C76.7002 93.34 76.6702 93.38 76.6502 93.39C77.0302 93.52 77.3902 93.7 77.7802 93.76C77.9202 93.79 78.1102 93.56 78.2802 93.45C78.2802 93.41 78.2702 93.37 78.2602 93.33H76.7002V93.34ZM71.4302 108.05C71.4302 108.05 71.4002 108.15 71.3802 108.2C72.2702 108.7 72.4702 108.58 72.8202 107.25C72.5102 107.66 72.2902 107.97 72.0802 108.26C71.8402 108.19 71.6402 108.12 71.4302 108.06V108.05ZM86.6202 86.32C85.7902 86.12 85.5602 86.81 85.0902 87.08C85.1202 87.13 85.1502 87.19 85.1902 87.24C85.6402 86.95 86.1002 86.66 86.6302 86.32H86.6202ZM54.4102 24.95C54.3402 24.9 54.2702 24.86 54.2102 24.81C53.9002 25.32 53.5802 25.83 53.2202 26.43C54.1702 26.21 53.8102 25.27 54.4102 24.95ZM70.8502 106.88C70.7702 106.89 70.6902 106.9 70.6102 106.91C70.6602 107.11 70.6902 107.32 70.7802 107.5C70.8002 107.55 71.0202 107.5 71.1502 107.5C71.2702 107.5 71.3902 107.52 71.5102 107.52C71.6502 107.52 71.7802 107.51 71.9202 107.5V107.34C71.5902 107.32 71.2702 107.31 70.9302 107.29C70.9002 107.16 70.8802 107.02 70.8502 106.88ZM75.3702 96.49C75.4202 96.56 75.4602 96.63 75.5102 96.7L76.7202 95.94C76.6702 95.87 76.6302 95.79 76.5802 95.72C76.1802 95.98 75.7702 96.23 75.3702 96.49ZM51.0402 101.76C50.5535 101.927 50.4469 102.323 50.7202 102.95C50.8502 102.48 50.9402 102.15 51.0402 101.76ZM52.5002 74.75C52.4302 74.74 52.3702 74.73 52.3002 74.72C52.2102 75.26 52.1202 75.8 52.0402 76.34C52.1202 76.35 52.1902 76.37 52.2702 76.38L52.5002 74.75ZM86.0902 91.03C86.0902 91.03 86.0802 90.95 86.0702 90.91C85.6602 90.97 85.2502 91.04 84.8002 91.11C84.9802 91.31 85.1002 91.43 85.2402 91.57C85.3102 91.41 85.3602 91.29 85.4102 91.16C85.5402 91.26 85.6502 91.34 85.7102 91.39C85.8602 91.24 85.9802 91.14 86.0902 91.03ZM52.7702 91.35C52.7702 91.35 52.8202 91.3 52.8502 91.27C52.6202 90.98 52.3902 90.67 52.1402 90.39C52.1102 90.35 51.9202 90.4 51.8502 90.46C51.8002 90.5 51.8002 90.68 51.8402 90.71C52.1402 90.93 52.4602 91.14 52.7702 91.35ZM90.5602 86.76C90.4102 86.62 90.2902 86.52 90.1802 86.41C90.0802 86.61 89.9702 86.81 89.8602 87.04C90.1202 87.04 90.3302 87.08 90.5102 87.03C90.6702 86.98 90.7902 86.83 90.9302 86.72C90.9002 86.68 90.8702 86.64 90.8402 86.61C90.7302 86.67 90.6202 86.73 90.5602 86.77V86.76ZM92.6902 85.1C92.1902 85.31 91.6402 85.54 91.1002 85.77C92.0002 85.84 92.4702 85.62 92.6902 85.1ZM51.4802 49.79L51.6502 49.81L51.8102 47.84C51.7502 47.84 51.7002 47.84 51.6402 47.83C51.5902 48.48 51.5302 49.14 51.4802 49.79ZM70.8602 126.01C70.2335 125.91 69.9169 125.923 69.9102 126.05C70.2402 126.16 70.5502 126.26 70.8602 126.36V126.01ZM56.8202 94.35L56.7502 94.48C56.9702 94.52 57.2402 94.66 57.3902 94.59C57.5302 94.52 57.5502 94.21 57.6402 93.96C57.2902 94.13 57.0602 94.24 56.8202 94.35ZM75.3602 93.68C75.3602 93.68 75.2902 93.74 75.2502 93.77C75.3502 93.91 75.4302 94.16 75.5402 94.16C75.8402 94.19 76.1402 94.12 76.4402 94.08C76.4302 94.05 76.4202 94.02 76.4002 93.99L75.3502 93.67L75.3602 93.68ZM99.3302 51.21C99.3302 51.21 99.4102 51.26 99.4502 51.28C99.7002 50.91 100.11 50.61 99.9002 50.05C99.7102 50.44 99.5202 50.82 99.3302 51.21ZM90.1302 42.87C90.0202 42.88 89.9102 42.9 89.8002 42.91C89.8702 43.24 89.9402 43.57 90.0102 43.9C90.0802 43.89 90.1502 43.88 90.2202 43.87C90.1902 43.54 90.1602 43.2 90.1302 42.87ZM51.5902 34.14C52.0802 34.16 52.3702 33.81 52.5502 33.04C52.2302 33.41 51.9102 33.77 51.5902 34.14Z" fill="#595959"/>
<path d="M76.9004 70.65C76.7604 70.93 76.6204 71.21 76.4404 71.55C76.3204 71.46 76.1504 71.34 75.8904 71.16C75.8604 71.49 75.8304 71.76 75.8004 72.02C75.7404 72.01 75.6704 72 75.6104 71.99C75.6604 71.66 75.7203 71.34 75.7703 70.99C76.0503 71.05 76.2104 71.08 76.3604 71.11C76.3304 71.07 76.3003 71.02 76.2703 70.98C76.4803 70.79 76.6904 70.6 76.8904 70.4C76.8904 70.48 76.8904 70.57 76.8904 70.65H76.9004Z" fill="#595959"/>
<path d="M81.3003 86.72V85.6C81.5103 85.8 81.6303 85.91 81.7803 86.05C81.7903 86.05 81.8903 85.97 81.9903 85.9C81.9603 86.34 81.9003 86.76 81.3003 86.71V86.72Z" fill="#595959"/>
<path d="M49.3003 59.13C49.2803 59.67 49.3003 60.21 49.2403 60.75C49.1403 61.57 49.0003 62.39 48.8603 63.21C48.7103 64.07 48.5503 64.92 48.3803 65.77C48.3403 65.98 48.2403 66.19 48.0703 66.37C48.1903 65.63 48.3203 64.9 48.4403 64.16C48.6003 63.13 48.7603 62.11 48.9103 61.08C49.0003 60.44 49.0803 59.8 49.1803 59.17C49.1803 59.15 49.2703 59.15 49.3103 59.13H49.3003Z" fill="#595959"/>
<path d="M49.3003 59.13C49.3303 58.39 49.3603 57.65 49.4003 56.91C49.4103 56.65 49.4303 56.38 49.4803 56.12C49.5203 55.93 49.6203 55.76 49.6903 55.57L49.6703 55.55C50.3403 56.12 49.9903 56.95 49.7403 57.36C49.3903 57.95 49.4803 58.55 49.2803 59.11L49.3003 59.13Z" fill="#595959"/>
<path d="M59.9604 51.24C59.6704 51.23 59.4804 51.22 59.2504 51.2C59.7004 51.58 59.3004 52.43 59.9704 52.52C60.1704 53.85 60.3604 55.14 60.5504 56.43C60.4604 56.43 60.3804 56.45 60.2904 56.45C60.2704 56.24 60.2404 56.03 60.2404 55.83C60.2504 55.26 60.2704 54.7 59.7504 54.15C59.7604 54.44 59.7704 54.61 59.7804 54.78L59.7204 54.8C59.3604 53.45 59.0004 52.1 58.6304 50.72C58.9004 50.78 59.2104 50.85 59.5004 50.91V47.5C59.5004 47.5 59.5404 47.5 59.5604 47.49C59.6904 48.73 59.8304 49.97 59.9604 51.24Z" fill="#595959"/>
<path d="M57.5304 46.27C57.2704 45.5 57.3304 45.33 57.9204 45.02C58.0704 44.94 58.2404 44.91 58.3804 44.82C58.5304 44.74 58.6604 44.62 58.7904 44.52C59.1404 44.85 59.1804 45.41 58.8804 45.78C58.6604 46.05 58.4604 46.06 58.2804 45.76C58.0204 45.93 57.7804 46.09 57.5204 46.26L57.5304 46.27Z" fill="#595959"/>
<path d="M67.4301 89.52C67.2601 89.35 66.7601 89.72 66.8401 89.16C67.0301 89.06 67.2101 88.95 67.4301 88.83C67.8301 89.02 68.3101 89.24 68.7801 89.46C68.7501 89.53 68.7202 89.59 68.6902 89.66C68.5102 89.56 68.3301 89.44 68.1301 89.37C67.8801 89.28 67.5701 89.08 67.4201 89.52H67.4301Z" fill="#595959"/>
<path d="M118.12 112.6H31.6401V131.23H118.12V112.6Z" fill="#595959"/>
<path d="M50.6108 122.313C50.6265 122.43 50.6343 122.563 50.6343 122.711C50.6343 122.879 50.5894 123.393 50.4995 124.252C50.4644 124.577 50.2866 125.004 49.9663 125.536C49.6616 126.043 49.4038 126.364 49.1929 126.496C48.8452 126.715 48.5093 126.868 48.1851 126.954C48.064 126.985 47.6987 127 47.0894 127H43.9722C43.9019 127 43.8159 126.969 43.7144 126.907C43.7144 126.891 43.7085 126.854 43.6968 126.795C43.6851 126.737 43.6792 126.694 43.6792 126.666C43.9292 126.573 44.0815 126.508 44.1362 126.473C44.3081 126.36 44.4487 126.172 44.5581 125.911C44.6089 125.793 44.6421 125.493 44.6577 125.008C44.6616 124.934 44.6792 124.733 44.7104 124.405C44.7378 124.104 44.7515 123.875 44.7515 123.719C44.7515 122.84 44.7573 122.358 44.769 122.272C44.7808 122.209 44.8257 122.096 44.9038 121.932C44.8687 121.889 44.8237 121.803 44.769 121.674C44.7456 121.557 44.7339 121.389 44.7339 121.17V120.198C44.7339 120.178 44.728 120.077 44.7163 119.893C44.7046 119.725 44.7085 119.51 44.728 119.248C44.7632 118.862 44.7808 118.647 44.7808 118.604C44.7769 118.592 44.7651 118.569 44.7456 118.534C44.6948 118.276 44.6968 117.942 44.7515 117.532C44.771 117.411 44.7397 117.022 44.6577 116.366C44.6538 116.155 44.6128 115.879 44.5347 115.539C44.4331 115.368 44.2964 115.256 44.1245 115.205C43.9878 115.166 43.8491 115.125 43.7085 115.082C43.7085 114.711 43.7026 114.633 43.6909 114.848C43.6948 114.746 43.7417 114.694 43.8315 114.69C44.0229 114.674 44.3315 114.641 44.7573 114.59C45.1519 114.543 45.355 114.52 45.3667 114.52H46.2222C46.3784 114.52 46.5425 114.502 46.7144 114.467C46.8901 114.428 47.0405 114.409 47.1655 114.409C47.3062 114.409 47.478 114.426 47.6812 114.461C47.7085 114.465 47.9878 114.553 48.519 114.725C48.8003 114.815 49.0679 115.067 49.3218 115.481C49.564 115.875 49.7046 116.256 49.7437 116.623C49.7671 116.834 49.7788 117.037 49.7788 117.233C49.7788 118.233 49.4546 119.118 48.8062 119.887C48.814 119.895 48.8296 119.911 48.853 119.934C48.9976 119.926 49.1851 120.002 49.4155 120.162C49.6499 120.319 49.855 120.514 50.0308 120.748C50.3315 121.151 50.5249 121.672 50.6108 122.313ZM49.3687 117.174C49.3335 117.17 49.1772 117.168 48.8999 117.168C48.7046 117.172 48.5581 117.133 48.4604 117.051C48.3667 116.969 48.2847 116.811 48.2144 116.577C48.1558 116.389 48.0991 116.2 48.0444 116.008C47.9937 115.887 47.8882 115.75 47.728 115.598C47.5679 115.442 47.4312 115.354 47.3179 115.334C46.7983 115.237 46.4897 115.252 46.3921 115.381L46.2749 117.573C46.2749 117.604 46.2866 117.643 46.3101 117.69C46.3335 117.733 46.3452 117.758 46.3452 117.766C46.3452 117.782 46.3218 118.034 46.2749 118.522C46.2476 118.83 46.2554 119.227 46.2983 119.711C46.4663 119.786 46.5542 119.823 46.562 119.823C47.1675 119.784 47.5698 119.719 47.769 119.629C48.2339 119.418 48.4663 118.789 48.4663 117.743C48.4663 117.621 48.4624 117.504 48.4546 117.391C48.4741 117.352 48.4956 117.323 48.519 117.303C48.7456 117.291 49.0288 117.248 49.3687 117.174ZM49.0757 123.186C49.0679 123.03 49.019 122.819 48.9292 122.553C48.855 122.346 48.7788 122.137 48.7007 121.926C48.6577 121.786 48.5874 121.608 48.4897 121.393C48.1226 120.873 47.6577 120.614 47.0952 120.614C47.0093 120.614 46.8882 120.618 46.7319 120.625C46.5483 120.637 46.396 120.678 46.2749 120.748C46.2476 121.088 46.2183 121.496 46.187 121.973C46.1831 122.293 46.187 122.641 46.1987 123.016C46.2144 123.516 46.2222 123.776 46.2222 123.795C46.23 124.362 46.2944 125.045 46.4155 125.846C46.4272 125.916 46.5034 126.032 46.644 126.192C46.7222 126.18 46.8081 126.174 46.9019 126.174C46.9683 126.174 47.064 126.178 47.189 126.186C47.3179 126.198 47.4116 126.204 47.4702 126.204C47.8101 126.204 48.0874 126.08 48.3022 125.834C48.4507 125.678 48.6147 125.469 48.7944 125.207C49.0132 124.551 49.1069 123.877 49.0757 123.186ZM58.9897 120.45C58.9897 120.672 58.9839 120.842 58.9722 120.959C58.9331 121.049 58.8921 121.188 58.8491 121.375C58.8413 121.563 58.8003 121.762 58.7261 121.973C58.6636 122.051 58.5718 122.178 58.4507 122.354C58.4194 122.471 58.3335 122.639 58.1929 122.858C58.0796 122.971 57.9077 123.147 57.6772 123.385C57.6421 123.397 57.5972 123.416 57.5425 123.444C57.4917 123.491 57.4019 123.559 57.2729 123.649C56.6323 123.989 56.0229 124.182 55.4448 124.229H54.6714C54.6792 124.229 54.6636 124.217 54.6245 124.194C54.2026 124.182 53.8862 124.123 53.6753 124.018C53.6206 124.006 53.5464 123.987 53.4526 123.959C53.2964 123.897 53.062 123.786 52.7495 123.625C52.3745 123.387 52.0229 123.051 51.6948 122.618C51.5112 122.375 51.3491 122.063 51.2085 121.68C51.0757 121.325 51.0015 121.026 50.9858 120.784C50.9585 120.37 50.9741 119.963 51.0327 119.565C51.0562 119.514 51.0874 119.442 51.1265 119.348C51.1499 119.231 51.1909 119.061 51.2495 118.838C51.3354 118.702 51.4487 118.502 51.5894 118.241C51.6089 118.198 51.6187 118.147 51.6187 118.088C51.6382 118.069 51.6772 118.075 51.7358 118.106C51.7554 118.051 51.7554 117.973 51.7358 117.871C51.7866 117.856 51.8589 117.823 51.9526 117.772C51.9839 117.69 52.0581 117.59 52.1753 117.473C52.4097 117.348 52.7632 117.164 53.2358 116.922C53.3569 116.864 53.5112 116.813 53.6987 116.77C54.1753 116.661 54.4995 116.606 54.6714 116.606H55.1284C55.4839 116.606 55.7886 116.639 56.0425 116.705C56.1792 116.745 56.48 116.854 56.9448 117.034C57.0425 117.096 57.1968 117.194 57.4077 117.327C57.7124 117.522 57.9897 117.789 58.2397 118.129C58.4624 118.434 58.6069 118.715 58.6733 118.973C58.7046 119.016 58.7437 119.08 58.7905 119.166C58.8765 119.401 58.9253 119.748 58.937 120.209C58.937 120.225 58.9448 120.262 58.9604 120.321C58.98 120.375 58.9897 120.418 58.9897 120.45ZM57.689 120.602C57.6538 120.11 57.5581 119.661 57.4019 119.254C57.2026 118.731 56.9683 118.319 56.6987 118.018C56.3159 117.596 55.8979 117.348 55.4448 117.274C55.0151 117.204 54.7202 117.18 54.5601 117.204C54.2476 117.243 53.9819 117.311 53.7632 117.409C53.7358 117.42 53.5581 117.524 53.23 117.719C53.2104 117.758 53.1753 117.805 53.1245 117.86C53.0933 117.868 53.0581 117.879 53.019 117.895C52.9409 117.996 52.8433 118.133 52.7261 118.305C52.7104 118.352 52.6851 118.418 52.6499 118.504C52.5913 118.598 52.5288 118.709 52.4624 118.838C52.4272 118.983 52.3726 119.2 52.2983 119.489C52.3022 119.598 52.3003 119.764 52.2925 119.987C52.2925 119.998 52.2847 120.024 52.269 120.063C52.2534 120.102 52.2476 120.129 52.2515 120.145C52.3062 120.399 52.3843 120.75 52.4858 121.2C52.4741 121.231 52.4663 121.268 52.4624 121.311C52.4897 121.366 52.5288 121.44 52.5796 121.534C52.5835 121.584 52.5952 121.651 52.6147 121.733C52.7788 122.061 52.8647 122.229 52.8726 122.237C52.9897 122.44 53.1499 122.633 53.353 122.817C53.3569 122.821 53.3823 122.901 53.4292 123.057C53.4448 123.061 53.5112 123.073 53.6284 123.092C53.8198 123.268 53.9663 123.387 54.0679 123.45C54.3569 123.621 54.8804 123.674 55.6382 123.608C55.7007 123.588 55.7827 123.563 55.8843 123.532C56.0132 123.504 56.1987 123.44 56.4409 123.338C56.4956 123.287 56.5679 123.227 56.6577 123.157C57.0483 122.914 57.2808 122.616 57.355 122.26C57.394 122.213 57.4409 122.147 57.4956 122.061C57.5034 121.987 57.5151 121.899 57.5308 121.797C57.5542 121.774 57.5776 121.737 57.6011 121.686C57.6089 121.596 57.6284 121.401 57.6597 121.1C57.687 120.858 57.6968 120.692 57.689 120.602ZM66.2554 123.977C66.2241 124.02 66.1733 124.073 66.103 124.135C65.9272 124.233 65.8003 124.282 65.7222 124.282H65.019C64.7808 124.282 64.603 124.272 64.4858 124.252C64.3999 124.221 64.269 124.176 64.0933 124.118C63.9448 124.071 63.6851 123.836 63.314 123.414C63.2827 123.379 63.1304 123.127 62.8569 122.659C62.6108 122.233 62.4175 121.875 62.2769 121.586C62.2417 121.477 62.1792 121.336 62.0894 121.164C62.0503 121.121 61.9526 121.106 61.7964 121.118C61.6987 121.129 61.5991 121.141 61.4976 121.153C61.3687 121.145 61.1772 121.143 60.9233 121.147C60.896 121.147 60.8628 121.17 60.8237 121.217C60.8394 121.37 60.8589 121.848 60.8823 122.653C60.8862 122.809 60.9175 123.014 60.9761 123.268C60.9761 123.338 60.9956 123.442 61.0347 123.579C61.1167 123.719 61.2495 123.821 61.4331 123.883C61.5815 123.926 61.73 123.969 61.8784 124.012C61.8823 124.055 61.8784 124.106 61.8667 124.164C61.7534 124.211 61.6382 124.235 61.521 124.235H60.9058C60.8979 124.235 60.8452 124.225 60.7476 124.205C60.6499 124.186 60.5796 124.176 60.5366 124.176C60.4155 124.176 60.2261 124.186 59.9683 124.205C59.7144 124.225 59.5874 124.235 59.5874 124.235H58.9956C58.937 124.235 58.8667 124.217 58.7847 124.182C58.7847 124.17 58.7788 124.147 58.7671 124.112C58.7593 124.077 58.7554 124.051 58.7554 124.036C58.9585 123.981 59.0835 123.942 59.1304 123.918C59.2749 123.852 59.3921 123.739 59.4819 123.579C59.521 123.508 59.5483 123.329 59.564 123.039C59.564 122.993 59.5776 122.871 59.605 122.676C59.6284 122.496 59.6401 122.36 59.6401 122.266C59.6401 121.735 59.644 121.448 59.6519 121.405C59.6636 121.362 59.7007 121.291 59.7632 121.194C59.7358 121.166 59.7007 121.114 59.6577 121.036C59.6382 120.965 59.6284 120.866 59.6284 120.737V120.145C59.6284 120.141 59.6226 120.08 59.6108 119.963C59.6147 120.01 59.6323 119.752 59.6636 119.19C59.6597 119.182 59.6499 119.168 59.6343 119.149C59.5913 118.996 59.5933 118.795 59.6401 118.545C59.6558 118.475 59.6304 118.241 59.564 117.842C59.5601 117.717 59.5249 117.553 59.4585 117.35C59.3726 117.245 59.2612 117.178 59.1245 117.151C59.0073 117.123 58.8921 117.098 58.7788 117.075C58.7788 116.852 58.7729 116.805 58.7612 116.934C58.769 116.871 58.8081 116.838 58.8784 116.834C59.0386 116.827 59.2944 116.809 59.646 116.782C59.9702 116.75 60.1362 116.735 60.144 116.735H60.8999C61.0405 116.735 61.1851 116.723 61.3335 116.7C61.4819 116.676 61.6089 116.664 61.7144 116.664C61.8472 116.664 62.0132 116.676 62.2124 116.7C62.3374 116.727 62.521 116.766 62.7632 116.817C62.7866 116.832 62.8257 116.85 62.8804 116.87C63.2554 116.928 63.5874 117.106 63.8765 117.403C64.0366 117.571 64.1792 117.868 64.3042 118.293C64.3081 118.356 64.314 118.448 64.3218 118.569C64.3296 118.666 64.3218 118.813 64.2983 119.008C64.2476 119.422 64.1499 119.735 64.0054 119.946C63.8726 120.141 63.6167 120.414 63.2378 120.766C63.2339 120.848 63.2495 120.92 63.2847 120.983C63.5308 121.455 63.7769 121.928 64.0229 122.401C64.3159 122.912 64.6714 123.348 65.0894 123.707C65.1245 123.739 65.269 123.789 65.5229 123.86C65.6753 123.899 65.8042 123.909 65.9097 123.889C66.0659 123.858 66.1772 123.846 66.2437 123.854C66.2515 123.881 66.2554 123.922 66.2554 123.977ZM63.0444 118.961C63.0444 118.832 63.0347 118.746 63.0151 118.704C62.8198 118.184 62.6538 117.852 62.5171 117.707C62.3296 117.504 62.1206 117.375 61.8901 117.321C61.7378 117.286 61.4917 117.276 61.1519 117.291C61.1167 117.295 61.062 117.317 60.9878 117.356C60.9253 118.028 60.8862 118.571 60.8706 118.985C60.8901 119.016 60.9097 119.061 60.9292 119.12C60.9292 119.174 60.9116 119.397 60.8765 119.787C60.853 120.045 60.8589 120.303 60.894 120.561C60.9058 120.573 60.9214 120.59 60.9409 120.614H61.521C61.5874 120.629 61.6577 120.637 61.7319 120.637C61.9624 120.637 62.1831 120.565 62.394 120.42C62.6089 120.272 62.7397 120.151 62.7866 120.057C62.9585 119.737 63.0444 119.371 63.0444 118.961ZM72.9468 120.45C72.9468 120.672 72.9409 120.842 72.9292 120.959C72.8901 121.049 72.8491 121.188 72.8062 121.375C72.7983 121.563 72.7573 121.762 72.6831 121.973C72.6206 122.051 72.5288 122.178 72.4077 122.354C72.3765 122.471 72.2905 122.639 72.1499 122.858C72.0366 122.971 71.8647 123.147 71.6343 123.385C71.5991 123.397 71.5542 123.416 71.4995 123.444C71.4487 123.491 71.3589 123.559 71.23 123.649C70.5894 123.989 69.98 124.182 69.4019 124.229H68.6284C68.6362 124.229 68.6206 124.217 68.5815 124.194C68.1597 124.182 67.8433 124.123 67.6323 124.018C67.5776 124.006 67.5034 123.987 67.4097 123.959C67.2534 123.897 67.019 123.786 66.7065 123.625C66.3315 123.387 65.98 123.051 65.6519 122.618C65.4683 122.375 65.3062 122.063 65.1655 121.68C65.0327 121.325 64.9585 121.026 64.9429 120.784C64.9155 120.37 64.9312 119.963 64.9897 119.565C65.0132 119.514 65.0444 119.442 65.0835 119.348C65.1069 119.231 65.1479 119.061 65.2065 118.838C65.2925 118.702 65.4058 118.502 65.5464 118.241C65.5659 118.198 65.5757 118.147 65.5757 118.088C65.5952 118.069 65.6343 118.075 65.6929 118.106C65.7124 118.051 65.7124 117.973 65.6929 117.871C65.7437 117.856 65.8159 117.823 65.9097 117.772C65.9409 117.69 66.0151 117.59 66.1323 117.473C66.3667 117.348 66.7202 117.164 67.1929 116.922C67.314 116.864 67.4683 116.813 67.6558 116.77C68.1323 116.661 68.4565 116.606 68.6284 116.606H69.0854C69.4409 116.606 69.7456 116.639 69.9995 116.705C70.1362 116.745 70.437 116.854 70.9019 117.034C70.9995 117.096 71.1538 117.194 71.3647 117.327C71.6694 117.522 71.9468 117.789 72.1968 118.129C72.4194 118.434 72.564 118.715 72.6304 118.973C72.6616 119.016 72.7007 119.08 72.7476 119.166C72.8335 119.401 72.8823 119.748 72.894 120.209C72.894 120.225 72.9019 120.262 72.9175 120.321C72.937 120.375 72.9468 120.418 72.9468 120.45ZM71.646 120.602C71.6108 120.11 71.5151 119.661 71.3589 119.254C71.1597 118.731 70.9253 118.319 70.6558 118.018C70.2729 117.596 69.855 117.348 69.4019 117.274C68.9722 117.204 68.6772 117.18 68.5171 117.204C68.2046 117.243 67.939 117.311 67.7202 117.409C67.6929 117.42 67.5151 117.524 67.187 117.719C67.1675 117.758 67.1323 117.805 67.0815 117.86C67.0503 117.868 67.0151 117.879 66.9761 117.895C66.8979 117.996 66.8003 118.133 66.6831 118.305C66.6675 118.352 66.6421 118.418 66.6069 118.504C66.5483 118.598 66.4858 118.709 66.4194 118.838C66.3843 118.983 66.3296 119.2 66.2554 119.489C66.2593 119.598 66.2573 119.764 66.2495 119.987C66.2495 119.998 66.2417 120.024 66.2261 120.063C66.2104 120.102 66.2046 120.129 66.2085 120.145C66.2632 120.399 66.3413 120.75 66.4429 121.2C66.4312 121.231 66.4233 121.268 66.4194 121.311C66.4468 121.366 66.4858 121.44 66.5366 121.534C66.5405 121.584 66.5522 121.651 66.5718 121.733C66.7358 122.061 66.8218 122.229 66.8296 122.237C66.9468 122.44 67.1069 122.633 67.3101 122.817C67.314 122.821 67.3394 122.901 67.3862 123.057C67.4019 123.061 67.4683 123.073 67.5854 123.092C67.7769 123.268 67.9233 123.387 68.0249 123.45C68.314 123.621 68.8374 123.674 69.5952 123.608C69.6577 123.588 69.7397 123.563 69.8413 123.532C69.9702 123.504 70.1558 123.44 70.3979 123.338C70.4526 123.287 70.5249 123.227 70.6147 123.157C71.0054 122.914 71.2378 122.616 71.312 122.26C71.3511 122.213 71.3979 122.147 71.4526 122.061C71.4604 121.987 71.4722 121.899 71.4878 121.797C71.5112 121.774 71.5347 121.737 71.5581 121.686C71.5659 121.596 71.5854 121.401 71.6167 121.1C71.644 120.858 71.6538 120.692 71.646 120.602ZM82.0874 123.895C82.103 123.922 82.1108 123.95 82.1108 123.977C82.1108 124.11 82.0308 124.176 81.8706 124.176C81.8394 124.176 81.8081 124.17 81.7769 124.159C81.6831 124.116 81.5757 124.09 81.4546 124.082C81.3687 124.075 81.2573 124.075 81.1206 124.082C80.9526 124.086 80.8433 124.088 80.7925 124.088C80.2417 124.077 79.9194 124.08 79.8257 124.1C79.7358 124.116 79.5913 124.133 79.3921 124.153C79.2163 124.168 79.1069 124.133 79.064 124.047C79.0522 124.02 79.0581 123.983 79.0815 123.936C79.105 123.885 79.1362 123.856 79.1753 123.848C79.187 123.844 79.3374 123.829 79.6265 123.801C79.8491 123.778 79.9858 123.59 80.0366 123.239C80.0444 123.004 80.0562 122.651 80.0718 122.178C80.0718 122.151 80.064 122.106 80.0483 122.043C80.0366 121.981 80.0308 121.936 80.0308 121.909C80.0386 121.588 80.0132 121.133 79.9546 120.543V120.08C79.9546 120.073 79.937 120.002 79.9019 119.87C79.8706 119.733 79.853 119.635 79.8491 119.577C79.8296 119.315 79.8237 119.135 79.8315 119.037C79.8315 119.034 79.8413 118.995 79.8608 118.92C79.8843 118.846 79.896 118.784 79.896 118.733C79.896 118.651 79.8706 118.588 79.8198 118.545C79.7261 118.612 79.6558 118.735 79.6089 118.914C79.5737 118.969 79.5308 119.047 79.48 119.149C79.4644 119.223 79.4351 119.33 79.3921 119.471C79.3726 119.498 79.3413 119.547 79.2983 119.618C79.2905 119.661 79.2749 119.719 79.2515 119.793C79.1812 119.938 79.0776 120.149 78.9409 120.426C78.9331 120.481 78.9175 120.563 78.894 120.672C78.8589 120.719 78.8198 120.78 78.7769 120.854C78.769 120.912 78.7476 120.991 78.7124 121.088C78.6421 121.209 78.5444 121.395 78.4194 121.645C78.4077 121.723 78.3804 121.836 78.3374 121.985C78.3179 122.008 78.2905 122.043 78.2554 122.09C78.2515 122.102 78.2241 122.186 78.1733 122.342C78.1421 122.393 78.105 122.465 78.062 122.559C78.0503 122.614 78.0269 122.698 77.9917 122.811C77.9604 122.85 77.9233 122.914 77.8804 123.004C77.8804 123.008 77.7612 123.286 77.5229 123.836C77.519 123.911 77.478 124.012 77.3999 124.141C77.396 124.141 77.3081 124.151 77.1362 124.17C77.0308 124.182 76.9487 124.159 76.8901 124.1C76.8315 124.037 76.7397 123.866 76.6147 123.584C76.5522 123.463 76.4663 123.284 76.3569 123.045C76.3179 122.92 76.2593 122.752 76.1812 122.541C76.1694 122.514 75.9585 122.102 75.5483 121.305C75.5366 121.254 75.5151 121.182 75.4839 121.088C75.2925 120.721 75.0151 120.141 74.6519 119.348C74.6167 119.192 74.5464 118.963 74.4409 118.662C74.3394 118.455 74.2319 118.352 74.1187 118.352C74.0874 118.379 74.0718 118.483 74.0718 118.662C74.0874 118.709 74.103 118.78 74.1187 118.873C74.1226 118.924 74.1206 118.996 74.1128 119.09C74.1089 119.204 74.1069 119.256 74.1069 119.248V119.811L73.9604 122.02V122.506C73.9604 122.471 73.9565 122.512 73.9487 122.629C73.9448 122.746 73.9429 122.938 73.9429 123.204C73.9468 123.274 73.9663 123.368 74.0015 123.485C74.0991 123.645 74.1929 123.752 74.2827 123.807C74.3608 123.823 74.48 123.862 74.6401 123.924C74.6987 123.955 74.7163 124.01 74.6929 124.088C74.6147 124.178 74.3921 124.2 74.0249 124.153H73.4917C73.3862 124.153 73.3062 124.157 73.2515 124.164C72.9937 124.192 72.73 124.204 72.4604 124.2C72.4253 124.176 72.4019 124.135 72.3901 124.077C72.3784 124.01 72.396 123.965 72.4429 123.942C72.4624 123.93 72.5522 123.914 72.7124 123.895C72.7476 123.875 72.7944 123.848 72.853 123.813C73.0405 123.723 73.1675 123.549 73.2339 123.291C73.2495 123.229 73.2729 123.026 73.3042 122.682C73.3237 122.631 73.3491 122.559 73.3804 122.465C73.4077 122.325 73.4214 122.229 73.4214 122.178V121.733C73.4214 121.717 73.4253 121.694 73.4331 121.662C73.4448 121.631 73.4507 121.612 73.4507 121.604C73.4468 121.366 73.478 121.018 73.5444 120.561C73.5522 120.53 73.562 120.399 73.5737 120.168C73.5894 119.77 73.5933 119.5 73.5854 119.36C73.5854 119.344 73.5913 119.311 73.603 119.26C73.6147 119.205 73.6206 119.172 73.6206 119.161V118.34C73.6206 118.325 73.6401 118.268 73.6792 118.17C73.7222 118.069 73.7495 117.998 73.7612 117.959C73.7769 117.889 73.7769 117.805 73.7612 117.707C73.73 117.649 73.6851 117.561 73.6265 117.444C73.6226 117.362 73.5737 117.258 73.48 117.133C73.4292 117.125 73.355 117.114 73.2573 117.098C73.1597 117.082 73.0288 117.059 72.8647 117.028C72.7046 116.996 72.6187 116.979 72.6069 116.975C72.4976 116.944 72.4409 116.893 72.437 116.823C72.5308 116.741 72.689 116.713 72.9116 116.741C73.0757 116.764 73.2983 116.795 73.5796 116.834C73.6147 116.838 73.6714 116.834 73.7495 116.823C73.8472 116.803 73.9155 116.793 73.9546 116.793C73.9741 116.789 74.1968 116.801 74.6226 116.829C74.7397 116.832 74.8335 116.952 74.9038 117.186C74.9351 117.237 74.9858 117.332 75.0562 117.473C75.0757 117.547 75.1089 117.655 75.1558 117.795C75.2222 117.854 75.3022 117.95 75.396 118.082C75.3999 118.157 75.4097 118.264 75.4253 118.405C75.4565 118.448 75.4937 118.508 75.5366 118.586C75.8491 119.293 76.144 119.987 76.4214 120.666C76.4878 120.83 76.5562 121.024 76.6265 121.246C76.7007 121.465 76.8081 121.709 76.9487 121.979C77.0073 122.041 77.0815 122.137 77.1714 122.266C77.1831 122.282 77.2007 122.362 77.2241 122.506C77.2437 122.596 77.2866 122.647 77.353 122.659C77.3999 122.651 77.437 122.621 77.4644 122.571C77.5854 122.34 77.7241 121.996 77.8804 121.539C78.0366 121.082 78.189 120.713 78.3374 120.432C78.353 120.373 78.3804 120.284 78.4194 120.162C78.4507 120.092 78.4995 119.985 78.5659 119.84C78.5698 119.825 78.5894 119.797 78.6245 119.758C78.6636 119.715 78.687 119.684 78.6948 119.664C78.7065 119.582 78.7339 119.467 78.7769 119.319C78.7769 119.319 78.8315 119.194 78.9409 118.944C78.9995 118.862 79.0972 118.723 79.2339 118.528C79.2456 118.516 79.2671 118.422 79.2983 118.246C79.3022 118.227 79.4194 117.938 79.6499 117.379C79.6538 117.309 79.6753 117.202 79.7144 117.057C79.8198 116.819 80.0542 116.731 80.4175 116.793C80.4604 116.817 80.5269 116.842 80.6167 116.87C80.9019 116.897 81.1089 116.895 81.2378 116.864C81.3159 116.864 81.4253 116.856 81.5659 116.84C81.5972 116.821 81.6499 116.795 81.7241 116.764C81.7983 116.729 81.8784 116.725 81.9644 116.752C82.0073 116.768 82.0308 116.799 82.0347 116.846C82.0464 116.967 81.9858 117.041 81.853 117.069C81.7397 117.084 81.6265 117.1 81.5132 117.116C81.4819 117.139 81.4272 117.176 81.3491 117.227C81.2749 117.278 81.1714 117.368 81.0386 117.496C81.0347 117.504 81.0015 117.647 80.939 117.924C80.8882 118.151 80.894 118.491 80.9565 118.944C80.9839 119.155 81.0015 119.348 81.0093 119.524C81.0093 119.711 81.0151 119.998 81.0269 120.385C81.0269 120.373 81.019 120.588 81.0034 121.03C80.9956 121.276 81.0132 121.52 81.0562 121.762C81.0991 121.918 81.144 122.153 81.1909 122.465C81.2144 122.879 81.2339 123.121 81.2495 123.192C81.2925 123.407 81.3999 123.586 81.5718 123.731C81.6226 123.774 81.689 123.793 81.771 123.789C81.8726 123.782 81.937 123.782 81.9644 123.789C82.0112 123.805 82.0522 123.84 82.0874 123.895ZM85.1812 117.409C85.1655 117.467 85.1401 117.549 85.105 117.655C85.105 117.655 84.9878 117.68 84.7534 117.731C84.605 117.766 84.5112 117.832 84.4722 117.93C84.4409 117.977 84.4019 118.043 84.355 118.129C84.3472 118.157 84.2964 118.383 84.2026 118.809L84.1792 121.27C84.1519 121.371 84.1382 121.426 84.1382 121.434C84.1382 121.434 84.1519 121.475 84.1792 121.557L84.1675 122.465C84.1401 122.59 84.1401 122.762 84.1675 122.981C84.1948 123.235 84.2495 123.442 84.3315 123.602C84.3589 123.657 84.4272 123.717 84.5366 123.784C84.7397 123.901 84.9429 123.957 85.146 123.954C85.1421 124.004 85.1206 124.079 85.0815 124.176H84.4019C84.3901 124.176 84.3218 124.172 84.1968 124.164C84.0757 124.157 84.0112 124.153 84.0034 124.153C83.9917 124.153 83.939 124.157 83.8452 124.164C83.7515 124.172 83.7007 124.176 83.6929 124.176C83.6851 124.176 83.6479 124.172 83.5815 124.164C83.519 124.157 83.4819 124.153 83.4702 124.153C83.4585 124.153 83.4312 124.157 83.3882 124.164C83.3491 124.172 83.3237 124.176 83.312 124.176L82.0874 124.205C81.9819 124.205 81.9292 124.166 81.9292 124.088C81.9292 123.998 81.9565 123.946 82.0112 123.93C82.1362 123.907 82.2612 123.885 82.3862 123.866C82.5308 123.834 82.6245 123.782 82.6675 123.707C82.6831 123.661 82.7065 123.588 82.7378 123.491C82.7925 123.495 82.8765 123.506 82.9897 123.526C83.0288 123.366 83.0483 123.262 83.0483 123.215C83.0483 123.172 83.0288 123.114 82.9897 123.039C83.021 122.961 83.0269 122.895 83.0073 122.84C82.9917 122.801 82.9546 122.735 82.896 122.641C82.8452 122.559 82.8198 122.512 82.8198 122.5C82.8198 122.528 82.853 122.411 82.9194 122.149C82.9272 122.118 82.9155 122.073 82.8843 122.014C82.9507 121.905 82.9839 121.83 82.9839 121.791C82.9839 121.784 82.9741 121.657 82.9546 121.411C82.9546 121.391 82.9409 121.354 82.9136 121.299C82.8862 121.245 82.8726 121.211 82.8726 121.2C82.8726 121.184 82.8882 121.157 82.9194 121.118C82.9116 121.133 82.9077 121.112 82.9077 121.053V120.344C82.9077 120.332 82.9155 120.297 82.9312 120.239C82.9507 120.18 82.9604 120.145 82.9604 120.133C82.9604 120.125 82.9546 120.112 82.9429 120.092C82.9312 120.069 82.9253 120.051 82.9253 120.039C82.9253 120.055 82.9312 119.967 82.9429 119.776C82.9429 119.737 82.939 119.672 82.9312 119.582C82.9233 119.493 82.9194 119.448 82.9194 119.448V118.985C82.9194 118.942 82.8921 118.879 82.8374 118.797C82.853 118.754 82.8413 118.674 82.8022 118.557C82.7983 118.502 82.7827 118.42 82.7554 118.311C82.7241 118.276 82.6851 118.225 82.6382 118.159C82.6226 118.12 82.5952 118.061 82.5562 117.983C82.478 117.862 82.4038 117.784 82.3335 117.748C82.2437 117.725 82.1089 117.682 81.9292 117.62C81.9409 117.565 81.9624 117.495 81.9937 117.409H82.0464C82.0581 117.409 82.0933 117.412 82.1519 117.42C82.2144 117.428 82.2515 117.432 82.2632 117.432L85.1812 117.409ZM93.2319 123.977C93.2007 124.02 93.1499 124.073 93.0796 124.135C92.9038 124.233 92.7769 124.282 92.6987 124.282H91.9956C91.7573 124.282 91.5796 124.272 91.4624 124.252C91.3765 124.221 91.2456 124.176 91.0698 124.118C90.9214 124.071 90.6616 123.836 90.2905 123.414C90.2593 123.379 90.1069 123.127 89.8335 122.659C89.5874 122.233 89.394 121.875 89.2534 121.586C89.2183 121.477 89.1558 121.336 89.0659 121.164C89.0269 121.121 88.9292 121.106 88.7729 121.118C88.6753 121.129 88.5757 121.141 88.4741 121.153C88.3452 121.145 88.1538 121.143 87.8999 121.147C87.8726 121.147 87.8394 121.17 87.8003 121.217C87.8159 121.37 87.8354 121.848 87.8589 122.653C87.8628 122.809 87.894 123.014 87.9526 123.268C87.9526 123.338 87.9722 123.442 88.0112 123.579C88.0933 123.719 88.2261 123.821 88.4097 123.883C88.5581 123.926 88.7065 123.969 88.855 124.012C88.8589 124.055 88.855 124.106 88.8433 124.164C88.73 124.211 88.6147 124.235 88.4976 124.235H87.8823C87.8745 124.235 87.8218 124.225 87.7241 124.205C87.6265 124.186 87.5562 124.176 87.5132 124.176C87.3921 124.176 87.2026 124.186 86.9448 124.205C86.6909 124.225 86.564 124.235 86.564 124.235H85.9722C85.9136 124.235 85.8433 124.217 85.7612 124.182C85.7612 124.17 85.7554 124.147 85.7437 124.112C85.7358 124.077 85.7319 124.051 85.7319 124.036C85.9351 123.981 86.0601 123.942 86.1069 123.918C86.2515 123.852 86.3687 123.739 86.4585 123.579C86.4976 123.508 86.5249 123.329 86.5405 123.039C86.5405 122.993 86.5542 122.871 86.5815 122.676C86.605 122.496 86.6167 122.36 86.6167 122.266C86.6167 121.735 86.6206 121.448 86.6284 121.405C86.6401 121.362 86.6772 121.291 86.7397 121.194C86.7124 121.166 86.6772 121.114 86.6343 121.036C86.6147 120.965 86.605 120.866 86.605 120.737V120.145C86.605 120.141 86.5991 120.08 86.5874 119.963C86.5913 120.01 86.6089 119.752 86.6401 119.19C86.6362 119.182 86.6265 119.168 86.6108 119.149C86.5679 118.996 86.5698 118.795 86.6167 118.545C86.6323 118.475 86.6069 118.241 86.5405 117.842C86.5366 117.717 86.5015 117.553 86.4351 117.35C86.3491 117.245 86.2378 117.178 86.1011 117.151C85.9839 117.123 85.8687 117.098 85.7554 117.075C85.7554 116.852 85.7495 116.805 85.7378 116.934C85.7456 116.871 85.7847 116.838 85.855 116.834C86.0151 116.827 86.271 116.809 86.6226 116.782C86.9468 116.75 87.1128 116.735 87.1206 116.735H87.8765C88.0171 116.735 88.1616 116.723 88.3101 116.7C88.4585 116.676 88.5854 116.664 88.6909 116.664C88.8237 116.664 88.9897 116.676 89.189 116.7C89.314 116.727 89.4976 116.766 89.7397 116.817C89.7632 116.832 89.8022 116.85 89.8569 116.87C90.2319 116.928 90.564 117.106 90.853 117.403C91.0132 117.571 91.1558 117.868 91.2808 118.293C91.2847 118.356 91.2905 118.448 91.2983 118.569C91.3062 118.666 91.2983 118.813 91.2749 119.008C91.2241 119.422 91.1265 119.735 90.9819 119.946C90.8491 120.141 90.5933 120.414 90.2144 120.766C90.2104 120.848 90.2261 120.92 90.2612 120.983C90.5073 121.455 90.7534 121.928 90.9995 122.401C91.2925 122.912 91.6479 123.348 92.0659 123.707C92.1011 123.739 92.2456 123.789 92.4995 123.86C92.6519 123.899 92.7808 123.909 92.8862 123.889C93.0425 123.858 93.1538 123.846 93.2202 123.854C93.228 123.881 93.2319 123.922 93.2319 123.977ZM90.021 118.961C90.021 118.832 90.0112 118.746 89.9917 118.704C89.7964 118.184 89.6304 117.852 89.4937 117.707C89.3062 117.504 89.0972 117.375 88.8667 117.321C88.7144 117.286 88.4683 117.276 88.1284 117.291C88.0933 117.295 88.0386 117.317 87.9644 117.356C87.9019 118.028 87.8628 118.571 87.8472 118.985C87.8667 119.016 87.8862 119.061 87.9058 119.12C87.9058 119.174 87.8882 119.397 87.853 119.787C87.8296 120.045 87.8354 120.303 87.8706 120.561C87.8823 120.573 87.8979 120.59 87.9175 120.614H88.4976C88.564 120.629 88.6343 120.637 88.7085 120.637C88.939 120.637 89.1597 120.565 89.3706 120.42C89.5854 120.272 89.7163 120.151 89.7632 120.057C89.9351 119.737 90.021 119.371 90.021 118.961Z" fill="#D9D9D9"/>
</g>
<defs>
<clipPath id="clip0_71_1702">
<rect width="149.76" height="149.76" fill="white"/>
</clipPath>
</defs>
</svg>
