<svg width="150" height="150" viewBox="0 0 150 150" fill="none" xmlns="http://www.w3.org/2000/svg">
<g clip-path="url(#clip0_71_1701)">
<path d="M133.76 0H16C7.16344 0 0 7.16344 0 16V133.76C0 142.597 7.16344 149.76 16 149.76H133.76C142.597 149.76 149.76 142.597 149.76 133.76V16C149.76 7.16344 142.597 0 133.76 0Z" fill="#F0433A"/>
<path d="M138.81 74.96C138.81 94.9 138.81 114.84 138.81 134.78C138.81 137.07 137.09 138.81 134.82 138.81C94.91 138.81 54.99 138.81 15.08 138.81C12.73 138.81 10.96 137.03 10.96 134.66C10.96 94.81 10.96 54.97 10.96 15.12C10.96 12.79 12.79 10.95 15.1 10.95C54.98 10.95 94.86 10.95 134.74 10.95C137.04 10.95 138.81 12.73 138.81 15.04C138.81 35.01 138.81 54.99 138.81 74.96ZM74.92 12.2C61.39 12.2 47.85 12.2 34.32 12.2C28.24 12.2 22.17 12.2 16.09 12.2C14.24 12.2 12.73 13.33 12.32 15.05C12.18 15.61 12.21 16.22 12.21 16.81C12.21 51.43 12.21 86.05 12.21 120.67C12.21 125.04 12.2 129.41 12.21 133.78C12.21 135.68 13.37 137.09 15.22 137.51C15.69 137.62 16.19 137.66 16.68 137.66C55.51 137.66 94.33 137.66 133.16 137.66C136.13 137.66 137.68 136.09 137.68 133.08C137.68 94.29 137.68 55.49 137.68 16.7C137.68 13.64 136.23 12.18 133.16 12.18C113.75 12.18 94.33 12.18 74.92 12.18V12.2Z" fill="#2E112D"/>
<path d="M74.95 13.5C93.51 13.5 112.07 13.54 130.62 13.46C133.82 13.45 136.38 15.55 136.38 19.19C136.34 56.34 136.36 93.49 136.36 130.64C136.36 134.28 134.33 136.33 130.7 136.33C93.48 136.33 56.27 136.33 19.05 136.33C15.52 136.33 13.5 134.29 13.5 130.77C13.5 93.52 13.5 56.27 13.5 19.03C13.5 15.55 15.52 13.51 18.98 13.51C37.64 13.51 56.29 13.51 74.95 13.51V13.5ZM14.19 74.9C14.19 93.52 14.23 112.15 14.15 130.77C14.14 133.71 16.23 135.71 19.12 135.7C56.34 135.66 93.55 135.68 130.77 135.68C133.92 135.68 135.71 133.89 135.71 130.73C135.71 93.51 135.7 56.3 135.73 19.08C135.73 16.31 133.86 14.13 130.77 14.13C93.52 14.19 56.27 14.18 19.03 14.13C16.28 14.13 14.14 16.11 14.15 19.02C14.23 37.64 14.19 56.27 14.19 74.89V74.9Z" fill="#2E112D"/>
<path d="M20.1898 131.5C19.7498 131.93 19.1798 132.49 18.4898 133.17C17.9398 132.53 17.4298 131.92 16.7998 131.18C17.3298 130.77 17.9698 130.29 18.6198 129.79C18.9998 130.2 19.5598 130.82 20.1798 131.5H20.1898Z" fill="#2E112D"/>
<path d="M18.7301 16.84C19.1901 17.28 19.7601 17.82 20.4301 18.46C19.7601 19.04 19.1501 19.57 18.4101 20.21C17.9801 19.68 17.4701 19.05 16.8701 18.3C17.3801 17.9 18.0401 17.39 18.7401 16.84H18.7301Z" fill="#2E112D"/>
<path d="M133.35 18.53C132.77 19.08 132.19 19.63 131.56 20.22C131.03 19.62 130.5 19.02 129.89 18.34C130.37 17.96 130.97 17.48 131.63 16.96C131.97 17.4 132.48 18.07 132.99 18.73C133.11 18.67 133.23 18.6 133.35 18.54V18.53Z" fill="#2E112D"/>
<path d="M129.95 131.21C130.41 130.71 130.96 130.13 131.57 129.48C132.21 130.13 132.77 130.69 133.42 131.35C132.79 131.94 132.21 132.49 131.59 133.06C131.06 132.46 130.53 131.86 129.95 131.21Z" fill="#2E112D"/>
<path d="M32.11 97.52C32.11 97.25 32.11 96.97 32.11 96.7C33.31 97.25 34.54 97.75 35.71 98.37C36.76 98.93 37.76 99.41 39.01 99.5C40.36 99.6 41.61 99.33 42.88 99.03C43.83 98.81 44.77 98.56 45.72 98.36C45.81 98.34 45.95 98.62 46.07 98.75C45.9 98.8 45.62 98.81 45.59 98.9C45.35 99.58 45.11 100.27 44.98 100.98C44.84 101.72 44.4 102.23 43.88 102.69C43.68 102.87 43.42 102.98 43.07 103.2C43.56 103.67 43.97 104.05 44.37 104.43C44.45 104.38 44.52 104.33 44.6 104.29C44.52 103.99 44.44 103.68 44.35 103.38C44.26 103.06 43.97 102.71 44.4 102.52C44.73 102.95 44.96 103.48 45.37 103.77C46.03 104.23 46.4 103.7 46.63 103.07C47.58 103.92 48.43 103.21 49.33 103.05C49.33 103.17 49.35 103.28 49.33 103.39C49.18 104.03 48.99 104.66 48.88 105.31C48.84 105.53 48.93 105.94 49.07 106.01C49.88 106.39 50.31 107.79 51.58 106.97C51.63 106.93 51.78 107.07 51.88 107.07C52.41 107.1 53 106.63 52.87 106.24C52.53 105.26 52.52 104.08 51.36 103.56C51.3 103.53 51.26 103.46 51.21 103.42C50 102.35 48.95 101.13 47.51 100.31C46.92 99.97 46.06 99.68 46.04 98.72C46.85 99.14 47.67 99.57 48.45 99.98C48.12 99.42 47.75 98.78 47.38 98.15L47.59 97.97C48.92 99.14 50.3 100.26 51.57 101.49C52.32 102.22 53.24 102.61 54.11 103.11C54.29 103.22 54.54 103.23 54.76 103.25C55.23 103.29 55.49 103.1 55.49 102.6C55.5 101.74 55.11 101.06 54.61 100.41C54.28 99.97 53.88 99.58 53.57 99.13C52.64 97.74 51.92 96.21 50.65 95.06C50.01 94.48 49.46 93.79 48.73 93C49.06 93.09 49.32 93.08 49.43 93.2C51.09 95 52.74 96.82 54.39 98.63C55.29 99.61 55.9 100.92 57.25 101.4C58.65 101.9 60.08 102.31 61.51 102.7C61.85 102.79 62.39 102.78 62.6 102.57C62.96 102.23 63.17 101.72 62.88 101.16C62.36 100.16 61.89 99.15 61.35 98.16C60.89 97.32 60.38 96.5 59.89 95.67C59.94 95.63 59.99 95.59 60.04 95.55C60.37 95.99 60.71 96.42 61.03 96.87C61.78 97.94 62.61 98.97 63.23 100.11C63.64 100.87 63.98 100.38 64.34 100.25C64.54 100.17 64.69 99.93 64.86 99.77C64.81 99.72 64.77 99.66 64.72 99.61C64.9 99.6 65.08 99.58 65.3 99.56C65.22 99.03 66.01 98.88 65.83 98.25C65.81 98.17 66.45 97.9 66.79 97.73C66.81 97.73 66.87 97.8 66.91 97.84C66.75 96.84 66.55 95.88 66.21 94.97C65.55 93.2 64.76 91.48 64.11 89.7C63.85 88.99 63.79 88.19 63.7 87.43C63.69 87.31 64.08 87.03 64.09 87.04C64.38 87.29 64.73 87.53 64.88 87.86C65.1 88.33 65.13 88.88 65.33 89.36C65.75 90.36 66.25 91.32 66.68 92.32C67.17 93.48 67.56 94.68 68.08 95.82C68.58 96.92 69.06 98 69.16 99.23C69.18 99.44 69.43 99.62 69.58 99.82C69.68 99.46 69.68 99.16 69.6 98.89C69.38 98.11 69.03 97.35 68.89 96.55C68.52 94.55 67.45 92.85 66.67 91.02C66.07 89.59 65.54 88.13 64.99 86.68C65.05 86.63 65.12 86.59 65.18 86.54C65.44 86.75 65.76 86.91 65.95 87.17C66.7 88.24 67.4 89.35 68.14 90.43C68.29 90.65 68.53 90.82 68.73 91.01C68.78 90.96 68.83 90.91 68.87 90.86C68.86 90.77 68.87 90.67 68.82 90.6C67.94 89.34 67.02 88.11 66.18 86.83C65.25 85.43 64.03 84.09 64.83 82.17C65.53 82.19 65.76 82.72 65.99 83.49C66.32 83.14 66.75 82.88 66.76 82.61C66.77 82.35 66.35 82.07 66.11 81.8C66.15 81.8 66.19 81.81 66.23 81.82C66.14 81.41 66.05 80.99 65.92 80.44C65.57 80.71 65.32 80.9 64.99 81.16C64.97 80.91 64.91 80.76 64.94 80.63C65.12 79.8 65.37 78.99 64.81 78.19C64.74 78.09 64.81 77.82 64.91 77.7C65.38 77.1 65.43 76.48 65.11 75.8C64.92 75.4 64.67 75.22 64.34 75.4C64.13 74.91 63.92 74.42 63.7 73.92C64.17 74.34 64.62 74.74 65.19 75.26C65.25 74.88 65.34 74.71 65.28 74.59C64.84 73.65 64.34 72.76 63.27 72.38C62.7 72.18 62.42 71.68 62.5 71.03C62.82 71.11 63.17 71.14 63.45 71.29C63.9 71.55 64.43 71.81 64.7 72.22C64.99 72.65 65 73.26 65.17 73.78C65.24 73.99 65.39 74.21 65.57 74.34C66.27 74.85 67 75.33 67.71 75.83C67.91 75.97 68.11 76.11 68.42 76.33C68.42 75.98 68.48 75.77 68.41 75.63C68 74.85 67.55 74.08 67.11 73.31C66.95 73.03 66.79 72.76 66.71 72.63C66.33 72.37 66.06 72.15 65.76 72C64.89 71.55 64 71.15 63.14 70.69C62.94 70.58 62.75 70.34 62.69 70.12C62.51 69.43 62.41 68.73 62.26 68.03C62.13 67.44 61.99 66.85 61.85 66.26L61.59 66.28C61.65 67.04 61.68 67.8 61.78 68.55C61.88 69.31 62.06 70.06 62.21 70.82C60.99 69.22 61.37 67.34 61.16 65.43C61.3 65.74 61.39 65.91 61.47 66.08L61.73 66.02C60.76 58.77 59.23 51.59 58.96 44.19C59.34 44.39 59.69 44.63 59.8 44.95C60.18 46.04 60.49 47.16 60.78 48.27C61.15 49.7 61.47 51.14 61.83 52.57C61.89 52.81 62.03 53.03 62.15 53.3C63.22 51.86 64.11 50.39 65.27 49.19C66.44 47.96 67.88 46.99 69.31 45.82C69.48 47.49 69.63 48.94 69.78 50.39C69.92 51.71 70.05 53.02 70.2 54.34C70.41 56.16 70.63 57.99 70.89 59.8C70.94 60.15 71.16 60.48 71.3 60.82C71.38 60.8 71.46 60.78 71.53 60.76C71.59 60.53 71.69 60.3 71.69 60.08C71.66 59.28 71.78 58.49 71.44 57.68C71.2 57.12 71.33 56.42 71.25 55.79C71.09 54.46 70.89 53.13 70.74 51.8C70.62 50.75 70.56 49.7 70.45 48.65C70.4 48.16 70.28 47.68 70.23 47.19C70.11 46.02 70.01 44.85 69.9 43.67C69.94 43.67 69.98 43.66 70.01 43.65C70.32 44.78 70.63 45.91 70.94 47.05C71.02 47.03 71.09 47.01 71.17 46.99C71.13 46.66 71.09 46.32 71.06 45.99C70.99 45.09 70.89 44.19 70.88 43.29C70.87 42.48 70.98 41.66 71.01 40.85C71.06 39.51 71.09 38.17 71.14 36.84C71.2 35.47 71.27 34.09 71.33 32.72C71.4 31.07 71.52 29.42 71.52 27.77C71.52 26.06 71.38 24.35 71.36 22.64C71.33 20.85 71.36 19.05 71.38 17.25C71.38 17.08 71.49 16.91 71.54 16.74C71.9 16.74 72.27 16.74 72.63 16.74C72.66 16.89 72.67 17.05 72.73 17.19C72.97 17.81 73.27 18.41 73.45 19.04C73.8 20.28 74.09 21.53 74.41 22.77C74.45 22.92 74.5 23.07 74.56 23.21C74.83 23.79 75.1 24.37 75.38 24.95C75.32 24.98 75.26 25 75.2 25.03C75.12 24.83 75.03 24.62 74.95 24.42C74.88 24.44 74.82 24.46 74.75 24.48C74.91 25.38 75.07 26.27 75.22 27.17C75.26 27.41 75.31 27.65 75.32 27.89C75.35 28.37 75.28 28.87 75.38 29.33C75.62 30.5 75.97 31.65 76.2 32.82C76.73 35.47 77.21 38.13 77.71 40.78C77.75 41 77.8 41.24 77.93 41.42C78.54 42.3 78.62 43.29 78.64 44.32C78.65 45 78.69 45.68 78.75 46.35C78.88 47.76 79.02 49.17 79.19 50.57C79.31 51.55 79.49 52.52 79.67 53.64C79.91 53.35 80.06 53.16 80.25 52.93C80.44 53.05 80.76 53.15 80.79 53.3C80.92 53.98 81.37 53.93 81.94 53.9C81.37 50.85 80.8 47.85 80.23 44.8C81.12 45.41 81.85 45.96 82.64 46.43C84.44 47.49 85.87 48.87 86.67 50.83C87.18 52.08 87.52 53.38 87.36 54.74C87.25 55.69 87.36 55.86 88.28 55.74C88.21 55.01 88.19 54.26 88.04 53.55C87.95 53.13 87.87 52.9 88.39 52.76C88.96 52.61 89.06 52.95 89.15 53.35C89.22 53.63 89.29 53.91 89.36 54.18C89.44 54.2 89.51 54.22 89.59 54.25C89.72 53.91 89.94 53.57 89.95 53.22C90.02 51.54 90.1 49.85 90.07 48.17C90.01 45.34 89.98 42.5 89.73 39.68C89.57 37.86 90.06 36.12 89.81 34.27C89.47 31.7 89.65 29.07 89.6 26.46C89.57 24.76 89.49 23.07 89.48 21.37C89.48 19.83 89.54 18.28 89.57 16.74C90.16 16.74 90.75 16.74 91.35 16.74C91.45 16.97 91.59 17.18 91.65 17.42C91.98 18.79 92.39 20.15 92.59 21.53C93.02 24.42 93.49 27.32 93.69 30.24C93.97 34.21 94.05 38.19 94.14 42.16C94.22 45.5 94.19 48.83 94.22 52.17C94.22 52.8 94.32 53.43 94.34 54.06C94.36 54.64 94.31 55.22 94.34 55.8C94.42 57.74 94.52 59.68 94.63 61.62C94.66 62.15 94.42 62.36 93.99 62.66C93.26 63.18 92.38 63.8 92.09 64.58C91.71 65.62 91.81 66.84 91.75 67.98C91.71 68.82 91.75 69.67 91.73 70.52C91.73 70.81 91.63 71.1 91.56 71.45C91.4 71.07 91.26 70.77 91.11 70.41C91.16 70.33 91.25 70.16 91.35 70H91.11C91.08 69.63 90.98 69.26 91.04 68.92C91.16 68.22 90.88 67.87 90.18 67.93C90.25 68.23 90.27 68.55 90.4 68.83C90.7 69.47 90.12 69.8 89.94 70.27C89.66 70.15 89.37 70.02 89.09 69.89C89.06 69.88 89.05 69.82 89.06 69.83C89.15 69.64 89.23 69.47 89.31 69.31C89.23 69.27 89.15 69.24 89.06 69.2C88.91 69.59 88.76 69.98 88.59 70.41C88.4 70.5 88.11 70.65 87.82 70.8C87.48 70.32 87.66 69.05 88.18 68.44C88.2 68.63 88.21 68.83 88.23 69.08C89.35 67.89 89.87 66.61 89.26 65.12C89.48 65.06 89.69 64.91 89.67 64.81C89.53 64.1 89.35 63.41 89.17 62.71C88.95 61.88 88.92 61.88 88.33 62.42C88.26 62.49 88.11 62.47 88 62.5C88.01 62.38 88 62.25 88.05 62.15C88.1 62.06 88.22 62.01 88.32 61.96C88.89 61.69 88.92 61.35 88.46 60.93C88.34 60.81 88.26 60.65 88.16 60.51C87.57 60.79 87.29 61.28 87.42 61.83C87.61 62.66 88.01 63.45 88.23 64.28C88.42 65 88.5 65.76 88.61 66.5C88.62 66.58 88.55 66.72 88.48 66.77C88.11 66.99 88.15 67.24 88.36 67.56C88.58 67.9 88.58 68.24 88.17 68.47C88.17 68.28 88.19 68.09 88.2 67.78C87.68 67.98 87.28 68.14 86.84 68.32C86.94 68.05 86.98 67.74 87.15 67.54C87.38 67.28 87.71 67.11 88 66.9C87.94 66.87 87.87 66.83 87.81 66.8C87.78 66.45 87.75 66.11 87.73 65.86C87.55 65.68 87.28 65.54 87.27 65.38C87.22 64.73 87.25 64.08 87.25 63.42C87.19 63.45 87.13 63.49 87.06 63.52C86.89 63.31 86.57 63.08 86.59 62.91C86.7 62.19 86.93 61.49 87.1 60.78C87.23 60.26 87.69 59.74 87.11 59.2C86.92 59.02 86.77 58.8 86.6 58.59C86.4 58.79 86.1 58.95 86.02 59.19C85.7 60.17 85.12 60.96 84.45 61.74C84.02 62.24 83.54 62.86 83.49 63.47C83.42 64.25 83.83 65.07 83.88 65.88C83.94 66.8 84.43 67.72 83.96 68.67C83.92 68.74 83.99 68.87 84.01 68.97C84.06 68.93 84.11 68.88 84.16 68.84C84.38 68.98 84.6 69.14 84.84 69.24C84.99 69.3 85.24 69.34 85.36 69.26C85.68 69.04 85.94 68.75 86.24 68.48C86.44 68.75 86.64 69.01 86.83 69.27C86.72 69.37 86.63 69.45 86.49 69.58C86.73 69.56 86.88 69.54 87.04 69.53C87.1 69.75 87.16 69.95 87.24 70.21C86.58 70.11 86 70 85.4 69.96C85.25 69.95 85.09 70.13 84.93 70.22C85.07 70.31 85.19 70.45 85.34 70.48C85.69 70.56 86.05 70.61 86.4 70.62C86.75 70.63 86.95 70.7 86.97 71.11C86.99 71.79 86.98 71.85 86.48 72.02C86.29 71.84 86.12 71.66 85.85 71.39V72.68C85.62 72.52 85.41 72.38 85.21 72.24C84.68 72.92 84.53 73.64 84.64 74.44C84.73 75.11 84.76 75.78 84.82 76.46C84.85 76.85 84.89 77.24 84.95 77.77C84.53 78.37 83.91 79.1 84.65 80.06C84.79 80.24 84.75 80.61 84.91 80.71C85.6 81.14 85.49 81.78 85.38 82.39C85.33 82.65 85.06 82.85 84.93 83.11C84.79 83.4 84.75 83.75 84.58 84.02C84.17 84.62 83.74 85.21 83.26 85.75C82.34 86.78 81.68 87.89 81.95 89.55C82.44 88.37 82.79 87.31 83.31 86.33C83.83 85.36 84.53 84.48 85.54 83.89C85.57 85.23 85.52 86.51 85.42 87.79C85.38 88.34 85.3 88.91 85.13 89.44C84.89 90.18 84.44 90.85 84.25 91.6C83.91 92.92 83.67 94.28 83.44 95.63C83.41 95.79 83.66 96 83.67 96.02C83.62 96.42 83.6 96.7 83.54 96.97C83.34 97.78 83.53 98.63 83.65 99.36C83.77 100.08 83.86 100.9 84.22 101.6C84.41 101.97 84.58 102.36 84.76 102.74C84.91 102.13 84.91 101.58 84.91 101.03C84.91 100.54 84.32 100.07 84.88 99.48C84.91 99.85 84.93 100.13 84.96 100.41C86 99.2 85.65 97.74 85.86 96.33C86.06 96.53 86.28 96.76 86.27 96.98C86.21 98.14 86.74 99.1 87.23 100.08C87.31 100.24 87.51 100.35 87.76 100.57C87.76 100.04 87.79 99.72 87.76 99.41C87.65 98.34 87.48 97.28 87.4 96.21C87.34 95.37 87.4 94.52 87.36 93.68C87.34 93.24 87.36 93.17 87.84 93.04C87.79 93.26 87.72 93.47 87.71 93.69C87.71 93.9 87.79 94.11 87.82 94.33C87.84 94.49 87.82 94.66 87.82 94.82C87.94 94.82 88.05 94.82 88.17 94.82C88.19 94.52 88.21 94.22 88.24 93.92C88.29 93.46 88.3 92.98 88.43 92.53C88.48 92.35 88.8 92.26 88.98 92.14C89.47 92.44 88.8 93.21 89.66 93.42C89.56 92.94 89.48 92.54 89.38 92.09C89.57 91.97 89.8 91.82 90.09 91.64C90.11 91.82 90.09 91.96 90.14 92.03C90.29 92.19 90.48 92.31 90.65 92.45C90.71 92.37 90.77 92.28 90.83 92.19C90.63 92.1 90.47 92.03 90.32 91.96C90.52 91.4 90.74 90.93 91.44 91.3C91.49 91.32 91.56 91.34 91.6 91.32C92.41 90.92 92.84 90.97 93.46 91.57C94.39 92.47 95.47 93.12 96.66 93.61C97.04 93.77 97.43 94.1 97.61 94.46C97.86 94.95 98.05 94.87 98.44 94.67C98.9 94.43 99.41 94.36 99.85 94.77C99.76 94.99 99.68 95.19 99.6 95.4C99.1067 94.9267 98.6667 94.8633 98.28 95.21C98.61 95.35 98.91 95.48 99.21 95.61V96.07C99.37 96.07 99.49 96.07 99.6 96.07C99.71 96.07 99.82 96.09 99.93 96.09C99.92 96.82 100.08 96.98 100.64 96.76C100.66 97.02 100.68 97.29 100.71 97.72C101.04 97.51 101.47 97.3 101.45 97.23C101.34 96.89 101.17 96.36 100.92 96.3C99.96 96.07 100.35 95.64 100.73 95.06C101.13 95.42 101.52 95.76 101.95 96.14C102.07 96.11 102.31 96.04 102.6 95.96C102.54 96.2 102.5 96.37 102.41 96.72C102.73 96.56 102.92 96.46 103.11 96.36C103.31 96.25 103.5 96.04 103.7 96.03C104.1 96.01 104.5 96.12 104.91 96.13C105.3 96.13 105.69 96.09 106.12 96.07C106.09 96.31 106.05 96.62 106.01 96.88C106.34 96.88 106.61 96.9 106.87 96.88C107.15 96.85 107.45 96.84 107.7 96.73C108.13 96.53 108.53 96.27 108.88 96.06C108.42 95.81 108.31 95.35 108.77 95.02C109.21 94.7 109.69 94.45 110.09 94.2C110.27 94.66 110.44 95.09 110.66 95.65C111.03 94.97 111.31 94.44 111.62 93.88C111.73 94.09 111.82 94.25 111.9 94.39C112.08 94.3 112.22 94.23 112.41 94.14C112.36 94.41 112.33 94.59 112.3 94.78C112.36 94.83 112.42 94.88 112.47 94.94C113.06 94.43 113.66 93.92 114.29 93.37C113.84 93.09 113.49 92.88 113.14 92.65C113.1 92.35 113.05 92.03 112.99 91.57C114.18 90.75 115.42 89.92 116.64 89.07C117.07 88.77 117.46 88.41 117.87 88.1C118.1 87.92 118.35 87.76 118.6 87.61C119.64 86.96 120.68 86.32 121.72 85.68V114.94C121.46 115.18 121.2 115.43 120.95 115.67C120.89 115.6 120.8 115.49 120.55 115.19C120.28 116.11 120.05 116.88 119.83 117.63C119.62 117.35 119.42 117.07 119.22 116.79C119.17 116.81 119.12 116.83 119.07 116.85C119.17 117.34 119.26 117.83 119.37 118.38C119.13 118.25 118.96 118.16 118.8 118.07C118.75 118.11 118.7 118.15 118.65 118.19C118.97 118.66 119.29 119.12 119.6 119.59C119.52 119.65 119.44 119.71 119.36 119.77C118.99 119.34 118.5 118.96 118.27 118.46C118.03 117.95 118.03 117.32 117.96 116.88C117.7 117.04 117.46 117.19 117.08 117.43C117.15 117.01 117.19 116.83 117.24 116.55C116.75 116.63 116.14 116.55 115.93 116.81C115.52 117.29 115.26 117.95 115.06 118.57C114.92 119.02 114.81 119.18 114.39 118.87C114.3 118.8 114.22 118.74 114.13 118.67C114.13 119 114.02 119.36 114.15 119.52C114.89 120.45 115.46 121.56 116.63 122.06C116.92 122.18 117.25 122.25 117.56 122.27C118 122.3 118.44 122.27 118.88 122.26C119.26 122.24 119.72 122.31 119.99 122.13C120.43 121.84 120.73 121.36 121.12 120.98C121.3 120.81 121.52 120.69 121.73 120.54V136.26H101.49C101.29 135.44 101.09 134.62 100.89 133.8C100.88 133.74 100.92 133.68 100.91 133.62C100.72 132.6 100.55 131.57 100.33 130.55C100.2 129.95 99.89 129.41 100.1 128.74C100.2 128.43 100.08 128.05 100.06 127.7C99.96 127.7 99.87 127.7 99.77 127.7C99.7 128.03 99.66 128.37 99.56 128.7C99.51 128.86 99.38 129.12 99.27 129.13C99.08 129.13 98.89 129.03 99.01 128.71C99.24 128.07 99.5 127.41 99.56 126.75C99.59 126.39 99.21 126.01 99.02 125.63C98.61 125.88 98.5 125.55 98.32 125.29C98.06 124.91 97.09 124.86 97 125.2C96.91 125.52 96.87 125.86 96.85 126.19C96.7 128.93 96.94 131.63 97.75 134.26C97.96 134.93 98.15 135.61 98.35 136.28H93.02C93.08 136.12 93.1 135.84 93.19 135.82C93.57 135.72 93.97 135.7 94.43 135.65C94.37 135.2 94.32 134.78 94.29 134.55C93.66 134.65 93.23 134.71 92.71 134.79C92.86 134.29 92.82 133.78 93.56 134.07C93.99 134.24 94.14 133.9 94.1 133.35C94.07 132.79 93.44 132.27 93.96 131.67C93.99 131.64 93.86 131.47 93.79 131.38C93.65 131.21 93.5 131.05 93.35 130.87C93.86 130.57 93.88 130.36 93.65 129.88C93.44 129.44 93.21 128.96 93.2 128.49C93.18 127.89 93.35 127.27 93.46 126.67C93.59 125.99 93.66 125.36 93.1 124.77C92.9 124.56 92.95 124.1 92.88 123.75C92.98 123.73 93.08 123.7 93.18 123.68C93.22 123.86 93.26 124.04 93.3 124.23C93.32 124.33 93.34 124.44 93.4 124.51C93.43 124.54 93.59 124.52 93.64 124.47C94 124.09 93.71 122.92 93.21 122.68C93.14 122.96 93.06 123.25 92.98 123.57C92.71 123.41 92.5 123.29 92.17 123.09C92.03 123.48 91.85 123.81 91.79 124.16C91.66 124.98 91.57 125.8 91.49 126.63C91.39 127.7 91.17 128.79 91.27 129.86C91.4 131.32 91.74 132.75 92.04 134.19C92.18 134.9 92.41 135.6 92.61 136.3H62.39C61.34 135.34 60.33 134.33 59.22 133.44C58.1 132.55 58.01 133.03 57.58 134.11C57.29 134.83 57.46 135.73 56.78 136.3H51.86C52 135.68 52.14 135.06 52.28 134.43C52.2 134.41 52.12 134.38 52.04 134.36C51.84 135.01 51.64 135.65 51.45 136.3H42.7C43.26 135.64 43.35 134.87 43.02 134.13C42.74 133.51 42.75 133.03 43.2 132.55C42.78 131.92 42.83 130.39 43.29 129.63C43.39 129.84 43.49 130.04 43.57 130.23C43.9 130.12 44.19 130.02 44.3 129.98C44.5 129.56 44.64 129.28 44.81 128.92C45.17 129.37 44.76 130.05 45.67 129.98C45.5 129.11 45.34 128.28 45.17 127.42C45.76 127.55 45.72 127.95 45.71 128.34C45.71 128.88 45.93 129.14 46.32 129.06C46.38 127.91 46.39 126.83 46.49 125.76C46.55 125.11 46.23 124.32 45.61 123.96C45.47 123.88 45.38 123.71 45.28 123.59C45.45 123.37 45.59 123.2 45.74 123.02C44.88 122.15 44.3 121.15 43.91 120C43.73 120.29 43.72 120.56 43.62 120.78C43.52 120.99 43.31 121.15 43.15 121.33C43.08 121.29 43.01 121.24 42.94 121.2C42.96 118.67 43.18 116.17 44.71 113.95C44.61 113.91 44.52 113.87 44.42 113.83C43.51 115.04 42.6 116.24 41.73 117.4C41.71 115.17 43.43 113.4 43.71 111.16C43.97 111.29 44.12 111.36 44.37 111.49C44.03 110.57 43.74 109.77 43.44 108.96C43.38 108.98 43.32 109 43.26 109.02C43.28 109.22 43.3 109.42 43.32 109.62C43.06 109.57 42.82 109.45 42.78 109.27C42.57 108.33 41.96 107.8 41.1 107.48C40.81 107.37 40.52 107.22 40.29 107.03C39.85 106.66 39.17 106.39 39.52 105.52C40.12 105.93 40.67 106.31 41.22 106.7C41.28 106.65 41.35 106.6 41.41 106.55C41.25 106.3 41.15 105.98 40.93 105.81C39.85 104.98 38.74 104.19 37.64 103.39C37.24 103.1 36.86 102.8 36.44 102.54C36.03 102.28 35.86 102.47 35.86 102.93C36 102.94 36.15 102.93 36.26 102.98C36.49 103.08 36.91 103.29 36.9 103.33C36.75 103.73 36.57 104.38 36.33 104.41C35.89 104.47 35.22 104.28 34.97 103.95C34.72 103.61 34.7 102.94 35.37 102.65C35.48 102.6 35.53 102.38 35.58 102.29C34.47 101.88 33.45 101.5 32.42 101.13C32.4 101.17 32.38 101.22 32.36 101.26C32.52 101.36 32.67 101.47 32.85 101.59C32.46 101.83 32.13 102.06 32.69 102.44C32.8 102.51 32.79 102.76 32.89 103.12C32.47 102.91 32.24 102.8 32.01 102.69C32.01 101.51 32.01 100.32 32.01 99.14C32.6 99.34 33.19 99.52 33.76 99.75C34.76 100.16 35.73 100.62 36.73 101.02C37.32 101.26 37.95 101.4 38.53 101.66C39.15 101.93 39.74 102.22 40.43 101.8C40.24 101.52 40.09 101.13 39.81 100.98C39.62 100.88 39.25 101.12 38.96 101.18C38.87 101.2 38.75 101.13 38.65 101.09C38.19 100.87 37.73 100.64 37.28 100.41C35.52 99.49 33.76 98.57 32 97.65L32.11 97.52ZM111.19 101.17C111.16 101.41 111.13 101.64 111.11 101.88C111.31 101.86 111.52 101.86 111.69 101.79C111.76 101.76 111.82 101.47 111.8 101.46C111.6 101.35 111.38 101.27 111.17 101.19C111.42 100.94 111.67 100.69 111.92 100.43C111.39 100.23 109.85 101.22 109.85 101.84C110.08 101.69 110.26 101.55 110.46 101.45C110.69 101.34 110.94 101.26 111.18 101.16L111.19 101.17ZM116.56 128.22C116.71 128.11 116.95 128.04 117 127.9C117.29 127 117.96 126.48 118.77 126.1C119.28 125.86 119.32 125.53 119.1 125.08C117.83 125.29 117.62 125.18 117.65 124.35H117.08C117.1 124.67 117.13 124.96 117.16 125.43C116.67 125.01 116.32 124.72 115.99 124.41C115.93 124.36 115.96 124.2 115.97 124.1C116.01 123.86 116.07 123.62 116.12 123.38C115.86 123.34 115.59 123.29 115.24 123.23C115.13 122.72 115 122.11 114.84 121.36C114.66 121.49 114.45 121.58 114.36 121.74C114.24 121.95 114.16 122.21 114.14 122.45C114.07 123.14 113.89 123.87 114.04 124.53C114.23 125.4 114.22 125.85 113.48 126.46C114.05 127.3 114.63 128.15 115.21 129C115.26 128.96 115.32 128.93 115.37 128.89C114.93 127.91 116.27 128.27 116.35 127.63C116.43 127.83 116.5 128.03 116.58 128.23C116.31 128.75 115.93 129.24 116.11 129.87C116.19 129.88 116.27 129.9 116.35 129.91C116.42 129.34 116.49 128.78 116.55 128.21L116.56 128.22ZM106.83 131.35H106.82C106.93 131.52 107.07 131.68 107.14 131.88C107.53 132.96 108.2 133.4 109.23 132.87C109.53 132.55 109.83 132.28 110.06 131.96C110.19 131.79 110.22 131.55 110.29 131.34C110.1 131.29 109.92 131.23 109.9 131.23C109.57 130.94 109.34 130.74 109.06 130.5C109.09 131.09 109.11 131.52 109.13 131.95C109.04 131.99 108.96 132.02 108.87 132.06C108.6 131.76 108.34 131.46 108.06 131.14C109.17 130.45 109.64 130.08 109.28 128.77C109.25 128.64 109.44 128.46 109.53 128.3C109.66 128.42 109.84 128.52 109.9 128.67C109.99 128.88 109.98 129.12 110.03 129.45C110.46 128.83 109.9 126.08 109.26 125.27C109.19 125.31 109.12 125.39 109.04 125.39C108.88 125.39 108.71 125.36 108.55 125.34C108.72 125.24 108.89 125.13 109.21 124.95C109.01 124.66 108.86 124.31 108.59 124.11C108.48 124.03 108.12 124.3 107.88 124.4C108.02 124.74 108.12 124.99 108.23 125.23C108.2 125.27 108.16 125.31 108.13 125.34C107.52 125.03 106.92 124.71 106.24 124.36C106.51 124.2 106.64 124.12 106.77 124.04C106.75 124 106.74 123.95 106.72 123.91C106.24 123.98 105.76 124.04 105.21 124.12C105.46 124.3 105.75 124.4 105.79 124.55C105.91 125.04 106.27 125.23 106.66 125.25C107.29 125.3 107.2 125.63 107.03 126.08C107.32 126.13 107.59 126.24 107.84 126.22C108.25 126.19 108.44 126.35 108.58 126.72C108.72 127.09 108.95 127.42 109.17 127.84C108.96 128.12 108.71 128.07 108.39 127.8C107.95 127.43 107.46 127.13 107.03 126.76C106.84 126.6 106.73 126.34 106.59 126.13C106.64 126.09 106.69 126.05 106.74 126.01C106.24 125.76 105.74 125.51 105.16 125.22C105.11 125.06 105.02 124.75 104.93 124.44C104.52 124.49 104.1 124.86 103.96 124.22C103.81 124.28 103.58 124.3 103.53 124.41C103.45 124.58 103.45 124.82 103.5 125.01C103.89 126.62 104.28 128.24 104.73 129.84C104.93 130.56 105.25 131.25 105.51 131.95C105.59 131.92 105.66 131.9 105.74 131.87C105.51 131.05 105.28 130.22 105.05 129.38C105.4 129.55 105.66 129.65 105.89 129.79C106.1 129.91 106.34 130.04 106 130.32C105.91 130.4 105.86 130.72 105.92 130.78C106.19 131 106.51 131.16 106.81 131.35H106.83ZM74.77 82.02C74.82 82.79 74.86 83.38 74.91 83.97C74.93 84.23 75.03 84.49 75.04 84.76C75.1 85.72 75.12 86.68 75.2 87.63C75.36 89.49 75.57 91.34 75.73 93.19C75.79 93.96 75.7 94.75 75.78 95.52C75.9 96.69 76.12 97.84 76.29 99C76.39 99.71 76.46 100.42 76.6 101.12C76.84 102.32 77.12 103.5 77.39 104.69C77.49 105.12 77.49 105.74 77.77 105.93C78.44 106.38 79.15 107.02 80.1 106.58C80.26 105.71 79.35 105.02 79.46 104C79.77 104.6 79.94 105.11 80.26 105.48C80.53 105.79 81 105.93 81.36 106.14C81.54 105.99 81.69 105.87 81.85 105.73C81.95 105.87 82.03 105.98 82.09 106.06C83.15 105.41 82.67 104.36 82.64 103.37C82.88 103.59 83 103.7 83.16 103.84C83.26 103.63 83.33 103.48 83.36 103.42C82.99 103.03 82.67 102.7 82.33 102.35C82.72 102.21 82.96 102.06 83.2 102.05C83.83 102.03 83.92 101.95 83.75 101.36C83.55 100.67 83.28 100 83.13 99.31C82.94 98.45 82.86 97.57 82.71 96.7C82.52 95.61 82.31 94.53 82.09 93.31C81.8 93.6 81.35 93.88 81.39 94.02C81.58 94.73 80.89 95.04 80.85 95.62C80.18 95.27 80.57 94.85 80.68 94.45C80.47 94.39 80.3 94.34 80.28 94.34C80.5 94.01 80.76 93.69 80.92 93.34C81.04 93.09 80.98 92.76 81.07 92.5C81.37 91.62 81.7 90.75 82.01 89.87C82.04 89.8 81.99 89.7 81.95 89.45C80.93 90.79 80.66 92.28 80.1 93.82C79.99 93.54 79.84 93.36 79.88 93.22C80 92.76 80.23 92.32 80.34 91.86C80.41 91.57 80.35 91.25 80.35 90.82C80.83 90.26 80.77 89.42 79.92 88.83C79.96 89.04 80 89.25 80.06 89.57C79.56 90.18 79.41 90.99 79.81 91.44C79.78 91.49 79.75 91.55 79.72 91.6C79.37 91.41 79.03 91.21 78.64 90.99C78.36 92.3 77.93 93.62 77.83 94.96C77.73 96.29 77.94 97.65 78.02 98.96C77.92 98.71 77.81 98.46 77.72 98.2C77.64 97.98 77.48 97.7 77.54 97.52C77.79 96.85 77.37 96.32 77.22 95.74C77.15 95.46 76.93 95.21 76.78 94.94C77.52 94.59 77.54 94.49 77.04 93.97C76.94 93.86 76.86 93.71 76.84 93.57C76.73 92.82 76.61 92.06 76.57 91.3C76.46 89.46 76.38 87.62 76.29 85.78C76.27 85.33 76.24 84.88 76.14 84.44C76.08 84.18 75.87 83.96 75.71 83.67C75.9367 83.17 75.6267 82.6233 74.78 82.03L74.77 82.02ZM79.07 87.67C79.43 87.72 79.76 87.76 80.1 87.8C79.93 87.43 79.75 87.04 79.57 86.65C79.61 86.6 79.65 86.56 79.69 86.51C79.95 86.65 80.21 86.79 80.59 87C80.81 86.57 81.07 86.11 81.27 85.63C81.51 85.06 81.79 84.48 81.88 83.88C82.01 82.96 81.99 82.02 82.04 81.09C82.06 80.71 81.9 80.58 81.52 80.55C81.07 80.52 80.61 80.41 80.17 80.3C79.83 80.21 79.5 80.06 78.98 79.87C79.32 79.55 79.55 79.24 79.85 79.1C79.95 79.05 80.3 79.38 80.44 79.6C80.8 80.18 81.32 80.14 81.76 80.13C81.96 79.09 83.08 78.23 82.29 77.23C81.86 77.61 81.29 77.9 81.08 78.35C80.75 79.06 80.23 78.81 79.84 78.88C79.7 78.05 79.63 77.27 78.52 77.34V76.76C78.73 76.92 78.88 77.03 79.19 77.27C79.25 76.23 79.31 75.32 79.37 74.36H80.16C79.84 73.84 79.59 73.45 79.35 73.07C79.92 72.7 79.58 72.23 79.42 71.83C79.25 71.4 78.97 71.01 78.71 70.56C78.79 70.52 78.97 70.42 79.1 70.35C78.96 70.03 78.83 69.74 78.68 69.41C78.6 69.24 78.48 69.01 78.37 68.78C76.93 69.97 75.34 75.12 75.88 76.93C76.08 76.67 76.23 76.43 76.42 76.23C76.5 76.15 76.75 76.11 76.81 76.17C77.13 76.48 77.23 77.75 76.97 78.16C76.08 79.55 76.62 81.12 76.33 82.58C76.39 82.62 76.45 82.65 76.51 82.69C77.15 81.95 77.78 81.22 78.42 80.48C78.47 80.52 78.52 80.56 78.57 80.59V81.3C78.06 81.43 77.42 82.15 77.53 82.51C77.73 83.16 77.99 83.79 78.16 84.45C78.35 85.2 78.48 85.96 78.6 86.72C78.7 87.36 78.75 88.02 78.83 88.68H79.67C79.47 88.35 79.31 88.08 79.07 87.68V87.67ZM75.12 73.86C75.18 73.86 75.24 73.85 75.31 73.84C75.36 73.26 75.3 72.63 75.51 72.11C75.73 71.56 75.6 70.92 76.13 70.42C76.66 69.92 76.95 69.19 76.52 68.4C76.48 68.32 76.5 68.2 76.52 68.1C76.61 67.54 76.15 66.47 75.66 66.21C75.02 65.86 74.56 65.41 74.35 64.68C74.29 64.46 73.93 64.33 73.71 64.15C73.63 64.37 73.58 64.61 73.47 64.81C73.17 65.33 73.63 66.08 72.97 66.5C72.94 66.52 73.03 66.75 73.1 66.87C73.14 66.95 73.26 67 73.29 67.09C73.43 67.46 73.56 67.84 73.69 68.22C73.69 68.25 73.66 68.3 73.63 68.37C73.5 68.34 73.36 68.3 73.23 68.27C72.99 68.86 73.38 69.13 73.76 69.35C75.02 70.08 75.3 71.23 75.22 72.56C75.19 73 75.17 73.43 75.14 73.87L75.12 73.86ZM70.46 90.75C70.38 90.71 70.21 90.61 70.05 90.52C69.85 90.41 69.65 90.3 69.46 90.2C69.46 90.42 69.42 90.66 69.49 90.87C69.83 91.99 70.18 93.1 70.57 94.2C70.87 95.08 71.23 95.93 71.56 96.8C71.7 97.18 71.92 97.55 71.96 97.94C72.07 99.03 72.51 99.95 73.42 100.73C73.33 99.84 73.24 98.96 73.15 97.99C73.34 98.36 73.48 98.64 73.62 98.92C73.73 98.87 73.84 98.83 73.95 98.78C73.52 97.11 73.09 95.45 72.66 93.78C72.57 93.78 72.49 93.78 72.4 93.79C72.28 94.01 72.16 94.23 72.02 94.49C71.5 93.23 71 92.03 70.47 90.74L70.46 90.75ZM106.76 116.26C106.67 116.53 106.64 116.89 106.46 117.15C105.95 117.88 105.38 118.57 105.13 119.46C104.98 120 105.11 120.33 105.66 120.48C105.99 120.57 106.31 120.68 106.77 120.83C107.65 120.67 107.52 119.72 107.75 119.07C107.54 118.91 107.34 118.76 107.13 118.61C107.17 118.56 107.2 118.51 107.24 118.46H108.41C108.44 117.24 108.47 116.01 108.5 114.79C108.42 114.73 108.34 114.68 108.25 114.62C107.49 114.98 106.73 115.34 105.81 115.78C106.18 115.98 106.43 116.11 106.74 116.27L106.76 116.26ZM103.09 117.46C102.9 117.52 102.75 117.55 102.63 117.62C101.41 118.34 100.19 119.06 98.98 119.8C98.48 120.11 97.96 120.44 97.97 121.28C98.43 121.39 98.92 121.52 99.41 121.64C99.45 121.57 99.49 121.49 99.53 121.42C99.39 121.36 99.26 121.31 99.02 121.2C99.48 121.04 99.79 120.98 100.05 120.83C100.62 120.49 101.12 120.01 101.72 119.76C102.74 119.34 103.27 118.7 103.1 117.46H103.09ZM48.53 112.44C48.58 112.51 48.64 112.57 48.68 112.64C49.07 113.48 49.49 114.32 49.84 115.18C50.01 115.6 50.16 116.07 50.14 116.52C50.12 117.02 49.91 117.52 49.79 118.02C49.75 118.18 49.71 118.37 49.76 118.51C50.02 119.31 50.32 120.1 50.57 120.9C50.68 121.24 50.69 121.62 50.75 121.98C50.81 121.97 50.87 121.96 50.94 121.95C51.01 121.36 51.09 120.76 51.13 120.17C51.14 119.98 51.03 119.79 50.98 119.6C50.9 119.31 50.76 119.02 50.74 118.73C50.71 117.87 50.8 116.99 50.69 116.14C50.64 115.72 50.46 115.37 50.79 114.99C50.87 114.9 50.76 114.65 50.73 114.43C50.45 114.57 50.27 114.66 50.08 114.75C49.65 113.3 49.03 112.33 48.54 112.44H48.53ZM73 93.33C73.07 93.3 73.15 93.26 73.22 93.23C73.25 93.17 73.31 93.1 73.3 93.05C72.99 91.89 72.76 90.7 72.34 89.58C72.11 88.97 71.36 88.87 70.76 89.2C70.43 89.38 70.23 89.63 70.6 90C70.89 90.28 71.13 90.61 71.39 90.91C71.61 91.16 71.85 91.39 72.05 91.65C72.27 91.94 72.47 92.26 72.65 92.58C72.79 92.82 72.88 93.08 73 93.34V93.33ZM72.93 76.99C72.25 75.49 71.65 74.14 71.02 72.8C70.98 72.71 70.73 72.63 70.62 72.67C70.52 72.71 70.39 72.94 70.42 73.04C70.68 74.02 70.87 75.05 71.29 75.96C71.5 76.43 71.92 77.02 72.93 76.98V76.99ZM76.13 118.55C75.36 119.34 75.13 120.68 75.52 121.59C75.6 121.78 75.67 122.16 75.57 122.23C74.83 122.81 75.75 123.56 75.34 124.17C75.3 124.22 75.5 124.55 75.59 124.55C75.84 124.56 76.1 124.49 76.34 124.4C76.38 124.39 76.37 124.11 76.31 123.99C76.13 123.62 75.92 123.26 75.72 122.89C76.2 122.7 76.47 121.46 76.08 121.37C75.47 121.23 75.75 120.88 75.8 120.62C75.92 120.06 76.12 119.51 76.26 118.95C76.29 118.85 76.19 118.71 76.13 118.53V118.55ZM100.34 108.43C100.94 107.86 101.57 107.28 102.17 106.66C102.22 106.61 102.09 106.28 101.96 106.19C101.35 105.73 100.85 106.31 100.31 106.44C99.96 106.52 99.66 106.81 99.36 106.99C99.72 107.53 100.01 107.95 100.34 108.44V108.43ZM85.38 58.6C84.85 59.19 84.36 59.83 83.77 60.36C83.12 60.96 83.07 61.97 83.74 62.59C84.02 61.95 84.31 61.32 84.62 60.6C84.46 60.7 84.36 60.76 84.25 60.82C84.2 60.78 84.16 60.74 84.11 60.7C85 60.26 84.98 59.32 85.37 58.6H85.38ZM50.45 124.33C50.06 124.64 49.76 124.88 49.33 125.21C49.68 125.35 49.91 125.49 50.15 125.53C51.04 125.68 51.64 126.15 51.94 127.02C52.05 127.34 52.22 127.63 52.43 128.08C52.56 127.12 52.55 126.35 51.86 125.82C51.29 125.38 50.53 125.15 50.45 124.33ZM47.92 130.26H48.15C48.28 129.39 48.45 128.5 48.52 127.61C48.59 126.71 48.52 125.8 47.97 125.03C47.87 124.89 47.62 124.87 47.44 124.79C47.44 124.98 47.37 125.24 47.47 125.35C48.2 126.23 47.97 127.29 48.02 128.28C48.05 128.94 47.96 129.6 47.92 130.26ZM44.15 107.16C43.79 108.13 45.24 109.76 46.31 109.59C46.27 108.92 44.95 107.43 44.15 107.16ZM111.81 113.6C112.13 113.16 112.37 112.83 112.68 112.42C112.75 112.42 112.99 112.4 113.23 112.39C113.19 112.34 113.15 112.29 113.11 112.24C113.34 112.03 113.58 111.82 113.81 111.61C113.35 111.66 112.95 111.95 112.52 111.98C112 112.02 111.47 111.84 110.98 111.77C110.36 112.77 111.49 112.93 111.8 113.61L111.81 113.6ZM69.37 78.55C69.9 79.91 70.73 81 72.25 81.66C71.58 80.23 70.38 79.48 69.37 78.55ZM70.39 77.92C69.82 78.61 70.44 78.6 70.78 78.7C70.77 78.86 70.76 78.98 70.75 79.08C71.04 79.05 71.28 79.03 71.51 79.01C71.48 79.27 71.44 79.54 71.41 79.79C72.1 79.78 72.48 79.46 72.26 78.99C72.02 78.48 71.66 78.02 71.31 77.45C71.21 77.79 71.15 77.99 71.09 78.2C70.82 78.09 70.62 78.01 70.38 77.92H70.39ZM73.49 113.99C73.42 113.9 73.35 113.82 73.28 113.73C73.12 113.82 72.97 113.98 72.8 113.99C72.63 114 72.41 113.91 72.27 113.8C72.12 113.68 72.07 113.43 71.91 113.33C71.73 113.21 71.48 113.19 71.26 113.13C71.29 113.36 71.26 113.62 71.35 113.83C71.43 114.02 71.6 114.2 71.78 114.32C72.17 114.57 72.24 114.87 72.11 115.3C72.05 115.5 72.13 115.74 72.15 115.96C72.26 115.96 72.36 115.96 72.47 115.96C72.51 115.54 72.45 115.07 72.62 114.71C72.77 114.4 73.19 114.22 73.49 113.99ZM79.8 108.58C79.62 108.24 79.47 108.05 79.43 107.84C79.32 107.31 78.99 107.13 78.52 107.25C78.08 107.36 77.88 107.65 78.17 108.11C78.22 108.19 78.29 108.35 78.25 108.4C77.76 109.01 78.33 109.14 78.77 109.53V108.39C79 108.46 79.17 108.54 79.36 108.57C79.51 108.6 79.67 108.57 79.81 108.57L79.8 108.58ZM51.96 116.02C51.23 116.78 51.71 117.3 52.1 117.79C52.35 118.1 52.58 118.58 53.15 118.36C53.28 117.28 52.45 116.78 51.95 116.02H51.96ZM120.24 110.68C120.28 110.62 120.33 110.56 120.37 110.5C120.24 110.23 120.17 109.84 119.96 109.73C119.62 109.55 119.18 109.52 118.77 109.5C118.38 109.49 118.08 110.23 118.19 111.03C118.78 110.25 119.51 110.5 120.23 110.68H120.24ZM93.39 115.72C92.43 115.67 92.49 116.45 92.13 116.8C91.88 116.49 91.67 116.22 91.42 115.91C91.21 116.74 91.19 116.78 91.9 117.21C92.11 117.34 92.66 117.22 92.83 117.02C93.11 116.69 93.2 116.21 93.4 115.72H93.39ZM109.9 97C109.78 96.77 109.65 96.43 109.61 96.44C109.26 96.54 108.93 96.7 108.6 96.84C108.68 96.97 108.76 97.09 108.87 97.27C108.61 97.42 108.31 97.59 107.95 97.8C109.05 97.74 110.04 97.54 110.86 96.83C110.83 96.76 110.81 96.7 110.78 96.63C110.46 96.76 110.14 96.9 109.89 97H109.9ZM74.74 110.66C74.67 110.72 74.61 110.77 74.54 110.83C74.73 111.04 74.88 111.33 75.12 111.44C75.86 111.77 76.73 111.54 77.28 110.87C76.39 110.8 75.56 110.73 74.74 110.66ZM58.84 112.69C59.6 111.82 59.51 110.83 59.61 109.87C58.94 109.86 58.49 111.54 58.84 112.69ZM55.93 127.1C56.39 126.78 55.52 124.64 54.4 124.03C54.91 125.05 55.42 126.08 55.93 127.1ZM45.86 110.63C45.76 111.59 46.52 112.84 47.16 112.91C47.22 111.91 46.57 111.35 45.86 110.63ZM48.09 119.57C48.16 119.62 48.23 119.67 48.3 119.71C48.42 119.56 48.58 119.43 48.66 119.26C48.82 118.91 48.9 118.52 49.08 118.19C49.44 117.53 49.45 117.28 49 116.91C48.7 117.81 48.4 118.69 48.1 119.57H48.09ZM64.33 61.69C64.26 61.69 64.2 61.69 64.13 61.69C64.1 61.83 64.03 61.98 64.06 62.11C64.14 62.45 64.24 62.79 64.39 63.11C64.48 63.3 64.69 63.44 64.84 63.6C64.91 63.36 65.09 63.08 65.02 62.89C64.86 62.47 64.57 62.09 64.33 61.7V61.69ZM76.95 45.6C76.95 45.53 76.97 45.42 76.92 45.36C76.55 44.84 75.42 44.94 75.15 45.51C75.11 45.6 75.07 45.76 75.12 45.8C75.2 45.87 75.34 45.92 75.45 45.9C75.95 45.82 76.44 45.7 76.95 45.6ZM83.88 78.88C82.44 79.58 82.15 80.03 82.62 80.95C83.04 80.26 83.42 79.64 83.88 78.88ZM67.97 84.16C67.64 83.77 67.39 83.46 67.11 83.18C67.07 83.14 66.74 83.29 66.74 83.35C66.74 83.7 66.82 84.04 66.86 84.33C67.23 84.27 67.49 84.23 67.97 84.16ZM86.77 124.47C87.06 125.47 87.31 126.3 87.56 127.17C87.89 126.53 87.52 125.14 86.77 124.47ZM69.68 75.26C69.53 75.77 69.2 76.22 70 76.32C69.93 76.89 70.09 77.24 70.79 77.11C70.44 76.52 70.1 75.95 69.69 75.27L69.68 75.26ZM75.55 124.88C75.42 125.77 75.31 126.46 75.21 127.15C75.28 127.17 75.35 127.18 75.42 127.2C75.6 126.59 75.8 125.98 75.96 125.36C75.98 125.28 75.78 125.14 75.56 124.88H75.55ZM84.38 83.5C84.43 83.5 84.48 83.5 84.53 83.5C84.7 82.87 84.87 82.23 85.05 81.6L84.87 81.46C84.73 81.6 84.5 81.72 84.48 81.88C84.41 82.41 84.41 82.96 84.39 83.5H84.38ZM66.86 77.91C67.22 77.27 66.89 76.66 66.07 76.59C66.32 77.01 66.57 77.43 66.86 77.91ZM72.68 74.26C72.77 74.24 72.86 74.23 72.95 74.21C72.97 73.85 73 73.49 73.02 73.13C72.77 73.05 72.56 72.98 72.19 72.85C72.37 73.38 72.52 73.82 72.68 74.26ZM78.75 88.93C78.69 89.55 78.64 90.04 78.58 90.62C79.28 90.01 79.35 89.51 78.75 88.93ZM103.87 98.18C103.94 98.21 104.02 98.25 104.09 98.28C104.81 98.04 104.87 97.78 104.29 97.07C104.14 97.47 104 97.83 103.87 98.18ZM96.38 129.74C96.43 129.36 96.49 129.01 96.51 128.65C96.51 128.54 96.41 128.41 96.33 128.32C96.3 128.29 96.16 128.32 96.1 128.37C95.84 128.57 96.01 129.54 96.38 129.74ZM92.02 112.33C92.35 112.02 92.61 111.77 92.88 111.52L92.86 111.36C92.5 111.4 92.13 111.45 91.73 111.5C91.85 111.84 91.92 112.03 92.02 112.34V112.33ZM41.63 103.8C41.55 103.86 41.46 103.92 41.38 103.97C41.49 104.21 41.55 104.52 41.73 104.67C41.85 104.77 42.16 104.65 42.38 104.64L42.41 104.42C42.15 104.21 41.89 104 41.63 103.79V103.8ZM74.51 48.2C74.72 47.94 75.17 47.82 74.8 47.42C74.71 47.32 74.37 47.31 74.27 47.4C73.87 47.77 74.25 47.95 74.51 48.2ZM101.68 96.94C101.77 97.29 101.76 97.61 101.9 97.7C102.11 97.85 102.43 97.86 102.71 97.91C102.78 97.92 102.9 97.87 102.92 97.81C102.95 97.75 102.92 97.6 102.88 97.57C102.55 97.38 102.2 97.21 101.67 96.94H101.68ZM82.04 71.45C81.7 71.77 81.42 72.04 81.14 72.31C81.18 72.36 81.23 72.4 81.27 72.45C81.45 72.06 82.62 72.68 82.04 71.45ZM65.8 70.72C65.95 71.13 66.06 71.47 66.19 71.8C66.21 71.86 66.34 71.95 66.38 71.93C66.46 71.9 66.57 71.8 66.58 71.73C66.62 71.2 66.4 70.85 65.81 70.72H65.8ZM90.05 67.62C90.41 67.48 90.74 67.36 91.07 67.23C90.33 67.03 89.99 67.16 90.05 67.62ZM50.73 123.57C50.8 123.57 50.87 123.57 50.93 123.57C50.99 123.28 51.08 122.99 51.11 122.7C51.11 122.61 50.96 122.51 50.88 122.41C50.78 122.51 50.6 122.62 50.6 122.72C50.6 123 50.68 123.29 50.73 123.57ZM103.13 104.9C103.15 104.96 103.17 105.01 103.19 105.07C103.49 105.01 103.79 104.97 104.08 104.87C104.17 104.84 104.21 104.65 104.27 104.53C104.14 104.48 103.96 104.35 103.87 104.39C103.6 104.53 103.37 104.73 103.13 104.91V104.9ZM120.36 125.48C120.75 125.63 121.05 125.74 121.45 125.89C121.2 125.05 120.97 124.97 120.36 125.48ZM72.19 123.77C72.24 123.08 72.69 122.89 73.3 122.81C73.12 122.67 72.85 122.53 72.79 122.59C72.49 122.92 71.89 123.1 72.19 123.77ZM47.53 131.96C48.07 131.54 48.1333 131.11 47.72 130.67C47.66 131.09 47.61 131.44 47.53 131.96Z" fill="#2E112D"/>
<path d="M51.26 16.72C51.47 17.72 51.72 18.7 51.87 19.71C52.29 22.67 52.7 25.64 53.06 28.62C53.32 30.73 53.45 32.85 53.72 34.96C53.93 36.53 54.26 38.08 54.57 39.64C54.92 41.44 55.23 43.26 55.69 45.03C56.49 48.13 57.39 51.2 58.28 54.27C58.43 54.8 58.71 55.31 59.03 55.76C59.16 55.94 59.45 55.97 59.51 56.31C59.67 57.15 59.96 57.96 60.14 58.8C60.33 59.69 60.46 60.58 60.61 61.47C60.42 61.43 60.18 61.38 59.94 61.33C59.91 61.57 59.9 61.81 59.86 62.04C59.77 62.54 59.68 63.04 59.58 63.56C58.1 63.45 58.23 64.57 58.25 65.65C57.87 64.67 57.14 64.34 56.23 64.16C56 64.12 55.7 63.8 55.65 63.57C55.21 61.66 54.82 59.75 54.41 57.83C54.15 56.61 53.86 55.4 53.6 54.19C53.22 52.43 52.86 50.66 52.5 48.9C52.26 47.72 52.02 46.55 51.79 45.37C51.52 43.97 51.26 42.57 51 41.17C50.89 40.6 50.83 40.02 50.71 39.45C50.32 37.53 49.87 35.63 49.52 33.7C49.26 32.29 49.11 30.87 48.95 29.45C48.75 27.76 48.6 26.06 48.4 24.16C48.33 25.06 48.28 25.77 48.22 26.47C48.2 23.56 48.15 20.64 48.83 17.78C48.92 17.4 49.17 17.07 49.35 16.71C49.99 16.71 50.63 16.71 51.26 16.71V16.72ZM52.87 30.03C52.96 30.01 53.05 29.99 53.14 29.97C52.98 28.96 52.83 27.95 52.67 26.94C52.58 26.95 52.5 26.97 52.41 26.98C52.56 28 52.71 29.02 52.86 30.03H52.87Z" fill="#2E112D"/>
<path d="M32.1099 126.65C32.5599 126.77 33.0999 126.38 33.4899 127C33.5899 127.15 34.2299 126.97 34.7099 126.93C34.7799 127.09 34.9199 127.39 35.0699 127.7C36.2599 127.7 37.0999 128.65 36.9099 129.81C36.9099 129.85 36.8899 129.91 36.9099 129.95C37.2499 130.86 37.5899 131.77 37.9599 132.67C37.9999 132.76 38.2499 132.83 38.3799 132.8C39.0899 132.63 39.3899 133.07 39.6299 133.6C39.9599 134.33 40.5499 134.98 40.3499 135.9C40.3299 135.99 40.5199 136.12 40.6099 136.24H32.1299V126.67L32.1099 126.65Z" fill="#2E112D"/>
<path d="M32.1099 103.95H33.2499C33.3899 104.71 33.5299 105.43 33.6899 106.25C33.1199 106.31 32.6199 106.36 32.1199 106.41C32.1199 105.59 32.1199 104.77 32.1199 103.95H32.1099Z" fill="#2E112D"/>
<path d="M32.1101 107.5C32.6601 107.58 33.2001 107.66 33.7001 107.73C33.6701 108.07 33.6401 108.35 33.6301 108.63C33.6301 108.81 33.6301 108.99 33.6301 109.18C33.4301 109.16 33.2201 109.15 33.1901 109.14C32.7701 109.4 32.4401 109.61 32.1001 109.82C32.1001 109.05 32.1001 108.27 32.1001 107.5H32.1101Z" fill="#2E112D"/>
<path d="M98.9702 136.22C98.7102 135.43 98.4402 134.64 98.1802 133.85C98.2802 133.82 98.3702 133.79 98.4702 133.76C99.1002 134.45 99.2502 135.29 99.1102 136.22H98.9702Z" fill="#2E112D"/>
<path d="M32.1099 98.07C32.4699 98.29 32.8399 98.5 33.1999 98.72C33.1699 98.79 33.1399 98.85 33.1099 98.92C32.7799 98.82 32.4399 98.72 32.1099 98.62C32.1099 98.44 32.1099 98.26 32.1099 98.07Z" fill="#2E112D"/>
<path d="M63.7198 84.6C63.4898 83.07 63.2598 81.53 63.0298 79.99C63.5498 80.27 64.3098 81.56 64.2298 82.11C64.1098 82.94 63.9398 83.77 63.7898 84.6C63.7598 84.6 63.7398 84.6 63.7098 84.6H63.7198Z" fill="#2E112D"/>
<path d="M62.6602 78.55C63.2902 78.57 64.0402 79.74 63.9302 80.59C63.4902 79.89 63.0902 79.24 62.6602 78.55Z" fill="#2E112D"/>
<path d="M87.5701 92.42C87.2301 92.15 86.9901 91.96 86.6201 91.66C86.5701 92.11 86.5401 92.38 86.5101 92.7C87.0201 92.73 87.4201 92.85 87.1301 93.42C87.0301 93.62 86.7901 93.89 86.6301 93.88C86.3801 93.88 86.0001 93.71 85.9201 93.51C85.6601 92.86 85.5001 92.16 85.3101 91.48C85.3901 91.45 85.4601 91.41 85.5401 91.38C85.6401 91.45 85.7401 91.52 85.8401 91.59C85.9001 91.56 85.9601 91.53 86.0201 91.51C85.9301 91.22 85.8401 90.94 85.7501 90.65C85.6701 90.65 85.5901 90.66 85.5101 90.67C85.8101 89.72 86.1701 88.79 86.3701 87.83C86.5101 87.17 86.3901 86.46 86.4101 85.78C86.4501 84.03 86.4201 82.28 86.5701 80.54C86.6701 79.42 87.0301 78.32 87.2701 77.21C87.3601 76.78 87.4301 76.35 87.5101 75.93C87.5801 75.93 87.6401 75.95 87.7101 75.96C87.5301 77.23 87.2701 78.49 87.1801 79.76C87.0801 81.2 86.4901 82.59 86.7801 84.07C86.9101 84.7 86.8801 85.37 86.9301 86.14C87.1601 85.98 87.3401 85.92 87.3901 85.81C87.6201 85.29 87.9301 85.31 88.3501 85.59C88.4701 85.67 88.6901 85.63 88.8501 85.59C89.0201 85.55 89.1701 85.44 89.2301 85.41C89.3001 86.2 89.3601 86.94 89.4301 87.73C89.2401 87.37 89.1401 87.02 88.9101 86.8C88.6901 86.59 88.3301 86.53 87.9301 86.37C87.6701 87.5 87.4401 88.48 87.2401 89.47C87.2101 89.64 87.3101 89.84 87.3501 90.02C87.4901 89.84 87.6701 89.68 87.7701 89.48C87.8901 89.26 87.9401 89 88.0101 88.75C88.1301 88.79 88.2501 88.83 88.3701 88.87C88.0901 89.65 87.8001 90.42 87.5401 91.2C87.5001 91.32 87.6201 91.49 87.6201 91.64C87.6201 91.9 87.6001 92.15 87.5801 92.44L87.5701 92.42ZM87.1001 91.68C87.1401 91.17 87.1801 90.74 87.2201 90.22C86.7001 90.63 86.6801 91.15 87.1001 91.68Z" fill="#2E112D"/>
<path d="M90.0598 72.3C89.7098 72.41 89.3098 72.6 89.2798 72.55C89.0498 72.21 88.8098 71.82 88.7698 71.43C88.7498 71.24 89.1398 71 89.3398 70.79C89.4198 70.84 89.4998 70.88 89.5798 70.93C89.4898 71.31 89.3998 71.69 89.2898 72.19C89.5398 72 89.7098 71.87 89.9498 71.7C90.1298 72 90.2998 72.29 90.4798 72.59L90.3698 72.66C90.2498 72.52 90.1298 72.38 90.0698 72.32L90.0598 72.3Z" fill="#2E112D"/>
<path d="M85.0002 93.22C84.9302 93.96 84.8502 94.7 84.7802 95.45C84.7302 95.45 84.6802 95.47 84.6302 95.48C84.5802 94.94 84.4902 94.4 84.5102 93.86C84.5202 93.6 84.7702 93.35 84.9002 93.1C84.9302 93.14 84.9602 93.19 84.9902 93.23L85.0002 93.22Z" fill="#2E112D"/>
<path d="M91.0101 79.92C90.7901 80.53 90.5601 81.14 90.3401 81.75C90.2701 81.73 90.1901 81.7 90.1201 81.68C90.3101 81.06 90.5101 80.43 90.7001 79.81L91.0101 79.91V79.92Z" fill="#2E112D"/>
<path d="M88.0299 82.46C88.2699 82.67 88.5099 82.89 88.7899 83.13C88.9099 83.04 89.0999 82.89 89.3399 82.71C89.0299 83.68 89.0299 83.67 88.3699 83.05C88.2199 82.91 88.0299 82.81 87.8599 82.68C87.9199 82.6 87.9799 82.53 88.0399 82.45L88.0299 82.46Z" fill="#2E112D"/>
<path d="M88.2302 88.35L87.9702 87.11C88.5002 87.4 88.8802 87.73 88.2302 88.35Z" fill="#2E112D"/>
<path d="M112.26 93.16C111.74 92.71 111.69 92.35 112.51 92.08C112.41 92.53 112.33 92.85 112.26 93.16Z" fill="#2E112D"/>
<path d="M88.6799 85.07C87.6399 84.96 87.2999 84.63 87.4999 84.12C87.8599 84.41 88.2399 84.72 88.6799 85.07Z" fill="#2E112D"/>
<path d="M34.19 119.73C34.72 119.38 35.14 119.1 35.66 118.75C35.72 119.06 35.82 119.27 35.8 119.47C35.66 120.71 35.65 120.71 36.84 120.8C37.04 121.58 36.81 122.1 36.1 122.59C35.7 122.87 35.46 123.44 34.88 123.2C34.51 123.05 34.23 122.71 33.91 122.45C33.78 122.35 33.65 122.25 33.52 122.15C33.88 121.83 34.1034 121.02 34.19 119.72V119.73Z" fill="#2E112D"/>
<path d="M34.7699 102.71C34.2499 102.55 33.8699 102.46 33.5099 102.31C33.2899 102.22 33.1199 102.04 32.9199 101.89C32.9599 101.82 33.0099 101.75 33.0499 101.68C33.6599 101.86 34.2699 102.04 34.9699 102.24C34.8599 102.49 34.7699 102.67 34.7599 102.7L34.7699 102.71Z" fill="#2E112D"/>
<path d="M41.8201 131.55C42.1901 132.05 42.1501 132.44 41.6401 132.74C41.3068 132.467 41.3668 132.07 41.8201 131.55Z" fill="#2E112D"/>
<path d="M99.73 134.85C99.95 134.41 100.09 134.12 100.23 133.84L100.48 133.93C100.41 134.28 100.34 134.62 100.28 134.97C100.12 134.94 99.96 134.91 99.74 134.86L99.73 134.85Z" fill="#2E112D"/>
<path d="M80.2598 96.91C80.3698 96.45 80.2298 95.83 81.1698 95.76C80.9098 96.23 80.6898 96.62 80.4698 97.01C80.3998 96.98 80.3298 96.94 80.2598 96.91Z" fill="#2E112D"/>
<path d="M106.39 128.8C106.22 128.64 106.09 128.51 105.96 128.39C106.07 128.27 106.16 128.12 106.3 128.05C106.57 127.91 106.85 127.8 107.14 127.71C107.26 127.68 107.4 127.74 107.53 127.76C107.48 127.9 107.47 128.09 107.37 128.16C107.08 128.38 106.76 128.56 106.38 128.8H106.39Z" fill="#2E112D"/>
<path d="M108.81 129.69C108.37 129.48 108.05 129.32 107.72 129.16C107.82 129.01 107.93 128.72 108.01 128.73C108.42 128.77 108.78 128.93 108.81 129.69Z" fill="#2E112D"/>
<path d="M106.82 131.36C106.67 131.04 106.51 130.71 106.35 130.37C106.66 130.41 107.04 130.47 107.58 130.54C107.27 130.86 107.03 131.1 106.8 131.34L106.82 131.36Z" fill="#2E112D"/>
<path d="M115.42 125.93C115.34 125.36 115.26 124.8 115.17 124.23C115.27 124.22 115.37 124.21 115.46 124.19C115.52 124.76 115.59 125.34 115.65 125.91C115.57 125.91 115.49 125.91 115.41 125.92L115.42 125.93Z" fill="#2E112D"/>
<path d="M106.66 117.84C106.83 118.05 106.94 118.18 107.02 118.28C106.67 118.53 106.35 118.75 106.03 118.97C105.98 118.93 105.93 118.9 105.88 118.86C106.13 118.53 106.38 118.2 106.66 117.84Z" fill="#2E112D"/>
<path d="M118.12 112.6H31.6401V131.23H118.12V112.6Z" fill="#2E112D"/>
<path d="M53.7441 124.053C53.7363 124.264 53.5977 124.737 53.3281 125.471C53.3086 125.526 53.2266 125.651 53.082 125.846C52.7109 126.346 52.3848 126.649 52.1035 126.754C52.0371 126.797 51.9336 126.854 51.793 126.924C51.3672 127.088 50.8242 127.17 50.1641 127.17C49.9766 127.17 49.8047 127.161 49.6484 127.141C49.6367 127.055 49.6523 126.95 49.6953 126.825C49.5234 126.657 49.373 126.573 49.2441 126.573C49.1426 126.573 49.0508 126.623 48.9688 126.725C49.0469 126.784 49.123 126.813 49.1973 126.813C49.2051 126.895 49.1758 126.952 49.1094 126.983C49.0508 127.01 48.9805 127.01 48.8984 126.983C48.8633 126.971 48.5605 126.854 47.9902 126.631C47.9043 126.608 47.8203 126.582 47.7383 126.555C47.6211 126.512 47.5312 126.45 47.4688 126.368C47.4688 126.368 47.4453 126.211 47.3984 125.899C47.3594 125.696 47.3125 125.358 47.2578 124.885C47.2578 124.584 47.2578 124.141 47.2578 123.555C47.2539 123.164 47.334 122.969 47.498 122.969C47.5254 122.969 47.5547 122.977 47.5859 122.993C47.6016 123.352 47.666 123.887 47.7793 124.598C47.8184 124.668 47.873 124.77 47.9434 124.903C48.0801 125.231 48.3008 125.487 48.6055 125.67C48.7617 125.768 49.0273 125.877 49.4023 125.998C49.4805 126.022 49.6621 126.073 49.9473 126.151C50.1426 126.205 50.4082 126.246 50.7441 126.274C50.8418 126.121 50.9941 126.022 51.2012 125.975C51.4746 125.916 51.6602 125.852 51.7578 125.782C51.8242 125.739 51.8926 125.627 51.9629 125.448C52.0215 125.299 52.0781 125.149 52.1328 124.996C52.168 124.868 52.2246 124.663 52.3027 124.381C52.2949 124.334 52.2871 124.264 52.2793 124.17C52.2832 123.948 52.2305 123.702 52.1211 123.432C52.0039 123.139 51.8594 122.936 51.6875 122.823C51.6523 122.745 51.5898 122.649 51.5 122.536C51.2734 122.383 50.9434 122.182 50.5098 121.932C50.4199 121.85 50.2812 121.743 50.0938 121.61C49.4805 121.313 48.9414 120.936 48.4766 120.479C48.2969 120.299 48.125 120.043 47.9609 119.711C47.957 119.672 47.9434 119.612 47.9199 119.53C47.8965 119.487 47.8594 119.444 47.8086 119.401C47.8047 119.393 47.7949 119.373 47.7793 119.342C47.7754 119.229 47.7734 119.116 47.7734 119.002C47.7578 118.854 47.7168 118.741 47.6504 118.663C47.6543 118.506 47.6621 118.27 47.6738 117.954C47.6543 117.934 47.6289 117.905 47.5977 117.866C47.5898 117.83 47.5898 117.764 47.5977 117.666C47.6211 117.635 47.6504 117.594 47.6855 117.543C47.6855 117.539 47.7363 117.319 47.8379 116.881C47.8965 116.612 48.043 116.377 48.2773 116.178C48.2969 116.209 48.332 116.26 48.3828 116.33C48.3984 116.229 48.4492 116.088 48.5352 115.909C48.9023 115.498 49.2832 115.182 49.6777 114.959C49.7988 114.955 49.9648 114.946 50.1758 114.93C50.4023 114.911 50.7246 114.87 51.1426 114.807C51.1582 114.823 51.1855 114.846 51.2246 114.877C51.4473 114.916 51.7754 114.957 52.209 115C52.5215 115.012 52.7109 115.012 52.7773 115C53.0781 114.954 53.209 114.93 53.1699 114.93C53.252 114.93 53.3164 114.95 53.3633 114.989C53.3633 114.993 53.3105 116.106 53.2051 118.329C53.1465 118.364 53.0449 118.375 52.9004 118.364C52.8496 118.141 52.8242 117.973 52.8242 117.86C52.8281 117.5 52.7461 117.153 52.5781 116.817C52.3984 116.442 52.1602 116.192 51.8633 116.067C51.6172 115.961 51.3223 115.909 50.9785 115.909C50.6035 115.909 50.3125 115.965 50.1055 116.079C50.0664 116.075 50.0137 116.08 49.9473 116.096C49.7441 116.217 49.5605 116.407 49.3965 116.664C49.2246 116.934 49.1367 117.178 49.1328 117.397C49.1289 117.436 49.1406 117.516 49.168 117.637C49.1992 117.758 49.2168 117.852 49.2207 117.918C49.2207 118.325 49.4043 118.717 49.7715 119.096C49.9355 119.264 50.2109 119.481 50.5977 119.746C50.7773 119.825 51.0371 119.954 51.377 120.133C52.3027 120.692 52.9434 121.254 53.2988 121.821C53.3301 121.907 53.3887 122.051 53.4746 122.254C53.5371 122.399 53.5977 122.637 53.6562 122.969C53.7266 123.36 53.7559 123.721 53.7441 124.053ZM61.209 124.141C61.1387 124.172 61.0352 124.182 60.8984 124.17C60.6719 124.151 60.5664 124.141 60.582 124.141H60.1133C59.5469 124.141 59.1055 124.17 58.7891 124.229C58.6133 124.26 58.4961 124.243 58.4375 124.176C58.4297 124.059 58.4355 123.959 58.4551 123.877C58.5332 123.87 58.6426 123.842 58.7832 123.795C58.8418 123.76 58.8867 123.702 58.918 123.62C58.9492 123.538 58.9551 123.473 58.9355 123.426C58.8848 123.2 58.8066 122.86 58.7012 122.407C58.6934 122.379 58.6504 122.268 58.5723 122.073C58.5098 121.916 58.4785 121.797 58.4785 121.715C58.4746 121.692 58.4492 121.68 58.4023 121.68C58.3359 121.68 58.0156 121.696 57.4414 121.727L56.2051 121.745C56.1152 121.741 56.0312 121.823 55.9531 121.991C55.9141 122.077 55.8594 122.204 55.7891 122.371C55.6992 122.645 55.6562 122.807 55.6602 122.858C55.6602 122.83 55.6406 122.948 55.6016 123.209C55.5742 123.393 55.5742 123.518 55.6016 123.584C55.6172 123.623 55.6758 123.686 55.7773 123.772C55.8828 123.858 55.9727 123.914 56.0469 123.942C56.0664 123.95 56.0977 123.959 56.1406 123.971C56.1719 124.026 56.1973 124.069 56.2168 124.1C56.1348 124.123 56.0215 124.149 55.877 124.176C55.6504 124.157 55.3242 124.141 54.8984 124.129C54.8086 124.157 54.6699 124.184 54.4824 124.211C54.4746 124.211 54.332 124.194 54.0547 124.159C54.0469 124.139 54.043 124.121 54.043 124.106C54.043 124.059 54.1016 123.993 54.2188 123.907C54.2617 123.848 54.334 123.772 54.4355 123.678C54.5254 123.62 54.6035 123.52 54.6699 123.379C54.7363 123.235 54.8379 123.012 54.9746 122.711C55.0332 122.524 55.1211 122.241 55.2383 121.862C55.3164 121.682 55.416 121.409 55.5371 121.041C55.627 120.772 55.7578 120.371 55.9297 119.84C55.9453 119.825 55.9648 119.801 55.9883 119.77C56 119.832 56.0156 119.864 56.0352 119.864C56.0625 119.864 56.0977 119.78 56.1406 119.612C56.1797 119.459 56.1992 119.35 56.1992 119.284C56.1992 119.272 56.1973 119.266 56.1934 119.266C56.1855 119.278 56.1719 119.313 56.1523 119.371C56.1523 119.332 56.1562 119.278 56.1641 119.207C56.2266 119.043 56.3145 118.801 56.4277 118.481C56.4551 118.329 56.5391 118.102 56.6797 117.801C56.6992 117.735 56.7285 117.633 56.7676 117.496C56.8027 117.379 56.8711 117.204 56.9727 116.969C56.9844 116.918 57.0137 116.846 57.0605 116.752C57.084 116.725 57.1758 116.717 57.3359 116.729C57.4883 116.733 57.7188 116.746 58.0273 116.77C58.1289 117.063 58.3105 117.53 58.5723 118.17C58.5801 118.245 58.6016 118.354 58.6367 118.498C58.6992 118.682 58.7812 118.852 58.8828 119.008C58.8633 119.036 58.8789 119.137 58.9297 119.313C58.9922 119.454 59.084 119.661 59.2051 119.934C59.2871 120.204 59.4141 120.579 59.5859 121.059C59.5977 121.168 59.6348 121.325 59.6973 121.528C59.6973 121.559 59.707 121.608 59.7266 121.674C59.7734 121.776 59.8574 121.971 59.9785 122.26C60.0215 122.323 60.0801 122.418 60.1543 122.547C60.1504 122.579 60.1543 122.621 60.166 122.676C60.2207 122.836 60.3047 123.061 60.418 123.35C60.457 123.416 60.5234 123.538 60.6172 123.713C60.6406 123.76 60.752 123.821 60.9512 123.895C61.0098 123.914 61.0957 123.944 61.209 123.983V124.141ZM58.1973 121.071C58.1934 121.067 58.0508 120.678 57.7695 119.905C57.7227 119.748 57.6504 119.516 57.5527 119.207C57.5059 119.114 57.4434 118.979 57.3652 118.803C57.3418 118.721 57.3008 118.604 57.2422 118.452C57.1016 118.772 56.9453 119.096 56.7734 119.424C56.75 119.448 56.7227 119.485 56.6914 119.536C56.6797 119.594 56.6582 119.684 56.627 119.805C56.5996 119.86 56.5664 119.938 56.5273 120.039C56.5234 120.106 56.5137 120.192 56.498 120.297C56.4707 120.336 56.4395 120.391 56.4043 120.461C56.3848 120.551 56.3555 120.678 56.3164 120.842C56.2969 120.873 56.2715 120.916 56.2402 120.971C56.248 120.928 56.252 120.961 56.252 121.071H58.1973ZM68.4922 116.782C68.4922 116.926 68.4668 117.002 68.416 117.01C68.3418 117.018 68.2324 117.041 68.0879 117.08C68.0254 117.077 67.9395 117.098 67.8301 117.145C67.6973 117.266 67.6191 117.44 67.5957 117.666C67.584 117.686 67.5703 117.717 67.5547 117.76C67.5352 117.979 67.5293 118.116 67.5371 118.17C67.5918 118.526 67.6191 118.705 67.6191 118.709V119.161C67.6191 119.176 67.6113 119.207 67.5957 119.254C67.584 119.297 67.5762 119.327 67.5723 119.342C67.5684 119.37 67.5703 119.422 67.5781 119.5C67.6133 119.813 67.6309 120.221 67.6309 120.725C67.6309 120.729 67.623 120.743 67.6074 120.766C67.5957 120.786 67.5898 120.801 67.5898 120.813C67.5898 121.192 67.5938 121.342 67.6016 121.264C67.5859 121.471 67.5488 121.778 67.4902 122.184C67.4668 122.305 67.3984 122.491 67.2852 122.741C67.1758 122.987 67.082 123.163 67.0039 123.268C66.9102 123.389 66.7383 123.539 66.4883 123.719C66.2891 123.864 66.0879 124.006 65.8848 124.147C65.8262 124.104 65.6582 124.12 65.3809 124.194C65.3262 124.225 65.2402 124.268 65.123 124.323C65.1035 124.33 65.0723 124.325 65.0293 124.305C64.9863 124.286 64.9629 124.276 64.959 124.276H64.5254C64.5801 124.276 64.4805 124.248 64.2266 124.194C64.1367 124.19 64.0078 124.174 63.8398 124.147C63.7383 124.092 63.582 124.024 63.3711 123.942C63.3086 123.938 63.2148 123.928 63.0898 123.913C63.0469 123.901 62.9707 123.864 62.8613 123.801C62.1582 123.395 61.791 122.7 61.7598 121.715L61.707 119.864C61.6797 119.352 61.625 118.59 61.543 117.579C61.5195 117.356 61.4355 117.2 61.291 117.11C61.248 117.079 61.0625 117.022 60.7344 116.94C60.7227 116.916 60.7168 116.895 60.7168 116.875C60.7168 116.801 60.7832 116.774 60.916 116.793C61.2207 116.832 61.5703 116.852 61.9648 116.852H62.5332C62.5449 116.852 62.5996 116.844 62.6973 116.829C62.7949 116.813 62.8691 116.805 62.9199 116.805C63.1074 116.817 63.3887 116.809 63.7637 116.782C63.7949 116.821 63.8105 116.856 63.8105 116.887C63.8105 116.95 63.6895 117 63.4473 117.039C63.4277 117.055 63.3926 117.08 63.3418 117.116C63.3145 117.127 63.2754 117.149 63.2246 117.18C63.1543 117.235 63.1152 117.284 63.1074 117.327C63.0371 117.682 62.9531 118.067 62.8555 118.481C62.8594 118.469 62.8789 118.534 62.9141 118.674C62.918 118.674 62.9023 118.776 62.8672 118.979C62.8828 119.045 62.873 119.202 62.8379 119.448C62.8457 119.401 62.8672 119.545 62.9023 119.881C62.9062 119.932 62.8965 120.104 62.873 120.397C62.877 120.416 62.8848 120.442 62.8965 120.473C62.8965 120.493 62.8828 120.637 62.8555 120.907C62.8477 120.993 62.8652 121.178 62.9082 121.463C62.9316 121.495 62.957 121.541 62.9844 121.604C62.9883 121.616 63 121.748 63.0195 122.002C63.0156 122.049 63.0137 122.12 63.0137 122.213C63.0332 122.256 63.0586 122.317 63.0898 122.395C63.1016 122.426 63.0996 122.475 63.084 122.541C63.1309 122.604 63.1973 122.698 63.2832 122.823C63.3301 122.909 63.4238 123.026 63.5645 123.174C63.6699 123.256 63.7754 123.338 63.8809 123.42C64.0293 123.526 64.1621 123.588 64.2793 123.608C64.3848 123.62 64.5078 123.625 64.6484 123.625H65.4277C65.6426 123.625 65.8691 123.5 66.1074 123.25C66.334 123.016 66.4805 122.772 66.5469 122.518C66.5781 122.303 66.6152 122.041 66.6582 121.733C66.6895 121.53 66.6895 121.254 66.6582 120.907L66.6699 118.135C66.6426 117.905 66.582 117.637 66.4883 117.332C66.4492 117.207 66.3008 117.11 66.043 117.039C65.9961 117.028 65.9141 117.01 65.7969 116.987C65.7734 116.948 65.7617 116.897 65.7617 116.834C65.7422 116.834 65.8027 116.827 65.9434 116.811C66.2363 116.776 66.5156 116.788 66.7812 116.846C66.8281 116.834 66.8926 116.827 66.9746 116.823C67.123 116.85 67.3809 116.844 67.748 116.805C67.7637 116.801 67.793 116.805 67.8359 116.817C67.8789 116.825 67.9082 116.829 67.9238 116.829C67.9668 116.829 68.1562 116.813 68.4922 116.782ZM75.8164 123.977C75.7852 124.02 75.7344 124.073 75.6641 124.135C75.4883 124.233 75.3613 124.282 75.2832 124.282H74.5801C74.3418 124.282 74.1641 124.272 74.0469 124.252C73.9609 124.221 73.8301 124.176 73.6543 124.118C73.5059 124.071 73.2461 123.836 72.875 123.414C72.8438 123.379 72.6914 123.127 72.418 122.659C72.1719 122.233 71.9785 121.875 71.8379 121.586C71.8027 121.477 71.7402 121.336 71.6504 121.164C71.6113 121.121 71.5137 121.106 71.3574 121.118C71.2598 121.129 71.1602 121.141 71.0586 121.153C70.9297 121.145 70.7383 121.143 70.4844 121.147C70.457 121.147 70.4238 121.17 70.3848 121.217C70.4004 121.37 70.4199 121.848 70.4434 122.653C70.4473 122.809 70.4785 123.014 70.5371 123.268C70.5371 123.338 70.5566 123.442 70.5957 123.579C70.6777 123.719 70.8105 123.821 70.9941 123.883C71.1426 123.926 71.291 123.969 71.4395 124.012C71.4434 124.055 71.4395 124.106 71.4277 124.164C71.3145 124.211 71.1992 124.235 71.082 124.235H70.4668C70.459 124.235 70.4062 124.225 70.3086 124.205C70.2109 124.186 70.1406 124.176 70.0977 124.176C69.9766 124.176 69.7871 124.186 69.5293 124.205C69.2754 124.225 69.1484 124.235 69.1484 124.235H68.5566C68.498 124.235 68.4277 124.217 68.3457 124.182C68.3457 124.17 68.3398 124.147 68.3281 124.112C68.3203 124.077 68.3164 124.051 68.3164 124.036C68.5195 123.981 68.6445 123.942 68.6914 123.918C68.8359 123.852 68.9531 123.739 69.043 123.579C69.082 123.508 69.1094 123.329 69.125 123.039C69.125 122.993 69.1387 122.871 69.166 122.676C69.1895 122.496 69.2012 122.36 69.2012 122.266C69.2012 121.735 69.2051 121.448 69.2129 121.405C69.2246 121.362 69.2617 121.291 69.3242 121.194C69.2969 121.166 69.2617 121.114 69.2188 121.036C69.1992 120.965 69.1895 120.866 69.1895 120.737V120.145C69.1895 120.141 69.1836 120.08 69.1719 119.963C69.1758 120.01 69.1934 119.752 69.2246 119.19C69.2207 119.182 69.2109 119.168 69.1953 119.149C69.1523 118.996 69.1543 118.795 69.2012 118.545C69.2168 118.475 69.1914 118.241 69.125 117.842C69.1211 117.717 69.0859 117.553 69.0195 117.35C68.9336 117.245 68.8223 117.178 68.6855 117.151C68.5684 117.123 68.4531 117.098 68.3398 117.075C68.3398 116.852 68.334 116.805 68.3223 116.934C68.3301 116.871 68.3691 116.838 68.4395 116.834C68.5996 116.827 68.8555 116.809 69.207 116.782C69.5312 116.75 69.6973 116.735 69.7051 116.735H70.4609C70.6016 116.735 70.7461 116.723 70.8945 116.7C71.043 116.676 71.1699 116.664 71.2754 116.664C71.4082 116.664 71.5742 116.676 71.7734 116.7C71.8984 116.727 72.082 116.766 72.3242 116.817C72.3477 116.832 72.3867 116.85 72.4414 116.87C72.8164 116.928 73.1484 117.106 73.4375 117.403C73.5977 117.571 73.7402 117.868 73.8652 118.293C73.8691 118.356 73.875 118.448 73.8828 118.569C73.8906 118.666 73.8828 118.813 73.8594 119.008C73.8086 119.422 73.7109 119.735 73.5664 119.946C73.4336 120.141 73.1777 120.414 72.7988 120.766C72.7949 120.848 72.8105 120.92 72.8457 120.983C73.0918 121.455 73.3379 121.928 73.584 122.401C73.877 122.913 74.2324 123.348 74.6504 123.707C74.6855 123.739 74.8301 123.789 75.084 123.86C75.2363 123.899 75.3652 123.909 75.4707 123.889C75.627 123.858 75.7383 123.846 75.8047 123.854C75.8125 123.881 75.8164 123.922 75.8164 123.977ZM72.6055 118.961C72.6055 118.832 72.5957 118.746 72.5762 118.704C72.3809 118.184 72.2148 117.852 72.0781 117.707C71.8906 117.504 71.6816 117.375 71.4512 117.321C71.2988 117.286 71.0527 117.276 70.7129 117.291C70.6777 117.295 70.623 117.317 70.5488 117.356C70.4863 118.028 70.4473 118.571 70.4316 118.985C70.4512 119.016 70.4707 119.061 70.4902 119.12C70.4902 119.174 70.4727 119.397 70.4375 119.788C70.4141 120.045 70.4199 120.303 70.4551 120.561C70.4668 120.573 70.4824 120.59 70.502 120.614H71.082C71.1484 120.629 71.2188 120.637 71.293 120.637C71.5234 120.637 71.7441 120.565 71.9551 120.42C72.1699 120.272 72.3008 120.151 72.3477 120.057C72.5195 119.737 72.6055 119.371 72.6055 118.961ZM82.5078 120.45C82.5078 120.672 82.502 120.842 82.4902 120.959C82.4512 121.049 82.4102 121.188 82.3672 121.375C82.3594 121.563 82.3184 121.762 82.2441 121.973C82.1816 122.051 82.0898 122.178 81.9688 122.354C81.9375 122.471 81.8516 122.639 81.7109 122.858C81.5977 122.971 81.4258 123.147 81.1953 123.385C81.1602 123.397 81.1152 123.416 81.0605 123.444C81.0098 123.491 80.9199 123.559 80.791 123.649C80.1504 123.989 79.541 124.182 78.9629 124.229H78.1895C78.1973 124.229 78.1816 124.217 78.1426 124.194C77.7207 124.182 77.4043 124.123 77.1934 124.018C77.1387 124.006 77.0645 123.987 76.9707 123.959C76.8145 123.897 76.5801 123.786 76.2676 123.625C75.8926 123.387 75.541 123.051 75.2129 122.618C75.0293 122.375 74.8672 122.063 74.7266 121.68C74.5938 121.325 74.5195 121.026 74.5039 120.784C74.4766 120.37 74.4922 119.963 74.5508 119.565C74.5742 119.514 74.6055 119.442 74.6445 119.348C74.668 119.231 74.709 119.061 74.7676 118.838C74.8535 118.702 74.9668 118.502 75.1074 118.241C75.127 118.198 75.1367 118.147 75.1367 118.088C75.1562 118.069 75.1953 118.075 75.2539 118.106C75.2734 118.051 75.2734 117.973 75.2539 117.871C75.3047 117.856 75.377 117.823 75.4707 117.772C75.502 117.69 75.5762 117.59 75.6934 117.473C75.9277 117.348 76.2812 117.164 76.7539 116.922C76.875 116.864 77.0293 116.813 77.2168 116.77C77.6934 116.661 78.0176 116.606 78.1895 116.606H78.6465C79.002 116.606 79.3066 116.639 79.5605 116.705C79.6973 116.745 79.998 116.854 80.4629 117.034C80.5605 117.096 80.7148 117.194 80.9258 117.327C81.2305 117.522 81.5078 117.789 81.7578 118.129C81.9805 118.434 82.125 118.715 82.1914 118.973C82.2227 119.016 82.2617 119.08 82.3086 119.166C82.3945 119.401 82.4434 119.748 82.4551 120.209C82.4551 120.225 82.4629 120.262 82.4785 120.321C82.498 120.375 82.5078 120.418 82.5078 120.45ZM81.207 120.602C81.1719 120.11 81.0762 119.661 80.9199 119.254C80.7207 118.731 80.4863 118.319 80.2168 118.018C79.834 117.596 79.416 117.348 78.9629 117.274C78.5332 117.204 78.2383 117.18 78.0781 117.204C77.7656 117.243 77.5 117.311 77.2812 117.409C77.2539 117.42 77.0762 117.524 76.748 117.719C76.7285 117.758 76.6934 117.805 76.6426 117.86C76.6113 117.868 76.5762 117.879 76.5371 117.895C76.459 117.996 76.3613 118.133 76.2441 118.305C76.2285 118.352 76.2031 118.418 76.168 118.504C76.1094 118.598 76.0469 118.709 75.9805 118.838C75.9453 118.983 75.8906 119.2 75.8164 119.489C75.8203 119.598 75.8184 119.764 75.8105 119.987C75.8105 119.998 75.8027 120.024 75.7871 120.063C75.7715 120.102 75.7656 120.129 75.7695 120.145C75.8242 120.399 75.9023 120.75 76.0039 121.2C75.9922 121.231 75.9844 121.268 75.9805 121.311C76.0078 121.366 76.0469 121.44 76.0977 121.534C76.1016 121.584 76.1133 121.651 76.1328 121.733C76.2969 122.061 76.3828 122.229 76.3906 122.237C76.5078 122.44 76.668 122.633 76.8711 122.817C76.875 122.821 76.9004 122.901 76.9473 123.057C76.9629 123.061 77.0293 123.073 77.1465 123.092C77.3379 123.268 77.4844 123.387 77.5859 123.45C77.875 123.621 78.3984 123.674 79.1562 123.608C79.2188 123.588 79.3008 123.563 79.4023 123.532C79.5312 123.504 79.7168 123.44 79.959 123.338C80.0137 123.288 80.0859 123.227 80.1758 123.157C80.5664 122.914 80.7988 122.616 80.873 122.26C80.9121 122.213 80.959 122.147 81.0137 122.061C81.0215 121.987 81.0332 121.899 81.0488 121.797C81.0723 121.774 81.0957 121.737 81.1191 121.686C81.127 121.596 81.1465 121.401 81.1777 121.1C81.2051 120.858 81.2148 120.692 81.207 120.602ZM88.1738 121.487L88.1211 121.551L88.0859 121.516L88.1152 121.393C88.1816 121.455 88.2012 121.487 88.1738 121.487ZM90.3477 117.01C90.2734 117.022 90.166 117.041 90.0254 117.069C89.877 117.112 89.7598 117.205 89.6738 117.35C89.5527 117.565 89.4785 117.776 89.4512 117.983C89.4004 118.342 89.375 118.635 89.375 118.862C89.375 118.877 89.3828 119.047 89.3984 119.371C89.4141 119.692 89.4219 119.862 89.4219 119.881V120.813C89.4219 120.825 89.4277 120.864 89.4395 120.93C89.4551 120.996 89.4609 121.047 89.457 121.082C89.4336 121.555 89.4219 121.821 89.4219 121.879C89.4219 121.911 89.4297 121.975 89.4453 122.073C89.4609 122.166 89.4688 122.221 89.4688 122.237V124.036C89.4688 124.059 89.4707 124.073 89.4746 124.077C89.4824 124.077 89.4863 124.079 89.4863 124.082C89.2129 124.129 89.0898 124.153 89.1172 124.153C88.9531 124.153 88.8516 124.135 88.8125 124.1C88.543 123.85 88.1445 123.413 87.6172 122.788C87.5234 122.663 87.3828 122.483 87.1953 122.248C87.0312 122.088 86.8086 121.854 86.5273 121.545C86.457 121.428 86.3398 121.254 86.1758 121.024C85.8242 120.598 85.3262 119.971 84.6816 119.143C84.5957 119.077 84.4785 118.971 84.3301 118.827C84.3262 118.799 84.3145 118.76 84.2949 118.709C84.248 118.635 84.1699 118.524 84.0605 118.375C83.9785 118.414 83.9375 118.475 83.9375 118.557C83.9375 118.553 83.9648 118.752 84.0195 119.155C84.0234 119.178 84.0195 119.215 84.0078 119.266C83.9961 119.313 83.9902 119.344 83.9902 119.36C83.9902 119.516 83.9961 119.758 84.0078 120.086C84.0234 120.411 84.0312 120.569 84.0312 120.561V121.381C84.0312 121.405 84.0332 121.604 84.0371 121.979C84.0449 122.354 84.0488 122.551 84.0488 122.571C84.0488 123.387 84.3398 123.817 84.9219 123.86C84.9336 123.86 84.9473 123.877 84.9629 123.913C84.9824 123.944 84.9961 123.963 85.0039 123.971C85.0078 124.041 84.998 124.1 84.9746 124.147H82.9297C82.9141 124.147 82.8418 124.157 82.7129 124.176C82.5879 124.2 82.5156 124.211 82.4961 124.211H82.4023C82.3672 124.176 82.3496 124.155 82.3496 124.147C82.3496 124.01 82.3926 123.918 82.4785 123.871C82.5801 123.84 82.7285 123.782 82.9238 123.696C83.1152 123.59 83.2305 123.422 83.2695 123.192C83.3711 122.625 83.3926 122.28 83.334 122.155C83.3066 122.1 83.3027 122.053 83.3223 122.014C83.3223 122.014 83.3379 121.995 83.3691 121.955C83.3691 121.955 83.3574 121.938 83.334 121.903C83.3301 121.86 83.332 121.786 83.3398 121.68C83.3477 121.571 83.3516 121.493 83.3516 121.446C83.3516 121.391 83.3398 121.297 83.3164 121.164C83.2969 121.032 83.2871 120.938 83.2871 120.883C83.2871 120.942 83.2949 120.821 83.3105 120.52C83.3066 120.508 83.2891 120.469 83.2578 120.403L83.2871 120.373C83.3027 120.35 83.3125 120.307 83.3164 120.245C83.3242 120.233 83.3242 120.219 83.3164 120.204C83.2617 119.762 83.2344 119.465 83.2344 119.313V118.504C83.2344 118.504 83.2266 118.389 83.2109 118.159C83.1992 117.928 83.1934 117.762 83.1934 117.661C83.1934 117.649 83.1992 117.623 83.2109 117.584C83.2266 117.545 83.2324 117.512 83.2285 117.485C82.9316 117.172 82.5586 117.032 82.1094 117.063L82.0801 117.034V116.84C82.123 116.789 82.2285 116.764 82.3965 116.764C82.416 116.764 82.5723 116.772 82.8652 116.788C83.1621 116.803 83.3203 116.811 83.3398 116.811C83.3555 116.811 83.5 116.803 83.7734 116.788C84.0508 116.772 84.1992 116.764 84.2188 116.764C84.3125 116.764 84.3672 116.768 84.3828 116.776C84.4375 116.795 84.5508 116.922 84.7227 117.157C85.0469 117.614 85.5352 118.293 86.1875 119.196C86.3203 119.364 86.5195 119.614 86.7852 119.946C86.7383 120.289 86.7871 120.461 86.9316 120.461C86.9473 120.461 86.9785 120.45 87.0254 120.426C87.0723 120.403 87.1055 120.391 87.125 120.391C87.1758 120.391 87.2441 120.463 87.3301 120.608C87.373 120.682 87.4141 120.754 87.4531 120.825C87.7383 121.055 87.916 121.231 87.9863 121.352C88.002 121.418 88.0293 121.516 88.0684 121.645C88.0996 121.688 88.125 121.709 88.1445 121.709C88.1641 121.709 88.1836 121.702 88.2031 121.686C88.2227 121.67 88.2344 121.663 88.2383 121.663C88.3438 121.776 88.4863 121.942 88.666 122.161C88.7324 122.129 88.7656 122.1 88.7656 122.073C88.7656 122.053 88.7578 122.02 88.7422 121.973C88.7266 121.926 88.7188 121.893 88.7188 121.873V121.246C88.7188 121.227 88.7148 121.2 88.707 121.164C88.7031 121.125 88.7012 121.077 88.7012 121.018C88.7168 120.944 88.7285 120.838 88.7363 120.702C88.7168 120.588 88.6914 120.422 88.6602 120.204C88.6523 120.172 88.6562 120.114 88.6719 120.028C88.6875 119.942 88.6953 119.893 88.6953 119.881C88.6953 119.866 88.6895 119.834 88.6777 119.788C88.666 119.737 88.6602 119.702 88.6602 119.682C88.6523 119.612 88.6523 119.516 88.6602 119.395C88.668 119.243 88.6719 119.141 88.6719 119.09C88.6719 119.071 88.6621 119.038 88.6426 118.991C88.627 118.944 88.6172 118.909 88.6133 118.885C88.6133 118.885 88.6211 118.832 88.6367 118.727C88.6406 118.696 88.6328 118.635 88.6133 118.545C88.5977 118.455 88.5898 118.387 88.5898 118.34C88.5898 118.325 88.5977 118.289 88.6133 118.235C88.6289 118.18 88.6348 118.141 88.6309 118.118C88.6074 117.957 88.5664 117.723 88.5078 117.414C88.4531 117.211 88.2305 117.077 87.8398 117.01C87.8477 116.944 87.8398 116.873 87.8164 116.799C87.8594 116.764 87.998 116.746 88.2324 116.746L89.2988 116.788C89.2754 116.788 89.4512 116.776 89.8262 116.752C90.0488 116.737 90.2227 116.75 90.3477 116.793V117.01Z" fill="#F0433A"/>
<path d="M120.35 87.73L124 83.77L135.73 80.6L136.37 129.05C136.37 129.05 136.33 135.1 133.69 135.72C131.05 136.34 120.36 136.23 120.36 136.23L120.9 100.42L120.36 87.74L120.35 87.73Z" fill="#2E112D"/>
<path d="M32.1099 96.7L14.1399 92.62V129.75C14.1399 129.75 12.2299 136.13 19.1099 135.7C25.9899 135.27 33.5099 135.72 33.5099 135.72L32.1099 96.7Z" fill="#2E112D"/>
</g>
<defs>
<clipPath id="clip0_71_1701">
<rect width="149.76" height="149.76" fill="white"/>
</clipPath>
</defs>
</svg>
