<svg width="150" height="150" viewBox="0 0 150 150" fill="none" xmlns="http://www.w3.org/2000/svg">
<g clip-path="url(#clip0_71_1705)">
<path d="M134 0H16C7.16344 0 0 7.16344 0 16V134C0 142.837 7.16344 150 16 150H134C142.837 150 150 142.837 150 134V16C150 7.16344 142.837 0 134 0Z" fill="#347355"/>
<path d="M139.03 75.08C139.03 95.05 139.03 115.02 139.03 135C139.03 137.29 137.3 139.04 135.03 139.04C95.0502 139.04 55.0802 139.04 15.1002 139.04C12.7402 139.04 10.9702 137.25 10.9702 134.88C10.9702 94.97 10.9702 55.06 10.9702 15.15C10.9702 12.82 12.8002 10.98 15.1202 10.98C55.0602 10.98 95.0102 10.98 134.95 10.98C137.25 10.98 139.03 12.76 139.03 15.08C139.03 35.08 139.03 55.09 139.03 75.09V75.08ZM75.0402 12.22C61.4902 12.22 47.9302 12.22 34.3802 12.22C28.2902 12.22 22.2102 12.22 16.1202 12.22C14.2702 12.22 12.7502 13.35 12.3402 15.08C12.2002 15.64 12.2302 16.25 12.2302 16.84C12.2302 51.52 12.2302 86.19 12.2302 120.87C12.2302 125.25 12.2202 129.62 12.2302 134C12.2302 135.9 13.3902 137.32 15.2402 137.74C15.7102 137.85 16.2102 137.89 16.7002 137.89C55.5902 137.89 94.4802 137.89 133.36 137.89C136.34 137.89 137.89 136.32 137.89 133.3C137.89 94.44 137.89 55.59 137.89 16.73C137.89 13.66 136.44 12.21 133.37 12.21C113.93 12.21 94.4802 12.21 75.0402 12.21V12.22Z" fill="#CFE8D7"/>
<path d="M75.0703 13.52C93.6603 13.52 112.25 13.56 130.83 13.48C134.03 13.47 136.6 15.57 136.6 19.22C136.56 56.43 136.58 93.64 136.58 130.85C136.58 134.5 134.55 136.55 130.91 136.55C93.6403 136.55 56.3603 136.55 19.0903 136.55C15.5503 136.55 13.5303 134.51 13.5303 130.98C13.5303 93.67 13.5303 56.36 13.5303 19.06C13.5303 15.57 15.5503 13.53 19.0203 13.53C37.7103 13.53 56.3903 13.53 75.0803 13.53L75.0703 13.52ZM14.2103 75.02C14.2103 93.67 14.2503 112.33 14.1703 130.98C14.1603 133.92 16.2603 135.92 19.1503 135.92C56.4303 135.88 93.7003 135.9 130.98 135.89C134.14 135.89 135.93 134.09 135.93 130.93C135.93 93.65 135.92 56.38 135.95 19.1C135.95 16.32 134.08 14.14 130.98 14.15C93.6703 14.21 56.3603 14.21 19.0603 14.15C16.3103 14.15 14.1603 16.13 14.1703 19.05C14.2503 37.7 14.2103 56.36 14.2103 75.01V75.02Z" fill="#CFE8D7"/>
<path d="M20.2201 131.71C19.7801 132.14 19.2101 132.71 18.5201 133.38C17.9701 132.74 17.4501 132.13 16.8301 131.39C17.3601 130.98 18.0001 130.5 18.6601 130C19.0401 130.41 19.6101 131.03 20.2201 131.71Z" fill="#CFE8D7"/>
<path d="M18.7604 16.87C19.2204 17.31 19.7904 17.85 20.4604 18.49C19.7904 19.07 19.1704 19.6 18.4304 20.24C18.0004 19.7 17.4904 19.08 16.8804 18.33C17.3904 17.93 18.0504 17.42 18.7504 16.87H18.7604Z" fill="#CFE8D7"/>
<path d="M133.57 18.56C132.99 19.11 132.41 19.66 131.78 20.25C131.25 19.65 130.72 19.05 130.11 18.36C130.59 17.98 131.2 17.5 131.85 16.98C132.19 17.42 132.7 18.09 133.21 18.75C133.33 18.69 133.45 18.62 133.57 18.56Z" fill="#CFE8D7"/>
<path d="M130.16 131.42C130.62 130.92 131.17 130.34 131.78 129.69C132.42 130.34 132.98 130.91 133.63 131.56C133 132.15 132.42 132.7 131.8 133.28C131.27 132.68 130.73 132.08 130.16 131.43V131.42Z" fill="#CFE8D7"/>
<path d="M40.9001 33.9C40.6701 34.11 40.4501 34.32 40.2301 34.55C40.3201 34.79 40.4101 35.01 40.5001 35.25C41.1101 34.82 41.3101 34.43 40.8901 33.91L40.9001 33.9ZM43.0701 31.95C42.4801 32.45 41.9001 32.96 41.3401 33.49C41.4401 33.73 41.5401 33.96 41.6301 34.2C41.5601 34.25 41.5001 34.3 41.4301 34.36C41.7501 34.45 42.0801 34.54 42.5601 34.66C42.2501 34.9 41.9901 35.07 41.7301 35.26L41.7601 35.47C42.0501 35.43 42.3601 35.4 42.6601 35.37C43.5301 37.4 43.6501 37.54 44.7701 37.54C44.2001 35.67 43.6301 33.81 43.0601 31.96L43.0701 31.95ZM44.1101 32.26C44.0201 31.95 43.9201 31.63 43.8301 31.32C43.6901 31.44 43.5501 31.56 43.4101 31.66C43.6301 32.28 43.8301 32.9 44.0401 33.52C44.1501 33.48 44.2601 33.44 44.3601 33.4C44.2801 33.03 44.2201 32.63 44.1101 32.26ZM121.32 94.49C125 87.44 127.08 79.42 127.08 70.91C127.08 69.92 127.05 68.94 126.99 67.97C126.95 67.9 126.91 67.83 126.88 67.75C126.76 67.46 126.79 67.04 126.9 66.69C125.8 53.23 119.48 41.25 109.97 32.8C109.97 32.83 109.97 32.86 109.95 32.89C109.64 34.21 109.15 35.53 109.58 36.94C109.89 37.97 110.07 39.03 110.33 40.14C109.79 40.61 109.3 40.51 108.8 40.01C108.51 39.71 108.21 39.36 107.84 39.21C107.23 38.97 107.2 39.03 107.93 38.25C108 38.18 108.04 38.1 108.13 37.96C107.82 37.67 107.55 37.27 107.18 37.1C106.25 36.66 106.47 35.95 106.62 35.22C106.66 35.01 106.58 34.78 106.56 34.58C106.64 33.47 106.73 32.38 106.81 31.29C106.83 30.98 106.72 30.62 106.84 30.37C106.86 30.33 106.88 30.28 106.89 30.24C106.03 29.58 105.14 28.95 104.24 28.36C103.59 28.72 103.04 29.23 102.94 30.22C102.04 29.37 100.75 28.76 100.37 27.33C100.32 27.17 100.51 26.96 100.52 26.77C100.54 26.56 100.56 26.35 100.6 26.15C97.9201 24.67 95.0801 23.43 92.1401 22.45C92.2301 22.69 92.1701 23.05 92.0701 23.48C91.2601 22.97 90.4501 22.46 89.6401 21.95C89.3801 21.79 89.1301 21.64 88.8601 21.49C88.8301 21.47 88.7901 21.45 88.7601 21.43C88.3701 21.19 87.9901 21.07 87.7201 21.2C87.5901 21.26 87.4901 21.37 87.4201 21.54C86.1301 21.33 84.9401 21.15 83.8001 20.97C83.8501 20.78 83.8901 20.62 83.9301 20.46C83.2301 20.35 82.5401 20.26 81.8401 20.19C81.4901 20.43 81.1201 20.64 80.7401 20.71C80.5001 20.75 80.1801 20.32 79.9001 20C78.6301 19.91 77.3601 19.86 76.0701 19.86C68.2701 19.86 60.8801 21.61 54.2601 24.75C54.8501 25.21 54.1501 25.45 53.8901 25.77C53.4001 26.36 53.0001 27.02 52.4501 27.53C51.7301 28.21 52.4301 28.57 52.7401 28.89C53.0801 29.24 53.3001 29.56 53.0701 30.01C52.9101 30.33 52.7401 30.64 52.5401 31C52.3401 31 52.1301 31 51.9101 31C51.4001 30.98 51.2101 31.16 51.3201 31.72C51.4201 32.23 51.3401 32.77 51.3401 33.42C52.6101 34.36 54.4801 38.1 54.1901 39.58C54.4601 39.27 54.5901 39.09 54.7301 38.92C54.7801 38.94 54.8301 38.96 54.8801 38.98C54.7001 39.56 54.6001 40.18 54.3201 40.7C54.2201 40.87 53.6101 40.97 53.4001 40.83C52.4801 40.28 52.5001 40.24 51.4601 41.11C51.6501 40.55 51.7501 40.23 51.8601 39.89C51.9601 39.82 52.0501 39.75 52.1401 39.68C51.8101 39.44 51.3601 39.29 51.1601 38.97C50.8001 38.43 49.9301 38.04 50.5001 37.09C50.6001 36.92 50.1801 36.4 49.9501 36.08C49.6701 35.7 49.2001 35.4 49.0501 34.99C48.3901 33.24 47.2501 31.67 47.1701 29.72C47.1701 29.6 46.6501 29.4 46.4101 29.45C46.3501 29.45 46.3001 29.47 46.2501 29.47C45.7601 29.82 45.2801 30.19 44.8101 30.56C44.8101 30.6 44.8101 30.63 44.8101 30.67C45.0601 30.5 45.2101 30.39 45.3801 30.27C45.4201 30.31 45.4501 30.35 45.4901 30.38C45.2201 30.72 44.9501 31.06 44.6801 31.4C44.8001 31.49 44.9101 31.59 45.0201 31.68C45.4901 31.12 45.9501 30.57 46.4401 29.99C47.2401 31.3 46.5901 32.33 46.2101 33.43C46.4701 33.05 46.7301 32.67 46.9701 32.32C47.8901 33.48 46.8201 34.34 46.6201 35.31C46.7001 35.34 46.7801 35.37 46.8601 35.41C47.2101 34.98 47.5601 34.55 48.0001 34.01C48.0501 34.83 48.3501 35.59 47.7201 36.24C47.2301 36.73 47.3601 37.07 47.9001 37.39C48.1501 37.09 48.3701 36.8 48.6101 36.53C48.7101 36.53 48.8101 36.53 48.9101 36.55C47.2301 38.16 48.4701 39.54 48.9301 41.1C49.4201 40.32 49.8401 39.66 50.2601 39C50.0801 39.75 49.7801 40.41 49.3901 41.02C49.0301 41.58 49.2101 42.05 49.4201 42.58C49.6101 43.08 49.6801 43.63 49.8101 44.21C50.8201 44.87 50.6001 45.91 50.1801 47.12C50.4701 46.76 50.6501 46.55 50.9801 46.15C51.2701 47.36 51.5101 48.31 51.7501 49.3C51.3701 49.55 51.0001 49.76 50.6501 49.99C50.6701 50.03 50.6901 50.07 50.7001 50.11C51.0301 49.99 51.3601 49.87 51.7101 49.76V50.88C50.8401 50.82 49.8101 51.28 49.3701 50.19C49.6601 51.14 49.9501 52.09 50.2401 53.06C50.1601 53.12 50.0801 53.17 50.0001 53.23C49.9101 52.98 49.8201 52.74 49.7401 52.48C49.6801 52.54 49.6201 52.6 49.5601 52.66C49.6501 52.92 49.7401 53.18 49.8301 53.44C49.7401 53.46 49.6601 53.48 49.5701 53.5C49.4701 53.11 49.4001 52.7 49.2801 52.31C49.2301 52.16 49.0601 52.04 48.9401 51.9C48.9701 52.06 48.9901 52.2 49.0201 52.41C48.7501 52.28 48.4901 52.16 48.0701 51.96C48.1901 52.45 48.1801 52.82 48.3501 53.08C48.8101 53.77 48.6401 54.84 49.6501 55.19C49.7301 55.22 49.7901 55.47 49.7601 55.6C49.6501 56.14 49.5001 56.67 49.3501 57.27C49.0001 56.37 48.6501 55.5 48.3201 54.64C48.2201 54.67 48.1201 54.7 48.0401 54.73C48.0401 55.07 47.9001 55.61 48.0601 55.71C49.1801 56.43 48.0601 58.27 49.6201 58.72C49.6801 58.74 49.6601 59.01 49.6901 59.16C49.7601 59.6 49.8401 60.04 49.9301 60.55C49.3401 60.25 48.7701 59.94 48.0701 59.57C48.1201 59.86 48.1301 59.99 48.1801 60.12C48.5701 61.31 48.9801 62.5 49.3801 63.69C49.6901 64.67 49.3801 65.08 48.4001 65.07H46.9001V65.38C47.5901 65.43 48.2701 65.47 48.9701 65.52C50.1601 65.6 50.5601 66.21 50.0701 67.24C49.9901 67.42 49.8001 67.53 49.6601 67.67C48.9801 68.32 48.3101 68.96 47.6301 69.6C48.4001 69.13 49.1601 68.64 49.9001 68.18C49.7501 69.01 48.6201 69.9 47.6801 69.86C47.6601 69.86 47.6501 69.69 47.6301 69.6C47.6301 69.6 47.6101 69.6 47.6001 69.62C47.2601 69.83 46.9001 70.05 46.5101 70.29C46.3101 70.05 46.0801 69.76 45.7701 69.39C45.6201 70.12 46.6101 70.64 45.9301 71.29C46.0501 71.36 46.2701 71.48 46.2701 71.5C46.0401 72.03 46.4701 72.32 46.6301 72.74C46.8701 73.32 46.8801 74.01 46.9801 74.64C46.8501 74.68 46.7101 74.72 46.5901 74.76C46.3401 74.28 46.1101 73.8 45.8401 73.27C45.0801 73.3 45.0101 73.2 45.3501 72.33C45.4601 72.06 45.5901 71.79 45.7001 71.52C45.3001 71.95 44.9001 72.38 44.3501 72.96V72.16C44.2801 72.2 44.2101 72.24 44.1401 72.28C43.9601 72.04 43.7201 71.84 43.6201 71.58C43.2301 70.55 42.8701 69.5 42.5101 68.45C42.2901 67.82 42.1001 67.18 41.8201 66.32C41.4301 68.71 42.9701 70.28 43.4201 72.1C40.8601 73.1 39.5101 75.15 38.5101 77.62C38.5801 77.73 38.7701 77.99 38.9601 78.27C39.0401 78.31 39.1201 78.35 39.1901 78.38C39.1901 76.01 40.8201 74.93 42.5201 73.95C43.0401 75.02 43.7101 76.14 43.2001 77.45C42.4601 76.86 41.7701 76.3 41.0601 75.74C41.0201 75.79 40.9901 75.84 40.9501 75.89C41.9901 76.87 43.0301 77.86 44.0601 78.84C43.8001 79.16 43.6201 79.42 43.4301 79.67C43.4701 79.7 43.5001 79.72 43.5401 79.75C43.7801 79.58 44.0001 79.41 44.3701 79.14C44.1101 80.9 43.9001 82.49 43.6601 84.13C43.5301 84.16 43.3301 84.2 43.1201 84.24C43.0701 84.58 43.0101 84.91 42.9301 85.45C42.5101 84.89 42.2201 84.53 41.9901 84.21C41.9001 84.66 41.7901 85.18 41.6901 85.7C41.6301 85.7 41.5701 85.68 41.5201 85.67C41.5901 84.86 41.6601 84.04 41.7401 83.23C41.6601 83.23 41.5801 83.23 41.5001 83.23C41.4601 84.18 41.4501 85.14 41.3401 86.1C41.2901 86.57 41.1501 87.08 40.9101 87.48C40.5801 88 40.1001 88.43 39.6801 88.9C40.5501 88.71 41.1501 89.34 41.4701 89.88C41.7101 90.29 41.8101 91.16 41.2201 91.71C41.3001 91.73 41.4701 91.77 41.9101 91.89C40.5401 93.77 39.2201 95.57 37.7501 97.59C37.3301 96.64 36.8901 95.84 36.6401 95C36.3801 94.15 37.0401 93.69 37.7401 93.81C38.5901 93.95 38.8201 93.5 38.8001 93.18C38.5201 92.73 38.1401 92.3 37.9701 91.81C37.8501 91.47 37.9701 91.01 38.0701 90.63C38.1401 90.36 38.3501 90.12 38.5101 89.86C38.1101 90.15 37.7001 90.46 37.3001 90.75C37.1401 90.5 37.0201 90.31 36.8901 90.11C37.0501 90.05 37.1901 90 37.3001 89.96C36.8901 89.62 36.5201 89.3 36.1601 89C36.9001 88.33 35.9701 88.47 35.8001 88.23C35.6901 88.18 35.5901 88.15 35.5101 88.14C34.9001 88.06 34.5001 88.59 34.4601 88.97C34.3601 89.8 34.6501 90.68 34.7501 91.54C34.8901 92.67 35.0101 93.8 35.1501 94.94C35.1701 95.12 35.2801 95.29 35.4001 95.61C35.5101 95.22 35.5701 94.99 35.6301 94.78C35.7401 94.76 35.8501 94.74 35.9601 94.72C36.3601 96.18 36.7601 97.64 37.1901 99.18H36.6401C36.5301 99.54 36.4701 99.84 36.3501 100.09C36.0701 100.66 35.7601 101.22 35.4701 101.78C35.5201 101.85 35.5801 101.93 35.6401 102C35.7501 101.92 35.8701 101.84 36.0101 101.74C35.9401 101.92 35.8801 102.08 35.8201 102.24C35.9101 102.37 36.0201 102.5 36.1101 102.62C36.2601 102.23 36.6101 101.93 37.2101 101.65C36.9801 102.1 36.7601 102.56 36.4901 103.1C36.5701 103.2 36.6501 103.3 36.7301 103.39C36.7901 103.33 36.8401 103.27 36.8901 103.21C37.0201 103.46 37.0801 103.58 37.0801 103.58C37.3401 103.12 37.6201 102.62 37.9701 101.99C38.3201 102.64 38.5501 103.03 38.8501 103.59C39.1201 102.69 39.2301 101.87 39.6301 101.22C39.9401 100.68 40.6001 100.34 41.1001 99.91C41.1901 99.97 41.2901 100.04 41.3701 100.11C40.9301 100.85 40.5501 101.63 40.0401 102.31C39.4401 103.12 39.1101 104.15 39.3401 105.26C39.4601 104.69 39.3601 104.06 39.5801 103.56C39.8201 103.02 40.3201 102.57 40.7501 102.13C41.1001 101.79 41.5401 101.51 41.9301 101.2C41.8701 101.14 41.8201 101.07 41.7601 101.01C41.5101 101.21 41.2701 101.41 41.0501 101.59C41.2701 100.89 41.4501 100.24 41.6901 99.6C41.7301 99.5 41.9901 99.39 42.1101 99.43C42.4101 99.53 43.0001 99.38 43.3201 98.99C43.1801 99.83 43.0501 100.59 42.9201 101.35C42.7901 102.08 42.6401 102.79 42.4901 103.51C42.5701 103.53 42.6401 103.55 42.7101 103.57C42.8201 103.39 42.9301 103.22 43.0201 103.05C43.0801 103.09 43.1401 103.13 43.2001 103.17C42.8801 103.71 42.5401 104.25 42.2201 104.8C42.2901 104.84 42.3601 104.88 42.4301 104.92C42.5701 104.72 42.6901 104.53 42.8201 104.34C42.9101 104.38 42.9901 104.42 43.0801 104.46C42.7301 105.28 42.3601 106.1 42.0301 106.93C41.9201 107.2 41.7201 107.59 41.8101 107.79C42.0001 108.16 41.9501 108.43 41.8101 108.67C42.5801 109.38 43.3701 110.05 44.1901 110.7C44.2201 110.67 44.2601 110.66 44.2901 110.64C44.3601 110.7 44.4301 110.75 44.5101 110.81C44.4901 110.84 44.4701 110.88 44.4501 110.91C44.8801 111.25 45.3201 111.6 45.7801 111.93C46.0501 111.09 46.3001 110.25 46.5501 109.45C46.3901 109.59 46.1401 109.8 45.9001 110.01C46.4801 107.39 47.9601 105.39 49.8801 103.52C51.6801 101.78 53.2201 99.75 53.3801 97.02C53.4201 96.41 53.7901 95.81 53.8401 95.12C53.7401 95.26 53.6501 95.39 53.3901 95.76V91.86C53.3901 91.86 53.4701 91.83 53.5001 91.82C53.6101 92.36 53.7201 92.9 53.8001 93.36C54.0201 92.81 54.2201 92.18 54.5001 91.59C54.8001 90.95 55.5601 91.04 56.3201 91.77C56.3901 91.72 56.4701 91.67 56.5501 91.61C56.0901 91.01 55.7401 90.29 55.1701 89.85C54.4601 89.31 54.2501 88.56 53.9201 87.85C53.5101 86.97 53.0501 86.07 52.8301 85.14C52.6101 84.16 52.6701 83.13 52.5901 82.12C52.5701 81.79 52.4101 81.45 52.4401 81.13C52.4601 80.87 52.6601 80.61 52.8301 80.24C52.1201 79.15 53.2201 77.95 53.0301 76.48C52.0801 79.4 52.1701 82.29 51.8401 85.1H51.5301C51.4301 84.03 51.3301 82.95 51.2201 81.68C50.7701 84.3 50.2001 86.7 50.0001 89.12C49.8101 91.49 49.4101 93.9 50.1101 96.28V93.07C50.6401 92.9 51.1701 92.73 51.7101 92.55C51.7101 92.48 51.6901 92.4 51.6801 92.32C51.3601 92.23 51.0301 92.13 50.8101 92.07C51.1901 91.75 51.5401 91.46 51.9201 91.16C52.6301 93.05 53.1601 94.98 52.9501 97C52.8701 97.77 52.4001 98.52 52.1901 99.22C51.5601 101.35 49.9101 102.62 48.5601 104.1C47.8201 104.9 46.9801 105.6 46.5501 106.66C46.4701 106.62 46.3901 106.58 46.3101 106.54C46.5801 105.71 46.6501 104.68 47.1901 104.11C47.5801 103.7 47.7001 103.4 47.7001 102.93C47.7001 102.88 47.7901 102.83 47.8501 102.79C48.2401 102.48 48.1801 102.49 48.1101 101.96C48.0501 101.62 48.1901 101.22 48.3101 100.89C49.1501 98.62 48.8801 96.31 48.6601 93.98C48.5001 92.27 48.6201 90.52 48.4101 88.82C48.1701 86.98 48.8401 85.28 48.8701 83.49C48.8701 82.49 49.4101 81.51 49.6901 80.52C49.8401 80.01 49.9501 79.49 50.0801 78.96H49.8901C50.0201 78.27 50.1301 77.58 50.2801 76.9C50.5001 75.99 50.7801 75.09 50.9901 74.17C51.0501 73.89 50.8601 73.52 50.9601 73.26C51.3501 72.15 51.8001 71.07 52.2401 69.97C52.3401 69.99 52.4501 70 52.5401 70.01C53.2001 71.12 53.8801 72.23 54.4901 73.37C54.6201 73.59 54.4901 73.96 54.4401 74.24C54.1501 75.72 53.7401 77.18 53.5701 78.67C53.4601 79.53 53.7101 80.43 53.8801 81.31C54.2201 78.87 54.5601 76.43 54.9001 74C55.0601 74.02 55.2201 74.04 55.3801 74.06C55.3201 74.62 55.2901 75.2 55.1801 75.75C54.9801 76.77 54.6501 77.76 54.5401 78.79C54.3301 80.57 54.2801 82.35 54.7101 84.12C54.7401 84.23 54.8601 84.32 54.9401 84.41V80.25C54.9401 80.25 55.0301 80.23 55.0701 80.23C55.1901 81.62 55.3901 83.02 55.4001 84.41C55.4001 86.32 56.1801 87.92 57.2201 89.45C57.4201 89.73 57.7601 90 58.0901 90.11C58.2801 90.17 58.6901 89.94 58.7901 89.75C58.9301 89.48 58.8501 89.1 58.8601 88.84C59.6401 89.64 60.4101 90.42 61.1801 91.21C61.6001 91.65 62.0001 92.1 62.4401 92.54C62.6301 92.74 62.8801 92.89 63.0601 93.11C63.1901 93.29 63.2501 93.52 63.3301 93.73C62.5101 94.01 63.1701 94.35 63.2501 94.75C63.3901 94.34 63.5001 94.02 63.5901 93.73C65.3101 95.32 67.2301 96.39 69.6101 96.49C71.1201 96.55 72.6201 96.68 74.1301 96.65C74.8901 96.63 75.6201 96.3 76.3701 96.14C77.1901 95.98 78.0101 95.83 78.8401 95.75C80.5001 95.58 82.1801 95.52 83.3601 94.07C83.3801 94.05 83.4201 94.03 83.4501 94.03C84.9001 94.03 85.7601 92.38 87.3501 92.65C87.6501 92.71 88.1101 92.38 88.3901 92.11C89.4401 91.14 90.4401 90.11 91.4901 89.13C91.7201 88.91 92.1001 88.86 92.3601 88.66C92.6301 88.45 92.8501 88.16 93.1901 87.8C93.3001 88.25 93.4001 88.62 93.4901 89.04C93.6701 88.67 93.8101 88.33 94.0001 87.93C93.8301 87.85 93.6601 87.77 93.4001 87.66C93.6301 87.49 93.9101 87.39 93.9801 87.19C94.2201 86.62 94.3801 86.03 94.5401 85.43C95.1701 83 95.7901 80.55 96.4001 78.11C96.5601 77.49 96.6501 76.85 96.9901 76.24C97.1401 76.77 97.2301 77.32 97.4301 77.83C97.6201 78.31 97.9101 78.76 98.2001 79.28C97.9901 79.25 97.6601 79.21 97.2601 79.15C96.9401 80.21 96.5501 81.28 96.2901 82.37C96.0401 83.38 95.5401 84.38 95.9501 85.64C95.8301 85.64 95.7101 85.64 95.5601 85.64C95.6401 86.04 95.7101 86.46 95.8101 86.99C95.9001 86.73 95.9601 86.58 95.9701 86.54C96.2201 87 96.4801 87.51 96.8801 88.29C97.1001 87.51 97.2301 87.04 97.3701 86.56C98.3701 87.33 96.6201 88.27 97.5001 89.07C97.6901 88.55 97.9101 88.31 98.3701 88.83C98.5701 89.06 98.8801 89.17 99.2501 89.42C99.2301 89.53 99.1701 89.84 99.0801 90.28C99.4201 90.17 99.7601 90.08 100.09 89.99L100.27 90.2C100.01 90.43 99.7301 90.64 99.3601 90.95C99.8101 91.24 100.26 91.54 100.69 91.81V93.05C100.77 93.08 100.86 93.11 100.94 93.14C101.34 92.13 101.74 91.11 102.14 90.14C102.36 91.67 101.53 92.93 100.76 94.17C100.04 95.33 99.2401 96.44 98.4701 97.58C98.8801 97.14 99.3201 96.73 99.6601 96.23C100.21 95.42 100.33 95.35 101.1 95.96C100.85 96.98 100.55 97.97 100.37 98.99C100.21 99.89 99.7101 100.71 100.18 101.78C100.58 102.69 100.46 103.84 100.59 104.96C99.9901 104.9 99.3601 104.85 98.7301 104.79C98.6901 104.87 98.6501 104.96 98.6101 105.04C100.55 105.04 101.13 106.35 101.57 107.86C101.51 107.51 101.52 107.1 101.37 106.8C100.31 104.68 100.66 102.41 100.67 100.19C100.67 99.58 101.17 98.98 101.44 98.38C101.55 98.4 101.66 98.41 101.77 98.43C101.77 99.58 101.59 100.77 101.81 101.87C102.14 103.55 101.56 105.33 102.49 106.94C102.74 107.37 102.72 107.95 102.82 108.46C103.03 109.43 103.4 110.39 103.42 111.37C103.44 112.36 103.19 113.35 103.05 114.35C103.21 114.26 103.36 114.16 103.51 114.07C103.58 113.65 103.64 113.22 103.71 112.79C103.8 112.79 103.88 112.81 103.97 112.82C103.92 113.17 103.87 113.52 103.82 113.87C103.94 113.79 104.06 113.71 104.17 113.63C104.2 113.42 104.22 113.23 104.24 113.02C104.26 112.71 104.43 112.4 104.53 112.08C104.86 112.34 105.05 112.64 105.11 113C105.24 112.91 105.37 112.82 105.49 112.73C105.27 112.44 105.08 112.15 104.87 111.87C105.33 111.99 105.7 112.15 105.98 112.39C106.67 111.89 107.34 111.38 108 110.86C107.64 110.08 107.72 109.26 108.28 108.41C108.33 108.48 108.41 108.59 108.51 108.72C108.56 108.42 108.6 108.15 108.66 107.7C109.12 108.18 109.46 108.55 109.84 108.95C109.79 108.39 109.74 107.87 109.68 107.2C110.01 107.47 110.18 107.62 110.36 107.77C110.42 107.74 110.47 107.7 110.53 107.66C110.64 107.91 110.76 108.14 110.87 108.38C111.2 108.08 111.54 107.76 111.86 107.45C111.04 106.75 110.33 105.35 110.32 104.13C110.99 105.25 111.56 106.21 112.14 107.17C112.22 107.09 112.29 107.02 112.37 106.94C112.12 106.56 111.87 106.16 111.6 105.75C112.09 106.07 112.43 106.33 112.69 106.59C112.79 106.5 112.87 106.42 112.95 106.33C112.83 106.23 112.7 106.12 112.58 106.03C112.73 106.01 112.84 105.99 112.95 105.98C112.95 105.98 112.93 105.96 112.92 105.96C112.13 105.27 111.36 104.6 110.59 103.89C110.43 103.74 110.38 103.48 110.32 103.34C111.49 103.05 112.19 103.79 112.93 104.47C112.62 104.06 112.29 103.67 112.01 103.23C111.86 103.01 111.81 102.74 111.81 102.44C113.13 103.31 114.41 103.24 115.78 102.77C115.9 102.73 116.03 102.7 116.14 102.69C117.82 100.58 119.34 98.33 120.66 95.96C120.64 95.92 120.64 95.88 120.64 95.84C120.76 95.66 120.92 95.42 121.11 95.15C120.86 94.9 120.66 94.71 120.6 94.65C120.79 94.71 121.01 94.78 121.26 94.86C121.31 94.79 121.35 94.71 121.39 94.63C121.22 94.43 121.05 94.24 120.87 94.03C120.98 94.12 121.1 94.21 121.2 94.3C121.28 94.38 121.36 94.45 121.44 94.53L121.32 94.49ZM37.8101 100.1C37.7001 100.05 37.5901 100.01 37.4901 99.96C37.6301 99.43 37.7601 98.89 37.9301 98.21C38.2301 98.49 38.4201 98.66 38.6701 98.88C38.3601 99.32 38.0801 99.7 37.8201 100.1H37.8101ZM38.6901 98.56C38.5801 98.47 38.4601 98.38 38.3601 98.29C39.0101 97.23 39.6601 96.17 40.3001 95.11C40.4001 95.17 40.5001 95.23 40.5901 95.29C39.9501 96.38 39.3201 97.47 38.6901 98.56ZM39.2001 100.43C39.0901 100.37 38.9701 100.32 38.8701 100.26C39.4501 98.81 40.0401 97.36 40.9801 96.04C40.9001 96.47 40.8201 96.9 40.7201 97.37C40.8801 97.28 41.0601 97.18 41.4001 97.01C40.6001 98.25 39.9001 99.34 39.2001 100.43ZM45.7501 76.95C45.5101 75.67 44.1301 75.1 44.2501 73.66C45.9501 74.6 46.5001 75.75 45.7501 76.95ZM43.5701 76.98C43.7001 76.92 43.8201 76.87 43.9401 76.81C44.2301 77.38 44.5401 77.95 44.8401 78.52C44.6701 78.59 44.5101 78.66 44.3401 78.73C44.0801 78.15 43.8301 77.56 43.5601 76.98H43.5701ZM44.6601 80.3C44.7201 80.47 44.9201 80.71 44.8901 80.91C44.7201 81.66 44.4901 82.38 44.2301 83.29C44.1101 82.92 43.9401 82.66 43.9801 82.47C44.1601 81.75 44.4101 81.07 44.6601 80.31V80.3ZM41.7701 91.13C41.9401 90.57 42.1001 90.02 42.2801 89.46C42.3801 89.49 42.4901 89.52 42.5901 89.55C42.9301 90.25 42.3301 90.68 41.9901 91.19C41.9201 91.17 41.8401 91.15 41.7601 91.13H41.7701ZM42.3401 95.56C42.0701 95.19 41.8601 94.86 41.6201 94.53C41.9701 94.22 42.2701 93.96 42.5701 93.69C43.5101 94.45 42.5501 94.9 42.3301 95.56H42.3401ZM43.1401 93.42C42.5901 92.85 42.9201 91.99 43.9401 91.34C43.6701 92.06 43.4101 92.69 43.1401 93.42ZM43.4001 105.58C43.9601 104.15 44.5101 102.7 45.0701 101.26C44.9401 102.89 44.4101 104.35 43.7301 105.76C43.6201 105.7 43.5101 105.64 43.4101 105.58H43.4001ZM48.4801 96.82C48.6501 98.6 48.1201 100.25 47.4901 101.86C46.6901 103.92 45.8501 105.96 44.9801 107.98C44.7601 108.49 44.3301 108.9 43.8501 109.56C43.6001 107.81 44.1401 106.48 44.6401 105.18C45.0401 104.11 45.8001 103.18 46.2301 102.11C46.7601 100.78 47.2301 99.41 47.5201 98.02C47.7601 96.86 47.6801 95.64 47.7601 94.46C47.7801 94.29 47.9101 94.14 48.0401 93.81C48.2201 94.93 48.4001 95.87 48.4901 96.82H48.4801ZM47.0701 70.99H47.7101C47.5101 69.65 48.8501 70.05 49.3501 69.5C48.7301 70.73 47.8701 71.36 47.0701 70.99ZM50.8701 59.59V62.16C50.7901 61.4 50.0501 60.63 50.8701 59.59ZM50.3901 64.92C50.3901 64.35 50.3901 63.78 50.3901 63.2C50.4801 63.2 50.5701 63.2 50.6601 63.2C50.8401 63.97 51.0001 64.73 51.1801 65.52C50.3701 65.87 50.3801 65.87 50.3901 64.93V64.92ZM100.63 98.42C100.88 97.7 101.12 96.99 101.43 96.05C101.95 97.27 101.54 97.92 100.63 98.42ZM108.83 45.45C108.8 45.71 108.76 45.99 108.73 46.26C108.34 46.18 107.96 45.41 107.8 46.37C107.8 46.48 107.17 46.5 106.71 46.58C106.95 45.16 108.37 46.32 108.83 45.45ZM108.37 47.13C107.87 47.55 107.52 47.86 107.06 48.24C106.94 47.7 106.87 47.38 106.8 47.06C107.25 47.08 107.69 47.1 108.36 47.13H108.37ZM101.16 41.35C100.2 41.28 99.4201 41.23 98.6501 41.18C98.6301 41.13 98.6101 41.07 98.5901 41.01C98.9301 40.91 99.2801 40.8 99.6501 40.7C99.6101 40.64 99.5301 40.5 99.4501 40.37C99.4801 40.32 99.5101 40.28 99.5301 40.24C100.03 40.57 100.53 40.92 101.16 41.35ZM54.7701 68.73C54.7701 68.73 54.6701 68.73 54.6101 68.75C54.5801 68.5 54.5401 68.25 54.4901 67.93C53.2801 68.05 52.9601 67.9 53.2701 66.28C53.4201 65.51 54.0501 64.85 54.4601 64.13C54.5601 64.16 54.6601 64.19 54.7601 64.21V68.73H54.7701ZM60.0401 61.72C59.8201 61.79 59.6101 61.86 59.2601 61.98C59.1801 61.48 58.9401 60.92 59.0801 60.51C59.2101 60.13 59.7301 59.82 60.1401 59.59C60.9601 59.13 61.8601 59.11 62.8001 59.16C63.6601 59.2 64.5401 58.97 65.4001 58.87C65.4201 58.8 65.4301 58.73 65.4501 58.65C63.6201 58.28 61.8101 57.9 59.8201 57.49C59.9001 57.84 59.9001 57.96 59.9601 58.03C59.9901 58.08 60.1101 58.05 60.1201 58.18C59.3601 58.08 58.7201 57.53 58.0401 58.38C57.7501 58.73 56.7101 58.16 56.5801 57.86C56.7701 57.26 56.8401 56.83 57.0301 56.48C57.2201 56.16 57.4901 55.81 57.8201 55.65C58.4601 55.31 59.1501 55.06 59.8301 54.83C60.1001 54.73 60.4501 54.67 60.7101 54.75C61.8801 55.1 63.0301 55.53 64.1801 55.9C65.2301 56.23 66.2901 56.56 67.3701 56.82C68.0601 56.99 68.7701 57.03 69.4801 57.14C70.6201 57.34 71.2201 58.51 70.7201 59.57C70.4901 59.51 70.2601 59.45 69.8801 59.35C69.8801 59.82 69.8801 60.23 69.8801 60.64C69.8801 60.75 69.9601 60.9 70.0401 60.96C70.9101 61.65 70.9101 61.64 70.5401 62.98C70.4601 62.65 70.3801 62.31 70.3401 62.16C70.0001 61.7 69.7401 61.35 69.4101 60.89C69.3601 61.17 69.3101 61.45 69.2401 61.77C68.9901 61.67 68.7301 61.57 68.2901 61.42C68.7401 61.9 69.0601 62.24 69.5401 62.77C68.6701 63 67.9901 63.17 67.3101 63.35C67.3101 63.4 67.3101 63.44 67.3101 63.49C67.9301 63.59 68.5401 63.69 69.3301 63.82C69.1701 63.97 68.9901 64.14 68.8001 64.31C68.5401 64.56 68.2801 64.79 67.9801 65.08C67.7501 64.9 67.5201 64.72 67.2801 64.52C66.3201 65.06 65.9101 64.8 65.3301 63.29C64.3601 64.34 60.5301 63.26 60.0401 61.73V61.72ZM69.6401 71C69.5901 71.27 69.6401 71.65 69.4601 71.77C69.0301 72.11 68.5101 72.35 68.0201 72.62C67.9001 72.47 67.7801 72.33 67.6701 72.19C68.0501 71.76 68.4101 71.29 68.8501 70.93C69.0001 70.8 69.3701 70.96 69.6501 71H69.6401ZM69.3801 64.64C69.6801 64.2 69.9901 63.77 70.3001 63.32C70.6735 63.62 70.4335 64.1033 69.5801 64.77C69.5101 64.72 69.4401 64.67 69.3701 64.63L69.3801 64.64ZM70.7601 75.44C69.6001 75.9 68.5201 75.61 67.6701 74.63C68.5201 73.7 69.8401 74.02 70.7601 75.44ZM78.2801 85.27C77.7301 85.27 77.1801 85.24 76.6301 85.24C75.0601 85.22 73.4801 85.36 71.9301 85.17C69.6501 84.9 67.4001 84.41 65.1501 83.96C64.7301 83.87 64.3501 83.54 63.9501 83.31C63.9901 83.24 64.0201 83.16 64.0601 83.09C64.2101 83.05 64.3601 82.97 64.5101 82.99C66.3201 83.29 67.8301 82.31 69.4801 81.9C69.6501 81.86 69.8301 81.83 69.9901 81.87C71.3001 82.21 72.6501 81.89 73.9301 82.13C75.2401 82.38 76.4701 82.97 77.7401 83.43C78.4001 83.67 79.0301 83.99 79.7001 84.15C80.3301 84.3 80.8401 84.48 81.1201 85.27H78.2801ZM78.9101 75.57C79.1901 74.86 79.0001 74.06 78.2501 73.55C77.9601 73.33 77.5201 73.09 77.4801 72.81C77.4001 72.31 77.4801 71.74 77.6801 71.27C77.7901 71.01 78.2501 70.9 78.5501 70.71C79.4301 72.15 79.6001 73.7 79.4701 75.24C79.4001 76.04 78.9901 76.83 78.6001 77.54C78.4601 77.79 77.8901 77.82 77.5201 77.87C77.1601 77.9 76.7801 77.82 76.3501 77.78C77.0701 79.08 75.4001 78.76 75.3901 79.52C75.3101 78.66 75.2301 77.79 75.1401 76.76C74.5401 76.81 73.9701 76.85 73.4401 76.89C73.9801 75.73 75.7301 74.8 76.9901 75.11C77.3501 75.21 77.6501 75.56 77.9801 75.81C77.7101 76.08 77.4401 76.34 77.1801 76.6C77.9501 76.77 78.6201 76.27 78.9001 75.57H78.9101ZM94.4501 63.32C93.9401 63.58 93.6701 63.58 93.4701 62.94C93.3001 62.45 92.7201 62.09 92.3101 61.68C92.2701 61.68 92.0601 61.88 91.9301 61.92C91.7801 61.97 91.5001 61.97 91.4801 61.92C91.1501 60.88 90.3401 60.7 89.3801 60.61C87.7301 60.45 86.1001 60.17 84.4601 59.95C84.2401 59.92 84.0201 59.95 83.8001 59.97C83.7201 59.99 83.6501 60.09 83.4801 60.24C84.5501 60.6 85.5301 60.97 86.5401 61.25C87.9501 61.64 89.2501 62.29 90.1801 63.39C90.6201 63.9 90.6901 64.72 90.9801 65.57C90.0401 65.34 89.3201 65.05 88.6201 65.68C87.9301 66.3 87.4101 66.08 87.2001 65.4C86.2801 65.61 85.4601 65.82 84.6201 65.94C84.5101 65.94 84.3401 65.43 84.1601 65.12C83.7401 65.41 83.2201 65.8 82.4501 66.35C81.7601 66.13 80.7201 66.13 79.6901 66.52C79.6501 66.73 79.6001 67.04 79.5401 67.35C79.7901 67.51 80.0401 67.66 80.3101 67.83C80.2801 67.89 80.2601 67.96 80.2301 68.02C79.9601 67.98 79.6901 67.95 79.4301 67.91C79.3101 68.48 79.2001 69.02 79.0701 69.74C78.6201 69.52 78.2501 69.35 77.9401 69.2C77.7701 69.5 77.5901 69.86 77.4401 70.13C76.9501 69.99 76.6201 69.84 76.2601 69.81C75.3201 69.72 75.3201 69.74 75.4601 68.6C76.1101 68.88 76.7301 69.16 77.4001 69.46C77.6501 68.94 77.6601 68.54 77.2201 67.87C76.4201 66.64 75.9401 65.21 75.4201 63.83C75.3101 63.55 75.5801 63.09 75.7201 62.74C76.1801 61.7 76.4901 60.54 77.8601 60.16C77.6801 59.84 77.5701 59.61 77.4301 59.36C78.0001 58.75 78.0601 57.61 79.2501 57.64C79.6301 57.64 80.0201 57.68 80.4001 57.68C82.2701 57.68 84.1801 57.88 86.0001 57.59C86.8901 57.45 87.7601 57.59 88.6001 57.57C89.4901 57.57 90.4101 58.25 91.3201 58.61C91.7701 58.79 92.2401 58.91 92.6901 59.07C93.1301 59.67 93.5901 60.34 94.0901 60.98C94.4801 61.5 94.7701 61.97 94.0101 62.44C93.8901 62.52 93.9101 62.82 93.8501 63.08C94.0101 63.14 94.2201 63.22 94.4301 63.31L94.4501 63.32ZM104.48 84.23C104.04 82.79 103.6 81.35 103.1 79.71C103.03 80.03 103.03 80.17 102.96 80.26C102.2 81.39 103.27 82.55 102.85 83.88C102.51 83.11 102.22 82.49 101.95 81.87C101.86 81.9 101.77 81.93 101.68 81.97C102.03 82.8 102.42 83.64 102.73 84.49C103.11 85.56 103.51 86.63 103.77 87.73C104.07 89.02 104.29 90.33 104.46 91.64C104.52 92.17 104.33 92.73 104.14 93.28C103.94 92 103.75 90.72 103.56 89.44C103.5 89.44 103.45 89.44 103.4 89.46C103.46 90.4 103.51 91.35 103.57 92.31C102.98 90.9 103.43 89.26 102.36 87.96V89.63C102.27 89.63 102.18 89.65 102.09 89.66C102.07 89.37 102 89.07 102.02 88.78C102.15 87.18 101.89 85.68 101.22 84.21C100.68 83.06 100.37 81.82 99.9301 80.62C99.3401 78.97 99.8801 77.77 101.31 76.84C102.22 76.24 103.06 75.51 104.11 74.69C104.25 76.22 104.6 77.72 104.44 79.17C104.29 80.55 104.25 81.85 104.65 83.18C104.74 83.49 104.65 83.86 104.47 84.25L104.48 84.23ZM105.39 60.28C105.37 60.76 105.22 61.23 105.08 62C104.84 61.66 104.54 61.41 104.56 61.18C104.59 60.51 104.75 59.85 104.84 59.2C104.71 59.18 104.58 59.17 104.46 59.16V60.76C104.36 60.76 104.26 60.78 104.16 60.79C104.14 60.34 104.05 59.89 104.1 59.45C104.18 58.73 104.68 57.84 104.4 57.35C103.86 56.41 104.43 55.89 104.72 55.22V55.2C104.37 55.26 103.96 55.72 103.67 55.01C103.58 54.8 103.09 54.76 102.84 54.68C102.94 55.49 103.16 56.29 103.09 57.06C103.01 57.77 102.53 58.37 101.66 58.2L100.19 58.38C100.21 58.47 100.22 58.57 100.23 58.65C100.51 58.6 100.81 58.54 101.1 58.49C101.76 59.7 102.74 59 103.67 58.99C103.44 59.13 103.23 59.25 102.9 59.45C103.21 59.55 103.45 59.63 103.88 59.77C103.72 60.74 103.53 61.74 103.42 62.75C103.38 63.02 103.64 63.32 103.65 63.61C103.69 64.57 103.71 65.52 103.11 66.38C102.93 66.64 102.9 66.99 102.94 67.37C103.19 67.09 103.43 66.81 103.74 66.44C103.69 67.77 102.32 67.76 101.79 68.59C102.86 68.86 103.31 68.05 103.89 67.5C103.96 67.58 104.04 67.66 104.11 67.74C103.77 68.14 103.42 68.54 102.98 69.04V71.69C102.98 73 102.2 73.69 100.92 73.6C100.67 73.58 100.4 73.64 100.17 73.75C100.11 73.78 100.11 74.19 100.21 74.26C100.47 74.44 100.79 74.66 101.06 74.63C101.61 74.57 102.15 74.36 102.83 74.18C102.86 74.22 103.03 74.42 103.25 74.68C102.6 75.14 101.94 75.62 101.34 76.06C100.64 75.86 100.97 74.63 99.9701 74.93C100 75.43 100.11 75.96 100 76.43C99.9301 76.71 99.5401 76.98 99.2301 77.14C99.1201 77.21 98.7901 77 98.6401 76.85C97.5001 75.57 97.1201 74.15 98.7401 72.05C99.1301 71.53 99.3901 70.88 99.6001 70.25C99.6801 70.03 99.4201 69.47 99.3701 69.48C98.9601 69.54 98.2901 69.58 98.2001 69.82C97.7201 71.07 97.3901 72.38 96.9801 73.75C96.7301 73.11 96.4801 72.51 96.2901 71.89C96.2701 71.79 96.6001 71.6 96.9001 71.34C96.9001 71.31 96.8101 71.08 96.7401 70.86C96.6701 70.64 96.5301 70.39 96.5601 70.18C96.6001 69.97 96.8201 69.81 96.9601 69.62C97.0601 69.8 97.1701 69.98 97.3001 70.22C97.4601 69.75 97.6001 69.32 97.7801 68.82C97.5901 68.65 97.3501 68.44 97.1101 68.22C97.3801 66.57 97.6601 64.95 97.9301 63.33C97.7101 63.3 97.4401 63.27 97.1001 63.23C97.2301 63.67 97.3501 64.09 97.4701 64.51C97.3801 64.53 97.2901 64.55 97.2101 64.57C97.0401 63.77 96.6201 62.9 96.7801 62.17C96.9801 61.27 96.3401 61.01 96.0001 60.42C96.2401 60.45 96.4301 60.48 96.6301 60.51C95.7701 59.81 95.2101 58.93 95.2301 57.83C95.2501 56.83 95.4501 55.84 95.5101 55.3C95.4301 53.86 95.3401 52.84 95.3301 51.82C95.3301 51.62 95.5701 51.43 95.6501 51.29C95.8701 51.81 96.0301 52.21 96.2001 52.62C96.5801 52.38 96.8801 52.2 97.2701 51.95C96.6101 51.75 96.1501 51.48 96.5301 50.73C96.5701 50.63 96.2601 50.22 96.0501 50.16C95.5001 50 95.2301 49.76 95.4301 49.13C95.6501 49.13 95.8801 49.16 96.1301 49.18C96.0201 48.84 95.9201 48.48 95.8101 48.09C95.9001 48.07 96.1001 48.02 96.3101 47.97C96.3301 47.9 96.3401 47.82 96.3601 47.74C95.9901 47.59 95.6001 47.45 95.0501 47.23C95.0501 47.19 95.0301 46.98 95.0001 46.76C95.3901 46.78 95.7101 46.8 96.0201 46.82C95.4001 46.52 94.3101 45.35 94.5001 44.77C94.7001 44.17 94.2801 44.23 94.0601 44.1C93.7501 43.92 93.3801 43.83 93.0601 43.69C92.7301 43.54 92.6301 42.84 92.0501 43.26C91.9201 43.05 91.8001 42.86 91.7201 42.71C91.3601 42.66 90.9301 42.73 90.7001 42.55C89.6001 41.74 89.6201 41.71 88.8701 42.34C88.3701 42.29 87.9201 42.1 87.6801 42.26C86.9901 42.7 86.4301 42.55 85.7001 42.31C84.5801 41.94 83.4301 41.56 82.1801 41.84C81.5901 41.97 80.8001 42.52 80.3901 41.51C80.2301 41.12 80.1301 40.71 79.9901 40.23C79.6601 40.32 79.2001 40.43 78.6601 40.57C78.6301 40.51 78.5501 40.34 78.4701 40.19C78.2101 40.25 77.9501 40.32 77.6801 40.39C77.6601 40.2 77.6301 40.03 77.6001 39.84C77.3601 39.88 77.1201 39.9 76.8801 39.97C76.5801 40.06 76.2801 40.23 75.9701 40.28C75.7301 40.33 75.2101 40.71 75.4001 39.96C75.1101 39.93 74.8001 39.9 74.3201 39.85C74.1101 39.48 73.8001 38.89 73.5201 38.39C73.1301 38.34 72.7201 38.28 72.2501 38.21V39.12C72.1801 39.15 72.1101 39.17 72.0501 39.19C71.8601 38.8 71.6801 38.41 71.5101 38.04C71.2401 38.22 70.9501 38.4 70.6601 38.59C70.2501 37.49 70.0001 37.41 69.6001 37.9C68.8901 37.98 68.2501 37.87 68.0101 38.13C67.5801 38.6 67.2101 38.3 66.8101 38.33C66.1901 38.37 65.5801 38.54 64.9901 38.7C64.8801 38.73 64.8801 39.09 64.8001 39.46C63.9001 38.69 63.1701 39.62 62.3301 39.67C62.1101 39.67 61.9801 40.41 61.7101 40.73C61.4601 41.04 61.1001 41.27 60.6801 41.62C60.7201 41.66 60.7601 41.76 60.7301 41.84C60.6501 42.07 60.5001 42.26 60.3901 42.47C60.3201 42.26 60.2301 42.06 60.1901 41.84C60.1401 41.55 60.1301 41.25 60.1101 40.93C59.6601 41.02 59.3601 41.08 58.9701 41.15C59.1601 41.36 59.2801 41.49 59.4901 41.72C59.1401 41.79 58.8801 41.83 58.8201 41.84C58.5001 43.18 56.9301 43.05 56.4701 44.09C56.9901 43.91 57.5001 43.74 58.0201 43.56C58.0501 43.61 58.0801 43.67 58.1101 43.72C57.5801 44.12 57.0501 44.53 56.5101 44.95C56.7701 45.22 56.9601 45.41 57.2201 45.68C57.3001 45.31 57.3601 45 57.4401 44.66C57.9201 45.42 57.0701 47.99 56.4801 48.29V50.27C56.6401 50.27 56.8401 50.23 57.2101 50.19C57.0901 50.42 57.0101 50.56 56.9501 50.73C56.6301 51.52 56.3101 52.3 56.0001 53.09C55.9201 53.29 55.9201 53.52 55.8101 53.67C54.7401 55.08 54.7301 55.07 54.8601 56.91C54.6301 56.95 54.4001 57 54.0801 57.06C54.1901 57.34 54.2801 57.6 54.3801 57.89C54.5901 57.71 54.7701 57.57 55.0301 57.36C54.8701 59.05 54.7301 60.62 54.5601 62.35C54.3001 62.1 54.1001 61.9 53.7601 61.56C53.7201 61.56 53.4401 61.64 53.2601 61.68C53.1001 60.93 52.8601 60.24 52.8401 59.54C52.8401 58.87 53.0501 58.2 53.1901 57.37C53.2101 57.35 53.4201 57.22 53.6101 57.1C53.5201 57.08 53.4201 57.06 53.3401 57.04C53.3701 56.74 53.3101 56.39 53.4401 56.15C53.5801 55.89 54.1201 55.64 54.0801 55.49C53.9401 55.02 53.6201 54.6 53.3801 54.15C53.1701 53.76 52.8101 53.32 52.8501 52.93C52.9401 51.97 52.4301 50.87 53.3501 50.05C53.3101 48.07 54.7201 46.52 54.9901 44.62C55.1101 43.78 55.0401 42.91 55.0901 42.06C55.1101 41.72 55.1501 41.35 55.2801 41.05C55.7301 40.05 56.2301 39.08 56.7001 38.09C56.7601 37.96 56.7501 37.82 56.8101 37.7C57.0701 37.14 57.2401 36.57 58.1001 36.72C58.6101 36.8 59.1501 36.63 59.7301 36.45C59.2301 36.4 58.7301 36.35 58.2201 36.3C58.1901 36.22 58.1501 36.14 58.1101 36.05C58.6301 35.8 59.1501 35.55 59.7401 35.27C59.3601 35.22 59.0301 35.19 58.4301 35.12C58.9101 34.78 59.2001 34.57 59.5001 34.35C59.9801 34.75 60.5601 35.21 61.1301 35.68C61.2601 35.53 61.3901 35.4 61.5201 35.26C60.8301 34.86 60.1501 34.46 59.4601 34.05C59.5801 33.87 59.6901 33.7 59.8001 33.52C60.5001 33.32 61.1901 33.13 61.9501 32.91C61.8701 32.84 61.6901 32.71 61.5601 32.54C61.4001 32.3 61.2901 32.02 61.1701 31.76C61.4001 31.66 61.6101 31.54 61.8501 31.48C62.2001 31.38 62.5701 31.25 62.9301 31.23C63.7001 31.19 64.4601 31.23 65.1201 31.23C65.0501 30.98 64.9401 30.63 64.8401 30.26C64.8401 30.26 64.8101 30.26 64.8001 30.26L64.7801 30.24C64.3401 30.35 63.8901 30.52 63.4501 30.54C62.9401 30.57 62.4101 30.45 61.9101 30.28C63.3001 28.95 63.3901 28.61 64.7901 30.23C64.8101 30.23 64.8201 30.23 64.8401 30.23C64.8401 30.23 64.8401 30.26 64.8401 30.27C65.2701 30.39 65.6901 30.51 66.1701 30.65C65.7801 29.85 65.4701 29.23 65.1801 28.6C65.2801 28.55 65.3801 28.49 65.4801 28.43C65.8501 29 66.2301 29.57 66.6001 30.13C66.6401 30.1 66.6901 30.08 66.7401 30.05C66.6301 29.73 66.5101 29.41 66.4101 29.1C67.0101 29.37 67.5501 29.62 68.0401 29.86C68.3901 29.49 68.7201 29.14 69.0401 28.79C69.1201 28.84 69.1901 28.88 69.2601 28.93C69.2101 28.67 69.1501 28.43 69.0901 28.14C69.1801 28.14 69.2401 28.14 69.2801 28.14C69.6401 28.36 69.9801 28.66 70.3701 28.78C70.6001 28.84 71.0101 28.65 71.1601 28.45C71.3801 28.14 71.4401 27.7 71.5701 27.33C72.3301 27.78 72.9901 28.17 73.7001 28.6C73.7701 28.4 73.8801 28.07 73.9901 27.73C74.3968 27.95 74.6235 28.4367 74.6701 29.19C75.0601 28.56 75.4301 27.99 75.9501 27.18C76.2101 28.05 76.3801 28.67 76.5801 29.37C76.8801 28.87 77.1301 28.45 77.3801 28.02C77.4501 28.04 77.5201 28.06 77.5901 28.07V29.7C77.6701 29.7 77.7501 29.7 77.8301 29.7V27.69C77.9101 27.69 77.9801 27.67 78.0601 27.66C78.1301 27.87 78.2001 28.06 78.3001 28.36C78.4001 28.19 78.4901 28.04 78.6101 27.82C78.7801 28.14 78.8801 28.37 79.0401 28.66C79.3301 28.45 79.5801 28.28 79.8301 28.11C80.1501 28.39 80.4901 28.68 80.8801 29.02C81.1501 28.89 81.5801 28.7 81.9801 28.51C82.1001 29.17 82.3101 29.22 83.1501 28.61C83.0901 28.99 83.0401 29.27 82.9901 29.56C83.4035 29.8533 83.8635 29.6767 84.3701 29.03V29.93C84.7101 29.69 84.9601 29.52 85.4501 29.17C85.2101 29.57 85.1101 29.76 85.0101 29.94C85.0401 29.98 85.0701 30.02 85.1101 30.06C85.6101 29.72 86.1201 29.36 86.6301 29.02C86.6601 29.06 86.7001 29.11 86.7401 29.16C86.5001 29.43 86.2701 29.72 86.0001 30.04C86.7201 30.12 87.3701 30.19 88.0301 30.27C88.0301 30.32 88.0001 30.36 87.9801 30.41C88.3301 30.5 88.6801 30.59 89.0001 30.67C88.8401 30.93 88.6101 31.3 88.2501 31.84C89.1101 31.75 89.7701 31.67 90.5801 31.58C90.2001 31.84 89.9001 32.06 89.5201 32.33C90.3201 32.27 90.9701 32.22 91.6301 32.16C92.2401 34.02 94.0401 33.52 95.4001 34.31C95.0101 34.64 94.6001 34.99 94.1201 35.39C94.7001 35.29 95.2101 35.2 95.7301 35.12C95.7701 35.24 95.8101 35.35 95.8501 35.46C95.3601 35.91 94.8701 36.37 94.5201 36.7C95.7501 37.14 97.0701 37.62 98.4001 38.09C98.4001 38.18 98.4301 38.28 98.4401 38.36C97.8401 38.6 97.2301 38.84 96.5301 39.12C97.2301 39.31 97.8301 39.46 98.6401 39.67C98.3701 39.39 98.2501 39.25 98.1301 39.12C98.4401 38.81 99.9901 39.41 100.11 39.65C99.2901 40.18 98.4801 40.69 97.6801 41.2C97.7101 41.29 97.7401 41.38 97.7601 41.47C98.5001 41.61 99.2201 41.74 99.9001 41.87C99.5301 42.06 99.1401 42.26 98.7501 42.46C98.7701 42.55 98.7901 42.65 98.8101 42.74C101.25 42.57 101.77 44.83 103.15 46.03C102.5 44.55 101.54 43.32 100.18 42.33C100.63 42.6 101.13 42.79 101.51 43.13C102.46 44.01 103.4 44.93 103.57 46.36C103.62 46.75 104.06 47.12 104.09 47.51C104.16 48.33 104.57 48.99 104.89 49.71C105.02 50.01 104.8 50.46 104.65 50.92C104.12 49.25 103.87 47.4 101.95 46.42C102.45 47.05 102.91 47.56 103.29 48.13C103.55 48.5 103.79 48.93 103.89 49.36C104.19 50.77 104.47 52.2 104.69 53.62C104.78 54.14 104.72 54.69 104.73 55.22H104.75C104.75 55.22 104.75 55.24 104.75 55.25C105.66 55.87 105.34 56.82 105.39 57.66C105.44 58.54 105.46 59.44 105.42 60.32L105.39 60.28ZM105.84 60.3C106.37 59.77 106.84 59.96 107.3 60.32C107.17 60.02 107.04 59.7 106.92 59.39C107 59.07 107.08 58.64 107.2 58.23C107.28 57.98 107.45 57.55 107.52 57.55C107.83 57.6 108.3 57.71 108.4 57.93C108.73 58.63 108.93 59.39 109.19 60.13C108.71 60.25 108.11 60.39 107.51 60.53C107.24 60.83 106.95 61.13 106.59 61.51C106.31 61.06 106.07 60.68 105.83 60.29L105.84 60.3ZM108.43 106.04C108.43 106.13 108.23 106.21 108.13 106.3C108.05 106.19 107.89 106.08 107.9 105.99C107.94 105.49 108.03 105 108.1 104.51H108.44C108.44 105.03 108.44 105.54 108.44 106.05L108.43 106.04ZM109.71 75.36C109.39 73.5 109.09 71.82 108.77 70.02C110.77 71.44 111.18 73.56 109.71 75.36ZM112.08 82.35C111.87 82.2 111.67 82.06 111.44 81.9C111.42 81.94 111.37 82.11 111.27 82.24C111.2 82.34 111.04 82.47 110.96 82.45C110.86 82.42 110.72 82.23 110.74 82.14C110.81 81.45 110.93 80.77 111.02 80.09C111.1 80.07 111.19 80.05 111.27 80.04C111.61 80.72 111.97 81.4 112.31 82.09C112.23 82.18 112.15 82.27 112.07 82.36L112.08 82.35ZM113 90.82C113.29 90.9 113.23 91.62 114.27 90.95C113.56 91.69 112.5 91.29 111.42 90.22C112.06 90.46 112.53 90.64 113 90.82ZM110.47 67.74C111.67 68.23 112.61 69.43 112.35 70.35C111.75 69.52 111.15 68.68 110.47 67.74ZM111.73 96.5C111.6 96.5 111.47 96.63 111.41 96.67C111 95.47 110.61 94.34 110.22 93.2C111.77 92.84 112.86 94.39 113.01 95.37C113.09 95.91 112.32 96.55 111.73 96.51V96.5ZM114.1 95.05C113.24 94.23 112.53 93.63 111.93 92.94C111.73 92.71 111.81 92.26 111.75 91.84C111.64 91.7 111.44 91.44 111.23 91.17C111.31 91.09 111.4 91.01 111.48 90.93C112.28 91.65 113.56 91.76 113.92 93.11C114.02 92.88 114.1 92.72 114.18 92.55C114.26 92.55 114.35 92.55 114.43 92.57C114.47 93.02 114.51 93.47 114.56 94.13C114.21 93.87 114.02 93.74 113.83 93.6C113.91 94.02 113.99 94.45 114.1 95.04V95.05ZM115.08 81.44C115.08 81.92 115.11 82.4 115.08 82.88C115.04 83.49 114.74 83.88 114.1 83.99C113.45 84.1 113.2 83.76 113.08 83.19C113.02 82.93 112.88 82.69 112.78 82.44C113.21 82.24 113.57 82.09 113.92 81.92C113.9 81.86 113.87 81.79 113.85 81.73C113.49 81.84 113.12 81.96 112.72 82.08C112.43 81.26 111.59 80.56 112.31 79.63C113.02 79.63 113.74 79.59 114.45 79.65C114.73 79.67 115.23 79.88 115.24 80.01C115.27 80.37 115.08 80.76 114.95 81.11C114.91 81.23 114.72 81.29 114.43 81.48C114.78 81.45 114.94 81.43 115.11 81.42L115.08 81.44ZM116.41 83.3C116.39 83.48 115.79 83.58 115.37 83.77C115.15 81.82 115.37 80.73 116.5 80.48C117.5 81.44 116.5 82.36 116.41 83.3ZM116.94 78.74C116.12 77.72 115.12 76.82 115.33 75.3C115.29 75.57 115.26 75.84 115.22 76.19C114.52 75.31 113.87 74.46 113.21 73.63C113.65 74.35 114.11 75.05 114.53 75.8C114.8 76.3 115.02 76.85 115.3 77.47C114.21 76.73 113.27 76.1 112.31 75.45V72.95C112.58 73.15 112.9 73.39 113.22 73.64C113.22 73.64 113.24 73.64 113.25 73.66C113.03 73.3 112.79 72.93 112.63 72.54C112.53 72.3 112.58 72.01 112.56 71.74C112.69 71.7 112.83 71.65 112.95 71.61C113.54 72.43 114.08 73.3 114.72 74.08C115.14 74.6 115.61 75.14 116.18 75.44C117.76 76.3 118.02 77.13 116.95 78.74H116.94ZM113.03 70.34C113.53 71 114.03 71.66 114.59 72.39C113.66 72.33 112.85 71.17 113.03 70.34ZM119.43 74.72C119.49 76.18 119.45 77.59 118.32 78.84C118.18 77.4 117.95 76.08 116.79 75.15C116.37 74.81 115.94 74.42 115.66 73.97C114.99 72.84 114.55 71.55 113.76 70.52C112.82 69.3 113.04 67.87 112.61 66.58C112.2 65.33 111.75 64.09 111.29 62.85C111.23 62.69 111.06 62.6 110.95 62.48C111.28 63.42 111.67 64.34 111.96 65.31C112.2 66.1 112.32 66.92 112.28 67.8C111.92 67.06 111.56 66.32 111.2 65.58C111.15 65.6 111.1 65.62 111.05 65.64C111.25 66.14 111.45 66.63 111.65 67.13C111.84 67.61 112.03 68.08 112.24 68.62C111.44 68.01 110.56 67.58 110.04 66.87C109.46 66.09 109.05 65.1 108.88 64.14C108.74 63.35 108.42 62.81 107.87 62.33C107.61 62.09 107.31 61.91 106.9 61.6C107.79 61.15 108.41 60.8 109.05 60.53C109.79 60.21 109.85 60.94 110.14 61.3C110.42 61.67 110.68 62.07 110.94 62.46C110.53 61.68 110.08 60.94 109.69 60.14C109.24 59.21 108.85 58.26 108.42 57.29C108.63 57.14 108.79 57.02 108.89 56.95C108.64 55.38 107.38 54.86 106.26 54.25C106.12 52.87 106.98 52.29 107.9 52.04C107.59 51.27 107.31 50.6 106.95 49.71C108.65 50.51 108.89 51.88 109 53.24C109.09 54.33 109.02 55.43 109.24 56.52C109.39 56.06 109.53 55.6 109.67 55.13C109.52 54.32 109.26 53.5 109.23 52.69C109.18 51.23 108.36 50.2 107.42 49.26C106.97 48.8 107.09 48.89 107.52 48.54C108.3 47.92 108.86 47.06 109.68 46.11C109.42 45.52 109.02 44.62 108.65 43.7C108.58 43.51 108.63 43.27 108.63 43.05C108.85 43.12 109.07 43.16 109.27 43.27C109.72 43.53 110.2 43.76 110.59 44.1C110.92 44.4 111.35 44.86 111.35 45.24C111.35 46.73 111.2 48.22 111.09 49.72C111.05 50.28 110.97 50.83 110.91 51.39C110.86 51.93 110.91 52.47 110.19 52.71C109.98 52.78 109.85 53.25 109.79 53.56C109.7 54.08 109.7 54.61 109.67 55.14C109.84 55.86 109.94 56.59 110.19 57.28C110.26 57.51 110.68 57.59 110.89 57.8C111.48 58.39 112.12 58.96 112.59 59.63C112.86 60.02 112.96 60.61 112.97 61.11C112.99 62.53 113.69 63.67 114.36 64.84C114.46 65.03 114.53 65.23 114.58 65.36C115.22 65.46 115.94 65.36 116.37 65.68C116.94 66.11 117.28 66.84 117.7 67.47C117.7 67.5 117.39 67.74 117.18 67.91C117.54 68.96 117.84 70.09 119.22 70.42C119.4 70.46 119.54 71.01 119.54 71.32C119.54 72.45 119.38 73.57 119.43 74.7V74.72ZM98.1701 97.73L98.1901 97.76C98.2401 97.69 98.2801 97.63 98.3301 97.56C98.2701 97.62 98.2201 97.67 98.1701 97.73ZM48.8901 51.84L48.8601 51.87C48.8601 51.87 48.8901 51.9 48.9001 51.91C48.9001 51.89 48.9001 51.86 48.9001 51.84H48.8901Z" fill="#CFE8D7"/>
<path d="M31.7902 77.55C31.0602 77.47 30.3802 77.39 29.5602 77.3C29.3102 77.9 28.7702 78.12 27.8802 77.66C26.6502 77.02 26.1902 77.7 26.3802 78.75C26.4702 79.22 26.4002 79.51 25.8902 79.64C25.8402 79.64 25.8002 79.69 25.7602 79.74C25.2602 76.86 24.9902 73.92 24.9902 70.91C24.9902 70.76 24.9902 70.62 24.9902 70.47C25.2802 70.74 25.5602 71.01 25.8402 71.28C25.9602 71.4 25.9702 71.69 25.9502 71.9C25.8402 72.82 25.4702 73.78 25.6602 74.63C25.8602 75.5 26.5802 76.25 27.2002 77.25C27.5202 76.45 28.4902 76.76 28.4502 75.63C28.4202 74.97 28.1202 74.43 28.0802 73.82C29.3102 75.05 30.5002 76.25 31.7802 77.54L31.7902 77.55Z" fill="#CFE8D7"/>
<path d="M29.8599 65.88C29.5299 65.41 29.0999 64.82 28.2299 65.35C27.3999 64.52 26.5199 63.64 25.6499 62.75C25.8499 61.46 26.0999 60.19 26.4099 58.94C26.5199 59.24 26.5999 59.56 26.6699 59.86C26.8999 60.94 27.0799 61.44 28.0999 61.67C28.3199 61.72 28.5199 61.89 28.7199 62.03C30.3399 63.29 31.9499 64.55 33.5699 65.82C33.7599 65.97 33.9599 66.08 34.3399 66.32C34.0599 65.68 33.8799 65.27 33.6999 64.87C33.7599 64.85 33.8099 64.82 33.8599 64.8C34.0899 65.18 34.2999 65.58 34.5299 65.96C36.2099 65.52 35.7699 67.18 36.5699 67.76C36.0499 67.98 35.6999 68.12 35.3399 68.26C35.6899 69.3 36.0699 70.42 36.3999 71.4C36.0399 71.67 35.7599 71.87 35.4499 72.11C36.2199 73.16 37.8799 73.4 37.8799 74.96C35.2299 72.3 32.5899 69.64 29.9699 67.01C30.6499 66.71 30.0899 66.2 29.8699 65.89L29.8599 65.88Z" fill="#CFE8D7"/>
<path d="M35.1301 40.39C35.1801 40.88 35.2301 41.39 35.2801 41.91C35.1901 41.94 35.1101 41.97 35.0201 42C34.8801 41.7 34.7501 41.39 34.6201 41.09C34.7901 40.85 34.9501 40.62 35.1301 40.39Z" fill="#CFE8D7"/>
<path d="M36.3201 40.8C35.9301 40.48 35.6401 40.25 35.3901 40.04C35.5601 39.81 35.7001 39.62 35.8701 39.41C36.0201 39.85 36.1601 40.3 36.3201 40.79V40.8Z" fill="#CFE8D7"/>
<path d="M39.0201 78.65C38.7801 79.68 38.5501 80.72 38.2701 81.93C37.6701 81.66 37.1301 81.41 36.5801 81.16C36.6201 81.06 36.6701 80.95 36.7101 80.86C37.1001 81.02 37.5001 81.17 37.8901 81.34C37.9201 81.26 37.9501 81.19 37.9801 81.12C37.7901 80.99 37.6201 80.86 37.4301 80.73C37.6201 80.62 37.7901 80.5 37.9701 80.39C37.6701 78.81 36.2201 78.11 35.3301 76.99C34.9201 76.49 34.5001 76 34.0501 75.53C33.8201 75.28 33.5701 75.03 33.2601 74.89C32.5501 74.57 32.2001 73.97 31.8701 73.32C31.7101 73.02 31.4001 72.62 31.1101 72.59C30.3101 72.49 29.7301 71.6 28.8001 72.03C28.7501 72.05 28.6001 71.91 28.4701 71.81C28.8101 71.66 29.1101 71.54 29.4501 71.39C28.6101 70.66 27.8601 70.02 27.1101 69.38C26.5501 68.75 25.9801 68.12 25.4101 67.49C25.3101 67.39 25.2101 67.3 25.1201 67.22C25.1701 66.44 25.2401 65.68 25.3401 64.92C28.1301 67.77 30.9201 70.6 33.6901 73.45C34.3701 74.15 34.9001 75 35.5801 75.69C36.1901 76.31 36.9401 76.77 37.5801 77.36C37.8301 77.59 37.8801 78 38.0801 78.29C38.2401 78.5 38.4801 78.64 38.6901 78.82C38.7901 78.76 38.9001 78.7 39.0001 78.65H39.0201Z" fill="#CFE8D7"/>
<path d="M33.3602 98.91C32.8702 98.17 32.4102 97.43 31.9702 96.66C32.3902 96.84 32.7902 97.09 33.1302 97.49C33.1002 96.88 33.3702 96.56 34.0102 96.83C34.1302 96.5 34.2302 96.21 34.3902 95.7C34.7302 97.24 34.4202 98.04 33.3602 98.9V98.91Z" fill="#CFE8D7"/>
<path d="M36.5999 62.32C36.4899 62.36 36.3899 62.41 36.2899 62.45C34.3399 57.66 32.3799 52.86 30.4199 48.02C30.4999 47.84 30.5899 47.67 30.6799 47.5C32.6599 52.45 34.6399 57.38 36.6099 62.32H36.5999Z" fill="#CFE8D7"/>
<path d="M39.71 41.32C39.86 41.51 40.08 41.67 40.16 41.89C41.25 44.99 42.31 48.09 43.4 51.19C43.52 51.54 43.53 52.11 44.22 51.85C44.33 51.81 44.62 52.03 44.69 52.19C44.93 52.68 45.11 53.2 45.31 53.72C43.81 54.27 43.82 54.26 43.38 52.71C42.98 51.32 42.57 49.94 42.12 48.56C41.34 46.14 40.52 43.72 39.72 41.31L39.71 41.33V41.32Z" fill="#CFE8D7"/>
<path d="M35.0902 81.4C35.6402 81.85 36.0202 82.16 36.6202 82.64C36.0502 82.61 35.7502 82.6 35.4402 82.58C35.0602 83.03 34.9302 83.48 35.0002 84.14C35.0502 84.7 34.5802 85.3 34.2902 86C33.5702 86.3 32.6102 86.61 31.8002 85.99C31.4802 85.75 31.5402 85.02 31.4302 84.52C31.5702 84.46 31.7102 84.4 31.8602 84.34C32.1802 84.83 32.5102 85.31 32.8402 85.82C34.1702 85.38 34.3002 84.97 34.2802 83.59C34.2802 82.83 34.8302 82.07 35.1002 81.4H35.0902Z" fill="#CFE8D7"/>
<path d="M39.2101 63.27C39.5401 64.2 39.8501 65.04 40.2301 66.11C39.5701 66.11 38.7701 66.3 38.6401 66.08C37.5601 64.33 37.6001 64.3 39.2101 63.27Z" fill="#CFE8D7"/>
<path d="M35.7499 88.22C35.1499 88.06 34.5499 87.9 33.8799 87.72C34.0699 87.39 34.1999 87.11 34.3799 86.87C34.6599 86.48 34.9299 86.27 35.4599 86.67C35.8999 87.01 36.5099 87.13 37.1199 87.38V88.24C36.5899 87.57 36.1499 87.71 35.7499 88.22Z" fill="#CFE8D7"/>
<path d="M39.7201 41.27C39.1801 39.77 38.6501 38.26 38.1201 36.75C38.1901 36.66 38.2601 36.58 38.3401 36.5C38.7701 37.78 39.1901 39.05 39.6201 40.33C39.7101 40.61 39.7001 40.95 39.7301 41.26L39.7201 41.27Z" fill="#CFE8D7"/>
<path d="M48.89 51.81C48.78 51.78 48.6 51.79 48.56 51.72C48.21 51.07 47.87 50.42 47.57 49.75C47.28 49.11 47.05 48.45 46.79 47.79C47.47 47.83 48.1 49.1 48.86 51.84L48.89 51.81Z" fill="#CFE8D7"/>
<path d="M42.59 61.16C42.17 60.79 41.71 60.45 41.34 60.04C41.21 59.9 41.3 59.57 41.28 59.33C41.52 59.36 41.89 59.3 41.98 59.44C42.31 59.9 42.54 60.43 42.81 60.93C42.74 61.01 42.66 61.08 42.59 61.16Z" fill="#CFE8D7"/>
<path d="M37.6799 39.05C37.2299 38.92 36.9399 38.67 36.8599 38.21C36.9799 38.06 37.1099 37.91 37.2399 37.76C37.3899 38.18 37.5299 38.61 37.6799 39.06V39.05Z" fill="#CFE8D7"/>
<path d="M45.38 43.46C44.38 42.53 45.01 42.01 45.44 41.28C45.69 41.63 45.89 41.89 46.08 42.16C45.99 42.25 45.9 42.33 45.81 42.42C45.73 42.22 45.65 42.02 45.58 41.82C45.52 41.84 45.46 41.85 45.39 41.87V43.45L45.38 43.46Z" fill="#CFE8D7"/>
<path d="M24.8101 69.43C25.7201 69.09 26.0101 69.83 26.4901 70.19C26.2167 70.3633 25.6567 70.11 24.8101 69.43Z" fill="#CFE8D7"/>
<path d="M68.07 98.87C68.6 98.49 69.03 98.17 69.53 97.81C69.33 97.6 69.14 97.4 68.95 97.19C69.4 97.48 70.21 96.76 70.46 97.71C70.88 97.63 71.39 97.44 71.89 97.45C73.02 97.48 72.32 98.25 72.33 98.89C73.22 98.66 73.81 99.41 74.37 99.8C75.05 100.26 75.17 100.13 75.68 99.77C75.84 99.65 76.45 100.12 76.81 100.38C76.86 100.42 76.73 100.88 76.57 101.02C76.16 101.35 75.7 101.61 75.07 102.02C75.71 102.14 76.23 102.23 76.8 102.33V101.35C77.1 101.79 77.27 102.05 77.49 102.37C77.31 102.44 77.1 102.46 77.08 102.53C76.74 103.72 75.56 104 74.81 104.73C74.4 105.13 74.31 105.82 74.01 106.35C73.52 107.24 71.97 107.33 71.35 106.52C71.26 106.4 71.32 106.16 71.13 106.17C70.71 105.88 70.26 105.61 69.88 105.28C69.58 105.02 69.44 104.53 69.11 104.36C68.31 103.96 68.06 103.32 67.81 102.51C67.65 102 66.91 101.68 66.4 101.24C66.27 101.47 66.15 101.68 66.04 101.89C66.33 100.16 65.06 99.45 64.13 98.58H64.9C64.82 98.28 64.74 98.02 64.68 97.76C64.65 97.63 64.66 97.48 64.61 97.35C64.35 96.75 64.07 96.15 63.71 95.34C64.77 95.68 65.36 96.58 65.27 97.56C65.45 97.23 65.54 97.07 65.65 96.86C65.91 97.07 66.18 97.29 66.48 97.53C66.28 97.74 66.08 97.95 65.82 98.23C66.26 98.32 66.59 98.39 67.03 98.48C67.08 98.4 67.23 98.19 67.4 97.94C67.64 98.27 67.87 98.59 68.08 98.87H68.07Z" fill="#CFE8D7"/>
<path d="M83.5303 111.21C83.4703 111.15 83.4203 111.08 83.3603 111.02C83.0903 111.13 82.8303 111.24 82.5403 111.34C82.2603 110.57 82.1503 109.73 81.7003 109.18C79.5303 106.53 75.7903 106.15 73.5503 109.41C73.2803 109.81 73.1003 109.88 72.7403 109.88H70.3003C70.3003 109.97 70.3003 110.06 70.3003 110.15C71.0403 110.55 72.0503 109.87 72.9403 110.79C72.1003 110.72 71.5203 110.67 70.9603 110.62C70.8203 110.78 70.6403 110.99 70.4203 111.23C71.8203 111.67 73.3503 110.71 74.6803 112.03C74.5803 111.7 74.5403 111.58 74.5003 111.46C74.9303 111.48 75.3503 111.48 75.7803 111.52C76.1303 111.55 76.4903 111.62 76.8303 111.67C76.8603 111.34 76.8803 111.01 76.9103 110.67C77.1003 110.64 77.3603 110.61 77.6503 110.57C77.4403 110.09 77.2603 109.66 77.0803 109.23C77.2003 109.19 77.3303 109.16 77.4403 109.12C77.6903 110.02 77.9403 110.93 78.2403 112C78.8103 111.76 78.7003 111.34 78.4303 110.97C78.0403 110.42 78.2303 110.09 78.5603 109.85C78.9203 110.18 79.2303 110.47 79.5203 110.74C79.6003 110.67 79.6803 110.61 79.7603 110.55C79.3703 109.65 78.9603 108.74 78.5603 107.85C79.6403 107.48 81.2703 109.02 81.9003 110.47C82.1603 111.05 82.4103 111.88 82.1703 112.38C81.8003 113.19 81.0303 113.82 80.4303 114.53L80.4603 114.68C81.0203 114.32 81.5903 113.94 82.2203 113.54C81.9503 114.14 81.7003 114.7 81.4403 115.27C82.2503 114.29 83.1103 113.32 82.6403 111.98C82.9503 111.71 83.2603 111.46 83.5603 111.2L83.5303 111.21ZM75.9703 110.19C75.1603 110.11 74.4503 110.05 73.5903 109.97C74.8003 108.41 76.0503 107.35 78.1403 107.76C76.6203 107.88 75.4803 108.33 75.9603 110.18L75.9703 110.19Z" fill="#CFE8D7"/>
<path d="M72.2301 120.02C72.7301 119.58 73.2701 119.33 73.4001 118.94C73.5901 118.37 73.5901 117.75 73.9901 117.21C74.1001 117.05 73.8201 116.42 73.5701 116.22C73.3001 116 72.8201 116.03 72.4401 115.94C71.7901 115.77 70.9101 115.69 70.9201 114.9C70.9201 114.33 70.6301 114.33 70.3601 114.15C70.2301 114.32 70.0901 114.6 69.9801 114.59C69.1601 114.49 68.1801 114.57 67.5501 114.15C66.5101 113.46 65.6901 112.43 64.7601 111.55C64.4501 111.25 64.1101 110.96 63.7801 110.67C63.7201 110.75 63.6601 110.82 63.6001 110.89C65.5101 112.75 66.8601 115.38 70.2601 115.41C69.9901 115.8 69.8001 116.01 69.7001 116.24C69.6201 116.43 69.5401 116.73 69.6401 116.87C70.2801 117.82 70.9701 118.74 71.6601 119.7C71.7401 119.54 71.8101 119.42 71.9101 119.23C72.1201 120.56 70.9601 120.27 70.4501 120.51C70.7401 120.76 71.0201 120.97 71.3601 121.26C70.8001 121.38 70.2901 121.49 69.8101 121.59C71.0901 121.76 72.3901 121.86 73.7001 121.91C74.3001 121.75 74.9101 121.66 75.5601 121.88C75.7401 121.94 76.0301 121.62 76.1301 121.56C74.8701 121.07 73.6701 120.6 72.2301 120.04V120.02ZM71.5401 120.55C72.3801 120.75 73.1101 120.92 74.0201 121.13C72.4501 121.92 71.9901 121.82 71.5401 120.55Z" fill="#CFE8D7"/>
<path d="M70.3601 114.13C70.1501 113.59 69.9401 113.06 69.7201 112.52C69.7901 112.48 69.8601 112.43 69.9301 112.39C69.5601 112.31 69.1901 112.23 68.8201 112.16C68.8201 112.12 68.8001 112.08 68.8001 112.04C68.9801 112.01 69.1601 111.97 69.3801 111.93C69.2801 111.42 68.4901 110.89 69.6301 110.32C69.0401 110.29 68.6901 110.27 68.3501 110.25C68.3501 110.22 68.3501 110.19 68.3501 110.16C68.6101 110.11 68.8701 110.08 69.1201 109.99C69.6001 109.81 69.8301 109.96 69.8901 110.46C69.9301 110.79 69.9501 111.15 70.1001 111.45C70.2101 111.67 70.5901 112 70.6801 111.95C71.5801 111.49 72.3901 112.19 73.2801 112.12C74.2101 112.05 75.1701 112.33 76.1201 112.46C76.5701 112.52 77.0101 112.57 77.6101 112.64C77.2301 112.77 76.9801 112.88 76.7201 112.94C76.2301 113.06 75.9301 113.33 76.0501 113.86C76.2501 114.79 75.6501 114.98 74.8601 115.1C74.8401 114.55 74.6601 114.33 73.9801 114.55C72.8101 114.93 71.5901 114.3 71.0001 112.93C70.7201 113.48 70.5401 113.83 70.3601 114.17L70.3701 114.16L70.3601 114.13Z" fill="#CFE8D7"/>
<path d="M90.8902 110.56C89.3702 113.68 88.7102 116.96 88.7302 120.36C88.5902 120.4 88.4602 120.43 88.3202 120.46C87.9202 117.2 89.1002 112.15 90.8902 110.57V110.56Z" fill="#CFE8D7"/>
<path d="M98.17 97.7C98.03 98.11 97.95 98.56 97.74 98.94C97.28 99.8 96.75 100.63 96.26 101.47C96.17 101.42 96.09 101.37 96 101.32C96.73 100.12 97.46 98.93 98.19 97.73L98.17 97.7Z" fill="#CFE8D7"/>
<path d="M77.8398 118.77C78.8898 117.8 79.9298 116.82 81.1298 115.71C80.3898 117.28 78.9799 117.92 77.9799 118.95L77.8398 118.77Z" fill="#CFE8D7"/>
<path d="M79.2603 112.72C80.0903 112.59 80.9102 112.45 81.7402 112.32C81.7602 112.48 81.7803 112.65 81.7903 112.81C80.9703 112.87 80.1503 112.93 79.3303 112.98L79.2603 112.72Z" fill="#CFE8D7"/>
<path d="M78.3899 113.6C78.7999 114.64 77.9199 115.27 77.6799 116.13C77.5999 116.1 77.5199 116.08 77.4399 116.05C77.7599 115.23 78.0699 114.42 78.3899 113.6Z" fill="#CFE8D7"/>
<path d="M59.1499 39.13C59.9799 39.17 60.8099 39.21 61.6999 39.25C61.5099 39.67 61.3899 39.94 61.3499 40.02C60.5799 39.8 59.8499 39.58 59.1099 39.37C59.1199 39.29 59.1299 39.21 59.1499 39.13Z" fill="#CFE8D7"/>
<path d="M65.17 37.64C64.55 37.88 63.88 38.13 63.14 38.42C62.76 38.06 63.22 37.37 64.04 37.46C64.44 37.5 64.83 37.59 65.17 37.64Z" fill="#CFE8D7"/>
<path d="M96.1702 49.19C96.4969 49.0633 96.9435 49.3467 97.5102 50.04C96.9402 49.91 96.3702 49.79 95.7002 49.64C95.9202 49.43 96.0602 49.3 96.2002 49.17L96.1702 49.2V49.19Z" fill="#CFE8D7"/>
<path d="M101.21 57.48C102.41 56.54 101.27 55.44 101.6 54.3C102.34 56.53 102.28 57.12 101.21 57.48Z" fill="#CFE8D7"/>
<path d="M99.9603 74.88H98.0503C98.2903 74.17 99.2003 74.66 99.6503 74.08C99.7703 74.43 99.8503 74.67 99.9303 74.9L99.9603 74.87V74.88Z" fill="#CFE8D7"/>
<path d="M80.9502 64.68C80.0402 64.39 79.1302 64.1 78.3002 63.83C78.0202 62.78 78.2302 62.28 79.2902 62.4C79.5702 62.43 79.8802 62.29 80.2502 62.36C80.0102 62.53 79.7502 62.68 79.5502 62.89C79.3802 63.05 79.1302 63.35 79.1902 63.47C79.2802 63.67 79.5602 63.82 79.7902 63.91C80.2102 64.07 80.6402 64.17 81.0702 64.29L80.9602 64.68H80.9502Z" fill="#CFE8D7"/>
<path d="M85.6101 64.51C85.9801 63.98 86.3601 63.44 86.7801 62.83C86.9801 63.1 87.2501 63.46 87.6201 63.95C87.0401 64.21 86.3701 64.5 85.7001 64.8C85.6701 64.7 85.6301 64.61 85.6001 64.51H85.6101Z" fill="#CFE8D7"/>
<path d="M82.9001 64.17C82.1901 63.85 81.6101 63.6 81.0401 63.34C80.9501 63.3 80.9101 63.17 80.8501 63.08C80.9401 63.03 81.0401 62.99 81.1301 62.94C81.5201 62.72 81.9101 62.5 82.3001 62.27C82.4401 62.73 82.5701 63.18 82.7101 63.64C82.7501 63.76 82.8001 63.87 82.9101 64.17H82.9001Z" fill="#CFE8D7"/>
<path d="M65.3999 62.68C65.7799 61.95 66.0299 61.47 66.3199 60.91C66.8999 61.26 67.4599 61.59 68.0099 61.93C68.0099 62.03 68.0099 62.13 68.0099 62.23C67.2099 62.37 66.4099 62.51 65.4099 62.68H65.3999Z" fill="#CFE8D7"/>
<path d="M61.9399 60.37C62.2399 61.11 62.5199 61.8 62.7899 62.46C61.2599 61.62 61.0599 61.16 61.9399 60.37Z" fill="#CFE8D7"/>
<path d="M112.79 105.9H113.18C113.18 105.9 113.1 105.99 113.05 106.04C112.96 106 112.87 105.95 112.78 105.91L112.79 105.9Z" fill="#CFE8D7"/>
<path d="M113.44 105.63C113.39 105.69 113.34 105.75 113.28 105.8C113.11 105.31 112.96 104.86 112.8 104.42C112.8 104.42 112.8 104.4 112.8 104.39C112.98 104.64 113.3 104.85 113.33 105.11C113.35 105.32 113.39 105.49 113.45 105.64L113.44 105.63Z" fill="#CFE8D7"/>
<path d="M110.36 108.68C110.36 108.68 110.3 108.74 110.27 108.76C110.27 108.45 110.25 108.12 110.24 107.81C110.28 108.1 110.32 108.39 110.36 108.68Z" fill="#CFE8D7"/>
<path d="M118.31 112.78H31.6899V131.44H118.31V112.78Z" fill="#CFE8D7"/>
<path d="M53.4849 125.073C53.4927 125.198 53.4712 125.363 53.4204 125.566C53.354 125.8 53.2739 126.154 53.1802 126.626C53.1138 127.087 53.0103 127.321 52.8696 127.329C52.7134 127.333 52.5474 127.331 52.3716 127.323C52.1411 127.312 51.936 127.306 51.7563 127.306C51.3384 127.306 51.0044 127.3 50.7544 127.288C50.5044 127.277 50.4028 127.271 50.4497 127.271C50.2622 127.271 50.0298 127.28 49.7524 127.3C49.729 127.296 49.6997 127.286 49.6646 127.271C49.5903 127.251 49.1997 127.241 48.4927 127.241H47.4204C47.4087 127.241 47.3735 127.234 47.3149 127.218C47.2563 127.206 47.2114 127.2 47.1802 127.2C47.1958 127.13 47.2173 127.034 47.2446 126.913C47.3306 126.898 47.4497 126.866 47.6021 126.82C47.7583 126.745 47.8794 126.616 47.9653 126.433C48.0122 126.386 48.063 126.316 48.1177 126.222C48.1216 126.163 48.1099 126.071 48.0825 125.946C48.0591 125.821 48.0474 125.73 48.0474 125.671C48.0864 125.679 48.1763 125.618 48.3169 125.489C48.3091 125.478 48.2778 125.415 48.2231 125.302C48.2192 125.294 48.188 125.288 48.1294 125.284C48.0513 125.214 48.0688 125.105 48.1821 124.956C48.2485 124.87 48.2817 124.755 48.2817 124.611C48.2817 124.525 48.2661 124.405 48.2349 124.253C48.2075 124.097 48.1938 123.997 48.1938 123.954C48.1938 123.935 48.2036 123.902 48.2231 123.855C48.2427 123.808 48.2524 123.777 48.2524 123.761V123.216C48.2524 123.204 48.2642 123.159 48.2876 123.081C48.311 123.003 48.3247 122.943 48.3286 122.9C48.3286 122.88 48.311 122.804 48.2759 122.671C48.2798 122.683 48.2896 122.605 48.3052 122.437C48.3091 122.398 48.3032 122.347 48.2876 122.284C48.2681 122.206 48.2583 122.152 48.2583 122.12C48.2544 122.066 48.2642 121.96 48.2876 121.804C48.311 121.632 48.3247 121.521 48.3286 121.47C48.3286 121.404 48.3228 121.3 48.311 121.159C48.2993 121.019 48.2935 120.946 48.2935 120.943V120.38C48.2935 120.357 48.3052 120.325 48.3286 120.286C48.3286 120.286 48.3169 120.077 48.2935 119.659C48.2817 119.488 48.2856 119.355 48.3052 119.261C48.3169 119.21 48.3228 119.157 48.3228 119.103C48.3228 118.997 48.3013 118.868 48.2583 118.716C48.2231 118.599 48.188 118.48 48.1528 118.359C48.1489 118.351 48.1509 118.245 48.1587 118.042C48.1587 118.046 48.145 117.618 48.1177 116.759C48.106 116.696 48.0884 116.599 48.0649 116.466C48.0649 116.462 48.0747 116.384 48.0942 116.232C48.0981 116.204 48.0884 116.159 48.0649 116.097C48.0415 116.03 48.0278 115.986 48.0239 115.962C48.0278 115.986 48.0454 115.872 48.0767 115.622C48.0142 115.501 47.8989 115.339 47.731 115.136C47.6841 115.101 47.6099 115.079 47.5083 115.071C47.3794 115.06 47.3013 115.05 47.2739 115.042C47.2544 115.015 47.2544 114.964 47.2739 114.89C47.2935 114.82 47.3208 114.775 47.356 114.755C47.52 114.743 47.5981 114.738 47.5903 114.738C47.9185 114.761 48.4165 114.788 49.0845 114.82C49.2524 114.827 49.3208 114.831 49.2896 114.831C49.9106 114.765 50.2075 114.732 50.1802 114.732H51.0239C51.0317 114.81 51.0103 114.905 50.9595 115.019C50.8228 115.046 50.6177 115.085 50.3442 115.136C50.0864 115.179 49.897 115.37 49.7759 115.71C49.7446 115.808 49.7095 115.989 49.6704 116.255C49.6235 116.638 49.6001 116.909 49.6001 117.07V122.946C49.6001 122.962 49.604 123.005 49.6118 123.075C49.6196 123.146 49.6235 123.193 49.6235 123.216C49.6353 123.454 49.6353 123.665 49.6235 123.849C49.6079 124.114 49.6411 124.259 49.7231 124.282C49.7192 124.271 49.7095 124.392 49.6938 124.646C49.6899 124.646 49.6802 124.654 49.6646 124.669C49.77 125.165 49.8228 125.452 49.8228 125.53C49.7681 125.613 49.7095 125.745 49.647 125.929C49.6431 125.976 49.6958 126.14 49.8052 126.421C49.9575 126.429 50.186 126.446 50.4907 126.474C50.5454 126.482 50.6294 126.529 50.7427 126.614C50.7622 126.587 50.8032 126.54 50.8657 126.474C50.9634 126.47 51.1001 126.478 51.2759 126.497C51.4673 126.513 51.606 126.521 51.6919 126.521C51.7075 126.521 51.7427 126.503 51.7974 126.468C51.8521 126.437 51.8931 126.417 51.9204 126.409C52.0259 126.39 52.1802 126.351 52.3833 126.292C52.4263 126.277 52.4985 126.195 52.6001 126.046C52.7485 125.835 52.8228 125.73 52.8228 125.73C53.0493 125.452 53.1606 125.204 53.1567 124.986C53.2349 125.001 53.3442 125.03 53.4849 125.073ZM48.4282 118.347C48.4243 118.249 48.4224 118.142 48.4224 118.025C48.4224 117.911 48.4263 117.739 48.4341 117.509C48.4419 117.279 48.4458 117.107 48.4458 116.993C48.4458 116.489 48.3853 116.091 48.2642 115.798C48.2407 115.841 48.2368 115.925 48.2524 116.05C48.2642 116.14 48.2759 116.23 48.2876 116.32C48.3032 116.812 48.3501 117.488 48.4282 118.347ZM56.1392 122.431C56.1274 122.634 56.1021 122.921 56.063 123.292C56.0161 123.394 55.9575 123.536 55.8872 123.72C55.8716 123.798 55.8423 123.907 55.7993 124.048C55.7837 124.091 55.7329 124.163 55.647 124.265C55.5454 124.39 55.4634 124.452 55.4009 124.452H53.9067C53.8794 124.452 53.7036 124.446 53.3794 124.435C53.0552 124.423 52.8794 124.417 52.8521 124.417H51.9497C51.9263 124.417 51.8052 124.405 51.5864 124.382C51.3716 124.363 51.2505 124.353 51.2231 124.353H50.3384L50.2622 124.271C50.3052 124.216 50.4751 124.099 50.772 123.919C50.9751 123.79 51.0767 123.634 51.0767 123.45V121.599C51.0767 121.298 51.1235 120.894 51.2173 120.386C51.1665 120.23 51.1567 120.034 51.188 119.8C51.1177 119.741 51.0825 119.659 51.0825 119.554C51.0825 119.546 51.1216 119.386 51.1997 119.073C51.2036 119.046 51.1841 118.991 51.1411 118.909C51.0864 118.812 51.0571 118.761 51.0532 118.757C51.0259 118.675 51.0142 118.546 51.0181 118.37C51.0181 118.128 51.0181 117.995 51.0181 117.972C51.0063 117.839 50.979 117.732 50.936 117.65C50.8774 117.536 50.7817 117.446 50.6489 117.38C50.5317 117.329 50.4146 117.277 50.2974 117.222C50.3521 117.093 50.4106 117.025 50.4731 117.017C50.5942 117.032 50.7681 117.036 50.9946 117.029C51.2446 116.97 51.3657 116.941 51.3579 116.941H52.395C52.4106 116.941 52.5278 116.954 52.7466 116.982C52.9692 117.009 53.1372 117.025 53.2505 117.029C53.2974 117.029 53.688 117.003 54.4224 116.952C54.5903 116.941 55.0298 116.952 55.7407 116.988C55.8032 117.03 55.8345 117.083 55.8345 117.146C55.8345 117.181 55.8208 117.232 55.7935 117.298C55.77 117.364 55.7583 117.413 55.7583 117.445C55.7544 117.573 55.7134 117.999 55.6353 118.722C55.6235 118.745 55.5669 118.782 55.4653 118.833C55.4419 118.794 55.3696 118.585 55.2485 118.206C55.1704 117.96 55.0259 117.825 54.8149 117.802C54.729 117.782 54.6411 117.763 54.5513 117.743C54.4302 117.716 54.3364 117.712 54.27 117.732C54.0981 117.782 53.7251 117.788 53.1509 117.749C52.8345 117.726 52.5962 117.732 52.436 117.767C52.3892 117.779 52.3579 117.823 52.3423 117.902C52.4829 118.359 52.4888 118.763 52.3599 119.114C52.3677 119.091 52.3716 119.189 52.3716 119.407C52.3716 119.462 52.3618 119.575 52.3423 119.747C52.3228 119.888 52.3188 120.001 52.3306 120.087C52.3345 120.126 52.3716 120.177 52.4419 120.239H54.6509C54.7212 120.216 54.7896 120.193 54.856 120.169C54.9653 120.13 55.0415 120.07 55.0845 119.988C55.1235 119.886 55.1958 119.745 55.3013 119.566C55.4263 119.566 55.5063 119.609 55.5415 119.695C55.5259 119.917 55.5103 120.202 55.4946 120.55C55.4907 120.78 55.4634 121.118 55.4126 121.564C55.397 121.63 55.3188 121.652 55.1782 121.628C55.1274 121.534 55.0376 121.411 54.9087 121.259C54.6704 121.079 54.4536 120.989 54.2583 120.989H53.4497C53.3989 120.989 53.2993 120.98 53.1509 120.96C53.0024 120.941 52.8911 120.931 52.8169 120.931C52.6099 120.931 52.479 120.991 52.4243 121.113C52.3618 121.249 52.3306 121.355 52.3306 121.429C52.3306 121.499 52.3442 121.632 52.3716 121.827C52.3989 122.023 52.4106 122.173 52.4067 122.279C52.4028 122.333 52.3833 122.437 52.3481 122.589C52.3169 122.738 52.3013 122.855 52.3013 122.941C52.3013 123.007 52.3091 123.068 52.3247 123.122C52.3521 123.216 52.4575 123.329 52.6411 123.462C52.8286 123.595 52.9888 123.671 53.1216 123.691C53.1411 123.698 53.1606 123.706 53.1802 123.714C53.2192 123.726 53.2544 123.732 53.2856 123.732H54.2583C54.4771 123.732 54.6606 123.696 54.8091 123.626C55.0161 123.532 55.2173 123.376 55.4126 123.157C55.6274 122.915 55.7427 122.685 55.7583 122.466C55.8599 122.4 55.9868 122.388 56.1392 122.431ZM63.0942 117.034C63.1021 117.066 63.106 117.101 63.106 117.14C63.106 117.226 63.0864 117.376 63.0474 117.591C63.0122 117.806 62.9946 117.966 62.9946 118.071C62.9946 118.126 62.9966 118.177 63.0005 118.224C62.981 118.294 62.9634 118.392 62.9478 118.517C62.979 118.673 62.9966 118.734 63.0005 118.698C62.9888 118.722 62.9712 118.751 62.9478 118.786C62.9478 118.825 62.9595 118.937 62.9829 119.12C62.8853 119.214 62.7974 119.261 62.7192 119.261C62.688 119.261 62.6528 119.238 62.6138 119.191C62.6489 118.96 62.6606 118.818 62.6489 118.763C62.6372 118.7 62.6138 118.613 62.5786 118.499C62.5005 118.327 62.356 118.138 62.145 117.931C62.063 117.853 61.8716 117.749 61.5708 117.62C61.5356 117.605 61.4087 117.577 61.1899 117.538C61.0493 117.515 60.8423 117.503 60.5688 117.503C59.7954 117.503 59.188 117.708 58.7466 118.118C58.6919 118.146 58.6138 118.206 58.5122 118.3C58.1724 118.769 57.979 119.228 57.9321 119.677C57.9126 119.864 57.9028 120.173 57.9028 120.603V120.989C57.9028 120.966 57.9302 121.07 57.9849 121.3C57.9888 121.421 58.0083 121.585 58.0435 121.792C58.0669 121.812 58.106 121.87 58.1606 121.968C58.1646 122.019 58.1782 122.085 58.2017 122.167C58.2563 122.241 58.3403 122.353 58.4536 122.501C58.4692 122.548 58.4966 122.614 58.5356 122.7C58.7114 123.021 58.9829 123.286 59.3501 123.497C59.5142 123.591 59.6763 123.657 59.8364 123.696C60.606 123.876 61.1001 123.966 61.3188 123.966C61.4204 123.966 61.52 123.954 61.6177 123.931C61.6646 123.923 61.7329 123.9 61.8228 123.861C61.8423 123.708 61.8521 123.632 61.8521 123.632C61.8521 123.577 61.8267 123.54 61.7759 123.521C61.7056 123.497 61.6587 123.466 61.6353 123.427C61.5962 123.364 61.5942 123.243 61.6294 123.064C61.6294 123.064 61.6294 122.753 61.6294 122.132C61.606 121.905 61.5728 121.728 61.5298 121.599C61.5063 121.579 61.4751 121.542 61.436 121.488C61.3696 121.28 61.2271 121.148 61.0083 121.089C60.9185 121.066 60.7271 121.05 60.4341 121.042C60.4224 121.034 60.4048 121.021 60.3813 121.001V120.849C60.479 120.818 60.6392 120.802 60.8618 120.802C60.8774 120.802 61.0142 120.814 61.272 120.837C61.5298 120.857 61.6665 120.866 61.6821 120.866C61.7017 120.866 61.7349 120.859 61.7817 120.843C61.8286 120.823 61.8638 120.812 61.8872 120.808C62.1255 120.788 62.2583 120.779 62.2856 120.779C62.8364 120.779 63.0708 120.78 62.9888 120.784V121.036C62.9888 121.048 62.9712 121.089 62.936 121.159C62.8931 121.241 62.8677 121.298 62.8599 121.329C62.7935 121.599 62.7544 121.872 62.7427 122.15C62.7271 122.501 62.7192 122.743 62.7192 122.876C62.7192 123.146 62.7485 123.517 62.8071 123.989C62.6274 124.083 62.1567 124.208 61.395 124.364C61.3325 124.361 61.2368 124.364 61.1079 124.376C60.9321 124.415 60.8091 124.435 60.7388 124.435C60.7192 124.435 60.6899 124.429 60.6509 124.417C60.6118 124.405 60.5845 124.4 60.5688 124.4C60.1665 124.38 59.8325 124.347 59.5669 124.3C59.4653 124.261 59.3149 124.212 59.1157 124.154C58.7212 124.075 58.2856 123.825 57.8091 123.404C57.313 122.962 57.0083 122.538 56.895 122.132C56.8599 122.042 56.8149 121.907 56.7603 121.728C56.729 121.669 56.688 121.581 56.6372 121.464C56.5903 121.273 56.5669 121.111 56.5669 120.978C56.5669 120.989 56.5767 120.917 56.5962 120.761C56.6157 120.628 56.6177 120.534 56.6021 120.48C56.5864 120.417 56.5786 120.351 56.5786 120.28C56.5786 120.148 56.6118 119.958 56.6782 119.712C56.7563 119.407 56.8032 119.202 56.8188 119.097C57.2017 118.405 57.4341 118.06 57.5161 118.06C57.5317 118.06 57.5435 118.068 57.5513 118.083C57.5591 118.095 57.5728 118.101 57.5923 118.101C57.6587 118.101 57.7114 118.085 57.7505 118.054C57.7661 118.007 57.7974 117.943 57.8442 117.861C58.2075 117.458 58.4282 117.257 58.5063 117.257C58.5259 117.257 58.5396 117.261 58.5474 117.269C58.5552 117.277 58.5669 117.28 58.5825 117.28C58.5981 117.28 58.6392 117.255 58.7056 117.204C58.7759 117.15 58.8208 117.122 58.8403 117.122C58.856 117.122 58.8774 117.13 58.9048 117.146C58.936 117.161 58.9595 117.169 58.9751 117.169C58.9946 117.169 59.1685 117.128 59.4966 117.046C59.8247 116.964 59.9985 116.923 60.0181 116.923H61.5239C61.5435 116.923 61.7231 116.943 62.063 116.982C62.4028 117.017 62.5825 117.034 62.6021 117.034C62.6099 117.034 62.6782 117.034 62.8071 117.034C62.9399 117.034 63.0356 117.034 63.0942 117.034ZM71.4146 120.65C71.4146 120.872 71.4087 121.042 71.397 121.159C71.3579 121.249 71.3169 121.388 71.2739 121.575C71.2661 121.763 71.2251 121.962 71.1509 122.173C71.0884 122.251 70.9966 122.378 70.8755 122.554C70.8442 122.671 70.7583 122.839 70.6177 123.058C70.5044 123.171 70.3325 123.347 70.1021 123.585C70.0669 123.597 70.022 123.616 69.9673 123.644C69.9165 123.691 69.8267 123.759 69.6978 123.849C69.0571 124.189 68.4478 124.382 67.8696 124.429H67.0962C67.104 124.429 67.0884 124.417 67.0493 124.394C66.6274 124.382 66.311 124.323 66.1001 124.218C66.0454 124.206 65.9712 124.187 65.8774 124.159C65.7212 124.097 65.4868 123.986 65.1743 123.825C64.7993 123.587 64.4478 123.251 64.1196 122.818C63.936 122.575 63.7739 122.263 63.6333 121.88C63.5005 121.525 63.4263 121.226 63.4106 120.984C63.3833 120.57 63.3989 120.163 63.4575 119.765C63.481 119.714 63.5122 119.642 63.5513 119.548C63.5747 119.431 63.6157 119.261 63.6743 119.038C63.7603 118.902 63.8735 118.702 64.0142 118.441C64.0337 118.398 64.0435 118.347 64.0435 118.288C64.063 118.269 64.1021 118.275 64.1606 118.306C64.1802 118.251 64.1802 118.173 64.1606 118.071C64.2114 118.056 64.2837 118.023 64.3774 117.972C64.4087 117.89 64.4829 117.79 64.6001 117.673C64.8345 117.548 65.188 117.364 65.6606 117.122C65.7817 117.064 65.936 117.013 66.1235 116.97C66.6001 116.861 66.9243 116.806 67.0962 116.806H67.5532C67.9087 116.806 68.2134 116.839 68.4673 116.905C68.604 116.945 68.9048 117.054 69.3696 117.234C69.4673 117.296 69.6216 117.394 69.8325 117.527C70.1372 117.722 70.4146 117.989 70.6646 118.329C70.8872 118.634 71.0317 118.915 71.0981 119.173C71.1294 119.216 71.1685 119.28 71.2153 119.366C71.3013 119.601 71.3501 119.948 71.3618 120.409C71.3618 120.425 71.3696 120.462 71.3853 120.521C71.4048 120.575 71.4146 120.618 71.4146 120.65ZM70.1138 120.802C70.0786 120.31 69.9829 119.861 69.8267 119.454C69.6274 118.931 69.3931 118.519 69.1235 118.218C68.7407 117.796 68.3228 117.548 67.8696 117.474C67.4399 117.404 67.145 117.38 66.9849 117.404C66.6724 117.443 66.4067 117.511 66.188 117.609C66.1606 117.62 65.9829 117.724 65.6548 117.919C65.6353 117.958 65.6001 118.005 65.5493 118.06C65.5181 118.068 65.4829 118.079 65.4438 118.095C65.3657 118.196 65.2681 118.333 65.1509 118.505C65.1353 118.552 65.1099 118.618 65.0747 118.704C65.0161 118.798 64.9536 118.909 64.8872 119.038C64.8521 119.183 64.7974 119.4 64.7231 119.689C64.7271 119.798 64.7251 119.964 64.7173 120.187C64.7173 120.198 64.7095 120.224 64.6938 120.263C64.6782 120.302 64.6724 120.329 64.6763 120.345C64.731 120.599 64.8091 120.95 64.9106 121.4C64.8989 121.431 64.8911 121.468 64.8872 121.511C64.9146 121.566 64.9536 121.64 65.0044 121.734C65.0083 121.784 65.02 121.851 65.0396 121.933C65.2036 122.261 65.2896 122.429 65.2974 122.437C65.4146 122.64 65.5747 122.833 65.7778 123.017C65.7817 123.021 65.8071 123.101 65.854 123.257C65.8696 123.261 65.936 123.273 66.0532 123.292C66.2446 123.468 66.3911 123.587 66.4927 123.65C66.7817 123.821 67.3052 123.874 68.063 123.808C68.1255 123.788 68.2075 123.763 68.3091 123.732C68.438 123.704 68.6235 123.64 68.8657 123.538C68.9204 123.488 68.9927 123.427 69.0825 123.357C69.4731 123.114 69.7056 122.816 69.7798 122.46C69.8188 122.413 69.8657 122.347 69.9204 122.261C69.9282 122.187 69.9399 122.099 69.9556 121.997C69.979 121.974 70.0024 121.937 70.0259 121.886C70.0337 121.796 70.0532 121.601 70.0845 121.3C70.1118 121.058 70.1216 120.892 70.1138 120.802ZM77.7075 122.636C77.6255 122.925 77.5435 123.212 77.4614 123.497C77.3599 123.837 77.2153 124.159 77.0278 124.464L71.8247 124.417C71.7739 124.402 71.6841 124.382 71.5552 124.359C71.4263 124.339 71.3384 124.321 71.2915 124.306C71.2915 124.204 71.3306 124.128 71.4087 124.077C71.5688 124.081 71.731 124.044 71.895 123.966C72.1099 123.864 72.2427 123.714 72.2935 123.515C72.3169 123.433 72.3208 123.288 72.3052 123.081C72.2896 122.843 72.2856 122.681 72.2935 122.595C72.2974 122.548 72.3188 122.388 72.3579 122.114C72.3853 121.904 72.3989 121.738 72.3989 121.616C72.3989 120.21 72.3755 119.267 72.3286 118.786C72.3403 118.771 72.3638 118.738 72.3989 118.687C72.3677 118.292 72.3169 117.97 72.2466 117.72C72.2114 117.603 72.0923 117.493 71.8892 117.392C71.6899 117.286 71.5435 117.247 71.4497 117.275C71.4497 117.114 71.5532 117.034 71.7603 117.034C71.8188 117.034 71.8989 117.042 72.0005 117.058C72.1021 117.07 72.1665 117.075 72.1938 117.075H75.1294C75.1372 117.169 75.0396 117.241 74.8364 117.292C74.6919 117.327 74.5493 117.363 74.4087 117.398C74.2329 117.48 74.1392 117.525 74.1274 117.532C74.0142 117.603 73.9438 117.683 73.9165 117.773C73.8345 118.046 73.7778 118.409 73.7466 118.863C73.6958 119.55 73.6685 119.919 73.6646 119.97C73.7427 120.193 73.7817 120.394 73.7817 120.573C73.7817 120.663 73.7681 120.786 73.7407 120.943C73.7134 121.095 73.6997 121.216 73.6997 121.306V122.9C73.7622 123.087 73.8521 123.359 73.9692 123.714C73.9927 123.78 74.0669 123.823 74.1919 123.843C74.3481 123.863 74.5708 123.896 74.8599 123.943C74.9106 123.954 74.9595 123.954 75.0063 123.943C75.2876 123.904 75.5688 123.863 75.8501 123.82C76.1938 123.761 76.4575 123.667 76.6411 123.538C76.7075 123.488 76.7896 123.351 76.8872 123.128C76.9888 122.886 77.0767 122.726 77.1509 122.648C77.2095 122.585 77.2876 122.554 77.3853 122.554C77.436 122.554 77.5435 122.581 77.7075 122.636ZM84.8032 124.341C84.7329 124.372 84.6294 124.382 84.4927 124.37C84.2661 124.351 84.1606 124.341 84.1763 124.341H83.7075C83.1411 124.341 82.6997 124.37 82.3833 124.429C82.2075 124.46 82.0903 124.443 82.0317 124.376C82.0239 124.259 82.0298 124.159 82.0493 124.077C82.1274 124.07 82.2368 124.042 82.3774 123.995C82.436 123.96 82.481 123.902 82.5122 123.82C82.5435 123.738 82.5493 123.673 82.5298 123.626C82.479 123.4 82.4009 123.06 82.2954 122.607C82.2876 122.579 82.2446 122.468 82.1665 122.273C82.104 122.116 82.0728 121.997 82.0728 121.915C82.0688 121.892 82.0435 121.88 81.9966 121.88C81.9302 121.88 81.6099 121.896 81.0356 121.927L79.7993 121.945C79.7095 121.941 79.6255 122.023 79.5474 122.191C79.5083 122.277 79.4536 122.404 79.3833 122.571C79.2935 122.845 79.2505 123.007 79.2544 123.058C79.2544 123.03 79.2349 123.148 79.1958 123.409C79.1685 123.593 79.1685 123.718 79.1958 123.784C79.2114 123.823 79.27 123.886 79.3716 123.972C79.4771 124.058 79.5669 124.114 79.6411 124.142C79.6606 124.15 79.6919 124.159 79.7349 124.171C79.7661 124.226 79.7915 124.269 79.811 124.3C79.729 124.323 79.6157 124.349 79.4712 124.376C79.2446 124.357 78.9185 124.341 78.4927 124.329C78.4028 124.357 78.2642 124.384 78.0767 124.411C78.0688 124.411 77.9263 124.394 77.6489 124.359C77.6411 124.339 77.6372 124.321 77.6372 124.306C77.6372 124.259 77.6958 124.193 77.813 124.107C77.856 124.048 77.9282 123.972 78.0298 123.878C78.1196 123.82 78.1978 123.72 78.2642 123.579C78.3306 123.435 78.4321 123.212 78.5688 122.911C78.6274 122.724 78.7153 122.441 78.8325 122.062C78.9106 121.882 79.0103 121.609 79.1313 121.241C79.2212 120.972 79.3521 120.571 79.5239 120.04C79.5396 120.025 79.5591 120.001 79.5825 119.97C79.5942 120.032 79.6099 120.064 79.6294 120.064C79.6567 120.064 79.6919 119.98 79.7349 119.812C79.7739 119.659 79.7935 119.55 79.7935 119.484C79.7935 119.472 79.7915 119.466 79.7876 119.466C79.7798 119.478 79.7661 119.513 79.7466 119.571C79.7466 119.532 79.7505 119.478 79.7583 119.407C79.8208 119.243 79.9087 119.001 80.022 118.681C80.0493 118.529 80.1333 118.302 80.2739 118.001C80.2935 117.935 80.3228 117.833 80.3618 117.696C80.397 117.579 80.4653 117.404 80.5669 117.169C80.5786 117.118 80.6079 117.046 80.6548 116.952C80.6782 116.925 80.77 116.917 80.9302 116.929C81.0825 116.933 81.313 116.946 81.6216 116.97C81.7231 117.263 81.9048 117.73 82.1665 118.37C82.1743 118.445 82.1958 118.554 82.231 118.698C82.2935 118.882 82.3755 119.052 82.4771 119.208C82.4575 119.236 82.4731 119.337 82.5239 119.513C82.5864 119.654 82.6782 119.861 82.7993 120.134C82.8813 120.404 83.0083 120.779 83.1802 121.259C83.1919 121.368 83.229 121.525 83.2915 121.728C83.2915 121.759 83.3013 121.808 83.3208 121.874C83.3677 121.976 83.4517 122.171 83.5728 122.46C83.6157 122.523 83.6743 122.618 83.7485 122.747C83.7446 122.779 83.7485 122.821 83.7603 122.876C83.8149 123.036 83.8989 123.261 84.0122 123.55C84.0513 123.616 84.1177 123.738 84.2114 123.913C84.2349 123.96 84.3462 124.021 84.5454 124.095C84.604 124.114 84.6899 124.144 84.8032 124.183V124.341ZM81.7915 121.271C81.7876 121.267 81.645 120.878 81.3638 120.105C81.3169 119.948 81.2446 119.716 81.147 119.407C81.1001 119.314 81.0376 119.179 80.9595 119.003C80.936 118.921 80.895 118.804 80.8364 118.652C80.6958 118.972 80.5396 119.296 80.3677 119.624C80.3442 119.648 80.3169 119.685 80.2856 119.736C80.2739 119.794 80.2524 119.884 80.2212 120.005C80.1938 120.06 80.1606 120.138 80.1216 120.239C80.1177 120.306 80.1079 120.392 80.0923 120.497C80.0649 120.536 80.0337 120.591 79.9985 120.661C79.979 120.751 79.9497 120.878 79.9106 121.042C79.8911 121.073 79.8657 121.116 79.8345 121.171C79.8423 121.128 79.8462 121.161 79.8462 121.271H81.7915ZM89.7954 122.466C89.7954 122.552 89.7485 122.722 89.6548 122.976C89.5649 123.226 89.4985 123.38 89.4556 123.439C89.272 123.661 89.0767 123.857 88.8696 124.025C88.7563 124.114 88.6079 124.189 88.4243 124.247C87.9517 124.396 87.5044 124.47 87.0825 124.47C87.0903 124.47 87.0161 124.466 86.8599 124.458C86.7192 124.446 86.6157 124.443 86.5493 124.446C86.561 124.482 86.5669 124.413 86.5669 124.241C86.4692 124.148 86.3403 124.101 86.1802 124.101C86.1216 124.101 86.0669 124.126 86.0161 124.177C86.0239 124.185 86.0825 124.212 86.1919 124.259C86.1685 124.329 86.1216 124.364 86.0513 124.364C85.9771 124.364 85.811 124.333 85.5532 124.271C85.2173 124.189 84.9731 124.095 84.8208 123.989C84.7856 123.966 84.7466 123.81 84.7036 123.521C84.6724 123.29 84.6567 123.007 84.6567 122.671C84.6567 122.366 84.6724 122.118 84.7036 121.927C84.7231 121.931 84.7856 121.923 84.8911 121.904C84.9224 121.943 84.936 122.017 84.9321 122.126C84.9282 122.267 84.9263 122.335 84.9263 122.331C84.9458 122.425 84.9751 122.564 85.0142 122.747C85.0181 122.775 85.0708 122.861 85.1724 123.005C85.231 123.099 85.3364 123.228 85.4888 123.392C85.6177 123.493 85.7915 123.571 86.0103 123.626C86.1274 123.661 86.2446 123.698 86.3618 123.738C86.5103 123.78 86.6333 123.802 86.731 123.802C86.77 123.825 86.7993 123.837 86.8188 123.837C86.8345 123.837 86.8579 123.833 86.8892 123.825C86.9204 123.818 86.9438 123.814 86.9595 123.814C86.979 123.814 87.0532 123.829 87.1821 123.861C87.311 123.888 87.3833 123.902 87.3989 123.902C87.4146 123.902 87.4517 123.88 87.5103 123.837C87.5728 123.79 87.6196 123.763 87.6509 123.755C87.7603 123.732 87.9204 123.698 88.1313 123.655C88.2407 123.632 88.3286 123.527 88.395 123.339C88.4224 123.288 88.4614 123.214 88.5122 123.116C88.5122 123.089 88.5161 123.046 88.5239 122.988C88.5317 122.96 88.5552 122.911 88.5942 122.841C88.6333 122.771 88.6528 122.726 88.6528 122.706C88.6528 122.562 88.6353 122.439 88.6001 122.337C88.5806 122.275 88.5005 122.136 88.3599 121.921C88.3169 121.89 88.2544 121.845 88.1724 121.786C87.8325 121.513 87.5044 121.323 87.188 121.218C87.1021 121.167 86.9771 121.099 86.813 121.013C86.6177 120.931 86.3032 120.755 85.8696 120.486C85.8384 120.474 85.7935 120.454 85.7349 120.427C85.6177 120.329 85.4966 120.202 85.3716 120.046C85.1919 119.82 85.0942 119.698 85.0786 119.683C85.0786 119.628 85.0747 119.546 85.0669 119.437C85.0435 119.398 85.0103 119.333 84.9673 119.243C84.9673 119.161 84.9614 119.048 84.9497 118.904C84.9731 118.872 84.9849 118.845 84.9849 118.821C84.9419 118.72 84.9204 118.671 84.9204 118.675C84.9204 118.683 84.9614 118.591 85.0435 118.4C85.0552 118.314 85.0825 118.196 85.1255 118.048C85.1411 118.013 85.2446 117.902 85.436 117.714C85.5259 117.757 85.5669 117.779 85.5591 117.779C85.5708 117.728 85.5942 117.663 85.6294 117.585C85.9888 117.241 86.3188 117.03 86.6196 116.952C86.8657 116.89 87.1958 116.859 87.6099 116.859C87.6294 116.859 87.8267 116.88 88.2017 116.923C88.5767 116.966 88.7739 116.988 88.7935 116.988C88.8091 116.988 88.895 116.978 89.0513 116.958C89.2114 116.935 89.3013 116.923 89.3208 116.923C89.4302 116.923 89.4849 116.97 89.4849 117.064L89.397 118.03V118.54C89.397 118.548 89.3931 118.616 89.3853 118.745C89.3774 118.874 89.3735 118.968 89.3735 119.027C89.3696 119.027 89.356 119.034 89.3325 119.05C89.313 119.066 89.2935 119.073 89.2739 119.073H89.1392C89.1274 118.948 89.1021 118.771 89.063 118.54C88.9419 118.079 88.6899 117.78 88.3071 117.644C88.1079 117.573 87.7583 117.538 87.2583 117.538C87.1646 117.538 87.0044 117.577 86.7778 117.655C86.5825 117.722 86.397 117.892 86.2212 118.165C86.1587 118.263 86.1274 118.368 86.1274 118.482C86.1274 118.665 86.188 118.886 86.3091 119.144C86.3599 119.191 86.4302 119.255 86.52 119.337C86.7896 119.607 87.1899 119.851 87.7212 120.07C88.561 120.413 89.145 120.792 89.4731 121.206C89.5942 121.359 89.6763 121.536 89.7192 121.739C89.77 121.978 89.7954 122.22 89.7954 122.466Z" fill="#347355"/>
</g>
<defs>
<clipPath id="clip0_71_1705">
<rect width="150" height="150" fill="white"/>
</clipPath>
</defs>
</svg>
