<svg width="150" height="150" viewBox="0 0 150 150" fill="none" xmlns="http://www.w3.org/2000/svg">
<g clip-path="url(#clip0_71_1704)">
<path d="M133.76 0H16C7.16344 0 0 7.16344 0 16V133.76C0 142.597 7.16344 149.76 16 149.76H133.76C142.597 149.76 149.76 142.597 149.76 133.76V16C149.76 7.16344 142.597 0 133.76 0Z" fill="#EFA641"/>
<path d="M138.81 74.96C138.81 94.9 138.81 114.84 138.81 134.78C138.81 137.07 137.09 138.81 134.82 138.81C94.91 138.81 54.99 138.81 15.08 138.81C12.73 138.81 10.96 137.03 10.96 134.66C10.96 94.81 10.96 54.97 10.96 15.12C10.96 12.79 12.79 10.95 15.1 10.95C54.98 10.95 94.86 10.95 134.74 10.95C137.04 10.95 138.81 12.73 138.81 15.04C138.81 35.01 138.81 54.99 138.81 74.96ZM74.92 12.2C61.39 12.2 47.85 12.2 34.32 12.2C28.24 12.2 22.17 12.2 16.09 12.2C14.24 12.2 12.73 13.33 12.32 15.05C12.18 15.61 12.21 16.22 12.21 16.81C12.21 51.43 12.21 86.05 12.21 120.67C12.21 125.04 12.2 129.41 12.21 133.78C12.21 135.68 13.37 137.09 15.22 137.51C15.69 137.62 16.19 137.66 16.68 137.66C55.51 137.66 94.33 137.66 133.16 137.66C136.13 137.66 137.68 136.09 137.68 133.08C137.68 94.29 137.68 55.49 137.68 16.7C137.68 13.64 136.23 12.18 133.16 12.18C113.75 12.18 94.33 12.18 74.92 12.18V12.2Z" fill="#594842"/>
<path d="M74.95 13.5C93.51 13.5 112.07 13.54 130.62 13.46C133.82 13.45 136.38 15.55 136.38 19.19C136.34 56.34 136.36 93.49 136.36 130.64C136.36 134.28 134.33 136.33 130.7 136.33C93.48 136.33 56.27 136.33 19.05 136.33C15.52 136.33 13.5 134.29 13.5 130.77C13.5 93.52 13.5 56.27 13.5 19.03C13.5 15.55 15.52 13.51 18.98 13.51C37.64 13.51 56.29 13.51 74.95 13.51V13.5ZM14.19 74.9C14.19 93.52 14.23 112.15 14.15 130.77C14.14 133.71 16.23 135.71 19.12 135.7C56.34 135.66 93.55 135.68 130.77 135.68C133.92 135.68 135.71 133.89 135.71 130.73C135.71 93.51 135.7 56.3 135.73 19.08C135.73 16.31 133.86 14.13 130.77 14.13C93.52 14.19 56.27 14.18 19.03 14.13C16.28 14.13 14.14 16.11 14.15 19.02C14.23 37.64 14.19 56.27 14.19 74.89V74.9Z" fill="#594842"/>
<path d="M20.1898 131.5C19.7498 131.93 19.1798 132.49 18.4898 133.17C17.9398 132.53 17.4298 131.92 16.7998 131.18C17.3298 130.77 17.9698 130.29 18.6198 129.79C18.9998 130.2 19.5598 130.82 20.1798 131.5H20.1898Z" fill="#594842"/>
<path d="M18.7301 16.84C19.1901 17.28 19.7601 17.82 20.4301 18.46C19.7601 19.04 19.1501 19.57 18.4101 20.21C17.9801 19.68 17.4701 19.05 16.8701 18.3C17.3801 17.9 18.0401 17.39 18.7401 16.84H18.7301Z" fill="#594842"/>
<path d="M133.35 18.53C132.77 19.08 132.19 19.63 131.56 20.22C131.03 19.62 130.5 19.02 129.89 18.34C130.37 17.96 130.97 17.48 131.63 16.96C131.97 17.4 132.48 18.07 132.99 18.73C133.11 18.67 133.23 18.6 133.35 18.54V18.53Z" fill="#594842"/>
<path d="M129.95 131.21C130.41 130.71 130.96 130.13 131.57 129.48C132.21 130.13 132.77 130.69 133.42 131.35C132.79 131.94 132.21 132.49 131.59 133.06C131.06 132.46 130.53 131.86 129.95 131.21Z" fill="#594842"/>
<path d="M118.12 112.6H31.6401V131.23H118.12V112.6Z" fill="#594842"/>
<path d="M62.7363 114.584C62.7441 114.639 62.748 114.7 62.748 114.766C62.748 114.907 62.7246 115.161 62.6777 115.528C62.6348 115.895 62.6133 116.168 62.6133 116.348C62.6133 116.442 62.6172 116.528 62.625 116.606C62.5977 116.727 62.5762 116.891 62.5605 117.098C62.5645 117.114 62.5781 117.162 62.6016 117.245C62.6211 117.311 62.6289 117.368 62.625 117.414C62.6094 117.454 62.5879 117.504 62.5605 117.567C62.5566 117.629 62.5703 117.819 62.6016 118.135C62.4883 118.295 62.3848 118.375 62.291 118.375C62.248 118.375 62.2051 118.332 62.1621 118.246C62.2012 117.856 62.2129 117.616 62.1973 117.526C62.1855 117.42 62.1602 117.27 62.1211 117.075C62.0234 116.782 61.8477 116.459 61.5938 116.108C61.5 115.975 61.2695 115.799 60.9023 115.58C60.8633 115.557 60.7129 115.512 60.4512 115.446C60.2793 115.403 60.0312 115.381 59.707 115.381C58.7773 115.381 58.0488 115.729 57.5215 116.424C57.4551 116.475 57.3594 116.579 57.2344 116.735C56.8281 117.532 56.5977 118.313 56.543 119.079C56.5195 119.395 56.5078 119.918 56.5078 120.649V121.311C56.5078 121.268 56.541 121.444 56.6074 121.838C56.6113 122.041 56.6328 122.319 56.6719 122.67C56.6992 122.709 56.748 122.809 56.8184 122.969C56.8223 123.055 56.8359 123.17 56.8594 123.315C56.9297 123.44 57.0312 123.627 57.1641 123.877C57.1836 123.959 57.2168 124.075 57.2637 124.223C57.4746 124.762 57.8008 125.211 58.2422 125.571C58.4414 125.731 58.6367 125.844 58.8281 125.911C59.75 126.219 60.3418 126.373 60.6035 126.373C60.7246 126.373 60.8438 126.354 60.9609 126.315C61.0195 126.299 61.1016 126.258 61.207 126.192C61.2305 125.926 61.2422 125.797 61.2422 125.805C61.2422 125.707 61.2129 125.645 61.1543 125.618C61.0723 125.575 61.0156 125.52 60.9844 125.454C60.9375 125.348 60.9355 125.143 60.9785 124.838C60.9785 124.834 60.9785 124.303 60.9785 123.245C60.9473 122.862 60.9082 122.561 60.8613 122.342C60.8301 122.311 60.791 122.246 60.7441 122.149C60.666 121.801 60.4961 121.577 60.2344 121.475C60.125 121.436 59.8945 121.411 59.543 121.399C59.5312 121.383 59.5098 121.358 59.4785 121.323V121.071C59.5957 121.016 59.7871 120.989 60.0527 120.989C60.0762 120.989 60.2402 121.008 60.5449 121.047C60.8535 121.086 61.0195 121.106 61.043 121.106C61.0625 121.106 61.1016 121.09 61.1602 121.059C61.2188 121.024 61.2598 121.006 61.2832 121.006C61.5684 120.971 61.7285 120.954 61.7637 120.954C62.4238 120.954 62.7051 120.955 62.6074 120.959V121.393C62.6074 121.409 62.584 121.481 62.5371 121.61C62.4902 121.739 62.4629 121.83 62.4551 121.885C62.377 122.346 62.3301 122.813 62.3145 123.286C62.2988 123.879 62.291 124.289 62.291 124.516C62.291 124.973 62.3262 125.602 62.3965 126.403C62.2246 126.528 61.9434 126.662 61.5527 126.807C61.1621 126.952 60.8633 127.034 60.6562 127.053C60.5859 127.049 60.4844 127.055 60.3516 127.071C60.1406 127.137 59.9922 127.17 59.9062 127.17C59.8867 127.17 59.8516 127.161 59.8008 127.141C59.7539 127.121 59.7227 127.11 59.707 127.106C59.2227 127.075 58.8203 127.016 58.5 126.93C58.3789 126.868 58.1992 126.787 57.9609 126.69C57.4883 126.557 56.9648 126.129 56.3906 125.407C55.7969 124.664 55.4316 123.946 55.2949 123.25C55.2559 123.098 55.2012 122.87 55.1309 122.565C55.0957 122.467 55.0488 122.317 54.9902 122.114C54.9316 121.789 54.9023 121.516 54.9023 121.293C54.9023 121.313 54.9141 121.19 54.9375 120.924C54.9609 120.698 54.9629 120.537 54.9434 120.444C54.9277 120.338 54.9199 120.225 54.9199 120.104C54.9199 119.877 54.957 119.555 55.0312 119.137C55.1289 118.618 55.1855 118.268 55.2012 118.088C55.666 116.912 55.9453 116.325 56.0391 116.325C56.0586 116.325 56.0723 116.338 56.0801 116.366C56.0879 116.389 56.1055 116.401 56.1328 116.401C56.2109 116.401 56.2754 116.373 56.3262 116.319C56.3457 116.241 56.3828 116.131 56.4375 115.991C56.8711 115.303 57.1348 114.959 57.2285 114.959C57.252 114.959 57.2676 114.967 57.2754 114.983C57.2871 114.995 57.3027 115 57.3223 115C57.3418 115 57.3906 114.957 57.4688 114.871C57.5508 114.782 57.6055 114.737 57.6328 114.737C57.6523 114.737 57.6777 114.75 57.709 114.778C57.7441 114.801 57.7715 114.813 57.791 114.813C57.8145 114.813 58.0215 114.743 58.4121 114.602C58.8066 114.461 59.0156 114.391 59.0391 114.391H60.8555C60.875 114.391 61.0879 114.424 61.4941 114.491C61.9043 114.553 62.1191 114.584 62.1387 114.584C62.1504 114.584 62.2344 114.584 62.3906 114.584C62.5508 114.584 62.666 114.584 62.7363 114.584ZM66.252 117.409C66.2363 117.467 66.2109 117.549 66.1758 117.655C66.1758 117.655 66.0586 117.68 65.8242 117.731C65.6758 117.766 65.582 117.832 65.543 117.93C65.5117 117.977 65.4727 118.043 65.4258 118.129C65.418 118.157 65.3672 118.383 65.2734 118.809L65.25 121.27C65.2227 121.371 65.209 121.426 65.209 121.434C65.209 121.434 65.2227 121.475 65.25 121.557L65.2383 122.465C65.2109 122.59 65.2109 122.762 65.2383 122.981C65.2656 123.235 65.3203 123.442 65.4023 123.602C65.4297 123.657 65.498 123.717 65.6074 123.784C65.8105 123.901 66.0137 123.957 66.2168 123.954C66.2129 124.004 66.1914 124.079 66.1523 124.176H65.4727C65.4609 124.176 65.3926 124.172 65.2676 124.164C65.1465 124.157 65.082 124.153 65.0742 124.153C65.0625 124.153 65.0098 124.157 64.916 124.164C64.8223 124.172 64.7715 124.176 64.7637 124.176C64.7559 124.176 64.7188 124.172 64.6523 124.164C64.5898 124.157 64.5527 124.153 64.541 124.153C64.5293 124.153 64.502 124.157 64.459 124.164C64.4199 124.172 64.3945 124.176 64.3828 124.176L63.1582 124.205C63.0527 124.205 63 124.166 63 124.088C63 123.998 63.0273 123.946 63.082 123.93C63.207 123.907 63.332 123.885 63.457 123.866C63.6016 123.834 63.6953 123.782 63.7383 123.707C63.7539 123.661 63.7773 123.588 63.8086 123.491C63.8633 123.495 63.9473 123.506 64.0605 123.526C64.0996 123.366 64.1191 123.262 64.1191 123.215C64.1191 123.172 64.0996 123.114 64.0605 123.039C64.0918 122.961 64.0977 122.895 64.0781 122.84C64.0625 122.801 64.0254 122.735 63.9668 122.641C63.916 122.559 63.8906 122.512 63.8906 122.5C63.8906 122.528 63.9238 122.411 63.9902 122.149C63.998 122.118 63.9863 122.073 63.9551 122.014C64.0215 121.905 64.0547 121.83 64.0547 121.791C64.0547 121.784 64.0449 121.657 64.0254 121.411C64.0254 121.391 64.0117 121.354 63.9844 121.299C63.957 121.245 63.9434 121.211 63.9434 121.2C63.9434 121.184 63.959 121.157 63.9902 121.118C63.9824 121.133 63.9785 121.112 63.9785 121.053V120.344C63.9785 120.332 63.9863 120.297 64.002 120.239C64.0215 120.18 64.0312 120.145 64.0312 120.133C64.0312 120.125 64.0254 120.112 64.0137 120.092C64.002 120.069 63.9961 120.051 63.9961 120.039C63.9961 120.055 64.002 119.967 64.0137 119.776C64.0137 119.737 64.0098 119.672 64.002 119.582C63.9941 119.493 63.9902 119.448 63.9902 119.448V118.985C63.9902 118.942 63.9629 118.879 63.9082 118.797C63.9238 118.754 63.9121 118.674 63.873 118.557C63.8691 118.502 63.8535 118.42 63.8262 118.311C63.7949 118.276 63.7559 118.225 63.709 118.159C63.6934 118.12 63.666 118.061 63.627 117.983C63.5488 117.862 63.4746 117.784 63.4043 117.748C63.3145 117.725 63.1797 117.682 63 117.62C63.0117 117.565 63.0332 117.495 63.0645 117.409H63.1172C63.1289 117.409 63.1641 117.412 63.2227 117.42C63.2852 117.428 63.3223 117.432 63.334 117.432L66.252 117.409ZM76.1309 123.895C76.1465 123.922 76.1543 123.95 76.1543 123.977C76.1543 124.11 76.0742 124.176 75.9141 124.176C75.8828 124.176 75.8516 124.17 75.8203 124.159C75.7266 124.116 75.6191 124.09 75.498 124.082C75.4121 124.075 75.3008 124.075 75.1641 124.082C74.9961 124.086 74.8867 124.088 74.8359 124.088C74.2852 124.077 73.9629 124.08 73.8691 124.1C73.7793 124.116 73.6348 124.133 73.4355 124.153C73.2598 124.168 73.1504 124.133 73.1074 124.047C73.0957 124.02 73.1016 123.983 73.125 123.936C73.1484 123.885 73.1797 123.856 73.2188 123.848C73.2305 123.844 73.3809 123.829 73.6699 123.801C73.8926 123.778 74.0293 123.59 74.0801 123.239C74.0879 123.004 74.0996 122.651 74.1152 122.178C74.1152 122.151 74.1074 122.106 74.0918 122.043C74.0801 121.981 74.0742 121.936 74.0742 121.909C74.082 121.588 74.0566 121.133 73.998 120.543V120.08C73.998 120.073 73.9805 120.002 73.9453 119.87C73.9141 119.733 73.8965 119.635 73.8926 119.577C73.873 119.315 73.8672 119.135 73.875 119.037C73.875 119.034 73.8848 118.995 73.9043 118.92C73.9277 118.846 73.9395 118.784 73.9395 118.733C73.9395 118.651 73.9141 118.588 73.8633 118.545C73.7695 118.612 73.6992 118.735 73.6523 118.914C73.6172 118.969 73.5742 119.047 73.5234 119.149C73.5078 119.223 73.4785 119.33 73.4355 119.471C73.416 119.498 73.3848 119.547 73.3418 119.618C73.334 119.661 73.3184 119.719 73.2949 119.793C73.2246 119.938 73.1211 120.149 72.9844 120.426C72.9766 120.481 72.9609 120.563 72.9375 120.672C72.9023 120.719 72.8633 120.78 72.8203 120.854C72.8125 120.912 72.791 120.991 72.7559 121.088C72.6855 121.209 72.5879 121.395 72.4629 121.645C72.4512 121.723 72.4238 121.836 72.3809 121.985C72.3613 122.008 72.334 122.043 72.2988 122.09C72.2949 122.102 72.2676 122.186 72.2168 122.342C72.1855 122.393 72.1484 122.465 72.1055 122.559C72.0938 122.614 72.0703 122.698 72.0352 122.811C72.0039 122.85 71.9668 122.914 71.9238 123.004C71.9238 123.008 71.8047 123.286 71.5664 123.836C71.5625 123.911 71.5215 124.012 71.4434 124.141C71.4395 124.141 71.3516 124.151 71.1797 124.17C71.0742 124.182 70.9922 124.159 70.9336 124.1C70.875 124.037 70.7832 123.866 70.6582 123.584C70.5957 123.463 70.5098 123.284 70.4004 123.045C70.3613 122.92 70.3027 122.752 70.2246 122.541C70.2129 122.514 70.002 122.102 69.5918 121.305C69.5801 121.254 69.5586 121.182 69.5273 121.088C69.3359 120.721 69.0586 120.141 68.6953 119.348C68.6602 119.192 68.5898 118.963 68.4844 118.662C68.3828 118.455 68.2754 118.352 68.1621 118.352C68.1309 118.379 68.1152 118.483 68.1152 118.662C68.1309 118.709 68.1465 118.78 68.1621 118.873C68.166 118.924 68.1641 118.996 68.1562 119.09C68.1523 119.204 68.1504 119.256 68.1504 119.248V119.811L68.0039 122.02V122.506C68.0039 122.471 68 122.512 67.9922 122.629C67.9883 122.746 67.9863 122.938 67.9863 123.204C67.9902 123.274 68.0098 123.368 68.0449 123.485C68.1426 123.645 68.2363 123.752 68.3262 123.807C68.4043 123.823 68.5234 123.862 68.6836 123.924C68.7422 123.955 68.7598 124.01 68.7363 124.088C68.6582 124.178 68.4355 124.2 68.0684 124.153H67.5352C67.4297 124.153 67.3496 124.157 67.2949 124.164C67.0371 124.192 66.7734 124.204 66.5039 124.2C66.4688 124.176 66.4453 124.135 66.4336 124.077C66.4219 124.01 66.4395 123.965 66.4863 123.942C66.5059 123.93 66.5957 123.914 66.7559 123.895C66.791 123.875 66.8379 123.848 66.8965 123.813C67.084 123.723 67.2109 123.549 67.2773 123.291C67.293 123.229 67.3164 123.026 67.3477 122.682C67.3672 122.631 67.3926 122.559 67.4238 122.465C67.4512 122.325 67.4648 122.229 67.4648 122.178V121.733C67.4648 121.717 67.4688 121.694 67.4766 121.662C67.4883 121.631 67.4941 121.612 67.4941 121.604C67.4902 121.366 67.5215 121.018 67.5879 120.561C67.5957 120.53 67.6055 120.399 67.6172 120.168C67.6328 119.77 67.6367 119.5 67.6289 119.36C67.6289 119.344 67.6348 119.311 67.6465 119.26C67.6582 119.205 67.6641 119.172 67.6641 119.161V118.34C67.6641 118.325 67.6836 118.268 67.7227 118.17C67.7656 118.069 67.793 117.998 67.8047 117.959C67.8203 117.889 67.8203 117.805 67.8047 117.707C67.7734 117.649 67.7285 117.561 67.6699 117.444C67.666 117.362 67.6172 117.258 67.5234 117.133C67.4727 117.125 67.3984 117.114 67.3008 117.098C67.2031 117.082 67.0723 117.059 66.9082 117.028C66.748 116.996 66.6621 116.979 66.6504 116.975C66.541 116.944 66.4844 116.893 66.4805 116.823C66.5742 116.741 66.7324 116.713 66.9551 116.741C67.1191 116.764 67.3418 116.795 67.623 116.834C67.6582 116.838 67.7148 116.834 67.793 116.823C67.8906 116.803 67.959 116.793 67.998 116.793C68.0176 116.789 68.2402 116.801 68.666 116.829C68.7832 116.832 68.877 116.952 68.9473 117.186C68.9785 117.237 69.0293 117.332 69.0996 117.473C69.1191 117.547 69.1523 117.655 69.1992 117.795C69.2656 117.854 69.3457 117.95 69.4395 118.082C69.4434 118.157 69.4531 118.264 69.4688 118.405C69.5 118.448 69.5371 118.508 69.5801 118.586C69.8926 119.293 70.1875 119.987 70.4648 120.666C70.5312 120.83 70.5996 121.024 70.6699 121.246C70.7441 121.465 70.8516 121.709 70.9922 121.979C71.0508 122.041 71.125 122.137 71.2148 122.266C71.2266 122.282 71.2441 122.362 71.2676 122.506C71.2871 122.596 71.3301 122.647 71.3965 122.659C71.4434 122.651 71.4805 122.621 71.5078 122.571C71.6289 122.34 71.7676 121.996 71.9238 121.539C72.0801 121.082 72.2324 120.713 72.3809 120.432C72.3965 120.373 72.4238 120.284 72.4629 120.162C72.4941 120.092 72.543 119.985 72.6094 119.84C72.6133 119.825 72.6328 119.797 72.668 119.758C72.707 119.715 72.7305 119.684 72.7383 119.664C72.75 119.582 72.7773 119.467 72.8203 119.319C72.8203 119.319 72.875 119.194 72.9844 118.944C73.043 118.862 73.1406 118.723 73.2773 118.528C73.2891 118.516 73.3105 118.422 73.3418 118.246C73.3457 118.227 73.4629 117.938 73.6934 117.379C73.6973 117.309 73.7188 117.202 73.7578 117.057C73.8633 116.819 74.0977 116.731 74.4609 116.793C74.5039 116.817 74.5703 116.842 74.6602 116.87C74.9453 116.897 75.1523 116.895 75.2812 116.864C75.3594 116.864 75.4688 116.856 75.6094 116.84C75.6406 116.821 75.6934 116.795 75.7676 116.764C75.8418 116.729 75.9219 116.725 76.0078 116.752C76.0508 116.768 76.0742 116.799 76.0781 116.846C76.0898 116.967 76.0293 117.041 75.8965 117.069C75.7832 117.084 75.6699 117.1 75.5566 117.116C75.5254 117.139 75.4707 117.176 75.3926 117.227C75.3184 117.278 75.2148 117.368 75.082 117.496C75.0781 117.504 75.0449 117.647 74.9824 117.924C74.9316 118.151 74.9375 118.491 75 118.944C75.0273 119.155 75.0449 119.348 75.0527 119.524C75.0527 119.711 75.0586 119.998 75.0703 120.385C75.0703 120.373 75.0625 120.588 75.0469 121.03C75.0391 121.276 75.0566 121.52 75.0996 121.762C75.1426 121.918 75.1875 122.153 75.2344 122.465C75.2578 122.879 75.2773 123.121 75.293 123.192C75.3359 123.407 75.4434 123.586 75.6152 123.731C75.666 123.774 75.7324 123.793 75.8145 123.789C75.916 123.782 75.9805 123.782 76.0078 123.789C76.0547 123.805 76.0957 123.84 76.1309 123.895ZM82.5527 122.436C82.4707 122.725 82.3887 123.012 82.3066 123.297C82.2051 123.637 82.0605 123.959 81.873 124.264L76.6699 124.217C76.6191 124.202 76.5293 124.182 76.4004 124.159C76.2715 124.139 76.1836 124.121 76.1367 124.106C76.1367 124.004 76.1758 123.928 76.2539 123.877C76.4141 123.881 76.5762 123.844 76.7402 123.766C76.9551 123.664 77.0879 123.514 77.1387 123.315C77.1621 123.233 77.166 123.088 77.1504 122.881C77.1348 122.643 77.1309 122.481 77.1387 122.395C77.1426 122.348 77.1641 122.188 77.2031 121.914C77.2305 121.704 77.2441 121.537 77.2441 121.416C77.2441 120.01 77.2207 119.067 77.1738 118.586C77.1855 118.571 77.209 118.537 77.2441 118.487C77.2129 118.092 77.1621 117.77 77.0918 117.52C77.0566 117.403 76.9375 117.293 76.7344 117.192C76.5352 117.086 76.3887 117.047 76.2949 117.075C76.2949 116.914 76.3984 116.834 76.6055 116.834C76.6641 116.834 76.7441 116.842 76.8457 116.858C76.9473 116.87 77.0117 116.875 77.0391 116.875H79.9746C79.9824 116.969 79.8848 117.041 79.6816 117.092C79.5371 117.127 79.3945 117.162 79.2539 117.198C79.0781 117.28 78.9844 117.325 78.9727 117.332C78.8594 117.403 78.7891 117.483 78.7617 117.573C78.6797 117.846 78.623 118.209 78.5918 118.662C78.541 119.35 78.5137 119.719 78.5098 119.77C78.5879 119.993 78.627 120.194 78.627 120.373C78.627 120.463 78.6133 120.586 78.5859 120.743C78.5586 120.895 78.5449 121.016 78.5449 121.106V122.7C78.6074 122.887 78.6973 123.159 78.8145 123.514C78.8379 123.58 78.9121 123.623 79.0371 123.643C79.1934 123.662 79.416 123.696 79.7051 123.743C79.7559 123.754 79.8047 123.754 79.8516 123.743C80.1328 123.704 80.4141 123.662 80.6953 123.62C81.0391 123.561 81.3027 123.467 81.4863 123.338C81.5527 123.287 81.6348 123.151 81.7324 122.928C81.834 122.686 81.9219 122.526 81.9961 122.448C82.0547 122.385 82.1328 122.354 82.2305 122.354C82.2812 122.354 82.3887 122.381 82.5527 122.436ZM85.7754 117.409C85.7598 117.467 85.7344 117.549 85.6992 117.655C85.6992 117.655 85.582 117.68 85.3477 117.731C85.1992 117.766 85.1055 117.832 85.0664 117.93C85.0352 117.977 84.9961 118.043 84.9492 118.129C84.9414 118.157 84.8906 118.383 84.7969 118.809L84.7734 121.27C84.7461 121.371 84.7324 121.426 84.7324 121.434C84.7324 121.434 84.7461 121.475 84.7734 121.557L84.7617 122.465C84.7344 122.59 84.7344 122.762 84.7617 122.981C84.7891 123.235 84.8438 123.442 84.9258 123.602C84.9531 123.657 85.0215 123.717 85.1309 123.784C85.334 123.901 85.5371 123.957 85.7402 123.954C85.7363 124.004 85.7148 124.079 85.6758 124.176H84.9961C84.9844 124.176 84.916 124.172 84.791 124.164C84.6699 124.157 84.6055 124.153 84.5977 124.153C84.5859 124.153 84.5332 124.157 84.4395 124.164C84.3457 124.172 84.2949 124.176 84.2871 124.176C84.2793 124.176 84.2422 124.172 84.1758 124.164C84.1133 124.157 84.0762 124.153 84.0645 124.153C84.0527 124.153 84.0254 124.157 83.9824 124.164C83.9434 124.172 83.918 124.176 83.9062 124.176L82.6816 124.205C82.5762 124.205 82.5234 124.166 82.5234 124.088C82.5234 123.998 82.5508 123.946 82.6055 123.93C82.7305 123.907 82.8555 123.885 82.9805 123.866C83.125 123.834 83.2188 123.782 83.2617 123.707C83.2773 123.661 83.3008 123.588 83.332 123.491C83.3867 123.495 83.4707 123.506 83.584 123.526C83.623 123.366 83.6426 123.262 83.6426 123.215C83.6426 123.172 83.623 123.114 83.584 123.039C83.6152 122.961 83.6211 122.895 83.6016 122.84C83.5859 122.801 83.5488 122.735 83.4902 122.641C83.4395 122.559 83.4141 122.512 83.4141 122.5C83.4141 122.528 83.4473 122.411 83.5137 122.149C83.5215 122.118 83.5098 122.073 83.4785 122.014C83.5449 121.905 83.5781 121.83 83.5781 121.791C83.5781 121.784 83.5684 121.657 83.5488 121.411C83.5488 121.391 83.5352 121.354 83.5078 121.299C83.4805 121.245 83.4668 121.211 83.4668 121.2C83.4668 121.184 83.4824 121.157 83.5137 121.118C83.5059 121.133 83.502 121.112 83.502 121.053V120.344C83.502 120.332 83.5098 120.297 83.5254 120.239C83.5449 120.18 83.5547 120.145 83.5547 120.133C83.5547 120.125 83.5488 120.112 83.5371 120.092C83.5254 120.069 83.5195 120.051 83.5195 120.039C83.5195 120.055 83.5254 119.967 83.5371 119.776C83.5371 119.737 83.5332 119.672 83.5254 119.582C83.5176 119.493 83.5137 119.448 83.5137 119.448V118.985C83.5137 118.942 83.4863 118.879 83.4316 118.797C83.4473 118.754 83.4355 118.674 83.3965 118.557C83.3926 118.502 83.377 118.42 83.3496 118.311C83.3184 118.276 83.2793 118.225 83.2324 118.159C83.2168 118.12 83.1895 118.061 83.1504 117.983C83.0723 117.862 82.998 117.784 82.9277 117.748C82.8379 117.725 82.7031 117.682 82.5234 117.62C82.5352 117.565 82.5566 117.495 82.5879 117.409H82.6406C82.6523 117.409 82.6875 117.412 82.7461 117.42C82.8086 117.428 82.8457 117.432 82.8574 117.432L85.7754 117.409Z" fill="#EFA641"/>
<path d="M107.32 117.05H66.94C66.92 116.82 66.83 116.57 66.89 116.37C67.2 115.41 67.54 114.46 67.89 113.52C68.01 113.21 68.17 112.91 68.32 112.6L68.15 112.52C68 112.84 67.85 113.16 67.72 113.48C67.59 113.78 67.48 114.08 67.37 114.39C67.05 115.27 66.72 116.16 66.4 117.04H64.11C64.06 116.63 64.04 116.21 63.96 115.8C63.93 115.67 63.77 115.56 63.67 115.44C63.61 115.6 63.47 115.78 63.5 115.93C63.57 116.31 63.72 116.67 63.84 117.04H58.99C59.11 116.72 59.24 116.41 59.41 115.97C59.1 115.35 59.81 115.57 60.24 115.48C60.08 115.38 60.02 115.33 59.94 115.29C59.85 115.25 59.76 115.23 59.58 115.16C59.79 114.91 60.04 114.54 60.09 114.56C60.82 114.94 60.67 114.36 60.76 114C60.81 113.82 60.97 113.68 61.09 113.52C61.22 113.34 61.34 113.16 61.47 112.98C61.44 112.96 61.41 112.94 61.38 112.92C61.14 113.07 60.91 113.22 60.67 113.36C60.74 113.03 60.92 112.82 61.08 112.59C61.51 111.95 62.07 111.3 61.42 110.5C60.85 109.8 61 108.98 61.03 108.2C61.05 107.54 61.19 106.88 61.28 106.18C61.28 106.18 61.16 106.16 61.03 106.15C61.12 105.89 61.22 105.63 61.31 105.37C61.39 105.38 61.47 105.39 61.55 105.41C61.55 105.91 61.54 106.4 61.56 106.9C61.56 107.01 61.7 107.11 61.78 107.21C61.84 107.11 61.91 107.01 61.95 106.91C62.04 106.63 62.16 106.34 62.2 106.05C62.26 105.53 62.71 104.93 62.02 104.58C62.09 104.17 62.16 103.81 62.22 103.45L62.2 103.47C62.52 103.53 62.79 103.59 62.78 103.08C62.77 102.43 62.97 101.87 63.79 101.89C64.15 102.17 64.07 102.39 63.77 102.68C63.36 103.08 62.98 103.52 62.63 103.97C62.53 104.1 62.51 104.35 62.56 104.51C62.87 105.57 62.76 106.7 63.21 107.76C63.48 108.39 63.38 109.22 63.28 109.93C63.21 110.46 63.42 110.72 63.78 111.04C63.9 110.82 63.99 110.64 64.09 110.46C64.15 110.46 64.2 110.48 64.26 110.49C64.26 111.18 63.48 111.85 64 112.55C64.59 110.92 65.05 109.25 66.07 107.67C66.07 107.65 66 107.47 65.85 107.09C65.28 108.21 64.8 109.17 64.32 110.12C63.6 109.73 63.62 109.74 64.08 109.03C64.28 108.72 64.39 108.34 64.55 107.99C64.51 107.97 64.47 107.94 64.43 107.92C64.2 108.21 63.97 108.5 63.74 108.78C63.58 108.42 63.58 108.09 63.58 107.77C63.58 107.55 63.62 107.32 63.6 107.1C63.57 106.81 63.43 106.52 63.46 106.23C63.5 105.75 63.55 105.25 63.75 104.82C63.92 104.45 64.04 103.82 64.59 104.04C65.21 103.35 65.79 102.71 66.37 102.06C66.72 102.56 66.31 102.82 66.03 103.09C65.76 103.36 65.46 103.59 65.17 103.84C65.23 103.9 65.29 103.97 65.35 104.03C65.69 103.72 66.03 103.4 66.39 103.06C66.47 103.2 66.55 103.35 66.63 103.5C66.97 102.96 67.3 102.44 67.67 101.85C67.71 101.85 67.85 101.87 67.99 101.89C68.02 101.84 68.05 101.79 68.09 101.74C67.91 101.61 67.73 101.48 67.54 101.34C68.24 100.67 68.4 99.85 68.24 98.93C68.36 98.64 68.45 98.33 68.59 98.04C68.69 97.84 68.84 97.67 68.97 97.49L69.12 97.59L68.82 98.67C68.88 98.71 68.94 98.75 69 98.78C69.12 98.65 69.32 98.55 69.35 98.4C69.46 97.87 70.04 97.39 69.54 96.79C69.53 96.77 69.64 96.68 69.63 96.62C69.55 96.08 70.31 95.7 69.95 95.09C69.95 95.09 70.22 94.9 70.37 94.8C70.42 94.84 70.47 94.89 70.52 94.93C70.35 95.6 70.19 96.27 70.04 96.87C70.43 96.45 70.86 95.97 71.29 95.5C71.4 95.37 71.51 95.24 71.61 95.11C71.47 95.08 71.33 95.04 71.26 95.02C71.47 94.73 71.76 94.45 71.89 94.11C72.02 93.77 71.99 93.36 72.03 92.98C72.1 92.98 72.16 93 72.23 93.01C72.19 93.23 72.11 93.46 72.14 93.67C72.16 93.82 72.33 93.95 72.44 94.09C72 94.57 72.29 94.87 72.58 95.06C72.78 94.91 72.97 94.76 73.17 94.63C73.83 94.2 73.85 94.13 73.45 93.59C73.26 93.98 73.04 94.4 72.83 94.83C72.77 94.81 72.71 94.79 72.65 94.77C72.58 94.54 72.5 94.32 72.43 94.09C72.46 93.55 72.48 93.02 72.52 92.39C72.72 92.83 72.86 93.19 73.36 92.95C73.48 92.89 73.7 92.79 73.73 92.83C73.85 92.96 73.94 93.14 73.97 93.32C74 93.49 73.92 93.69 73.94 93.87C73.98 94.2 74.1 94.52 74.11 94.85C74.11 95.2 74.02 95.55 74 95.9C73.97 96.46 74.52 96.95 75.04 96.85C74.38 96.47 74.34 95.24 75.07 94.04V95.73C75.12 95.73 75.18 95.74 75.23 95.75C75.33 95.44 75.43 95.14 75.54 94.76C75.69 94.93 75.81 95.06 75.99 95.28C76.16 94.87 76.3 94.54 76.45 94.19C76.79 94.25 76.85 94.19 76.94 93.7C77.06 93.02 77.49 92.6 78.06 92.31C77.86 92.92 77.67 93.5 77.48 94.08C77.53 94.1 77.58 94.12 77.64 94.13C78.12 93.1 78.6 92.07 79.09 91.03C78.78 91.24 78.44 91.46 78.1 91.69V90.6C78.43 91.34 78.69 90.94 78.79 90.7C78.89 90.47 78.81 90.16 78.81 89.84C79.07 90.03 79.23 90.15 79.34 90.22C79.37 89.8 79.39 89.43 79.42 89.06C79.51 89.06 79.61 89.06 79.7 89.05C79.8 89.45 79.91 89.84 80.01 90.24L80.17 90.2C80.13 90.01 80.09 89.82 80.07 89.63C80.04 89.34 79.89 88.9 80.03 88.77C80.64 88.21 81.32 87.73 81.98 87.23C81.96 87.93 81.99 88.63 81.92 89.32C81.86 89.88 81.8 90.5 81.51 90.95C81.2 91.44 80.97 91.86 81.14 92.48C80.95 92.33 80.81 92.23 80.68 92.12C80.64 92.15 80.59 92.19 80.55 92.22C80.74 92.55 80.94 92.88 81.2 93.32C81.31 92.57 81.12 91.87 81.85 91.33C81.78 92.3 81.73 93.15 81.67 93.99C81.9 93.82 82.04 93.59 82.06 93.35C82.1 92.82 82.06 92.27 82.09 91.74C82.16 90.56 82.29 89.39 82.32 88.21C82.32 87.89 82.1 87.57 81.97 87.25C82.13 86.79 82.29 86.33 82.46 85.84C82.12 85.86 81.83 85.87 81.53 85.88C82.14 84.85 82.73 83.87 83.32 82.87C83.39 82.91 83.51 82.98 83.71 83.1C83.38 83.5 82.92 83.83 82.81 84.25C82.72 84.61 82.31 85.14 82.85 85.55C83.2 84.79 83.53 84.08 83.9 83.27C84.33 83.57 84.67 83.8 85.01 84.03C85.04 83.97 85.07 83.91 85.1 83.85C84.38 83.44 84.6 82.38 85.07 81.66C85.28 81.84 85.49 82.01 85.71 82.2C85.53 82.28 85.4 82.34 85.13 82.47C85.45 82.55 85.63 82.59 85.73 82.61C85.85 83.68 85.96 84.68 86.08 85.68C86.19 85.68 86.3 85.67 86.41 85.66C86.41 85.43 86.43 85.2 86.41 84.98C86.38 84.64 86.18 84.25 86.77 84.2L86.75 84.18C86.84 84.37 86.99 84.55 87.02 84.75C87.11 85.31 87.08 85.9 87.23 86.44C87.36 86.9 87.25 87.11 86.82 87.21C86.82 86.8 86.85 86.39 86.82 85.98C86.82 85.94 86.47 85.83 86.4 85.89C86.18 86.07 86.02 86.32 85.82 86.56C86.13 86.54 86.63 86.86 86.79 87.16C86.8 87.18 86.81 87.2 86.82 87.22C86.78 87.43 86.75 87.63 86.71 87.84C86.65 87.84 86.6 87.83 86.54 87.82C86.51 87.58 86.48 87.34 86.45 87.1C86.4 87.1 86.36 87.1 86.31 87.1C86.28 87.33 86.25 87.57 86.21 87.84C85.86 87.54 85.55 87.28 85.24 87.02C85.52 87.56 86.02 87.98 86.13 88.49C86.25 89.02 85.99 89.63 85.89 90.27C86.16 89.82 86.4 89.4 86.65 88.98C87.32 89.61 87.01 90.59 87.78 91.16C87.67 90.41 87.57 89.78 87.48 89.16C87.54 89.15 87.59 89.13 87.65 89.12C87.78 89.22 87.92 89.32 87.98 89.38C87.94 88.87 87.73 88.28 87.9 87.82C88.07 87.36 88.06 86.59 88.8 86.51C88.97 87.31 89.12 88.04 89.28 88.78C89.84 87.66 88.77 86.61 89.15 85.41C89.33 85.56 89.43 85.66 89.53 85.74C89.57 85.64 89.62 85.54 89.67 85.43C89.74 85.43 89.81 85.42 89.88 85.41C90.03 86.02 90.17 86.63 90.32 87.24C89.48 87.75 90.62 88.02 90.41 88.46C90.51 88.22 90.43 87.92 90.55 87.76C91.09 87.04 90.51 86.36 90.46 85.69C90.42 85.13 89.6 84.72 89.83 83.83C89.56 84.13 89.41 84.29 89.25 84.47C89.13 84.28 89.05 84.14 88.95 83.99C89.17 83.9 89.37 83.81 89.59 83.72C89.57 83.48 89.55 83.25 89.53 83.03C89.47 83.03 89.42 83.03 89.36 83.04V83.73C89.17 83.53 89.07 83.42 88.95 83.3C88.9 83.46 88.87 83.59 88.83 83.71C88.81 83.71 88.79 83.7 88.77 83.69V82C88.55 82.34 88.42 82.55 88.29 82.76C88.03 82.52 87.82 82.32 87.61 82.13C87.8 82.08 87.98 82.03 88.25 81.96C87.41 81.11 88.38 80.28 88.14 79.31C88.02 79.61 87.95 79.78 87.82 80.09C87.71 79.64 87.63 79.32 87.55 79C87.51 78.99 87.46 78.98 87.42 78.97C87.29 79.42 87.16 79.87 87.03 80.32C85.91 79.94 85.81 79.97 85.73 80.66C86.05 80.66 86.42 80.6 86.73 80.69C86.87 80.73 86.92 81.09 87 81.31C86.94 81.33 86.88 81.36 86.82 81.38C86.6 81.2 86.39 81.02 86.09 80.78C86.02 81.04 85.97 81.21 85.91 81.43C86.18 81.4 86.34 81.38 86.49 81.36C86.54 81.53 86.59 81.66 86.63 81.79C86.66 81.92 86.69 82.06 86.71 82.19C86.64 82.22 86.58 82.24 86.51 82.27C86.07 81.72 85.63 81.17 85.27 80.73C85.5 80.23 85.73 79.92 85.79 79.57C85.83 79.31 85.67 79.01 85.58 78.68C85.3 78.98 85.12 79.18 84.93 79.38L84.76 79.24C85.09 78.83 85.42 78.42 85.78 77.98C85.75 77.93 85.66 77.75 85.6 77.65C86.03 77.4 86.44 77.18 86.82 76.91C86.96 76.81 87.14 76.52 87.09 76.44C86.98 76.26 86.76 76.09 86.56 76.04C86.14 75.93 85.7 75.9 85.29 75.84C85.37 74.92 85.6 74.02 84.98 73.15C84.58 73.33 84.19 73.51 83.91 73.64C83.64 73.42 83.46 73.13 83.23 73.09C82.58 72.98 81.92 72.95 81.26 72.94C81.04 72.94 80.73 73.23 80.62 73.15C80.02 72.71 79.4 72.78 78.73 72.9C78.21 72.99 77.66 72.96 77.13 72.99C76.79 72.96 76.28 72.6 76.06 72.73C75.39 73.13 74.83 73.71 74.59 74.52C74.54 74.7 74.27 74.89 74.07 74.93C73.68 75 73.26 74.91 72.87 74.97C72.55 75.02 72.25 75.2 72.63 75.59C73.05 76.03 73.27 76.7 74.04 76.69C74.1 76.69 74.16 76.78 74.19 76.8C73.96 76.95 73.76 77.09 73.55 77.22C73.74 77.33 73.94 77.44 74.19 77.58C73.85 77.86 73.63 78.39 73.14 78.04C72.94 78.21 72.8 78.4 72.61 78.48C72.06 78.73 71.45 78.86 71.24 79.57C71.15 79.85 70.93 80.04 70.52 80.14C70.14 80.24 69.88 80.83 69.56 81.21C69.46 81.12 69.35 81.03 69.25 80.94C69.61 80.46 69.97 79.99 70.33 79.51C70.3 79.51 70.28 79.51 70.25 79.51C70.42 79.08 70.58 78.64 70.75 78.21C71.09 78.01 71.43 77.81 71.87 77.55C71.51 77.97 71.25 78.27 70.99 78.57C71.05 78.63 71.12 78.68 71.18 78.74C71.8 78.07 72.41 77.4 73.05 76.71C72.93 76.71 72.71 76.65 72.53 76.72C72.16 76.86 71.82 77.22 71.47 77.21C70.62 77.19 70.9 77.82 70.77 78.22C70.04 78.14 69.46 78.51 69.04 79C68.07 80.12 67.14 81.28 66.28 82.5C65.43 83.71 64.7 85.01 63.89 86.26C63.45 86.94 62.97 87.6 62.51 88.26C62.47 88.23 62.43 88.21 62.39 88.18C62.55 87.73 62.7 87.27 62.86 86.82C62.82 86.8 62.79 86.79 62.75 86.77C62.28 87.43 61.82 88.09 61.35 88.75C61.37 88.77 61.38 88.79 61.4 88.8C61.57 88.68 61.74 88.55 61.91 88.43C61.97 88.48 62.02 88.53 62.08 88.58C61.87 88.83 61.69 89.12 61.44 89.32C61.16 89.54 60.8 89.66 60.48 89.83C60.51 89.88 60.53 89.93 60.56 89.97C60.75 89.99 60.94 90.02 61.15 90.04C60.86 90.5 60.59 90.92 60.31 91.37C59.97 91.75 59.6 92.16 59.29 92.51V91.48C59.09 91.52 58.94 91.59 58.89 91.54C58.82 91.48 58.76 91.29 58.8 91.22C58.91 91.05 59.08 90.9 59.23 90.76C59.37 90.63 59.66 90.46 59.63 90.39C59.49 89.94 59.54 89.77 60.05 89.97C60.1 89.99 60.31 89.79 60.31 89.69C60.31 89.54 60.2 89.39 60.14 89.25C59.95 89.32 59.77 89.39 59.51 89.49C59.6 88.76 59.69 88.11 59.77 87.41C60 87.6 60.19 87.77 60.46 88C60.44 87.77 60.46 87.63 60.41 87.5C60.33 87.27 60.2 87.06 60.13 86.83C60.1 86.72 60.13 86.57 60.19 86.47C60.21 86.43 60.42 86.42 60.46 86.47C60.53 86.56 60.62 86.74 60.58 86.82C60.31 87.29 60.6 87.37 60.79 87.41C61.09 86.93 61.31 86.51 61.6 86.15C61.84 85.83 62.34 85.61 62.41 85.28C62.64 84.24 63.54 84.08 64.27 83.7C64.66 83.49 64.76 83.18 64.72 82.6C64.49 82.95 64.39 83.21 64.2 83.35C64 83.5 63.84 83.94 63.46 83.6C64.2 82.8 64.94 82.01 65.69 81.21C65.39 81.04 65.25 80.96 65.13 80.89C64.9 81.17 64.63 81.41 64.47 81.7C64.11 82.33 63.8 82.98 63.48 83.62C63.25 83.76 63.02 83.89 62.84 84C62.75 83.69 62.66 83.4 62.6 83.17C62.81 82.95 63.05 82.71 63.28 82.47C63.23 82.42 63.19 82.38 63.14 82.33C62.73 82.69 62.31 83.05 61.91 83.42C61.82 83.5 61.72 83.64 61.73 83.74C61.8 84.67 61.81 84.67 61.06 85C61.19 84.71 61.31 84.45 61.42 84.19C61.37 84.15 61.32 84.12 61.27 84.08C60.98 84.38 60.69 84.68 60.4 84.99L60.21 84.88C60.56 84.25 60.95 83.63 61.24 82.98C61.52 82.35 62.29 82.28 62.55 81.51C62.88 80.54 63.68 79.74 64.28 78.87C65.12 79.25 63.76 79.78 64.47 80.25C64.67 79.65 64.87 79.08 65.05 78.5C65.08 78.4 65.08 78.27 65.04 78.17C64.74 77.35 64.75 77.3 65.55 76.97C65.95 76.8 66.15 76.59 65.74 76.21C66.32 75.73 66.65 74.79 67.69 75.32C67.57 74.75 67.82 74.58 68.35 74.74C67.72 75.85 66.84 76.83 66.61 78.17C66.88 78.07 67.05 77.9 67.2 77.7C67.57 77.21 67.92 76.7 68.3 76.21C68.49 75.98 68.73 75.78 68.96 75.59C69.14 75.44 69.35 75.33 69.55 75.21C69.75 75.09 69.95 74.97 70.16 74.85C70.12 74.79 70.08 74.72 70.04 74.66C69.42 75.04 68.8 75.42 68.19 75.8C68.61 75.42 68.7 74.75 69.39 74.62C69.63 74.58 70.14 74.32 69.92 73.74C69.79 73.39 70.27 73.09 70.68 73.2C70.64 73.08 70.61 72.97 70.59 72.93C70.84 72.84 71.07 72.78 71.27 72.67C72.18 72.17 72.95 71.51 73.63 70.72C74.39 69.84 75.21 69.01 75.94 68.1C76.23 67.75 76.35 67.27 76.62 66.71C75.22 66.91 74.01 67.09 72.73 67.28C73.68 66.81 74.58 66.36 75.66 65.83C75.04 65.63 74.62 65.5 74.2 65.37C74.4 65.08 74.24 64.92 73.82 64.98C73.21 65.07 72.92 64.71 72.75 64.22C72.57 63.67 72.38 63.09 72.92 62.6C73.05 63.1 73.17 63.57 73.26 63.9C74.02 63.54 74.68 63.14 75.4 62.92C76.42 62.6 77.44 62.53 78.43 63.22C79.02 63.63 79.74 63.95 80.44 64.1C81.27 64.28 82.15 64.32 83.01 64.28C83.51 64.25 84.02 64 84.49 63.76C86.11 62.94 87.22 64.21 88.6 64.62C88.79 64.22 89.02 63.72 89.31 63.13C89.42 63.41 89.44 63.55 89.51 63.65C90.15 64.57 90.81 65.48 91.44 66.41C91.62 66.67 91.7 67 91.85 67.28C92.07 67.69 92.3 68.09 92.56 68.48C92.76 68.77 93.04 69 93.24 69.28C93.97 70.31 94.69 71.36 95.41 72.4C95.43 72.31 95.45 72.23 95.48 72.14C95.85 72.05 96.22 71.94 96.6 71.87C96.79 71.83 97.04 71.92 97.18 71.82C97.79 71.41 98.37 70.95 98.95 70.52C98.97 70.55 99.02 70.67 99.15 70.93C99.31 70.57 99.43 70.35 99.52 70.11C99.96 68.92 100.47 67.75 100.81 66.54C101.2 65.13 102.07 63.8 101.53 62.2C101.25 61.38 101.17 60.5 101.01 59.64C100.94 59.23 100.85 58.8 100.87 58.39C100.91 57.71 100.91 56.99 101.16 56.38C101.59 55.32 101.26 54.34 101.12 53.33C100.96 52.17 100.35 51.62 99.21 51.53C99.03 51.52 98.86 51.39 98.68 51.32C98.3 51.17 97.93 50.94 97.53 50.89C96.92 50.8 96.51 51.45 96.8 51.99C97.03 52.42 97.06 52.81 96.71 53.2C96.35 53.6 96.5 53.89 97 54.09C96.66 54.56 97.26 55.35 96.29 55.58C95.94 55.03 95.54 54.47 95.22 53.88C94.64 52.81 93.43 52.21 92.2 52.42C92.37 52.88 92.54 53.34 92.67 53.67C92.26 53.6 91.89 53.45 91.57 53.53C91.36 53.58 91.22 53.95 91.05 54.18C91.1 54.25 91.15 54.33 91.2 54.4H92.46C92.85 55.22 93.94 54.75 94.51 55.29C93.12 55.07 91.75 54.86 90.37 54.63C89.42 54.47 89.24 54.16 89.48 53.17C89.5 53.09 89.52 53.01 89.53 52.93C88.82 53.11 88.14 53.27 87.39 53.46C87.43 53.15 87.45 52.91 87.48 52.64C87.04 52.82 86.64 52.98 86.15 53.17C86.3 52.82 86.42 52.55 86.54 52.27C86.43 52.23 86.31 52.19 86.18 52.14C86.26 51.94 86.33 51.76 86.37 51.65C85.66 51.7 84.91 51.9 84.23 51.77C82.92 51.52 81.66 51.25 80.46 52.06C80.21 52.23 79.95 52.38 79.74 52.59C79.37 52.95 79.09 53.47 78.65 53.7C78.24 53.92 77.84 54.27 77.22 54.12C76.38 53.92 75.5 53.97 74.7 54.44C74.38 54.63 73.99 54.69 73.63 54.8C73.62 54.77 73.61 54.74 73.6 54.71C73.95 54.37 74.31 54.03 74.67 53.68C74.14 53.48 73.71 53.33 73.13 53.12C73.56 52.95 73.79 52.8 74.05 52.76C74.65 52.67 74.7 52.26 74.44 51.92C74.1 51.46 73.59 51.12 73.18 50.71C72.28 49.81 71.19 49.59 69.98 49.78C68.8 49.96 67.78 51.05 67.76 52.23C67.76 52.4 67.95 52.64 68.12 52.74C68.45 52.93 68.82 53.05 69.18 53.2C69.17 53.26 69.15 53.33 69.14 53.39C68.7 53.33 68.27 53.22 67.83 53.21C67.53 53.21 67.12 53.22 66.93 53.41C66.27 54.07 65.67 54.8 65.06 55.52C64.85 55.77 64.67 56.05 64.52 56.34C64.36 56.67 64.25 57.04 64.06 57.55C63.76 57.07 63.58 56.8 63.5 56.66C64.28 55.37 65.03 54.19 65.73 52.98C66.07 52.39 65.64 51.72 64.97 51.72C64.95 51.37 64.94 51.01 64.92 50.64C65.27 50.68 65.56 50.56 65.62 50.07C65.64 49.93 65.89 49.81 66.03 49.68C66.13 49.59 66.33 49.46 66.31 49.4C66.27 49.26 66.13 49.05 66.01 49.03C65.46 48.95 65.55 48.7 65.8 48.4C65.53 48.35 65.27 48.31 65.01 48.26C64.16 49.05 62.89 49.64 63.34 51.17C63.51 51.19 63.71 51.21 63.8 51.22V52.97C63.31 53.2 63.1 53.77 63.06 54.43C63.06 54.45 63.04 54.47 63.03 54.49C62.73 55.4 62.4 56.31 62.15 57.24C62.08 57.51 62.19 57.87 62.33 58.14C62.56 58.61 62.87 59.05 63.15 59.51C63.17 59.54 63.15 59.6 63.15 59.64C63.23 60.08 63.31 60.52 63.39 60.96C63.44 60.96 63.5 60.96 63.55 60.95C63.65 60.75 63.76 60.54 63.86 60.34C64.29 60.65 64.69 60.94 65.15 61.27C64.73 61.52 64.43 61.7 64.23 61.82C63.93 62.77 64.06 63.55 64.88 64.13C64.4 65.25 64.8 66.23 65.42 66.97C65.12 67.24 64.86 67.48 64.59 67.7C64.26 67.96 63.92 68.19 63.59 68.45C63.29 68.69 63.01 68.94 62.72 69.19C62.77 69.25 62.81 69.3 62.86 69.36L64.27 68.5C63.94 69.01 63.53 69.41 63.14 69.83C62.9 70.09 62.71 70.38 62.48 70.64C62.3 70.86 62.1 71.08 61.91 71.3C61.44 71.83 60.96 72.36 60.49 72.9C60.45 72.94 60.46 73.03 60.47 73.09C60.52 73.44 60.58 73.79 60.63 74.13C60.82 73.8 61.29 73.36 61.2 73.09C60.98 72.36 61.67 72.17 61.82 71.69C61.85 71.6 62.15 71.59 62.32 71.54C62.32 71.73 62.37 71.95 62.3 72.1C62.18 72.34 61.79 72.62 61.84 72.74C62.12 73.41 61.5 73.58 61.27 73.97C60.94 74.51 60.64 75.08 60.33 75.64C60.28 75.69 60.23 75.74 60.17 75.79C59.98 75.96 59.79 76.13 59.6 76.3C59.57 76.29 59.53 76.27 59.5 76.26C59.58 76.04 59.67 75.83 59.76 75.59C59.64 75.59 59.53 75.6 59.45 75.61C59.51 74.95 59.61 74.32 59.6 73.69C59.6 73 59.57 72.29 59.41 71.61C59.33 71.27 59.76 70.68 59 70.49C58.98 70.75 58.96 70.94 58.94 71.13C58.9 71.14 58.86 71.16 58.82 71.17C58.68 70.88 58.54 70.6 58.32 70.14V71.24C58.53 71.34 58.76 71.45 58.98 71.55C58.97 71.6 58.96 71.66 58.95 71.71H58.39C58.39 71.71 58.32 71.77 58.31 71.8C58.26 73.41 58.23 75.03 58.17 76.64C58.17 76.78 58.01 76.92 57.93 77.05C57.62 76.77 57.65 77.06 57.61 77.24L57.64 77.22C57.2 77.27 56.76 77.36 56.33 77.35C55.08 77.34 53.85 77.4 52.7 78.01C52.62 78.05 52.47 78.02 52.38 77.97C51.83 77.67 51.3 77.82 50.77 78.03C50.45 78.15 50.11 78.23 49.62 78.38C49.72 77.93 49.79 77.6 49.88 77.14C50.07 77.41 50.15 77.61 50.22 77.61C50.82 77.6 51.42 77.58 52.01 77.51C52.46 77.46 52.91 77.35 53.34 77.23C53.96 77.05 54.56 76.84 55.17 76.64C55.15 76.58 55.12 76.52 55.1 76.46C53.38 76.34 52.97 76.09 53.12 75.25C53.03 75.31 52.94 75.42 52.9 75.41C52.32 75.21 52.23 75.58 52.18 76.01C52.16 76.16 52.15 76.32 52.08 76.46C52.03 76.56 51.9 76.68 51.8 76.69C51.7 76.69 51.51 76.59 51.5 76.52C51.41 75.79 51.05 76.1 50.75 76.31C50.05 75.92 50.49 75.35 50.3 74.76C50.05 75.09 49.79 75.41 49.53 75.76C49.38 75.57 49.22 75.37 49.05 75.17C49.78 74.76 49.77 74.68 48.89 74.06C49.21 73.32 48.88 72.79 48.09 72.57C47.88 72.51 47.77 72.1 47.52 71.71C47.86 71.8 48 71.83 48.18 71.88C48.17 71.68 48.16 71.52 48.15 71.35C47.97 71.39 47.83 71.42 47.65 71.46C47.72 70.95 47.78 70.51 47.86 69.95C48.52 71.48 49.14 72.89 49.75 74.31C50.64 74.26 51.5 74.27 52.33 74.14C52.78 74.07 53.34 73.84 53.59 73.5C54.52 72.21 55.33 70.87 55.08 69.13C54.95 68.26 54.95 67.38 54.31 66.5C54.26 66.98 54.23 67.31 54.2 67.64C53.31 67.64 52.52 67.64 51.73 67.64C51.81 68.01 52.55 68.6 52.99 68.49C53.54 68.35 53.82 68.7 54.15 68.94C54.48 69.17 54.54 70.46 54.31 70.74C53.29 70.08 52.28 69.43 51.25 68.77C51.08 69.24 50.82 69.61 51.14 70.09C51.48 70.6 51.74 71.16 51.95 71.74C52.16 72.32 52.27 72.94 52.43 73.57C51.85 73.66 51.48 73.73 51.38 73.03C51.29 72.39 50.97 71.79 50.74 71.17C50.7 71.07 50.57 71 50.36 70.81V73.41C49.84 72.65 49.47 71.89 49.13 71.12C49.04 70.91 49 70.63 49.06 70.43C49.23 69.9 49.42 69.35 49.71 68.87C50.12 68.2 50.05 67.16 51.11 66.95C51.19 66.93 51.27 66.69 51.28 66.54C51.3 66.12 51.31 65.69 51.28 65.26C51.28 65.13 51.17 64.94 51.06 64.9C50.95 64.86 50.68 64.97 50.67 65.04C50.61 65.62 49.99 65.62 49.74 65.97C49.44 66.37 49.22 66.83 48.96 67.26C48.99 66.64 49.03 66.02 49.57 65.59C50.17 65.12 50.3 64.64 49.95 63.98C49.73 63.55 49.49 63.14 49.36 62.89C48.84 62.76 48.51 62.68 48.15 62.59C48.06 62.72 47.96 62.88 47.83 63.06C47.59 62.01 48.42 62.41 48.83 62.26C48.81 62.1 48.79 61.95 48.75 61.63C49.5 62.3 50.13 62.86 50.76 63.43C50.8 63.38 50.85 63.32 50.89 63.27C50.5 62.75 50.1 62.23 49.67 61.66H50.7C50.52 60.57 49.88 59.89 49.26 59.2C49.21 59.22 49.15 59.24 49.1 59.26V60.89C48.84 60.08 48.71 59.26 48.61 58.44C48.6 58.34 48.76 58.22 48.81 58.15C50.14 59.74 51.6 61.09 53.24 62.26C53.25 62.1 53.2 62.01 53.13 61.93C52.3 61.1 51.43 60.3 50.65 59.42C50.24 58.96 49.98 58.35 49.65 57.81C49.47 57.51 49.07 57.27 49.41 56.83C49.52 56.87 49.64 56.87 49.71 56.94C51.06 58.27 52.38 59.63 53.76 60.92C54.46 61.58 55.28 62.12 56.07 62.69C56.86 63.27 57.97 63.52 58.1 64.76C58.11 64.89 58.2 65.01 58.29 65.21C58.54 64.22 58.35 63.58 57.51 63.14C55.06 61.84 53.06 60.02 51.29 57.94C50.96 57.55 50.65 57.15 50.33 56.76C50.38 56.72 50.42 56.68 50.47 56.64C52.68 59.58 55.8 61.45 58.66 63.62C59.01 63.23 58.74 62.5 58.16 62.19C57.45 61.81 56.73 61.43 56.07 60.96C53.76 59.32 51.76 57.38 50.19 54.99C49.77 54.35 49.77 53.81 50.02 53.15C51.06 50.34 52.08 47.52 53.1 44.7C53.17 44.5 53.1 44.26 53.1 44.04C53 44.02 52.91 44.01 52.81 43.99C51.68 45.73 51.16 47.79 50.04 49.55C50.85 47.47 51.66 45.39 52.5 43.25C51.29 43.01 50.09 42.8 48.91 42.54C48.44 42.44 47.99 42.25 47.52 42.1C47.54 42.05 47.56 42 47.58 41.94C50.17 42.33 52.75 42.71 55.35 43.1C55.1 42.74 54.87 42.42 54.62 42.07C53.25 41.68 51.8 41.26 50.35 40.84C50.36 40.77 50.37 40.71 50.39 40.64C51.4 40.76 52.43 40.82 53.43 41.01C54.66 41.25 54.77 41.25 55.32 40.16C55.63 39.55 55.93 38.95 56.25 38.32C56.15 38.19 56.04 38.03 55.9 37.86C55.58 38.07 54.98 38.3 54.99 38.49C55.05 39.24 54.45 39.56 54.23 40.1C54.17 40.07 54.11 40.05 54.06 40.02C54.2 39.68 54.34 39.35 54.45 39.09C53.87 39.03 53.28 38.99 52.7 38.9C52.5 38.87 52.32 38.71 52.13 38.61C52.36 38.56 52.58 38.48 52.81 38.47C53.47 38.44 54.18 38.93 54.78 38.21C55.3 37.58 56.29 37.43 56.99 37.8C57.4 37.52 57.4 36.72 58.19 36.87C57.53 36.95 56.83 36.46 56.17 37.28C56.42 36.63 56.02 36.7 55.74 36.64C55.39 36.56 55.04 36.49 54.69 36.39C54.56 36.35 54.39 36.27 54.33 36.16C53.92 35.38 53.93 35.38 53.37 36.02C53.71 36.33 54.05 36.64 54.32 36.88C52.91 36.6 51.45 36.31 49.99 36.01C50.22 35.61 50.38 35.32 50.55 35.03C50.27 35.13 50.07 35.29 49.98 35.5C49.8 35.89 49.62 35.86 49.32 35.63C49.18 35.52 48.94 35.51 48.75 35.52C48.51 35.53 48.27 35.6 47.86 35.68C48.02 34.94 48.14 34.36 48.22 33.96C49.33 33.72 49.99 34.8 51.02 34.54C50.59 33.67 49.87 33.31 48.79 33.44C49.22 31.93 49.49 31.68 50.67 31.78C50.83 31.79 51.03 31.92 51.11 32.06C51.54 32.75 51.67 32.76 52.1 32.1C52.17 31.99 52.24 31.89 52.26 31.85C52.9 31.9 53.47 31.95 54.04 32C54.56 32.04 55.11 32.2 55.58 32.08C55.89 32 56.62 32.71 56.57 31.7C56.71 31.72 56.88 31.7 56.99 31.76C57.16 31.86 57.29 32.03 57.43 32.18C57.81 32.57 58.2 32.78 58.69 32.33C58.81 32.22 59.03 32.22 59.38 32.13C59.19 32.46 59.09 32.62 59.07 32.65C61.24 32.4 63.43 32.73 65.65 32.75C65.24 32.56 64.81 32.4 64.38 32.33C63.34 32.17 62.28 31.92 61.24 31.96C60.24 32.01 59.23 31.37 58.35 32C57.87 31.72 57.48 31.37 57.03 31.26C56.11 31.05 55.16 30.98 54.23 30.82C53.94 30.77 53.52 30.66 53.42 30.45C53.21 29.99 52.98 30.1 52.73 30.3C52.18 30.74 51.31 30.59 50.96 30.01C51.11 30.01 51.28 30.03 51.45 30.01C51.85 29.94 52.24 29.76 52.63 29.78C53.51 29.81 54.39 29.95 55.27 30.02C56.47 30.12 57.68 30.17 58.87 30.31C60.38 30.49 61.88 30.74 63.38 30.96C65.08 31.21 66.77 31.47 68.47 31.73C69.99 31.96 71.52 32.18 73.03 32.44C74.54 32.7 76.04 33.01 77.55 33.31C77.61 33.32 77.65 33.44 77.78 33.6C77.44 33.67 77.17 33.79 76.91 33.77C75.77 33.66 74.63 33.52 73.5 33.37C72.56 33.25 71.63 33.1 70.69 32.98C70.1 32.91 69.5 32.89 68.9 32.84C68.87 32.94 68.84 33.04 68.81 33.14C69.35 33.4 69.86 33.79 70.43 33.88C73.01 34.31 75.6 34.67 78.27 35.06C78.22 35.28 78.22 35.53 78.12 35.73C77.5 37.03 76.82 38.31 76.23 39.63C76.05 40.04 75.72 40.56 76.29 41.18C77.35 38.95 78.36 36.83 79.37 34.72C79.39 34.74 79.46 34.85 79.57 35C80.67 33.29 81.76 31.6 82.85 29.9C82.76 30.41 82.59 30.88 82.36 31.32C81.72 32.57 81.03 33.8 80.43 35.06C78.91 38.24 77.42 41.44 75.94 44.64C75.87 44.78 75.89 45.03 75.97 45.17C76.35 45.8 76.73 46.43 77.18 47.01C77.74 47.73 78.54 48.31 78.9 49.1C79.25 49.85 79.83 49.81 80.37 50.04C80.58 50.13 80.82 50.22 80.95 50.38C81.3 50.82 81.74 50.99 82.28 50.99C82.64 50.99 82.99 51.03 83.35 51.04C84 51.06 84.69 51.44 85.27 50.79C85.33 50.72 85.54 50.79 85.69 50.81C86.53 50.89 87.36 50.81 88.03 50.27C89.27 49.28 90.47 48.26 91.67 47.21C91.82 47.08 91.9 46.73 91.84 46.52C91.73 46.14 91.42 45.8 91.33 45.42C90.91 43.63 90.52 41.83 90.15 40.03C89.72 37.99 89.3 35.95 88.9 33.91C88.65 32.62 88.43 31.32 88.23 30.02C88.17 29.67 88.11 29.24 88.25 28.95C88.67 28.1 88.71 27.21 88.76 26.31C88.8 25.59 88.84 24.88 88.88 24.16C89.42 25.8 88.83 27.56 89.49 29.22C90.07 28.86 90.33 29.23 90.48 29.59C90.69 30.11 91.13 30.1 91.5 30.27C91.55 30.21 91.59 30.15 91.64 30.09C91.47 29.93 91.3 29.76 91.09 29.55C91.33 29.46 91.57 29.38 91.78 29.3C91.76 28.99 91.74 28.63 91.71 28.17C91.97 28.29 92.12 28.35 92.23 28.4C92.36 27.98 92.52 27.23 92.62 27.23C93.38 27.28 93.29 26.53 93.68 26.26C93.81 26.36 93.96 26.47 94.11 26.58C94.17 26.54 94.24 26.49 94.3 26.45C94.08 26.08 93.87 25.71 93.65 25.33C94.17 25.28 94.19 25 93.76 24.08C93.72 24.13 93.68 24.18 93.64 24.23C93.3 23.96 92.96 23.69 92.73 23.51C92.9 23.05 92.93 22.59 93.14 22.48C93.39 22.34 93.81 22.51 94.15 22.54L94.21 22.83C93.91 23.04 93.61 23.25 93.19 23.55C93.43 23.58 93.68 23.67 93.9 23.63C94.26 23.56 94.63 22.77 94.56 22.4C94.86 22.52 95.09 22.72 95.35 22.9C95.54 23.03 95.75 23.15 95.97 23.22C96.13 23.27 96.33 23.23 96.65 23.23C96.32 23.01 96.11 22.87 95.95 22.76C96.36 22.31 96.77 21.86 97.14 21.46C96.01 20.71 95 20.05 94 19.38C94.02 19.31 94.04 19.25 94.06 19.18C94.59 19.31 95.12 19.43 95.62 19.55C95.67 19.32 95.71 19.15 95.76 18.9C95.99 19.17 96.13 19.34 96.27 19.52C96.32 19.5 96.37 19.48 96.42 19.46V18.82C97.41 18.82 98.39 18.82 99.38 18.82C99.45 18.96 99.47 19.15 99.58 19.24C100.06 19.62 100.58 19.96 101.07 20.33C102.71 21.59 104.35 22.86 105.97 24.14C107.27 25.17 108.54 26.23 109.82 27.28C111.2 28.41 112.61 29.51 113.96 30.68C114.23 30.92 114.45 31.41 114.42 31.77C114.3 33.44 114.09 35.11 113.9 36.83C114.31 36.9 114.35 37.26 114.31 37.7C114.24 38.46 114.19 39.22 114.19 39.98C114.19 40.69 114.33 41.41 114.29 42.12C114.2 43.78 114.05 45.44 113.9 47.1C113.88 47.27 113.79 47.48 113.66 47.59C113.6 47.64 113.31 47.51 113.23 47.39C113.14 47.25 113.14 47.03 113.17 46.86C113.3 46.29 113.46 45.73 113.6 45.2H112.45C112.43 45.33 112.41 45.53 112.35 45.94C111.98 45.63 111.71 45.41 111.49 45.22C111.39 46.1 110.3 45.39 109.71 46.13C110.52 46.28 111.17 46.39 111.85 46.52C111.99 46.99 111.77 47.22 111.27 47.22C110.71 47.22 110.15 47.22 109.59 47.22C109.19 47.22 108.84 47.36 108.85 47.77C108.85 47.9 109.31 48.14 109.56 48.15C110.2 48.17 110.84 48.08 111.48 48.05C111.8 48.03 112.11 48.05 112.43 48.05C112.41 48.07 112.39 48.1 112.37 48.12C112.78 48.32 113.18 48.53 113.63 48.75C113.6 48.82 113.55 48.96 113.5 49.1C113.2 49.95 112.84 50.77 112.94 51.72C112.98 52.05 112.81 52.4 112.76 52.74C112.72 53 112.68 53.27 112.7 53.53C112.77 54.41 112.9 55.29 112.94 56.17C112.97 56.69 112.82 57.23 112.84 57.75C112.89 58.92 113.03 60.09 113.08 61.27C113.12 62.14 112.91 62.36 112.02 62.5C112.13 62.58 112.22 62.69 112.31 62.69C113.01 62.65 113.12 63.05 113.1 63.63C113.09 64.14 113.07 64.67 113.19 65.16C113.49 66.41 113.86 67.65 114.19 68.84C114.18 68.84 114.01 68.87 113.84 68.89C113.89 69.08 113.9 69.29 113.99 69.46C114.17 69.79 114.39 70.1 114.62 70.45C114.38 70.48 114.15 70.46 114.12 70.53C113.74 71.32 114.49 71.83 114.72 72.55C114.12 72.09 113.6 71.68 113.08 71.28C113.02 71.35 112.96 71.42 112.9 71.5C113.15 71.71 113.42 71.9 113.64 72.15C113.85 72.39 114.2 72.82 114.13 72.93C113.84 73.36 114.13 73.61 114.27 73.93C114.39 74.2 114.5 74.47 114.62 74.75L114.43 74.89C114.35 74.73 114.28 74.58 114.2 74.42C114.13 74.46 114.07 74.5 114 74.54C114.18 75.25 114.36 75.95 114.55 76.7C114.31 76.58 114.13 76.48 113.93 76.38C113.82 77.27 112.57 77.53 112.74 78.39C110.8 79.43 108.93 80.39 108.64 82.87C108.81 83.25 109.01 83.7 109.23 84.2C109.04 84.24 108.88 84.28 108.69 84.32C109.02 84.74 109.58 85.12 108.91 85.5C108.93 85.79 109.03 86.03 108.95 86.17C108.7 86.62 108.37 87.03 108.09 87.48C108.02 87.6 108.03 87.77 108 87.92C108.15 87.92 108.31 87.96 108.45 87.92C108.96 87.81 109.42 87.37 110.06 87.77C109.33 87.93 109.69 88.31 109.89 88.67C109.63 88.7 109.44 88.72 109.25 88.74C109.36 88.88 109.5 88.99 109.62 88.97C110.04 88.89 110.15 89.08 110.11 89.45C110.07 89.76 110.02 90.08 110.01 90.39C110.01 90.66 110.05 90.94 110.07 91.21C110.11 91.21 110.14 91.19 110.18 91.19C110.3 90.63 110.42 90.07 110.56 89.42C111.42 90.04 110.33 90.66 110.92 91.35C111.03 91.02 111.1 90.8 111.22 90.42C111.66 91.86 112.07 93.21 112.45 94.43C112.18 94.6 112.03 94.7 111.88 94.79C111.95 94.87 112.02 95.01 112.1 95.02C112.52 95.05 112.53 95.04 112.49 95.44C112.7 95.39 112.93 95.34 113 95.33C112.99 95.74 112.92 96.1 112.98 96.44C113.08 97.08 113.25 97.72 113.38 98.36V98.34C113.24 98.53 112.98 98.7 112.96 98.9C112.89 99.7 112.88 100.51 112.9 101.32C112.9 101.47 113.1 101.69 113.25 101.74C113.81 101.93 113.82 101.91 113.46 102.46C113.39 102.31 113.33 102.2 113.27 102.07C113.11 102.69 112.96 103.29 112.81 103.9C112.85 103.93 112.89 103.96 112.93 103.99C113.19 103.52 113.46 103.04 113.7 102.6C113.92 102.7 114.09 102.78 114.38 102.92C114.08 103 113.88 103.05 113.72 103.1C113.52 103.46 113.22 103.83 113.1 104.25C112.76 105.42 112.5 106.62 112.2 107.81C112.12 108.14 112.07 108.51 111.89 108.79C111.53 109.35 111.55 109.64 112.14 109.98C111.91 110.43 111.69 110.88 111.46 111.32L111.48 111.3C111.36 111.38 111.23 111.46 111.17 111.49C110.95 111.17 110.76 110.88 110.56 110.59C110.51 110.63 110.47 110.66 110.42 110.7C110.62 111.26 110.2 111.35 109.83 111.49C109.74 111.53 109.67 111.6 109.59 111.66C109.66 111.72 109.74 111.83 109.81 111.83C109.95 111.83 110.1 111.78 110.24 111.75C110.38 111.72 110.52 111.69 110.67 111.66C110.68 111.82 110.77 112.02 110.7 112.13C110.5 112.45 110.25 112.74 109.99 113.07C109.58 112.37 109.1 112.72 108.65 113.03C108.47 112.34 108.87 111.51 109.56 111.28C109.21 111.13 108.96 111.01 108.7 110.9C108.41 111.39 108.15 111.83 107.8 112.44C107.72 112.08 107.69 111.92 107.64 111.7C107.47 111.97 107.33 112.19 107.12 112.52C106.92 111.1 106.75 109.86 106.57 108.62L106.42 108.65C106.27 109.33 106.12 110.01 105.97 110.68C106.02 110.7 106.08 110.71 106.13 110.73C106.23 110.46 106.34 110.19 106.44 109.92C106.5 109.92 106.55 109.92 106.61 109.91C106.68 111.61 106.75 113.3 106.83 115.16C106.93 114.82 106.96 114.56 107.07 114.35C107.19 114.14 107.4 113.97 107.69 113.66C107.71 113.107 107.87 112.75 108.17 112.59C108 113.54 107.87 114.44 107.69 115.32C107.59 115.82 107.43 116.31 107.29 116.81C107.29 116.9 107.29 117 107.29 117.09L107.32 117.05ZM109.07 89.72V90.37C109.15 90.4 109.22 90.43 109.3 90.45C109.49 90.06 109.69 89.67 109.96 89.13C109.52 89.42 109.29 89.58 109.05 89.74C109.02 89.15 109.02 88.54 108.51 88.12C108.45 88.14 108.38 88.17 108.32 88.19C108.49 88.64 108.66 89.1 108.82 89.54C108.74 89.59 108.63 89.65 108.39 89.8C108.73 89.76 108.9 89.74 109.06 89.72H109.07ZM73.22 103.96C72.78 104.48 72.35 105.01 71.87 105.57C72.33 106.29 71.56 106.51 71.1 106.88C71.14 106.93 71.18 106.98 71.23 107.03C71.73 106.81 72.23 106.59 72.86 106.31C72.01 105.92 72.51 105.58 72.65 105.25C72.83 104.81 73.02 104.38 73.21 103.95C73.46 103.83 73.71 103.7 73.96 103.58C73.93 103.52 73.9 103.47 73.87 103.41C74.11 103.44 74.34 103.47 74.7 103.52C74.44 103.31 74.28 103.17 74.14 103.06C74.26 102.74 74.37 102.46 74.49 102.17C74.44 102.15 74.39 102.13 74.35 102.11C74.18 102.33 74.01 102.55 73.88 102.73C73.54 102.58 73.25 102.46 72.95 102.33C72.92 102.38 72.89 102.43 72.86 102.48C73.13 102.68 73.39 102.88 73.66 103.08C73.51 103.37 73.36 103.66 73.22 103.95V103.96ZM91.42 36.96C91.88 37.05 92.34 37.22 92.8 37.23C95.04 37.32 97.25 37.84 99.5 37.73C99.62 37.73 99.78 37.85 99.86 37.95C100.26 38.46 100.65 38.98 101.08 39.55C101.15 39.37 101.24 39.25 101.23 39.14C101.17 38.68 99.71 37.17 99.24 37.11C98.04 36.96 96.83 36.84 95.63 36.7C94.95 36.62 94.28 36.5 93.6 36.46C92.83 36.42 92.06 36.46 91.22 36.46C91.32 36.71 91.37 36.85 91.43 36.99C91.29 37.12 91.04 37.25 91.03 37.39C91 37.88 90.99 38.38 91.09 38.86C91.3 39.95 91.57 41.03 91.84 42.11C91.96 42.57 92.14 43.02 92.29 43.47C92.45 43.15 92.47 42.89 92.45 42.62C92.38 41.88 92.37 41.13 92.19 40.42C91.9 39.28 91.29 38.21 91.42 36.97V36.96ZM105.37 58.76V60.15C105.18 59.84 105.11 59.57 104.93 59.45C104.36 59.08 104.23 58.52 104.22 57.93C104.19 56.69 104.23 55.46 104.2 54.22C104.18 53.55 104.24 52.95 104.77 52.46C104.85 52.39 104.84 52.2 104.87 52.03C104.12 52.23 103.67 52.79 103.66 53.48C103.66 55.35 103.63 57.22 103.66 59.08C103.69 60.22 103.56 61.37 103.77 62.51C103.85 62.94 103.7 63.45 103.85 63.84C104.11 64.49 103.38 65.1 103.87 65.71C103.88 65.72 103.75 65.83 103.71 65.91C103.29 66.75 102.64 67.55 102.5 68.44C102.29 69.7 101.39 70.2 100.58 70.88C100.28 71.13 99.86 71.39 99.77 71.72C99.51 72.69 99.36 73.69 99.2 74.69C99 75.97 98.83 77.26 98.67 78.55C98.64 78.75 98.73 78.97 98.76 79.18C99.3 77.02 99.72 74.86 100.13 72.71C100.27 71.98 100.44 71.29 101.15 70.84C101.84 70.41 102.47 69.89 103.14 69.43C105.11 68.07 106.99 66.61 108.42 64.66C108.85 64.08 109.37 63.54 109.41 62.66C108.43 63.81 107.56 64.93 106.58 65.94C105.6 66.93 104.5 67.8 103.46 68.73C103.42 68.69 103.38 68.66 103.34 68.62C103.78 67.59 104.21 66.56 104.46 65.96C104.36 64.59 104.46 63.63 104.43 62.69C104.41 61.71 104.43 60.72 104.43 59.74C104.49 59.74 104.55 59.74 104.61 59.73C104.64 59.8 104.66 59.89 104.71 59.94C104.9 60.14 105.11 60.33 105.31 60.52C105.42 60.26 105.6 60.01 105.64 59.75C105.7 59.32 105.65 58.87 105.65 58.42C105.41 58.34 105.12 58.25 104.83 58.16C104.85 57.85 104.86 57.58 104.87 57.31C104.93 57.31 105 57.29 105.06 57.28C105.15 57.5 105.24 57.72 105.33 57.94C105.38 57.95 105.44 57.96 105.49 57.97C105.51 57.78 105.62 57.54 105.54 57.42C105.4 57.2 105.16 57.04 104.93 56.91C104.88 56.88 104.58 57.09 104.58 57.19C104.56 57.75 104.59 58.32 104.61 58.92C104.93 58.84 105.1 58.81 105.31 58.76H105.37ZM108.48 80.65L108.75 80.8C109.08 80.35 109.52 79.93 109.71 79.43C110.72 76.75 111.66 74.04 112.13 71.2C112.35 69.85 112.53 68.5 112.68 67.14C112.74 66.57 112.69 65.98 112.69 65.32C112.52 65.42 112.46 65.44 112.45 65.46C112.04 67.24 111.62 69.02 111.25 70.81C111.18 71.14 111.26 71.42 110.78 71.46C110.64 71.46 110.49 71.76 110.39 71.94C110.01 72.65 110.12 73.48 109.64 74.21C108.83 75.44 108.24 76.82 107.52 78.12C107.04 78.99 106.49 79.81 105.97 80.66C107.33 79.54 108.12 78.03 108.86 76.49C109.64 74.88 110.36 73.24 111.1 71.64C111.57 72.33 111.38 72.98 110.97 73.63C110.88 73.77 110.84 73.95 110.79 74.12C110.29 76.07 109.71 78 108.71 79.77C108.56 80.03 108.53 80.36 108.45 80.66L108.48 80.65ZM77.55 70.08C77.13 70.62 76.77 71.08 76.4 71.55C77.38 72.26 77.67 72.25 77.94 71.53C77.95 72.14 78.34 72.24 78.8 72.24C79.39 72.24 79.97 72.21 80.56 72.22C81.27 72.23 81.98 72.26 82.7 72.29C82.89 72.29 83.08 72.32 83.27 72.34C83.65 72.38 84.05 72.76 84.42 72.3C84.02 71.3067 83.56 70.9667 83.04 71.28C82.87 70.59 82.22 70.45 81.72 70.41C81.29 70.38 80.82 70.75 80.4 70.94C80.13 70.75 79.77 70.32 79.36 70.27C78.95 70.23 78.49 70.57 78 70.76C77.93 70.66 77.78 70.43 77.55 70.08ZM98.36 39.32C98.11 39.19 97.93 39.02 97.73 39.01C96.57 38.94 95.42 38.9 94.26 38.87C94.13 38.87 93.95 38.97 93.88 39.08C93.58 39.61 93.75 40.26 94.15 40.72C94.31 40.9 94.38 41.27 94.32 41.51C94.23 41.85 93.98 42.14 93.82 42.46C93.49 43.12 93.67 43.48 94.42 43.57C95.35 43.68 96.28 43.77 97.21 43.82C97.48 43.83 97.76 43.69 98.04 43.62C98.04 43.58 98.03 43.55 98.02 43.51H96.99C97.09 43.35 97.19 43.19 97.38 42.89C96.4 42.8 95.49 42.72 94.56 42.63C94.86 42.07 95.21 41.67 95.88 41.66C96.01 41.66 96.15 41.43 96.28 41.31C96.15 41.21 96.03 41.03 95.9 41.03C95.03 41.03 94.7 40.43 94.4 39.77C94.73 39.36 95.07 39.15 95.61 39.43C95.86 39.56 96.21 39.5 96.52 39.53C96.71 39.55 96.99 39.51 97.09 39.62C97.63 40.2 97.97 39.89 98.38 39.32H98.36ZM90.44 33.97C90.52 34.42 90.54 34.72 90.64 35C90.72 35.22 90.88 35.56 91.05 35.59C91.86 35.71 92.68 35.74 93.5 35.8C93.5 35.73 93.52 35.67 93.53 35.6L91.84 35.17C91.84 35.12 91.86 35.06 91.87 35.01C92.74 35.12 93.61 35.25 94.48 35.33C95.66 35.43 96.84 35.47 98.02 35.55C98.9 35.61 99.78 35.7 100.67 35.75C100.79 35.75 100.91 35.6 101.04 35.51C101.03 35.43 101.01 35.35 101 35.27C97.48 34.84 93.96 34.41 90.47 33.98L90.44 33.97ZM70.41 114.32C70.41 114.32 70.5 114.39 70.55 114.42C70.74 114.01 70.93 113.61 71.12 113.2C71.57 112.25 72.06 111.32 72.44 110.34C72.78 109.48 72.96 108.56 73.25 107.68C73.43 107.15 73.71 106.66 73.92 106.14C74.02 105.89 74.09 105.63 74.17 105.37C73.89 105.63 73.71 105.92 73.52 106.2C72.98 107 72.44 107.79 71.9 108.58C71.68 108.91 71.43 109.13 71.03 108.82C70.96 108.76 70.84 108.76 70.74 108.73C70.72 108.79 70.7 108.85 70.67 108.91C71.06 109.08 71.45 109.25 71.83 109.42C71.36 110.35 70.77 111.36 70.46 112.48C70.51 112.5 70.57 112.53 70.62 112.55L71.23 111.39C71.23 111.39 71.32 111.43 71.36 111.45C71.04 112.4 70.71 113.35 70.39 114.31L70.41 114.32ZM92.15 44.06C92.09 44.68 91.97 45.23 92.83 45.2C93.07 45.2 93.3 45.28 93.54 45.31C94.6 45.46 95.66 45.61 96.73 45.75C97.26 45.82 97.79 45.87 98.32 45.93C98.33 45.86 98.34 45.79 98.35 45.72C98.11 45.66 97.87 45.59 97.53 45.5C97.72 45.36 97.82 45.29 98.03 45.15C96.02 44.78 94.11 44.43 92.16 44.07L92.15 44.06ZM110.46 63.19C110.4 63.15 110.34 63.1 110.28 63.06C110.24 63.13 110.21 63.21 110.16 63.28C108.99 64.94 107.76 66.54 106.24 67.91C105.69 68.41 105.17 68.94 104.64 69.45C104.59 69.5 104.54 69.56 104.48 69.59C103.79 69.88 103.07 70.12 102.43 70.48C101.98 70.74 101.62 71.16 101.22 71.52C101.27 71.59 101.32 71.66 101.37 71.72C102.06 71.28 102.75 70.85 103.42 70.39C103.87 70.09 104.28 69.62 104.85 70.19C104.86 70.2 104.93 70.17 104.84 70.19C105.06 69.76 105.14 69.3 105.42 69.09C107.06 67.84 108.46 66.38 109.56 64.65C109.87 64.16 110.16 63.67 110.46 63.17V63.19ZM112.12 59.4C112.34 58.71 112.52 58.17 112.69 57.62C112.7 57.58 112.69 57.53 112.69 57.49C112.6 56.44 112.51 55.39 112.43 54.33C112.39 53.75 112.08 53.44 111.58 53.53C111.04 53.63 111.02 54.01 111.14 54.51C111.38 54.4 111.59 54.31 111.97 54.13C111.99 54.93 112.03 55.65 112.02 56.37C112.02 56.79 111.88 57.2 111.9 57.62C111.92 58.15 111.9 58.59 111.13 58.58C111.13 58.65 111.13 58.71 111.14 58.78C111.46 58.98 111.78 59.18 112.12 59.4ZM85.57 84.72C83.67 87.34 82.69 90.25 82.67 93.48C82.9 92.91 83.13 92.33 83.39 91.68C83.01 91.18 83.74 87.88 84.53 87.12C84.57 87.48 84.6 87.83 84.64 88.19L84.84 88.17C84.84 87.57 84.74 86.94 84.87 86.36C84.99 85.79 85.33 85.27 85.58 84.72H85.57ZM111.1 106.77C110.38 107.43 110.19 108.4 109.94 109.34C109.47 109.32 109.4 109.21 109.37 108.54C109.66 108.4 109.9 108.29 110.21 108.15C109.8 108.1 109.51 108.06 109.09 108.01C109.02 108.45 108.95 108.94 108.88 109.42C108.94 109.4 109.01 109.39 109.07 109.37C109.2 109.53 109.41 109.67 109.42 109.84C109.44 110.06 109.32 110.3 109.24 110.57C109.93 110.48 110.13 110 110.18 109.45C110.37 109.57 110.52 109.67 110.68 109.76C110.69 109.76 110.8 109.65 110.79 109.64C110.64 109.45 110.48 109.28 110.26 109.03C110.45 108.68 110.66 108.27 110.88 107.86C110.93 107.88 110.97 107.91 111.02 107.93C110.95 108.35 110.88 108.77 110.81 109.18C111.05 109.29 111.24 109.38 111.37 109.44C111.28 108.55 111.18 107.65 111.09 106.76L111.1 106.77ZM56.9 67.63C56.44 68.23 56.11 68.67 55.74 69.16C55.9 69.42 56.04 69.74 56.27 69.97C56.79 70.49 57.51 70.87 57.23 71.84C57.58 71.04 57.86 70.26 57.49 69.52C57.17 69.59 56.9 69.65 56.62 69.71C56.57 69.61 56.51 69.51 56.46 69.42C56.82 69.12 57.18 68.82 57.54 68.53C57.63 68.5 57.73 68.47 57.82 68.45C57.54 68.2 57.25 67.95 56.9 67.64V67.63ZM60.68 54.74C60.58 54.74 60.47 54.72 60.42 54.76C59.62 55.4 58.82 56.04 58.03 56.7C57.84 56.86 57.53 57.11 57.56 57.27C57.65 57.79 57.24 57.9 57 58.14C56.78 58.36 56.56 58.58 56.33 58.81C58.38 57.56 60.33 55.67 60.68 54.74ZM76.19 36.78C76.17 36.72 76.16 36.66 76.14 36.59C75.89 36.59 75.57 36.69 75.39 36.57C74.54 36.03 73.61 35.87 72.63 35.9C72.49 35.9 72.35 36.05 72.2 36.12C72.32 36.22 72.43 36.38 72.56 36.41C73.4 36.6 74.26 36.77 75.19 36.96C74.98 37.2 74.78 37.43 74.58 37.66C74.64 37.73 74.69 37.79 74.75 37.86C75.23 37.5 75.7 37.14 76.18 36.78H76.19ZM70.25 107.92C70.44 107.67 70.66 107.41 70.86 107.13C70.91 107.06 70.94 106.92 70.91 106.84C70.71 106.34 70.95 106.01 71.25 105.65C71.38 105.49 71.52 105.15 71.45 105.03C71.1 104.53 71.04 104.38 71.1 103.84C71.17 103.14 71.18 102.43 71.72 101.84C71.5 101.9 71.28 101.97 71.02 102.04C71.04 102.41 70.47 102.86 70.96 103.37C70.36 104.41 71.23 105.84 70.06 106.74C70.25 106.67 70.45 106.61 70.64 106.54C70.79 106.71 70.95 106.89 71.1 107.06C70.79 107.25 70.49 107.43 70.18 107.62C70.13 107.54 70.07 107.45 70.02 107.37C70.1 107.57 70.19 107.77 70.25 107.91V107.92ZM75.61 40.87C74.95 40.02 72.13 39.61 71.33 40.19C72.75 40.56 74.09 40.83 75.61 40.87ZM99.77 42.46C100.29 42.13 100.43 41.93 100.11 41.51C99.6 40.84 99.43 39.89 98.34 39.47C98.85 40.54 99.3 41.47 99.77 42.46ZM109.98 57.76C109.88 57.76 109.78 57.76 109.68 57.77V61.71C110.46 60.41 109.86 59.07 109.98 57.76ZM60.12 38.4C59.66 37.85 59.54 37.03 58.69 36.63C59.03 37.32 58.52 37.25 58.25 37.38C58.35 38.64 59.49 38.05 60.12 38.4ZM60.63 55.98C59.57 56.78 58.68 57.57 58.31 58.76C59.1 58.09 59.83 57.38 60.52 56.63C60.64 56.5 60.59 56.21 60.63 55.98ZM75.93 96.37C75.87 96.35 75.82 96.34 75.76 96.32C75.64 96.52 75.5 96.71 75.42 96.93C75.06 97.91 74.74 98.9 74.37 99.88C74.17 100.42 74.22 100.82 74.56 100.97C75.02 99.44 75.47 97.9 75.93 96.37ZM56.45 52.45C56.54 52.19 56.77 51.69 55.88 51.57C55.57 51.53 55.43 51.3 55.7 50.95C55.95 50.62 56.11 50.23 56.31 49.86C56.21 49.81 56.12 49.76 56.02 49.71C55.76 50.15 55.47 50.57 55.26 51.03C55.18 51.21 55.2 51.56 55.32 51.67C55.67 51.99 56.1 52.22 56.44 52.45H56.45ZM74.18 71.07C74.07 71 73.96 70.93 73.86 70.87C73.65 71.26 73.49 71.7 73.23 72.04C72.97 72.38 72.62 72.66 72.27 72.92C71.91 73.18 71.51 73.37 71.13 73.59C71.73 73.69 72.09 72.96 72.72 73.43C73.22 72.63 73.7 71.85 74.19 71.07H74.18ZM56.5 72.46C56.58 73.47 57.06 74.43 56.89 75.46C56.89 75.49 57.03 75.55 57.18 75.64C56.85 74.53 58.02 73.26 56.5 72.46ZM56.73 65.91C56.84 65.61 56.98 65.26 57.11 64.91C57.18 64.73 57.33 64.39 57.3 64.38C57.01 64.22 56.69 64.11 56.38 63.99C56.4 64.29 56.41 64.48 56.42 64.64H55.89C56.21 65.12 56.5 65.56 56.74 65.91H56.73ZM86.2 75.5C86.66 74.9 86.68 74.31 86.26 73.78C86.01 73.46 85.82 73.57 85.68 73.88C85.49 74.31 85.74 75.12 86.19 75.5H86.2ZM77.32 66.53C77.19 66.53 77.07 66.53 76.94 66.53C77.23 67.54 76.51 68.64 77.22 69.61C77.3 69.61 77.38 69.6 77.46 69.59C77.41 68.57 77.37 67.56 77.32 66.54V66.53ZM105.18 54.71C105.32 54.93 105.46 55.15 105.63 55.42C105.72 54.36 105.66 54.29 104.73 54.42C104.73 54.88 104.7 55.34 104.74 55.8C104.75 55.95 104.94 56.21 105.04 56.2C105.34 56.2 105.63 56.07 106.06 55.97C105.327 55.7767 105.027 55.3567 105.16 54.71H105.18ZM67.09 33.87C68.29 33.29 68.35 33.24 68.27 32.73C67.86 32.99 67.48 33.22 67.11 33.45C66.47 32.8633 66.04 32.6467 65.82 32.8C66.24 33.15 66.65 33.5 67.08 33.86L67.09 33.87ZM91.87 96.14C91.98 96.16 92.09 96.18 92.19 96.19C92.43 94.96 92.68 93.73 92.92 92.49C92.84 92.48 92.77 92.46 92.69 92.45C92.42 93.68 92.14 94.9 91.87 96.13V96.14ZM68.3 101.78L68.44 101.89C68.58 101.66 68.76 101.44 68.85 101.18C68.96 100.86 69 100.52 69.07 100.19C69.22 100.27 69.37 100.34 69.51 100.41C69.57 100.34 69.63 100.27 69.69 100.2C69.45 99.96 69.22 99.72 68.89 99.39C68.67 100.27 68.48 101.02 68.29 101.78H68.3ZM91.85 77.86C91.76 77.93 91.67 77.99 91.58 78.06L92.49 79.63C92.49 79.63 92.56 79.6 92.59 79.58C92.46 79.24 92.33 78.91 92.2 78.57C92.23 78.57 92.25 78.56 92.28 78.55C92.61 78.93 92.94 79.31 93.27 79.69C93.32 79.65 93.36 79.6 93.41 79.56C92.94 78.94 92.65 78.16 91.85 77.86ZM104.87 65.58C105.52 65.35 105.54 65.33 105.55 64.79C105.55 64.48 105.55 64.16 105.55 63.85C105.54 63.24 105.51 63.22 104.95 63.29C105.04 63.51 105.25 63.76 105.23 63.99C105.17 64.52 105 65.04 104.87 65.59V65.58ZM69.44 105.29C69.13 105.05 68.67 104.87 68.61 104.6C68.46 103.93 68.5 103.23 68.46 102.47C68.2 102.49 67.94 102.51 67.85 102.52C68 102.94 68.19 103.32 68.26 103.72C68.52 105.17 68.51 105.17 69.44 105.28V105.29ZM90.94 93.55C90.88 93.54 90.82 93.53 90.77 93.52C90.5 94.91 89.56 96.15 89.84 97.66C90.21 96.29 90.58 94.92 90.95 93.55H90.94ZM109.99 56.93C109.92 55.48 109.86 54.21 109.8 52.94C109.69 53.4 109.65 53.86 109.62 54.31C109.6 54.74 109.56 55.18 109.59 55.6C109.62 55.99 109.38 56.48 109.98 56.92L109.99 56.93ZM65.06 115.24C65.12 115.26 65.17 115.29 65.23 115.31C65.52 114.68 65.82 114.05 66.09 113.41C66.13 113.32 65.99 113.17 65.94 113.05C65.86 113.13 65.75 113.19 65.71 113.29C65.48 113.81 65.26 114.33 65.06 114.86C65.02 114.97 65.06 115.12 65.06 115.25V115.24ZM100.34 75.17C100.4 75.17 100.46 75.18 100.52 75.19C100.63 74.79 100.74 74.4 100.86 73.98C101.15 74.12 101.35 74.21 101.56 74.31C101.61 74.27 101.66 74.23 101.71 74.19C101.55 73.78 101.39 73.37 101.23 72.96C101.02 73.03 100.87 73.09 100.66 73.16C100.95 73.38 101.18 73.55 101.41 73.73C101.38 73.78 101.34 73.82 101.31 73.87C101.14 73.78 100.96 73.69 100.71 73.57C100.58 74.15 100.47 74.66 100.35 75.18L100.34 75.17ZM81.56 69.29C81.56 69.29 81.65 69.38 81.7 69.43L84.84 67.04C84.79 66.97 84.73 66.91 84.68 66.84L81.56 69.3V69.29ZM72.18 38.16C72.85 39 73.33 38.93 73.79 38.06C73.22 38.1 72.7 38.13 72.18 38.16ZM102.7 78.86C102.75 78.92 102.8 78.97 102.85 79.03C103.7 78.29 104.55 77.55 105.4 76.81C105.34 76.75 105.29 76.68 105.23 76.62C104.39 77.37 103.54 78.12 102.7 78.86ZM51.54 63.92C51.48 63.99 51.42 64.05 51.37 64.12C52.12 64.78 52.87 65.43 53.62 66.09C53.68 66.02 53.74 65.96 53.79 65.89C53.04 65.23 52.29 64.58 51.54 63.92ZM112.21 60.46C111.96 60.71 111.74 60.93 111.46 61.2C111.3 60.94 111.2 60.78 111.09 60.62C111.03 60.63 110.98 60.65 110.92 60.66C110.97 60.92 110.98 61.22 111.11 61.44C111.16 61.53 111.52 61.54 111.67 61.47C112.07 61.28 112.5 61.05 112.2 60.46H112.21ZM91.43 89.38C90.88 90.06 90.63 91.95 90.95 92.47C91.11 91.47 91.26 90.51 91.43 89.38ZM65.69 115.87C66.79 115.32 66.88 114.26 67.36 113.43C67.31 113.4 67.27 113.37 67.22 113.34C66.73 114.15 66.24 114.95 65.69 115.87ZM91.78 103.36C91.78 103.36 91.82 103.36 91.85 103.36V99.89C91.85 99.89 91.81 99.89 91.78 99.89V103.36ZM99.5 85.03L99.31 85.24C99.94 85.79 100.57 86.33 101.2 86.88L101.39 86.66C100.76 86.12 100.12 85.57 99.49 85.03H99.5ZM79.46 97.55C78.59 98.44 78.43 99.14 78.83 99.69C79.03 99 79.25 98.27 79.46 97.55ZM82.64 97.92C82.25 97.98 81.16 99.61 81.1 100.41C81.68 99.48 82.16 98.7 82.64 97.92ZM110.99 106.04C111.43 104.55 111.43 104.54 110.63 104.66C110.75 105.13 110.87 105.58 110.99 106.04ZM55.04 52.36C54.93 52.32 54.83 52.27 54.72 52.23C54.53 52.73 54.32 53.24 54.15 53.75C54.13 53.8 54.28 53.94 54.38 54C54.43 54.03 54.53 53.99 54.6 53.98C54.58 53.87 54.58 53.75 54.54 53.64C54.51 53.56 54.45 53.5 54.49 53.56C54.7 53.1 54.87 52.73 55.04 52.37V52.36ZM54.86 56.06C54.93 55.44 55.01 54.85 55.08 54.25C54.78 54.6 54.49 54.98 54.41 55.4C54.37 55.6 54.74 55.88 54.87 56.06H54.86ZM57.41 67.93C57.48 67.89 57.55 67.85 57.63 67.8C57.32 67.3 57 66.81 56.68 66.3C56.18 67.16 57.01 67.45 57.41 67.93ZM59.28 70.06V67.79C58.87 68.3 58.84 69.5 59.28 70.06ZM93.31 33.93C93.31 33.93 93.33 33.84 93.34 33.79C93.18 33.74 93.03 33.67 92.86 33.63C92.38 33.51 91.86 33.46 91.41 33.27C90.95 33.08 91 33.29 91.02 33.58C91.79 33.7 92.55 33.81 93.3 33.92L93.31 33.93ZM92.73 91.87C92.84 91.84 92.95 91.8 93.06 91.77C92.82 91.18 92.57 90.59 92.33 90C92.26 90.02 92.18 90.05 92.11 90.07L92.73 91.87ZM73.96 99.86C73.96 99.86 73.91 99.81 73.88 99.78C73.48 100.16 73.07 100.54 72.67 100.92C72.58 101.01 72.52 101.13 72.45 101.23C72.61 101.24 72.87 101.33 72.92 101.26C73.29 100.81 73.61 100.33 73.95 99.86H73.96ZM109.51 96.26C109.78 95.87 110.06 95.57 110.18 95.22C110.26 94.98 110.11 94.66 110.07 94.37C109.96 94.39 109.84 94.42 109.73 94.44C109.83 94.58 109.93 94.73 110.03 94.87C109.97 94.85 109.91 94.84 109.85 94.82C109.74 95.28 109.63 95.74 109.51 96.26ZM81.25 94.47C81.16 94.41 81.07 94.35 80.98 94.3C80.69 94.87 80.4 95.43 80.11 96C80.19 96.04 80.26 96.08 80.34 96.12C80.65 95.57 80.95 95.02 81.26 94.47H81.25ZM106.95 68.7C107.01 68.75 107.06 68.81 107.12 68.86L108.72 67.17C108.72 67.17 108.64 67.09 108.59 67.05C108.04 67.6 107.5 68.15 106.95 68.7ZM66.35 112.56C66.35 112.56 66.4 112.56 66.43 112.57C66.71 112 67 111.44 67.25 110.86C67.28 110.79 67.08 110.63 66.89 110.38C66.68 111.22 66.52 111.89 66.35 112.57V112.56ZM92.57 39.8C92.8 38.77 92.67 38.34 92.02 38.24C92.21 38.78 92.38 39.25 92.57 39.8ZM108.49 45.46C108.65 45.98 108.96 46.11 109.33 45.99C109.47 45.95 109.53 45.67 109.71 45.37C109.18 45.41 108.86 45.43 108.5 45.45L108.49 45.46ZM55.31 33.88C55.32 33.8 55.33 33.73 55.34 33.65C54.56 33.55 53.79 33.45 53.01 33.34C53.01 33.41 52.99 33.47 52.98 33.54C53.75 33.65 54.53 33.76 55.3 33.87L55.31 33.88ZM100.84 76.15C100.47 76.46 100.08 76.74 100.47 77.28C100.92 77.02 101.32 76.74 100.84 76.15ZM71.2 107.51C71.12 107.47 71.05 107.44 70.97 107.4C70.7 107.87 70.43 108.33 70.18 108.81C70.18 108.83 70.36 108.95 70.43 109C70.7 108.47 70.95 107.99 71.2 107.51ZM104.91 61.38C105.14 61.98 105.32 62.45 105.54 63.02C105.83 62.28 105.66 61.8 104.91 61.38ZM89.58 90.92C90.26 90.43 90.19 89.7 90.17 88.99C89.97 89.63 89.78 90.28 89.58 90.92ZM101.69 38.77C101.79 38.83 101.89 38.89 101.99 38.95C102.21 38.57 102.44 38.19 102.66 37.82C102.57 37.76 102.47 37.71 102.38 37.65C102.15 38.02 101.92 38.39 101.68 38.77H101.69ZM102.87 38.89C102.87 38.89 102.83 38.86 102.81 38.85C102.32 39.36 101.84 39.87 101.35 40.38C101.34 40.37 101.33 40.36 101.32 40.35C101.84 39.87 102.35 39.38 102.87 38.9V38.89ZM88.44 96.02C88.37 96 88.31 95.98 88.24 95.96C88.04 96.65 87.85 97.34 87.65 98.04C87.71 98.06 87.77 98.07 87.83 98.09C88.03 97.4 88.24 96.71 88.44 96.02ZM104.48 76.76C104.54 76.67 104.6 76.57 104.66 76.48C104.22 76.24 103.78 76.01 103.34 75.77C103.3 75.84 103.26 75.91 103.22 75.97C103.64 76.23 104.06 76.49 104.48 76.75V76.76ZM108.33 109.96C108.45 109.55 108.58 109.13 108.75 108.56C108.01 109.12 108 109.15 108.33 109.96ZM55.1 42.13C55.12 42.25 55.13 42.37 55.15 42.49C55.39 42.47 55.65 42.49 55.87 42.42C55.93 42.4 55.91 42.11 55.93 41.95C55.65 42.01 55.37 42.07 55.1 42.13ZM68.89 105.53C68.85 105.91 68.82 106.27 68.78 106.64H69.26C69.1 106.25 69.52 105.74 68.89 105.53ZM77.13 104.6C77.2 104.6 77.28 104.6 77.35 104.6C77.38 104.14 77.41 103.67 77.44 103.21C77.35 103.21 77.25 103.21 77.16 103.21C77.43 103.68 76.75 104.14 77.14 104.6H77.13ZM70.36 104.55C70.43 104.01 70.49 103.55 70.55 103.1C70.52 103.09 70.5 103.08 70.47 103.07C70.28 103.47 70.1 103.86 69.89 104.3C70.04 104.38 70.18 104.46 70.36 104.55Z" fill="#594842"/>
<path d="M35.9902 103.46C36.6702 104.1 37.3502 104.74 38.0602 105.41C37.8302 105.63 37.6402 105.81 37.4102 106.02C38.2602 106.22 39.0302 106.39 39.8002 106.57C39.8002 106.59 39.8002 106.61 39.8002 106.64C39.5902 106.66 39.3702 106.67 39.0802 106.69C39.4102 107.07 39.6902 107.38 40.0102 107.75C40.0302 107.48 40.0402 107.26 40.0502 107.05C40.5602 107.3 40.5702 107.3 40.5602 108.78C40.5602 109.44 40.4702 110.11 40.4302 110.68C40.5102 110.58 40.6702 110.38 40.9202 110.07C41.1202 111.38 41.3002 112.56 41.4802 113.74C41.5002 113.74 41.5302 113.75 41.5502 113.76C41.5802 113.52 41.5702 113.25 41.6602 113.04C41.7602 112.82 41.9702 112.66 42.1202 112.47C42.2702 112.66 42.5402 112.84 42.5602 113.04C42.6102 113.79 42.5802 114.54 42.5802 115.24C42.6102 115.22 42.7502 115.12 42.9502 114.98C42.8902 115.44 42.8502 115.82 42.7902 116.28C43.0402 116.11 43.2402 115.97 43.4602 115.81C43.4302 116.27 43.4102 116.66 43.3902 117.05H39.2202C39.2702 116.35 39.3202 115.65 39.3702 114.96C39.2702 114.95 39.1702 114.93 39.0702 114.92C38.9402 115.66 38.2602 116.21 38.4102 117.06H37.2002C37.2402 116.55 37.3602 116.04 37.3102 115.55C37.2502 114.92 37.7102 114.16 36.8902 113.67C36.8002 113.62 36.9102 113.16 37.0002 112.92C37.0502 112.78 37.3702 112.73 37.3902 112.61C37.5002 112.15 37.7502 111.52 37.5502 111.24C37.0802 110.6 36.9902 110.67 36.9102 110.08C37.1702 110.06 37.4302 110.05 37.8302 110.02C37.7002 109.7 37.6402 109.28 37.4902 109.25C36.7402 109.08 36.6702 108.42 36.4102 107.9C36.3302 107.73 36.3702 107.46 36.4402 107.26C36.6302 106.71 36.5102 106.3 35.9902 106.02C35.9902 105.17 35.9902 104.32 35.9902 103.46ZM39.5802 113.2C39.6702 113.21 39.7502 113.22 39.8402 113.23C39.9202 112.61 39.9902 111.99 40.0702 111.38C39.9702 111.37 39.8802 111.36 39.7802 111.35C39.7102 111.97 39.6402 112.59 39.5802 113.21V113.2Z" fill="#594842"/>
<path d="M107.33 116.77C107.41 116.58 107.46 116.37 107.58 116.21C107.89 115.79 108.23 115.4 108.58 114.97C107.82 114.13 107.96 113.51 109.07 113.16C109.99 113.96 108.74 114.56 108.89 115.38C109.17 115.43 109.49 115.49 109.81 115.55C109.71 116 109.59 116.53 109.47 117.05H107.32C107.32 116.96 107.32 116.86 107.32 116.77H107.33Z" fill="#594842"/>
<path d="M109.88 117.05C109.91 116.95 109.97 116.85 109.97 116.75C109.96 116.02 110.32 115.92 110.94 116.18C110.9 116.46 110.87 116.76 110.83 117.05H109.89H109.88Z" fill="#594842"/>
<path d="M47.4303 117.05C47.3103 116.59 47.1903 116.13 47.0703 115.67C47.1403 115.65 47.2003 115.63 47.2703 115.61C47.4603 116.09 47.6503 116.57 47.8403 117.05H47.4403H47.4303Z" fill="#594842"/>
<path d="M61.2803 78.42C61.0003 78.62 60.6703 78.75 60.5903 79.16C60.5803 79.23 60.1703 79.21 59.9403 79.23L59.9603 79.25C60.0503 79.04 60.1403 78.84 60.2303 78.63C59.6303 78.89 59.0903 79.13 58.4903 79.38C58.4703 79.82 58.2703 80.11 57.6903 80.22C57.3503 80.29 57.0703 80.69 56.7703 80.94C56.7303 80.9 56.6803 80.87 56.6403 80.83C56.8503 80.58 57.0403 80.31 57.2903 80.1C57.5303 79.89 57.8303 79.74 58.1003 79.56C58.0603 79.5 58.0303 79.44 57.9903 79.38C57.7903 79.47 57.6003 79.57 57.3303 79.69C57.3403 79.51 57.3503 79.41 57.3803 79.11C57.0703 79.78 56.3603 79.27 56.0703 79.91C55.8003 80.52 55.3003 81.03 54.9003 81.58C54.8303 81.54 54.7703 81.49 54.7003 81.45C54.9803 80.94 55.2703 80.44 55.6303 79.8C54.7703 80.25 54.0103 80.66 53.2403 81.06C53.2103 81.02 53.1803 80.98 53.1503 80.94C53.2203 80.81 53.2803 80.68 53.3603 80.53C52.8803 80.48 52.5503 81.12 52.0003 80.61C51.6903 80.33 51.1303 80.33 50.6603 80.19C51.5303 79.74 52.3003 79.35 53.0603 78.96C53.0403 78.92 53.0303 78.87 53.0103 78.83C52.6903 78.93 52.3803 79.03 52.0603 79.11C51.9403 79.14 51.7903 79.08 51.6603 79.09C51.4703 79.09 51.2503 79.06 51.0903 79.14C50.6803 79.36 50.2903 79.51 49.7603 79.1C50.2303 78.99 50.6003 78.9 50.9803 78.83C51.6603 78.71 52.4003 78.75 53.0003 78.46C54.2203 77.87 55.5303 77.85 56.8003 77.59C57.1003 77.53 57.3803 77.33 57.6703 77.19L57.6403 77.21C57.6203 77.39 57.6603 77.61 57.5803 77.76C57.3803 78.13 57.1303 78.47 56.9103 78.83L56.7003 78.55C57.1703 78.29 57.7403 78.12 58.0703 77.74C58.4103 77.35 59.0103 77 58.7603 76.24C58.6303 75.85 58.7403 75.39 58.7303 74.97C58.7103 74.28 58.6603 73.59 58.6603 72.9C58.6603 72.69 58.7603 72.48 58.8103 72.27C58.9103 72.28 59.0003 72.3 59.1003 72.31V76.41C59.6903 76.65 60.0903 76.42 60.1903 75.74C60.2403 75.69 60.2903 75.64 60.3503 75.59C60.4703 75.5 60.5903 75.4 60.7103 75.31L60.6903 75.29C60.7803 75.68 60.8603 75.99 61.3303 75.54C61.6103 75.28 62.0103 75.16 62.3903 75.03C61.9603 75.65 61.8103 76.49 61.1103 76.6C61.0603 77.14 61.0903 77.56 60.9703 77.92C60.8403 78.3 60.9703 78.4 61.2803 78.44L61.2603 78.42H61.2803Z" fill="#594842"/>
<path d="M89.4004 46.65C89.6504 46.51 89.9004 46.36 90.1504 46.22C90.1104 46.17 90.0704 46.13 90.0304 46.08C89.7104 46.31 89.3904 46.54 89.0504 46.78C88.2704 45.93 87.4904 45.08 86.7204 44.24C86.6604 44.26 86.5904 44.29 86.5304 44.31C86.8604 45.92 87.2004 47.53 87.5504 49.23C87.0304 49.2 86.5704 49.16 86.1004 49.13C86.1004 49.06 86.1004 48.99 86.0904 48.92C86.3304 48.86 86.5704 48.8 86.8104 48.74C86.7837 48.2667 86.3104 48.06 85.3904 48.12C85.1004 45.95 84.8104 43.78 84.5104 41.61C84.4404 41.61 84.3604 41.61 84.2904 41.6C83.6204 43.21 82.9604 44.83 82.2904 46.44C82.1104 46.89 81.9404 47.34 81.7204 47.77C81.3604 48.47 80.9304 48.57 80.0004 48.12C80.6704 46.5 81.3504 44.88 82.0304 43.25C81.9904 43.21 81.9604 43.18 81.9204 43.14C80.6004 44.03 79.2904 44.91 77.9304 45.83C77.7904 45.7 77.6004 45.54 77.4404 45.36C77.2304 45.12 77.1804 44.93 77.3804 44.57C78.2504 43 79.0704 41.39 79.8604 39.77C81.4004 36.62 82.9104 33.45 84.4104 30.29C84.6104 29.86 84.7904 29.8 85.3104 29.77C86.8304 29.66 87.3804 30.43 87.6204 31.73C87.8804 33.13 88.1904 34.52 88.4804 35.91C88.8504 37.69 89.2304 39.47 89.6104 41.24C89.9304 42.71 90.2804 44.18 90.6104 45.65C90.6904 46.03 90.3104 46.44 89.5804 46.82C89.5204 46.76 89.4604 46.7 89.3904 46.64L89.4004 46.65ZM84.1104 38.72C84.3704 38.86 84.7404 39.03 85.0804 39.26C85.2604 39.38 85.5104 39.62 85.5004 39.78C85.2904 41.87 86.5804 43.07 88.0604 44.16C88.3804 44.4 88.7304 44.6 89.0604 44.82C89.1404 44.77 89.2204 44.72 89.3004 44.68C88.9504 43.45 88.5804 42.22 88.2704 40.98C88.0904 40.25 87.6004 40.07 86.9504 40.08C86.6604 40.08 86.3704 40.08 86.0804 40.08C86.0804 40.02 86.0804 39.96 86.0804 39.9C86.1704 39.87 86.2604 39.84 86.3604 39.81C87.7404 39.46 88.2604 38.83 88.2304 37.65C88.2304 37.11 87.9304 37.07 87.5304 37.13C86.8604 37.22 86.7004 37.85 86.3604 38.28C86.1104 38.6 85.9204 38.96 85.7004 39.31C85.6504 39.28 85.5904 39.25 85.5404 39.21C85.7404 38.74 85.9804 38.28 86.1404 37.79C86.4104 36.96 86.8804 36.11 86.8304 35.29C86.7604 33.95 86.3504 32.63 86.0704 31.3C86.0404 31.16 85.8704 31.06 85.7604 30.93C85.6504 31.04 85.4904 31.14 85.4204 31.28C85.0504 32.07 84.7604 32.91 84.3304 33.67C83.7104 34.79 83.8404 35.96 83.9904 37.13C84.0304 37.47 84.1004 37.81 84.1604 38.15C83.7504 37.8 83.4504 37.42 83.2504 37C82.9804 36.42 82.4504 36.76 82.0704 36.59C82.0104 36.57 81.8304 36.7 81.7804 36.8C81.5304 37.33 81.8404 38.22 82.3504 38.62C82.6904 38.88 82.9904 39.2 83.3104 39.49C83.2704 39.55 83.2404 39.61 83.2004 39.67C82.8004 39.67 82.4104 39.7 82.0104 39.67C81.5404 39.63 81.2304 39.76 80.9904 40.21C80.6404 40.87 80.1704 41.46 79.8104 42.11C79.5704 42.54 79.4404 43.04 79.2304 43.59C79.5504 43.57 79.7004 43.59 79.8104 43.54C80.9404 42.97 82.0504 42.38 83.1904 41.82C83.6804 41.58 83.9704 41.31 83.9404 40.67C83.9004 39.98 84.0604 39.28 84.1204 38.73L84.1104 38.72ZM85.3704 40.09C85.2004 39.82 85.0504 39.59 84.9004 39.37C84.8204 39.37 84.7504 39.37 84.6704 39.38C84.6204 39.68 84.5704 39.99 84.5004 40.39C84.8904 40.26 85.0904 40.19 85.3704 40.09Z" fill="#594842"/>
<path d="M45.4701 66.6C45.5901 67.61 45.7101 68.56 45.8001 69.52C45.8301 69.79 45.7801 69.78 45.3801 69.76C45.2801 69.76 45.1501 69.85 45.0801 69.94C44.9501 70.14 44.8501 70.36 44.7401 70.57C44.1501 70.35 43.7501 70.59 43.5501 71.42C42.3001 70.78 41.0901 70.15 39.8701 69.53C39.8701 69.46 39.8601 69.4 39.8501 69.33C40.3101 69.13 40.8401 69.01 41.2201 68.71C41.6901 68.34 42.1701 67.88 42.3901 67.35C42.5501 66.95 42.6301 66.63 43.0701 66.51C43.1101 66.51 43.1001 66.35 43.1401 66.15C42.6701 66.3 42.2701 66.43 41.7001 66.62C42.1401 66.08 42.4801 65.65 42.8901 65.14C42.9601 65.42 43.0101 65.59 43.0801 65.84C43.7601 65.39 44.4001 64.96 45.0301 64.53C45.4401 65.38 45.4101 65.39 44.5901 65.93C44.0301 66.3 43.5101 66.73 43.0201 67.19C42.6901 67.5 42.8401 67.75 43.2701 67.8C44.2101 67.91 44.7501 67.27 45.4701 66.61V66.6ZM44.8801 69.12C43.9001 68.6 43.5301 68.3 42.4501 68.62C41.8201 68.81 41.2501 69.19 40.6401 69.49C42.0501 71.11 44.2301 70.9 44.8901 69.12H44.8801Z" fill="#594842"/>
<path d="M70.7202 52.99C70.6502 52.99 70.5902 52.99 70.5202 52.99C69.4902 52.99 69.0402 52.72 68.9802 52.04C68.9202 51.36 69.6202 50.35 70.2902 50.18C70.9202 50.01 71.9502 50.32 72.1302 50.91C72.2902 51.42 72.2902 52.12 72.0602 52.58C71.9002 52.9 71.2302 52.97 70.7902 53.15C70.7702 53.1 70.7502 53.04 70.7202 52.99ZM72.1102 52.07C72.1002 51.95 72.0902 51.83 72.0802 51.71C71.7702 51.66 71.4102 51.51 71.1502 51.61C70.9602 51.69 70.9102 52.1 70.7902 52.37C70.8602 52.43 70.9402 52.5 71.0102 52.56C71.3802 52.4 71.7402 52.23 72.1102 52.07Z" fill="#594842"/>
<path d="M83.41 49.62C83.55 49.5 83.61 49.46 83.64 49.41C83.85 49.09 84.06 48.77 84.27 48.45C83.82 48.38 83.37 48.29 82.92 48.27C82.85 48.27 82.77 48.59 82.7 48.77C82.59 49.02 82.48 49.28 82.29 49.49C82.34 47.53 83.33 45.9 83.97 44.16C84.03 44.16 84.09 44.16 84.15 44.16C84.25 44.78 84.37 45.4 84.44 46.02C84.51 46.64 84.54 47.26 84.59 47.87C84.62 48.28 84.7 48.68 84.7 49.09C84.7 49.39 84.58 49.65 84.18 49.61C83.96 49.59 83.73 49.61 83.41 49.61V49.62Z" fill="#594842"/>
<path d="M68.2204 98.94C68.0904 99.23 67.9504 99.51 67.8404 99.8C67.5704 100.5 67.3104 101.2 67.0504 101.88C66.7404 101.67 66.6304 100.48 67.0004 100.13C67.2804 99.86 67.4404 99.65 67.1704 99.26C67.0804 99.14 67.2204 98.86 67.1804 98.59C67.1004 98.7 66.9904 98.8 66.9504 98.93C66.6304 99.87 66.3204 100.82 66.0304 101.77C65.8204 102.45 65.3904 102.71 64.6904 102.58C65.0904 101.33 65.4804 100.08 65.9104 98.72C65.9704 98.93 66.0204 99.11 66.0904 99.41C66.3304 99.09 66.7504 98.8 66.7504 98.5C66.7504 97.83 66.9604 98.08 67.2504 98.28C67.3104 98.32 67.4404 98.24 67.6304 98.19C67.1504 99.03 67.8904 98.8 68.2004 98.95L68.2204 98.94Z" fill="#594842"/>
<path d="M75.4901 78.7C75.6001 78.62 75.7401 78.52 75.8801 78.42C75.5501 79.76 74.6501 80.55 73.3201 81.18C73.4701 80.92 73.5401 80.83 73.5901 80.72C73.6301 80.61 73.6501 80.48 73.6901 80.32C73.4101 80.5 73.1801 80.64 72.9401 80.8C73.0301 80.91 73.1501 81.04 73.2901 81.21C73.1001 81.33 72.9201 81.45 72.7501 81.56C72.9201 81.15 72.8701 80.96 72.3701 81.01C72.9301 79.69 73.5001 78.47 74.9201 77.89C74.9101 78.06 74.8901 78.25 74.8701 78.53C75.1301 78.39 75.3201 78.29 75.6001 78.14C75.5101 78.37 75.4601 78.51 75.4001 78.65C75.4201 78.65 75.4401 78.66 75.5101 78.68L75.4901 78.7Z" fill="#594842"/>
<path d="M44.4802 60.32C45.0202 61.62 44.3002 62.74 44.0002 63.69C43.6102 63.86 43.3402 63.9 43.1802 64.05C42.5202 64.65 41.8502 65.21 40.9102 65.38C41.9402 64.01 43.6302 63.2 44.2602 61.47C43.4402 61.9 42.6202 62.32 41.8002 62.75C41.7602 62.69 41.7202 62.63 41.6802 62.57C42.6002 61.83 43.5202 61.09 44.4802 60.32Z" fill="#594842"/>
<path d="M62.2301 103.44C62.0301 103.69 61.8401 103.95 61.5601 104.31V100.07C62.1901 99.96 62.7401 99.86 63.4501 99.74C63.3701 100.25 63.3101 100.88 63.1701 101.48C63.1401 101.61 62.8001 101.67 62.7301 101.85C62.4701 102.04 62.2101 102.24 61.9701 102.42C62.4701 102.55 62.5201 102.96 62.2101 103.47L62.2301 103.45V103.44Z" fill="#594842"/>
<path d="M60.3401 111.81C59.8101 111.85 59.2801 111.9 58.6001 111.95C58.7701 111.43 58.9901 110.91 59.0901 110.38C59.1501 110.03 59.0401 109.65 59.0101 109.28C58.9801 108.81 59.1701 108.61 59.7301 108.79C59.6001 109.19 59.4701 109.57 59.3401 109.96L59.4701 110.03C59.6201 109.86 59.7801 109.68 59.9301 109.51C59.9601 109.52 59.9801 109.54 60.0101 109.55C59.9401 109.73 59.8601 109.91 59.8201 110.1C59.7901 110.23 59.7901 110.37 59.8201 110.5C59.8201 110.53 60.0101 110.59 60.0301 110.56C60.1301 110.44 60.2501 110.31 60.2701 110.17C60.3301 109.43 60.3501 108.68 60.3901 107.93C60.4601 107.93 60.5301 107.93 60.6001 107.93V110.27C60.7301 110.34 60.8901 110.42 61.0501 110.49C60.8601 110.91 60.6901 111.29 60.5201 111.66C60.4701 111.71 60.4201 111.76 60.3601 111.81H60.3401Z" fill="#594842"/>
<path d="M73.9305 87.9C73.8805 88.67 73.8504 89.44 73.7804 90.2C73.7204 90.94 73.6205 91.67 73.5405 92.41C73.4705 92.43 73.4004 92.45 73.3404 92.47C73.0604 91.89 72.7804 91.31 72.4604 90.66C72.6704 90.72 72.7905 90.76 72.9105 90.8C72.9205 90.76 72.9505 90.71 72.9405 90.7C72.5905 90.33 72.6605 89.95 72.8705 89.53C73.1605 88.96 73.4205 88.38 73.6905 87.8C73.7705 87.83 73.8505 87.87 73.9305 87.9Z" fill="#594842"/>
<path d="M51.6402 69.45C52.5602 70.13 53.4702 70.82 54.3902 71.5C54.3502 71.55 54.3102 71.6 54.2802 71.66C54.2802 71.7 54.2802 71.76 54.2502 71.78C53.3902 72.75 53.3002 72.76 52.6002 71.66C52.1802 71.01 51.8302 70.31 51.4502 69.63C51.5102 69.57 51.5802 69.5 51.6402 69.44V69.45Z" fill="#594842"/>
<path d="M56.8404 86.46C56.3304 85.24 57.3404 84.79 58.0204 84.18C57.2704 83.45 58.0904 83.02 58.2704 82.34C58.4004 82.54 58.4604 82.63 58.4604 82.64C58.6804 82.6 58.8904 82.56 59.0204 82.54C58.7104 84.17 57.8104 85.34 56.8404 86.46Z" fill="#594842"/>
<path d="M80.4102 86.76C80.2602 86.67 80.1102 86.57 79.9902 86.5C80.2502 86.13 80.5002 85.77 80.7502 85.42C80.7002 85.38 80.6502 85.34 80.6002 85.3C80.4302 85.42 80.2502 85.54 80.0802 85.67C80.0402 85.65 80.0102 85.62 79.9702 85.6C80.2902 85.17 80.6002 84.75 80.9202 84.32C80.8702 84.28 80.8302 84.24 80.7802 84.21C80.5702 84.44 80.3702 84.67 80.1602 84.91L79.9802 84.76C80.4102 84.16 80.8502 83.57 81.2802 82.97C81.3302 83 81.3702 83.03 81.4202 83.06C81.3302 83.24 81.2302 83.41 81.1002 83.66C81.2802 83.68 81.4402 83.71 81.6102 83.73C81.5102 84.82 81.2302 85.78 80.4602 86.55C80.4102 86.6 80.4102 86.72 80.3902 86.8L80.4102 86.78V86.76Z" fill="#594842"/>
<path d="M44.4403 112.49C44.5803 113.94 44.6503 115.4 45.1303 116.86C44.2603 116.49 44.0403 116.2 44.0603 115.44C44.0903 114.46 44.1303 113.48 44.1703 112.5C44.2603 112.5 44.3503 112.49 44.4403 112.48V112.49Z" fill="#594842"/>
<path d="M68.4801 91.47C68.3701 91.08 68.2801 90.69 68.1501 90.31C68.1101 90.19 68.0001 90.1 67.9201 90C67.8201 89.85 67.6201 89.69 67.6401 89.56C67.6701 89.38 67.8401 89.16 68.0001 89.09C68.3101 88.96 68.6601 88.92 69.0001 88.89C69.0701 88.89 69.2301 89.1 69.2101 89.19C69.0501 89.96 68.8601 90.72 68.6801 91.49H68.4701L68.4801 91.47Z" fill="#594842"/>
<path d="M74.3801 69.44C73.6401 70.06 73.3501 71.16 72.3301 71.47C72.2701 71.41 72.2101 71.36 72.1501 71.3C72.3001 71.06 72.4501 70.82 72.6001 70.58C72.5801 70.56 72.5501 70.53 72.5301 70.51C71.9601 70.87 71.4001 71.23 70.8301 71.58C71.3601 70.88 71.8401 70.12 72.8601 70.18C72.9901 70.18 73.1301 69.98 73.2701 69.88C73.5901 69.65 73.9101 69.43 74.2301 69.2C74.2801 69.28 74.3401 69.36 74.3901 69.44H74.3801Z" fill="#594842"/>
<path d="M68.2302 98.17C67.9702 98.09 67.7002 98.02 67.4402 97.93C67.3602 97.9 67.3002 97.81 67.2202 97.74C67.2902 97.67 67.3502 97.6 67.4202 97.54C67.5302 97.44 67.7302 97.35 67.7202 97.25C67.7202 97.13 67.5502 97.02 67.5502 97.02C67.7602 96.49 67.9702 95.97 68.1902 95.43C68.8502 95.72 68.3802 96.49 68.6902 97.08C68.7802 96.85 68.8302 96.71 68.8902 96.56C68.9802 96.83 69.0802 97.08 69.1702 97.34C68.6502 97.2333 68.3369 97.5067 68.2302 98.16V98.17Z" fill="#594842"/>
<path d="M86.7404 84.22C86.7504 84.05 86.7704 83.89 86.7804 83.68C86.6404 83.72 86.5104 83.75 86.4004 83.78C86.6204 83.2 86.8304 82.65 87.1104 81.93C87.2404 83.07 88.0304 83.88 87.9104 84.96C87.2904 84.89 87.3904 84.01 86.7204 84.19L86.7404 84.21V84.22Z" fill="#594842"/>
<path d="M79.3005 82.4C79.4405 82.52 79.6205 82.68 79.7205 82.77C79.8705 82.55 80.0105 82.33 80.1605 82.11C80.0605 82.47 80.3305 82.99 79.7605 83.12C79.7405 83.12 79.7305 83.25 79.7405 83.31C79.8105 83.79 80.0105 84.35 79.1305 84.1C79.0705 84.3 78.9205 84.55 78.9805 84.7C79.1905 85.21 78.9105 85.49 78.6505 85.75C78.6505 85.37 78.5805 84.94 78.6705 84.55C78.7405 84.23 78.2405 83.58 79.1305 83.59C79.1805 83.59 79.2405 82.82 79.3005 82.4Z" fill="#594842"/>
<path d="M65.4502 19.9C64.2902 20.57 63.1202 21.23 61.9702 21.9C61.8102 21.99 61.6502 22.15 61.5602 22.31C61.2802 22.82 61.2902 22.83 60.7402 22.45C62.2002 21.38 63.6302 20.32 65.3502 19.74C65.3802 19.79 65.4202 19.85 65.4502 19.9Z" fill="#594842"/>
<path d="M57.48 93.68C57.48 93.34 57.48 93.16 57.48 92.97C57.67 93.02 57.85 93.07 57.88 93.08H58.78C58.68 93.31 58.63 93.6 58.46 93.75C58.06 94.09 57.61 94.35 57 94.77C57.22 94.26 57.38 93.91 57.48 93.68Z" fill="#594842"/>
<path d="M62.04 78.62C62.72 77.78 62.21 76.54 63.21 75.9C63.44 76.93 62.92 78.35 62.04 78.62Z" fill="#594842"/>
<path d="M58.0703 24.5C58.9203 23.82 59.6803 23.2 60.4503 22.59C60.5303 22.68 60.6003 22.77 60.6803 22.86C59.9703 23.47 59.2603 24.09 58.5403 24.68C58.5003 24.72 58.3303 24.6 58.0803 24.5H58.0703Z" fill="#594842"/>
<path d="M73.1201 78.87C72.7601 79.36 72.7801 80.07 71.9501 80.18C71.7001 80.21 71.5201 80.74 71.3401 81C71.0901 80.31 72.0901 79.01 73.1201 78.87Z" fill="#594842"/>
<path d="M69.3801 94.85C69.3201 94.35 69.2701 93.85 69.2001 93.28C69.1801 93.28 69.0201 93.3 68.8501 93.32C69.1001 92.99 69.3201 92.69 69.5401 92.4C70.2101 93.14 69.5701 93.97 69.5801 94.77C69.5801 94.79 69.4301 94.81 69.3501 94.83L69.3701 94.85H69.3801Z" fill="#594842"/>
<path d="M61.3003 78.44C61.3303 77.64 61.2403 76.77 62.3003 76.39C61.9403 77.09 62.3703 78.13 61.2803 78.42L61.3003 78.44Z" fill="#594842"/>
<path d="M39.5001 102.08C39.6201 102.53 39.7301 102.91 39.8601 103.38C39.9601 103.21 40.0201 103.1 40.1401 102.88C40.2801 103.35 40.4101 103.75 40.5701 104.27C40.3401 104.22 40.0001 104.19 39.9901 104.13C39.9101 103.44 38.8001 103.04 39.4901 102.08H39.5001Z" fill="#594842"/>
<path d="M60.3402 111.81C60.3902 111.76 60.4402 111.71 60.5002 111.66C61.1002 111.79 61.2002 111.99 60.8702 112.43C60.5902 112.79 60.2502 113.1 59.9402 113.43C59.8702 113.39 59.8102 113.35 59.7402 113.31C59.9402 112.81 60.1502 112.3 60.3502 111.8L60.3402 111.81Z" fill="#594842"/>
<path d="M75.54 83.74C75.7 83.06 75.87 82.37 76.03 81.69C76.61 82.01 76.66 82.47 76.19 83C75.99 83.23 75.86 83.52 75.7 83.78C75.65 83.76 75.6 83.75 75.55 83.73L75.54 83.74Z" fill="#594842"/>
<path d="M47.6602 75.09C48.4302 75.41 49.0102 76.69 48.6602 77.44C48.3102 76.63 48.0102 75.91 47.6602 75.09Z" fill="#594842"/>
<path d="M58.2303 86.71C58.0003 87.49 57.8103 88.14 57.6103 88.85C57.0103 88.33 57.3403 87.31 58.2303 86.71Z" fill="#594842"/>
<path d="M60.2702 79.82C59.9202 80.58 59.8402 81.51 58.9702 81.9C59.3002 81.13 59.5802 80.34 60.2702 79.82Z" fill="#594842"/>
<path d="M60.7202 75.3C61.2502 74.66 61.7802 74.02 62.3002 73.38C62.3602 73.42 62.4102 73.47 62.4702 73.51C62.2502 73.8 62.0302 74.1 61.7102 74.52C62.0702 74.39 62.2602 74.32 62.4402 74.25C62.4702 74.31 62.5002 74.37 62.5302 74.43C61.9202 74.71 61.3102 74.99 60.7002 75.28L60.7202 75.3Z" fill="#594842"/>
<path d="M79.7204 79.52C80.4604 80.2 80.6204 80.64 80.3004 81.28C80.0004 81.04 79.7204 80.81 79.4404 80.58C79.4704 80.54 79.5004 80.49 79.5304 80.45C79.6704 80.52 79.8204 80.58 80.0004 80.66C79.8404 80.29 79.6804 79.94 79.5204 79.59C79.5904 79.56 79.6604 79.54 79.7204 79.51V79.52Z" fill="#594842"/>
<path d="M76.0103 93.54C76.1303 92.91 76.2603 92.27 76.4103 91.51C76.4103 91.51 76.5702 91.42 76.7402 91.32C77.0002 91.91 76.5003 93.36 76.0103 93.54Z" fill="#594842"/>
<path d="M80.3903 86.78C80.5503 86.74 80.7103 86.7 80.9403 86.64C80.8103 86.88 80.7003 87.06 80.6003 87.25C80.7103 87.29 80.8203 87.33 81.0603 87.41C80.6803 87.74 80.3603 88.01 80.0503 88.29C79.9703 88.25 79.9003 88.22 79.8203 88.18C79.8903 87.95 79.9403 87.7 80.0403 87.48C80.1503 87.23 80.2903 87 80.4203 86.76L80.4003 86.78H80.3903Z" fill="#594842"/>
<path d="M47.8004 69.77C47.2704 68.93 47.3004 67.94 47.1304 67.01L47.2904 66.97C47.5304 67.88 47.7804 68.8 48.0204 69.71C47.9504 69.73 47.8704 69.75 47.8004 69.77Z" fill="#594842"/>
<path d="M57.7904 89C57.7304 89.3 57.6804 89.59 57.6204 89.89L57.5104 89.77C57.2604 89.98 57.0204 90.2 56.8004 90.39C56.6404 89.52 57.0804 88.86 57.7904 88.99V89Z" fill="#594842"/>
<path d="M69.3603 94.83C69.4203 95.36 69.4803 95.89 69.5403 96.42C69.4603 96.44 69.3803 96.45 69.3003 96.47C68.9103 95.94 68.8903 95.29 68.8203 94.64C69.0203 94.72 69.2003 94.79 69.3703 94.86L69.3503 94.84L69.3603 94.83Z" fill="#594842"/>
<path d="M44.3203 58.99C44.0003 59.8 43.4903 60.16 42.0303 60.52C42.7903 60.01 43.5403 59.51 44.3203 58.99Z" fill="#594842"/>
<path d="M75.04 86.05C75.2 85.67 75.32 85.4 75.44 85.12C75.53 85.12 75.61 85.14 75.7 85.14C75.78 85.73 75.85 86.33 75.93 86.92C75.84 86.94 75.75 86.96 75.66 86.98C75.62 86.82 75.49 86.62 75.55 86.5C75.74 86.06 75.73 86.04 75.05 86.04L75.04 86.05Z" fill="#594842"/>
<path d="M45.6103 113.45C45.7103 114.26 45.7903 114.92 45.8803 115.67C45.2503 115.18 45.1203 114.24 45.6103 113.45Z" fill="#594842"/>
<path d="M56.0703 114.73C56.4003 114.28 56.7303 113.83 57.0603 113.38C57.2703 114.23 56.8803 114.63 56.0703 114.73Z" fill="#594842"/>
<path d="M74.3202 92.8C73.8702 92.34 73.9102 91.71 74.3202 91.36C74.3902 91.52 74.4702 91.7 74.5502 91.87C74.6302 91.87 74.7002 91.85 74.7802 91.84C74.6402 92.14 74.5002 92.44 74.3302 92.79L74.3202 92.8Z" fill="#594842"/>
<path d="M65.4604 86.65C65.2604 86.83 65.1204 86.97 64.9604 87.09C64.7504 87.24 64.5304 87.38 64.1304 87.45C64.2404 87.18 64.2904 86.83 64.4804 86.68C64.6604 86.55 65.0104 86.65 65.4604 86.65Z" fill="#594842"/>
<path d="M71.3002 85.49C71.1102 86.25 70.9102 87.01 70.7202 87.75C70.3302 87.57 70.6802 86.02 71.3002 85.49Z" fill="#594842"/>
<path d="M61.0204 103.91C60.8304 104.7 60.6504 105.5 60.4604 106.29C60.3704 106.27 60.2804 106.25 60.1904 106.23C60.4004 105.45 60.6104 104.66 60.8204 103.88C60.8904 103.88 60.9604 103.9 61.0204 103.91Z" fill="#594842"/>
<path d="M56.8002 87.76C56.6802 87.03 57.3102 86.61 57.5502 86.03C57.6102 86.05 57.6602 86.07 57.7202 86.1C57.5002 86.67 57.2802 87.25 57.0502 87.82C56.9702 87.8 56.8902 87.78 56.8002 87.76Z" fill="#594842"/>
<path d="M64.8901 100.5C64.8301 100.36 64.7601 100.23 64.7001 100.1C64.0601 100.3 64.1901 100.8 64.2301 101.25C63.6801 101.06 63.8301 100.68 64.0001 100.38C64.1301 100.15 64.3701 99.92 64.6001 99.86C64.7101 99.83 64.9301 100.18 65.1001 100.36C65.0301 100.41 64.9601 100.46 64.8901 100.5Z" fill="#594842"/>
<path d="M72.0303 87.55C72.1203 86.88 72.2003 86.37 72.2703 85.85C72.7503 86.5 72.7203 86.93 72.0303 87.55Z" fill="#594842"/>
<path d="M68.5302 92.6V93.64C68.2402 93.53 67.9902 93.44 67.6802 93.32C67.9602 93.01 68.1702 92.77 68.3902 92.53C68.4402 92.55 68.4802 92.58 68.5302 92.6Z" fill="#594842"/>
<path d="M68.3603 84.55C68.3403 84.25 68.3103 83.96 68.2803 83.48C68.3203 83.42 68.4903 83.2 68.6503 82.98C68.7203 83 68.8003 83.03 68.8703 83.05C68.7503 83.56 68.6203 84.07 68.5003 84.58L68.3603 84.54V84.55Z" fill="#594842"/>
<path d="M77.4004 87.54V85.6C77.4904 85.6 77.5804 85.6 77.6604 85.6C77.6304 86.25 77.6004 86.9 77.5704 87.55C77.5104 87.55 77.4604 87.54 77.4004 87.53V87.54Z" fill="#594842"/>
<path d="M59.9402 79.22C59.6502 79.7 59.3702 80.17 59.0802 80.65C58.9402 80.14 59.5802 79.31 59.9602 79.24L59.9402 79.22Z" fill="#594842"/>
<path d="M49.1704 65V63.52C49.7204 64.22 49.7504 64.6 49.1704 65Z" fill="#594842"/>
<path d="M68.3602 74.72C68.3302 74.59 68.2402 74.41 68.2902 74.35C68.5902 73.95 68.9302 73.59 69.2602 73.21C69.3202 73.26 69.3902 73.31 69.4502 73.36C69.0802 73.82 68.7202 74.27 68.3502 74.73L68.3602 74.72Z" fill="#594842"/>
<path d="M87.1501 56.47C86.8801 56.27 86.6101 56.06 86.3301 55.86C86.4001 55.77 86.4801 55.68 86.5501 55.59C86.8001 55.84 87.0401 56.09 87.2901 56.34C87.2401 56.38 87.1901 56.43 87.1401 56.47H87.1501Z" fill="#594842"/>
<path d="M57.5604 91.42C57.8104 91.96 57.5304 92.44 56.8604 92.54C57.1204 92.12 57.3204 91.8 57.5604 91.42Z" fill="#594842"/>
<path d="M73.0601 87.14C72.9601 87.54 72.8601 87.95 72.7101 88.51C72.2901 87.81 72.6101 87.46 72.8601 87.09C72.9301 87.11 72.9901 87.12 73.0601 87.14Z" fill="#594842"/>
<path d="M87.7305 87.12C87.9705 86.56 88.2005 86 88.4405 85.44L88.6005 85.5C88.6005 86.15 88.1305 86.62 87.7305 87.11V87.12Z" fill="#594842"/>
<path d="M113.02 105.85C113.16 105.93 113.25 105.98 113.39 106.05C113.32 105.43 112.99 104.81 113.69 104.21C113.57 104.72 113.48 105.11 113.39 105.5C113.45 105.52 113.51 105.54 113.57 105.55C113.71 105.25 113.86 104.94 114 104.64C114.05 104.64 114.1 104.64 114.15 104.64C114.12 105.04 114.09 105.43 114.06 105.83C114.15 105.78 114.33 105.7 114.5 105.61C114.53 105.64 114.56 105.67 114.59 105.69C114 106.58 113.4 107.47 112.81 108.36C112.75 108.35 112.7 108.33 112.64 108.32C112.76 107.51 112.89 106.7 113.02 105.84V105.85Z" fill="#594842"/>
<path d="M112.1 91.9C111.9 90.91 111.74 90.11 111.6 89.31C111.6 89.29 111.81 89.22 112.02 89.14C111.9 89.37 111.83 89.51 111.75 89.66C111.94 89.79 112.1 89.9 112.31 90.05C112.24 90.2 112.17 90.35 112.1 90.49C112.14 90.48 112.19 90.46 112.23 90.45C112.34 90.8 112.47 91.14 112.54 91.5C112.55 91.58 112.33 91.71 112.1 91.91V91.9Z" fill="#594842"/>
<path d="M113 109.62C112.94 109.82 112.89 110.03 112.83 110.23C112.79 110.35 112.68 110.53 112.72 110.59C113.44 111.52 112.23 111.81 112.23 112.49C112.16 112.47 112.09 112.45 112.03 112.43C112.28 111.47 112.52 110.51 112.77 109.55C112.85 109.57 112.92 109.6 113 109.62Z" fill="#594842"/>
<path d="M110.79 112.8C111.08 113.96 110.34 114.47 109.49 114.92C109.92 114.22 110.35 113.53 110.79 112.8Z" fill="#594842"/>
<path d="M112.76 116.01C112.6 115.61 112.42 115.29 112.35 114.94C112.32 114.79 112.46 114.55 112.6 114.45C112.69 114.38 112.94 114.42 113.06 114.5C113.15 114.56 113.21 114.78 113.18 114.89C113.07 115.26 112.91 115.62 112.77 116.01H112.76Z" fill="#594842"/>
<path d="M113.42 98.3C113.54 98.55 113.68 98.79 113.79 99.05C114.01 99.56 114.22 100.07 114.46 100.62C113.68 100.21 113.24 99.17 113.44 98.29L113.43 98.31L113.42 98.3Z" fill="#594842"/>
<path d="M112.87 112C113.01 112.78 112.65 113.45 111.61 114.15C112.07 113.36 112.47 112.68 112.87 112Z" fill="#594842"/>
<path d="M114.68 102.43C114.75 102.67 114.82 102.78 114.81 102.88C114.78 103.15 114.7 103.42 114.65 103.7C114.62 103.88 114.63 104.06 114.6 104.24H114.42C114.38 104.03 114.3 103.81 114.34 103.61C114.4 103.26 114.54 102.92 114.68 102.43Z" fill="#594842"/>
<path d="M111.49 111.27C111.58 111.36 111.76 111.47 111.75 111.53C111.63 111.96 111.48 112.38 111.33 112.8C111.27 112.78 111.21 112.76 111.15 112.75C111.27 112.25 111.39 111.75 111.51 111.26L111.49 111.28V111.27Z" fill="#594842"/>
<path d="M113.43 112.31C113.46 111.91 113.49 111.51 113.52 111.11C113.69 111.13 113.85 111.16 114.14 111.2C113.93 111.59 113.73 111.95 113.54 112.3C113.5 112.3 113.47 112.3 113.43 112.3V112.31Z" fill="#594842"/>
<path d="M102.53 69.21C103.03 68.11 103.53 67.01 104.03 65.9C104.11 65.94 104.18 65.97 104.26 66.01C103.75 67.11 103.23 68.21 102.72 69.32C102.66 69.28 102.59 69.25 102.53 69.21Z" fill="#594842"/>
<path d="M84.9405 34.6V37.08C85.0305 37.1 85.1305 37.12 85.2205 37.14C85.8505 36.47 85.2205 35.36 85.9105 34.71C86.3905 35.61 86.3804 35.97 85.8404 36.99C85.5504 37.55 85.2904 38.12 84.9204 38.87C84.7804 38.44 84.6405 38.13 84.5705 37.8C84.4205 37.1 84.2304 36.39 84.2004 35.67C84.1904 35.31 84.4804 34.94 84.6404 34.58C84.7304 34.59 84.8304 34.6 84.9204 34.61L84.9405 34.6Z" fill="#594842"/>
<path d="M83.5103 39.88C83.4803 41.4 82.2403 41.5 81.3503 41.99C81.5503 41.62 81.7503 41.24 82.0203 40.75C81.6903 40.77 81.5403 40.78 81.3003 40.79C81.7103 39.67 82.7603 40.31 83.5003 39.88H83.5103Z" fill="#594842"/>
<path d="M87.7403 41.67C87.4403 41.46 87.2403 41.31 87.0303 41.16C86.8103 41.4267 86.8404 41.8733 87.1204 42.5C86.5504 42.34 86.3404 42.41 86.1104 40.77C87.5804 40.48 87.8203 40.59 87.7403 41.66V41.67Z" fill="#594842"/>
<path d="M86.29 39.14C86.55 38.78 86.79 38.4 87.08 38.06C87.15 37.98 87.41 37.99 87.51 38.06C87.59 38.12 87.64 38.41 87.58 38.46C87.23 38.77 86.85 39.03 86.48 39.31C86.42 39.25 86.36 39.2 86.3 39.14H86.29Z" fill="#594842"/>
<path d="M82.6603 37.33C83.0603 37.86 83.3803 38.28 83.7703 38.8C82.9303 38.75 82.5203 38.22 82.6603 37.33Z" fill="#594842"/>
</g>
<defs>
<clipPath id="clip0_71_1704">
<rect width="149.76" height="149.76" fill="white"/>
</clipPath>
</defs>
</svg>
