<svg width="150" height="150" viewBox="0 0 150 150" fill="none" xmlns="http://www.w3.org/2000/svg">
<g clip-path="url(#clip0_71_1707)">
<path d="M134 0H16C7.16344 0 0 7.16344 0 16V134C0 142.837 7.16344 150 16 150H134C142.837 150 150 142.837 150 134V16C150 7.16344 142.837 0 134 0Z" fill="#E8726E"/>
<path d="M139.03 75.08C139.03 95.05 139.03 115.02 139.03 135C139.03 137.29 137.3 139.04 135.03 139.04C95.0502 139.04 55.0802 139.04 15.1002 139.04C12.7402 139.04 10.9702 137.25 10.9702 134.88C10.9702 94.97 10.9702 55.06 10.9702 15.15C10.9702 12.82 12.8002 10.98 15.1202 10.98C55.0602 10.98 95.0102 10.98 134.95 10.98C137.25 10.98 139.03 12.76 139.03 15.08C139.03 35.08 139.03 55.09 139.03 75.09V75.08ZM75.0402 12.22C61.4902 12.22 47.9302 12.22 34.3802 12.22C28.2902 12.22 22.2102 12.22 16.1202 12.22C14.2702 12.22 12.7502 13.35 12.3402 15.08C12.2002 15.64 12.2302 16.25 12.2302 16.84C12.2302 51.52 12.2302 86.19 12.2302 120.87C12.2302 125.25 12.2202 129.62 12.2302 134C12.2302 135.9 13.3902 137.32 15.2402 137.74C15.7102 137.85 16.2102 137.89 16.7002 137.89C55.5902 137.89 94.4802 137.89 133.36 137.89C136.34 137.89 137.89 136.32 137.89 133.3C137.89 94.44 137.89 55.59 137.89 16.73C137.89 13.66 136.44 12.21 133.37 12.21C113.93 12.21 94.4802 12.21 75.0402 12.21V12.22Z" fill="#CFE8D7"/>
<path d="M75.0703 13.52C93.6603 13.52 112.25 13.56 130.83 13.48C134.03 13.47 136.6 15.57 136.6 19.22C136.56 56.43 136.58 93.64 136.58 130.85C136.58 134.5 134.55 136.55 130.91 136.55C93.6403 136.55 56.3603 136.55 19.0903 136.55C15.5503 136.55 13.5303 134.51 13.5303 130.98C13.5303 93.67 13.5303 56.36 13.5303 19.06C13.5303 15.57 15.5503 13.53 19.0203 13.53C37.7103 13.53 56.3903 13.53 75.0803 13.53L75.0703 13.52ZM14.2103 75.02C14.2103 93.67 14.2503 112.33 14.1703 130.98C14.1603 133.92 16.2603 135.92 19.1503 135.92C56.4303 135.88 93.7003 135.9 130.98 135.89C134.14 135.89 135.93 134.09 135.93 130.93C135.93 93.65 135.92 56.38 135.95 19.1C135.95 16.32 134.08 14.14 130.98 14.15C93.6703 14.21 56.3603 14.21 19.0603 14.15C16.3103 14.15 14.1603 16.13 14.1703 19.05C14.2503 37.7 14.2103 56.36 14.2103 75.01V75.02Z" fill="#CFE8D7"/>
<path d="M20.2201 131.71C19.7801 132.14 19.2101 132.71 18.5201 133.38C17.9701 132.74 17.4501 132.13 16.8301 131.39C17.3601 130.98 18.0001 130.5 18.6601 130C19.0401 130.41 19.6101 131.03 20.2201 131.71Z" fill="#CFE8D7"/>
<path d="M18.7604 16.87C19.2204 17.31 19.7904 17.85 20.4604 18.49C19.7904 19.07 19.1704 19.6 18.4304 20.24C18.0004 19.7 17.4904 19.08 16.8804 18.33C17.3904 17.93 18.0504 17.42 18.7504 16.87H18.7604Z" fill="#CFE8D7"/>
<path d="M133.57 18.56C132.99 19.11 132.41 19.66 131.78 20.25C131.25 19.65 130.72 19.05 130.11 18.36C130.59 17.98 131.2 17.5 131.85 16.98C132.19 17.42 132.7 18.09 133.21 18.75C133.33 18.69 133.45 18.62 133.57 18.56Z" fill="#CFE8D7"/>
<path d="M130.16 131.42C130.62 130.92 131.17 130.34 131.78 129.69C132.42 130.34 132.98 130.91 133.63 131.56C133 132.15 132.42 132.7 131.8 133.28C131.27 132.68 130.73 132.08 130.16 131.43V131.42Z" fill="#CFE8D7"/>
<path d="M118.31 112.78H31.6899V131.44H118.31V112.78Z" fill="#CFE8D7"/>
<path d="M51.5459 114.784C51.5537 114.839 51.5576 114.9 51.5576 114.966C51.5576 115.107 51.5342 115.361 51.4873 115.728C51.4443 116.095 51.4229 116.368 51.4229 116.548C51.4229 116.642 51.4268 116.728 51.4346 116.806C51.4072 116.927 51.3857 117.091 51.3701 117.298C51.374 117.314 51.3877 117.363 51.4111 117.445C51.4307 117.511 51.4385 117.568 51.4346 117.614C51.4189 117.654 51.3975 117.704 51.3701 117.767C51.3662 117.829 51.3799 118.019 51.4111 118.335C51.2979 118.495 51.1943 118.575 51.1006 118.575C51.0576 118.575 51.0146 118.532 50.9717 118.446C51.0107 118.056 51.0225 117.816 51.0068 117.726C50.9951 117.62 50.9697 117.47 50.9307 117.275C50.833 116.982 50.6572 116.659 50.4033 116.308C50.3096 116.175 50.0791 115.999 49.7119 115.78C49.6729 115.757 49.5225 115.712 49.2607 115.646C49.0889 115.603 48.8408 115.581 48.5166 115.581C47.5869 115.581 46.8584 115.929 46.3311 116.624C46.2646 116.675 46.1689 116.779 46.0439 116.935C45.6377 117.732 45.4072 118.513 45.3525 119.279C45.3291 119.595 45.3174 120.118 45.3174 120.849V121.511C45.3174 121.468 45.3506 121.644 45.417 122.038C45.4209 122.241 45.4424 122.519 45.4814 122.87C45.5088 122.909 45.5576 123.009 45.6279 123.169C45.6318 123.255 45.6455 123.37 45.6689 123.515C45.7393 123.64 45.8408 123.827 45.9736 124.077C45.9932 124.159 46.0264 124.275 46.0732 124.423C46.2842 124.962 46.6104 125.411 47.0518 125.771C47.251 125.931 47.4463 126.044 47.6377 126.111C48.5596 126.419 49.1514 126.573 49.4131 126.573C49.5342 126.573 49.6533 126.554 49.7705 126.515C49.8291 126.499 49.9111 126.458 50.0166 126.392C50.04 126.126 50.0518 125.997 50.0518 126.005C50.0518 125.907 50.0225 125.845 49.9639 125.818C49.8818 125.775 49.8252 125.72 49.7939 125.654C49.7471 125.548 49.7451 125.343 49.7881 125.038C49.7881 125.034 49.7881 124.503 49.7881 123.445C49.7568 123.062 49.7178 122.761 49.6709 122.542C49.6396 122.511 49.6006 122.446 49.5537 122.349C49.4756 122.001 49.3057 121.777 49.0439 121.675C48.9346 121.636 48.7041 121.611 48.3525 121.599C48.3408 121.583 48.3193 121.558 48.2881 121.523V121.271C48.4053 121.216 48.5967 121.189 48.8623 121.189C48.8857 121.189 49.0498 121.208 49.3545 121.247C49.6631 121.286 49.8291 121.306 49.8525 121.306C49.8721 121.306 49.9111 121.29 49.9697 121.259C50.0283 121.224 50.0693 121.206 50.0928 121.206C50.3779 121.171 50.5381 121.154 50.5732 121.154C51.2334 121.154 51.5146 121.155 51.417 121.159V121.593C51.417 121.609 51.3936 121.681 51.3467 121.81C51.2998 121.939 51.2725 122.03 51.2646 122.085C51.1865 122.546 51.1396 123.013 51.124 123.486C51.1084 124.079 51.1006 124.489 51.1006 124.716C51.1006 125.173 51.1357 125.802 51.2061 126.603C51.0342 126.728 50.7529 126.863 50.3623 127.007C49.9717 127.152 49.6729 127.234 49.4658 127.253C49.3955 127.249 49.2939 127.255 49.1611 127.271C48.9502 127.337 48.8018 127.37 48.7158 127.37C48.6963 127.37 48.6611 127.361 48.6104 127.341C48.5635 127.321 48.5322 127.31 48.5166 127.306C48.0322 127.275 47.6299 127.216 47.3096 127.13C47.1885 127.068 47.0088 126.988 46.7705 126.89C46.2979 126.757 45.7744 126.329 45.2002 125.607C44.6064 124.864 44.2412 124.146 44.1045 123.45C44.0654 123.298 44.0107 123.07 43.9404 122.765C43.9053 122.667 43.8584 122.517 43.7998 122.314C43.7412 121.989 43.7119 121.716 43.7119 121.493C43.7119 121.513 43.7236 121.39 43.7471 121.124C43.7705 120.898 43.7725 120.738 43.7529 120.644C43.7373 120.538 43.7295 120.425 43.7295 120.304C43.7295 120.077 43.7666 119.755 43.8408 119.337C43.9385 118.818 43.9951 118.468 44.0107 118.288C44.4756 117.113 44.7549 116.525 44.8486 116.525C44.8682 116.525 44.8818 116.538 44.8896 116.566C44.8975 116.589 44.915 116.601 44.9424 116.601C45.0205 116.601 45.085 116.573 45.1357 116.519C45.1553 116.441 45.1924 116.331 45.2471 116.191C45.6807 115.503 45.9443 115.159 46.0381 115.159C46.0615 115.159 46.0771 115.167 46.085 115.183C46.0967 115.195 46.1123 115.2 46.1318 115.2C46.1514 115.2 46.2002 115.157 46.2783 115.071C46.3604 114.982 46.415 114.937 46.4424 114.937C46.4619 114.937 46.4873 114.95 46.5186 114.978C46.5537 115.001 46.5811 115.013 46.6006 115.013C46.624 115.013 46.8311 114.943 47.2217 114.802C47.6162 114.661 47.8252 114.591 47.8486 114.591H49.665C49.6846 114.591 49.8975 114.624 50.3037 114.691C50.7139 114.753 50.9287 114.784 50.9482 114.784C50.96 114.784 51.0439 114.784 51.2002 114.784C51.3604 114.784 51.4756 114.784 51.5459 114.784ZM58.7236 124.341C58.6533 124.372 58.5498 124.382 58.4131 124.37C58.1865 124.351 58.0811 124.341 58.0967 124.341H57.6279C57.0615 124.341 56.6201 124.37 56.3037 124.429C56.1279 124.46 56.0107 124.443 55.9521 124.376C55.9443 124.259 55.9502 124.159 55.9697 124.077C56.0479 124.07 56.1572 124.042 56.2979 123.995C56.3564 123.96 56.4014 123.902 56.4326 123.82C56.4639 123.738 56.4697 123.673 56.4502 123.626C56.3994 123.4 56.3213 123.06 56.2158 122.607C56.208 122.579 56.165 122.468 56.0869 122.273C56.0244 122.116 55.9932 121.997 55.9932 121.915C55.9893 121.892 55.9639 121.88 55.917 121.88C55.8506 121.88 55.5303 121.896 54.9561 121.927L53.7197 121.945C53.6299 121.941 53.5459 122.023 53.4678 122.191C53.4287 122.277 53.374 122.404 53.3037 122.571C53.2139 122.845 53.1709 123.007 53.1748 123.058C53.1748 123.03 53.1553 123.148 53.1162 123.409C53.0889 123.593 53.0889 123.718 53.1162 123.784C53.1318 123.823 53.1904 123.886 53.292 123.972C53.3975 124.058 53.4873 124.114 53.5615 124.142C53.5811 124.15 53.6123 124.159 53.6553 124.171C53.6865 124.226 53.7119 124.269 53.7314 124.3C53.6494 124.323 53.5361 124.349 53.3916 124.376C53.165 124.357 52.8389 124.341 52.4131 124.329C52.3232 124.357 52.1846 124.384 51.9971 124.411C51.9893 124.411 51.8467 124.394 51.5693 124.359C51.5615 124.339 51.5576 124.321 51.5576 124.306C51.5576 124.259 51.6162 124.193 51.7334 124.107C51.7764 124.048 51.8486 123.972 51.9502 123.878C52.04 123.82 52.1182 123.72 52.1846 123.579C52.251 123.435 52.3525 123.212 52.4893 122.911C52.5479 122.724 52.6357 122.441 52.7529 122.062C52.8311 121.882 52.9307 121.609 53.0518 121.241C53.1416 120.972 53.2725 120.571 53.4443 120.04C53.46 120.025 53.4795 120.001 53.5029 119.97C53.5146 120.032 53.5303 120.064 53.5498 120.064C53.5771 120.064 53.6123 119.98 53.6553 119.812C53.6943 119.659 53.7139 119.55 53.7139 119.484C53.7139 119.472 53.7119 119.466 53.708 119.466C53.7002 119.478 53.6865 119.513 53.667 119.571C53.667 119.532 53.6709 119.478 53.6787 119.407C53.7412 119.243 53.8291 119.001 53.9424 118.681C53.9697 118.529 54.0537 118.302 54.1943 118.001C54.2139 117.935 54.2432 117.833 54.2822 117.696C54.3174 117.579 54.3857 117.404 54.4873 117.169C54.499 117.118 54.5283 117.046 54.5752 116.952C54.5986 116.925 54.6904 116.917 54.8506 116.929C55.0029 116.933 55.2334 116.946 55.542 116.97C55.6436 117.263 55.8252 117.73 56.0869 118.37C56.0947 118.445 56.1162 118.554 56.1514 118.698C56.2139 118.882 56.2959 119.052 56.3975 119.208C56.3779 119.236 56.3936 119.337 56.4443 119.513C56.5068 119.654 56.5986 119.861 56.7197 120.134C56.8018 120.404 56.9287 120.779 57.1006 121.259C57.1123 121.368 57.1494 121.525 57.2119 121.728C57.2119 121.759 57.2217 121.808 57.2412 121.874C57.2881 121.976 57.3721 122.171 57.4932 122.46C57.5361 122.523 57.5947 122.618 57.6689 122.747C57.665 122.779 57.6689 122.821 57.6807 122.876C57.7354 123.036 57.8193 123.261 57.9326 123.55C57.9717 123.616 58.0381 123.738 58.1318 123.913C58.1553 123.96 58.2666 124.021 58.4658 124.095C58.5244 124.114 58.6104 124.144 58.7236 124.183V124.341ZM55.7119 121.271C55.708 121.267 55.5654 120.878 55.2842 120.105C55.2373 119.948 55.165 119.716 55.0674 119.407C55.0205 119.314 54.958 119.179 54.8799 119.003C54.8564 118.921 54.8154 118.804 54.7568 118.652C54.6162 118.972 54.46 119.296 54.2881 119.624C54.2646 119.648 54.2373 119.685 54.2061 119.736C54.1943 119.794 54.1729 119.884 54.1416 120.005C54.1143 120.06 54.0811 120.138 54.042 120.239C54.0381 120.306 54.0283 120.392 54.0127 120.497C53.9854 120.536 53.9541 120.591 53.9189 120.661C53.8994 120.751 53.8701 120.878 53.8311 121.042C53.8115 121.073 53.7861 121.116 53.7549 121.171C53.7627 121.128 53.7666 121.161 53.7666 121.271H55.7119ZM64.1846 121.687L64.1318 121.751L64.0967 121.716L64.126 121.593C64.1924 121.655 64.2119 121.687 64.1846 121.687ZM66.3584 117.21C66.2842 117.222 66.1768 117.241 66.0361 117.269C65.8877 117.312 65.7705 117.405 65.6846 117.55C65.5635 117.765 65.4893 117.976 65.4619 118.183C65.4111 118.542 65.3857 118.835 65.3857 119.062C65.3857 119.077 65.3936 119.247 65.4092 119.571C65.4248 119.892 65.4326 120.062 65.4326 120.081V121.013C65.4326 121.025 65.4385 121.064 65.4502 121.13C65.4658 121.196 65.4717 121.247 65.4678 121.282C65.4443 121.755 65.4326 122.021 65.4326 122.079C65.4326 122.111 65.4404 122.175 65.4561 122.273C65.4717 122.366 65.4795 122.421 65.4795 122.437V124.236C65.4795 124.259 65.4814 124.273 65.4854 124.277C65.4932 124.277 65.4971 124.279 65.4971 124.282C65.2236 124.329 65.1006 124.353 65.1279 124.353C64.9639 124.353 64.8623 124.335 64.8232 124.3C64.5537 124.05 64.1553 123.613 63.6279 122.988C63.5342 122.863 63.3936 122.683 63.2061 122.448C63.042 122.288 62.8193 122.054 62.5381 121.745C62.4678 121.628 62.3506 121.454 62.1865 121.224C61.835 120.798 61.3369 120.171 60.6924 119.343C60.6064 119.277 60.4893 119.171 60.3408 119.027C60.3369 118.999 60.3252 118.96 60.3057 118.909C60.2588 118.835 60.1807 118.724 60.0713 118.575C59.9893 118.614 59.9482 118.675 59.9482 118.757C59.9482 118.753 59.9756 118.952 60.0303 119.355C60.0342 119.378 60.0303 119.415 60.0186 119.466C60.0068 119.513 60.001 119.544 60.001 119.56C60.001 119.716 60.0068 119.958 60.0186 120.286C60.0342 120.611 60.042 120.769 60.042 120.761V121.581C60.042 121.605 60.0439 121.804 60.0479 122.179C60.0557 122.554 60.0596 122.751 60.0596 122.771C60.0596 123.587 60.3506 124.017 60.9326 124.06C60.9443 124.06 60.958 124.077 60.9736 124.113C60.9932 124.144 61.0068 124.163 61.0146 124.171C61.0186 124.241 61.0088 124.3 60.9854 124.347H58.9404C58.9248 124.347 58.8525 124.357 58.7236 124.376C58.5986 124.4 58.5264 124.411 58.5068 124.411H58.4131C58.3779 124.376 58.3604 124.355 58.3604 124.347C58.3604 124.21 58.4033 124.118 58.4893 124.071C58.5908 124.04 58.7393 123.982 58.9346 123.896C59.126 123.79 59.2412 123.622 59.2803 123.392C59.3818 122.825 59.4033 122.48 59.3447 122.355C59.3174 122.3 59.3135 122.253 59.333 122.214C59.333 122.214 59.3486 122.195 59.3799 122.155C59.3799 122.155 59.3682 122.138 59.3447 122.103C59.3408 122.06 59.3428 121.986 59.3506 121.88C59.3584 121.771 59.3623 121.693 59.3623 121.646C59.3623 121.591 59.3506 121.497 59.3271 121.364C59.3076 121.232 59.2979 121.138 59.2979 121.083C59.2979 121.142 59.3057 121.021 59.3213 120.72C59.3174 120.708 59.2998 120.669 59.2686 120.603L59.2979 120.573C59.3135 120.55 59.3232 120.507 59.3271 120.445C59.335 120.433 59.335 120.419 59.3271 120.404C59.2725 119.962 59.2451 119.665 59.2451 119.513V118.704C59.2451 118.704 59.2373 118.589 59.2217 118.359C59.21 118.128 59.2041 117.962 59.2041 117.861C59.2041 117.849 59.21 117.823 59.2217 117.784C59.2373 117.745 59.2432 117.712 59.2393 117.685C58.9424 117.372 58.5693 117.232 58.1201 117.263L58.0908 117.234V117.04C58.1338 116.989 58.2393 116.964 58.4072 116.964C58.4268 116.964 58.583 116.972 58.876 116.988C59.1729 117.003 59.3311 117.011 59.3506 117.011C59.3662 117.011 59.5107 117.003 59.7842 116.988C60.0615 116.972 60.21 116.964 60.2295 116.964C60.3232 116.964 60.3779 116.968 60.3936 116.976C60.4482 116.995 60.5615 117.122 60.7334 117.357C61.0576 117.814 61.5459 118.493 62.1982 119.396C62.3311 119.564 62.5303 119.814 62.7959 120.146C62.749 120.489 62.7979 120.661 62.9424 120.661C62.958 120.661 62.9893 120.65 63.0361 120.626C63.083 120.603 63.1162 120.591 63.1357 120.591C63.1865 120.591 63.2549 120.663 63.3408 120.808C63.3838 120.882 63.4248 120.954 63.4639 121.025C63.749 121.255 63.9268 121.431 63.9971 121.552C64.0127 121.618 64.04 121.716 64.0791 121.845C64.1104 121.888 64.1357 121.909 64.1553 121.909C64.1748 121.909 64.1943 121.902 64.2139 121.886C64.2334 121.87 64.2451 121.863 64.249 121.863C64.3545 121.976 64.4971 122.142 64.6768 122.361C64.7432 122.329 64.7764 122.3 64.7764 122.273C64.7764 122.253 64.7686 122.22 64.7529 122.173C64.7373 122.126 64.7295 122.093 64.7295 122.073V121.446C64.7295 121.427 64.7256 121.4 64.7178 121.364C64.7139 121.325 64.7119 121.277 64.7119 121.218C64.7275 121.144 64.7393 121.038 64.7471 120.902C64.7275 120.788 64.7021 120.622 64.6709 120.404C64.6631 120.372 64.667 120.314 64.6826 120.228C64.6982 120.142 64.7061 120.093 64.7061 120.081C64.7061 120.066 64.7002 120.034 64.6885 119.988C64.6768 119.937 64.6709 119.902 64.6709 119.882C64.6631 119.812 64.6631 119.716 64.6709 119.595C64.6787 119.443 64.6826 119.341 64.6826 119.29C64.6826 119.271 64.6729 119.238 64.6533 119.191C64.6377 119.144 64.6279 119.109 64.624 119.085C64.624 119.085 64.6318 119.032 64.6475 118.927C64.6514 118.896 64.6436 118.835 64.624 118.745C64.6084 118.655 64.6006 118.587 64.6006 118.54C64.6006 118.525 64.6084 118.489 64.624 118.435C64.6396 118.38 64.6455 118.341 64.6416 118.318C64.6182 118.157 64.5771 117.923 64.5186 117.614C64.4639 117.411 64.2412 117.277 63.8506 117.21C63.8584 117.144 63.8506 117.073 63.8271 116.999C63.8701 116.964 64.0088 116.946 64.2432 116.946L65.3096 116.988C65.2861 116.988 65.4619 116.976 65.8369 116.952C66.0596 116.937 66.2334 116.95 66.3584 116.993V117.21ZM73.6709 120.081C73.6943 120.28 73.6748 120.632 73.6123 121.136C73.5732 121.292 73.5166 121.521 73.4424 121.821C73.2822 122.486 72.9912 123.015 72.5693 123.409C72.4053 123.562 72.1943 123.714 71.9365 123.866C71.6318 124.05 71.3857 124.15 71.1982 124.165C71.1748 124.181 71.1357 124.198 71.0811 124.218C70.5029 124.304 70.2236 124.347 70.2432 124.347H66.4287C66.3975 124.21 66.4072 124.124 66.458 124.089C66.6221 124.03 66.7354 124.001 66.7979 124.001C66.8213 123.97 66.8545 123.927 66.8975 123.872C67.0811 123.681 67.1729 123.47 67.1729 123.239C67.1729 123.236 67.1611 123.187 67.1377 123.093C67.1533 123.054 67.165 122.997 67.1729 122.923C67.1572 122.892 67.1377 122.843 67.1143 122.777C67.1104 122.753 67.1182 122.71 67.1377 122.648C67.1572 122.581 67.1689 122.532 67.1729 122.501C67.1807 122.353 67.1846 122.118 67.1846 121.798V121.136C67.1807 120.687 67.1846 120.034 67.1963 119.179C67.1963 119.167 67.1865 119.142 67.167 119.103C67.1475 119.06 67.1377 119.029 67.1377 119.009C67.1377 118.946 67.1475 118.851 67.167 118.722C67.1865 118.589 67.1963 118.489 67.1963 118.423C67.1963 118.407 67.1846 118.378 67.1611 118.335C67.1377 118.292 67.1221 118.257 67.1143 118.23C67.1182 118.155 67.1123 118.042 67.0967 117.89C67.0303 117.628 66.9307 117.462 66.7979 117.392C66.6885 117.337 66.501 117.29 66.2354 117.251C66.2314 117.228 66.2295 117.177 66.2295 117.099C66.3975 117.017 66.5654 116.993 66.7334 117.029C66.7334 117.029 66.7471 117.04 66.7744 117.064C66.8018 117.083 66.8252 117.091 66.8447 117.087C66.8721 117.071 66.9053 117.052 66.9443 117.029C67.0732 117.025 67.2021 117.021 67.3311 117.017C67.4717 117.021 67.5811 117.079 67.6592 117.193C67.6709 117.193 67.6846 117.191 67.7002 117.187C67.7354 117.128 67.7939 117.052 67.876 116.958C67.9697 116.974 68.1006 116.993 68.2686 117.017C68.2764 117.021 68.292 117.009 68.3154 116.982C68.3428 116.954 68.3662 116.937 68.3857 116.929C68.5068 116.89 68.6885 116.87 68.9307 116.87H70.4189C71.0635 117.015 71.5186 117.146 71.7842 117.263C72.2881 117.482 72.7021 117.818 73.0264 118.271C73.0928 118.357 73.1846 118.495 73.3018 118.687C73.4736 119.027 73.5967 119.491 73.6709 120.081ZM73.4072 120.075C72.9307 120.044 72.5947 120.032 72.3994 120.04C72.3682 120.025 72.3564 119.958 72.3643 119.841C72.2939 119.669 72.1826 119.423 72.0303 119.103C71.8232 118.681 71.5947 118.347 71.3447 118.101C71.0947 117.851 70.6885 117.675 70.126 117.573C69.8721 117.53 69.7568 117.509 69.7803 117.509H69.1768C69.1611 117.509 69.0537 117.529 68.8545 117.568C68.6553 117.603 68.5225 117.624 68.4561 117.632C68.4014 117.905 68.3799 118.202 68.3916 118.523C68.3994 118.675 68.4033 118.986 68.4033 119.454V121.769C68.4033 121.765 68.3975 121.831 68.3857 121.968C68.3779 122.089 68.3779 122.179 68.3857 122.238C68.4053 122.464 68.415 122.562 68.415 122.53C68.4033 122.687 68.4014 122.818 68.4092 122.923C68.4092 122.946 68.4209 122.999 68.4443 123.081C68.4639 123.148 68.4717 123.198 68.4678 123.234C68.4639 123.238 68.3994 123.263 68.2744 123.31C68.1846 123.349 68.1299 123.4 68.1104 123.462C68.1768 123.521 68.2646 123.556 68.374 123.568C68.4521 123.571 68.5303 123.573 68.6084 123.573C69.3936 123.663 69.8486 123.708 69.9736 123.708C70.3447 123.708 70.6729 123.652 70.958 123.538C71.208 123.437 71.4131 123.304 71.5732 123.14C71.917 122.792 72.1455 122.361 72.2588 121.845C72.3135 121.595 72.3525 121.179 72.376 120.597C72.376 120.55 72.3408 120.484 72.2705 120.398C72.2627 120.343 72.2744 120.312 72.3057 120.304C72.3643 120.284 72.4854 120.263 72.6689 120.239C72.8291 120.224 73.0576 120.198 73.3545 120.163C73.3896 120.136 73.4072 120.107 73.4072 120.075ZM80.3916 124.341C80.3213 124.372 80.2178 124.382 80.0811 124.37C79.8545 124.351 79.749 124.341 79.7646 124.341H79.2959C78.7295 124.341 78.2881 124.37 77.9717 124.429C77.7959 124.46 77.6787 124.443 77.6201 124.376C77.6123 124.259 77.6182 124.159 77.6377 124.077C77.7158 124.07 77.8252 124.042 77.9658 123.995C78.0244 123.96 78.0693 123.902 78.1006 123.82C78.1318 123.738 78.1377 123.673 78.1182 123.626C78.0674 123.4 77.9893 123.06 77.8838 122.607C77.876 122.579 77.833 122.468 77.7549 122.273C77.6924 122.116 77.6611 121.997 77.6611 121.915C77.6572 121.892 77.6318 121.88 77.585 121.88C77.5186 121.88 77.1982 121.896 76.624 121.927L75.3877 121.945C75.2979 121.941 75.2139 122.023 75.1357 122.191C75.0967 122.277 75.042 122.404 74.9717 122.571C74.8818 122.845 74.8389 123.007 74.8428 123.058C74.8428 123.03 74.8232 123.148 74.7842 123.409C74.7568 123.593 74.7568 123.718 74.7842 123.784C74.7998 123.823 74.8584 123.886 74.96 123.972C75.0654 124.058 75.1553 124.114 75.2295 124.142C75.249 124.15 75.2803 124.159 75.3232 124.171C75.3545 124.226 75.3799 124.269 75.3994 124.3C75.3174 124.323 75.2041 124.349 75.0596 124.376C74.833 124.357 74.5068 124.341 74.0811 124.329C73.9912 124.357 73.8525 124.384 73.665 124.411C73.6572 124.411 73.5146 124.394 73.2373 124.359C73.2295 124.339 73.2256 124.321 73.2256 124.306C73.2256 124.259 73.2842 124.193 73.4014 124.107C73.4443 124.048 73.5166 123.972 73.6182 123.878C73.708 123.82 73.7861 123.72 73.8525 123.579C73.9189 123.435 74.0205 123.212 74.1572 122.911C74.2158 122.724 74.3037 122.441 74.4209 122.062C74.499 121.882 74.5986 121.609 74.7197 121.241C74.8096 120.972 74.9404 120.571 75.1123 120.04C75.1279 120.025 75.1475 120.001 75.1709 119.97C75.1826 120.032 75.1982 120.064 75.2178 120.064C75.2451 120.064 75.2803 119.98 75.3232 119.812C75.3623 119.659 75.3818 119.55 75.3818 119.484C75.3818 119.472 75.3799 119.466 75.376 119.466C75.3682 119.478 75.3545 119.513 75.335 119.571C75.335 119.532 75.3389 119.478 75.3467 119.407C75.4092 119.243 75.4971 119.001 75.6104 118.681C75.6377 118.529 75.7217 118.302 75.8623 118.001C75.8818 117.935 75.9111 117.833 75.9502 117.696C75.9854 117.579 76.0537 117.404 76.1553 117.169C76.167 117.118 76.1963 117.046 76.2432 116.952C76.2666 116.925 76.3584 116.917 76.5186 116.929C76.6709 116.933 76.9014 116.946 77.21 116.97C77.3115 117.263 77.4932 117.73 77.7549 118.37C77.7627 118.445 77.7842 118.554 77.8193 118.698C77.8818 118.882 77.9639 119.052 78.0654 119.208C78.0459 119.236 78.0615 119.337 78.1123 119.513C78.1748 119.654 78.2666 119.861 78.3877 120.134C78.4697 120.404 78.5967 120.779 78.7686 121.259C78.7803 121.368 78.8174 121.525 78.8799 121.728C78.8799 121.759 78.8896 121.808 78.9092 121.874C78.9561 121.976 79.04 122.171 79.1611 122.46C79.2041 122.523 79.2627 122.618 79.3369 122.747C79.333 122.779 79.3369 122.821 79.3486 122.876C79.4033 123.036 79.4873 123.261 79.6006 123.55C79.6396 123.616 79.7061 123.738 79.7998 123.913C79.8232 123.96 79.9346 124.021 80.1338 124.095C80.1924 124.114 80.2783 124.144 80.3916 124.183V124.341ZM77.3799 121.271C77.376 121.267 77.2334 120.878 76.9521 120.105C76.9053 119.948 76.833 119.716 76.7354 119.407C76.6885 119.314 76.626 119.179 76.5479 119.003C76.5244 118.921 76.4834 118.804 76.4248 118.652C76.2842 118.972 76.1279 119.296 75.9561 119.624C75.9326 119.648 75.9053 119.685 75.874 119.736C75.8623 119.794 75.8408 119.884 75.8096 120.005C75.7822 120.06 75.749 120.138 75.71 120.239C75.7061 120.306 75.6963 120.392 75.6807 120.497C75.6533 120.536 75.6221 120.591 75.5869 120.661C75.5674 120.751 75.5381 120.878 75.499 121.042C75.4795 121.073 75.4541 121.116 75.4229 121.171C75.4307 121.128 75.4346 121.161 75.4346 121.271H77.3799ZM86.4795 122.636C86.3975 122.925 86.3154 123.212 86.2334 123.497C86.1318 123.837 85.9873 124.159 85.7998 124.464L80.5967 124.417C80.5459 124.402 80.4561 124.382 80.3271 124.359C80.1982 124.339 80.1104 124.321 80.0635 124.306C80.0635 124.204 80.1025 124.128 80.1807 124.077C80.3408 124.081 80.5029 124.044 80.667 123.966C80.8818 123.864 81.0146 123.714 81.0654 123.515C81.0889 123.433 81.0928 123.288 81.0771 123.081C81.0615 122.843 81.0576 122.681 81.0654 122.595C81.0693 122.548 81.0908 122.388 81.1299 122.114C81.1572 121.904 81.1709 121.738 81.1709 121.616C81.1709 120.21 81.1475 119.267 81.1006 118.786C81.1123 118.771 81.1357 118.738 81.1709 118.687C81.1396 118.292 81.0889 117.97 81.0186 117.72C80.9834 117.603 80.8643 117.493 80.6611 117.392C80.4619 117.286 80.3154 117.247 80.2217 117.275C80.2217 117.114 80.3252 117.034 80.5322 117.034C80.5908 117.034 80.6709 117.042 80.7725 117.058C80.874 117.07 80.9385 117.075 80.9658 117.075H83.9014C83.9092 117.169 83.8115 117.241 83.6084 117.292C83.4639 117.327 83.3213 117.363 83.1807 117.398C83.0049 117.48 82.9111 117.525 82.8994 117.532C82.7861 117.603 82.7158 117.683 82.6885 117.773C82.6064 118.046 82.5498 118.409 82.5186 118.863C82.4678 119.55 82.4404 119.919 82.4365 119.97C82.5146 120.193 82.5537 120.394 82.5537 120.573C82.5537 120.663 82.54 120.786 82.5127 120.943C82.4854 121.095 82.4717 121.216 82.4717 121.306V122.9C82.5342 123.087 82.624 123.359 82.7412 123.714C82.7646 123.78 82.8389 123.823 82.9639 123.843C83.1201 123.863 83.3428 123.896 83.6318 123.943C83.6826 123.954 83.7314 123.954 83.7783 123.943C84.0596 123.904 84.3408 123.863 84.6221 123.82C84.9658 123.761 85.2295 123.667 85.4131 123.538C85.4795 123.488 85.5615 123.351 85.6592 123.128C85.7607 122.886 85.8486 122.726 85.9229 122.648C85.9814 122.585 86.0596 122.554 86.1572 122.554C86.208 122.554 86.3154 122.581 86.4795 122.636ZM91.9287 117.023C91.9639 117.206 91.9521 117.724 91.8936 118.575C91.8896 118.642 91.8389 118.72 91.7412 118.81C91.7256 118.814 91.6611 118.816 91.5479 118.816C91.5244 118.538 91.4951 118.343 91.46 118.23C91.3857 117.999 91.2568 117.859 91.0732 117.808C90.8936 117.753 90.499 117.726 89.8896 117.726H88.8701C88.6787 117.726 88.583 117.911 88.583 118.282C88.583 118.236 88.6025 118.441 88.6416 118.898C88.6494 118.995 88.6357 119.155 88.6006 119.378C88.5615 119.624 88.542 119.804 88.542 119.917C88.542 120.093 88.5732 120.239 88.6357 120.357H89.4092C89.4248 120.357 89.4873 120.368 89.5967 120.392C89.71 120.411 89.7803 120.421 89.8076 120.421H90.5576C90.8389 120.421 91.083 120.275 91.29 119.982C91.3057 119.923 91.333 119.841 91.3721 119.736C91.415 119.7 91.501 119.685 91.6299 119.689C91.6494 119.81 91.667 119.986 91.6826 120.216C91.6709 120.497 91.624 121.054 91.542 121.886C91.5303 121.995 91.4307 122.042 91.2432 122.027C91.208 121.866 91.1729 121.706 91.1377 121.546C91.0752 121.347 90.9619 121.222 90.7979 121.171C90.7002 121.144 90.458 121.13 90.0713 121.13H89.2041C89.165 121.154 89.0713 121.161 88.9229 121.154C88.79 121.146 88.6982 121.177 88.6475 121.247C88.6514 121.341 88.6455 121.48 88.6299 121.663C88.626 121.698 88.5967 121.816 88.542 122.015C88.499 122.159 88.4814 122.277 88.4893 122.366C88.5166 122.417 88.5439 122.491 88.5713 122.589C88.5713 122.659 88.5635 122.767 88.5479 122.911C88.5361 123.056 88.5303 123.163 88.5303 123.234C88.5303 123.538 88.6357 123.777 88.8467 123.948C88.8506 123.952 89.1396 124.066 89.7139 124.288C89.6396 124.378 89.542 124.425 89.4209 124.429C89.6553 124.425 89.542 124.417 89.0811 124.405C88.7217 124.398 88.2744 124.378 87.7393 124.347C87.4541 124.335 87.2686 124.337 87.1826 124.353C87.1318 124.384 87.0615 124.419 86.9717 124.458C86.9756 124.458 86.8291 124.427 86.5322 124.364C86.5557 124.294 86.6475 124.202 86.8076 124.089C86.9678 123.976 87.0635 123.892 87.0947 123.837C87.2393 123.564 87.3115 123.308 87.3115 123.07V121.663C87.3115 121.667 87.3057 121.532 87.2939 121.259C87.2861 120.982 87.2822 120.773 87.2822 120.632C87.2822 120.652 87.2861 120.583 87.2939 120.427C87.3018 120.318 87.2998 120.224 87.2881 120.146C87.2764 120.032 87.2471 119.937 87.2002 119.859C87.3369 119.663 87.4053 119.433 87.4053 119.167C87.4053 118.902 87.3369 118.599 87.2002 118.259C87.2002 118.189 87.1963 118.095 87.1885 117.978C87.1846 117.911 87.1729 117.857 87.1533 117.814C87.0752 117.65 86.96 117.495 86.8076 117.351C86.7646 117.308 86.665 117.279 86.5088 117.263C86.4775 117.22 86.4658 117.14 86.4736 117.023C86.4541 117.023 86.7217 117.017 87.2764 117.005C88.1396 116.993 89.4561 116.98 91.2256 116.964C91.4014 116.964 91.6357 116.984 91.9287 117.023Z" fill="#E8726E"/>
<path d="M34.1601 106.4C33.3901 106.47 32.6201 106.54 31.8501 106.6C31.2701 106.65 30.6901 106.69 30.1101 106.73C29.4301 106.77 28.7101 106.84 28.0701 106.68C27.1201 106.44 26.2201 105.99 25.3001 105.63C25.3601 106.32 25.2601 106.99 24.5801 107.6C24.3601 107.8 24.4301 108.35 24.3801 108.74C24.8401 108.76 25.0501 109.68 25.7001 109.07C25.7901 109 26.1601 109.15 26.3501 109.27C26.6801 109.47 26.9801 109.73 27.4301 110.08C27.3601 109.68 27.3301 109.49 27.3201 109.36C28.1301 109.43 28.9101 109.48 29.6801 109.54C29.7001 109.3 29.7301 109.1 29.7501 108.91C29.8801 108.91 29.9401 108.91 29.9901 108.93C30.2901 109.02 30.6001 109.23 30.8901 109.21C31.7701 109.13 32.6601 108.78 33.5101 108.87C33.5501 108.87 33.5901 108.87 33.6201 108.87C34.7001 108.94 34.8601 108.21 35.0101 107.47C35.1401 106.86 34.9701 106.33 34.1501 106.4H34.1601ZM58.5201 107.69C58.5201 107.69 58.5001 107.73 58.4801 107.75C58.5001 107.75 58.5101 107.73 58.5301 107.71C58.5301 107.71 58.5301 107.71 58.5301 107.69H58.5201ZM64.4601 106.92V106.94C64.4801 106.92 64.4901 106.89 64.5101 106.87C64.4901 106.89 64.4701 106.91 64.4501 106.93L64.4601 106.92ZM77.8801 93.14C77.8801 93.14 77.9101 93.19 77.9201 93.21C77.9201 93.19 77.9401 93.16 77.9601 93.09C77.9301 93.11 77.9001 93.12 77.8801 93.14ZM87.7701 90.61C88.3301 91.01 88.9301 90.85 89.3601 90.44C89.4301 90.37 89.4701 90.25 89.4901 90.11C88.8201 90.31 88.3101 90.45 87.7701 90.61ZM89.5101 89.71C89.5101 89.85 89.5101 89.99 89.4901 90.11C89.5601 90.09 89.6201 90.07 89.6901 90.05C89.6301 89.94 89.5701 89.82 89.5101 89.71ZM34.2501 104.69C33.8901 103.34 32.6401 103.14 31.5501 102.77C30.5901 102.44 29.6201 102.12 28.6601 101.78C29.4501 103.12 30.3001 104.43 31.1901 105.7C31.6001 105.63 32.0001 105.49 32.4101 105.2C32.5601 105.38 32.6801 105.65 32.8501 105.69C33.2601 105.8 33.7501 105.93 34.1001 105.79C34.2801 105.71 34.3401 105.04 34.2501 104.69ZM27.9701 99.84C27.8801 99.91 27.7901 99.98 27.6901 100.05C27.7301 100.12 27.7701 100.2 27.8101 100.28C27.9201 100.2 28.0101 100.13 28.1101 100.04C28.0601 99.97 28.0101 99.9 27.9601 99.84H27.9701ZM26.5501 93.93C25.5501 91.15 24.2001 88.48 23.4301 85.65C22.5501 82.41 21.9701 79.09 21.3301 75.79C21.5001 84.16 23.5901 92.06 27.1701 99.07C27.4101 99 27.6901 98.95 28.0601 98.9C27.5601 97.22 27.1401 95.54 26.5501 93.93ZM123.25 105.83C123.27 105.89 123.3 105.94 123.32 105.98V105.86C123.32 105.86 123.27 105.84 123.25 105.83ZM123.33 105.99C123.33 106.22 123.35 106.45 123.36 106.68C123.46 106.66 123.55 106.65 123.65 106.63C123.58 106.48 123.5 106.33 123.33 105.99Z" fill="#CFE8D7"/>
<path d="M93.3403 24.21C87.6203 22.13 81.4403 20.99 75.0003 20.99C68.5603 20.99 62.3803 22.12 56.6603 24.21C40.1703 30.2 27.4603 44.05 23.0303 61.22C23.5103 61.2 23.9903 61.19 24.4703 61.18C24.6603 61.18 24.9703 61.51 25.0103 61.73C25.3603 63.99 25.9703 66.15 26.6903 68.33C27.3703 70.41 27.4003 72.69 27.7303 74.89C28.1003 77.33 28.4103 79.79 28.9303 82.2C29.4703 84.73 30.1603 87.24 30.8803 89.73C31.1903 90.83 31.7003 91.86 32.1703 92.92C31.6603 90.99 32.9903 89.83 34.0403 88.64C34.9903 87.57 36.1703 86.69 37.3303 85.83C38.6703 84.86 40.1103 84.03 41.4803 83.11C41.9803 82.78 42.4003 82.34 42.8903 82C43.2603 81.75 43.6803 81.58 44.1803 81.32C44.1603 81.27 44.1303 81.07 44.2103 81.02C44.6003 80.79 45.0503 80.47 45.4603 80.49C46.1503 80.53 46.8403 80.81 47.7103 81.04C47.3403 81.52 46.9803 82.01 46.6203 82.48C46.7903 82.46 47.0703 82.41 47.3903 82.37C46.8403 83.41 46.5203 84.62 45.7403 85.29C44.9603 85.96 44.8603 87.07 43.7903 87.55C43.1503 87.84 42.9203 88.95 42.3603 89.55C40.8303 91.22 39.2903 92.9 37.6103 94.41C36.7103 95.22 35.9203 95.97 35.7503 97.24C35.6603 97.84 35.3603 98.41 35.1603 99.02C35.5103 99.22 35.8503 99.41 36.3303 99.68C36.2403 99.36 36.2003 99.14 36.1203 98.94C35.4303 97.26 36.3603 95.32 37.9803 94.58C38.9303 94.15 39.7403 93.37 40.6003 92.73C40.8303 92.56 41.0203 92.18 41.2403 92.18C42.2403 92.18 42.5903 91.39 43.1503 90.82C43.6203 90.33 44.3103 90.03 44.7303 89.5C45.4503 88.59 46.0503 87.57 46.6403 86.68C47.2803 86.44 47.9403 86.18 48.6403 85.91C49.0603 86.43 48.9803 86.84 48.2403 88.31C48.4803 87.87 48.7103 87.42 49.0103 86.84C49.4803 88.79 49.3203 89.32 47.9003 90.41C48.3003 90.34 48.5703 90.3 48.8703 90.24C49.4503 91.18 47.9103 90.96 48.0603 91.61C48.3903 91.52 48.7203 91.42 49.2403 91.28C48.9103 91.81 48.7003 92.14 48.4703 92.53C48.7803 92.5 49.0503 92.47 49.4003 92.43C49.1503 93.07 48.9203 93.64 48.6703 94.28C48.7803 94.23 48.9203 94.17 49.0903 94.11C49.6403 95.84 48.3203 96.94 47.8703 98.33C48.2703 98.48 48.7203 98.75 48.2003 99.4C47.8903 99.79 47.5503 100.14 47.0703 100.68C47.5403 100.65 47.7503 100.63 48.1603 100.6C47.9603 100.84 47.8803 100.96 47.7903 101.03C46.7603 101.76 45.6503 102.41 44.7003 103.24C44.1503 103.73 43.8203 104.42 43.0103 104.66C42.7803 104.73 42.7003 105.31 42.5403 105.7C42.7703 105.67 42.9003 105.65 43.0403 105.64C43.0603 105.73 43.1003 105.82 43.1303 105.91C41.9503 106.33 40.7703 106.77 39.6003 107.19C39.6203 107.26 39.6403 107.33 39.6703 107.39C40.9203 106.95 42.1603 106.5 43.4803 106.03C43.4803 106.06 43.5503 106.33 43.5603 106.39C44.4503 105.98 45.4003 105.55 46.3503 105.11C46.4103 105.2 46.4603 105.28 46.5203 105.36C45.8203 105.94 45.1203 106.51 44.4203 107.09C45.5803 106.18 47.3203 106.02 47.8203 104.24C47.9503 103.78 48.6903 103.5 49.2903 103.31C49.0803 103.77 48.8603 104.21 48.6503 104.66C48.7103 104.69 48.7703 104.73 48.8303 104.76C48.9803 104.52 49.1503 104.28 49.3003 104.04C49.3803 104.1 49.4603 104.16 49.5403 104.22C49.7803 104 50.0303 103.78 50.3903 103.45C49.9303 105.03 49.5303 106.42 49.1303 107.81C49.1903 107.83 49.2403 107.84 49.2803 107.86C49.3603 107.57 49.4703 107.28 49.5203 106.99C49.6403 106.26 50.4203 105.72 50.1503 104.87C50.5203 104.83 50.8703 104.78 51.5003 104.71C51.0203 105.15 50.7803 105.38 50.5303 105.61C50.5603 105.64 50.6003 105.68 50.6303 105.72C51.1403 105.42 51.6603 105.12 52.2703 104.75C52.0503 104.51 51.8603 104.3 51.5803 103.99C51.7103 103.67 51.9103 103.15 52.1303 102.64C52.0503 102.61 51.9703 102.57 51.8903 102.54C52.1403 102.32 52.3903 102.11 52.7003 101.83C52.8803 102.19 53.0303 102.48 53.1603 102.73C53.5703 102.85 53.9403 102.97 54.3103 103.09C54.3303 103.04 54.3503 103 54.3803 102.95C54.0403 102.82 53.7003 102.68 53.2503 102.5C53.4303 102.16 53.6703 101.72 53.9103 101.27C53.9903 101.3 54.0703 101.34 54.1503 101.38C54.0903 101.64 54.0403 101.9 53.9903 102.16C54.6503 101.25 55.2603 100.34 56.5703 100.8C56.6803 100.53 56.8103 100.24 56.9403 99.94C57.0103 99.94 57.0703 99.96 57.1403 99.97C57.1803 100.14 57.2103 100.3 57.2503 100.52C57.3303 100.37 57.4203 100.21 57.5003 100.06C57.8703 100.76 57.6303 101.37 57.1403 101.83C56.6503 102.29 56.4203 103.02 55.9603 103.51C55.5103 103.99 54.9103 104.32 54.4003 104.82C54.8703 104.5 55.3103 104.02 55.6203 104.82C54.8103 105.21 53.9903 105.6 53.1903 105.99C53.2303 106.06 53.2703 106.14 53.3003 106.22C53.5103 106.08 53.7203 105.94 53.9403 105.81C54.0803 106.07 54.3703 106.36 54.3303 106.58C54.2803 106.86 53.9903 107.16 53.7303 107.3C53.4003 107.48 52.9903 107.52 52.6103 107.62C52.6303 107.71 52.6603 107.8 52.6803 107.89C52.9003 107.81 53.1203 107.74 53.3403 107.65L53.5403 107.85C52.6903 108.09 53.2903 109.45 52.0703 109.41C52.0003 109.52 51.9503 109.64 51.8803 109.75C52.1903 109.72 52.5003 109.68 52.8403 109.65C52.7903 109.87 52.7403 110.07 52.6403 110.48C52.9803 110.23 53.1503 110.1 53.3503 109.95C53.4303 110.15 53.4903 110.29 53.5503 110.43C53.5803 110.43 53.6203 110.43 53.6603 110.43C53.6403 110.23 53.6403 110.01 53.6203 109.85C54.0103 109.39 54.6503 110.81 54.8803 109.61C54.4503 109.56 54.0103 109.5 53.5803 109.46C54.0003 108.84 54.1603 107.98 55.0103 108.6C55.0803 108.65 55.5203 108.36 55.5603 108.19C55.7403 107.16 56.3403 106.94 57.2503 107.2C57.0603 107.61 56.8803 108.02 56.6903 108.43C57.0703 108.72 57.4503 109.02 57.8203 109.31C58.0603 109.29 58.3103 109.26 58.5403 109.24C58.5403 109.16 58.5403 109.09 58.5603 109C58.3303 108.9 58.1003 108.8 57.9103 108.71C58.1303 108.36 58.3403 108.03 58.5503 107.68C58.3703 107.86 58.2003 108.03 57.9703 108.25C57.5503 107.65 57.4103 107.18 58.0203 106.5C58.5103 105.97 58.7003 105.16 59.0103 104.48C59.1903 104.54 59.4203 104.6 59.6503 104.68C59.5403 104.5 59.4503 104.33 59.3403 104.15C59.5803 104.05 59.8103 103.95 60.0503 103.85C59.9303 103.75 59.7803 103.66 59.6303 103.58C59.3503 103.41 59.1003 103.24 59.0803 103.04C59.0403 102.67 59.4603 102.26 59.6903 101.86C59.8103 101.91 59.9403 101.95 60.0703 102C59.9503 102.43 59.8303 102.87 59.6303 103.58C60.0403 103.01 60.2903 102.64 60.6303 102.17C60.6903 102.48 60.7203 102.66 60.7503 102.84C60.9803 102.6 61.2103 102.34 61.4403 102.1C61.5503 101.86 61.6603 101.6 61.7403 101.4C62.2903 101.47 62.7503 101.53 63.5103 101.64C63.0503 102.1 62.6503 102.5 62.2603 102.9C62.1803 103.03 62.1003 103.16 62.0203 103.27C63.6203 103.57 64.0803 102.46 64.4003 101.29C65.0003 101.23 65.5803 101.42 65.3303 100.43C65.2203 100.01 65.8303 99.42 66.0403 98.85C66.1603 98.65 66.2603 98.43 66.4103 98.27C66.5603 98.1 66.8603 98.02 66.9203 97.84C67.3903 96.63 67.7303 95.35 68.8303 94.48C68.9903 94.36 68.8303 93.88 68.9403 93.6C69.1803 92.96 69.3403 92.09 69.8303 91.8C70.4203 91.44 70.6003 91.02 70.7803 90.48C70.9003 90.13 71.0403 89.78 71.3703 89.48C71.4803 89.91 71.5903 90.34 71.7003 90.77C71.8503 90.77 72.0003 90.77 72.1503 90.79C71.4903 88.96 72.6003 87.58 73.0803 86.04C72.9803 85.84 72.7703 85.61 72.8103 85.45C73.0203 84.62 73.3003 83.81 73.5703 82.97C73.7303 83.04 73.8703 83.09 73.9603 83.12C73.7003 84.08 73.4403 85.02 73.1903 85.95C73.8003 86.5 73.6803 87.67 72.9603 88.34C72.7703 88.52 72.6403 88.76 72.6003 89.06C73.0103 88.57 73.4103 88.07 73.8103 87.58C73.5703 88.35 73.8803 89.21 73.1303 89.87C72.6903 90.25 72.5803 91.04 72.3903 91.67C72.2403 92.17 72.4603 92.74 71.5403 92.89C71.1603 92.95 70.9103 93.96 70.5803 94.6C70.4703 94.44 70.3703 94.3 70.3703 94.3C69.9103 95.07 69.4303 95.86 68.9403 96.65C68.8803 96.73 68.6503 96.78 68.6503 96.82C69.0103 98.91 66.9003 99.83 66.3803 101.54C66.1503 102.31 65.2203 102.87 64.6103 103.54C64.3703 103.81 64.1603 104.11 63.9303 104.4C63.8703 104.82 63.8103 105.24 63.7403 105.65C64.0703 105.58 64.4103 105.5 64.7303 105.42C64.4403 104.63 64.6903 104.38 66.0103 104.07C66.3203 105.4 65.1803 105.96 64.5603 106.8C64.8503 106.53 65.1403 106.24 65.4603 106C65.9403 105.66 66.4403 105.41 66.6803 104.76C66.8803 104.2 67.3403 103.72 67.7103 103.22C67.8303 103.05 68.0303 102.93 68.2003 102.79C68.5403 102.5 68.9903 102.28 69.2003 101.91C69.5403 101.32 69.9003 100.97 70.6203 101.1C70.7303 101.12 70.8903 101.02 70.9603 100.93C71.4903 100.25 72.0503 99.74 72.9603 99.5C73.5403 99.35 73.9603 98.64 74.5403 98.1C74.2703 97.97 74.0803 97.87 73.8503 97.76C74.0103 97.28 74.1703 96.82 74.3103 96.35C74.6203 96.38 74.8903 96.41 75.2103 96.45C75.2403 96.72 75.2803 97.04 75.3303 97.5C75.9303 95.82 76.1503 94.09 77.9103 93.09C77.8403 92.89 77.6903 92.64 77.7303 92.6C79.3403 91.13 79.5403 88.8 81.0803 87.25C80.9303 87.21 80.8003 87.17 80.6203 87.12C80.9503 86.62 81.2603 86.12 81.6403 85.52C81.7303 85.83 81.7903 86.02 81.8503 86.21L82.0203 86.23C82.4603 83.74 82.9003 81.25 83.3603 78.71C83.5103 78.74 83.6903 78.78 83.8703 78.83C83.2403 77.67 83.3703 77.15 84.4503 76.47C84.8103 76.24 85.1103 75.56 84.9203 75.1C84.8003 74.8 84.4603 74.58 84.1303 74.24C84.3503 74.22 84.5003 74.2 84.6403 74.18C84.6203 74 84.4903 73.71 84.5703 73.64C85.3803 72.96 85.3003 72.16 84.9703 71.28C84.7603 70.7 84.5603 70.09 84.4803 69.48C84.3803 68.69 84.9403 68.05 85.6003 68.19C87.0103 68.48 88.1503 68.01 89.3003 67.37C89.4203 67.3 89.5903 67.3 89.7703 67.27C89.7003 67.7 89.6403 68.09 89.5503 68.61C89.3403 68.37 89.1903 68.19 88.8703 67.82C88.9403 68.33 88.9503 68.64 89.0203 68.94C89.0803 69.2 89.2903 69.47 89.2403 69.7C89.0503 70.51 88.5703 71.32 88.6103 72.11C88.6503 73 88.9403 74.01 89.4703 74.72C90.5503 76.17 90.2103 78.31 89.2303 79.61C88.4203 80.68 88.2403 81.86 88.4603 83.14C88.5303 83.57 88.5403 84.01 88.6003 84.69C88.7503 83.99 89.7703 83.59 88.4503 82.91C89.4503 81.17 90.4603 79.42 91.5803 77.48V79.91C91.6503 79.91 91.7203 79.93 91.7903 79.93C91.8403 79.73 91.9003 79.53 91.9503 79.29C92.0403 79.39 92.0803 79.42 92.1103 79.48C93.2403 81.41 93.3203 81.32 91.0703 82.53C90.4103 82.88 89.8603 83.19 89.5803 83.96C89.4003 84.42 88.8203 84.73 88.4903 85.16C88.3403 85.35 88.2603 85.69 88.3203 85.92C88.6003 87.02 88.4003 87.85 87.0503 88.14C87.1203 88.21 87.2003 88.27 87.2703 88.33C87.6403 88.14 88.0303 87.95 88.5203 87.7C88.8903 88.38 89.2303 89.04 89.5703 89.67C89.5703 89.53 89.5703 89.38 89.5703 89.26C89.5703 88.72 89.5303 88.18 89.5203 87.87C90.3703 87.5 91.0203 87.22 91.8703 86.84H90.2303C89.8003 86.95 89.0603 87.21 89.0003 87.11C88.7503 86.64 88.6803 86.06 88.5403 85.52C88.6503 85.45 88.7403 85.37 88.8503 85.3C89.2203 85.63 89.5803 85.98 89.9503 86.31C90.2803 85.76 89.6903 85.31 89.7403 84.7C89.7903 84.02 90.0803 83.85 90.4503 83.65C91.1003 83.28 91.8003 83.01 92.4803 82.7C93.5603 82.21 93.7103 81.76 93.4103 80.53C93.1303 79.45 92.7503 78.39 92.4803 77.31C92.4003 76.96 92.4803 76.56 92.5503 76.19C92.6503 75.67 92.7903 75.16 92.9503 74.46C93.1803 74.95 93.3503 75.31 93.5403 75.71C93.5903 75.43 93.6303 75.19 93.6703 74.94C94.2003 76.25 94.5303 77.64 96.1303 78.42C95.3203 77 94.6103 75.74 93.7403 74.22C93.9403 73.76 94.2903 72.95 94.7703 71.84C94.9103 72.58 95.0003 73.06 95.1003 73.6C96.0003 75.01 98.1003 75.5 98.5403 77.66C98.3503 77.62 98.1603 77.57 97.6903 77.46C99.2003 78.58 97.3703 79.06 97.5303 80C97.7703 79.71 97.9903 79.47 98.2503 79.16C98.4303 80.32 98.6903 81.38 97.8403 82.31C98.4803 81.67 99.1103 81.02 99.7503 80.37C100.88 81.27 99.9703 81.75 99.5303 82.2C99.0203 82.72 98.3703 83.1 97.9703 83.41C98.8003 84 99.6503 84.6 100.58 85.26V84.45C100.58 84.45 100.58 84.42 100.58 84.41V82.71C101.44 82.82 101.69 83.07 101.43 83.74C101.23 84.24 101.27 84.88 100.97 85.29C100.45 86 99.7503 86.58 99.1803 87.16C98.7803 87.06 98.4803 86.98 98.1903 86.91C98.1403 86.98 98.1003 87.04 98.0603 87.11C98.6203 87.53 99.2303 87.92 98.4103 88.64C98.3003 88.74 98.5303 89.37 98.7403 89.67C98.9203 89.93 99.2803 90.06 99.6403 90.3V89.14C100.17 89.25 100.73 89.38 101.29 89.51C101.36 89.53 101.45 89.64 101.46 89.71C101.46 89.78 101.39 89.89 101.32 89.93C100.17 90.58 99.0003 90.88 97.7203 90.21C98.3703 90.56 99.0103 90.92 99.5803 91.23C99.9703 91.07 100.32 90.93 100.75 90.75C100.93 91.85 101.11 92.88 101.3 93.97C100.97 94.06 100.62 94.16 100.22 94.27C99.8503 93.44 99.5003 92.63 99.1403 91.83C99.2003 91.81 99.2603 91.77 99.3303 91.74C99.0803 91.59 98.8303 91.44 98.6103 91.31C98.5103 91.98 98.4103 92.64 98.3103 93.31C98.3103 93.31 98.4403 93.22 98.6203 93.11V95.72C98.5503 95.7 98.4903 95.7 98.4203 95.68C98.7903 96.22 99.1403 96.75 99.6203 97.43C99.2003 97.38 99.0103 97.36 98.7103 97.32C98.8203 97.51 98.9003 97.66 99.0003 97.78C99.1303 97.95 99.2903 98.1 99.4303 98.25C99.2503 98.36 99.0903 98.54 98.9003 98.58C98.4603 98.68 98.0903 99.17 98.3703 99.48C98.6603 99.8 98.5703 100.47 99.3503 100.42C99.5903 100.4 99.8803 101.1 100.12 101.48C100.27 101.71 100.3 102.1 100.49 102.2C101.78 102.89 102.08 104.3 102.84 105.38C103.33 106.07 103.7 106.85 104.26 107.84C104.26 106.57 104.45 105.52 104.19 104.59C104.04 104.02 103.95 103.47 103.83 102.9C103.44 100.93 102.94 98.97 102.36 97.05C102.16 96.4 101.91 95.69 101.15 95.29C100.61 95.01 100.82 94.52 101.53 94.22C101.77 94.59 102.01 94.98 102.25 95.36C102.34 95.34 102.43 95.34 102.51 95.32C102.57 94.85 102.62 94.37 102.69 93.7C102.91 94.04 103.04 94.24 103.25 94.56C103.08 93.71 102.96 93 102.79 92.31C102.74 92.11 102.64 91.88 102.49 91.76C101.85 91.25 101.81 90.78 102.3 90.2C102.12 89.93 101.95 89.71 101.84 89.47C101.73 89.25 101.67 89.01 101.64 88.76C101.62 88.56 101.66 88.34 101.69 88.12C101.89 88.19 102.08 88.27 102.28 88.36C101.98 87.68 101.66 86.96 101.35 86.26C101.63 85.69 102.02 85.14 102.14 84.53C102.24 84.03 102.01 83.46 101.95 82.92C101.93 82.8 102.04 82.66 102.08 82.52C102.21 82.11 102.34 81.7 102.49 81.23C102.58 81.34 102.78 81.5 102.91 81.7C103.44 82.56 103.6 82.56 104.11 81.67C104.18 81.71 104.25 81.75 104.31 81.79C103.79 82.6 103.26 83.41 102.8 84.13C103.09 84.33 103.46 84.45 103.55 84.68C104.14 86.08 104.66 87.51 105.19 88.93C105.52 89.82 105.83 90.72 106.16 91.68C105.93 91.63 105.8 91.61 105.66 91.57C105.66 91.63 105.68 91.68 105.7 91.72C105.9 92.27 106.14 92.79 106.32 93.35C106.56 94.06 106.75 94.78 106.96 95.49C107.14 96.16 107.27 96.83 107.49 97.49C107.75 98.28 108.11 99.04 108.38 99.83C108.8 101.09 109.19 102.36 109.59 103.63C109.81 104.34 109.9 105.12 110.24 105.76C111.07 107.35 110.79 109.09 111.11 110.75C111.27 111.61 111.28 112.5 111.49 113.37C111.35 111.4 111.2 109.43 111.06 107.46C110.98 106.25 110.9 105.06 110.85 103.85C110.77 101.66 110.79 99.46 110.63 97.28C110.54 96.13 110.16 95.02 109.91 93.88C109.8 93.33 109.71 92.79 109.6 92.16C109.07 93.28 109.57 94.17 110.04 95.03C110.28 95.47 110.56 95.79 110.07 96.28C109.93 96.43 110.14 96.92 110.18 97.26C110.25 97.72 110.33 98.17 110.43 98.77C109.83 98.53 109.69 97.36 108.93 98.29C108.17 95.93 107.39 93.66 106.74 91.35C106.29 89.77 106.06 88.13 105.67 86.53C105.48 85.77 105.19 85.03 104.87 84.31C104.78 84.12 104.41 84.07 104.03 83.87C104.17 83.58 104.42 83.06 104.72 82.44C105.76 83.05 106.75 83.86 107.87 84.23C108.93 84.59 109.08 85.31 109.33 86.15C109.46 86.61 109.79 87.01 109.96 87.47C110.23 88.22 110.42 88.99 110.68 89.75C110.73 89.9 110.89 90.11 110.99 90.11C111.86 90.04 112.06 90.61 112.17 91.28C112.59 93.94 113.07 96.6 113.4 99.27C113.73 102.06 113.93 104.86 114.14 107.66C114.22 108.67 114.16 109.69 114.16 110.71C114.25 110.71 114.35 110.71 114.44 110.69C114.27 107.9 114.1 105.11 113.92 102.33C113.85 101.29 113.85 100.24 113.71 99.2C113.34 96.42 113.1 93.61 112.46 90.9C112.13 89.45 112.44 88.15 112.44 86.78C112.44 85.92 112.46 85.07 112.44 84.21C112.44 83.61 112.4 83 112.42 82.41C112.42 82.04 112.51 81.68 112.58 81.11C112.73 81.31 112.9 81.5 113.04 81.71C114.52 84.02 115.46 86.51 115.65 89.28C115.74 90.44 116.07 91.58 116.24 92.73C116.32 93.33 116.45 93.64 117.12 93.28C117.2 93.23 117.42 93.43 117.56 93.49C117.23 93.82 116.95 94.13 116.66 94.42C116.71 94.47 116.76 94.53 116.81 94.57C116.96 94.46 117.11 94.34 117.45 94.09C117.64 94.68 117.82 95.22 117.96 95.76C117.96 95.78 117.66 95.87 117.66 95.87C118.36 98.95 119.3 102.01 119.15 105.2C119.11 106.08 118.98 106.97 118.74 107.86C118.82 107.86 118.91 107.88 119 107.89C119.37 106.51 119.75 105.13 120.11 103.75C120.15 103.62 120.18 103.5 120.22 103.37C120.26 103.37 120.29 103.37 120.33 103.37V103.41C120.33 103.7 120.33 104.01 120.33 104.31C121.14 103.11 121.38 102.75 121.23 101.96C121.16 101.63 121.03 101.22 120.85 100.63C120.33 98.99 119.78 97.35 119.26 95.7C119.16 95.41 119.13 95.11 119.05 94.69C120.26 95.04 121.22 95.52 121.63 96.6C122 97.55 122.33 98.53 122.6 99.52C126.53 92.06 128.75 83.57 128.75 74.55C128.75 51.35 114.03 31.58 93.4203 24.09L93.3403 24.21ZM88.2203 39.57C88.2403 39.98 88.1503 40.39 88.1103 40.91C87.6603 40.38 87.3003 39.96 86.9403 39.53C86.9003 39.56 86.8603 39.6 86.8203 39.63C87.2403 40.31 87.6503 40.97 88.2003 41.85C87.2803 41.6 86.4603 41.78 86.0703 40.88C86.0503 40.81 85.5703 40.83 85.5503 40.9C85.2503 41.67 84.8403 41.19 84.4103 41.06C82.9603 40.65 81.5203 40.24 80.0503 39.96C78.1103 39.59 76.1703 39.25 74.2103 39.1C72.7403 38.98 71.2503 39.14 69.7803 39.23C69.1903 39.26 68.5903 39.44 68.0003 39.52C67.8703 39.54 67.7103 39.36 67.4303 39.18C67.9303 39.12 68.2503 39.08 68.5803 39.04C68.5803 39 68.5803 38.96 68.5803 38.93H67.5903C69.3203 37.46 71.4603 37.44 73.4503 36.84C72.8403 36.84 72.1103 37.05 71.6503 36.79C70.9803 36.42 70.6103 37.13 69.9403 36.98C70.3803 36.56 70.3703 35.85 71.3103 36.16C71.7703 36.31 72.4403 35.83 72.9803 35.43C72.3403 35.56 71.6903 35.69 71.1703 35.8C71.2103 35.33 71.2603 34.8 71.3103 34.27C71.4103 34.12 71.9403 34.07 71.4503 33.71C70.7303 33.89 70.0803 34.05 69.3703 34.24C69.4203 33.34 69.9703 32.91 70.6203 32.6C71.1503 32.34 71.6903 32.1 72.2603 31.94C72.5903 31.86 72.9603 31.97 73.3303 32.18C73.8103 31.9 74.3003 31.63 74.7803 31.35C74.4303 31.29 74.0603 31.28 73.7503 31.15C73.6503 31.11 73.7103 30.7 73.7003 30.47C74.6903 30.59 74.1603 29.63 74.5003 29.36C74.9203 29.01 75.4903 28.8 76.0303 28.62C76.3203 28.52 76.6703 28.62 77.0603 28.64C76.9703 28.83 76.8903 29.01 76.8303 29.14C77.3303 29.23 77.8003 29.31 78.4103 29.43C78.8703 29.01 79.4803 28.54 80.0703 29.53H80.8403C80.6203 29.4 80.4103 29.28 80.2003 29.15C80.2403 29.04 80.2703 28.92 80.3103 28.81C80.8603 28.95 81.4003 29.1 82.0503 29.26C81.8703 29.12 81.7403 29.02 81.6003 28.92C81.6003 28.85 81.6003 28.77 81.6003 28.68C81.9003 28.7 82.3703 28.61 82.4703 28.77C82.6703 29.06 83.8103 28.47 82.9203 29.79C84.5103 28.63 85.2903 29.79 86.2303 30.34C86.8003 30.67 87.4803 30.89 87.2203 31.9C87.1103 32.34 87.6503 32.91 87.8203 33.45C88.1203 34.41 88.3803 35.38 88.6303 36.36C88.6903 36.62 88.7003 37 88.5603 37.2C87.9903 37.96 88.1903 38.78 88.2403 39.61L88.2203 39.57ZM85.6403 26.68C85.4003 26.39 85.0603 26.21 84.7203 25.95C85.0503 25.65 85.3103 25.42 85.5903 25.16C87.2103 25.52 87.9603 27.34 87.9803 29.14C87.4203 28.69 86.7903 28.2 86.1603 27.69C85.9203 27.81 85.6203 28.08 85.4603 28.02C84.8003 27.75 84.1703 27.38 83.4603 27.01C84.5803 26.15 84.7403 26.18 85.5903 27.12C85.7403 27.28 85.9003 27.43 86.0603 27.58C85.9203 27.28 85.8403 26.93 85.6303 26.68H85.6403ZM87.9603 31.85C87.8903 31.8 87.8203 31.75 87.7603 31.7C87.9003 31.01 88.1003 30.32 88.1603 29.62C88.2103 28.91 88.1103 28.19 88.0703 27.35C88.7503 27.85 89.4003 28.24 89.9303 28.75C90.5203 29.3 90.5003 29.99 89.8503 30.51C89.2603 31 88.6003 31.41 87.9603 31.85ZM47.5503 80.69C46.9703 80.62 46.2203 80.53 45.4803 80.43V80.13C46.3803 79.72 47.2703 79.32 48.1803 78.92C48.0203 79.39 47.8303 79.91 47.5503 80.7V80.69ZM48.4303 85.45C47.9703 86 47.4503 86.36 46.6703 85.77C47.1303 85.2 47.5803 84.63 48.0503 84.04C47.8103 84.08 47.5503 84.11 47.1903 84.16C47.5403 83.7 47.8003 83.34 48.0703 82.98C48.7903 83.94 48.9303 84.84 48.4303 85.45ZM48.3503 82.31C48.8503 81.45 49.4903 80.86 50.5803 80.93C49.7603 81.24 49.7403 82.82 48.3503 82.31ZM49.1803 78.11C49.6203 76.76 49.7903 75.43 51.3103 74.95C51.3803 75.05 51.4803 75.21 51.6803 75.51C49.9003 75.43 50.5403 77.55 49.1803 78.11ZM52.2203 101.23C52.9003 100.6 53.4903 100.07 54.0803 99.53C53.7903 100.82 53.2003 101.36 52.2203 101.23ZM54.3903 100.2C55.1603 99.17 55.8203 98.27 56.6303 97.19C56.6003 97.51 56.6103 97.62 56.5803 97.71C56.5303 97.82 56.4503 97.91 56.3003 98.15C56.6803 98.08 56.9303 98.03 57.1903 97.98C56.9303 99.04 56.8203 99.12 54.3903 100.2ZM57.6903 104.03C57.6303 104.19 57.3103 104.25 57.1003 104.36C57.0503 104.29 57.0103 104.22 56.9603 104.16C56.6403 104.44 56.3203 104.71 55.8903 105.09C55.7703 103.69 57.1003 102.43 57.9303 102.75C57.8603 103.21 57.8303 103.65 57.6803 104.04L57.6903 104.03ZM60.1203 99.31C59.8603 99.53 59.6103 99.76 59.3503 99.98C59.5003 100.52 59.6603 101.05 59.8703 101.79C58.9903 101.59 58.4403 101.46 57.9903 101.35C58.4803 100.86 58.8603 100.47 59.2503 100.08C58.8303 100.17 58.4203 100.27 57.9703 100.37V99.52C58.2103 99.32 58.4303 99.13 58.7103 98.9C58.9103 99.33 59.7403 98.35 60.0103 99.22C59.7603 98.22 59.9903 97.77 61.1903 97.55C60.8303 98.14 60.4703 98.73 60.1203 99.32V99.31ZM62.0703 100.6C62.4803 99.97 62.8803 99.34 63.2903 98.71C63.3703 98.73 63.4503 98.75 63.5303 98.77C63.4203 99.59 63.1203 100.31 62.0703 100.6ZM63.4803 94.67C63.2703 94.49 63.1003 94.34 62.9303 94.21C62.8103 94.49 62.6903 94.77 62.5103 95.16C62.1803 94.33 62.6603 93.49 63.6203 92.96C63.5803 93.51 63.5403 94.04 63.4903 94.67H63.4803ZM64.9403 97.63C65.5503 96.63 66.0103 95.87 66.5703 94.94C66.6503 95.55 66.7203 96.01 66.7803 96.48C66.2103 96.83 65.6703 97.17 64.9403 97.63ZM66.9703 77.2C66.8803 78.14 66.6803 79.1 66.3903 80C66.0303 81.11 65.5803 82.19 65.0903 83.25C64.6703 84.15 64.0903 84.97 63.7003 85.87C63.5303 86.27 63.6803 86.79 63.5403 87.06C63.3603 87.22 63.0303 87.39 63.0303 87.55C63.0503 88.29 62.7003 88.67 62.0703 89.02C61.7703 89.19 61.7203 89.8 61.5503 90.21C61.4003 90.57 61.2503 90.91 61.1003 91.26C61.2003 92.15 60.6803 92.69 60.0703 93.2C59.8703 93.37 59.7403 93.63 59.5803 93.86C60.6003 94.46 59.8603 94.38 59.3503 94.69C58.5003 95.2 57.8103 95.95 56.9603 96.51C57.8303 95.69 57.8803 94.09 59.4703 93.94C58.8003 93.74 58.7803 93.73 59.1603 93.27C59.7503 92.55 60.3903 91.85 61.0003 91.15C61.0703 90.65 61.0703 90.12 61.2003 89.64C61.3803 88.96 61.4003 88.99 60.8703 88.43C60.7303 88.28 60.6503 88.02 60.6603 87.82C60.6803 87.13 60.5803 86.35 60.8603 85.76C61.2303 84.94 61.1603 83.76 62.4303 83.38C62.1103 84.56 61.8203 85.65 61.5503 86.63C62.2203 86.48 62.1703 86.46 62.3603 85.56C62.5603 84.65 62.7503 83.71 63.1503 82.88C63.5703 81.97 63.8603 81.03 64.1403 80.08C64.2503 79.84 64.3803 79.59 64.5003 79.35C64.5203 78.72 64.5303 78.09 64.5703 77.24C64.8803 77.61 64.9803 77.71 65.0803 77.83C65.4703 77.32 64.5303 76.49 65.5703 76.23C65.5103 75.86 65.4603 75.5 65.3803 74.94C65.5003 74.8 65.7803 74.48 66.0203 74.22C66.3103 74.48 66.5703 74.7 66.8303 74.92C66.9003 75.69 67.0603 76.45 66.9903 77.2H66.9703ZM58.7103 91.69C59.1103 90.91 58.3103 89.68 60.0103 89.23C59.6503 90.19 59.3503 91.01 59.0503 91.81C58.9403 91.77 58.8203 91.73 58.7103 91.69ZM61.5903 83.07C61.8603 82.6 62.1203 82.12 62.4903 81.46C62.7103 81.96 62.8503 82.28 63.0403 82.71C62.5503 82.92 62.1703 83.08 61.7903 83.26C61.7203 83.2 61.6603 83.14 61.5903 83.07ZM66.4703 74.54C66.7803 73.2 67.0503 72.02 67.3503 70.72C68.2903 72.86 68.0403 74.12 66.4703 74.54ZM68.4303 71.12C67.6203 70.5 67.7803 69.16 68.4303 68.69V71.12ZM70.0603 88.75C69.9203 88.72 69.7203 88.6 69.7003 88.5C69.6403 88.12 69.5203 87.67 69.6603 87.36C69.8603 86.93 70.2903 86.6 70.5303 86.33C70.6403 86.62 70.8203 87.05 70.9803 87.5C71.0903 87.83 70.3803 88.82 70.0603 88.75ZM72.1303 82.5C72.1303 82.5 72.1903 82.5 72.2103 82.5C72.1703 82.84 72.1303 83.18 72.0903 83.53C71.9703 83.51 71.8503 83.5 71.7303 83.48C70.9303 82.01 72.4403 80.94 72.5203 79.62C72.6503 79.65 72.7903 79.69 72.9203 79.72C72.6603 80.65 72.4003 81.58 72.1303 82.51V82.5ZM71.6703 59.49C70.9503 59.49 70.2103 59.47 69.5103 59.59C69.2703 59.63 69.0903 60.06 68.8403 60.36C68.5803 60.06 67.9703 59.66 68.0103 59.33C68.0703 58.76 68.5403 58.25 68.8403 57.71H69.0803C69.0503 58.17 69.0103 58.64 68.9703 59.28C70.9503 57.59 73.1803 57.77 75.5603 58.25C75.7403 58.74 75.6003 59.36 74.8903 59.45C73.8303 59.58 72.7403 59.48 71.6703 59.5V59.49ZM74.4703 55.11C74.0303 55.61 73.7303 56.27 73.3503 56.32C72.9303 56.38 72.3403 55.95 72.0403 55.56C71.8903 55.36 72.2403 54.79 72.3703 54.33C70.7236 54.2633 69.8536 54.1267 69.7603 53.92C70.4403 53.76 71.1403 53.5 71.8703 53.42C72.6403 53.33 73.4303 53.4 74.2203 53.4C74.2603 53.52 74.2903 53.65 74.3303 53.77C74.0403 53.94 73.7403 54.1 73.3903 54.3C73.6403 54.49 73.9903 54.75 74.4703 55.1V55.11ZM75.1703 65.34C75.3403 65.26 75.5003 65.15 75.6703 65.1C76.3103 64.88 76.5903 65.35 76.5303 65.78C76.4503 66.37 76.1703 66.96 75.8603 67.48C75.7503 67.66 75.2803 67.71 75.0103 67.66C74.8703 67.63 74.8003 67.24 74.6903 67.02C74.6003 66.81 74.5103 66.59 74.4303 66.37C74.3503 66.37 74.2803 66.35 74.1903 66.34C74.3203 65.89 74.4503 65.44 74.5803 65C74.6403 65.02 74.7003 65.02 74.7703 65.04C74.8103 65.35 74.8503 65.65 74.8903 66.01C75.1803 65.86 75.4403 65.72 75.6803 65.59C75.5103 65.51 75.3303 65.43 75.1503 65.34H75.1703ZM73.7003 71.37C73.5903 71.3 73.4803 71.23 73.3703 71.17C73.7603 70.41 74.1403 69.66 74.5503 68.85C74.5003 68.83 74.3603 68.8 74.0203 68.71C74.4303 68.4 74.7003 68.19 75.0803 67.9V68.89C75.2803 68.59 75.3903 68.44 75.5203 68.25C75.5603 68.39 75.6203 68.47 75.5903 68.5C74.9603 69.46 74.3303 70.41 73.6903 71.37H73.7003ZM74.9503 75.87C75.2703 77.71 75.1903 79.27 74.5903 80.89C74.4603 80.55 74.2103 80.2 74.2103 79.86C74.2103 78.6 73.9703 77.27 74.9503 75.88V75.87ZM75.8803 86.94C75.1803 86.26 75.0803 85.51 75.5503 84.83C75.9003 84.31 76.1903 83.75 76.5103 83.21C76.6003 83.23 76.7003 83.27 76.7903 83.3C76.4903 84.51 76.1903 85.73 75.8903 86.94H75.8803ZM76.5203 82.45C76.4503 82.69 76.0603 82.84 75.8203 83.03C75.6403 83.23 75.4503 83.43 75.2703 83.64C75.1703 83.76 75.0603 83.91 75.0603 84.05C75.0403 84.71 75.1303 85.39 75.0103 86.02C74.9203 86.53 74.5903 87.01 74.2903 87.48C74.1803 86.08 74.3203 84.7 74.8603 83.41C74.9603 83.17 75.4103 83.09 75.7103 82.94C75.7603 82.54 75.5603 82.03 76.2203 81.89C76.3303 81.87 76.4103 81.58 76.4403 81.4C76.5303 80.94 76.5903 80.46 76.6503 80C76.7603 80.02 76.8803 80.04 76.9903 80.06C76.8403 80.87 76.7303 81.68 76.5103 82.46L76.5203 82.45ZM84.1203 65.71C83.9603 65.71 83.7003 65.56 83.6303 65.42C83.3603 64.78 84.0503 63.41 84.7403 63.13C84.8103 63.5 84.8903 63.86 84.9503 64.2C84.6503 64.35 84.3303 64.53 83.9203 64.74C84.2403 65 84.4203 65.16 84.6603 65.36C84.4603 65.51 84.2903 65.7 84.1103 65.71H84.1203ZM88.0503 67.87C88.0303 67.77 88.0103 67.68 87.9803 67.58C87.5203 67.6 87.0603 67.64 86.6003 67.66C86.0303 67.69 85.4603 67.73 84.6503 67.77C85.5603 65.94 87.7403 65.58 87.8703 63.61C88.6803 64.08 88.6803 64.5 88.1403 65.09C88.4303 65.3 88.8603 65.46 89.0203 65.76C89.5403 66.82 88.7303 67.33 88.0503 67.87ZM90.8003 75.63C90.5103 73.99 90.2203 72.33 89.9303 70.69C90.0803 70.67 90.2203 70.64 90.3603 70.62C90.6303 72.27 90.9003 73.92 91.1703 75.57C91.0503 75.59 90.9303 75.61 90.8003 75.64V75.63ZM91.7903 67.82C92.0303 68.72 92.2503 69.49 92.4703 70.27C91.2803 69.61 91.2103 69.28 91.7903 67.82ZM93.6503 73.15C93.6203 73.05 93.5403 72.95 93.5503 72.86C93.6603 71.38 93.0503 70.11 92.4903 68.79C92.1903 68.07 92.1703 67.22 92.0003 66.32C93.4103 66.64 93.6903 67.08 93.4703 68.25C93.4503 68.38 93.5803 68.54 93.6103 68.68C93.7803 69.51 93.9503 70.34 94.1003 71.04C94.1303 70.91 94.2203 70.56 94.3703 69.96C95.0903 71.39 94.0903 72.17 93.6503 73.14V73.15ZM100.52 78.48C100.3 78.98 100.28 79.57 100.18 80.12C100.06 80.1 99.9403 80.09 99.8103 80.07C99.9403 78.58 100.08 77.1 100.23 75.49C101.09 76.74 101.09 77.22 100.52 78.48ZM103.17 57.13C101.44 59.61 98.8203 60.76 96.2203 61.96C96.2003 61.96 96.1503 61.94 96.1303 61.96C95.2803 62.5 94.5503 62.64 94.2003 61.42C94.3503 62.67 95.1903 63.57 95.8003 64.6C96.0403 64.99 95.9903 65.53 96.1003 65.99C96.2803 66.71 96.3003 66.69 97.0403 67.2C97.2103 67.32 97.2403 67.64 97.3703 67.85C97.7103 68.45 98.0503 69.04 98.4503 69.72H97.6703C98.3503 70.3 99.4503 70.44 99.0903 71.69C98.9303 71.42 98.8003 71.21 98.6303 70.92V72.35C98.1203 72.02 97.7603 71.8 97.3403 71.54C97.7003 72.26 98.0203 72.9 98.3303 73.54C98.2703 73.61 98.2203 73.66 98.1603 73.73C97.5103 73.11 96.3803 72.55 96.3003 71.87C96.1603 70.61 95.6003 69.39 95.8303 68.08C96.0003 67.15 95.5503 66.49 94.7103 66.08C94.5203 65.99 94.4803 65.6 94.3203 65.22C94.2303 65.59 94.2403 65.95 94.0703 66.14C93.9003 66.32 93.5503 66.33 93.1603 66.34C93.8703 65.7 93.8403 65.12 93.4003 64.4C93.2403 64.13 93.5103 63.62 93.5303 63.21C93.5703 62.53 93.5503 61.85 93.6003 61.17C93.6003 61.07 93.8103 60.99 93.9303 60.9C93.5703 60.06 93.2203 59.22 92.8903 58.44C92.6803 58.81 92.4603 59.18 92.2003 59.64C92.2503 59.71 92.4403 59.88 92.4403 60.04C92.4403 60.24 92.2603 60.42 92.1603 60.61C92.0503 60.46 91.8403 60.32 91.8303 60.15C91.8003 59.51 91.8103 58.86 91.8103 58.37C91.3803 58.53 91.0003 58.68 90.6103 58.83C90.5403 58.68 90.4803 58.54 90.4203 58.4C90.9903 58.11 91.5703 57.81 92.1503 57.51C92.0769 57.3367 91.6003 57.43 90.7203 57.79C90.8403 56.98 90.9503 56.24 91.0803 55.36C91.4903 55.83 91.7903 56.19 92.1503 56.62C92.3003 56.2 92.3903 55.93 92.4803 55.67C92.6803 55.71 92.8503 55.75 93.0303 55.79C91.2103 55.07 91.4803 53.14 90.6903 51.82C90.8603 52.46 91.0203 53.11 91.1903 53.75C91.1103 53.77 91.0303 53.8 90.9503 53.83C90.5603 53.03 90.1603 52.23 89.7103 51.32C89.6103 51.59 89.5503 51.76 89.4903 51.93C89.4403 51.93 89.4003 51.91 89.3603 51.91V50.75C89.0503 50.53 88.6203 50.22 88.0903 49.84C88.6303 50.76 89.0303 51.59 88.6803 52.63C88.5703 52.94 88.8903 53.4 88.9903 53.79C89.0603 54.08 89.1203 54.38 89.1103 54.67C89.1103 55.34 88.9603 56.01 89.0203 56.67C89.1603 58.01 88.9503 59.21 87.8403 60.17C87.7303 60 87.5903 59.78 87.4203 59.53C87.3703 59.63 87.3003 59.71 87.3103 59.77C87.3503 59.95 87.4403 60.12 87.4803 60.29C87.5503 60.56 87.5903 60.84 87.6503 61.1C87.4003 60.95 87.1403 60.81 86.8803 60.66C86.7703 60.59 86.6703 60.51 86.5503 60.45C86.1303 60.18 85.6903 59.91 85.1803 59.59C85.2003 59.76 85.2103 59.98 85.2303 60.22C84.7303 60.16 84.0003 59.68 84.0803 60.79C83.8203 60.72 83.5803 60.66 83.1803 60.55C83.3403 60.85 83.4303 61.01 83.5203 61.19C83.2003 61.19 82.8203 61.27 82.5803 61.13C82.3403 60.99 82.2203 60.62 82.0603 60.35C82.3803 60.28 81.9803 59.45 82.6803 59.76C82.7203 59.78 82.8303 59.59 82.9303 59.52C83.1503 59.32 83.0603 58.54 83.7003 59.1C83.7403 59.1 84.0703 58.77 84.2503 58.59C84.6203 58.21 85.2203 57.91 84.3403 57.34C84.0503 57.14 83.4503 56.57 84.1003 55.98C83.4203 56.02 82.8403 55.33 82.8603 54.69C82.8903 53.88 82.8903 53.05 82.7703 52.25C82.7003 51.84 82.3203 51.48 82.0603 51.07C81.1803 50.59 80.2703 50 79.2703 49.58C78.2503 49.16 77.1603 48.91 76.0903 48.59C75.3303 49.53 75.1203 50.58 75.2603 51.79C74.8503 51.29 74.4503 50.78 74.0403 50.27C74.0003 50.29 73.9603 50.32 73.9103 50.34C74.4503 51.41 74.9803 52.49 75.5103 53.56C75.4303 53.63 75.3603 53.71 75.2703 53.78C75.0503 53.68 74.6403 53.59 74.6303 53.49C74.5803 52.5 73.5803 52.37 73.1203 51.76C72.6703 51.17 72.0903 50.68 71.6303 50.08C71.5003 49.92 71.5303 49.53 71.6303 49.31C71.9203 48.55 71.6703 48.1 70.7603 47.93C70.7403 46.95 71.4303 46.71 72.3403 46.49C72.0203 46.14 71.7603 45.84 71.4803 45.53C70.3203 46.88 68.9203 45.95 67.7103 46.15C67.7903 46.56 67.8603 46.96 67.9503 47.36C69.7603 46.94 69.6403 47.36 70.2103 48.57C70.5303 49.25 70.0503 49.48 69.6103 49.51C69.0703 49.55 68.5203 49.36 67.9703 49.29C67.4003 49.23 66.8303 49.22 66.2203 49.18C66.1303 48.35 66.4403 47.97 67.8503 47.45C67.4703 47.38 67.0903 47.31 66.8003 47.26C66.6803 47.46 66.5703 47.77 66.3603 47.97C65.4103 48.83 65.4203 50.03 65.3203 51.12C65.2103 52.24 65.4203 53.38 65.4603 54.52C65.4803 54.76 65.3603 55 65.3103 55.24C65.1103 56.02 64.9003 56.81 64.6503 57.79C64.4503 57.79 64.0503 57.77 63.6503 57.79C62.7603 57.84 62.4503 58.21 62.5303 59.08C62.5703 59.64 61.4503 61.42 60.9303 61.43C60.4503 61.43 59.9703 61.19 59.4603 61.04C59.6103 60.67 59.7203 60.41 59.8303 60.18C59.5003 60.35 59.1903 60.64 58.8703 60.64C58.4503 60.64 57.9703 60.51 57.6403 60.27C57.4503 60.13 57.5003 59.67 57.4703 59.45C57.0603 60.15 56.4403 59.89 55.7403 59.49C53.7503 58.33 51.6203 57.36 49.7603 56.01C47.5803 54.42 46.2303 52.08 45.7103 49.43C45.1803 46.72 47.6703 43.67 50.3703 43.53C51.9103 43.45 53.4603 43.61 55.0003 43.49C58.0503 43.25 61.0803 42.8 64.1203 42.59C66.9103 42.4 69.7203 42.27 72.5203 42.7C73.3903 42.84 74.2803 42.88 75.1703 42.93C77.6403 43.06 80.1103 43.22 82.5903 43.3C84.5803 43.36 86.5603 43.27 88.5503 43.34C89.8203 43.38 91.0803 43.61 92.3503 43.74C93.5803 43.87 94.8703 43.78 96.0103 44.18C97.0003 44.54 98.2703 44.33 98.9703 45.43C99.0803 45.59 99.3303 45.67 99.5203 45.78C100.92 46.58 102.35 47.34 103.72 48.17C104.07 48.38 104.38 48.82 104.5 49.21C105.36 52.06 104.89 54.68 103.18 57.14L103.17 57.13ZM107.31 81.4C107.06 80.89 106.89 80.24 106.48 79.82C105.96 79.27 106.11 78.35 105.34 78C105.32 78 105.55 77.61 105.53 77.41C105.49 77.02 105.35 76.63 105.25 76.25C105.52 76.15 105.77 76.05 106.15 75.91C106.92 77.63 107.71 79.35 108.49 81.09C108.04 81.2 107.66 81.3 107.31 81.4ZM111.56 85.19C111.54 85.88 111.36 86.57 111.25 87.25C110.6 85.45 109.92 83.6 109.25 81.74C108.6 79.91 107.44 78.22 107.36 76.22C107.46 76.2 107.56 76.18 107.65 76.15C108.41 77.12 109.16 78.1 109.92 79.06C110.73 80.07 111.22 81.2 111.23 82.51C111.23 82.74 111.16 83.01 111.27 83.17C111.73 83.8 111.58 84.51 111.55 85.18L111.56 85.19Z" fill="#CFE8D7"/>
<path d="M64.4603 106.93C64.1303 107.37 63.8203 107.8 63.4703 108.26C63.0903 108.06 62.7903 107.91 62.5703 107.8C62.7503 107.57 62.9503 107.32 63.2803 106.9C62.5203 106.84 61.9403 106.8 61.0703 106.75C61.4203 106.38 61.7203 106.13 61.9303 105.82C62.1203 105.55 62.2203 105.21 62.3503 104.9C62.2803 104.85 62.2003 104.79 62.1303 104.74C61.8003 105.03 61.4803 105.3 61.1903 105.55C60.9303 104.81 61.1303 104.55 62.0003 104.42C62.3103 104.37 62.5803 104.07 62.9003 103.86C63.1503 104.02 63.5103 104.25 63.8603 104.48C63.8003 104.9 63.7403 105.32 63.6703 105.73C62.6803 105.88 63.2503 106.44 63.3403 107C63.5803 106.76 63.7303 106.59 63.8903 106.42C64.0903 106.62 64.2603 106.77 64.4403 106.94L64.4603 106.93Z" fill="#CFE8D7"/>
<path d="M57.7499 109.36C56.7799 109.24 56.2799 109.73 55.9399 110.59C55.8099 110.92 55.3499 111.12 54.9399 111.24C55.4999 110.54 56.0599 109.84 56.7499 108.97H55.7099C56.0099 108.81 56.3199 108.64 56.6199 108.48C56.9999 108.77 57.3799 109.07 57.7499 109.36Z" fill="#CFE8D7"/>
<path d="M61.23 103.33C61.32 103.48 61.41 103.62 61.51 103.78C61.19 103.45 61.01 104.86 60.52 103.91C60.58 103.57 60.63 103.23 60.7 102.9C60.93 102.66 61.16 102.4 61.39 102.16C61.63 102.4 61.87 102.63 62.11 102.87C61.82 103.02 61.52 103.18 61.23 103.33Z" fill="#CFE8D7"/>
<path d="M52.01 109.44C51.94 109.55 51.89 109.67 51.82 109.78C51.71 109.78 51.61 109.76 51.5 109.76C51.87 108.88 51.4 108.79 50.7 108.89C50.64 108.89 50.57 108.76 50.5 108.69C51.3067 108.657 51.8067 108.91 52 109.45L52.01 109.44Z" fill="#CFE8D7"/>
<path d="M64.2101 80.42C64.1801 80.31 64.1401 80.22 64.1001 80.11C64.2101 79.87 64.3401 79.62 64.4601 79.38C64.6701 79.09 64.8901 78.79 65.0701 78.55C65.2401 79.25 64.9001 80.06 64.2101 80.42Z" fill="#CFE8D7"/>
<path d="M36.9903 110.46C36.7003 110.24 36.4503 110.05 36.1503 109.82C35.9703 110.37 35.7903 110.93 35.6803 111.25C35.0503 111.19 34.5103 110.97 34.3203 111.14C33.5203 111.86 32.5403 111.58 31.6503 111.78C30.7703 111.99 30.0003 112.7 28.9803 112.36C28.5703 112.22 28.1203 112.18 27.5203 112.06C27.5403 112.02 27.4403 112.19 27.3003 112.4C27.2003 112.23 27.1103 112.09 27.0903 112.05C26.7303 112.27 26.3803 112.48 25.9003 112.76C26.2403 112.91 26.5803 113.05 26.9603 113.21C26.8903 113.35 26.8103 113.54 26.7503 113.66C28.0703 113.6 29.3603 113.52 30.6403 113.48C32.7403 113.43 34.5103 112.52 36.1803 111.38C36.7703 110.98 37.1303 111.27 37.2703 111.74C37.3503 112.02 37.1403 112.51 36.9003 112.73C36.6803 112.94 36.2403 112.91 35.7103 113.03C35.9803 113.28 36.1603 113.44 36.4103 113.67C35.5103 114.07 34.6403 114.5 33.7403 114.83C32.8503 115.15 31.9303 115.44 31.0003 115.6C30.5503 115.68 30.0503 115.4 29.5603 115.37C29.2703 115.35 28.9603 115.5 28.6803 115.69C26.0303 114.85 25.3403 113.99 25.6903 112.41C25.4003 111.95 25.0303 111.62 25.0803 111.38C25.1603 111.02 25.4703 110.56 25.7903 110.44C26.2203 110.27 26.7603 110.4 27.2503 110.38C28.5603 110.32 29.8703 110.29 31.1703 110.15C32.8703 109.97 34.4803 109.47 36.0103 108.67C36.2903 108.52 36.9603 108.69 37.1903 108.95C37.5603 109.36 37.5703 109.94 36.9603 110.41L36.9903 110.46Z" fill="#CFE8D7"/>
<path d="M35.7701 105.07C34.3701 104.12 33.9101 102.81 34.0901 101.27C34.1101 101.07 34.3201 100.81 34.5001 100.74C34.9301 100.57 35.4001 100.49 35.9201 100.17C35.2201 99.94 34.5201 99.7 33.8901 99.5C35.1001 98.9 38.2001 101.37 38.4401 103.26C38.2401 102.96 38.0401 102.65 37.7401 102.19C37.7401 103.13 37.9901 104.03 37.6601 104.54C37.3901 104.96 36.4101 104.92 35.7701 105.08V105.07Z" fill="#CFE8D7"/>
<path d="M92.1603 96.15C92.3203 95.05 92.4303 94.31 92.5803 93.27C93.9903 92.33 92.0703 90.36 93.4203 89.19C93.4503 89.24 93.6203 89.46 93.8303 89.74C93.9903 89.13 94.1303 88.58 94.3303 87.83C94.5803 88.13 94.7503 88.28 94.8303 88.47C94.8503 88.52 94.5903 88.67 94.5103 88.8C94.4103 88.96 94.2903 89.16 94.3003 89.33C94.4003 90.36 94.1703 91.24 93.6003 92.16C93.1403 92.91 93.1603 93.96 92.9403 94.88C92.5803 96.37 92.2003 97.85 91.7003 99.31C91.7703 98.77 91.7703 98.21 91.9403 97.71C92.1903 96.99 92.5303 96.35 91.4103 96.06C91.2603 96.02 91.1403 95.57 91.1303 95.3C91.0403 93.73 90.9803 92.15 90.9303 90.58C90.9103 89.91 90.9303 89.24 90.9303 88.57C91.0303 88.57 91.1303 88.57 91.2303 88.57C91.2303 90.35 91.2203 92.13 91.2303 93.92C91.2303 94.39 91.3003 94.87 91.4403 95.31C91.5203 95.56 91.8003 95.75 92.1603 96.16V96.15Z" fill="#CFE8D7"/>
<path d="M99.0103 121.91C97.2203 115.09 94.6403 108.53 91.7603 102.09C95.5603 108.18 97.6403 114.91 99.0103 121.91Z" fill="#CFE8D7"/>
<path d="M103.15 117.42C102.79 116.73 102.4 116.06 102.06 115.36C101.1 113.36 100.15 111.35 99.2003 109.35C98.6103 108.11 98.0503 106.86 97.4203 105.64C97.2703 105.35 96.8803 105.19 96.6603 104.92C96.4903 104.72 96.3903 104.46 96.3103 104.21C96.2003 103.89 96.1503 103.55 96.0703 103.21C96.1003 103.21 96.1903 103.15 96.2103 103.17C97.3003 104.31 98.6003 105.19 99.1503 106.88C100.11 109.85 101.37 112.73 102.52 115.64C102.75 116.22 103.04 116.77 103.3 117.33C103.25 117.36 103.21 117.39 103.16 117.42H103.15Z" fill="#CFE8D7"/>
<path d="M89.6099 102.39C89.8999 102.72 90.2299 103.1 90.5699 103.48C90.6199 103.45 90.6799 103.42 90.7299 103.4L90.5599 102.54C91.6799 106.8 91.5999 111.2 91.9899 115.54C91.7899 114.31 91.5399 113.09 91.3899 111.86C91.2399 110.57 91.2499 109.26 91.0699 107.97C90.9299 107.01 90.6099 106.07 90.3599 105.13C90.1199 104.22 89.8599 103.3 89.6099 102.41V102.39Z" fill="#CFE8D7"/>
<path d="M90.7298 101.89H89.3698C88.6898 98.48 88.2898 95.05 88.9298 91.5C88.9298 93.71 88.9298 95.83 88.9298 97.95C88.9298 98.79 89.1998 99.46 90.1598 100.01C90.0998 99.42 90.0498 99.01 90.0098 98.61C90.0498 98.6 90.0898 98.59 90.1298 98.58C90.3398 99.28 90.5498 99.99 90.7798 100.74C90.8698 100.72 91.0198 100.7 91.1398 100.68C90.9898 101.12 90.8498 101.53 90.7298 101.9V101.89Z" fill="#CFE8D7"/>
<path d="M35.29 108.12C35.45 107.6 35.62 107.07 35.78 106.55C35.92 106.55 36.06 106.55 36.2 106.56C36.26 106.91 36.46 107.3 36.36 107.6C36.26 107.91 35.88 108.12 35.62 108.38C35.51 108.29 35.4 108.21 35.3 108.12H35.29Z" fill="#CFE8D7"/>
<path d="M122.86 106.86C123.19 107 123.33 107.07 123.47 107.11C123.61 107.15 123.77 107.16 123.84 107.17C123.91 107.57 123.97 107.93 124.04 108.32C123.9 108.24 123.73 108.14 123.43 107.96C123.48 108.35 123.52 108.59 123.55 108.84C123.49 108.86 123.43 108.88 123.38 108.89C123.22 108.5 123.07 108.12 122.91 107.73C123.03 107.75 123.22 107.77 123.58 107.82C123.33 107.48 123.16 107.24 122.86 106.84V106.86Z" fill="#CFE8D7"/>
<path d="M62.6901 109.58C62.2201 109.63 61.8501 109.69 61.4801 109.69C61.3901 109.69 61.2601 109.52 61.2101 109.4C61.1901 109.33 61.3201 109.12 61.3601 109.13C61.9701 109.23 61.9401 108.79 62.0501 108.41C62.0901 108.26 62.3601 108.18 62.5701 108.13C62.2234 108.617 62.2634 109.1 62.6901 109.58Z" fill="#CFE8D7"/>
<path d="M45.5998 101.44C45.1898 101.9 44.8798 102.25 44.5898 102.59C44.5898 101.37 44.9598 100.8 46.0898 100.5C45.8498 100.66 45.5998 100.81 45.3898 100.99C45.1898 101.16 45.0298 101.38 44.9698 101.72C45.1298 101.65 45.2998 101.58 45.5998 101.44Z" fill="#CFE8D7"/>
<path d="M58.53 107.7C58.57 107.52 58.6 107.34 58.66 107.03C58.83 107.27 58.94 107.41 59.1 107.64C59.32 107.24 59.5 106.93 59.68 106.61C59.75 106.65 59.83 106.69 59.9 106.73C59.6 107.32 59.31 107.91 58.99 108.53C58.76 108.13 58.64 107.91 58.52 107.69V107.7H58.53Z" fill="#CFE8D7"/>
<path d="M70.02 93.55C70.57 92.89 71.11 92.23 71.57 91.69C71.59 91.89 71.0734 92.51 70.02 93.55Z" fill="#CFE8D7"/>
<path d="M25.5901 116.29C25.0901 115.54 24.5801 114.79 24.0801 114.04C24.1201 114.02 24.1601 113.99 24.2001 113.97C24.5001 114.33 24.8101 114.69 25.0901 115.07C25.3401 115.42 25.5501 115.81 25.7701 116.18L25.6001 116.29H25.5901Z" fill="#CFE8D7"/>
<path d="M86.2099 56.57C86.0299 55.99 85.8499 55.41 85.6499 54.75C85.9199 54.73 86.2099 54.71 86.3999 54.69C86.5599 55.21 86.6999 55.65 86.8299 56.09C86.6999 56.19 86.4899 56.35 86.2099 56.57Z" fill="#CFE8D7"/>
<path d="M76.0903 46.55C75.6003 46.69 75.1103 46.82 74.4703 47C74.4503 46.94 74.3903 46.75 74.3203 46.55L76.1003 46.38C76.1003 46.44 76.1003 46.5 76.1003 46.56L76.0903 46.55Z" fill="#CFE8D7"/>
<path d="M76.1899 31.16C77.4399 30.64 78.6799 30.13 79.9299 29.61C79.8399 29.76 79.7399 29.91 79.5799 30.16C79.8199 30.23 80.0599 30.3 80.2799 30.36C79.9499 30.53 79.5899 30.71 79.0899 30.96C79.3299 30.71 79.4499 30.57 79.5899 30.42C78.7499 30.1733 78.2699 30.3567 78.1499 30.97C77.6699 31.04 77.2699 31.12 76.8599 31.16C76.6399 31.18 76.4199 31.16 76.1899 31.15V31.16Z" fill="#CFE8D7"/>
</g>
<defs>
<clipPath id="clip0_71_1707">
<rect width="150" height="150" fill="white"/>
</clipPath>
</defs>
</svg>
