<svg width="41" height="41" viewBox="0 0 41 41" fill="none" xmlns="http://www.w3.org/2000/svg">
<path d="M6.53785 36.8552C7.07083 36.8929 7.60381 36.9582 8.13967 36.9607C13.9564 36.9682 19.7731 36.9381 25.5898 36.9783C27.3328 36.9908 28.6119 36.5087 29.4532 35.1251C29.9631 34.289 32.1152 33.9249 33.0429 34.4396C33.8179 34.8665 33.5931 35.5093 33.3771 36.0718C32.4523 38.4673 30.522 39.9463 27.7332 40.5615C27.1023 40.6996 26.431 40.7473 25.777 40.7498C19.9229 40.7624 14.0716 40.7775 8.21746 40.7448C4.27052 40.7222 1.24837 38.633 0.453217 35.3988C0.257311 34.5978 0.231382 33.7516 0.231382 32.928C0.214096 24.7973 0.216977 16.6691 0.216977 8.54091C0.216977 6.65513 0.257311 4.78191 1.53359 3.1171C2.99136 1.21877 4.9994 0.226911 7.60669 0.221889C13.8238 0.204312 20.0439 0.204312 26.2639 0.219378C29.8219 0.226911 32.5531 2.0926 33.4837 5.09579C33.7746 6.03491 33.4664 6.47434 32.3831 6.67271C30.7093 6.97906 29.9804 6.738 29.1103 5.41469C28.4794 4.45548 27.6036 3.99847 26.3475 4.00098C20.1303 4.01354 13.9103 4.01103 7.69312 4.01856C7.56348 4.01856 7.43383 4.07129 6.99016 4.16671C8.8167 5.01292 10.3321 5.89932 11.9944 6.44672C16.0854 7.79765 17.7362 10.2032 17.4741 14.0476C17.1802 18.3691 17.3415 22.7182 17.4424 27.0522C17.4971 29.405 16.4513 31.0899 14.1955 32.3027C11.8014 33.5909 9.43323 34.9142 7.05642 36.2275C6.85187 36.3405 6.67037 36.4836 6.47735 36.6142C6.49751 36.6945 6.52056 36.7774 6.54073 36.8577L6.53785 36.8552Z" fill="white"/>
<path d="M32.8734 18.3691C31.9544 17.5605 30.9921 16.7871 30.1365 15.9283C29.7187 15.509 29.0964 14.6929 29.2693 14.4719C29.8599 13.7136 30.7357 13.1135 31.5712 12.5259C31.698 12.4355 32.2713 12.6715 32.5017 12.8749C35.1407 15.1725 37.7509 17.4927 40.3726 19.8054C40.9142 20.2825 40.9027 20.7545 40.3697 21.2166C37.7278 23.5141 35.086 25.8067 32.4412 28.0993C31.9054 28.5638 31.358 28.5588 30.7962 28.1319C30.6867 28.0491 30.5686 27.9712 30.4591 27.8858C28.7421 26.555 28.7305 26.2587 30.3208 24.85C31.0901 24.1695 31.8593 23.4865 32.6228 22.801C32.666 22.7608 32.666 22.683 32.7265 22.4896C32.3202 22.462 31.9457 22.4143 31.5683 22.4118C29.3356 22.4043 27.1057 22.4143 24.8729 22.4043C23.3316 22.3967 23.0377 22.1356 22.9715 20.7897C22.9599 20.5662 22.9628 20.3427 22.9772 20.1192C23.0493 18.8763 23.3085 18.6202 24.7548 18.6126C27.1691 18.6001 29.5833 18.6428 31.9976 18.6578C32.2367 18.6578 32.4787 18.6327 32.7178 18.6176C32.7697 18.5323 32.8215 18.4494 32.8763 18.364L32.8734 18.3691Z" fill="white"/>
</svg>
