<svg width="372" height="372" viewBox="0 0 372 372" fill="none" xmlns="http://www.w3.org/2000/svg">
<g clip-path="url(#clip0_23_23)">
<path d="M372 185.992C372 191.711 371.736 197.364 371.226 202.951C370.583 210.186 369.512 217.29 368.061 224.261C367.715 225.893 367.353 227.525 366.974 229.14C366.726 230.162 366.479 231.184 366.215 232.189C366.067 232.782 365.902 233.376 365.737 233.969C365.293 235.699 364.815 237.413 364.304 239.111C364.089 239.836 363.875 240.578 363.644 241.303C363.414 242.045 363.183 242.77 362.936 243.512C362.705 244.22 362.474 244.929 362.227 245.638C362.161 245.868 362.079 246.116 361.98 246.346V246.379C361.551 247.632 361.106 248.868 360.645 250.104C360.398 250.796 360.151 251.472 359.887 252.148C359.096 254.241 358.255 256.334 357.382 258.394C356.228 261.147 354.992 263.866 353.69 266.552C352.339 269.371 350.921 272.156 349.405 274.892C349.076 275.518 348.746 276.128 348.4 276.738C348.054 277.348 347.708 277.958 347.362 278.567C345.862 281.171 344.313 283.726 342.698 286.248C341.89 287.5 341.066 288.753 340.226 289.989C339.814 290.615 339.401 291.225 338.973 291.835L337.688 293.664C336.814 294.884 335.941 296.087 335.051 297.274C334.26 298.328 333.452 299.383 332.644 300.422C332.496 300.636 332.331 300.834 332.167 301.031C331.293 302.119 330.403 303.223 329.53 304.311C328.953 305.003 328.392 305.679 327.799 306.355C326.843 307.509 325.887 308.613 324.899 309.701C324.503 310.162 324.091 310.607 323.679 311.052C321.668 313.261 319.625 315.403 317.515 317.513C315.406 319.622 313.263 321.666 311.055 323.677C309.951 324.682 308.846 325.655 307.726 326.643C306.589 327.616 305.451 328.572 304.314 329.528C303.309 330.368 302.287 331.159 301.265 331.983C300.82 332.346 300.392 332.692 299.947 333.022C299.073 333.73 298.184 334.39 297.294 335.049C296.107 335.939 294.904 336.812 293.684 337.686C291.839 339.004 289.96 340.29 288.064 341.526C287.471 341.922 286.861 342.301 286.268 342.696C285.016 343.504 283.747 344.295 282.461 345.07C280.764 346.108 279.05 347.13 277.303 348.102C276.693 348.432 276.083 348.761 275.49 349.091C275.391 349.173 275.292 349.223 275.193 349.272C274.929 349.421 274.682 349.552 274.419 349.684C274.386 349.717 274.353 349.734 274.32 349.734C273.71 350.063 273.117 350.393 272.507 350.706C271.913 351.036 271.304 351.349 270.694 351.646C268.024 353.03 265.305 354.332 262.569 355.568C261.877 355.881 261.185 356.194 260.492 356.491C259.8 356.788 259.108 357.084 258.416 357.381C257.724 357.678 257.031 357.974 256.323 358.255C255.977 358.403 255.631 358.551 255.268 358.683C253.521 359.392 251.758 360.068 249.978 360.71C248.626 361.205 247.275 361.683 245.907 362.144C245.792 362.194 245.676 362.227 245.561 362.26C244.16 362.737 242.743 363.199 241.325 363.644C238.804 364.435 236.266 365.16 233.695 365.836C233.102 366.001 232.508 366.149 231.915 366.297C231.783 366.33 231.668 366.363 231.536 366.38C230.399 366.677 229.245 366.957 228.092 367.22C226.015 367.698 223.922 368.16 221.796 368.555C220.626 368.803 219.439 369.017 218.236 369.215C216.951 369.445 215.649 369.66 214.347 369.857C212.814 370.088 211.265 370.302 209.716 370.5C208.496 370.665 207.293 370.797 206.073 370.929C205.167 371.028 204.244 371.126 203.338 371.192C202.744 371.242 202.168 371.308 201.574 371.357C200.75 371.423 199.926 371.489 199.102 371.539C197.553 371.654 196.004 371.736 194.455 371.802C193.449 371.835 192.46 371.868 191.455 371.901C190.714 371.934 190.005 371.951 189.263 371.967C188.192 371.984 187.121 372 186.033 372C181.484 372 176.969 371.835 172.486 371.506C171.135 371.423 169.8 371.308 168.448 371.176C168.415 371.176 168.366 371.176 168.316 371.159C167.064 371.044 165.811 370.912 164.575 370.764C164.097 370.714 163.603 370.649 163.125 370.583C162.482 370.517 161.84 370.434 161.197 370.335C160.422 370.236 159.648 370.138 158.89 370.022C158.033 369.907 157.176 369.775 156.319 369.627C155.758 369.544 155.198 369.445 154.621 369.347C153.896 369.231 153.187 369.116 152.479 368.967C152.149 368.918 151.819 368.852 151.49 368.786C151.193 368.737 150.896 368.687 150.6 368.621C149.265 368.374 147.946 368.094 146.628 367.814C145.293 367.534 143.975 367.22 142.656 366.907C139.887 366.248 137.119 365.523 134.383 364.732C133.18 364.386 131.977 364.023 130.774 363.644C129.604 363.298 128.45 362.919 127.28 362.523C126.555 362.293 125.829 362.045 125.121 361.782C124.165 361.468 123.226 361.122 122.27 360.776C120.935 360.298 119.616 359.804 118.314 359.276C116.996 358.766 115.694 358.238 114.392 357.694C113.123 357.167 111.854 356.623 110.601 356.063C109.81 355.716 109.019 355.354 108.228 354.975C107.503 354.645 106.778 354.299 106.053 353.953C105.888 353.887 105.74 353.821 105.591 353.739C104.701 353.327 103.811 352.882 102.938 352.437C101.685 351.81 100.433 351.184 99.2133 350.525C98.0267 349.899 96.8731 349.272 95.7029 348.629C95.4887 348.514 95.258 348.382 95.0272 348.25C94.1208 347.74 93.1979 347.212 92.2915 346.685C89.7699 345.201 87.2649 343.669 84.8093 342.053C83.6391 341.295 82.4855 340.537 81.3319 339.746C80.1947 338.971 79.0575 338.18 77.9204 337.356C75.6625 335.758 73.4541 334.109 71.2787 332.379C70.1745 331.522 69.1033 330.648 68.032 329.775C65.8895 328.028 63.7965 326.215 61.7364 324.353C61.1596 323.842 60.5828 323.314 60.0224 322.787H60.006C59.561 322.358 59.116 321.963 58.671 321.534C58.3744 321.287 58.0942 321.007 57.8141 320.727C57.0889 320.067 56.3967 319.375 55.6881 318.666C45.8162 308.975 37.0155 298.18 29.5004 286.478C27.2261 282.984 25.0836 279.391 23.0894 275.733C21.738 273.277 20.4361 270.805 19.2 268.299C18.4254 266.783 17.7003 265.267 16.9916 263.718V263.685C16.7609 263.19 16.5302 262.696 16.3159 262.185C16.1017 261.69 15.8709 261.18 15.6567 260.685C15.0799 259.4 14.536 258.098 14.0086 256.812C12.9209 254.208 11.9156 251.571 10.9597 248.917C10.5147 247.648 10.0698 246.379 9.64127 245.11C9.59183 244.945 9.5259 244.797 9.49294 244.649C9.37758 244.286 9.24573 243.924 9.13037 243.561C8.98205 243.083 8.81724 242.589 8.66891 242.094C8.20746 240.693 7.77896 239.276 7.38343 237.842C7.08678 236.837 6.80661 235.831 6.54292 234.826C5.68593 231.727 4.92782 228.612 4.25211 225.448C4.10379 224.789 3.95546 224.113 3.82362 223.454C3.06551 219.746 2.40629 215.988 1.89539 212.197C1.73058 211.027 1.58226 209.84 1.43393 208.654C1.35153 208.159 1.28561 207.648 1.23617 207.137C1.2032 206.907 1.18672 206.676 1.15376 206.445C1.08784 205.769 1.02192 205.094 0.955995 204.418C0.873592 203.577 0.79119 202.753 0.725267 201.913C0.445097 198.715 0.24733 195.501 0.148446 192.255C0.0990045 191.183 0.0825239 190.096 0.0660433 189.008C0.0495628 188.728 0.0495628 188.447 0.0495628 188.167C0.0495628 187.805 0.0330822 187.442 0.0330822 187.08C0.0166016 186.717 0.0166016 186.354 0.0166016 185.992C0.0166016 172.378 1.48337 159.094 4.26859 146.305C6.03202 138.163 8.32282 130.252 11.1245 122.572C15.5413 110.359 21.2106 98.7396 27.9842 87.8784C27.9842 87.8784 27.9842 87.8674 27.9842 87.8455H28.0007C37.1309 73.1936 48.1564 59.9755 60.8465 48.4057C76.3218 34.3141 94.2032 22.7937 113.799 14.553C115.463 13.8278 117.161 13.1521 118.858 12.5093C139.673 4.417 162.318 0 186 0C232.014 0 274.122 16.7121 306.589 44.4007C320.927 56.6134 333.386 70.9686 343.456 86.972C358.898 111.447 368.77 139.745 371.324 170.137C371.769 175.361 372 180.652 372 185.992Z" fill="#EF433B"/>
<path d="M142.738 207.632L200.486 266.404L284.587 200.858L259.355 192.189L196.136 218.757L91.5662 165.621L16.4806 200.133L79.6178 257.801L142.738 207.632Z" fill="#C9273E"/>
<path d="M368.061 224.261C367.715 225.893 367.352 227.525 366.973 229.14C366.726 230.162 366.479 231.184 366.215 232.189C366.067 232.782 365.902 233.376 365.737 233.969C365.292 235.699 364.814 237.413 364.304 239.111C364.089 239.836 363.875 240.578 363.644 241.303C363.414 242.045 363.183 242.77 362.936 243.512C362.705 244.22 362.474 244.929 362.227 245.638C362.161 245.868 362.079 246.116 361.98 246.346V246.379C361.551 247.632 361.106 248.868 360.645 250.104C360.398 250.796 360.15 251.472 359.887 252.148C359.096 254.241 358.255 256.334 357.382 258.394C356.228 261.147 354.992 263.866 353.69 266.552C352.339 269.371 350.921 272.156 349.405 274.892C349.076 275.518 348.746 276.128 348.4 276.738C348.054 277.348 347.708 277.958 347.362 278.567C345.878 281.171 344.329 283.726 342.698 286.248C341.89 287.5 341.066 288.753 340.225 289.989C339.813 290.615 339.401 291.225 338.973 291.835L337.687 293.664C336.814 294.884 335.94 296.087 335.051 297.274C334.259 298.328 333.452 299.383 332.644 300.422C332.496 300.636 332.331 300.834 332.166 301.031C331.293 302.119 330.403 303.223 329.53 304.311C328.953 305.003 328.392 305.679 327.799 306.355C326.843 307.509 325.887 308.613 324.898 309.701C324.503 310.162 324.091 310.607 323.679 311.052C321.701 313.261 319.641 315.42 317.515 317.513C315.422 319.622 313.263 321.682 311.055 323.677C309.951 324.682 308.846 325.654 307.726 326.643C306.589 327.616 305.451 328.572 304.314 329.528C303.309 330.368 302.287 331.159 301.265 331.983C300.82 332.346 300.392 332.692 299.947 333.022C299.073 333.73 298.183 334.39 297.293 335.049C296.107 335.939 294.904 336.812 293.684 337.686C291.838 339.004 289.96 340.29 288.064 341.526C287.471 341.922 286.861 342.301 286.268 342.696C285.015 343.504 283.746 344.295 282.461 345.069C280.763 346.108 279.049 347.13 277.302 348.102C276.693 348.432 276.083 348.761 275.49 349.091C275.391 349.173 275.292 349.223 275.193 349.272C274.929 349.421 274.682 349.552 274.418 349.684C274.385 349.717 274.352 349.734 274.32 349.734C273.71 350.063 273.116 350.393 272.507 350.706C271.913 351.036 271.304 351.349 270.694 351.646C268.024 353.03 265.305 354.332 262.569 355.568C261.877 355.881 261.184 356.194 260.492 356.491C259.8 356.788 259.108 357.084 258.416 357.381C257.724 357.678 257.031 357.974 256.323 358.255C255.977 358.403 255.631 358.551 255.268 358.683C253.521 359.392 251.758 360.067 249.978 360.71C248.626 361.205 247.275 361.683 245.907 362.144C245.792 362.194 245.676 362.227 245.561 362.26C244.16 362.737 242.743 363.199 241.325 363.644C238.804 364.435 236.266 365.16 233.695 365.836C233.102 366.001 232.508 366.149 231.915 366.297C231.783 366.33 231.668 366.363 231.536 366.38C230.399 366.676 229.245 366.957 228.091 367.22C226.015 367.698 223.922 368.16 221.796 368.555C220.626 368.803 219.439 369.017 218.236 369.215C216.951 369.445 215.649 369.66 214.347 369.857C212.814 370.088 211.265 370.302 209.716 370.5C208.496 370.665 207.293 370.797 206.073 370.929C205.167 371.028 204.244 371.126 203.338 371.192C202.744 371.242 202.167 371.308 201.574 371.357C200.75 371.423 199.926 371.489 199.102 371.538C197.553 371.654 196.004 371.736 194.455 371.802C193.449 371.835 192.46 371.868 191.455 371.901C190.713 371.934 190.005 371.951 189.263 371.967C188.192 371.983 187.121 372 186.033 372C181.484 372 176.969 371.835 172.486 371.506C171.135 371.423 169.8 371.308 168.448 371.176C168.415 371.176 168.366 371.176 168.316 371.159C167.064 371.044 165.811 370.912 164.575 370.764C164.097 370.714 163.603 370.649 163.125 370.583C162.482 370.517 161.839 370.434 161.197 370.335C160.422 370.236 159.648 370.138 158.889 370.022C158.032 369.907 157.175 369.775 156.318 369.627C155.758 369.544 155.198 369.445 154.621 369.346C153.896 369.231 153.187 369.116 152.478 368.967C152.149 368.918 151.819 368.852 151.49 368.786C151.193 368.737 150.896 368.687 150.6 368.621C149.265 368.374 147.946 368.094 146.628 367.814C145.293 367.534 143.974 367.22 142.656 366.907C139.887 366.248 137.119 365.523 134.383 364.732C133.18 364.386 131.977 364.023 130.774 363.644C129.603 363.298 128.45 362.919 127.28 362.523C126.555 362.292 125.829 362.045 125.121 361.782C124.165 361.468 123.225 361.122 122.27 360.776C120.935 360.298 119.616 359.804 118.314 359.276C116.996 358.765 115.694 358.238 114.392 357.694C113.123 357.167 111.854 356.623 110.601 356.063C109.81 355.716 109.019 355.354 108.228 354.975C107.503 354.645 106.778 354.299 106.053 353.953C105.888 353.887 105.74 353.821 105.591 353.739C104.701 353.327 103.811 352.882 102.938 352.437C101.685 351.81 100.433 351.184 99.2132 350.525C98.0266 349.898 96.8729 349.272 95.7028 348.629C95.4886 348.514 95.2578 348.382 95.0271 348.25C94.1207 347.739 93.1978 347.212 92.2913 346.685C89.7698 345.201 87.2648 343.669 84.8091 342.053C83.639 341.295 82.4854 340.537 81.3317 339.746C80.1946 338.971 79.0574 338.18 77.9202 337.356C75.6624 335.741 73.454 334.076 71.2786 332.379C70.1744 331.522 69.1031 330.648 68.0319 329.775C65.8894 328.011 63.7964 326.198 61.7363 324.352C61.1595 323.842 60.5827 323.314 60.0223 322.787H60.0058C59.5609 322.358 59.1159 321.963 58.6709 321.534C58.3907 321.27 58.0941 320.99 57.8139 320.71C57.1053 320.034 56.3966 319.359 55.6879 318.666C45.8161 308.975 37.0154 298.18 29.5003 286.478C27.2424 282.968 25.0999 279.391 23.0893 275.733C21.7379 273.277 20.4359 270.805 19.1999 268.299C18.4418 266.767 17.7002 265.25 16.9915 263.685V263.652C16.53 262.679 16.0851 261.674 15.6566 260.685C15.0797 259.4 14.5359 258.098 14.0085 256.812C12.9208 254.208 11.9155 251.571 10.9596 248.917C10.5146 247.648 10.0696 246.379 9.64115 245.11C9.5917 244.945 9.52578 244.797 9.49282 244.649C9.21265 243.808 8.93248 242.951 8.66879 242.094C8.20734 240.693 7.77884 239.276 7.38331 237.842C7.08665 236.837 6.80648 235.831 6.54279 234.826C5.6858 231.727 4.9277 228.612 4.25199 225.448C4.10367 224.789 3.95534 224.113 3.8235 223.454C3.06539 219.745 2.40616 215.988 1.89527 212.197C1.73046 211.027 1.58214 209.84 1.43381 208.654C1.35141 208.159 1.28548 207.648 1.23604 207.137C1.20308 206.907 1.1866 206.676 1.15364 206.445C1.08772 205.769 1.02179 205.094 0.955872 204.418C0.873469 203.577 0.791066 202.753 0.725144 201.913C0.444974 198.715 0.247207 195.501 0.148323 192.255C0.0988814 191.183 0.0824008 190.096 0.0659202 189.008C0.0494396 188.728 0.0494396 188.447 0.0494396 188.167C0.0494396 187.805 0.032959 187.442 0.032959 187.08V185.992C0.032959 185.695 0.0494396 185.398 0.0494396 185.102L16.4971 200.133L20.7326 204.006L59.2807 239.21L79.6342 257.801L142.755 207.632L168.036 233.359L200.503 266.404L218.055 252.725L284.603 200.858L304.166 185.613L320.811 195.683L358.799 218.641L368.078 224.261H368.061Z" fill="#821435"/>
<path d="M57.7644 323.891L59.1323 323.215C58.6873 322.803 58.2259 322.391 57.7974 321.963V323.875L57.7644 323.891Z" fill="#171B23"/>
<path d="M114.095 12.9379C114.441 12.7895 114.787 12.6577 115.15 12.5093H114.194C114.194 12.5093 114.161 12.6577 114.112 12.9379H114.095Z" fill="#171B23"/>
<path d="M192.493 1.64813C175.172 1.64813 161.147 20.5522 161.147 20.5522C161.147 20.5522 175.172 39.4563 192.493 39.4563C209.814 39.4563 223.839 20.5522 223.839 20.5522C223.839 20.5522 209.798 1.64813 192.493 1.64813ZM192.493 31.6112C192.493 31.6112 188.785 26.436 188.785 20.0413C188.785 13.6465 192.493 8.4714 192.493 8.4714C192.493 8.4714 196.201 13.6465 196.201 20.0413C196.201 26.436 192.493 31.6112 192.493 31.6112Z" fill="#171B23"/>
<path d="M122.335 12.5093L112.035 94.5534C112.035 94.5534 109.464 118.171 91.8463 119.028C81.1504 119.556 68.4109 119.44 60.0388 119.275L59.3631 180.421L58.9181 219.729L66.4992 218.674C66.4992 218.674 75.5305 212.23 75.5305 200.644H81.101C81.101 200.644 81.9744 213.532 76.816 220.833C73.4705 225.563 64.8841 233.919 59.2642 239.21C59.0664 239.391 58.8851 239.573 58.7038 239.737L57.7974 320.71C57.0723 320.067 56.3801 319.375 55.6714 318.666C45.7995 308.975 36.9989 298.18 29.4837 286.478C27.2094 282.984 25.0669 279.391 23.0728 275.733C21.7214 273.277 20.4194 270.805 19.1834 268.299C18.4088 266.783 17.6836 265.267 16.975 263.718V263.652C18.1616 244.863 19.4471 224.426 20.7161 204.006C20.8479 201.995 20.9798 200.001 21.0951 198.007C21.7708 187.195 22.4465 176.449 23.1058 165.983L4.25195 146.305C6.01538 138.163 8.30618 130.252 11.1079 122.572L24.9186 136.96C26.1217 117.891 27.16 100.932 27.9675 87.8784C27.9675 87.8784 27.9675 87.8674 27.9675 87.8455H27.984C28.017 87.2851 28.0499 86.7412 28.0829 86.1973C37.1967 71.6938 48.2222 58.5087 60.8463 47.0212V48.4057L60.2365 101.822C70.4215 102.201 89.2259 102.019 93.5603 95.8389C98.9824 88.0927 111.376 26.5844 113.782 14.553C113.914 13.8278 114.029 13.284 114.095 12.9379C114.441 12.7895 114.787 12.6577 115.133 12.5093H122.335Z" fill="#171B23"/>
<path d="M371.225 202.951L358.651 217.521C358.7 217.9 358.733 218.262 358.783 218.641C359.821 227.722 360.892 237.001 361.98 246.346V246.379C361.551 247.632 361.106 248.868 360.645 250.104C360.398 250.796 360.15 251.472 359.887 252.148C359.096 254.241 358.255 256.334 357.382 258.394C356.228 261.147 354.992 263.866 353.69 266.552C352.339 269.371 350.921 272.156 349.405 274.892C349.075 275.518 348.746 276.128 348.4 276.738C348.054 277.348 347.708 277.958 347.362 278.567C345.878 281.171 344.329 283.726 342.698 286.248C341.89 287.5 341.066 288.753 340.225 289.989C339.813 290.615 339.401 291.225 338.973 291.835L337.687 293.664C336.814 294.884 335.94 296.087 335.051 297.274C334.259 298.328 333.452 299.383 332.644 300.422C332.496 300.636 332.331 300.834 332.166 301.031C331.293 302.119 330.403 303.223 329.53 304.311C328.953 305.003 328.392 305.679 327.799 306.355L326.959 293.038C321.108 288.094 311.599 279.803 307.874 275.106C302.353 268.085 302.551 255.164 302.551 255.164L308.105 254.867C308.715 266.437 318.075 272.403 318.075 272.403L325.69 273.063L320.795 195.683L319.345 172.807C310.989 173.4 298.266 174.191 287.553 174.224C269.919 174.274 266.129 150.837 266.129 150.837L251.56 69.4358L259.701 69.0073C259.701 69.0073 278.176 142.893 284.636 151.15C289.284 157.1 308.072 156.292 318.224 155.386L306.589 44.4007C320.927 56.6134 333.386 70.9686 343.456 86.972L346.719 113.062C346.768 114.034 350.443 146.206 355.338 188.629L371.324 170.137C371.769 175.361 372 180.652 372 185.992C372 191.711 371.736 197.364 371.225 202.951Z" fill="#171B23"/>
<path d="M299.93 333.022C299.057 333.73 298.167 334.39 297.277 335.049C296.09 335.939 294.887 336.812 293.668 337.686C291.822 339.004 289.943 340.29 288.048 341.526C287.455 341.922 286.845 342.301 286.251 342.696C284.999 343.504 283.73 344.295 282.444 345.069C280.747 346.108 279.033 347.13 277.286 348.102C276.676 348.432 276.066 348.761 275.473 349.091C275.374 349.173 275.275 349.223 275.177 349.272C274.913 349.421 274.666 349.552 274.402 349.684C274.369 349.717 274.336 349.734 274.303 349.734C273.693 350.063 273.1 350.393 272.49 350.706C271.897 351.036 271.287 351.349 270.677 351.646C268.007 353.03 265.288 354.332 262.552 355.568C261.86 355.881 261.168 356.194 260.476 356.491C259.784 356.788 259.091 357.084 258.399 357.381C257.707 357.678 257.015 357.974 256.306 358.255C255.96 358.403 255.614 358.551 255.251 358.683C253.505 359.392 251.741 360.067 249.961 360.71C248.61 361.205 247.258 361.683 245.89 362.144C245.775 362.194 245.66 362.227 245.544 362.259C244.144 362.737 242.726 363.199 241.309 363.644C238.787 364.435 236.249 365.16 233.678 365.836C233.085 366.001 232.492 366.149 231.898 366.297C231.767 366.33 231.651 366.363 231.519 366.38C230.382 366.677 229.229 366.957 228.075 367.22C225.998 367.698 223.905 368.16 221.779 368.555C220.609 368.803 219.423 369.017 218.22 369.215C216.934 369.445 215.632 369.66 214.33 369.857C212.797 370.088 211.248 370.302 209.699 370.5C208.48 370.665 207.276 370.797 206.057 370.929C205.15 371.028 204.228 371.126 203.321 371.192C202.728 371.242 202.151 371.308 201.558 371.357C200.734 371.423 199.91 371.489 199.086 371.538C197.536 371.654 195.987 371.736 194.438 371.802C193.433 371.835 192.444 371.868 191.439 371.901C190.697 371.934 189.988 371.951 189.247 371.967C188.175 371.983 187.104 372 186.017 372C181.468 372 176.952 371.835 172.469 371.506C171.118 371.423 169.783 371.308 168.432 371.176C168.399 371.176 168.349 371.176 168.3 371.159C167.047 371.044 165.795 370.912 164.559 370.764C164.081 370.714 163.586 370.648 163.108 370.583C162.466 370.517 161.823 370.434 161.18 370.335C160.406 370.236 159.631 370.138 158.873 370.022C158.016 369.907 157.159 369.775 156.302 369.627C155.742 369.544 155.181 369.445 154.604 369.346C153.879 369.231 153.171 369.116 152.462 368.967C152.132 368.918 151.803 368.852 151.473 368.786C151.177 368.737 150.88 368.687 150.583 368.621C149.248 368.374 147.93 368.094 146.611 367.814C145.276 367.534 143.958 367.22 142.64 366.907C139.871 366.248 137.102 365.523 134.366 364.732C133.163 364.386 131.96 364.023 130.757 363.644C129.587 363.298 128.433 362.919 127.263 362.523C126.538 362.292 125.813 362.045 125.104 361.782C124.148 361.468 123.209 361.122 122.253 360.776C120.918 360.298 119.6 359.804 118.298 359.276C116.979 358.765 115.677 358.238 114.375 357.694C113.106 357.167 111.837 356.623 110.585 356.062C109.794 355.716 109.003 355.354 108.212 354.975C107.486 354.645 106.761 354.299 106.036 353.953C105.871 353.887 105.723 353.821 105.575 353.739C104.685 353.327 103.795 352.882 102.921 352.437C101.669 351.81 100.416 351.184 99.1967 350.525C98.0101 349.898 96.8565 349.272 95.6864 348.629C95.4721 348.514 95.2414 348.382 95.0106 348.25C94.1042 347.739 93.1813 347.212 92.2749 346.685C89.7533 345.201 87.2483 343.669 84.7927 342.053C83.6226 341.295 82.4689 340.537 81.3153 339.746C80.1781 338.971 79.0409 338.18 77.9038 337.356C75.6459 335.758 73.4375 334.109 71.2621 332.379C70.1579 331.522 69.0867 330.648 68.0154 329.775C65.873 328.028 63.7799 326.215 61.7198 324.352C61.143 323.842 60.5662 323.314 60.0059 322.787L90.4455 307.855L122.335 328.753C122.335 328.753 154.456 306.75 166.438 298.543L168.02 233.359L168.712 204.813L169.157 186.222L164.312 181.624L164.658 156.177H165.498L168.234 163.693L169.684 164.319L170.129 146.09L163.076 139.415L163.52 106.98H164.592L168.086 116.572L170.821 117.759L171.415 93.0041C157.406 90.9604 156.005 77.9896 156.005 77.9896V20.0413L158.889 24.3594C158.758 28.1171 161.493 50.1691 161.493 50.1691C163.965 66.7493 175.551 72.9958 182.621 75.2867H203.222C210.292 72.9958 221.878 66.7493 224.35 50.1691C224.35 50.1691 227.086 28.1171 226.938 24.3594L229.822 20.0413V77.9896C229.822 77.9896 228.355 91.5043 213.457 93.103L214.165 118.122L217.758 116.572L221.252 106.98H222.323L222.768 139.415L214.989 146.766L215.5 164.599L217.61 163.693L220.346 156.177H221.186L221.532 181.624L216.143 186.733L216.819 210.071L218.038 252.725L218.928 283.808L236.694 304.278L299.93 333.022Z" fill="#171B23"/>
<path d="M188.785 20.0413C188.785 26.436 192.493 31.6112 192.493 31.6112C192.493 31.6112 196.201 26.436 196.201 20.0413C196.201 13.6465 192.493 8.47137 192.493 8.47137C192.493 8.47137 188.785 13.6465 188.785 20.0413Z" fill="#EF433B"/>
</g>
<defs>
<clipPath id="clip0_23_23">
<rect width="372" height="372" fill="white"/>
</clipPath>
</defs>
</svg>
