<svg width="155" height="155" viewBox="0 0 155 155" fill="none" xmlns="http://www.w3.org/2000/svg">
<rect width="155" height="155" rx="16" fill="#EF433B"/>
<g clip-path="url(#clip0_26_287)">
<path d="M144.675 140.688V15.3121C144.675 12.5581 142.442 10.3255 139.688 10.3255L14.3121 10.3255C11.5581 10.3255 9.32555 12.5581 9.32555 15.3121V140.688C9.32555 143.442 11.5581 145.675 14.3121 145.675H139.688C142.442 145.675 144.675 143.442 144.675 140.688Z" stroke="white" stroke-width="1.5" stroke-miterlimit="10"/>
<path d="M142.066 138.075V17.9203C142.066 15.1663 139.834 12.9338 137.08 12.9338L16.9246 12.9338C14.1706 12.9338 11.9381 15.1663 11.9381 17.9203V138.075C11.9381 140.829 14.1706 143.062 16.9246 143.062H137.08C139.834 143.062 142.066 140.829 142.066 138.075Z" stroke="white" stroke-width="0.5" stroke-miterlimit="10"/>
<path d="M23.9468 75.5284C24.1074 75.5935 24.3027 75.6152 24.4198 75.7237C26.0647 77.2384 28.1088 77.9241 30.2006 78.5013C30.9037 78.6922 31.6067 78.8702 32.3706 79.0698C31.7152 77.451 31.7326 77.2687 32.6049 76.7219C31.7673 75.3548 32.0581 73.9183 32.3662 72.4601C32.5225 71.7267 32.4487 70.9455 32.5832 70.2077C32.6961 69.5784 32.6917 68.8406 33.4295 68.5585C33.3427 68.0377 33.2082 67.543 33.1908 67.0482C33.1734 66.4927 33.4425 66.1021 33.972 66.1238C33.9286 65.5336 33.7984 64.9477 33.8635 64.3792C33.9416 63.6805 34.2324 63.6023 35.2479 63.8193C35.1177 63.3376 34.9528 62.8646 34.866 62.3741C34.7141 61.5235 34.9745 60.9593 35.5864 60.6772C36.181 60.4038 36.9362 60.6252 37.4266 61.2458C37.6436 61.5192 37.8172 61.8273 38.0125 62.1311C38.5636 61.1025 38.4247 59.8917 37.6566 59.2971C37.4135 59.1105 36.9795 58.8892 36.7843 58.9847C36.5369 59.1062 36.4197 59.5315 36.2895 59.8396C36.2331 59.9698 36.2808 60.1434 36.2808 60.317C35.76 59.9351 35.6429 59.0584 35.9857 58.3467C36.3025 57.687 36.806 57.891 37.3311 58.0776C37.2964 57.5612 37.2616 57.0621 37.2226 56.563C37.1748 55.9511 37.3658 55.4563 37.93 55.1655C38.4768 54.8878 39.0106 54.9833 39.5141 55.2957C40.4775 55.8903 41.02 57.6089 40.5122 58.5594C40.4081 58.759 40.1434 58.9716 39.9437 58.9847C39.7875 58.9933 39.488 58.7112 39.475 58.542C39.4576 58.325 39.6009 58.0169 39.7788 57.878C40.3126 57.4527 40.3864 57.0143 39.935 56.5022C39.5444 56.0596 38.7676 55.8816 38.2815 56.1594C37.726 56.4719 37.4917 56.9883 37.6956 57.5785C37.9126 58.2035 38.1426 58.8675 38.5506 59.3666C41.4236 62.8949 43.5892 66.7965 44.9954 71.1234C45.0778 71.3795 45.0995 71.6572 45.0258 71.974C43.6977 67.8381 41.5538 64.1665 38.8891 60.7293C39.1105 62.3438 38.1383 63.6154 37.739 65.0432C37.5741 65.6378 37.6436 66.0761 38.0906 66.5405C40.0175 68.5368 41.684 70.7372 43.0771 73.1371C43.6326 74.0963 44.084 75.1161 44.5744 76.1143C44.6352 76.2402 44.6352 76.4008 44.518 76.6221C44.4051 76.4398 44.2663 76.2706 44.1795 76.0796C42.9556 73.4583 41.4193 71.0279 39.5184 68.8536C38.3813 67.5473 37.1011 66.3625 35.8816 65.13C35.7904 65.0345 35.6776 64.9564 35.5604 64.8913C35.1785 64.6786 34.7705 64.4616 34.4537 64.9694C34.1977 65.3774 34.3756 66.1846 34.7315 66.3972C37.0577 67.7817 38.824 69.7607 40.4341 71.8699C41.4583 73.2109 42.335 74.6691 43.2681 76.0796C43.4026 76.2879 43.4677 76.5396 43.4721 76.8347C41.6276 74.0095 39.7831 71.2015 37.3571 69.1097C36.2461 69.2486 35.287 69.3744 34.3235 69.4786C33.8852 69.5263 33.3904 69.5784 33.3818 70.1122C33.3774 70.5679 33.4425 71.067 34.0154 71.3057C37.6566 72.8116 40.4732 75.3592 42.9079 78.3798C43.4807 79.0915 44.0363 79.8163 44.5874 80.5454C44.7393 80.745 44.8522 80.9707 44.9867 81.1833C44.9346 81.2181 44.8869 81.2528 44.8348 81.2832C43.4634 79.6731 42.1527 78.0065 40.7075 76.4658C39.245 74.9078 37.5524 73.6102 35.4649 72.6467C35.7123 73.1154 35.9206 73.467 36.0855 73.8359C36.3937 74.5346 36.2591 75.2029 35.76 75.6022C35.2479 76.0145 34.6577 76.0405 34.0327 75.6022C33.5857 75.2854 33.1951 74.8861 32.7438 74.4912C32.6006 75.2073 32.6223 75.9147 32.9825 76.5787C33.0649 76.7262 33.2733 76.8217 33.4382 76.9085C34.1456 77.2774 34.8747 77.6073 35.5647 78.0022C35.7948 78.1324 35.9336 78.4145 36.1159 78.6271C36.0768 78.6749 36.0421 78.7226 36.0031 78.7704C35.8468 78.6879 35.6906 78.6011 35.53 78.5273C34.9528 78.2582 34.3843 77.9544 33.7854 77.7374C33.3774 77.5899 32.8696 77.4554 32.6917 78.089C32.5485 78.5968 32.9695 79.2347 33.4772 79.3996C34.6577 79.7902 35.8555 80.1504 37.0099 80.6105C39.3144 81.5305 41.2631 83.0278 43.1509 84.5945C44.0059 85.3063 44.8044 86.0918 45.6203 86.8469C45.7549 86.9728 45.859 87.129 45.9805 87.2722C45.9285 87.3287 45.8764 87.3851 45.8243 87.4458C45.3599 87.0379 44.8869 86.643 44.4312 86.222C41.8837 83.8524 39.1148 81.8256 35.7991 80.6365C35.6732 80.5931 35.5474 80.5497 35.4172 80.515C35.3781 80.5063 35.3304 80.5237 35.3174 80.528C35.6298 81.0618 36.0465 81.5739 36.2418 82.1555C36.4718 82.8499 36.0768 83.3967 35.4172 83.7873C36.7105 85.0112 36.7278 86.669 37.075 88.2227C37.3788 89.5594 37.8345 90.8614 38.2208 92.1807C38.2511 92.2805 38.2642 92.3803 38.2859 92.5019C37.5958 92.35 36.9579 92.2024 36.3155 92.0722C36.1419 92.0375 35.9467 91.9941 35.7861 92.0418C35.504 92.1199 35.083 92.1981 35.0049 92.3934C34.9051 92.6364 35.0743 93.0009 35.1698 93.3004C35.2175 93.4566 35.3608 93.5825 35.4693 93.7387C34.853 93.7648 34.2411 93.2353 34.0327 92.5192C33.8635 91.9377 33.9459 91.8075 34.8573 91.2563C33.6074 90.436 32.3619 89.6635 31.1727 88.8129C30.3655 88.2314 29.5974 87.576 28.8943 86.873C28.6339 86.6126 28.5297 86.1308 28.4907 85.7359C28.4299 85.1457 28.8943 84.9244 29.3847 84.8636C29.9532 84.7985 30.8863 85.4061 30.9948 85.9659C31.0512 86.2524 30.9427 86.7558 30.7387 86.873C30.3048 87.1247 29.9098 86.8643 29.5974 86.3609C29.784 86.3695 29.9402 86.426 30.001 86.3739C30.1615 86.235 30.4089 86.031 30.3872 85.8922C30.3612 85.7272 30.0964 85.4972 29.9142 85.4799C29.3109 85.4234 28.9073 86.1439 29.2285 86.7298C29.4064 87.0553 29.6538 87.3807 29.9489 87.5977C31.0773 88.418 32.2404 89.1905 33.5076 90.0628C33.2906 89.2165 33.5597 88.6784 34.2107 88.2704C33.8678 87.984 33.5597 87.7366 33.2646 87.4719C32.8219 87.077 32.5311 86.6126 32.7481 86.0006C32.9608 85.38 33.5163 84.9938 34.2194 85.0806C34.7532 85.1457 35.2696 85.3714 35.8512 85.545C35.5604 84.7117 35.3825 83.9349 34.2628 83.7656C33.0259 83.5746 32.019 82.3161 32.1579 81.3569C32.1883 81.1573 32.4791 80.8231 32.5962 80.8448C32.8306 80.8839 33.0519 81.1139 33.2255 81.3092C33.2776 81.3656 33.1908 81.5956 33.1127 81.7128C32.7785 82.2293 32.9781 82.6068 33.4121 82.9063C33.8852 83.2361 34.7402 83.1016 35.1394 82.6676C35.5691 82.1945 35.5691 81.5566 35.1394 81.0228C34.5405 80.2806 33.6812 80.0333 32.8132 79.8076C30.487 79.2087 28.1218 78.7009 26.0516 77.3989C25.3052 76.9302 24.6455 76.327 23.9468 75.7801C23.9468 75.689 23.9468 75.6022 23.9468 75.5111V75.5284ZM33.2863 71.4315C33.1517 72.1737 33.0259 72.7509 32.9434 73.3368C32.8523 73.9747 33.308 74.7212 33.9112 74.9382C34.4407 75.1292 34.9224 75.0424 35.287 74.5736C35.6429 74.1136 35.6212 73.4106 35.0917 72.8681C34.5796 72.3429 33.9416 71.9393 33.2863 71.4315ZM36.9882 65.2906C37.2269 64.5007 37.4526 63.7456 37.6826 62.9904C37.8432 62.4653 37.6609 62.0009 37.2096 61.81C36.8277 61.645 36.2461 61.5452 35.938 61.7318C35.6298 61.9184 35.3738 62.5043 35.4128 62.8863C35.5127 63.9322 36.194 64.67 36.9882 65.2949V65.2906ZM37.3137 91.8118C37.0663 91.0002 36.8537 90.3276 36.6541 89.6462C36.4891 89.0907 36.1159 88.865 35.5561 88.8954C34.9528 88.9258 34.4277 89.3163 34.3365 89.8415C34.2367 90.3926 34.5449 90.7442 35.0005 90.9395C35.7297 91.2476 36.4805 91.5037 37.3181 91.8161L37.3137 91.8118ZM36.398 88.6437C36.2678 87.9363 36.1767 87.2766 36.0204 86.6386C35.8685 85.9963 35.3694 85.7793 34.7619 85.7923C34.1933 85.801 33.7593 86.0527 33.6205 86.6299C33.4686 87.2636 33.8418 87.6542 34.3756 87.8798C35.0222 88.1532 35.6863 88.3789 36.398 88.648V88.6437ZM36.2591 68.3459C36.2808 68.2547 36.3025 68.1636 36.3242 68.0725C35.7817 67.7556 35.2566 67.4041 34.6881 67.1437C34.5058 67.0613 34.0805 67.1437 34.0024 67.2782C33.8591 67.53 33.8375 67.8945 33.8852 68.1896C33.9025 68.3068 34.2411 68.4544 34.4364 68.45C35.0439 68.45 35.6559 68.3806 36.2635 68.3415L36.2591 68.3459Z" fill="white"/>
<path d="M87.9346 25.359C88.4771 25.6367 88.9241 25.9709 88.7158 26.6913C88.5335 27.3206 87.7306 27.9412 87.097 27.8848C86.88 27.8631 86.5588 27.7329 86.5024 27.5767C86.4286 27.3683 86.5111 27.0559 86.6283 26.8389C86.7237 26.6653 86.9624 26.5698 87.1447 26.4353C87.1881 26.509 87.2228 26.5438 87.2315 26.5785C87.2749 26.8302 87.2923 27.0906 87.3704 27.3293C87.3791 27.3597 87.8087 27.3293 87.8304 27.2642C87.9129 26.9908 88.0257 26.6479 87.9259 26.4136C87.6742 25.819 87.11 25.8494 86.6803 26.1185C85.9686 26.5655 85.322 27.108 84.6666 27.6374C84.3021 27.9325 83.9939 28.2928 83.6381 28.5922C83.1477 29.0088 82.8048 29.4558 83.178 30.1633C83.5686 29.9549 83.9766 29.7119 84.4019 29.5079C84.9314 29.2606 85.4782 29.1911 85.9643 29.6034C86.4677 30.0287 86.6283 30.5669 86.4764 31.2222C86.203 32.3853 84.8836 33.4095 83.7683 33.262C83.5599 33.2359 83.3212 33.071 83.2041 32.8974C83.1433 32.8063 83.2692 32.4764 83.3994 32.3983C83.5773 32.2898 83.9245 32.216 84.046 32.3115C84.5104 32.6804 84.927 32.7195 85.348 32.2985C85.7299 31.9122 85.782 31.0616 85.4782 30.6146C85.0963 30.0504 84.5581 29.8334 83.9809 30.2067C83.4384 30.5538 82.9871 31.0616 82.5531 31.552C82.0757 32.0858 81.8457 32.854 80.9083 33.1535C81.1903 32.7021 81.403 32.3679 81.6157 32.0294C81.6634 31.9556 81.7025 31.8732 81.7372 31.7907C81.9932 31.2092 82.5184 30.5452 82.0366 30.0114C81.7979 29.7466 81.0211 29.9636 80.4265 29.9636C80.6175 31.309 80.0793 32.2291 79.1072 32.9148C78.8468 33.097 78.4996 33.2099 78.1828 33.2316C77.9962 33.2446 77.7314 33.0536 77.6186 32.88C77.5492 32.7715 77.6316 32.4461 77.7488 32.3549C77.9181 32.2247 78.2609 32.0945 78.3911 32.1813C78.9119 32.5112 79.2764 32.407 79.5585 31.9079C79.8493 31.3958 79.6323 30.4193 79.1636 30.0808C78.6472 29.7076 78.1524 29.8247 77.8139 30.2935C77.471 30.7752 77.228 31.335 76.9633 31.8688C76.5944 32.611 76.117 33.2446 75.2837 33.4833C74.6978 33.6525 74.2465 33.3661 74.3333 32.9321C74.4201 32.4981 74.8237 32.3159 75.2533 32.5155C75.8436 32.7889 76.2689 32.6327 76.3557 31.9947C76.4121 31.5781 76.373 31.0746 76.1821 30.7101C75.8045 29.968 74.8671 29.968 74.394 30.7361C73.9297 31.4869 73.5608 32.3072 73.244 33.1361C71.9637 36.4388 70.1843 39.4507 68.0925 42.2933C67.4892 43.1136 66.9901 44.0163 66.4346 44.8756C66.3261 45.0448 66.1873 45.1924 65.9616 45.3009C66.2654 44.702 66.018 44.0076 66.5865 43.4347C68.2053 41.7899 68.9952 39.659 69.6939 37.5151C70.0975 36.2782 70.3362 34.9892 70.5706 33.7046C68.9735 35.0804 68.8042 35.1151 67.7496 34.2081C67.4372 34.5466 67.1464 34.9155 66.8035 35.2193C66.3261 35.6359 65.788 35.8789 65.163 35.4666C64.6987 35.1585 64.4079 34.4294 64.5771 33.8001C64.7117 33.314 64.9243 32.8453 65.124 32.3028C64.3862 32.4287 63.835 32.8063 63.375 33.3314C63.3099 33.4052 63.2708 33.5354 63.2708 33.6395C63.2766 34.6522 63.1088 35.5317 62.7674 36.2782C63.9175 36.7903 63.9913 37.8059 63.848 38.8474C63.5399 41.1649 62.5287 43.2221 61.3309 45.1924C61.1096 45.5569 60.8492 45.8998 60.6061 46.2513C60.5323 46.2079 60.4586 46.1689 60.3848 46.1255C60.5237 45.8521 60.6408 45.5613 60.8101 45.3052C61.9124 43.591 62.9063 41.8333 63.2318 39.7849C63.3056 39.3292 63.2925 38.8518 63.2665 38.3874C63.2361 37.8666 62.9367 37.5238 62.4376 37.3719C61.9515 37.22 61.626 37.4456 61.3656 37.8276C61.3222 37.8883 61.2354 37.923 61.1703 37.9664C61.1096 37.923 61.0488 37.8796 60.988 37.8362C61.2658 37.4153 61.5262 36.9769 61.8256 36.5733C62.0904 36.2174 62.4202 35.9093 62.6849 35.5534C62.9714 35.1628 62.9627 34.6941 62.6112 34.3947C62.2987 34.1256 61.8256 33.8218 61.4741 33.8739C60.9837 33.9477 60.5063 34.2949 60.0897 34.6073C59.6991 34.9024 59.5949 35.3017 59.7685 35.8485C60.0897 36.8814 59.9725 37.897 59.1132 38.6695C58.9049 38.8561 58.5316 38.8865 58.2278 38.9212C58.1888 38.9255 58.0195 38.535 58.0543 38.3527C58.1237 37.9534 58.4275 37.936 58.8051 37.9057C59.0481 37.8883 59.404 37.5194 59.4647 37.2503C59.6036 36.6384 58.8919 35.7834 58.2712 35.6793C57.6854 35.5795 57.1776 35.9874 57.1125 36.6862C57.0647 37.1722 57.1081 37.667 57.1212 38.1574C57.1472 39.1165 56.9389 39.9888 56.0926 40.5487C55.9147 40.6659 55.5762 40.5443 55.3158 40.5313C55.3288 40.2839 55.2897 40.0192 55.3722 39.7935C55.4112 39.685 55.663 39.6113 55.8279 39.5939C56.5353 39.5158 56.7393 39.2901 56.6004 38.6218C56.5483 38.37 56.4311 38.114 56.2879 37.9013C55.9841 37.45 55.5024 37.1809 55.0293 37.4456C54.6995 37.6279 54.374 38.0836 54.3219 38.4525C54.2091 39.2424 54.3002 40.0539 54.2612 40.8568C54.2438 41.1953 54.1006 41.5252 53.8576 41.8159C53.7794 41.1215 53.7057 40.4272 53.6145 39.7371C53.5885 39.5418 53.5277 39.3422 53.4366 39.1686C53.1371 38.5914 52.7205 38.5089 52.2865 38.982C51.948 39.3509 51.6876 39.7241 51.9567 40.3273C53.25 43.2394 53.6449 46.3294 53.5407 49.4759C53.4843 51.2553 53.2413 53.0259 53.072 54.801C53.059 54.9225 52.9896 55.0397 52.9462 55.1568C52.8854 55.1568 52.8203 55.1568 52.7596 55.1525C52.7596 54.8834 52.7422 54.61 52.7596 54.3409C52.8984 52.4748 53.1632 50.6086 53.1632 48.7424C53.1632 46.7895 52.9722 44.8235 52.2735 42.9573C52.2301 42.8402 52.1737 42.7273 52.1216 42.6101C51.9436 43.0702 51.8178 43.5128 51.6051 43.9165C51.0496 44.9797 49.7954 45.0362 49.1097 44.051C48.463 43.1222 48.5585 41.5121 49.3614 40.6962C49.5437 40.5096 49.8995 40.4315 50.1773 40.4272C50.2728 40.4272 50.5071 40.8742 50.4464 40.9914C50.3249 41.217 50.0514 41.4731 49.8171 41.5078C49.331 41.5729 49.1574 41.8593 49.1053 42.2586C49.0272 42.8445 49.6392 43.5606 50.2815 43.6908C50.863 43.808 51.4619 43.4738 51.5834 42.8271C51.6876 42.276 51.7484 41.651 51.5834 41.1346C51.1755 39.8022 50.633 38.5133 50.0124 37.2156C49.8995 37.6887 49.791 38.1574 49.6782 38.6391C49.4439 38.5176 49.2616 38.4221 48.9404 38.2529C49.0489 38.6001 49.1097 38.7954 49.2138 39.1252C48.9795 39.034 48.8406 39.0123 48.7408 38.9342C48.4413 38.7086 48.1375 38.4785 47.8685 38.2138C47.7339 38.0836 47.6775 37.8753 47.582 37.706C47.799 37.6974 48.0247 37.6583 48.233 37.693C48.3545 37.7104 48.4587 37.8492 48.7364 38.0532C48.5412 37.6279 48.3806 37.4022 48.3415 37.1549C48.3025 36.8988 48.3849 36.6254 48.4153 36.3563C48.5932 36.5429 48.8406 36.6948 48.9404 36.9162C49.088 37.246 49.1401 37.6192 49.2789 38.1617C49.4005 37.4587 49.1053 36.7946 49.8648 36.556C49.4699 34.5813 48.8232 32.637 49.548 30.6103C49.2659 33.7263 50.4854 36.4605 51.5487 39.1729C51.8872 38.7346 52.1693 38.2702 52.5426 37.9013C53.1154 37.3328 53.5234 37.7885 53.8836 38.2659C54.8688 36.161 55.3244 35.9223 56.5787 36.786C56.8781 36.2131 57.1212 35.5968 57.4987 35.076C57.9327 34.4815 58.3754 34.4988 59.3389 35.0066C59.7685 33.9346 60.5584 33.2012 61.6694 32.9234C62.0557 32.828 62.5157 33.0276 63.0538 33.1057C64.1432 31.4652 66.1048 31.3133 67.9319 30.8533C69.286 30.5104 70.6227 30.1025 71.968 29.7293C72.1894 29.6685 72.4281 29.6685 72.6494 29.6077C73.5955 29.3343 73.8949 29.5123 74.0555 30.4106C74.5893 30.0721 75.1014 29.6077 75.7004 29.4081C76.4251 29.1651 76.8895 29.6945 77.1716 30.3369C79.1896 28.7354 79.5412 28.692 80.4005 29.9246C80.9864 29.3474 81.6721 29.0045 82.5184 29.0219C82.6616 29.0219 82.8265 28.8917 82.948 28.7875C83.9636 27.9195 84.9531 27.0212 85.9903 26.1792C86.4113 25.8407 86.9321 25.6194 87.4051 25.3459C87.583 25.3459 87.761 25.3459 87.9433 25.3459L87.9346 25.359ZM71.3084 30.875C71.278 33.7567 70.7138 36.5646 69.5594 39.2597C69.733 39.1512 69.8545 39.0254 69.9283 38.8778C70.6791 37.3892 71.4776 35.9267 72.1416 34.4034C72.6017 33.3574 72.9358 32.2421 73.2006 31.1267C73.3611 30.441 72.8577 30.1502 72.2024 30.4497C71.929 30.5755 71.6642 30.7057 71.3084 30.875ZM67.9623 31.6171C67.4719 31.7169 66.9771 31.8254 66.4867 31.9253C65.7967 32.0641 65.2672 32.6153 65.1717 33.3054C65.0936 33.8652 65.4799 34.5466 65.9703 34.7115C66.4694 34.8807 67.0466 34.5943 67.3243 34.0084C67.4285 33.7914 67.4806 33.5484 67.5413 33.314C67.6802 32.7802 67.806 32.2464 67.9623 31.6128V31.6171ZM70.883 31.105C70.8136 31.0486 70.7442 30.9878 70.6791 30.9314C70.1322 31.0833 69.5507 31.1701 69.0473 31.4175C68.7131 31.5781 68.3702 31.9296 68.2531 32.2725C68.0881 32.7585 68.1966 33.2923 68.6784 33.6439C69.2035 34.0301 69.8675 33.939 70.1366 33.3401C70.4534 32.624 70.6444 31.8558 70.8874 31.1094L70.883 31.105Z" fill="white"/>
<path d="M131.933 89.3467C131.785 89.3945 131.559 89.5333 131.507 89.4813C131.104 89.108 130.735 88.6957 130.353 88.2965C130.422 88.2227 130.492 88.1489 130.561 88.0795C131.017 88.457 131.477 88.8346 131.933 89.2165V89.3511V89.3467Z" fill="white"/>
<path d="M55.4502 85.2715C58.1496 86.8426 59.9073 89.3033 61.9297 91.4776C63.5658 93.2353 65.5014 94.5199 67.8841 95.4226C67.9752 94.8801 68.1184 94.4114 68.1228 93.9427C68.1445 91.2823 68.1228 88.6263 68.1401 85.9659C68.1488 84.7507 67.4978 83.9913 66.5083 83.375H70.1842C70.1842 84.1605 70.1842 84.9721 70.1842 85.7836C70.1842 88.5482 70.1669 91.3127 70.1886 94.0772C70.1886 94.5286 70.3578 94.9799 70.4663 95.5268C70.0887 95.5268 69.6808 95.5268 69.2685 95.5268C67.0768 95.5268 64.8895 95.5311 62.6979 95.5007C62.4418 95.5007 62.1163 95.3141 61.9427 95.1145C59.6946 92.5235 57.4813 89.9022 55.2289 87.3156C54.8383 86.8686 54.3435 86.491 53.8401 86.1742C53.2368 85.788 52.8723 86.018 52.8723 86.7211C52.8723 88.9778 52.8636 91.2346 52.907 93.487C52.92 94.1423 53.1066 94.7976 53.2151 95.4877H50.1425C50.238 94.2421 50.3985 93.0096 50.4072 91.7814C50.4376 87.333 50.3898 82.8889 50.4332 78.4405C50.4506 76.6134 49.817 75.1899 48.311 74.157C48.2199 74.0962 48.1114 74.0659 47.9031 73.9747C49.7345 73.4322 51.6918 74.1961 52.4904 75.6239C53.8488 74.3566 55.4372 73.5364 57.2773 73.3237C59.1782 73.1024 61.0096 73.2934 62.3029 74.9599C63.4573 76.4485 63.3402 78.7183 62.0859 80.528C60.9792 82.1251 59.4516 83.2274 57.772 84.1388C57.0299 84.5424 56.2531 84.8809 55.4372 85.2759L55.4502 85.2715ZM52.8723 84.8592C55.3894 84.0781 57.772 83.3489 59.4256 81.2831C60.2675 80.2329 60.6234 79.0047 60.567 77.6637C60.5062 76.1751 59.6035 74.9903 58.154 74.7993C57.1167 74.6648 56.0057 74.6952 54.9902 74.9252C53.8357 75.1899 52.7811 76.0579 52.8506 77.7505C52.9287 79.7121 52.8679 81.6824 52.8679 83.6484C52.8679 83.9999 52.8679 84.3558 52.8679 84.8592H52.8723Z" fill="white"/>
<path d="M123.352 48.9204C123.912 48.8249 124.385 48.7468 124.858 48.6686C124.884 48.7598 124.906 48.8466 124.932 48.9377C124.65 49.6234 123.878 49.3196 123.379 49.5974C123.799 49.7797 124.234 49.9619 124.663 50.1486C126.599 49.988 128.586 49.6278 130.574 50.4307C127.471 49.9316 124.615 50.9167 121.786 51.7847C122.194 52.1406 122.675 52.4531 123.014 52.8784C123.5 53.486 123.014 53.8722 122.515 54.189C124.138 55.0006 124.937 55.3999 123.786 57.0837C125.909 57.9561 126.243 58.5506 125.418 59.7788C125.952 60.3647 126.551 60.8768 126.95 61.5148C127.376 62.1918 127.471 62.9774 126.868 63.6934C128.135 64.7567 128.504 66.2019 128.704 67.7382C128.908 69.2833 129.146 70.8239 129.394 72.3603C129.437 72.6293 129.593 72.8811 129.719 73.1935C129.55 73.1848 129.415 73.1805 129.229 73.1718C129.854 74.3523 129.75 75.5675 129.706 76.7957C129.654 78.4795 129.741 80.1721 129.728 81.8603C129.728 82.3421 129.693 82.8802 129.48 83.2925C129.333 83.5746 128.847 83.6831 128.491 83.8784C129.25 86.0657 129.177 86.3956 127.762 86.7645C128.161 87.7106 129.198 88.7348 127.909 89.6245C126.759 90.4187 126.013 89.3771 125.288 88.6089C124.967 89.6809 125.258 90.9915 125.943 91.3734C126.226 91.5297 126.694 91.6772 126.903 91.547C127.12 91.4125 127.137 90.9395 127.211 90.6096C127.241 90.4794 127.193 90.3275 127.176 90.1322C127.784 90.6357 128.009 91.9116 127.523 92.376C127.276 92.6147 126.777 92.5886 126.412 92.6754C126.49 93.1007 126.66 93.6823 126.686 94.2682C126.738 95.466 125.583 96.1474 124.516 95.5875C123.617 95.1188 122.888 93.6736 123.105 92.6841C123.166 92.415 123.387 92.1503 123.609 91.968C123.669 91.9159 124.142 92.1633 124.151 92.2935C124.168 92.5452 124.051 92.862 123.882 93.0573C123.53 93.4653 123.496 93.8429 123.843 94.2421C124.342 94.815 125.101 94.9322 125.709 94.5416C126.199 94.2291 126.369 93.5174 125.991 92.8664C125.653 92.2761 125.253 91.6946 124.78 91.2085C121.643 88.023 119.004 84.4947 117.212 80.3717C117.116 80.1504 117.06 79.9117 117.099 79.6209C118.965 83.7005 121.608 87.2028 124.772 90.3492C124.181 88.4874 124.954 86.7775 125.275 85.0241C125.436 84.1518 125.548 83.2621 125.614 82.3768C125.631 82.1381 125.462 81.8213 125.279 81.6433C123.426 79.8466 121.508 78.1107 119.694 76.2749C118.522 75.0901 117.489 73.7707 116.404 72.5035C116.313 72.3993 116.283 72.2474 116.174 71.9957C116.986 72.4644 117.58 72.9244 118.136 73.5581C119.225 74.8036 120.44 75.9711 121.76 76.9649C122.953 77.8633 124.355 78.4969 125.666 79.2347C125.831 79.3302 126.026 79.3692 126.226 79.443C125.995 78.8962 125.683 78.4188 125.614 77.9067C125.531 77.2991 125.952 76.8825 126.534 76.6785C126.291 76.3269 126.052 76.0101 125.839 75.6716C125.501 75.1291 125.353 74.5563 125.787 73.9964C126.199 73.4669 126.937 73.3194 127.61 73.6579C128.074 73.8922 128.495 74.2221 128.968 74.5302C129.081 73.6579 128.756 72.9505 128.235 72.3255C128.118 72.1867 127.844 72.1389 127.636 72.1172C125.24 71.8308 122.94 71.1668 120.857 69.9863C118.809 68.8232 116.886 67.4475 114.911 66.1585C114.781 66.0761 114.707 65.9068 114.608 65.7809C114.647 65.7332 114.686 65.6855 114.729 65.6377C115.189 65.9545 115.653 66.267 116.109 66.5882C118.383 68.2026 120.692 69.752 123.392 70.5896C124.194 70.8369 125.015 71.0322 125.935 71.2796C124.581 69.6174 124.533 69.1921 125.583 68.3936C125.284 68.1071 124.963 67.8511 124.698 67.5386C124.299 67.0612 124.003 66.5317 124.359 65.8938C124.676 65.3253 125.418 65.0345 126.108 65.2645C126.62 65.4337 127.102 65.7028 127.701 65.9719C127.519 65.4988 127.402 65.0735 127.198 64.6916C126.955 64.2403 126.668 63.9929 126 64.0276C125.284 64.0623 124.546 63.6414 123.76 63.3983C123.361 64.2837 122.485 64.3661 121.56 64.2012C118.752 63.7065 116.452 62.1875 114.234 60.5123C114.187 60.4732 114.152 60.4081 114.126 60.3474C114.113 60.3126 114.126 60.2606 114.139 60.0609C114.521 60.2953 114.864 60.4602 115.159 60.6902C116.626 61.8316 118.162 62.8428 119.963 63.3723C120.427 63.5112 120.922 63.5806 121.408 63.611C121.968 63.65 122.502 63.5112 122.762 62.947C123.018 62.3915 122.741 61.9662 122.272 61.632C122.298 61.5799 122.32 61.5278 122.346 61.4714C122.554 61.5495 122.81 61.5756 122.962 61.7144C123.426 62.1267 123.843 62.5998 124.299 63.0251C124.711 63.407 125.158 63.6674 125.731 63.2811C126.295 62.9036 126.456 62.3828 126.265 61.7709C126.147 61.3976 125.974 61.0114 125.726 60.7119C125.405 60.3213 125.028 60.0609 124.403 60.2345C123.326 60.534 122.363 60.1738 121.651 59.3188C121.482 59.1192 121.521 58.7199 121.534 58.4204C121.534 58.3684 122.011 58.2382 122.094 58.3163C122.281 58.5029 122.476 58.8024 122.458 59.0454C122.424 59.5228 122.688 59.8049 123.036 59.7615C123.53 59.7007 124.116 59.5532 124.455 59.2277C125.119 58.5897 124.789 57.713 123.878 57.5351C123.335 57.4309 122.767 57.457 122.215 57.3875C121.356 57.279 120.527 57.0577 120.089 56.2158C119.98 56.0074 120.089 55.6906 120.102 55.4216C120.349 55.4302 120.64 55.3695 120.835 55.478C120.966 55.5474 121.005 55.8599 121.013 56.0682C121.035 56.7149 121.235 56.9449 121.86 56.8581C122.198 56.8103 122.567 56.6888 122.84 56.4892C123.609 55.925 123.483 54.9442 122.58 54.6794C121.907 54.4798 121.178 54.4972 120.475 54.3887C119.946 54.3105 119.425 54.189 118.9 54.0849C118.908 54.0067 118.917 53.9286 118.921 53.8505C119.052 53.8375 119.186 53.8201 119.316 53.8115C120.063 53.7637 120.822 53.7941 121.547 53.6509C122.254 53.512 122.354 52.9912 121.873 52.4704C121.491 52.0581 121.126 51.9062 120.497 52.1102C116.352 53.4643 112.16 53.2429 107.959 52.3706C107.23 52.2187 106.501 52.0798 105.771 51.9366C105.78 51.8541 105.793 51.7717 105.802 51.6936C106.015 51.7023 106.232 51.6936 106.444 51.724C108.736 52.0321 111.018 52.4574 113.319 52.6267C114.981 52.7482 116.686 52.631 118.383 52.0364C117.919 51.8238 117.511 51.6806 117.151 51.4679C116.153 50.8777 116.114 49.7276 117.047 49.0419C118.045 48.3084 119.802 48.5254 120.553 49.5149C120.701 49.7102 120.775 50.0401 120.731 50.2788C120.709 50.3959 120.271 50.5695 120.141 50.4958C119.941 50.3873 119.863 50.0791 119.703 49.8751C119.49 49.6017 119.308 49.2285 119.021 49.107C118.492 48.8856 117.737 49.4064 117.52 50.0314C117.303 50.6563 117.554 51.2769 118.192 51.4896C118.648 51.6415 119.182 51.8107 119.616 51.7066C121.035 51.3768 122.428 50.9254 123.843 50.3829C123.392 50.244 122.936 50.1008 122.359 49.9229C122.593 49.8057 122.732 49.7406 122.879 49.6668C122.84 49.5453 122.793 49.4021 122.745 49.2676C122.554 49.3153 122.367 49.363 122.185 49.4108C122.146 49.3674 122.111 49.324 122.072 49.2806C122.485 48.8249 122.888 48.3649 123.313 47.9265C123.357 47.8831 123.574 47.9135 123.604 47.9699C123.669 48.0958 123.73 48.2737 123.687 48.3952C123.622 48.5732 123.47 48.7207 123.335 48.8987L123.352 48.9204ZM120.879 76.8477C120.84 76.8955 120.801 76.9389 120.762 76.9866C121.677 77.8459 122.541 78.7703 123.522 79.5515C124.893 80.6452 126.338 81.6477 127.779 82.6502C128.113 82.8802 128.665 83.0321 128.842 82.4723C128.977 82.047 128.89 81.5392 128.851 81.0748C128.847 81.0054 128.586 80.9403 128.439 80.8969C126.165 80.1982 124.025 79.2217 122.111 77.7895C121.699 77.4814 121.287 77.1689 120.874 76.8564L120.879 76.8477ZM128.087 68.8145C127.996 68.1853 127.944 67.5169 127.801 66.8746C127.671 66.2974 126.759 65.794 126.147 65.8851C125.614 65.9676 125.132 66.458 125.106 66.9527C125.08 67.5169 125.627 68.0637 126.343 68.2547C126.911 68.4066 127.467 68.6106 128.087 68.8145ZM129.029 77.6029C129.029 76.9519 129.042 76.353 129.029 75.7541C129.007 74.9251 127.992 74.0962 127.219 74.361C126.859 74.4868 126.451 74.8731 126.343 75.2246C126.156 75.8409 126.673 76.2488 127.137 76.5526C127.701 76.9172 128.313 77.2079 129.029 77.5985V77.6029ZM126.403 82.3768L126.217 82.5461C126.169 83.2057 126.16 83.8741 126.056 84.5251C125.956 85.137 126.278 85.4798 126.742 85.6708C127.219 85.8617 127.736 85.8834 128.152 85.4364C128.543 85.0198 128.517 84.5381 128.196 84.1692C127.645 83.5312 127.007 82.9714 126.408 82.3811L126.403 82.3768ZM128.556 71.7614C128.413 71.0105 128.296 70.4507 128.205 69.8865C128.092 69.1704 127.532 69.0098 126.976 68.9968C126.421 68.9795 125.917 69.2355 125.757 69.8388C125.596 70.4637 125.939 70.8804 126.477 71.093C127.107 71.3447 127.771 71.514 128.552 71.7614H128.556ZM128.847 80.528C128.847 79.7034 128.869 79.1045 128.838 78.5056C128.808 77.9371 128.439 77.6246 127.905 77.5248C127.35 77.4163 126.807 77.4857 126.508 78.0325C126.217 78.5577 126.369 79.0698 126.837 79.3866C127.432 79.7902 128.087 80.1027 128.842 80.528H128.847ZM125.904 85.6231C125.739 86.3218 125.601 86.9294 125.453 87.5326C125.284 88.2183 125.674 88.5872 126.212 88.8302C126.751 89.0733 127.302 89.0082 127.649 88.5091C128.005 88.0013 127.84 87.4762 127.423 87.0596C126.95 86.5909 126.456 86.1438 125.904 85.6231Z" fill="white"/>
<path d="M98.8797 85.2325C99.0186 85.7923 99.2529 86.3478 99.2746 86.912C99.4222 90.5098 99.3137 94.0989 98.2548 97.5795C97.6819 99.4674 96.8877 101.286 95.2081 102.488C93.2248 103.911 91.0158 103.82 88.9283 102.579C88.1688 102.128 87.5352 101.455 86.9059 100.93C87.9995 99.6193 88.9673 98.4562 89.9308 97.2974C89.9829 97.3278 90.035 97.3625 90.087 97.3929C89.9395 98.0786 89.7789 98.7643 89.6444 99.45C89.3319 101.043 90.6859 102.636 92.3221 102.636C93.8194 102.636 94.8262 101.828 95.6204 100.674C96.6881 99.1245 97.4432 95.5962 97.1264 93.6736C96.4277 94.164 95.7593 94.7022 95.0302 95.1361C93.3941 96.1039 91.6451 96.3253 89.818 95.7524C88.1211 95.2229 87.2097 93.9644 86.9015 92.3152C86.5023 90.2017 86.8798 88.2183 88.4075 86.5908C89.4274 85.5059 90.6556 84.703 92.0747 84.0997H86.6628C86.7366 83.3229 88.0212 82.0383 88.7807 82.0036C88.9413 81.9949 89.1453 82.1468 89.2668 82.2857C89.9178 83.0365 90.7727 83.2925 91.7188 83.2969C93.9539 83.3099 96.189 83.3099 98.424 83.3142C98.6671 83.3142 98.9101 83.3142 99.1835 83.3142C99.1271 83.9001 98.8624 84.0954 98.3068 84.1128C96.7488 84.1605 95.1647 84.1128 93.6458 84.3992C91.1286 84.8766 88.4422 87.9709 88.9239 91.3344C89.1062 92.619 89.5185 93.7083 90.5601 94.4895C91.7883 95.4096 93.3854 95.4009 94.5962 94.4591C96.6143 92.8924 97.6515 90.7225 98.2287 88.3095C98.4631 87.3286 98.5152 86.3044 98.6497 85.2976C98.7278 85.2759 98.8059 85.2498 98.8841 85.2281L98.8797 85.2325Z" fill="white"/>
<path d="M100.616 108.086C99.0275 111.958 97.4391 115.829 97.7428 120.16C98.1465 119.743 98.4676 119.288 98.8973 118.993C99.4224 118.628 99.9605 118.862 100.369 119.244C100.72 118.776 101.006 118.298 101.388 117.912C102.117 117.17 103.259 117.439 103.467 118.459C103.61 119.166 103.463 119.93 103.441 120.685C104.031 120.503 104.496 119.995 104.899 119.418C104.943 119.357 104.947 119.244 104.934 119.166C104.734 118.104 104.774 117.184 105.051 116.406C103.749 116.154 103.571 115.113 103.541 114.071C103.463 111.285 104.439 108.763 105.563 106.29C105.65 106.316 105.733 106.342 105.819 106.368C105.689 106.767 105.607 107.184 105.429 107.557C104.665 109.163 104.183 110.851 104.005 112.613C103.958 113.095 104.018 113.594 104.096 114.076C104.192 114.683 104.474 115.265 105.151 115.273C105.55 115.278 105.95 114.939 106.444 114.714C106.327 115.013 106.219 115.404 106.032 115.751C105.802 116.18 105.481 116.562 105.255 116.992C105.034 117.404 104.943 117.912 105.381 118.203C105.737 118.437 106.306 118.702 106.622 118.572C107.173 118.342 107.634 117.856 108.068 117.409C108.35 117.118 108.263 116.753 108.05 116.376C107.503 115.391 107.699 113.898 108.415 113.277C108.679 113.047 109.031 112.83 109.257 113.238C109.365 113.438 109.235 113.798 109.148 114.063C109.122 114.136 108.849 114.102 108.732 114.184C108.528 114.319 108.18 114.553 108.206 114.661C108.332 115.13 108.475 115.664 108.801 115.989C109.031 116.219 109.578 116.267 109.947 116.202C110.476 116.111 110.55 115.577 110.55 115.134C110.55 114.744 110.45 114.349 110.355 113.963C110.151 113.129 110.164 112.322 110.611 111.571C110.719 111.385 110.88 111.198 111.062 111.098C111.236 111.003 111.526 110.942 111.67 111.025C111.813 111.107 111.93 111.411 111.895 111.589C111.865 111.762 111.644 112.01 111.483 112.031C110.932 112.105 110.589 112.309 110.68 112.917C110.78 113.594 111.5 114.24 112.095 114.219C112.672 114.201 113.045 113.859 113.024 113.147C112.998 112.305 112.811 111.472 112.737 110.634C112.707 110.265 112.785 109.888 112.972 109.532C113.167 110.222 113.341 110.925 113.571 111.606C113.809 112.318 114.239 112.617 114.651 112.435C115.189 112.196 115.415 111.359 115.076 110.795C113.002 107.349 112.164 103.556 111.965 99.5889C111.921 98.6992 111.895 97.8052 111.874 96.9155C111.869 96.7115 111.908 96.5119 112.043 96.2993C112.308 100.496 112.507 104.688 114.582 108.599C114.712 108.069 114.786 107.652 114.925 107.258C115.333 106.077 116.569 105.825 117.411 106.737C118.158 107.548 118.318 109.215 117.667 110.039C117.489 110.265 117.147 110.387 116.856 110.469C116.799 110.486 116.487 110.048 116.543 109.927C116.643 109.692 116.895 109.475 117.134 109.362C117.594 109.141 117.75 108.811 117.637 108.347C117.485 107.726 116.817 107.258 116.179 107.288C115.55 107.318 115.129 107.726 115.081 108.486C115.055 108.92 115.081 109.414 115.267 109.788C115.918 111.072 116.648 112.314 117.442 113.737C117.498 113.06 117.542 112.57 117.589 112.001C117.798 112.114 117.95 112.196 118.223 112.344C118.171 112.018 118.136 111.797 118.093 111.502C118.644 111.784 119.139 112.014 119.607 112.288C119.712 112.348 119.712 112.578 119.759 112.73C119.625 112.769 119.477 112.865 119.36 112.839C119.152 112.795 118.961 112.678 118.644 112.544C118.9 112.934 119.139 113.221 119.278 113.546C119.347 113.707 119.23 113.941 119.199 114.145C119.021 114.054 118.783 114.002 118.674 113.859C118.483 113.598 118.37 113.277 118.236 113.008C118.101 113.403 117.971 113.793 117.837 114.184C118.531 116.033 119.347 117.938 118.991 120.121C118.774 116.979 117.164 114.41 115.645 111.767C114.942 113.689 114.425 114.002 113.492 113.103C112.885 115.351 112.52 115.616 111.036 114.983C110.841 115.599 110.719 116.263 110.424 116.831C110.099 117.461 109.686 117.487 108.753 117.2C108.311 117.83 107.937 118.485 107.447 119.027C106.909 119.622 106.201 119.895 105.338 119.492C104.287 121.562 102.213 122.013 100.321 122.764C99.392 123.133 98.4763 123.537 97.5649 123.94C97.2915 124.062 97.0441 124.248 96.5928 124.517C96.749 124.144 96.7837 123.84 96.953 123.693C97.3479 123.354 97.3957 122.951 97.3392 122.491C97.0354 119.891 97.1266 117.304 97.8904 114.8C98.5501 112.635 99.392 110.526 100.165 108.39C100.212 108.256 100.334 108.152 100.421 108.034C100.49 108.06 100.559 108.082 100.629 108.108L100.616 108.086ZM100.581 121.848C101.111 121.649 101.601 121.466 102.096 121.28C102.157 121.258 102.226 121.249 102.287 121.219C102.842 120.959 103.202 120.03 103.007 119.375C102.842 118.832 102.282 118.394 101.844 118.463C101.241 118.559 100.807 119.179 100.755 119.965C100.72 120.559 100.646 121.15 100.581 121.844V121.848ZM97.7863 122.838C97.86 122.877 97.9295 122.92 98.0032 122.959C98.5935 122.673 99.2054 122.426 99.7696 122.096C100.329 121.775 100.295 121.219 100.143 120.685C99.9953 120.173 99.6394 119.83 99.0926 119.809C98.5154 119.787 98.1768 120.169 98.0727 120.685C97.9338 121.393 97.8774 122.117 97.7819 122.838H97.7863Z" fill="white"/>
<path d="M37.2226 114.427C40.4732 114.405 43.0381 112.648 45.7028 111.263C45.1907 111.007 44.6352 110.812 44.1795 110.482C43.624 110.079 43.6891 109.653 44.2706 109.054C43.6891 108.785 43.0511 108.594 42.5303 108.225C42.0399 107.878 42.0963 107.258 42.5173 106.463C42.0226 106.303 41.5061 106.186 41.0331 105.973C40.5426 105.752 40.1694 105.357 40.2475 104.771C40.33 104.159 40.6381 103.668 41.3065 103.547C41.8012 103.456 42.309 103.421 43.0555 103.33C42.4652 102.887 42.0052 102.549 41.5495 102.206C41.1199 101.876 40.6945 101.737 40.1477 102.002C39.3969 102.366 39.3231 102.822 39.9958 103.343C40.1304 103.447 40.2823 103.534 40.5166 103.69C39.8483 103.933 39.3926 103.638 39.1192 103.256C38.6157 102.562 37.917 102.397 37.1618 102.189C35.964 101.854 34.7836 101.446 33.6335 100.982C33.2516 100.83 32.9174 100.453 32.67 100.105C32.2577 99.5282 32.5268 98.8208 33.2342 98.7557C33.742 98.7079 34.3235 98.8685 34.7923 99.0985C35.1828 99.2851 35.5214 99.7452 35.1047 100.201C34.7185 100.626 34.2801 100.427 33.7854 100.053C34.0024 100.01 34.1586 100.023 34.2107 99.9535C34.3322 99.7972 34.5232 99.5325 34.4711 99.4414C34.3756 99.2808 34.0892 99.0985 33.9286 99.1376C33.7073 99.1897 33.4078 99.4067 33.3644 99.6063C33.308 99.8667 33.3644 100.314 33.5467 100.44C34.0805 100.821 34.6707 101.173 35.2913 101.377C36.3242 101.715 37.3962 101.932 38.4291 102.193C38.7112 101.932 38.9803 101.685 39.219 101.464C38.8067 101.234 38.3163 101.012 37.8823 100.709C36.8407 99.9752 36.9535 98.6992 38.0863 98.1394C39.1669 97.6056 41.0461 98.2045 41.4627 99.2461C41.5408 99.4414 41.5191 99.7365 41.4236 99.9188C41.3672 100.027 41.0244 100.097 40.8898 100.027C40.7076 99.9318 40.4732 99.6801 40.4819 99.5108C40.5166 98.9553 40.3474 98.5864 39.7875 98.4736C39.2016 98.3564 38.4899 98.7513 38.2598 99.3155C38.0298 99.8927 38.1687 100.453 38.7025 100.696C39.3318 100.986 40.0349 101.208 40.7206 101.251C42.1918 101.338 42.1962 101.281 42.9079 101.746C42.5216 101.776 42.2613 101.798 42.1094 101.807C42.7213 102.406 43.4374 102.987 44.0146 103.69C44.6742 104.497 45.1907 105.422 45.807 106.264C46.2019 106.802 46.6836 107.271 47.1046 107.787C47.3997 108.147 47.7512 108.173 48.1766 108.1C51.132 107.583 54.1092 107.488 57.1038 107.7C58.1888 107.778 59.2868 107.722 60.3804 107.735C60.6321 107.735 60.8795 107.783 61.1312 107.809C61.1399 107.878 61.1486 107.952 61.1573 108.021C60.5887 108.143 59.9942 108.434 59.456 108.351C56.9909 107.978 54.6083 108.421 52.2431 108.994C51.1494 109.258 50.1078 109.718 49.0098 110.191C50.1556 110.517 51.2405 110.825 50.7805 112.331C51.2362 112.405 51.6615 112.435 52.0695 112.544C52.881 112.765 53.1892 113.138 53.1978 113.82C53.2022 114.471 52.8073 115.009 52.0912 115.226C51.6355 115.365 51.1581 115.43 50.6894 115.529C50.6677 115.599 50.6416 115.664 50.6199 115.733C51.3664 116.05 52.1129 116.367 52.9114 116.701C52.2214 116.979 51.5226 116.836 51.0192 116.489C50.0037 115.79 49.0836 114.948 48.1462 114.136C47.4431 113.524 46.7704 112.873 46.0977 112.227C45.8287 111.971 45.5943 111.988 45.2775 112.166C43.6023 113.099 41.9184 114.037 40.0262 114.444C39.1365 114.635 38.2078 114.657 37.292 114.757C37.2703 114.644 37.2443 114.527 37.2226 114.414V114.427ZM54.6213 108.03C54.6213 107.982 54.6127 107.939 54.6083 107.891C52.7291 108.078 50.8456 108.212 48.9794 108.468C47.8424 108.625 46.7227 108.95 45.6073 109.237C45.2254 109.336 44.8131 109.519 44.8739 110.039C44.9346 110.591 45.9415 111.081 46.4493 110.855C47.9465 110.187 49.4178 109.445 50.9585 108.894C52.1346 108.477 53.3975 108.308 54.6257 108.03H54.6213ZM48.5585 113.498C48.9013 113.876 49.2442 114.275 49.6131 114.657C50.2641 115.33 51.3317 115.317 51.8742 114.566C52.0738 114.288 52.191 113.789 52.0781 113.49C51.9697 113.195 51.5487 112.939 51.2145 112.834C50.9324 112.743 50.5635 112.856 50.251 112.943C49.7042 113.095 49.1661 113.299 48.5585 113.507V113.498ZM46.2366 111.493C46.8876 112.036 47.3693 112.465 47.8771 112.847C48.3979 113.238 48.9143 113.03 49.3266 112.665C49.7389 112.305 50.034 111.836 49.7259 111.25C49.4438 110.716 48.9577 110.591 48.4196 110.747C47.7252 110.951 47.0482 111.211 46.2323 111.493H46.2366ZM46.5751 108.538C46.6055 108.434 46.6316 108.33 46.6619 108.225C46.1542 107.679 45.6421 107.132 45.1343 106.585C44.7437 106.164 44.3097 106.316 43.9104 106.52C43.4417 106.758 43.1683 107.149 43.2464 107.713C43.3115 108.204 43.611 108.503 44.0753 108.525C44.9086 108.564 45.7419 108.538 46.5751 108.538ZM44.6656 105.886C44.2055 105.235 43.8453 104.701 43.4591 104.189C43.0685 103.673 42.552 103.686 42.0269 103.942C41.5018 104.198 41.1633 104.632 41.2935 105.226C41.4193 105.808 41.9271 106.021 42.4739 106.016C43.1596 106.012 43.8453 105.938 44.6656 105.886Z" fill="white"/>
<path d="M72.9011 70.646C72.4975 71.8135 72.146 72.829 71.7771 73.8966C68.457 72.9201 65.0589 73.4322 61.6781 73.0677C62.5027 71.2536 62.1381 69.3744 62.1555 67.543C62.2076 62.6736 62.1468 57.8042 62.1728 52.9348C62.1815 51.2987 61.4437 50.192 60.0419 49.4499C59.8597 49.3544 59.6817 49.2415 59.5342 49.0202H64.2039V50.1876C64.2039 57.1575 64.2039 64.1231 64.2039 71.093C64.2039 72.1086 64.5511 72.4514 65.597 72.4948C68.1489 72.5903 70.5402 72.0565 72.9011 70.646Z" fill="white"/>
<path d="M75.4963 95.5051H73.0572C73.1484 94.5807 73.3003 93.6649 73.3089 92.7536C73.3263 90.653 73.2872 88.5569 73.2438 86.4563C73.2178 85.1804 72.5929 84.2647 71.4688 83.6831C71.4081 83.6528 71.356 83.6137 71.3039 83.5703C71.2779 83.5443 71.2648 83.5009 71.2214 83.4314C72.5581 83.2622 73.8731 83.0972 75.2706 82.9236C75.2966 83.4488 75.3227 83.9435 75.3444 84.3905C76.3599 83.9826 77.319 83.4922 78.3346 83.2144C81.3595 82.3898 83.9765 84.1692 84.532 87.4632C84.9573 89.963 84.8358 92.4715 84.328 94.9626C84.2412 95.3879 84.0806 95.5788 83.6249 95.5398C83.1606 95.5007 82.6918 95.5311 82.2969 95.5311C82.5096 94.2074 82.8003 92.9315 82.9045 91.6382C83.0521 89.7634 82.9436 87.8885 82.0322 86.1699C80.8778 83.9913 78.0221 83.3967 76.1559 84.9374C75.5917 85.4017 75.2879 85.9616 75.301 86.7298C75.3313 88.7391 75.2923 90.7529 75.3183 92.7666C75.3313 93.6649 75.4312 94.5633 75.4919 95.5051H75.4963Z" fill="white"/>
<path d="M74.763 125.507C74.2899 124.283 75.9955 122.512 77.1977 122.59C77.4711 122.608 77.7662 122.768 77.9876 122.938C78.0483 122.985 77.9268 123.467 77.8443 123.485C77.5579 123.537 77.2541 123.463 76.9547 123.445C76.6856 123.428 76.3731 123.32 76.1561 123.419C75.5876 123.675 75.3966 124.665 75.7482 125.255C76.0997 125.854 76.8809 126.106 77.4103 125.654C78.0266 125.129 78.6516 124.535 79.0508 123.845C81.2642 120.026 84.0548 116.697 87.4399 113.876C87.6786 113.676 87.9129 113.281 88.4077 113.559C88.5119 113.62 88.8851 113.199 89.1368 112.999C89.1889 113.047 89.241 113.095 89.2974 113.142C88.9068 113.585 88.5466 114.058 88.1213 114.47C86.2811 116.246 84.671 118.198 83.4168 120.429C82.9698 121.223 82.6486 122.083 82.2797 122.916C82.2146 123.068 82.2016 123.237 82.1365 123.524C82.5792 123.233 82.8917 122.985 83.2389 122.803C83.803 122.499 84.3933 122.434 84.9141 122.894C85.4435 123.359 85.4826 123.962 85.1962 124.539C84.9358 125.064 84.5582 125.533 84.2414 126.019C85.6345 126.206 86.5372 125.585 86.9278 124.266C87.8001 121.315 89.1845 118.606 90.9422 116.089C91.5281 115.252 92.1704 114.449 92.7954 113.637C92.9342 113.459 93.1122 113.312 93.2727 113.151C93.3292 113.195 93.3812 113.242 93.4377 113.286C93.2467 113.559 93.0688 113.846 92.8648 114.11C91.1679 116.302 89.6619 118.611 88.5422 121.158C88.3383 121.627 88.2558 121.97 88.7289 122.365C89.0153 122.604 89.1368 123.037 89.3191 123.393C89.4536 123.649 89.5578 123.918 89.6836 124.179C90.2131 125.286 90.4475 125.342 91.4153 124.569C91.0811 123.354 91.3675 122.295 92.3353 121.458C92.561 121.262 92.8605 121.106 93.1512 121.041C93.3509 120.998 93.633 121.089 93.7979 121.223C93.8847 121.293 93.863 121.644 93.7632 121.757C93.6243 121.918 93.3205 122.1 93.1686 122.048C92.6304 121.853 92.2398 121.953 92.0011 122.465C91.7625 122.972 92.0055 123.84 92.4699 124.157C92.969 124.5 93.5679 124.543 93.9237 124.066C94.349 123.498 94.6225 122.803 94.9046 122.143C95.0955 121.696 95.1693 121.202 95.3429 120.746C95.4123 120.564 95.5946 120.429 95.6901 120.312C95.5642 122.486 95.4644 124.652 95.3082 126.813C95.178 128.636 94.6832 130.363 93.7718 131.956C93.646 132.177 93.4637 132.364 93.1903 132.529C94.8004 129.747 94.7613 126.683 94.8698 123.615C93.0427 125.589 92.8257 125.672 91.6106 124.843C90.5039 126.128 89.9961 126.266 89.1976 125.52C87.8912 126.805 86.9495 126.614 86.663 125.737C85.4392 126.77 84.0157 126.883 82.5011 126.735C81.6895 126.657 80.8606 126.77 80.0403 126.805C79.6497 126.822 79.2548 126.883 78.8642 126.865C78.1785 126.835 78.1655 126.301 78.1481 125.75C77.2932 126.101 76.551 126.913 75.5615 126.444C75.2274 126.288 75.0321 125.841 74.7717 125.524H74.7804L74.763 125.507ZM87.735 114.223C87.6699 114.214 87.6135 114.193 87.5875 114.21C87.4442 114.319 87.3054 114.431 87.1708 114.544C84.2587 117.027 81.9456 120.008 80.0056 123.289C79.6541 123.879 79.3416 124.504 79.1116 125.147C78.8425 125.893 79.2331 126.288 79.9969 126.101C80.4136 126.002 80.7347 125.815 80.8649 125.312C81.6331 122.382 83.0002 119.752 84.9358 117.426C85.8385 116.341 86.7889 115.295 87.7307 114.219L87.735 114.223ZM81.1036 125.98C81.9369 125.98 82.5141 125.993 83.0956 125.98C83.7596 125.963 84.4193 125.381 84.5452 124.713C84.645 124.157 84.3803 123.758 83.9202 123.493C83.4211 123.211 82.6833 123.38 82.2624 123.966C81.8457 124.548 81.5419 125.212 81.108 125.984L81.1036 125.98ZM88.0214 123.051C87.9303 123.055 87.8435 123.064 87.7524 123.068C87.6612 123.693 87.5397 124.318 87.492 124.951C87.4486 125.498 87.8305 125.654 88.2862 125.55C88.5466 125.49 88.7809 125.29 89.0717 125.129C88.6985 124.387 88.36 123.719 88.0214 123.051Z" fill="white"/>
<path d="M106.084 73.2847H104.274C104.24 73.0156 104.205 72.7596 104.161 72.4037C102.625 73.5017 100.993 73.8662 99.1922 73.4366C98.0335 73.1588 97.2349 72.408 96.5449 71.5097C95.1344 69.6695 95.1214 66.5535 96.5318 64.7394C97.8034 63.0989 100.355 61.7101 104.092 63.5329C104.717 61.6363 104.222 60.3474 102.582 59.3926C103.832 58.7069 105.138 57.9865 106.444 57.2661C106.444 57.2704 106.479 57.3659 106.444 57.4266C105.858 58.5637 105.897 59.7962 105.897 61.0201C105.897 64.1275 105.884 67.2305 105.906 70.3379C105.915 71.3057 106.019 72.2735 106.084 73.2847ZM104.218 68.0073C104.218 67.4475 104.161 66.8833 104.231 66.3321C104.365 65.2645 103.836 64.5962 103.007 64.0754C101.076 62.8689 98.7409 63.1293 97.8555 65.6812C97.2349 67.4605 97.2045 69.2659 97.99 71.0236C98.7799 72.7899 100.39 73.4366 102.122 72.6033C103.428 71.9784 104.465 71.1104 104.231 69.4135C104.166 68.9534 104.222 68.4761 104.222 68.0073H104.218Z" fill="white"/>
<path d="M101.388 92.1026C102.456 91.5471 103.345 91.087 104.135 90.6791C104.031 91.1955 103.771 91.7988 103.819 92.376C103.962 94.1901 105.763 95.3662 107.547 94.9192C108.449 94.6935 109.243 94.2812 109.638 93.4089C110.107 92.3716 109.686 91.1391 108.597 90.627C107.56 90.1409 106.427 89.8719 105.342 89.4769C104.739 89.2599 104.114 89.0516 103.571 88.7261C102.226 87.9189 102.052 86.0788 103.059 84.7421C104.647 82.6372 108.71 82.5721 110.194 83.848C110.828 84.3905 111.227 85.0459 111.366 85.6882C110.515 86.3999 109.764 87.0292 108.892 87.7583C108.979 87.4979 109.035 87.3373 109.092 87.1724C109.408 86.248 109.413 85.3366 108.714 84.5989C107.894 83.7309 106.835 83.7916 105.785 84.0824C104.804 84.3515 104.348 85.1066 104.192 86.0354C104.027 86.9988 104.704 88.0144 105.719 88.3702C106.852 88.7652 108.011 89.0863 109.144 89.4899C109.703 89.6896 110.285 89.9066 110.754 90.2538C112.312 91.4212 112.017 93.7604 110.532 94.7846C109.057 95.8045 107.395 95.887 105.685 95.7958C104.174 95.7177 102.972 95.0494 102.122 93.8385C101.748 93.3047 101.601 92.6147 101.393 92.0982L101.388 92.1026Z" fill="white"/>
<path d="M87.5049 68.9057C87.5049 69.8345 87.4875 70.5202 87.5049 71.2059C87.5222 71.8872 87.5787 72.5729 87.6177 73.2934H85.795C85.795 72.0435 85.795 70.8326 85.795 69.6175C85.7993 68.437 85.8297 67.2565 85.8167 66.0761C85.808 64.9868 85.9121 63.8454 84.6536 63.1987C84.71 63.1206 84.7664 63.0425 84.8185 62.96C85.6214 63.164 86.4242 63.3723 87.3877 63.6154C88.438 62.5391 89.9526 62.4523 91.515 62.717C92.4784 62.8819 93.3247 63.3636 93.6155 64.3662C93.9106 65.373 93.5981 66.2931 92.7605 66.9354C92.218 67.3477 91.5974 67.6819 90.9725 67.9553C90.4126 68.2026 89.792 68.3155 89.3103 68.4587C90.2434 69.1401 91.2416 69.8518 92.218 70.5983C92.5869 70.8804 92.869 71.2797 93.2423 71.5617C93.8672 72.0348 94.5312 72.4601 95.1475 72.8811C94.4357 73.4539 93.6025 73.5581 92.7866 72.9245C91.7884 72.1476 90.8727 71.2623 89.9179 70.429C89.549 70.1079 89.1931 69.7607 88.7852 69.4959C88.451 69.2746 88.0517 69.1531 87.4962 68.9101L87.5049 68.9057ZM87.5266 68.3198C88.9935 68.246 90.2434 67.8815 91.2242 66.8529C91.8622 66.1846 92.0227 65.2732 91.6495 64.5832C90.9595 63.3116 88.7027 63.0512 87.7436 64.1448C87.6351 64.2707 87.5396 64.4573 87.5353 64.6179C87.5179 65.8157 87.5266 67.0179 87.5266 68.3198Z" fill="white"/>
<path d="M84.0415 68.1245C84.0719 71.4315 81.9887 73.5972 78.7598 73.6232C75.5309 73.6492 73.2655 71.3968 73.2438 68.1375C73.2221 65.1907 75.583 62.8211 78.4387 62.6736C81.5678 62.513 84.2238 65.1039 84.0459 68.1245H84.0415ZM82.0799 68.5108C82.145 68.4978 82.2101 68.4804 82.2752 68.4674C82.0495 67.4388 81.9193 66.3799 81.5721 65.3947C81.1425 64.1926 80.1573 63.4808 78.8944 63.3593C77.7226 63.2465 76.7808 63.8063 76.1168 64.7785C75.1707 66.1716 75.0796 67.7209 75.2662 69.331C75.4007 70.4637 75.8651 71.4315 76.6637 72.2214C77.6445 73.1892 79.1634 73.3194 80.2875 72.5339C81.6806 71.5617 82.1103 70.1296 82.0799 68.5108Z" fill="white"/>
<path d="M95.5293 34.8113C94.2056 35.1021 92.9687 34.7549 91.7102 34.4164C90.4256 34.0692 89.1149 33.8261 87.8173 33.5267C87.4006 33.4312 87.1142 33.5701 86.8278 33.8912C84.5059 36.5342 81.8976 38.8561 78.9161 40.7396C78.43 41.0478 77.9092 41.3081 77.4058 41.5902C77.3537 41.5078 77.306 41.4253 77.2539 41.3429C77.5837 41.1215 77.9049 40.8828 78.2477 40.6832C81.4419 38.8127 84.0893 36.3172 86.4762 33.5223C87.0361 32.8627 87.5352 32.1466 87.9909 31.4131C88.1514 31.1527 88.2339 30.5625 88.0994 30.4627C87.8259 30.2631 87.3876 30.2934 87.0144 30.2457C86.9189 30.2327 86.8191 30.2717 86.6759 30.2978C87.1359 29.6294 88.0256 29.2779 88.6809 29.6294C88.9934 29.7987 89.1279 30.3021 89.3449 30.6623C89.7919 30.5538 90.4125 30.3021 91.0462 30.2761C91.7058 30.2457 91.9836 30.6797 92.1615 31.6475C93.1206 31.2135 94.1145 30.3499 95.0693 31.5607C95.5857 32.2204 95.1691 33.058 93.9235 34.156C94.8175 34.6117 96.202 34.3556 96.7098 33.5918C96.8747 33.3444 97.0353 32.9104 96.9268 32.7108C96.8052 32.4938 96.3799 32.4243 96.0718 32.3332C95.8982 32.2855 95.7029 32.3245 95.4642 32.3245C96.1065 31.7603 97.1654 31.5867 97.6949 32.0511C97.9423 32.2681 97.951 32.7542 98.0985 33.2272C98.0595 33.2316 98.22 33.2185 98.3806 33.1925C98.7105 33.1361 99.036 33.0449 99.3658 33.0232C100.008 32.9798 100.572 33.1665 100.893 33.7697C101.202 34.3469 101.089 34.9328 100.707 35.4059C100.047 36.2218 99.1922 36.7165 98.0898 36.6037C97.8772 36.582 97.6559 36.4952 97.4649 36.391C97.1481 36.2218 96.9528 35.9049 97.2653 35.6489C97.4562 35.4927 98.0117 35.4536 98.1072 35.5838C98.4761 36.0829 98.8493 36.2782 99.4005 35.9267C99.8605 35.6359 100.138 34.8417 99.9734 34.3252C99.7824 33.7307 99.292 33.3444 98.6063 33.5744C97.8338 33.8348 97.0526 34.2558 96.445 34.7939C93.815 37.1375 90.9507 39.1121 87.7869 40.6528C86.9493 41.0608 86.0813 41.408 85.2263 41.7725C85.0007 41.868 84.7533 41.9071 84.4625 41.8506C88.6028 40.2015 92.2396 37.8058 95.525 34.8113H95.5293ZM87.7174 32.6804C87.7652 32.7542 87.8129 32.8279 87.865 32.9017C88.1688 32.9408 88.4769 32.9755 88.7807 33.0146C89.1106 33.058 89.4361 33.1144 89.7659 33.1578C90.6469 33.2706 91.2849 32.6066 91.146 31.7299C91.0331 31.0269 90.265 30.5842 89.6965 30.9878C88.989 31.4869 88.3728 32.1119 87.7174 32.6847V32.6804ZM90.9854 33.4182C91.6234 33.6048 92.2136 33.7914 92.8125 33.9433C93.4505 34.1039 93.8888 33.8435 94.1449 33.2446C94.3792 32.6978 94.3705 32.1943 93.8845 31.795C93.3637 31.3654 92.8603 31.5954 92.4436 31.9513C91.9445 32.3809 91.5105 32.8844 90.9854 33.4225V33.4182Z" fill="white"/>
<path d="M74.1119 113.537C70.0063 115.065 66.096 116.714 63.1579 120C63.7178 119.934 64.2385 119.835 64.7637 119.817C65.3496 119.796 65.8096 120.086 66.0396 120.629C66.2826 121.206 66.1307 121.744 65.662 122.135C65.215 122.512 64.7116 122.829 64.2125 123.185C65.0284 123.684 65.9268 123.641 66.8599 123.489C66.3477 124.005 65.6924 123.997 65.0545 124.088C64.4989 124.166 63.9391 124.283 63.4096 124.47C62.0122 124.969 60.6494 125.585 59.2303 126.019C58.3015 126.301 57.5681 125.724 57.6202 124.973C57.6592 124.426 57.9934 124.083 58.4708 123.979C58.9395 123.875 59.469 123.827 59.9247 123.94C60.3022 124.036 60.2805 124.678 59.9073 124.925C59.699 125.064 59.4343 125.108 59.1218 125.09C59.1912 124.999 59.3214 124.899 59.3127 124.821C59.278 124.613 59.2259 124.374 59.0914 124.231C59.0393 124.175 58.6791 124.279 58.5836 124.405C58.2104 124.904 58.4274 125.481 59.0784 125.624C59.4082 125.698 59.8075 125.672 60.12 125.546C61.3482 125.047 62.5547 124.491 63.9521 123.879C62.4245 123.181 61.0791 122.569 59.6556 121.918C59.6469 121.939 59.6947 121.796 59.7815 121.505C59.0306 121.275 58.2929 120.98 57.529 120.837C56.9084 120.72 56.4918 121.124 56.2357 121.688C56.0101 122.178 56.1272 122.608 56.4701 122.977C56.8997 123.441 57.3337 123.354 57.49 122.734C57.6202 122.226 57.8979 122.109 58.358 122.161C58.384 122.243 58.4187 122.308 58.4187 122.369C58.4014 122.977 57.9457 123.432 57.1601 123.641C56.4354 123.832 55.754 123.623 55.4198 123.111C55.0813 122.59 55.1551 121.926 55.6108 121.38C56.3833 120.455 57.9413 120.104 59.1695 120.607C59.6599 120.807 60.1156 121.111 60.6104 121.293C60.797 121.362 61.1659 121.315 61.27 121.18C64.4512 117.174 68.8562 115.104 73.4956 113.39C73.5954 113.351 73.7082 113.342 73.8211 113.333C73.8515 113.333 73.8905 113.381 74.1032 113.542L74.1119 113.537ZM61.487 121.887C61.9688 122.13 62.4028 122.443 62.8845 122.56C63.3489 122.673 63.887 122.686 64.347 122.56C64.9156 122.404 65.2498 121.67 65.1239 121.167C64.9807 120.594 64.4946 120.26 63.7959 120.325C62.7586 120.421 62.1163 121.128 61.487 121.883V121.887Z" fill="white"/>
<path d="M98.1507 46.1037C102.399 45.8781 106.618 45.5222 110.437 43.2828C109.851 43.1656 109.33 43.0962 108.831 42.953C108.297 42.8011 107.963 42.4235 107.911 41.8463C107.859 41.2561 108.093 40.7656 108.627 40.5313C109.2 40.2796 109.825 40.132 110.446 39.9324C109.842 39.1555 108.888 39.021 107.924 38.8995C107.942 38.7997 107.959 38.7042 107.976 38.6044C108.488 38.6434 109.053 38.5566 109.504 38.7432C110.281 39.0687 111.006 38.9342 111.782 38.8517C113.106 38.7129 114.438 38.6868 115.771 38.6217C115.901 38.6174 116.036 38.6478 116.161 38.6868C116.687 38.8517 117.207 39.0601 117.246 39.7024C117.281 40.2666 116.912 40.5921 116.404 40.7743C115.745 41.0087 114.972 40.8741 114.66 40.4792C114.36 40.1016 114.464 39.685 114.924 39.5244C115.146 39.4463 115.393 39.455 115.632 39.429C115.649 39.5288 115.671 39.5765 115.658 39.6112C115.584 39.8456 115.467 40.0756 115.454 40.3143C115.454 40.3751 115.866 40.5617 115.914 40.5139C116.118 40.31 116.374 40.0496 116.391 39.7935C116.435 39.2206 115.979 38.9255 115.493 38.9212C114.521 38.9082 113.549 38.9906 112.581 39.0644C112.051 39.1035 111.526 39.212 110.858 39.3074C112.069 40.4228 113.197 41.46 114.373 42.545C114.412 42.4929 114.339 42.5884 114.191 42.7794C114.725 43.196 115.233 43.656 115.801 44.0119C116.313 44.3331 116.864 44.2549 117.359 43.886C117.802 43.5562 117.993 43.1135 117.824 42.6014C117.745 42.3584 117.507 42.0806 117.277 42.0025C117.129 41.9504 116.778 42.1761 116.669 42.3671C116.387 42.8618 116.062 42.7794 115.675 42.5754C115.84 41.8376 116.183 41.5902 117.016 41.5729C117.954 41.5555 118.605 41.9418 118.761 42.6058C118.913 43.2394 118.592 43.9077 117.988 44.2419C116.877 44.8495 115.228 44.5891 114.191 43.6517C113.783 43.2828 113.406 42.6839 112.95 42.6145C112.529 42.5494 112.008 43.0267 111.552 43.3045C108.258 45.3009 104.613 46.0083 100.841 46.2773C100.13 46.3294 99.418 46.3685 98.7062 46.4032C98.5239 46.4119 98.3417 46.3685 98.1637 46.3468C98.1551 46.2643 98.1464 46.1819 98.1377 46.1037H98.1507ZM112.763 42.1154C112.182 41.5729 111.765 41.1779 111.34 40.796C110.845 40.349 110.038 40.2926 109.487 40.6658C109.035 40.974 108.862 41.408 109.005 41.9418C109.157 42.5016 109.743 42.9182 110.48 42.8011C111.205 42.6839 111.9 42.3844 112.759 42.1154H112.763Z" fill="white"/>
<path d="M40.3083 52.236C39.6443 52.9782 38.8718 53.6726 38.9152 54.8834C38.3727 54.1586 38.4769 53.052 39.219 52.2317C39.5532 51.8628 39.5705 51.5417 39.5098 51.112C39.3145 49.7232 39.1149 48.3345 38.989 46.937C38.9456 46.4423 38.9977 45.8824 39.1973 45.4311C39.3536 45.0795 39.7572 44.6889 40.1174 44.6065C40.6034 44.4936 41.0027 44.8842 41.1199 45.3877C41.211 45.7696 41.2544 46.1819 41.2241 46.5681C41.1893 47.0021 40.8942 47.4014 40.4472 47.2842C40.1868 47.2148 40.0132 46.7764 39.8396 46.4813C39.7832 46.3902 39.8483 46.2253 39.857 46.0951C39.9177 46.0951 39.9872 46.0777 39.9959 46.0907C40.1564 46.4162 40.3864 46.6115 40.725 46.3555C40.8465 46.2643 40.9333 45.8954 40.8986 45.8781C40.6078 45.7001 40.2389 45.3963 39.9828 45.4658C39.3492 45.635 39.232 46.2687 39.2537 46.8285C39.2928 47.7139 39.423 48.5992 39.5488 49.4802C39.6356 50.0921 39.7745 50.6997 39.9091 51.4071C40.9984 50.2136 42.4045 49.337 42.2092 47.4665C42.2656 47.4665 42.3264 47.4665 42.3828 47.4621C42.4523 47.6618 42.5564 47.8527 42.5824 48.0567C42.73 49.2024 42.27 50.1399 41.5365 50.9731C40.9246 51.6675 40.7163 52.4878 40.7987 53.3818C40.942 54.9268 42.1571 55.7818 43.6631 55.4302C45.1039 55.0917 46.2627 53.2169 45.833 51.9279C45.6942 51.52 45.5076 51.2379 44.9954 51.2118C44.7828 51.2031 44.5181 50.9384 44.4052 50.7258C44.3401 50.6042 44.492 50.2006 44.6005 50.1789C44.8435 50.1225 45.2038 50.1355 45.3774 50.2831C46.1976 50.9731 46.3582 51.9496 46.3278 52.9478C46.2844 54.3583 45.6855 55.491 44.4443 56.2071C42.9991 57.0403 41.2675 56.4197 40.7553 54.8226C40.4949 54.0154 40.4559 53.1388 40.3083 52.2404V52.236Z" fill="white"/>
<path d="M104.739 35.3408C106.019 36.352 107.004 37.667 108.827 37.4977C108.289 37.9794 107.625 37.8883 107.047 37.7624C106.483 37.6366 105.906 37.3675 105.446 37.0116C104.552 36.3216 103.58 36.1914 102.543 36.4214C101.332 36.6861 100.642 37.8622 100.924 39.0731C101.28 40.6007 103.12 41.7769 104.478 41.3472C104.956 41.1953 105.316 40.987 105.294 40.3751C105.285 40.1798 105.528 39.9064 105.728 39.8022C105.858 39.7328 106.232 39.8499 106.284 39.9758C106.37 40.1798 106.383 40.579 106.258 40.6789C105.767 41.0695 105.246 41.4861 104.665 41.6857C102.951 42.2803 100.872 41.4383 100.125 39.9367C99.4656 38.6174 99.8258 37.3632 101.084 36.595C101.922 36.0829 102.729 35.8876 104.079 35.9093C103.198 35.1889 102.464 34.425 101.184 34.59C101.614 34.1907 102.373 34.0865 102.994 34.2601C103.059 34.2775 103.133 34.2905 103.181 34.3339C104.344 35.3277 105.589 34.7852 106.822 34.5249C108.02 34.2731 109.2 33.9129 110.45 34.1907C111.027 34.3165 111.496 34.5726 111.513 35.2019C111.531 35.8312 111.062 36.1436 110.515 36.2999C110.263 36.3693 109.986 36.3737 109.721 36.3606C109.157 36.3346 108.675 35.9049 108.814 35.5187C108.996 35.0196 109.417 34.859 109.877 34.9719C109.808 35.2583 109.673 35.5187 109.716 35.7444C109.743 35.8615 110.237 36.0134 110.255 35.9831C110.424 35.7097 110.684 35.3711 110.637 35.1021C110.554 34.6117 110.103 34.373 109.617 34.4424C108.28 34.6377 106.948 34.8807 105.615 35.1107C105.359 35.1541 105.116 35.2409 104.743 35.3408H104.739Z" fill="white"/>
<path d="M74.7541 125.498C73.8601 126.236 72.8836 126.414 71.777 126.01C71.5513 125.928 71.1998 126.01 70.9741 126.132C69.8587 126.739 68.7868 127.421 67.6627 128.002C67.1202 128.284 66.4996 128.436 65.8964 128.584C65.3235 128.723 64.794 128.532 64.5423 127.989C64.2863 127.443 64.5684 126.969 65.0371 126.67C65.3452 126.47 65.7228 126.275 66.0743 126.271C66.3607 126.266 66.6559 126.54 66.9466 126.692C66.7947 126.974 66.6515 127.269 66.4779 127.538C66.4302 127.616 66.2826 127.629 66.1828 127.673C66.1481 127.625 66.096 127.581 66.1047 127.564C66.2522 127.208 66.3564 126.844 65.853 126.722C65.7141 126.687 65.432 126.839 65.3626 126.982C65.1586 127.373 65.1716 127.833 65.623 128.007C65.9702 128.141 66.4736 128.211 66.7817 128.059C68.1879 127.369 69.5506 126.592 71.0739 125.767C69.4377 125.103 68.0794 124.144 66.3738 124.956C66.8164 124.318 67.4674 124.096 68.1271 124.105C68.8258 124.114 69.5419 124.248 70.2146 124.452C71.4558 124.834 73.2308 124.122 73.6778 122.99C74.216 121.618 73.3524 120.134 71.7336 119.678C70.8656 119.435 70.0193 119.388 69.2685 120.021C68.9517 120.286 68.8128 120.568 68.8996 121.015C68.9473 121.258 68.7998 121.571 68.6566 121.801C68.6045 121.883 68.1748 121.866 68.1445 121.792C68.0273 121.536 67.8927 121.193 67.9752 120.959C68.279 120.099 68.9994 119.631 69.798 119.301C71.0348 118.793 72.2761 118.75 73.4391 119.492C75.1664 120.59 75.2532 122.669 73.6084 123.897C73.0095 124.344 72.3108 124.652 71.6164 125.047C72.4236 125.342 73.2178 125.785 74.1769 125.498C74.3549 125.446 74.5632 125.498 74.7628 125.498H74.7585H74.7541Z" fill="white"/>
<path d="M125.323 104.97C125.084 104.745 124.963 104.541 124.841 104.541C124.655 104.541 124.412 104.632 124.294 104.771C124.216 104.866 124.247 105.161 124.342 105.274C124.763 105.786 125.536 105.643 125.714 104.996C125.822 104.602 125.831 104.15 125.77 103.738C125.679 103.122 125.501 102.518 125.336 101.919C125.128 101.147 124.893 100.383 124.637 99.5108C123.691 100.843 122.35 101.88 122.784 103.742C122.715 103.751 122.645 103.76 122.58 103.768C122.48 103.425 122.333 103.087 122.289 102.735C122.155 101.672 122.606 100.8 123.179 99.9361C123.782 99.0291 123.735 98.0179 123.296 97.0631C122.936 96.2819 122.281 95.8566 121.387 95.8262C120.302 95.7872 119.277 96.4295 118.817 97.6013C118.613 98.1177 118.505 98.7209 118.535 99.2721C118.57 99.871 118.883 100.357 119.642 100.348C119.842 100.348 120.098 100.574 120.224 100.765C120.293 100.874 120.198 101.229 120.089 101.282C119.876 101.381 119.581 101.403 119.351 101.347C119.156 101.295 118.969 101.108 118.844 100.934C117.828 99.5629 117.546 97.1369 119.221 95.5571C120.71 94.1467 122.919 94.7326 123.613 96.7289C123.83 97.3495 123.939 98.0049 124.108 98.7079C124.768 97.9137 125.366 97.1412 125.297 96.0259C125.757 96.6855 125.848 97.4928 125.458 98.0569C124.694 99.1636 125.149 100.153 125.423 101.208C125.675 102.176 125.926 103.143 126.091 104.128C126.174 104.619 126.139 105.17 125.987 105.639C125.892 105.934 125.501 106.303 125.219 106.324C124.898 106.351 124.394 106.112 124.251 105.838C124.021 105.4 123.952 104.836 123.965 104.328C123.973 104.115 124.377 103.751 124.598 103.755C124.811 103.755 125.041 104.124 125.223 104.367C125.301 104.471 125.275 104.658 125.319 104.97H125.323Z" fill="white"/>
<path d="M39.6703 96.3687C38.7242 97.6056 37.4005 97.3018 36.1332 97.0848C32.8826 96.5206 29.8707 95.249 26.9196 93.8212C26.8154 93.7691 26.7286 93.6693 26.6982 93.4393C26.9196 93.5087 27.1583 93.5521 27.3623 93.6519C29.9315 94.8931 32.5788 95.9347 35.3868 96.4946C36.1115 96.6378 36.9014 96.6812 37.6218 96.5553C38.0428 96.4815 38.5245 96.0562 38.7415 95.657C38.9759 95.223 38.5766 94.8497 38.1817 94.5893C38.0992 94.5373 38.0515 94.4331 37.9083 94.2508C38.7372 94.3767 39.2015 94.7933 39.6182 95.3358C39.9654 95.7872 40.3516 96.2212 40.7856 96.5857C41.2456 96.972 41.8576 96.985 42.2438 96.5553C42.565 96.1951 42.7646 95.6483 42.8254 95.1622C42.8644 94.8497 42.591 94.4591 42.3784 94.1597C42.0442 93.704 41.6015 93.7648 41.2153 94.1814C41.0287 94.381 40.7379 94.5416 40.4731 94.5807C40.356 94.598 40.0391 94.2161 40.0739 94.0946C40.1563 93.8342 40.4037 93.6215 40.586 93.3915C40.612 93.3611 40.6641 93.3525 40.7075 93.3394C41.4974 93.0226 42.6214 93.4957 43.3679 94.4591C43.9538 95.2186 43.9755 96.1561 43.4243 96.8721C42.9903 97.4363 42.1006 97.6056 41.2847 97.228C40.7422 96.9763 40.2301 96.6595 39.6833 96.36L39.6703 96.3687Z" fill="white"/>
<path d="M90.0784 80.8795C90.0306 79.877 90.0697 78.97 89.9178 78.0976C89.7963 77.3859 89.2364 77.0778 88.5941 77.1342C87.9605 77.1906 87.622 77.5334 87.6133 78.1758C87.6003 79.0437 87.6133 79.9074 87.6133 80.8318H86.8711C86.8711 79.5602 86.8625 78.2973 86.8711 77.0344C86.8755 76.4311 86.9276 75.8322 86.2939 75.4286C86.8061 75.1291 87.2531 74.8644 87.7001 74.604C87.6567 75.472 87.6176 76.3009 87.5786 77.0734C88.2078 76.9823 88.7894 76.8434 89.3709 76.8304C90.074 76.8174 90.5037 77.2904 90.5905 77.9414C90.6946 78.7313 90.6816 79.5341 90.6859 80.3327C90.6859 80.8231 90.4212 81.0054 90.0784 80.8795Z" fill="white"/>
<path d="M67.3591 78.4275C67.3591 77.5682 68.0621 76.8564 68.9258 76.8564C69.7504 76.8564 70.4187 77.4944 70.4404 78.3147C70.4665 79.1913 69.7287 79.9595 68.8607 79.9551C68.0014 79.9508 67.3591 79.2998 67.3547 78.4318L67.3591 78.4275Z" fill="white"/>
<path d="M76.0561 74.5476C76.5422 74.3914 77.063 74.2698 77.5447 74.0615C78.2174 73.7707 78.6644 73.8575 79.1852 74.4999C78.9118 74.63 78.647 74.7516 78.4604 74.8427C78.2651 74.6084 78.0915 74.4044 77.9179 74.2004C77.6792 74.4868 77.2539 74.7559 77.2279 75.0597C77.1411 76.0752 77.1932 77.0995 77.1932 78.1671H78.9508C78.9508 78.2626 78.9508 78.358 78.9508 78.4535C78.5429 78.4535 78.1262 78.5143 77.7356 78.4405C77.2626 78.3494 77.1194 78.5099 77.1411 78.9483C77.1541 79.239 77.1194 79.5298 77.1498 79.8206C77.1975 80.298 76.9935 80.5801 76.5335 80.7363C76.1255 78.6662 76.9588 76.4875 76.0518 74.5606L76.0561 74.5476Z" fill="white"/>
<path d="M73.7343 76.5873C74.8583 76.596 75.8001 77.5638 75.7871 78.7052C75.7697 80.0072 74.8627 80.9142 73.6041 80.8839C72.3238 80.8491 71.4341 79.9334 71.4472 78.6748C71.4602 77.464 72.428 76.5787 73.7386 76.5917L73.7343 76.5873ZM75.1014 78.7877C75.0623 78.7703 75.0233 78.7486 74.9799 78.7313C74.9625 78.5099 74.9582 78.2843 74.9234 78.0673C74.8106 77.4249 74.2551 76.8911 73.6866 76.8608C72.9878 76.826 72.5018 77.1212 72.3802 77.9067C72.2848 78.536 72.2978 79.2521 72.5018 79.8466C72.8056 80.7406 73.8905 80.8839 74.4894 80.1417C74.7889 79.7685 74.9017 79.2434 75.1014 78.792V78.7877Z" fill="white"/>
<path d="M94.8263 77.8155H92.1659C91.8448 78.5707 91.9142 79.239 92.4046 79.8423C93.0686 80.6669 93.9019 80.3804 94.7525 80.0897C94.3836 80.784 93.559 81.0271 92.7258 80.745C91.7623 80.4195 91.133 79.3085 91.298 78.2235C91.4325 77.3251 92.2701 76.6177 93.2162 76.6004C94.1753 76.583 94.6527 76.9172 94.8306 77.8155H94.8263ZM92.2093 77.3642C92.2441 77.4206 92.2744 77.4727 92.3092 77.5291H94.0017C94.0321 77.4597 94.0625 77.3859 94.0929 77.3165C93.776 77.1559 93.4549 76.8608 93.1424 76.8651C92.8256 76.8738 92.5218 77.1819 92.2093 77.3599V77.3642Z" fill="white"/>
<path d="M86.446 77.1342C86.0945 77.1342 85.7473 77.1342 85.3958 77.1342C84.3325 77.1168 83.4471 77.885 83.3386 78.9222C83.2258 79.9855 84.0808 80.719 85.118 80.4456C85.322 80.3935 85.526 80.3284 85.7516 80.3414C85.2482 80.8231 84.6406 80.949 83.9766 80.8144C83.3256 80.6842 82.7875 80.3718 82.6312 79.6774C82.3665 78.4926 83.1303 77.8416 84.1198 77.1602H82.041C82.1886 76.5049 82.4012 76.4311 83.0175 76.6004C83.8074 76.8174 84.6884 76.7262 85.526 76.7696C85.8341 76.787 86.1379 76.8044 86.446 76.8217V77.1385V77.1342Z" fill="white"/>
<path d="M129.402 91.7206C128.582 90.7659 128.656 89.7373 129.073 88.7044C129.363 87.984 129.741 87.2939 130.027 86.5692C130.292 85.9008 130.5 85.2108 130.092 84.5077C130.062 84.4556 130.105 84.3558 130.136 84.1128C130.804 84.9807 130.835 85.814 130.622 86.669C130.492 87.1811 130.275 87.6802 130.053 88.1619C129.541 89.2903 128.843 90.3753 129.398 91.7206H129.402Z" fill="white"/>
<path d="M36.0767 55.3912C35.4388 55.2306 34.8572 55.0918 34.2844 54.9225C34.2149 54.9008 34.1281 54.6578 34.1672 54.5927C34.241 54.4842 34.4102 54.367 34.5274 54.3757C34.7791 54.3974 35.0265 54.4929 35.4214 54.597C35.0265 54.2455 34.7097 54.0111 34.4623 53.716C34.3364 53.5684 34.3364 53.3167 34.28 53.1084C34.51 53.1562 34.7965 53.1345 34.9527 53.2647C35.2305 53.5077 35.4258 53.8419 35.7686 54.2802C35.6428 53.8288 35.5299 53.5511 35.4995 53.2647C35.4865 53.1345 35.6341 52.9869 35.7122 52.848C35.825 52.9348 36.0116 52.9956 36.0464 53.1084C36.2069 53.6292 36.3241 54.1674 36.4673 54.7272C36.1896 54.7012 36.003 54.6795 35.8164 54.6621C35.8901 54.8704 35.9682 55.0744 36.0767 55.3869V55.3912Z" fill="white"/>
<path d="M76.0475 127.959C76.1213 128.519 76.2081 129.074 76.2602 129.634C76.2689 129.734 76.1387 129.942 76.0953 129.938C75.9607 129.916 75.7611 129.842 75.7307 129.747C75.6309 129.435 75.6005 129.105 75.5311 128.731C75.4009 129.165 75.3314 129.586 75.1492 129.951C75.058 130.133 74.7586 130.216 74.5546 130.342C74.5329 130.125 74.4504 129.886 74.5069 129.691C74.5893 129.404 74.7716 129.144 74.9973 128.71C74.6761 128.935 74.5112 129.109 74.3072 129.178C74.1597 129.231 73.9644 129.152 73.7908 129.131C73.8385 128.979 73.8385 128.762 73.9427 128.688C74.3636 128.376 74.8193 128.102 75.275 127.807C75.3488 128.076 75.4052 128.284 75.4616 128.493C75.5181 128.484 75.5745 128.48 75.6309 128.471L75.887 127.933C75.939 127.942 75.9911 127.95 76.0475 127.959Z" fill="white"/>
<path d="M128.304 61.415C128.799 61.1025 129.285 60.7814 129.789 60.4906C129.858 60.4515 130.101 60.534 130.106 60.5774C130.123 60.7336 130.127 60.9723 130.032 61.0461C129.797 61.2371 129.507 61.3542 129.12 61.5669C129.689 61.5148 130.132 61.441 130.574 61.4454C130.752 61.4454 130.93 61.6277 131.108 61.7231C130.934 61.8533 130.77 62.0833 130.587 62.092C130.149 62.1181 129.706 62.0399 129.272 62.0052C129.667 62.2569 130.058 62.513 130.453 62.7647C130.405 62.8515 130.353 62.9383 130.305 63.0251C129.528 63.1683 129.086 62.4653 128.426 62.2049C128.66 62.0139 128.838 61.8707 129.151 61.6103C128.747 61.5799 128.556 61.5669 128.365 61.5539C128.344 61.5061 128.326 61.4541 128.304 61.4063V61.415Z" fill="white"/>
<path d="M81.633 128.64C81.8543 128.501 82.08 128.367 82.4142 128.159C82.54 128.71 82.6876 129.317 82.8134 129.934C82.8221 129.977 82.6485 130.12 82.5878 130.107C82.4532 130.072 82.2796 129.994 82.2232 129.882C82.119 129.673 82.0843 129.426 82.0019 129.135C81.8673 129.612 81.7762 130.046 81.6156 130.45C81.5635 130.58 81.3248 130.632 81.1729 130.723C81.1209 130.55 80.9863 130.359 81.0297 130.211C81.1512 129.769 81.3422 129.343 81.5028 128.909C81.5462 128.823 81.5896 128.731 81.6373 128.645L81.633 128.64Z" fill="white"/>
<path d="M61.0488 31.4609C60.923 31.6085 60.7971 31.756 60.6235 31.9557C60.2894 31.5477 59.9161 31.105 59.5733 30.6407C59.5212 30.5712 59.5646 30.3369 59.634 30.2978C59.7425 30.2327 59.9639 30.2067 60.0376 30.2761C60.2677 30.4888 60.4543 30.7535 60.7147 31.066C60.6279 30.6928 60.515 30.3976 60.4977 30.0982C60.4847 29.8291 60.5584 29.5514 60.6279 29.2866C60.6366 29.2519 60.8969 29.2302 60.91 29.2562C61.0185 29.5253 61.1704 29.8074 61.1747 30.0852C61.1834 30.5452 61.0966 31.0096 61.0488 31.4696V31.4653V31.4609Z" fill="white"/>
<path d="M34.5882 58.7329C34.9615 59.3969 34.8877 60.074 34.5058 60.751C34.1152 61.4497 33.4772 62.0617 33.7506 63.0598C33.2125 62.5217 33.1344 61.8447 33.4859 61.1242C33.6335 60.8248 33.8635 60.5687 33.998 60.2693C34.215 59.7789 34.3843 59.2668 34.5882 58.7329Z" fill="white"/>
<path d="M128.196 96.117C128.487 95.7264 128.113 95.5181 127.814 95.1318C128.565 95.2143 129.164 95.2707 129.754 95.3619C129.823 95.3705 129.923 95.5788 129.901 95.6787C129.884 95.7741 129.741 95.8957 129.641 95.913C129.407 95.9477 129.168 95.926 128.76 95.926C129.12 96.1647 129.394 96.2819 129.572 96.4816C129.754 96.6812 129.841 96.9633 129.971 97.2063C129.706 97.1412 129.402 97.1369 129.19 96.998C128.83 96.7593 128.521 96.4338 128.192 96.143V96.1257L128.196 96.117Z" fill="white"/>
<path d="M101.492 31.6605H100.577C100.659 31.1831 100.755 30.5972 100.876 30.0157C100.889 29.9462 101.076 29.8464 101.132 29.8725C101.254 29.9332 101.419 30.0504 101.432 30.1589C101.462 30.4106 101.41 30.671 101.388 31.0225C101.64 30.6884 101.801 30.3846 102.048 30.1763C102.213 30.0374 102.495 30.0287 102.721 29.9636C102.669 30.1763 102.677 30.4323 102.551 30.5885C102.278 30.9314 101.935 31.2178 101.618 31.5303C101.575 31.5737 101.536 31.6171 101.492 31.6648V31.6605Z" fill="white"/>
<path d="M107.92 121.262C108.041 121.614 108.189 121.961 108.271 122.321C108.328 122.569 108.28 122.834 108.28 123.189C107.303 122.894 107.698 122.07 107.429 121.505C107.347 121.779 107.299 122.052 107.173 122.287C107.095 122.439 106.904 122.53 106.761 122.647C106.705 122.469 106.57 122.274 106.605 122.122C106.718 121.631 106.891 121.158 107.039 120.698C107.321 120.824 107.56 120.928 107.798 121.032C107.837 121.111 107.881 121.193 107.92 121.271V121.262Z" fill="white"/>
<path d="M121.916 105.864C121.942 106.945 123.422 107.344 123.196 108.59C122.241 108.108 121.595 106.771 121.916 105.864Z" fill="white"/>
<path d="M122.502 104.992C122.949 105.608 123.431 106.238 123.856 106.897C123.956 107.049 123.869 107.323 123.869 107.553C122.919 107.188 122.233 105.834 122.502 104.992Z" fill="white"/>
<path d="M45.8504 115.252C45.4294 115.486 45.0258 115.746 44.5875 115.937C44.4356 116.002 44.2056 115.89 44.0103 115.859C44.0884 115.677 44.1231 115.391 44.2576 115.33C44.7177 115.121 45.2081 114.983 45.6985 114.844C45.7506 114.831 45.8591 115.017 45.9372 115.113C45.9068 115.161 45.8808 115.204 45.8504 115.252Z" fill="white"/>
<path d="M107.92 121.262C107.881 121.184 107.837 121.102 107.798 121.024C107.746 120.82 107.694 120.616 107.642 120.412C107.685 120.377 107.729 120.347 107.768 120.312C108.202 120.724 108.636 121.132 109.057 121.558C109.109 121.61 109.092 121.827 109.048 121.848C108.927 121.913 108.723 121.983 108.64 121.922C108.376 121.731 108.154 121.484 107.916 121.258L107.92 121.262Z" fill="white"/>
<path d="M61.0488 31.4652C61.1877 31.0833 61.2919 30.6797 61.4828 30.3238C61.5826 30.1372 61.8344 30.0374 62.021 29.8985C62.0253 30.1155 62.0947 30.3585 62.021 30.5495C61.8561 30.9748 61.6174 31.3741 61.383 31.8384C61.2398 31.6735 61.1443 31.5694 61.0532 31.4609V31.4652H61.0488Z" fill="white"/>
<path d="M45.8503 115.252C45.8807 115.204 45.9067 115.161 45.9371 115.113C46.1454 115.013 46.3581 114.913 46.7573 114.718C46.3624 115.417 46.0716 115.946 45.7591 116.463C45.7244 116.523 45.5074 116.562 45.4727 116.523C45.3816 116.419 45.2557 116.228 45.2991 116.146C45.451 115.833 45.6637 115.547 45.8503 115.252Z" fill="white"/>
<path d="M128.196 96.117V96.1343C128.387 96.4815 128.595 96.8201 128.751 97.1803C128.795 97.2801 128.721 97.4971 128.63 97.5665C128.565 97.6143 128.3 97.5448 128.261 97.4624C128.027 96.9372 127.831 96.3991 127.627 95.8653L127.814 95.7568C127.94 95.8783 128.07 95.9955 128.196 96.117Z" fill="white"/>
<path d="M81.6331 128.64C81.5897 128.727 81.5463 128.818 81.4985 128.905C81.2642 129.131 81.0429 129.374 80.7868 129.573C80.687 129.652 80.5134 129.63 80.3702 129.656C80.3702 129.495 80.2964 129.27 80.3745 129.183C80.7477 128.788 81.1687 128.432 81.568 128.063C81.6244 128.089 81.6808 128.12 81.7372 128.146L81.6287 128.636L81.6331 128.64Z" fill="white"/>
<path d="M46.2019 114.592C45.6247 114.653 45.0475 114.727 44.4659 114.761C44.3704 114.766 44.2619 114.579 44.1621 114.479C44.2836 114.379 44.4051 114.184 44.5223 114.188C45.0778 114.206 45.629 114.271 46.1802 114.323C46.1845 114.414 46.1932 114.505 46.1975 114.596L46.2019 114.592Z" fill="white"/>
<path d="M101.492 31.6605C101.536 31.6171 101.575 31.5737 101.618 31.526C101.944 31.4001 102.265 31.2439 102.603 31.1615C102.734 31.1311 102.903 31.2613 103.055 31.3177C102.972 31.4479 102.916 31.6562 102.799 31.6996C102.291 31.8862 101.766 32.0294 101.163 32.0642C101.271 31.9296 101.384 31.7951 101.492 31.6562V31.6605Z" fill="white"/>
<path d="M28.8032 75.8799C29.324 76.1794 29.8491 76.4745 30.3699 76.774C29.5714 76.9345 28.8206 76.5309 28.8032 75.8799Z" fill="white"/>
<path d="M32.1578 59.0888C32.6786 59.1713 32.8696 59.3709 33.4338 60.4212C33.3904 60.4646 33.347 60.508 33.3036 60.5557C32.8652 60.126 32.4313 59.7007 31.9929 59.2711C32.0493 59.2103 32.1014 59.1496 32.1578 59.0931V59.0888Z" fill="white"/>
<path d="M30.2484 80.6061C29.6885 80.3631 29.1287 80.1244 28.5688 79.8814C28.6079 79.7859 28.647 79.6947 28.686 79.5993C29.3804 79.5038 29.8014 80.0853 30.3526 80.3414C30.3178 80.4282 30.2788 80.515 30.2441 80.6018L30.2484 80.6061Z" fill="white"/>
<path d="M115.189 48.5471C114.968 48.2694 114.69 48.0524 114.729 47.9352C114.794 47.7356 115.037 47.5186 115.241 47.4708C115.35 47.4448 115.645 47.7573 115.658 47.9265C115.667 48.0871 115.415 48.265 115.194 48.5471H115.189Z" fill="white"/>
<path d="M57.2556 117.682C57.0386 117.352 56.8129 117.161 56.839 117.009C56.8694 116.831 57.1167 116.684 57.273 116.528C57.4292 116.684 57.6853 116.831 57.707 117.005C57.7287 117.161 57.49 117.352 57.2599 117.682H57.2556Z" fill="white"/>
<path d="M18.8221 17.8871L16.9624 16.0275L15.1027 17.8871L16.9624 19.7468L18.8221 17.8871Z" fill="white"/>
<path d="M139.212 17.8878L137.352 16.0281L135.493 17.8878L137.352 19.7474L139.212 17.8878Z" fill="white"/>
<path d="M18.8238 138.075L16.9641 136.215L15.1044 138.075L16.9641 139.935L18.8238 138.075Z" fill="white"/>
<path d="M139.214 138.076L137.354 136.216L135.494 138.076L137.354 139.935L139.214 138.076Z" fill="white"/>
</g>
<defs>
<clipPath id="clip0_26_287">
<rect width="136" height="136" fill="white" transform="translate(9 10)"/>
</clipPath>
</defs>
</svg>
