<svg width="101" height="87" viewBox="0 0 101 87" fill="none" xmlns="http://www.w3.org/2000/svg">
<path d="M12.3476 57.575C16.574 60.0328 19.3258 63.8826 22.4922 67.2842C25.0538 70.034 28.0843 72.0437 31.8146 73.456C31.9573 72.6073 32.1816 71.874 32.1884 71.1407C32.2223 66.9787 32.1884 62.8234 32.2155 58.6613C32.2291 56.7602 31.2099 55.572 29.6607 54.6079H35.4159C35.4159 55.8368 35.4159 57.1065 35.4159 58.3762C35.4159 62.7012 35.3887 67.0262 35.4227 71.3512C35.4227 72.0573 35.6877 72.7634 35.8575 73.6189C35.2664 73.6189 34.6277 73.6189 33.9822 73.6189C30.5508 73.6189 27.1262 73.6257 23.6949 73.5782C23.294 73.5782 22.7844 73.2863 22.5126 72.9739C18.9929 68.9205 15.5276 64.8195 12.0011 60.7729C11.3895 60.0736 10.6149 59.4829 9.82675 58.9872C8.88227 58.3829 8.31151 58.7428 8.31151 59.8427C8.31151 63.3733 8.29792 66.904 8.36587 70.4278C8.38625 71.453 8.67843 72.4783 8.8483 73.5578H4.0376C4.18708 71.6092 4.43849 69.6809 4.45208 67.7595C4.49964 60.8001 4.4249 53.8474 4.49285 46.888C4.52003 44.0296 3.52799 41.8026 1.1702 40.1867C1.02751 40.0916 0.857643 40.0441 0.531494 39.9015C3.39889 39.0528 6.46333 40.2478 7.71357 42.4816C9.84034 40.499 12.3272 39.2157 15.2082 38.883C18.1843 38.5368 21.0517 38.8355 23.0766 41.4427C24.884 43.7716 24.7005 47.3226 22.7368 50.1539C21.0042 52.6525 18.6124 54.377 15.9828 55.8029C14.8209 56.4343 13.6046 56.9639 12.3272 57.5818L12.3476 57.575ZM8.31151 56.93C12.2525 55.7078 15.9828 54.5672 18.5716 51.3353C19.8898 49.6922 20.447 47.7707 20.3587 45.6727C20.2635 43.3438 18.8502 41.4903 16.5808 41.1915C14.9568 40.981 13.2173 41.0286 11.6274 41.3884C9.81995 41.8026 8.16882 43.1605 8.27754 45.8085C8.39985 48.8774 8.30472 51.9599 8.30472 55.0356C8.30472 55.5856 8.30472 56.1424 8.30472 56.93H8.31151Z" fill="white"/>
<path d="M80.343 57.5139C80.5604 58.3897 80.9273 59.2588 80.9613 60.1414C81.1923 65.7701 81.0225 71.3851 79.3645 76.8304C78.4676 79.7839 77.2242 82.6288 74.5946 84.5095C71.4894 86.7365 68.0309 86.594 64.7626 84.6521C63.5735 83.946 62.5814 82.8936 61.5962 82.0721C63.3085 80.0216 64.8237 78.202 66.3322 76.3891C66.4137 76.4366 66.4952 76.491 66.5768 76.5385C66.3458 77.6113 66.0943 78.684 65.8837 79.7568C65.3945 82.2486 67.5145 84.7404 70.0761 84.7404C72.4203 84.7404 73.9967 83.4775 75.2401 81.6715C76.9116 79.2476 78.0939 73.7276 77.5979 70.7197C76.5039 71.487 75.4575 72.3289 74.316 73.0079C71.7544 74.522 69.0161 74.8682 66.1555 73.972C63.4987 73.1437 62.0718 71.1747 61.5894 68.5946C60.9643 65.288 61.5554 62.1851 63.9472 59.639C65.544 57.9416 67.4669 56.6855 69.6888 55.7418H61.2157C61.3312 54.5264 63.3425 52.5167 64.5315 52.4623C64.783 52.4488 65.1023 52.6864 65.2926 52.9037C66.3118 54.0783 67.6503 54.4789 69.1316 54.4857C72.6309 54.506 76.1302 54.506 79.6295 54.5128C80.0101 54.5128 80.3906 54.5128 80.8186 54.5128C80.7303 55.4294 80.3158 55.735 79.4461 55.7621C77.0068 55.8368 74.5267 55.7621 72.1485 56.2102C68.2075 56.9571 64.0016 61.7981 64.7558 67.0601C65.0412 69.0699 65.6867 70.7741 67.3174 71.9962C69.2403 73.4356 71.7408 73.422 73.6365 71.9487C76.7961 69.4976 78.4201 66.1028 79.3238 62.3277C79.6907 60.7933 79.7722 59.1909 79.9829 57.6157C80.1052 57.5817 80.2275 57.541 80.3498 57.5071L80.343 57.5139Z" fill="white"/>
<path d="M39.6762 34.687C39.0443 36.5134 38.4939 38.1022 37.9164 39.7725C32.7184 38.2448 27.398 39.046 22.1049 38.4756C23.3959 35.6376 22.8252 32.6976 22.8523 29.8324C22.9339 22.2144 22.8387 14.5964 22.8795 6.9784C22.8931 4.4187 21.738 2.68733 19.5433 1.5263C19.2579 1.37693 18.9793 1.2004 18.7483 0.854126H26.0595V2.68054C26.0595 13.5847 26.0595 24.4821 26.0595 35.3863C26.0595 36.9751 26.6031 37.5115 28.2406 37.5794C32.2359 37.7288 35.9798 36.8937 39.6762 34.687Z" fill="white"/>
<path d="M43.7395 73.5781H39.9208C40.0635 72.1319 40.3013 70.6993 40.3149 69.2735C40.3421 65.9873 40.2809 62.7079 40.213 59.4217C40.1722 57.4255 39.1938 55.9929 37.4339 55.0831C37.3388 55.0356 37.2573 54.9745 37.1757 54.9066C37.135 54.8658 37.1146 54.7979 37.0466 54.6893C39.1394 54.4245 41.1982 54.1665 43.3862 53.8949C43.4269 54.7164 43.4677 55.4905 43.5017 56.1898C45.0916 55.5516 46.5933 54.7843 48.1833 54.3498C52.9192 53.0598 57.0165 55.8435 57.8862 60.9969C58.5521 64.9077 58.3618 68.8322 57.5669 72.7294C57.431 73.3948 57.1796 73.6936 56.4661 73.6324C55.7391 73.5713 55.0052 73.6189 54.3869 73.6189C54.7198 71.548 55.1751 69.5519 55.3382 67.5285C55.5692 64.5954 55.3993 61.6623 53.9724 58.9736C52.165 55.5652 47.694 54.635 44.7723 57.0453C43.889 57.7718 43.4133 58.6477 43.4337 59.8494C43.4813 62.993 43.4201 66.1435 43.4609 69.2939C43.4813 70.6993 43.6376 72.1048 43.7327 73.5781H43.7395Z" fill="white"/>
<path d="M91.6291 38.8152H88.7957C88.7413 38.3942 88.6869 37.9936 88.619 37.4369C86.2136 39.1546 83.6588 39.725 80.839 39.0528C79.0248 38.6183 77.7745 37.4436 76.6942 36.0382C74.4859 33.1594 74.4655 28.2844 76.6738 25.4463C78.6646 22.8798 82.66 20.7071 88.5103 23.5588C89.4887 20.5917 88.7141 18.5752 86.1457 17.0815C88.1026 16.0087 90.1478 14.8816 92.193 13.7545C92.193 13.7613 92.2474 13.9107 92.193 14.0057C91.2758 15.7846 91.3369 17.7129 91.3369 19.6276C91.3369 24.489 91.3165 29.3436 91.3505 34.205C91.3641 35.7191 91.5272 37.2332 91.6291 38.8152ZM88.7073 30.5589C88.7073 29.6831 88.619 28.8004 88.7277 27.9381C88.9384 26.2679 88.1094 25.2223 86.8116 24.4075C83.7879 22.52 80.1323 22.9273 78.7462 26.9197C77.7745 29.7034 77.727 32.5279 78.9568 35.2777C80.1935 38.0411 82.7143 39.0528 85.4255 37.7492C87.4707 36.7715 89.0946 35.4135 88.7277 32.7588C88.6258 32.0391 88.7141 31.2922 88.7141 30.5589H88.7073Z" fill="white"/>
<path d="M84.2771 68.2619C85.9486 67.3928 87.3415 66.6731 88.5782 66.0349C88.4151 66.8429 88.0074 67.7866 88.0822 68.6896C88.3064 71.5277 91.1262 73.3677 93.9189 72.6684C95.3322 72.3153 96.5756 71.6703 97.194 70.3056C97.9278 68.6829 97.2687 66.7546 95.5632 65.9534C93.9393 65.193 92.1658 64.772 90.4671 64.1541C89.5227 63.8147 88.5442 63.4888 87.6949 62.9795C85.5885 61.7167 85.3167 58.8378 86.8931 56.7466C89.38 53.4536 95.7399 53.3518 98.0637 55.348C99.0557 56.1967 99.6809 57.2219 99.8983 58.2268C98.5665 59.3403 97.391 60.3248 96.0253 61.4654C96.1612 61.0581 96.2495 60.8068 96.3378 60.5488C96.8338 59.1026 96.8406 57.6768 95.7467 56.5226C94.4625 55.1646 92.8045 55.2597 91.1602 55.7146C89.6246 56.1356 88.9111 57.317 88.6665 58.77C88.4083 60.2773 89.4683 61.866 91.0583 62.4228C92.8317 63.0406 94.6459 63.5431 96.4194 64.1745C97.2959 64.4868 98.2064 64.8263 98.9402 65.3695C101.38 67.1959 100.918 70.8555 98.5937 72.4579C96.2835 74.0535 93.6811 74.1825 91.0039 74.0399C88.6393 73.9177 86.7572 72.8721 85.4254 70.9778C84.8411 70.1426 84.61 69.0631 84.2839 68.2551L84.2771 68.2619Z" fill="white"/>
<path d="M62.5339 31.9644C62.5339 33.4173 62.5067 34.4901 62.5339 35.5629C62.5611 36.6289 62.6494 37.7016 62.7105 38.8287H59.8567C59.8567 36.8733 59.8567 34.979 59.8567 33.0779C59.8635 31.2311 59.9111 29.3843 59.8907 27.5375C59.8771 25.8333 60.0402 24.0476 58.0697 23.036C58.158 22.9137 58.2464 22.7915 58.3279 22.6625C59.5849 22.9816 60.842 23.3075 62.3504 23.6878C63.9947 22.0039 66.3661 21.8681 68.8122 22.2823C70.3207 22.5403 71.6457 23.294 72.1009 24.8624C72.563 26.4376 72.0737 27.877 70.7623 28.8819C69.913 29.5269 68.9413 30.0497 67.9629 30.4774C67.0864 30.8644 66.1147 31.041 65.3605 31.265C66.8214 32.331 68.3842 33.4445 69.913 34.6123C70.4906 35.0537 70.9322 35.6783 71.5166 36.1196C72.495 36.8597 73.5346 37.5251 74.4995 38.1837C73.3851 39.0799 72.0805 39.2429 70.8031 38.2516C69.2403 37.0362 67.8066 35.6511 66.3118 34.3475C65.7342 33.8451 65.177 33.3019 64.5383 32.8878C64.0151 32.5415 63.39 32.3514 62.5203 31.9712L62.5339 31.9644ZM62.5678 31.0478C64.8645 30.9323 66.8214 30.362 68.357 28.7529C69.3558 27.7072 69.6072 26.2814 69.0229 25.2019C67.9425 23.2125 64.4092 22.8051 62.9076 24.5161C62.7377 24.713 62.5882 25.005 62.5814 25.2562C62.5543 27.1301 62.5678 29.0109 62.5678 31.0478Z" fill="white"/>
<path d="M57.1184 30.749C57.166 35.9227 53.9045 39.3107 48.8492 39.3515C43.7938 39.3922 40.247 35.8684 40.213 30.7694C40.179 26.1592 43.8754 22.452 48.3463 22.2212C53.2454 21.97 57.4038 26.0234 57.1252 30.749H57.1184ZM54.0472 31.3533C54.1491 31.3329 54.251 31.3057 54.3529 31.2854C53.9996 29.6762 53.7958 28.0195 53.2522 26.4783C52.5795 24.5975 51.0371 23.484 49.0598 23.2939C47.2252 23.1174 45.7507 23.9933 44.7111 25.5142C43.2299 27.6936 43.0872 30.1175 43.3794 32.6365C43.59 34.4086 44.317 35.9227 45.5673 37.1584C47.1029 38.6725 49.4811 38.8762 51.2409 37.6473C53.422 36.1264 54.0947 33.8858 54.0472 31.3533Z" fill="white"/>
<path d="M66.5699 50.7038C66.4952 49.1354 66.5564 47.7164 66.3185 46.3517C66.1283 45.2382 65.2518 44.7561 64.2461 44.8444C63.2541 44.9326 62.7241 45.469 62.7105 46.4739C62.6901 47.8318 62.7105 49.183 62.7105 50.6291H61.5486C61.5486 48.6398 61.535 46.664 61.5486 44.6882C61.5554 43.7444 61.6369 42.8075 60.6449 42.176C61.4467 41.7075 62.1465 41.2934 62.8464 40.886C62.7785 42.2439 62.7173 43.5407 62.6562 44.7493C63.6414 44.6067 64.5519 44.3894 65.4624 44.3691C66.5632 44.3487 67.2358 45.0888 67.3717 46.1072C67.5348 47.343 67.5144 48.599 67.5212 49.8483C67.5212 50.6156 67.1067 50.9007 66.5699 50.7038Z" fill="white"/>
<path d="M30.9992 46.8676C30.9992 45.5233 32.1 44.4098 33.4521 44.4098C34.7431 44.4098 35.7895 45.4079 35.8235 46.6911C35.8643 48.0626 34.7092 49.2644 33.3502 49.2576C32.0049 49.2508 30.9992 48.2324 30.9924 46.8744L30.9992 46.8676Z" fill="white"/>
<path d="M44.616 40.7977C45.3771 40.5533 46.1924 40.3632 46.9467 40.0373C47.9998 39.5824 48.6997 39.7182 49.5151 40.723C49.087 40.9267 48.6725 41.1168 48.3804 41.2594C48.0746 40.8928 47.8028 40.5736 47.531 40.2545C47.1573 40.7027 46.4914 41.1236 46.4506 41.5989C46.3147 43.1877 46.3963 44.79 46.3963 46.4603H49.1482C49.1482 46.6097 49.1482 46.759 49.1482 46.9084C48.5095 46.9084 47.8572 47.0035 47.2456 46.888C46.505 46.7454 46.2808 46.9967 46.3147 47.6824C46.3351 48.1373 46.2808 48.5922 46.3283 49.0471C46.4031 49.794 46.0837 50.2353 45.3635 50.4798C44.7248 47.2411 46.0294 43.8327 44.6093 40.8181L44.616 40.7977Z" fill="white"/>
<path d="M40.9809 43.9889C42.7407 44.0025 44.2152 45.5166 44.1948 47.3022C44.1676 49.3391 42.7475 50.7582 40.777 50.7107C38.7725 50.6563 37.3796 49.2237 37.4 47.2547C37.4204 45.3604 38.9356 43.9753 40.9876 43.9957L40.9809 43.9889ZM43.1212 47.4312C43.06 47.4041 42.9989 47.3701 42.9309 47.343C42.9038 46.9967 42.897 46.6437 42.8426 46.3042C42.666 45.2993 41.7962 44.4642 40.9061 44.4166C39.8121 44.3623 39.0511 44.824 38.8609 46.0529C38.7114 47.0375 38.7318 48.1577 39.0511 49.0879C39.5268 50.4866 41.2255 50.7107 42.1631 49.5496C42.632 48.9657 42.8086 48.1442 43.1212 47.438V47.4312Z" fill="white"/>
<path d="M74.0034 45.9036H69.8382C69.3354 47.085 69.4441 48.1306 70.212 49.0743C71.2516 50.3644 72.5561 49.9163 73.8879 49.4614C73.3104 50.5477 72.0194 50.9279 70.7148 50.4866C69.2063 49.9774 68.2211 48.2392 68.4793 46.5418C68.6899 45.1363 70.0013 44.0296 71.4826 44.0025C72.9842 43.9753 73.7317 44.4981 74.0102 45.9036H74.0034ZM69.9062 45.1974C69.9605 45.2857 70.0081 45.3672 70.0625 45.4555H72.7124C72.76 45.3468 72.8076 45.2314 72.8551 45.1228C72.3591 44.8715 71.8563 44.4098 71.3671 44.4166C70.8711 44.4302 70.3954 44.9123 69.9062 45.1907V45.1974Z" fill="white"/>
<path d="M60.8759 44.8375C60.3256 44.8375 59.782 44.8375 59.2316 44.8375C57.5669 44.8104 56.1808 46.0121 56.0109 47.6349C55.8342 49.2983 57.1728 50.4458 58.7967 50.018C59.1161 49.9366 59.4355 49.8347 59.7888 49.8551C59.0006 50.6087 58.0493 50.8056 57.0097 50.5952C55.9905 50.3915 55.148 49.9026 54.9033 48.8163C54.4889 46.9627 55.6847 45.9442 57.2339 44.8783H53.9792C54.2103 43.853 54.5432 43.7376 55.5081 44.0024C56.7447 44.3419 58.1241 44.1993 59.4355 44.2672C59.9179 44.2943 60.3935 44.3215 60.8759 44.3487V44.8443V44.8375Z" fill="white"/>
</svg>
