<svg width="44" height="44" viewBox="0 0 44 44" fill="none" xmlns="http://www.w3.org/2000/svg">
<path d="M0 22.97V21.28C0.33 20.51 0.91 20.23 1.74 20.26C3.36 20.3 4.98 20.27 6.6 20.27C7.55 20.27 8.06 20.8 8.12 21.75C8.17 22.63 8.22 23.53 8.41 24.39C10.03 31.86 17.22 36.44 24.68 34.79C31.75 33.22 36.41 25.93 34.86 18.86C33.05 10.62 24.57 6.04 16.69 9.05C15.38 9.55 14.19 10.26 13.09 11.17C13.99 12.08 14.87 12.96 15.76 13.85C16.22 14.31 16.36 14.85 16.13 15.39C15.88 15.95 15.44 16.23 14.83 16.23C11.25 16.23 7.68 16.23 4.1 16.23C3.29 16.23 2.72 15.66 2.71 14.85C2.71 14.39 2.71 13.92 2.71 13.46C2.71 10.38 2.71 7.3 2.71 4.21C2.71 3.53 3.01 3.04 3.55 2.83C4.14 2.6 4.65 2.76 5.09 3.2C5.83 3.95 6.57 4.69 7.33 5.45C7.51 5.3 7.66 5.17 7.81 5.04C10.77 2.55 14.14 0.97 17.94 0.33C18.71 0.2 19.49 0.11 20.27 0C21.17 0 22.07 0 22.97 0C23.69 0.09 24.42 0.16 25.14 0.28C30.31 1.18 34.65 3.59 38.04 7.59C42.33 12.66 43.98 18.53 42.95 25.08C42.05 30.76 39.22 35.38 34.64 38.85C29.94 42.41 24.6 43.79 18.75 43.04C14.42 42.48 10.61 40.72 7.34 37.82C3.58 34.48 1.24 30.34 0.34 25.39C0.19 24.59 0.11 23.78 0 22.97Z" fill="white"/>
</svg>
