<svg width="370" height="370" viewBox="0 0 370 370" fill="none" xmlns="http://www.w3.org/2000/svg">
<g clip-path="url(#clip0_40_124)">
<path d="M185.008 370.016C287.185 370.016 370.016 287.185 370.016 185.008C370.016 82.8309 287.185 0 185.008 0C82.8309 0 0 82.8309 0 185.008C0 287.185 82.8309 370.016 185.008 370.016Z" fill="#E38425"/>
<path d="M185.008 321.061C260.148 321.061 321.062 260.148 321.062 185.008C321.062 109.868 260.148 48.9544 185.008 48.9544C109.868 48.9544 48.9545 109.868 48.9545 185.008C48.9545 260.148 109.868 321.061 185.008 321.061Z" fill="#F2BE4B"/>
<path d="M185.008 294.825C245.658 294.825 294.825 245.658 294.825 185.008C294.825 124.358 245.658 75.1908 185.008 75.1908C124.358 75.1908 75.1909 124.358 75.1909 185.008C75.1909 245.658 124.358 294.825 185.008 294.825Z" fill="#EFC878"/>
<path d="M185.008 264.083C228.68 264.083 264.083 228.68 264.083 185.008C264.083 141.336 228.68 105.933 185.008 105.933C141.336 105.933 105.933 141.336 105.933 185.008C105.933 228.68 141.336 264.083 185.008 264.083Z" fill="#FCF8C4"/>
<path d="M77.1012 330.216C76.7669 331.632 76.0505 332.811 75.2227 333.925C74.7769 333.591 74.3311 333.272 73.8854 332.938C74.9043 331.983 75.955 331.075 77.1012 330.216Z" fill="#171B23"/>
<path d="M15.5063 239.121C13.1978 239.694 10.8894 240.267 8.581 240.824C8.51732 240.649 8.45364 240.474 8.40588 240.299C10.0934 239.932 11.781 239.55 13.4844 239.184C14.1212 239.041 14.7739 238.945 15.5063 239.121Z" fill="#171B23"/>
<path d="M60.7354 315.091C59.5095 316.27 58.2837 317.448 57.0578 318.642C56.819 318.403 56.5802 318.164 56.3414 317.925C57.7424 316.906 59.1275 315.872 60.5284 314.853C60.5921 314.932 60.6558 315.012 60.7354 315.091Z" fill="#171B23"/>
<path d="M67.2944 230.126C48.827 236.844 30.3437 243.562 11.8445 250.281C10.7779 247.431 9.75899 244.533 8.8197 241.604C28.29 237.688 47.7444 233.771 67.2148 229.855C67.2148 229.951 67.2625 230.046 67.2944 230.126Z" fill="#171B23"/>
<path d="M77.6903 258.639C76.4963 259.451 75.2705 260.247 74.0924 261.074C60.3055 270.818 45.9297 279.621 31.4423 288.218C29.8981 285.942 28.4175 283.633 27.0006 281.293C37.2054 276.66 47.4102 272.043 57.615 267.411C58.013 267.236 58.427 267.092 58.9842 267.204C57.6787 268.079 56.3733 268.971 55.0678 269.846C55.1156 269.926 55.1633 269.99 55.2111 270.053C62.598 266.073 69.9691 262.077 77.356 258.081C77.4675 258.272 77.5789 258.448 77.6903 258.639Z" fill="#171B23"/>
<path d="M55.1156 252.541C43.4938 258.097 31.8562 263.638 20.2186 269.194C19.4704 267.745 18.754 266.28 18.0535 264.816C30.3757 260.66 42.6978 256.489 55.02 252.334C55.0519 252.398 55.0837 252.478 55.1156 252.541Z" fill="#171B23"/>
<path d="M104.15 270.802C88.9936 287.741 72.6595 302.913 55.4339 317.05C53.3165 314.98 51.2628 312.847 49.241 310.682C53.428 307.275 57.615 303.852 61.8816 300.556C68.6635 295.319 75.557 290.208 82.5777 285.273C89.5189 280.386 96.683 275.801 104.15 270.802Z" fill="#171B23"/>
<path d="M46.6301 290.543C43.653 292.66 40.6601 294.777 37.6671 296.895C37.3487 296.481 37.0303 296.083 36.7278 295.669C39.5138 294.109 42.3158 292.564 45.1018 291.004C45.5475 290.75 46.0251 290.543 46.6301 290.543Z" fill="#171B23"/>
<path d="M115.485 305.651C110.072 313.961 103.974 321.842 98.275 329.977C99.0233 329.213 99.7715 328.448 100.52 327.684C100.568 327.716 100.615 327.748 100.663 327.78C97.1288 333.129 93.5945 338.462 90.0602 343.811C88.7229 343.015 87.3857 342.188 86.0802 341.36C86.1757 341.216 86.2712 341.089 86.3668 340.946C93.5945 330.614 100.631 320.138 108.002 309.901C115.294 299.776 121.614 288.951 129.813 279.494C130.083 279.669 130.37 279.86 130.641 280.035C125.626 288.584 120.898 297.341 115.485 305.651Z" fill="#171B23"/>
<path d="M140.272 310.602C133.968 326.649 127.664 342.713 121.343 358.76C120.516 358.458 119.688 358.139 118.876 357.821C125.833 342.012 132.79 326.188 139.747 310.379C139.922 310.459 140.097 310.522 140.272 310.602Z" fill="#171B23"/>
<path d="M162.672 318.785C162.417 321.189 162.194 323.243 161.956 325.296C160.316 339.497 158.66 353.698 157.004 367.899C153.613 367.389 150.238 366.768 146.911 366.068C150.684 354.526 153.868 342.808 157.578 331.25C158.214 329.324 158.198 326.888 159.408 325.503C161.128 323.545 161.064 321.03 162.672 318.785Z" fill="#171B23"/>
<path d="M125.467 335.612C122.744 342.808 120.038 350.02 117.315 357.232C115.899 356.675 114.498 356.102 113.113 355.513C117.045 348.794 121.009 342.06 124.957 335.342C125.132 335.437 125.307 335.517 125.467 335.612Z" fill="#171B23"/>
<path d="M171.826 351.294C171.253 357.328 170.696 363.361 170.139 369.411C169.741 369.379 169.358 369.347 168.96 369.3C169.788 363.282 170.616 357.264 171.444 351.246C171.571 351.262 171.699 351.278 171.826 351.294Z" fill="#171B23"/>
<path d="M187.603 369.968C186.727 369.984 185.868 370 184.992 370C182.827 370 180.678 369.952 178.544 369.889C180.407 354.159 182.286 338.478 184.164 322.781C184.228 322.781 184.292 322.765 184.355 322.765C184.594 326.395 184.817 330.025 185.072 333.638C185.9 345.754 186.791 357.853 187.603 369.968Z" fill="#171B23"/>
<path d="M198.747 369.491C196.614 369.65 194.48 369.761 192.315 369.841C193 356.404 193.684 342.968 194.369 329.515C194.417 329.515 194.48 329.499 194.528 329.483C194.608 329.961 194.719 330.423 194.767 330.9C196.088 343.764 197.426 356.627 198.747 369.491Z" fill="#171B23"/>
<path d="M93.4353 341.041C92.703 342.203 91.9707 343.366 91.2543 344.512C91.0632 344.4 90.8722 344.289 90.6812 344.178C91.5249 343.079 92.3528 341.981 93.1806 340.882C93.2761 340.93 93.3557 340.994 93.4353 341.041Z" fill="#171B23"/>
<path d="M127.409 311.064C119.751 324.628 112.11 338.128 104.484 351.612C103.783 351.278 103.099 350.928 102.414 350.577C110.167 337.109 118.207 323.768 127.409 311.064Z" fill="#171B23"/>
<path d="M277.568 345.212C274.017 347.266 270.372 349.208 266.678 351.023C260.501 339.354 254.324 327.684 248.195 315.999C241.063 302.435 234.185 288.728 227.244 275.068C226.671 273.938 226.177 272.776 225.7 271.598H226.814C228.804 275.068 230.778 278.523 232.752 281.994C232.832 281.946 232.928 281.898 233.007 281.85C232.8 281.277 232.593 280.688 232.402 280.131C246.3 297.802 256.919 317.527 267.554 337.22C267.713 337.141 267.856 337.061 268 336.966C265.421 331.569 262.826 326.172 260.247 320.759C260.342 320.695 260.438 320.648 260.549 320.584C264.115 325.758 267.681 330.948 271.263 336.122C273.365 339.147 275.466 342.188 277.568 345.212Z" fill="#171B23"/>
<path d="M178.481 73.3918C176.077 49.0977 173.673 24.8036 171.269 0.509433C173.259 0.366152 175.265 0.254711 177.271 0.17511C178.194 16.7798 179.197 33.3686 179.834 49.9892C180.121 57.7583 179.277 65.5751 178.481 73.3918Z" fill="#171B23"/>
<path d="M172.893 53.9374C172.718 53.9534 172.527 53.9693 172.351 54.0011C171.619 49.639 170.855 45.2769 170.139 40.9307C168.005 27.6851 165.856 14.4555 163.707 1.22586C165.84 0.987054 167.989 0.764172 170.139 0.58905C171.062 18.3718 171.985 36.1546 172.893 53.9374Z" fill="#171B23"/>
<path d="M42.666 213.744C29.6115 216.196 16.5729 218.647 3.51834 221.099C3.04074 218.663 2.59497 216.196 2.21289 213.712C7.86454 213.648 13.5003 213.553 19.1519 213.473C19.7091 213.473 20.2823 213.521 20.8554 213.871C19.4066 214.062 17.9579 214.253 16.5251 214.444C16.5251 214.556 16.541 214.683 16.541 214.795C25.2334 214.349 33.9258 213.903 42.6341 213.457C42.6341 213.553 42.6341 213.648 42.666 213.744Z" fill="#171B23"/>
<path d="M203.427 0.907431C203.061 3.56609 202.711 6.20884 202.345 8.8675C202.265 9.44063 202.106 10.0138 201.629 10.555C201.629 7.29141 201.613 4.02778 201.597 0.74823C202.202 0.811911 202.807 0.859671 203.427 0.907431Z" fill="#171B23"/>
<path d="M200.578 0.668666C199.034 25.0265 198.063 49.448 193.286 73.6148C192.761 66.6417 192.252 59.7961 191.742 52.9504C190.421 35.3109 189.115 17.6714 187.81 0.0318604C192.108 0.0955409 196.359 0.302503 200.578 0.668666Z" fill="#171B23"/>
<path d="M369.952 181.123C357.757 181.601 345.563 182.095 333.368 182.572C332.922 182.588 332.492 182.588 332.015 182.27C336.393 181.442 340.771 180.63 345.149 179.802C353.348 178.258 361.546 176.698 369.729 175.153C369.841 177.127 369.904 179.117 369.952 181.123Z" fill="#171B23"/>
<path d="M369.984 185.899C369.984 187.507 369.952 189.115 369.904 190.707C359.859 190.676 349.813 190.628 339.768 190.564C338.494 190.548 337.236 189.959 335.979 189.37C341.996 188.701 347.998 187.953 354.016 187.38C359.349 186.887 364.667 186.393 369.984 185.899Z" fill="#171B23"/>
<path d="M369.809 193.127C369.777 193.875 369.745 194.624 369.698 195.372C361.26 195.245 352.822 194.958 344.385 194.337C352.854 193.923 361.339 193.525 369.809 193.127Z" fill="#171B23"/>
<path d="M368.185 159.154C357.137 161.096 346.088 163.054 335.039 164.996C334.61 165.076 334.164 165.06 333.718 165.108C333.67 164.901 333.622 164.71 333.575 164.519C334.514 164.344 335.485 164.2 336.408 163.977C346.852 161.351 357.296 158.724 367.739 156.113C367.899 157.116 368.058 158.135 368.185 159.154Z" fill="#171B23"/>
<path d="M47.3943 106.044C58.2996 112.937 69.1889 119.831 80.0942 126.724C80.0465 126.82 79.9828 126.915 79.935 126.995C77.4037 125.689 74.8724 124.4 72.3411 123.095C60.0508 116.726 47.7764 110.311 35.4701 103.99C31.0284 101.714 26.5548 99.4849 22.0972 97.2561C24.724 92.3846 27.5737 87.6403 30.6144 83.0394C32.4771 84.3449 34.3238 85.6663 36.1547 86.9876C43.4938 92.3049 50.6738 97.8452 58.1563 102.956C69.3004 110.581 79.3301 119.497 89.0891 128.826C75.2864 121.073 61.4836 113.32 47.6808 105.582C47.5853 105.726 47.4898 105.885 47.3943 106.044Z" fill="#171B23"/>
<path d="M49.7345 196.709C33.3367 197.473 16.9231 198.238 0.525312 199.002C0.382031 197.235 0.28651 195.436 0.206909 193.653C11.7968 194.082 23.4026 194.512 34.9924 194.99C39.9277 195.197 44.8311 195.929 49.7345 196.709Z" fill="#171B23"/>
<path d="M34.5308 201.071C32.3657 201.247 30.1846 201.406 28.0195 201.597C18.9928 202.345 9.96604 203.093 0.939323 203.857C0.827882 202.727 0.732362 201.597 0.636841 200.466C11.9401 200.546 23.2275 200.61 34.5149 200.673C34.5149 200.801 34.5308 200.944 34.5308 201.071Z" fill="#171B23"/>
<path d="M116.106 54.6538C116.106 54.6538 115.994 54.7334 115.93 54.7653C115.644 54.3513 115.341 53.9533 115.055 53.5235C108.543 43.3664 102.016 33.2253 95.5049 23.0683C97.7655 21.8106 100.058 20.6006 102.382 19.4385C106.951 31.1716 111.521 42.9207 116.106 54.6538Z" fill="#171B23"/>
<path d="M96.7786 171.301C92.9896 170.473 89.1847 169.693 85.4116 168.833C83.4216 168.371 81.4952 167.671 79.4893 167.321C77.2446 166.954 74.8724 167.177 72.7073 166.604C62.7254 163.961 52.7753 161.223 42.857 158.358C29.8662 154.585 16.8913 150.78 3.91638 146.975C4.50543 144.157 5.14223 141.371 5.85864 138.601C6.79793 138.919 7.7213 139.222 8.64466 139.524C23.1479 144.412 37.6512 149.315 52.1544 154.218C52.5206 154.346 52.8867 154.537 53.1574 155.03C48.047 153.852 42.9207 152.658 37.8104 151.464C57.3762 158.342 77.8495 162.401 96.7786 171.301Z" fill="#171B23"/>
<path d="M331.585 297.866C329.563 300.477 327.477 303.056 325.328 305.555C316.126 297.595 306.94 289.619 297.739 281.659C292.501 277.122 287.231 272.601 282.121 267.872C294.077 275.18 304.839 284.175 316.556 291.848C312.353 288.346 308.15 284.859 303.947 281.373C303.995 281.325 304.027 281.261 304.075 281.213C306.702 282.758 309.344 284.27 311.955 285.846C318.148 289.571 324.437 293.154 330.486 297.118C330.852 297.372 331.219 297.627 331.585 297.866Z" fill="#171B23"/>
<path d="M368.822 205.927C368.695 207.026 368.567 208.124 368.424 209.207C358.124 207.837 347.807 206.468 337.507 205.099C337.523 204.892 337.523 204.701 337.539 204.494L368.822 205.927Z" fill="#171B23"/>
<path d="M309.79 321.571C309.344 321.985 308.883 322.383 308.437 322.797C306.033 319.883 303.629 316.986 301.225 314.088C301.32 313.993 301.416 313.897 301.512 313.818C304.266 316.397 307.036 318.976 309.79 321.571Z" fill="#171B23"/>
<path d="M308.373 322.844C307.211 323.879 306.033 324.914 304.839 325.933C296.242 316.206 287.629 306.479 279.032 296.751C277.584 295.096 276.31 293.281 274.67 291.179C287.406 300.62 297.675 311.939 308.373 322.844Z" fill="#171B23"/>
<path d="M43.5257 222.834C42.9526 223.009 42.3794 223.232 41.7904 223.344C29.7388 225.716 17.6873 228.104 5.63575 230.476C5.36511 229.425 5.11038 228.39 4.87158 227.34C13.1182 226.114 21.3808 224.888 29.6274 223.694C34.1965 223.025 38.8292 222.93 43.5257 222.834Z" fill="#171B23"/>
<path d="M346.056 276.087C345.005 277.934 343.939 279.749 342.824 281.564C340.659 280.401 338.51 279.223 336.377 278.013C330.709 274.766 325.376 270.945 319.852 267.442C310.061 261.218 300.286 254.993 290.431 248.896C290.145 248.72 289.858 248.561 289.587 248.386V246.651C290.447 247.097 291.291 247.558 292.151 248.004C308.596 256.569 325.026 265.15 341.487 273.715C342.999 274.511 344.528 275.291 346.056 276.087Z" fill="#171B23"/>
<path d="M350.705 267.331C349.861 269.034 348.985 270.722 348.094 272.394C335.851 265.484 323.625 258.591 311.398 251.697C311.446 251.586 311.493 251.475 311.525 251.363C317.464 253.56 323.481 255.55 329.308 257.986C336.488 260.995 343.604 264.163 350.705 267.331Z" fill="#171B23"/>
<path d="M351.549 104.372C340.834 110.374 330.136 116.376 319.422 122.362C319.024 122.585 318.594 122.776 318.021 122.744C320.584 120.898 323.147 119.051 325.71 117.204C333.591 111.489 341.487 105.773 349.368 100.058C350.116 101.491 350.832 102.924 351.549 104.372Z" fill="#171B23"/>
<path d="M321.046 59.6528C311.334 68.7909 301.639 77.9291 291.928 87.0513C291.88 87.0036 291.816 86.9558 291.752 86.9081C298.917 76.7988 306.097 66.7054 313.261 56.5961C313.165 56.5324 313.086 56.4688 312.99 56.3892C309.519 60.5443 306.208 64.8587 302.546 68.8228C298.869 72.7869 294.841 76.4326 290.702 79.9987C293.185 77.0376 295.653 74.0924 298.121 71.1312C303.374 64.8587 308.644 58.5861 313.897 52.3136C316.333 54.7016 318.721 57.1374 321.046 59.6528Z" fill="#171B23"/>
<path d="M361.849 239.439C361.403 240.904 360.941 242.352 360.464 243.785C351.692 240.856 342.936 237.911 334.18 234.965C333.814 234.854 333.463 234.647 333.177 234.217C339.513 235.379 345.833 236.541 352.169 237.688C355.401 238.277 358.617 238.85 361.849 239.439Z" fill="#171B23"/>
<path d="M360.957 127.743C358.713 128.523 356.468 129.319 354.239 130.099C353.873 130.227 353.57 130.497 353.236 130.704C353.157 130.466 353.077 130.243 352.997 130.004C355.513 128.81 358.012 127.632 360.528 126.438C360.671 126.868 360.814 127.313 360.957 127.743Z" fill="#171B23"/>
<path d="M228.008 5.0467C223.917 20.1549 219.825 35.279 215.734 50.3873C215.511 50.3554 215.288 50.3236 215.065 50.2758C216.848 34.6582 218.631 19.0246 220.414 3.40692C222.962 3.90045 225.493 4.44173 228.008 5.0467Z" fill="#171B23"/>
<path d="M65.8776 129.463C48.7953 123.238 33.3687 114.37 17.8147 105.694C18.8017 103.624 19.8206 101.586 20.8873 99.5486C31.315 105.853 41.2014 113.001 51.3425 119.767C56.1026 122.951 60.8628 126.119 65.8776 129.463Z" fill="#171B23"/>
<path d="M369.252 168.435C354.924 170.648 340.58 172.845 326.251 175.058C325.822 175.122 325.376 175.137 324.882 174.755C328.05 174.166 331.219 173.593 334.387 173.004C345.945 170.855 357.519 168.706 369.093 166.557C369.14 167.177 369.188 167.814 369.252 168.435Z" fill="#171B23"/>
<path d="M289.571 32.3816C286.467 36.9188 283.363 41.456 280.21 45.9614C274.909 53.5713 269.528 61.1174 264.227 68.7113C259.769 75.0953 255.375 81.4952 250.949 87.8792C250.774 88.1498 250.519 88.3409 249.946 88.3409C250.885 86.7488 251.857 85.1727 252.764 83.5489C263.033 65.177 273.301 46.8211 283.585 28.4493C285.607 29.7229 287.597 31.0443 289.571 32.3816Z" fill="#171B23"/>
<path d="M46.6619 140.798C46.5664 141.052 46.4709 141.307 46.3754 141.546C42.8252 140.463 39.275 139.365 35.7407 138.266C26.6185 135.417 17.5121 132.583 8.38989 129.733C8.81974 128.348 9.2655 126.979 9.7431 125.594C22.0494 130.673 34.3556 135.735 46.6619 140.798Z" fill="#171B23"/>
<path d="M22.9887 128.874C22.9409 128.969 22.9091 129.081 22.8613 129.176C18.5788 127.727 14.2963 126.279 10.0138 124.83C10.2844 124.05 10.5551 123.27 10.8257 122.505C14.8854 124.623 18.945 126.756 22.9887 128.874Z" fill="#171B23"/>
<path d="M30.4553 177.414C30.4393 177.541 30.4393 177.653 30.4234 177.78C29.6911 177.732 28.9588 177.685 28.2264 177.621C18.9132 176.777 9.58396 175.949 0.254761 175.122C0.302521 174.15 0.382122 173.179 0.445802 172.208C5.15816 172.861 9.88645 173.498 14.5988 174.15C15.2675 174.246 15.9202 174.341 16.5888 174.708C16.1271 174.771 15.6814 174.851 15.2197 174.915C15.2038 174.994 15.2038 175.074 15.1879 175.153C20.2823 175.902 25.3608 176.65 30.4553 177.414Z" fill="#171B23"/>
<path d="M337.396 289.89C337.045 290.399 336.695 290.909 336.329 291.418C333.861 289.556 331.394 287.661 328.958 285.703C331.776 287.104 334.578 288.489 337.396 289.89Z" fill="#171B23"/>
<path d="M87.8314 43.1754C87.7041 43.255 87.5926 43.3346 87.4653 43.3983C84.9817 39.8163 82.4982 36.2502 80.0146 32.6682C80.5719 32.2861 81.1291 31.8881 81.6863 31.506C83.74 35.4064 85.7777 39.2909 87.8314 43.1754Z" fill="#171B23"/>
<path d="M324.484 63.4736C317.002 70.5581 309.535 77.6425 302.053 84.7111C298.932 87.6722 295.812 90.6175 292.437 93.3239C302.626 82.8166 312.799 72.3093 322.988 61.802C323.481 62.3592 323.991 62.9164 324.484 63.4736Z" fill="#171B23"/>
<path d="M356.659 254.07C356.659 254.07 356.659 254.085 356.643 254.101C356.595 254.07 356.548 254.054 356.5 254.038C356.563 254.038 356.611 254.054 356.659 254.07Z" fill="#171B23"/>
<path d="M92.4642 31.6015C92.0661 30.9647 91.6681 30.3279 91.302 29.6911C90.7129 28.6244 90.108 27.5737 89.5189 26.523C89.6781 26.4274 89.8373 26.3319 89.9806 26.2364C90.8085 28.0194 91.6522 29.8025 92.4642 31.6015Z" fill="#171B23"/>
<path d="M283.171 28.1786C277.743 36.8233 272.314 45.452 266.869 54.0807C266.806 54.0648 266.742 54.0329 266.678 54.017C266.885 53.4757 267.013 52.9026 267.283 52.4091C271.884 43.8918 276.485 35.3905 281.102 26.8891C281.786 27.3189 282.471 27.7488 283.171 28.1786Z" fill="#171B23"/>
<path d="M57.408 134.78C51.82 131.994 46.248 129.208 40.66 126.438C31.9039 122.076 23.1319 117.729 14.3759 113.383C14.4714 113.129 14.5828 112.874 14.6943 112.619C18.4992 114.482 22.32 116.328 26.1249 118.175C32.684 121.343 39.3227 124.336 45.8181 127.648C49.8459 129.701 53.6508 132.185 57.408 134.78Z" fill="#171B23"/>
<path d="M5.44472 154.091C4.52135 153.932 3.58206 153.773 2.65869 153.598C2.69053 153.406 2.72237 153.215 2.75421 153.008C3.66166 153.359 4.55319 153.709 5.44472 154.091Z" fill="#171B23"/>
<path d="M274.065 22.8295C271.056 27.9717 268.047 33.1139 265.038 38.2561C264.688 38.8292 264.354 39.4183 263.733 39.8641C265.723 34.7696 267.697 29.6752 269.719 24.5807C270.165 23.4663 270.626 22.3519 271.104 21.2375C272.091 21.7629 273.078 22.2882 274.065 22.8295Z" fill="#171B23"/>
<path d="M63.8079 46.6778C63.8079 46.6778 63.6487 46.8052 63.5691 46.8689C63.3303 46.5982 63.0915 46.3276 62.8687 46.057C62.9642 45.9614 63.0756 45.8659 63.1711 45.7863C63.394 46.0729 63.601 46.3754 63.8079 46.6778Z" fill="#171B23"/>
<path d="M38.7656 83.4375C38.686 83.533 38.6064 83.6285 38.5268 83.7399C36.6164 82.4345 34.7059 81.129 32.7955 79.8395C33.0184 79.4893 33.2572 79.1549 33.496 78.8206C35.2472 80.349 37.0144 81.8932 38.7656 83.4375Z" fill="#171B23"/>
<path d="M240.346 8.42178C238.659 13.962 236.955 19.5022 235.268 25.0265C235.156 24.9946 235.061 24.9628 234.949 24.931C236.366 19.3112 237.783 13.6913 239.2 8.07153C239.582 8.19889 239.964 8.31033 240.346 8.42178Z" fill="#171B23"/>
<path d="M257.317 14.6784C256.091 17.9261 254.865 21.1897 253.64 24.4374C253.305 25.3131 252.955 26.1887 252.271 26.9369C253.64 22.7181 255.009 18.4992 256.378 14.2804C256.696 14.4237 257.015 14.551 257.317 14.6784Z" fill="#171B23"/>
<path d="M304.616 261.425C312.894 265.739 321.173 270.069 329.436 274.384C329.499 274.352 329.547 274.32 329.611 274.272L289.587 251.586V253.624C294.602 256.219 299.601 258.814 304.616 261.425Z" fill="#171B23"/>
<path d="M270.197 243.387C270.626 243.626 271.056 243.849 271.486 244.072C271.168 242.973 270.833 241.859 270.499 240.76C269.21 240.028 267.92 239.296 266.63 238.563C266.965 239.614 267.299 240.665 267.618 241.716C268.445 242.321 269.305 242.894 270.197 243.371V243.387Z" fill="#171B23"/>
<path d="M295.494 76.9579L275.88 101.443C276.135 101.634 276.374 101.825 276.628 102.016C283.108 93.8174 289.587 85.6185 296.051 77.4196C295.86 77.2764 295.669 77.1171 295.494 76.9739V76.9579Z" fill="#171B23"/>
<path d="M271.486 244.072C273.237 250.058 274.447 256.155 275.514 262.284C275.88 264.386 276.262 266.471 276.644 268.573C276.644 268.668 276.676 268.748 276.708 268.891C276.835 268.827 276.915 268.796 276.979 268.732C279.621 266.057 282.312 263.431 284.875 260.676C286.467 258.973 287.884 257.078 289.38 255.264C289.444 255.2 289.508 255.136 289.587 255.088V253.608C283.538 250.472 277.488 247.303 271.486 244.072Z" fill="#171B23"/>
<path d="M289.587 246.651V234.965C288.632 232.545 287.709 230.11 286.706 227.706C284.031 221.274 281.341 214.842 278.364 208.554C276.421 204.478 274.081 200.642 271.629 196.853C267.761 190.898 263.892 184.912 259.753 179.133C257.731 176.316 255.598 173.577 253.512 170.791C253.305 170.505 253.098 170.202 252.875 169.916C251.331 167.862 250.487 165.554 250.169 162.99C249.787 159.806 249.246 156.638 248.816 153.47C248.434 150.764 248.099 148.057 247.749 145.351C247.494 143.409 247.208 141.466 246.985 139.508C246.826 138.107 246.714 136.706 246.619 135.289C246.396 131.723 245.918 128.205 245.138 124.702C243.69 118.207 241.27 112.094 237.879 106.362C235.395 102.191 232.275 98.5298 228.597 95.3776C226.798 93.8333 224.983 92.305 223.105 90.8722C219.65 88.2453 215.734 86.5896 211.547 85.6185C208.777 84.9817 205.959 84.52 203.157 84.0265C200.785 83.6126 198.381 83.2783 195.993 82.9121C195.643 82.8643 195.292 82.8325 194.862 82.7847C194.576 109.897 194.273 136.929 193.987 163.962C193.955 163.977 193.923 163.993 193.891 163.993C193.844 163.898 193.748 163.786 193.732 163.675C193.414 162.163 193.079 160.634 192.793 159.106C192.697 158.676 192.681 158.214 192.681 157.753C192.745 149.474 192.809 141.18 192.872 132.885C192.968 121.439 193.064 109.992 193.175 98.5457C193.207 92.9099 193.255 87.2742 193.302 81.6544V80.731C192.968 80.6674 192.681 80.5878 192.379 80.5718C190.914 80.4922 189.466 80.4286 188.001 80.349C187.794 80.349 187.587 80.3012 187.364 80.2693H185.645C185.342 80.3012 185.024 80.333 184.721 80.349C183.05 80.4286 181.378 80.4922 179.691 80.5718C179.42 80.5878 179.133 80.6674 178.815 80.7151C178.799 80.9539 178.783 81.1768 178.783 81.3838C178.831 88.2135 178.879 95.0432 178.926 101.873C178.974 107.493 179.038 113.129 179.086 118.764C179.133 123.763 179.165 128.778 179.213 133.777C179.277 141.705 179.324 149.633 179.404 157.578C179.42 158.883 179.086 160.125 178.831 161.398C178.656 162.306 178.433 163.213 178.226 164.121C178.178 164.121 178.115 164.121 178.067 164.121C177.78 137.041 177.494 109.96 177.207 82.8007C176.475 82.8962 175.838 82.9439 175.201 83.0554C171.141 83.7081 167.066 84.3131 163.022 85.0613C157.832 86.0324 152.945 87.8155 148.726 91.095C145.415 93.6582 142.183 96.3328 139.349 99.4531C135.878 103.29 133.252 107.652 131.118 112.348C128.571 117.952 126.883 123.795 126.04 129.877C125.737 132.026 125.626 134.207 125.403 136.372C125.18 138.664 124.925 140.941 124.639 143.218C124.336 145.622 124.018 148.01 123.684 150.413C123.19 153.996 122.681 157.562 122.171 161.144C122.028 162.131 121.821 163.134 121.709 164.121C121.518 165.983 120.786 167.639 119.719 169.151C118.494 170.887 117.252 172.622 115.946 174.31C112.412 178.847 109.18 183.591 106.012 188.399C103.608 192.061 101.22 195.722 98.8481 199.416C95.6323 204.399 93.085 209.732 90.7289 215.161C87.4015 222.802 84.1857 230.476 81.2245 238.277C81.0494 238.738 80.8902 239.216 80.6992 239.678C80.6355 239.853 80.5081 239.996 80.4126 240.155V252.525C80.54 252.637 80.6992 252.748 80.8265 252.891C84.9976 258.257 89.4393 263.351 94.4064 268C94.693 268.254 94.9477 268.541 95.2343 268.812C95.2661 268.843 95.3139 268.843 95.4094 268.907C95.5845 268.621 95.5845 268.286 95.6323 267.968C96.6989 262.046 97.6382 256.075 99.0551 250.217C100.918 242.559 103.274 235.061 106.41 227.801C108.543 222.866 110.549 217.867 112.555 212.868C113.972 209.35 115.66 205.991 117.554 202.711C119.672 199.018 121.932 195.452 124.607 192.14C126.167 190.214 127.902 188.415 129.606 186.6C130.466 185.693 131.373 184.817 132.36 184.085C134.907 182.174 137.821 181.028 140.861 180.2C144.221 179.277 147.643 179.038 151.098 179.006C155.46 178.974 159.313 180.439 162.879 182.779C166.222 184.992 169.136 187.698 171.778 190.691C173.132 192.22 174.357 193.891 175.647 195.499C177.43 197.712 179.436 199.686 181.728 201.358C182.7 202.058 183.75 202.456 184.928 202.488C185.788 202.52 186.664 202.536 187.523 202.472C188.749 202.393 189.816 201.851 190.787 201.119C193.032 199.416 195.054 197.473 196.741 195.213C198.795 192.49 200.976 189.88 203.459 187.555C205.593 185.549 207.806 183.655 210.337 182.142C212.932 180.598 215.686 179.468 218.711 179.133C219.571 179.054 220.43 179.054 221.306 179.022C225.238 178.926 229.091 179.42 232.832 180.63C235.268 181.41 237.592 182.413 239.678 183.894C241.222 185.008 242.464 186.441 243.801 187.794C248.402 192.443 251.873 197.903 255.136 203.539C257.349 207.344 259.021 211.388 260.676 215.431C262.985 221.035 265.277 226.639 267.57 232.243C268.7 235.029 269.639 237.895 270.499 240.776C276.867 244.39 283.219 247.988 289.587 251.602V248.402C284.636 245.361 279.589 242.512 274.575 239.566C274.686 239.375 274.798 239.184 274.925 238.993C279.812 241.54 284.7 244.119 289.587 246.667V246.651ZM172.113 174.103C170.075 173.211 168.069 172.256 165.999 171.46C163.006 170.298 159.886 169.693 156.718 169.279C155.253 169.088 153.773 168.913 152.292 168.881C148.089 168.817 143.982 169.422 140.049 170.982C135.433 172.829 130.975 175.058 126.485 177.207C125.689 177.589 124.893 177.955 124.097 178.337C124.066 178.306 124.034 178.258 124.002 178.21C124.416 177.892 124.83 177.573 125.244 177.255C129.972 173.641 135.114 170.744 140.67 168.626C143.472 167.559 146.354 166.795 149.363 166.493C152.276 166.206 155.142 166.445 158.007 167.018C160.905 167.591 163.707 168.451 166.445 169.581C167.528 170.027 168.562 170.696 169.518 171.396C170.823 172.336 172.017 173.402 173.259 174.421C173.307 174.453 173.338 174.517 173.466 174.708C172.925 174.469 172.527 174.294 172.113 174.103ZM248.147 178.385C247.94 178.306 247.733 178.21 247.526 178.115C243.276 176.109 239.041 174.119 234.79 172.113C231.638 170.616 228.343 169.613 224.872 169.167C222.006 168.801 219.141 168.769 216.275 169.136C213.282 169.518 210.321 170.091 207.439 170.982C204.86 171.778 202.44 172.909 200.021 174.087C199.623 174.278 199.225 174.437 198.811 174.612C198.795 174.58 198.763 174.533 198.747 174.485C198.938 174.31 199.113 174.134 199.32 173.975C200.785 172.829 202.234 171.651 203.762 170.584C204.526 170.059 205.386 169.661 206.261 169.327C209.286 168.212 212.375 167.241 215.575 166.748C218.504 166.286 221.433 166.254 224.363 166.732C228.199 167.368 231.797 168.674 235.316 170.298C239.837 172.383 244.024 175.026 247.94 178.083C248.02 178.162 248.115 178.226 248.195 178.306C248.179 178.337 248.163 178.369 248.147 178.385Z" fill="#171B23"/>
<path d="M274.575 239.55C279.574 242.496 284.636 245.345 289.587 248.386V246.651C284.7 244.088 279.812 241.524 274.925 238.961C274.814 239.152 274.702 239.343 274.591 239.55H274.575Z" fill="#171B23"/>
<path d="M289.587 253.624V251.586C283.219 247.972 276.867 244.374 270.499 240.76C270.833 241.859 271.152 242.973 271.486 244.072C277.488 247.303 283.538 250.472 289.587 253.608V253.624Z" fill="#171B23"/>
<path d="M158.198 275.339C158.612 275.562 158.978 275.769 159.361 275.96C165.856 279.351 172.351 282.742 178.831 286.133C181.139 287.343 183.464 288.537 185.772 289.731H186.202C186.377 289.619 186.552 289.476 186.727 289.38C188.67 288.346 190.628 287.327 192.57 286.292C199.193 282.789 205.816 279.271 212.438 275.769C212.709 275.625 212.964 275.482 213.298 275.291C211.961 275.052 158.947 275.1 158.182 275.339H158.198Z" fill="#171B23"/>
<path d="M272.728 261.138C272.378 259.291 272.107 257.397 271.629 255.582C270.626 251.857 269.528 248.179 268.445 244.47C268.175 243.562 267.904 242.639 267.618 241.731C265.659 240.299 263.813 238.659 261.886 237.162C260.374 236.016 258.925 234.79 257.572 233.421C260.597 235.14 263.622 236.86 266.646 238.563C265.532 235.061 264.338 231.574 262.969 228.152C261.074 223.439 259.148 218.743 257.269 214.03C255.232 208.968 252.732 204.16 249.707 199.623C247.144 195.77 244.326 192.108 241.047 188.829C236.35 184.164 230.747 181.33 224.251 180.232C224.012 180.2 223.758 180.184 223.487 180.152C223.535 180.296 223.535 180.359 223.551 180.375C223.821 180.662 224.092 180.932 224.363 181.187C227.881 184.53 230.555 188.479 232.721 192.793C233.198 193.732 233.23 194.656 232.848 195.627C232.689 196.057 232.434 196.391 232.036 196.598C231.288 196.964 230.555 197.362 229.775 197.696C225.732 199.432 221.608 200.96 217.39 202.265C214.349 203.221 211.244 203.953 208.028 203.905C204.717 203.857 201.422 203.714 198.11 203.619C197.983 203.619 197.84 203.571 197.617 203.523C198.19 200.753 198.763 197.999 199.32 195.261C199.065 195.324 198.906 195.436 198.779 195.579C198.078 196.311 197.362 197.06 196.661 197.808C195.722 198.811 194.847 199.877 193.844 200.785C190.898 203.444 187.46 204.478 183.543 203.65C180.948 203.093 178.863 201.66 177.096 199.702C175.854 198.349 174.58 196.996 173.323 195.659C173.163 195.483 172.988 195.34 172.813 195.181C172.781 195.213 172.749 195.229 172.718 195.245C173.291 198.015 173.864 200.769 174.453 203.555C174.294 203.587 174.214 203.619 174.15 203.619C170.919 203.73 167.687 203.842 164.455 203.937C163.611 203.953 162.783 203.921 161.94 203.857C159.711 203.666 157.546 203.141 155.412 202.52C151.464 201.406 147.659 199.893 143.87 198.365C142.676 197.887 141.514 197.298 140.336 196.773C139.508 196.407 139.142 195.722 138.983 194.878C138.855 194.194 138.967 193.557 139.269 192.92C140.24 190.914 141.403 189.02 142.629 187.157C144.189 184.753 146.147 182.684 148.185 180.678C148.344 180.519 148.503 180.343 148.678 180.152C148.583 180.121 148.535 180.089 148.503 180.105C144.252 180.694 140.272 182.095 136.611 184.323C133.474 186.234 130.832 188.765 128.444 191.519C123.429 197.251 119.369 203.619 116.265 210.576C114.689 214.094 113.288 217.692 111.839 221.258C109.546 226.83 107.286 232.418 105.503 238.197C104.277 242.241 103.051 246.301 101.825 250.344C100.934 253.258 100.122 256.187 99.6123 259.18C99.469 260.024 99.3416 260.883 99.1984 261.823C99.5645 261.679 99.8033 261.584 100.042 261.472C101.013 261.074 101.968 260.645 102.956 260.247C107.365 258.479 111.919 257.206 116.551 256.219C120.293 255.423 124.05 254.881 127.871 254.802C130.816 254.738 133.761 254.866 136.69 255.104C137.709 255.2 138.728 255.327 139.763 255.439C141.466 260.836 143.154 266.201 144.81 271.486C146.37 271.757 147.755 271.582 149.06 270.818C149.538 270.531 150.143 270.388 150.7 270.34C151.783 270.244 152.706 270.738 153.486 271.454C153.916 271.852 154.298 272.298 154.823 272.855C154.457 271.247 153.98 269.894 152.674 269.034C151.066 267.952 149.522 268.477 147.978 269.369C144.268 256.521 140.527 243.737 136.945 230.922C137.964 233.246 138.919 235.586 139.874 237.927C140.83 240.283 141.769 242.639 142.724 244.995C143.663 247.351 144.619 249.692 145.558 252.048C146.513 254.404 147.452 256.76 148.423 259.1C149.379 261.425 150.27 263.781 151.353 266.233C151.592 265.93 151.735 265.739 151.91 265.58C155.46 261.982 159.026 258.4 162.592 254.818C168.387 248.991 174.182 243.164 179.993 237.337C180.296 237.035 180.343 236.733 180.296 236.319C180.184 235.411 180.025 234.472 180.089 233.548C180.28 230.603 182.079 227.976 185.661 227.801C188.972 227.658 191.153 229.377 191.869 232.466C192.156 233.708 192.108 234.949 191.838 236.175C191.71 236.733 191.87 237.083 192.252 237.481C201.262 246.539 210.257 255.598 219.252 264.672C219.746 265.166 220.207 265.675 220.796 266.296C225.652 254.388 230.285 242.607 235.125 230.906C235.172 230.922 235.22 230.938 235.268 230.954C231.543 243.785 227.817 256.601 224.092 269.448C223.567 269.194 223.153 268.955 222.707 268.796C221.035 268.143 219.38 268.652 218.345 270.117C217.867 270.802 217.565 271.55 217.374 272.346C217.342 272.489 217.326 272.632 217.278 272.935C217.501 272.68 217.596 272.537 217.708 272.425C218.217 271.964 218.695 271.423 219.252 271.025C220.303 270.292 221.449 270.149 222.643 270.706C223.121 270.929 223.598 271.168 224.076 271.375C224.299 271.47 224.522 271.582 224.761 271.598H225.7C225.35 270.722 224.999 269.862 224.633 269.003C224.808 268.907 224.999 268.812 225.174 268.716C225.716 269.671 226.273 270.642 226.814 271.598H227.228C228.916 266.233 230.587 260.883 232.275 255.534C232.53 255.486 232.768 255.423 233.007 255.407C235.077 255.248 237.146 255.041 239.232 254.929C244.645 254.643 249.978 255.088 255.295 256.219C261.186 257.492 266.901 259.244 272.41 261.743C272.505 261.775 272.616 261.791 272.744 261.823C272.744 261.568 272.776 261.345 272.728 261.138ZM139.158 202.218C141.18 204.017 143.186 205.832 145.383 207.424C147.771 209.143 150.429 210.082 153.311 210.56C157.004 211.149 160.714 211.101 164.407 210.926C167.528 210.767 170.568 210.114 173.577 209.318C173.8 209.254 174.007 209.207 174.214 209.143C174.246 209.143 174.294 209.175 174.421 209.191C174.134 209.382 173.896 209.541 173.657 209.684C170.759 211.404 167.607 212.454 164.328 213.091C161.303 213.696 158.246 213.728 155.19 213.425C153.82 213.282 152.467 213.171 151.13 212.884C148.025 212.2 145.526 210.448 143.456 208.108C141.88 206.309 140.432 204.399 138.951 202.52C138.776 202.313 138.648 202.058 138.585 201.74C138.776 201.899 138.983 202.043 139.158 202.218ZM173.561 224.776C172.192 225.397 170.807 226.002 169.438 226.623C168.499 227.053 167.575 227.515 166.636 227.929C164.694 228.804 163.15 230.173 161.876 231.861C160.523 233.676 159.488 235.666 158.501 237.704C158.151 238.436 157.8 239.168 157.45 239.901C156.399 242.082 155.954 244.438 155.333 246.746C154.728 248.911 154.171 251.092 153.597 253.258C153.55 253.465 153.47 253.656 153.406 253.863C153.359 253.847 153.311 253.831 153.263 253.815C153.375 252.541 153.438 251.236 153.613 249.962C153.948 247.606 154.282 245.234 154.744 242.878C155.46 239.248 156.829 235.809 158.676 232.609C161.16 228.295 164.789 225.429 169.629 224.172C169.932 224.108 170.218 223.996 170.505 223.917V223.774C169.343 223.439 168.18 223.121 167.018 222.786C163.388 221.768 159.727 221.847 156.049 222.404C153.279 222.818 150.557 223.487 147.866 224.219C147.357 224.347 147.038 224.251 146.704 223.917C145.637 222.866 144.555 221.815 143.472 220.749C142.008 219.284 140.527 217.803 139.062 216.323C138.999 216.259 138.935 216.18 138.824 216.052C139.142 216.052 139.301 216.227 139.46 216.355C141.864 218.106 144.268 219.841 146.64 221.624C147.07 221.943 147.436 222.006 147.946 221.863C150.254 221.21 152.579 220.637 154.935 220.255C157.323 219.873 159.711 219.841 162.099 219.937C165.378 220.08 168.547 220.749 171.619 221.911C172.351 222.197 173.052 222.564 173.736 222.946C174.103 223.153 174.564 223.391 174.517 223.885C174.453 224.394 173.991 224.601 173.561 224.776ZM191.296 214.651C190.851 214.54 190.421 214.412 189.991 214.269C187.507 213.378 185.04 213.441 182.556 214.301C181.808 214.556 181.06 214.747 180.296 214.97C180.28 214.938 180.264 214.89 180.232 214.858C181.505 213.887 182.779 212.916 184.323 212.422C185.724 211.961 187.141 211.961 188.542 212.47C190.023 212.996 191.265 213.919 192.459 214.954C192.061 214.858 191.678 214.763 191.296 214.651ZM194.21 211.42C192.204 210.878 190.214 210.305 188.208 209.78C186.839 209.414 185.454 209.429 184.085 209.796C182.126 210.321 180.168 210.862 178.21 211.388C178.083 211.419 177.955 211.467 177.796 211.451C179.802 209.843 181.824 208.283 184.419 207.758C186.059 207.408 187.698 207.519 189.275 208.124C191.249 208.856 192.936 210.082 194.576 211.372C194.608 211.388 194.608 211.451 194.64 211.531C194.48 211.499 194.337 211.467 194.21 211.42ZM230.205 219.236C228.597 220.812 226.989 222.373 225.397 223.965C225.063 224.299 224.776 224.363 224.315 224.251C221.545 223.535 218.759 222.85 215.909 222.404C211.897 221.768 207.949 221.895 204.048 223.089C203.236 223.328 202.425 223.567 201.613 223.933C201.883 224.012 202.138 224.108 202.409 224.172C205.895 225.111 208.904 226.814 211.276 229.6C212.725 231.304 213.855 233.214 214.795 235.252C216.721 239.391 217.787 243.769 218.297 248.291C218.504 250.169 218.679 252.048 218.743 253.958C218.631 253.624 218.504 253.289 218.424 252.955C217.501 249.532 216.641 246.109 215.67 242.703C215.336 241.461 214.81 240.267 214.285 239.089C213.171 236.605 211.945 234.153 210.321 231.941C208.984 230.11 207.328 228.677 205.227 227.754C203.109 226.846 201.04 225.875 198.938 224.92C198.62 224.776 198.285 224.633 197.999 224.426C197.457 224.044 197.41 223.694 197.903 223.264C198.206 222.978 198.588 222.739 198.97 222.548C200.578 221.736 202.281 221.194 204.033 220.765C208.315 219.714 212.645 219.587 217.007 220.176C219.459 220.51 221.831 221.147 224.203 221.831C224.665 221.959 224.999 221.895 225.397 221.608C227.801 219.841 230.237 218.09 232.657 216.339C232.88 216.164 233.135 216.02 233.357 215.877C233.405 215.925 233.469 215.989 233.517 216.036C232.418 217.103 231.304 218.17 230.205 219.236ZM233.278 202.425C231.718 204.367 230.205 206.341 228.581 208.22C226.973 210.034 225.031 211.419 222.771 212.327C221.592 212.805 220.382 213.027 219.141 213.203C216.387 213.569 213.616 213.728 210.83 213.489C206.532 213.123 202.472 211.929 198.715 209.812C198.381 209.621 198.094 209.414 197.824 209.127C199.161 209.445 200.514 209.764 201.867 210.082C204.574 210.703 207.344 210.942 210.13 210.99C212.375 211.021 214.619 211.053 216.864 210.815C219.698 210.496 222.452 209.971 224.967 208.538C226.623 207.599 228.104 206.421 229.537 205.195C230.794 204.16 231.988 203.061 233.214 201.979C233.357 201.867 233.517 201.756 233.66 201.629C233.692 201.66 233.724 201.692 233.771 201.724C233.612 201.963 233.453 202.202 233.278 202.425Z" fill="#171B23"/>
<path d="M225.174 268.716C224.999 268.812 224.808 268.907 224.633 269.003C224.999 269.862 225.35 270.738 225.7 271.598C226.066 271.598 226.432 271.598 226.814 271.598C226.257 270.626 225.716 269.671 225.159 268.7L225.174 268.716Z" fill="#171B23"/>
<path d="M261.886 237.162C263.813 238.643 265.659 240.299 267.634 241.731C267.315 240.681 266.981 239.63 266.647 238.579C263.622 236.86 260.597 235.156 257.572 233.437C258.925 234.806 260.39 236.016 261.886 237.178V237.162Z" fill="#171B23"/>
<path d="M214.094 273.221C214.428 272.027 214.763 270.881 215.113 269.671C213.712 269.528 156.766 269.592 156.208 269.735C156.527 270.897 156.845 272.059 157.164 273.205H214.11L214.094 273.221Z" fill="#171B23"/>
<path d="M183.527 267.315C185.183 267.315 186.839 267.315 188.479 267.315C188.717 267.315 188.94 267.315 189.227 267.315V241.811H182.747C182.747 242.082 182.715 242.305 182.715 242.543C182.715 247.383 182.684 252.223 182.684 257.047C182.684 260.215 182.7 263.367 182.715 266.535C182.715 267.315 182.731 267.315 183.527 267.315Z" fill="#171B23"/>
<path d="M173.466 267.315H178.688V244.072C178.497 244.247 178.369 244.342 178.242 244.454C176.825 245.887 175.424 247.319 173.991 248.736C173.577 249.134 173.418 249.564 173.434 250.137C173.434 255.614 173.434 261.106 173.434 266.583C173.434 266.822 173.45 267.044 173.466 267.315Z" fill="#171B23"/>
<path d="M198.636 267.283C198.636 267.044 198.683 266.822 198.683 266.615C198.683 265.898 198.683 265.182 198.683 264.465C198.683 259.817 198.683 255.184 198.683 250.535C198.683 249.692 198.476 249.039 197.84 248.45C196.455 247.128 195.133 245.743 193.78 244.39C193.7 244.311 193.605 244.231 193.446 244.088C193.286 245.616 193.35 266.774 193.509 267.283H198.62H198.636Z" fill="#171B23"/>
<path d="M208.442 267.267C208.474 267.156 208.506 267.092 208.506 267.028C208.506 264.179 208.506 261.329 208.506 258.479C208.506 258.145 208.379 257.89 208.14 257.667C206.659 256.203 205.195 254.722 203.73 253.242C203.603 253.114 203.459 253.003 203.284 252.875C203.109 253.863 203.141 266.662 203.332 267.267H208.442Z" fill="#171B23"/>
<path d="M168.865 267.22V252.907C168.722 252.955 168.658 252.955 168.626 252.987C167.098 254.531 165.57 256.075 164.025 257.62C163.739 257.906 163.611 258.225 163.611 258.639C163.611 261.393 163.611 264.131 163.611 266.885C163.611 267.029 163.643 267.156 163.659 267.283C164.614 267.427 168.324 267.379 168.865 267.22Z" fill="#171B23"/>
<path d="M308.978 323.449C308.771 323.243 308.58 323.036 308.373 322.845C308.405 322.829 308.421 322.813 308.437 322.797C308.612 323.004 308.787 323.227 308.978 323.449Z" fill="#171B23"/>
</g>
<defs>
<clipPath id="clip0_40_124">
<rect width="370" height="370" fill="white"/>
</clipPath>
</defs>
</svg>
