<svg width="88" height="39" viewBox="0 0 88 39" fill="none" xmlns="http://www.w3.org/2000/svg">
<path d="M49.0046 38.9117V20.7222C49.1201 20.7154 49.2288 20.695 49.3375 20.695C53.4823 20.695 57.6271 20.695 61.7787 20.695C62.6553 20.695 63.4571 20.9462 64.1909 21.4079C65.5499 22.2566 66.5147 23.4177 66.936 24.9861C67.1874 25.9231 67.1194 26.8668 66.9156 27.8038C66.6778 28.8902 66.2565 29.895 65.5431 30.7573C64.9995 31.4159 64.3472 31.8912 63.3959 31.9998C63.5454 32.1152 63.6405 32.1967 63.7492 32.2714C64.3947 32.7059 65.1218 32.8621 65.8896 32.8621C67.466 32.8621 69.0492 32.8553 70.6256 32.8621C71.6584 32.8689 72.6979 32.9096 73.7307 32.93C74.0093 32.93 74.3015 32.9232 74.5733 32.8757C75.1237 32.7806 75.2596 32.4683 74.9266 32.0134C74.7024 31.7079 74.4238 31.4363 74.152 31.1783C73.5269 30.5944 72.9629 29.9629 72.4873 29.25C71.638 27.9871 71.2711 26.5817 71.2846 25.0879C71.2982 24.0355 71.7263 23.0986 72.365 22.2702C73.228 21.1567 74.3763 20.6 75.7896 20.6C79.7237 20.6 83.6647 20.6 87.5989 20.6C87.7212 20.6 87.8367 20.6136 87.9794 20.6203V26.0724C87.8231 26.0724 87.6804 26.0724 87.5377 26.0724C85.0576 26.0724 82.5776 26.0724 80.0975 26.0724C79.7917 26.0724 79.4859 26.1064 79.1802 26.1403C79.0579 26.1539 78.9355 26.1947 78.8268 26.249C78.5958 26.3576 78.5279 26.5341 78.6366 26.765C78.6977 26.894 78.7861 27.0162 78.8812 27.1316C79.7238 28.1161 80.5731 29.0938 81.4089 30.0783C81.701 30.4246 81.9864 30.7845 82.2514 31.1579C82.6931 31.7758 82.8833 32.4819 82.8901 33.2423C82.8901 33.8466 82.8901 34.4509 82.7134 35.0348C82.4349 35.9582 81.9117 36.7322 81.1914 37.3501C80.0975 38.2938 78.854 38.8098 77.3796 38.8166C72.7251 38.8302 68.0775 38.8777 63.4231 38.9049C63.063 38.9049 62.7096 38.8845 62.3495 38.8777C61.6632 38.8777 61.0721 38.6129 60.5761 38.1512C59.917 37.5402 59.2443 36.9359 58.626 36.2841C57.6815 35.2792 56.771 34.2336 55.8537 33.2084C55.779 33.1269 55.7042 33.0454 55.6159 32.9504C55.5072 33.0794 55.5479 33.222 55.5479 33.3442C55.5479 35.0484 55.5479 36.7458 55.5479 38.45C55.5479 38.5858 55.5479 38.7148 55.5479 38.8981C53.3464 38.9117 51.1857 38.8981 48.991 38.9049L49.0046 38.9117ZM55.5819 28.5846C55.7246 28.5846 55.8333 28.5846 55.942 28.5846C57.1515 28.5846 58.361 28.5846 59.5704 28.5846C59.7879 28.5846 60.0121 28.5575 60.2295 28.5099C60.5489 28.4352 60.8207 28.2519 60.9973 27.9735C61.3779 27.3761 61.3575 26.7582 61.0449 26.1471C60.7527 25.5836 60.2703 25.3188 59.6248 25.3256C58.4017 25.3392 57.1855 25.3256 55.9624 25.3256C55.8401 25.3256 55.7246 25.3392 55.5819 25.3392V28.5914V28.5846Z" fill="white"/>
<path d="M34.8035 18.2847H28.8445C28.8445 16.1527 28.8445 14.0343 28.8445 11.9228C28.8445 9.81117 28.8445 7.71317 28.8445 5.588C28.7086 5.57442 28.6203 5.56084 28.5251 5.56084C25.8956 5.56084 23.2728 5.56085 20.6432 5.56764C20.4258 5.56764 20.2016 5.60158 19.9841 5.64911C19.5561 5.75774 19.4813 5.98859 19.7395 6.35523C19.7803 6.41634 19.8278 6.47066 19.8754 6.52497C20.7791 7.58416 21.6896 8.64335 22.5865 9.70254C22.9874 10.1778 23.3068 10.7074 23.4087 11.3321C23.4291 11.4407 23.4495 11.5493 23.4427 11.6647C23.4019 12.4863 23.4019 13.3214 23.2864 14.1362C23.001 16.241 21.1324 18.0267 19.0328 18.2779C18.8358 18.2983 18.6388 18.2983 18.4417 18.2983C12.7409 18.2983 7.04008 18.2983 1.33926 18.2983H0.917969V12.2215H1.34604C5.38214 12.2215 9.41144 12.2215 13.4475 12.2215C13.7805 12.2215 14.1134 12.2758 14.4464 12.2758C14.8133 12.2758 15.187 12.2758 15.5471 12.2215C16.0364 12.14 16.179 11.8345 15.8937 11.4271C15.6898 11.1284 15.4316 10.85 15.1598 10.6056C14.3716 9.87228 13.665 9.0711 13.1282 8.12734C12.605 7.19715 12.3264 6.19907 12.2517 5.13988C12.109 3.13014 13.2505 1.22904 15.0919 0.427862C15.5607 0.224172 16.0499 0.115534 16.5596 0.0951648C16.7702 0.0883752 16.9808 0.0883789 17.1915 0.0883789C25.5558 0.0883789 33.9202 0.0883789 42.2846 0.0883789H42.7874V5.55405C41.8973 5.56763 41.014 5.55405 40.1306 5.55405C39.2541 5.55405 38.3776 5.55405 37.5011 5.55405C36.6245 5.55405 35.7276 5.55405 34.7967 5.55405V18.2779L34.8035 18.2847Z" fill="white"/>
<path d="M22.0837 38.7962H16.7226C15.9548 35.9785 15.187 33.154 14.4192 30.3363C14.3988 30.3363 14.3716 30.3363 14.3513 30.3363C13.4883 33.154 12.6254 35.9717 11.7556 38.7962H6.26547C4.47845 32.7466 2.6914 26.6971 0.897583 20.6135H7.61763C8.168 22.5689 8.71838 24.5244 9.26875 26.4798C9.29593 26.4798 9.32311 26.4798 9.35709 26.4798C9.8667 24.5312 10.3695 22.5893 10.8859 20.6203H17.9457C18.5368 22.5825 19.128 24.5515 19.7259 26.5273C19.7463 26.5273 19.7735 26.5273 19.7939 26.5273C20.385 24.5651 20.9762 22.6029 21.5673 20.6271H27.3972C26.8265 22.664 26.2149 24.667 25.6306 26.6835C25.0462 28.6932 24.4551 30.703 23.8639 32.7059C23.2728 34.7224 22.6748 36.7458 22.0701 38.7962H22.0837Z" fill="white"/>
<path d="M69.9053 12.3845V18.2779H63.3619V0.122374C63.4503 0.108795 63.5454 0.0952148 63.6405 0.0952148C67.8329 0.0952148 72.0321 0.0952148 76.2244 0.0952148C77.2708 0.0952148 78.1746 0.495807 78.9899 1.10009C80.2605 2.05064 81.1303 3.27278 81.3885 4.86835C81.5312 5.77138 81.4224 6.66082 81.1914 7.53669C80.9876 8.3175 80.6818 9.05757 80.2198 9.72295C79.6218 10.592 78.8948 11.2846 77.7465 11.3932C77.7601 11.6173 77.9028 11.7259 78.0522 11.8345C78.3444 12.0314 78.6842 12.1197 79.0239 12.1604C79.3772 12.2012 79.7373 12.2283 80.0907 12.2283C82.5708 12.2283 85.0508 12.2283 87.5309 12.2283C87.6736 12.2283 87.8231 12.2283 87.9862 12.2283V18.2779C87.8843 18.2847 87.7824 18.3051 87.6736 18.3051C84.1064 18.3051 80.5459 18.3051 76.9787 18.3051C76.1837 18.3051 75.4974 18.0607 74.8859 17.5243C73.6628 16.4583 72.5689 15.2769 71.4953 14.0683C71.0468 13.5591 70.5984 13.0499 70.1499 12.5407C70.0956 12.4796 70.048 12.4049 70.0004 12.337C69.9665 12.3573 69.9325 12.3777 69.8985 12.3981L69.9053 12.3845ZM69.9257 4.72576V7.93728C70.014 7.95085 70.082 7.97123 70.1567 7.97123C71.4477 7.97123 72.7455 7.97123 74.0365 7.97123C74.1452 7.97123 74.2607 7.96444 74.3695 7.94407C74.8111 7.88296 75.1645 7.67927 75.3887 7.28547C75.7216 6.68798 75.6877 6.07691 75.3683 5.48621C75.0693 4.93624 74.5801 4.69861 73.9618 4.69861C72.7183 4.69861 71.4749 4.69861 70.2246 4.69861C70.1363 4.69861 70.0548 4.71219 69.9257 4.71898V4.72576Z" fill="white"/>
<path d="M46.3003 38.9049H40.4296C40.1238 38.0765 39.8045 37.2278 39.4919 36.3723H33.1864C32.8602 37.2142 32.5341 38.0629 32.2079 38.9049H26.2489C26.2829 38.7623 26.3032 38.6401 26.3372 38.5178C27.2137 35.544 28.0903 32.5633 28.9668 29.5894C29.7958 26.7785 30.6247 23.9676 31.4605 21.1567C31.508 21.0073 31.5556 20.8579 31.61 20.7018H41.211C42.9097 26.7582 44.6016 32.8077 46.3071 38.8913L46.3003 38.9049ZM38.5135 31.9726C37.8748 29.7863 37.2496 27.6204 36.6177 25.4613C36.5905 25.4613 36.5702 25.4613 36.543 25.4613C35.8771 27.6272 35.2044 29.7864 34.5249 31.9794H38.5067L38.5135 31.9726Z" fill="white"/>
<path d="M54.2637 15.7657H47.9514C47.632 16.6008 47.3059 17.436 46.9865 18.2779H40.9935C42.7874 12.2079 44.5744 6.16514 46.3614 0.108765H55.9828C57.6747 6.15835 59.3734 12.2079 61.0721 18.2847H55.2014C54.8956 17.4563 54.5899 16.628 54.2705 15.7657H54.2637ZM51.3895 4.86153C51.3895 4.86153 51.3284 4.86831 51.3012 4.8751C50.6353 7.02064 49.9762 9.16617 49.3103 11.3185C49.8539 11.3932 52.9931 11.3728 53.2649 11.2913C52.6398 9.1458 52.0147 7.00706 51.3895 4.86153Z" fill="white"/>
</svg>
